<svg width="2300" height="2000" viewBox="0 0 2300 2000" fill="none" xmlns="http://www.w3.org/2000/svg">
<g clip-path="url(#clip0_290_1730)">
<path fill-rule="evenodd" clip-rule="evenodd" d="M0 1002.72L577.442 2.71875H1722.79L2300 998.245L1727.21 2002.72H575.116L0 1002.72Z" fill="white"/>
<path fill-rule="evenodd" clip-rule="evenodd" d="M595.814 48.8672H1711.86L2260 1004.37L1705.81 1962.92H603.488L46.2791 1004.37L595.814 48.8672Z" fill="#F89836"/>
<path fill-rule="evenodd" clip-rule="evenodd" d="M1022.33 1888.99L859.07 1357.56L354.186 1056.64L886.744 128.69L1040.7 564.998H1326.98L1465.58 125.629L1967.44 1087.25L1445.58 1357.56L1293.26 1890.64L1022.33 1888.99Z" fill="black"/>
<path fill-rule="evenodd" clip-rule="evenodd" d="M816.744 1170.13V929.727L1038.37 1170.13H816.744Z" fill="white"/>
<path fill-rule="evenodd" clip-rule="evenodd" d="M1499.77 1168.48V928.078L1278.14 1168.48H1499.77Z" fill="white"/>
</g>
<defs>
<clipPath id="clip0_290_1730">
<rect width="2300" height="2000" fill="white"/>
</clipPath>
</defs>
</svg>
