<svg width="2500" height="2500" viewBox="0 0 2500 2500" fill="none" xmlns="http://www.w3.org/2000/svg">
<path fill-rule="evenodd" clip-rule="evenodd" d="M1362.18 2304.29C1353.19 2331.24 1323.9 2397.26 1253.23 2397.26C1172.96 2397.26 1144.94 2310.3 1143.58 2306.73L1141.29 2298.39C1141.29 2298.39 1210.47 2304.14 1248.56 2304.14C1286.65 2304.14 1351.72 2300.44 1362.38 2298.39L1362.18 2304.29Z" fill="black"/>
<path fill-rule="evenodd" clip-rule="evenodd" d="M1572.88 2261.41L1589.47 2263.62C1569.78 2314.91 1534.45 2372.42 1465.04 2372.42C1397.86 2372.42 1364.55 2333.49 1350.33 2307.3L1338.73 2300.18C1338.74 2300.17 1454.93 2296.34 1572.88 2261.41ZM935.963 2261.41L919.4 2263.62C939.05 2314.91 974.405 2372.42 1043.85 2372.42C1111.02 2372.42 1147.31 2331.31 1162.19 2307.3L1170.12 2300.18C1170.11 2300.17 1053.94 2296.34 935.963 2261.41Z" fill="black"/>
<path fill-rule="evenodd" clip-rule="evenodd" d="M1309.54 2309.63C1298.67 2325.39 1291.41 2324.65 1278.29 2324.65C1271.72 2324.65 1261.87 2330.1 1262.18 2339.96C1262.38 2347.69 1268.69 2354.15 1279.4 2354.15C1303.11 2354.15 1321.18 2321.01 1326.26 2307C1326.26 2307 1340.29 2306.39 1344.39 2305.99C1344.39 2305.99 1319.24 2380.84 1254.08 2380.84C1188.78 2380.84 1162.19 2306.79 1162.19 2306.79C1162.19 2306.79 1217.13 2310.19 1248.62 2310.19C1280.11 2310.19 1300.11 2310.05 1309.54 2309.63ZM1564.19 2276.7C1521.59 2288.18 1491.34 2297.45 1419.82 2306.16C1419.82 2306.16 1422.06 2313.55 1437.61 2312.72C1443.59 2312.42 1444.35 2310.94 1446.57 2310.54C1450.98 2309.74 1457.76 2314.37 1456.96 2322.15C1456.37 2327.57 1451.72 2334.43 1435.88 2334.43C1420.05 2334.43 1401.54 2321.46 1392.24 2309.45C1392.24 2309.45 1382.72 2311.63 1372.89 2312.19C1372.89 2312.19 1403.31 2354.82 1463.35 2354.82C1529.42 2354.83 1553.8 2295.81 1564.19 2276.7Z" fill="#FFF22D"/>
<path fill-rule="evenodd" clip-rule="evenodd" d="M1519.89 2318.38C1519.89 2308.04 1516.7 2298.47 1511.28 2290.54C1488.15 2295.99 1461.71 2300.98 1422.96 2305.8C1422.69 2306.95 1422.43 2308.11 1422.2 2309.27C1424.53 2311.16 1429.06 2313.2 1437.61 2312.75C1443.59 2312.45 1444.35 2310.97 1446.57 2310.57C1450.98 2309.76 1457.76 2314.39 1456.96 2322.18C1456.37 2327.6 1451.72 2334.46 1435.88 2334.46C1431.81 2334.46 1427.52 2333.6 1423.29 2332.1C1425.36 2339.3 1429.03 2345.81 1433.9 2351.23C1443.52 2353.66 1453.41 2354.88 1463.34 2354.85C1484.52 2354.85 1501.39 2348.79 1514.92 2339.91C1518.2 2333.2 1519.9 2325.84 1519.89 2318.38Z" fill="#FADE2F"/>
<path fill-rule="evenodd" clip-rule="evenodd" d="M1519.21 2318.38C1519.23 2308.49 1516.21 2298.83 1510.57 2290.71C1487.75 2296.03 1461.67 2300.94 1423.72 2305.68C1423.35 2307.01 1423.06 2308.35 1422.83 2309.71C1425.31 2311.46 1429.77 2313.16 1437.63 2312.72C1443.61 2312.42 1444.38 2310.94 1446.59 2310.54C1451 2309.74 1457.79 2314.37 1456.98 2322.15C1456.4 2327.57 1451.74 2334.43 1435.91 2334.43C1432.08 2334.43 1428.07 2333.67 1424.11 2332.36C1426.28 2339.61 1430.08 2346.12 1435.13 2351.51C1443.66 2353.59 1453.09 2354.83 1463.38 2354.83C1483.97 2354.83 1500.51 2349.11 1513.84 2340.62C1517.37 2333.74 1519.21 2326.11 1519.21 2318.38Z" fill="#FBE02F"/>
<path fill-rule="evenodd" clip-rule="evenodd" d="M1518.52 2318.38C1518.52 2308.14 1515.33 2298.65 1509.86 2290.87C1487.37 2296.11 1461.57 2300.94 1424.44 2305.61C1424.04 2307.08 1423.68 2308.6 1423.43 2310.13C1426.01 2311.72 1430.37 2313.11 1437.62 2312.73C1443.6 2312.44 1444.36 2310.96 1446.58 2310.56C1450.99 2309.75 1457.77 2314.38 1456.97 2322.16C1456.39 2327.58 1451.73 2334.45 1435.89 2334.45C1432.15 2334.39 1428.43 2333.78 1424.87 2332.62C1427.13 2339.89 1431.08 2346.44 1436.3 2351.8C1444.53 2353.69 1453.55 2354.83 1463.35 2354.83C1483.36 2354.83 1499.55 2349.41 1512.67 2341.33C1516.53 2334.3 1518.54 2326.4 1518.52 2318.38Z" fill="#FCE22F"/>
<path fill-rule="evenodd" clip-rule="evenodd" d="M944.69 2276.71C987.269 2288.18 1017.53 2297.46 1089.04 2306.16C1089.04 2306.16 1086.81 2313.55 1071.26 2312.72C1065.27 2312.42 1064.5 2310.95 1062.29 2310.54C1057.89 2309.74 1051.09 2314.37 1051.92 2322.15C1052.49 2327.57 1057.14 2334.43 1072.97 2334.43C1088.81 2334.43 1107.32 2321.46 1116.6 2309.45C1116.6 2309.45 1126.16 2311.63 1135.99 2312.19C1135.99 2312.19 1105.55 2354.82 1045.52 2354.82C979.449 2354.84 955.053 2295.81 944.69 2276.71ZM1247.78 1925.54C1475.41 1925.54 1727.64 1785.81 1904.48 1584.37C1923.61 1562.6 1956.08 1521.32 2033.06 1521.32C2110.02 1521.32 2212.35 1591.46 2200.31 1719.19C2191.54 1812.31 2058.43 2022.17 1830.8 2151.55C1603.16 2280.92 1393.55 2308.75 1247.79 2308.75C1102.04 2308.75 892.422 2280.92 664.776 2151.55C437.144 2022.17 304.048 1812.31 295.255 1719.19C283.206 1591.46 385.537 1521.32 462.513 1521.32C539.488 1521.32 571.978 1562.62 591.095 1584.37C767.938 1785.81 1020.15 1925.54 1247.78 1925.54Z" fill="#FFF22D"/>
<path d="M1247.78 1917.35C1358.08 1917.35 1474.35 1884.07 1584.89 1826.64C1700.08 1766.81 1808.92 1680.86 1898.35 1579C1908.2 1567.8 1921.44 1551.57 1942.62 1537.86C1963.93 1524.06 1992.73 1513.14 2033.06 1513.14C2037.24 1513.14 2041.7 1513.37 2046.38 1513.8C2083.49 1517.31 2124.28 1535.25 2155.74 1566.48C2187.23 1597.74 2209.48 1642.25 2209.48 1698.81C2209.48 1705.48 2209.15 1712.52 2208.44 1719.97C2203.39 1773.44 2158.97 1863.77 2080.47 1955.65C2018.86 2027.73 1936.13 2101.08 1834.85 2158.63C1720.24 2223.75 1610.18 2263.35 1510.45 2286.63C1337.67 2327 1157.91 2327 985.131 2286.63C885.407 2263.35 775.345 2223.75 660.744 2158.63C559.463 2101.07 476.729 2027.71 415.123 1955.65C336.617 1863.77 292.182 1773.44 287.137 1719.97C286.461 1712.93 286.115 1705.88 286.1 1698.81C286.1 1642.25 308.343 1597.74 339.846 1566.48C371.298 1535.25 412.075 1517.31 449.168 1513.8C453.876 1513.37 458.338 1513.14 462.514 1513.14C502.824 1513.14 531.656 1524.06 552.94 1537.86C574.132 1551.57 587.387 1567.8 597.231 1579C686.658 1680.86 795.526 1766.8 910.685 1826.64C1021.23 1884.07 1137.47 1917.35 1247.78 1917.35ZM1247.78 1933.72C1134.79 1933.72 1015.95 1899.78 903.123 1841.18C786.253 1780.46 675.75 1693.17 584.936 1589.76C575.663 1579.2 563.121 1563.9 544.042 1551.54C525.068 1539.26 499.167 1529.53 462.501 1529.53C458.561 1529.53 454.623 1529.7 450.699 1530.06C417.081 1533.23 380.04 1549.59 351.35 1578.06C322.7 1606.51 302.467 1647.09 302.467 1698.82C302.467 1705.39 302.766 1711.92 303.375 1718.44C308.148 1769.04 351.234 1855.78 427.522 1945.06C488.039 2015.86 569.32 2087.93 668.798 2144.47C781.843 2208.71 890.426 2247.74 988.84 2270.71C1073.73 2290.55 1160.61 2300.57 1247.78 2300.58C1334.95 2300.58 1421.84 2290.55 1506.72 2270.71C1605.16 2247.74 1713.73 2208.71 1826.77 2144.47C1926.24 2087.93 2007.54 2015.86 2068.05 1945.03C2144.36 1855.76 2187.44 1769.06 2192.2 1718.44C2192.81 1711.95 2193.11 1705.39 2193.11 1698.82C2193.11 1647.1 2172.86 1606.52 2144.21 1578.06C2115.54 1549.59 2078.48 1533.23 2044.86 1530.06C2040.94 1529.7 2037 1529.53 2033.06 1529.53C1996.41 1529.53 1970.5 1539.26 1951.52 1551.54C1932.44 1563.9 1919.89 1579.2 1910.64 1589.76C1819.83 1693.17 1709.34 1780.46 1592.45 1841.15C1479.64 1899.78 1360.79 1933.72 1247.78 1933.72Z" fill="black"/>
<path fill-rule="evenodd" clip-rule="evenodd" d="M565.52 1604.38L562.862 1601.37C544.743 1580.56 519.919 1552.04 460.634 1552.04C426.057 1552.04 386.901 1570.54 360.883 1599.14C341.429 1620.48 319.367 1658.03 324.789 1715.44C332.181 1793.86 456.717 1997.27 678.487 2123.32C857.236 2224.9 1048.14 2276.43 1245.91 2276.43C1443.69 2276.43 1634.58 2224.9 1813.34 2123.32C2035.1 1997.27 2159.65 1793.86 2167.04 1715.44C2172.44 1658.03 2150.4 1620.5 2130.92 1599.14C2104.93 1570.54 2065.75 1552.04 2031.19 1552.04C1971.92 1552.04 1947.1 1580.56 1928.95 1601.37L1926.32 1604.38C1735.73 1821.44 1475.01 1956.26 1245.91 1956.26C1016.83 1956.26 756.098 1821.45 565.52 1604.38Z" fill="#C23227"/>
<path fill-rule="evenodd" clip-rule="evenodd" d="M1979.05 1348.35C1979.05 1239.13 2067.56 1150.59 2176.79 1150.59C2286.02 1150.59 2374.55 1239.13 2374.55 1348.35C2374.55 1457.56 2286.02 1546.09 2176.79 1546.09C2067.56 1546.09 1979.05 1457.56 1979.05 1348.35Z" fill="#FFF22D"/>
<path d="M1970.85 1348.35C1970.85 1291.48 1993.89 1239.99 2031.18 1202.72C2068.42 1165.44 2119.92 1142.39 2176.79 1142.39C2233.67 1142.39 2285.16 1165.44 2322.43 1202.72C2359.71 1239.99 2382.74 1291.48 2382.74 1348.35C2382.74 1405.23 2359.69 1456.7 2322.43 1493.97C2285.17 1531.23 2233.67 1554.28 2176.79 1554.28C2119.92 1554.28 2068.44 1531.23 2031.18 1493.97C2012.02 1474.87 1996.83 1452.17 1986.47 1427.18C1976.12 1402.2 1970.81 1375.4 1970.85 1348.35ZM1987.23 1348.35C1987.23 1400.69 2008.46 1448.08 2042.75 1482.38C2077.04 1516.69 2124.45 1537.91 2176.78 1537.91C2229.11 1537.91 2276.5 1516.68 2310.84 1482.38C2328.46 1464.8 2342.44 1443.91 2351.97 1420.91C2361.5 1397.91 2366.39 1373.25 2366.36 1348.35C2366.39 1323.46 2361.5 1298.8 2351.97 1275.79C2342.45 1252.79 2328.46 1231.89 2310.84 1214.31C2276.52 1180.01 2229.11 1158.79 2176.78 1158.79C2124.45 1158.79 2077.06 1180.01 2042.75 1214.31C2025.12 1231.89 2011.13 1252.78 2001.6 1275.79C1992.08 1298.79 1987.19 1323.45 1987.23 1348.35Z" fill="black"/>
<path fill-rule="evenodd" clip-rule="evenodd" d="M125.184 1348.67C125.184 1239.47 213.728 1150.93 322.947 1150.93C432.152 1150.93 520.697 1239.47 520.697 1348.67C520.697 1457.9 432.152 1546.43 322.947 1546.43C213.728 1546.43 125.184 1457.9 125.184 1348.67Z" fill="#FFF22D"/>
<path d="M117 1348.67C117 1291.82 140.047 1240.33 177.322 1203.06C196.427 1183.91 219.126 1168.72 244.117 1158.37C269.108 1148.02 295.898 1142.71 322.947 1142.75C379.806 1142.75 431.296 1165.81 468.558 1203.06C487.708 1222.16 502.894 1244.85 513.244 1269.84C523.594 1294.83 528.903 1321.62 528.868 1348.67C528.868 1405.54 505.821 1457.03 468.558 1494.3C449.458 1513.46 426.762 1528.65 401.773 1539C376.784 1549.36 349.996 1554.67 322.947 1554.64C266.074 1554.64 214.597 1531.57 177.322 1494.3C140.047 1457.04 117 1405.53 117 1348.67ZM133.368 1348.67C133.334 1373.57 138.222 1398.23 147.75 1421.24C157.279 1444.24 171.261 1465.14 188.891 1482.72C206.474 1500.35 227.368 1514.33 250.372 1523.86C273.375 1533.39 298.035 1538.28 322.934 1538.25C375.28 1538.25 422.658 1517.01 456.963 1482.72C474.594 1465.14 488.576 1444.24 498.105 1421.24C507.633 1398.23 512.521 1373.57 512.487 1348.67C512.487 1296.33 491.268 1248.94 456.963 1214.64C422.658 1180.33 375.28 1159.11 322.934 1159.11C298.035 1159.08 273.375 1163.97 250.372 1173.5C227.368 1183.03 206.474 1197.01 188.891 1214.64C171.265 1232.22 157.286 1253.11 147.757 1276.11C138.229 1299.11 133.339 1323.77 133.368 1348.67Z" fill="black"/>
<path fill-rule="evenodd" clip-rule="evenodd" d="M2230.93 816.465L2232.02 763.51C2248.18 775.714 2278.96 776.194 2296.97 756.947C2305.26 748.154 2309.89 734.73 2309.15 720.697C2308.13 704.285 2301.14 688.814 2289.49 677.209C2222.89 612.308 2164.02 547.434 2164.02 547.434C2158.06 537.836 2148.26 530.742 2142.92 528.355C2134.58 524.646 2105.78 511.468 2083.81 544.879C2063.9 575.163 2066.86 618.015 2070.44 633.579L2132.93 718.479C2154.24 745.495 2214.3 803.081 2230.93 816.465ZM899.414 265.782C977.933 239.467 1049.59 217.742 1146.2 209.156L899.414 265.782Z" fill="black"/>
<path fill-rule="evenodd" clip-rule="evenodd" d="M899.412 266.002C977.931 239.648 1049.59 217.962 1146.2 209.363L1160.92 201.05C1106.9 158.587 1053.31 129.703 999.967 129.703C966.466 129.703 898.375 152.426 883.07 272.526L899.412 266.002ZM1596.37 266.002C1517.84 239.648 1446.2 217.962 1349.59 209.363L1334.87 201.05C1388.88 158.587 1442.46 129.703 1495.8 129.703C1529.31 129.703 1597.43 152.426 1612.71 272.526L1596.37 266.002ZM1183.45 197.289C1199.42 196.471 1236.26 195.654 1251.01 195.654C1265.73 195.654 1306.44 197.6 1315.35 198.274L1183.45 197.289Z" fill="black"/>
<path fill-rule="evenodd" clip-rule="evenodd" d="M1159.12 205.278C1198.61 129.574 1234.8 102 1254.81 102C1279.84 102 1309.15 141.843 1332.12 193.113L1336.99 204.656L1317 203.009C1303.39 200.57 1265.73 200.155 1251.01 200.155C1236.26 200.155 1204.33 200.155 1185.08 201.789L1159.12 205.278Z" fill="black"/>
<path fill-rule="evenodd" clip-rule="evenodd" d="M1081.85 1997.85L1046.49 2129.76L980.578 1970.73L939.555 1959.74L889.57 2146.25L934.069 2158.19L969.697 2025.22L1036.66 2185.67L1076.63 2196.38L1126.61 2009.84L1081.85 1997.85ZM1235.49 2021.42L1184.79 2018.76L1174.7 2211.58L1225.38 2214.24L1235.49 2021.42ZM1281.01 2019.77L1284.56 2045.18L1338.65 2037.55L1361.95 2203.37L1412.23 2196.3L1388.91 2030.51L1442.17 2023.01L1438.63 1997.63L1281.01 2019.77ZM1804.11 1941.16C1828.66 1984.2 1823.72 2015.51 1785.85 2037.37L1767.88 2047.74L1696.87 1924.79L1716.28 1913.58C1761.6 1887.42 1787.17 1910.7 1804.11 1941.16ZM1705.34 1890.18L1639.91 1927.95L1736.78 2095.75L1801.73 2058.25C1869.32 2019.21 1875.57 1960.32 1849.07 1913.28C1817.08 1857.31 1764.55 1856 1705.34 1890.18ZM1582.76 2127.76L1563.49 2068.46L1620.71 2049.86L1612.69 2025.19L1555.48 2043.78L1539.02 1993.15L1597.81 1974.07L1589.89 1949.66L1482.57 1984.53L1542.23 2168.16L1660.58 2129.73L1652.55 2105.06L1582.76 2127.76ZM848.131 1915L790.948 2018.15C773.698 2049.25 755.916 2068.94 726.825 2052.15C697.954 2036.17 704.634 2012.3 722.299 1980.41L779.599 1877L733.427 1851.41L672.897 1960.59C639.513 2020.84 681.612 2057.94 714.244 2076.02C749.379 2095.5 800.402 2109.99 833.501 2050.26L894.291 1940.58L848.131 1915ZM815.421 780.784V1684.91L1247.77 1962.82L1680.1 1684.91L1680.66 782.211C1666.95 769.941 1638.16 743.081 1615.49 729.203H878.065C859.22 742.406 821.816 773.832 815.421 780.784Z" fill="#FFF22D"/>
<path d="M823.605 780.785V1680.46L1247.77 1953.12L1671.93 1680.46L1672.46 782.212H1688.86L1688.3 1684.91V1689.34L1684.53 1691.78L1252.18 1969.71L1247.77 1972.55L1243.35 1969.71L811.012 1691.78L807.225 1689.34V780.785H823.605Z" fill="black"/>
<path d="M1675.2 788.332C1671.3 784.83 1674.24 787.437 1670.1 783.702H1670.05C1655.3 770.369 1630.58 748.035 1611.21 736.181L1619.74 722.238C1640.66 735.065 1665.97 757.918 1681.08 771.549H1681.02L1686.15 776.115L1675.2 788.332Z" fill="black"/>
<path d="M1615.49 737.387H878.064V721.02H1615.49V737.387Z" fill="black"/>
<path d="M882.759 735.921C873.927 742.121 861.463 751.926 850.063 761.303C836.717 772.301 824.668 782.781 821.425 786.322L809.402 775.258C813.008 771.303 825.744 760.187 839.7 748.696C851.826 738.71 864.757 728.502 873.343 722.484L882.759 735.921Z" fill="black"/>
<path fill-rule="evenodd" clip-rule="evenodd" d="M1278.32 1167.5C1275.32 1166.18 1264.55 1174.86 1259.64 1182.64C1254.72 1190.42 1253.28 1200.45 1260.25 1204.13C1267.21 1207.81 1275.98 1203.04 1278.08 1190.84C1279.28 1183.66 1281.62 1168.93 1278.32 1167.5ZM1195.56 1190.82C1197.37 1203.09 1206.41 1207.81 1213.37 1204.12C1220.34 1200.43 1218.91 1190.41 1213.99 1182.63C1209.07 1174.84 1198.94 1166.17 1195.92 1167.49C1192.63 1168.93 1194.54 1183.87 1195.56 1190.82ZM1238.96 1311.09C1253.49 1287.25 1259.53 1262.48 1259.53 1262.48H1217.98C1217.98 1262.48 1224.63 1287.86 1238.96 1311.09ZM1246.12 1132.01L1279.69 1073.59L1305.89 1132.01H1349.31C1323.1 1156.58 1312.45 1193.69 1312.45 1218.27V1245.28C1312.45 1256.76 1306.73 1275.58 1306.73 1275.58C1306.73 1275.58 1344.32 1304.31 1350.13 1309.15C1352.58 1311.2 1355.17 1312.39 1353.39 1317.36C1350.41 1325.81 1325 1337.14 1322.29 1339.44C1316.57 1344.36 1315.02 1347.58 1316.69 1352.57C1318.34 1357.46 1323.1 1358.29 1332.93 1355.01C1342.76 1351.74 1363.23 1341.1 1380.45 1333.72C1397.62 1326.36 1420.55 1327.98 1420.55 1327.98V1295.26H1355.88V1190.43L1344.41 1172.13L1373.08 1121.36L1401.71 1172.42L1390.25 1190.42V1245.28H1423.42V1190.42L1411.97 1172.42L1440.62 1121.63L1469.27 1172.42L1457.81 1190.42V1245.28H1490.98V1190.42L1479.52 1172.42L1508.18 1121.63L1536.83 1172.42L1525.35 1190.42L1525.7 1295.16L1460.67 1295.19V1343.32C1475.41 1357.23 1489.34 1388.59 1489.34 1407.41C1489.34 1426.25 1477.06 1434.43 1477.06 1434.43C1481.13 1449.18 1480.33 1455.3 1478.68 1468.83C1477.01 1482.63 1459.84 1504.02 1459.84 1504.02V1753.68C1459.84 1770.69 1420.55 1769.07 1420.55 1754.51V1509.76C1398.44 1485.21 1337.84 1466.37 1337.84 1466.37C1315.73 1488.45 1301.83 1526.96 1301.83 1526.96C1311.66 1533.52 1326.4 1526.96 1332.12 1520.4C1337.84 1513.86 1349.32 1512.21 1355.88 1516.3C1362.42 1520.4 1364.07 1522.04 1361.6 1531.88C1359.15 1541.68 1355.04 1558 1355.04 1569.44C1355.04 1580.91 1368.17 1578.42 1377.97 1579.27C1397.63 1580.91 1400.9 1603 1399.28 1615.28C1397.63 1627.57 1391.91 1653.79 1391.91 1670.15C1391.91 1686.5 1392.72 1702.9 1394.37 1711.92C1395.99 1720.91 1399.28 1730.74 1398.44 1742.22C1397.32 1757.74 1387.8 1760.23 1377.97 1750.4C1368.17 1740.57 1231.4 1594.82 1231.4 1594.82C1222.4 1624.27 1260.05 1675.08 1272.35 1690.63C1284.63 1706.2 1283.8 1717.65 1273.18 1728.29C1262.51 1738.93 1242.05 1744.66 1237.96 1754.5C1233.86 1764.33 1247.79 1793.79 1276.44 1830.62C1305.09 1867.48 1243.68 1892.05 1206.84 1899.43C1169.99 1906.79 1169.99 1881.39 1172.45 1867.48C1174.89 1853.55 1174.89 1845.37 1174.09 1833.09C1173.27 1820.83 1161.8 1803.63 1146.24 1783.13C1130.68 1762.69 1130.68 1743.84 1137.24 1696.35C1143.79 1648.88 1142.16 1618.55 1142.16 1618.55C1142.16 1618.55 1125.77 1619.38 1102.03 1618.55C1078.28 1617.75 1058.63 1603.91 1057 1546.58C1055.36 1489.26 1054 1352.54 1050.17 1338.33C1046.36 1324.14 1031.07 1321.4 1024.52 1319.78C1017.97 1318.13 1017.49 1308.3 1024.04 1305.03C1041.1 1296.5 1061.64 1275.55 1054 1262.46C1046.36 1249.34 1016.34 1252.07 996.142 1261.9C975.948 1271.73 954.652 1293 949.191 1299.03C943.731 1305.03 939.36 1305.03 939.905 1298.47C940.45 1291.91 936.092 1260.81 933.368 1249.89C930.645 1238.97 920.8 1218.24 917.532 1212.78C914.264 1207.32 917.532 1205.14 922.992 1207.32C928.453 1209.51 940.463 1214.43 951.928 1217.7C963.393 1220.96 974.301 1215.52 979.761 1204.6C985.221 1193.68 995.584 1170.21 1001.04 1159.84C1006.5 1149.46 1015.25 1151.64 1022.34 1153.29C1029.45 1154.92 1036 1159.29 1042.53 1162.02C1049.08 1164.75 1054.54 1164.21 1056.72 1160.93C1058.92 1157.66 1061.65 1156.56 1065.47 1148.36C1069.28 1140.18 1074.19 1144 1074.74 1147.27C1094.31 1264.71 1145.16 1270.11 1145.16 1270.11C1137.53 1289.74 1119.51 1320.87 1115.15 1328.52C1110.78 1336.15 1109.15 1346.51 1108.06 1354.72C1106.97 1362.91 1110.78 1440.39 1116.24 1468.82C1121.72 1497.19 1139.19 1486.3 1144.63 1477.56C1150.08 1468.82 1167.02 1432.8 1167.02 1432.8C1167.02 1432.8 1171.39 1422.97 1171.39 1414.76C1171.39 1406.58 1157.19 1388.56 1153.91 1383.1C1150.64 1377.65 1138.63 1366.73 1138.63 1339.43C1138.63 1312.14 1163.19 1293.02 1171.93 1285.93C1180.66 1278.84 1180.66 1269.03 1179.57 1263.03C1175.73 1241.9 1153.36 1197.5 1142.45 1180.58C1131.53 1163.66 1110.25 1131.45 1110.25 1131.45H1154.46L1182.85 1072.49L1213.97 1131.72L1246.12 1132.01ZM1420.54 1429.52V1395.95C1420.54 1395.95 1411.52 1382.02 1389.41 1382.02C1367.32 1382.02 1354.22 1388.59 1354.22 1394.31C1354.22 1403.33 1373.87 1429.52 1420.54 1429.52ZM849.285 1006.3H1646.93V1060.71H849.285V1006.3ZM849.285 978.339V761.641H1646.93V978.339H849.285Z" fill="#C23227"/>
<path fill-rule="evenodd" clip-rule="evenodd" d="M1489.93 984.784V947.795H1431.99V923.943H1479.28V819.135H1435.87L1421.12 790.484L1406.37 819.135H1362.99V923.943H1410.25V947.795H1296.77V923.943H1344.04V819.135H1300.65L1285.9 790.484L1271.17 819.135H1227.77V923.943H1275.03V947.795H1159.33V923.943H1206.6V819.135H1163.19L1148.46 790.484L1133.72 819.135H1090.31V923.943H1137.58V947.795L1046.1 948.041L954.949 926.745L973.327 984.784H1489.93Z" fill="#FFF22D"/>
<path fill-rule="evenodd" clip-rule="evenodd" d="M986.427 922.04L1047.55 937.059L1080.34 845.025L1080.35 821.823L986.427 922.04ZM1133.93 203.307C1039.24 211.725 980.966 231.854 904.004 257.651C909.724 224.539 917.428 204.916 930.799 185.422C929.723 202.542 943.704 220.778 971.525 220.778C999.345 220.778 1014.83 204.734 1014.83 195.097C1014.83 185.487 1008.98 171.557 994.001 171.557C979.021 171.557 975.818 182.257 976.881 186.537C977.958 190.83 974.741 191.894 970.474 192.97C966.181 194.034 954.417 187.601 958.697 172.634C963.392 156.175 983.301 147.226 1006.83 147.226C1006.82 147.2 1062.82 144.969 1133.93 203.307ZM1592.46 258.312C1515.5 232.489 1454.61 212.373 1359.92 203.943C1403.51 173.568 1444.22 147.771 1488.95 147.771C1512.48 147.771 1532.4 156.72 1537.08 173.179C1541.36 188.159 1529.59 194.566 1525.31 193.489C1521.05 192.413 1517.84 191.349 1518.9 187.069C1519.96 182.802 1516.75 172.089 1501.78 172.089C1486.81 172.089 1480.96 185.993 1480.96 195.629C1480.96 205.266 1496.44 221.309 1524.26 221.309C1552.08 221.309 1566.06 203.061 1565 185.954C1578.35 205.46 1586.75 225.2 1592.46 258.312ZM1192.28 185.707C1189.74 189.767 1187.51 192.789 1184.79 197.315C1206.84 196.381 1228.91 195.841 1250.98 195.694C1265.45 195.694 1305.31 197.627 1314.06 198.262C1299.94 165.591 1273.32 120.482 1254.72 120.482C1251.05 120.482 1242.93 118.576 1227.65 136.163C1227.65 136.163 1225.28 143.932 1234.98 142.44C1247.27 140.56 1251.93 153.257 1251.02 159.573C1248.87 174.268 1231.76 188.457 1214.63 188.457C1197.52 188.457 1192.28 185.707 1192.28 185.707Z" fill="#FFF22D"/>
<path fill-rule="evenodd" clip-rule="evenodd" d="M367.498 718.479L429.986 633.579C433.579 618.015 436.536 575.163 416.614 544.878C394.643 511.468 365.825 524.646 357.485 528.355C352.142 530.741 342.362 537.836 336.383 547.434C336.383 547.434 276.437 613.683 210.11 678.882C200.888 687.935 190.486 705.081 189.643 720.684C188.865 734.717 194.377 748.711 202.626 757.505C220.667 776.726 252.261 775.714 268.396 763.51L269.485 816.465C286.164 803.081 346.201 745.495 367.498 718.479Z" fill="black"/>
<path fill-rule="evenodd" clip-rule="evenodd" d="M1247.78 594.759C1603.71 594.759 1806.39 928.99 1850.45 987.704C1929.07 1092.51 2025.09 1177.5 2136.5 1149.28C2300.24 1107.8 2291.52 865.165 2291.52 865.165C2252.24 836.762 2184.82 801.004 2062.24 627.144C1942.14 456.838 1670.28 204.148 1247.78 204.148C825.253 204.148 553.394 456.838 433.307 627.144C310.729 800.991 243.338 836.762 204.04 865.165C204.04 865.165 195.311 1107.8 359.081 1149.28C470.478 1177.5 566.519 1092.51 645.129 987.704C689.161 928.99 891.866 594.759 1247.78 594.759Z" fill="#FFF22D"/>
<path d="M1247.78 586.575C1578.74 586.575 1778.18 870.821 1843.07 963.308C1848.94 971.686 1853.73 978.496 1856.97 982.802C1895.73 1034.5 1938.72 1081.27 1985.58 1111.5C2031.51 1141.15 2081.28 1154.83 2134.5 1141.36C2279.9 1104.52 2283.65 900.547 2283.38 869.394C2280.27 867.176 2276.82 864.803 2273.2 862.312C2232.01 833.883 2165.79 788.203 2055.55 631.84C1986.63 534.074 1867.23 408.928 1697.64 320.851C1574.27 256.78 1424.31 212.333 1247.77 212.333C1071.22 212.333 921.242 256.78 797.887 320.851C628.294 408.928 508.92 534.061 439.986 631.84C329.717 788.229 263.519 833.896 222.301 862.325C218.696 864.816 215.272 867.176 212.146 869.381C211.874 900.521 215.622 1104.5 361.039 1141.34C414.267 1154.83 464.019 1141.14 509.958 1111.49C556.805 1081.26 599.799 1034.49 638.579 982.789C641.808 978.483 646.594 971.674 652.47 963.308C717.383 870.834 916.832 586.575 1247.78 586.575ZM1247.78 602.956C925.315 602.956 729.536 881.949 665.854 972.724C661.211 979.412 656.477 986.036 651.652 992.594C611.822 1045.7 567.479 1093.85 518.816 1125.26C469.233 1157.26 415.266 1171.97 357.096 1157.22C186.855 1114.09 195.83 865.659 195.856 864.932L195.973 860.925L199.28 858.525C203.755 855.296 208.216 852.209 213.054 848.889C253.325 821.095 318.031 776.479 426.64 622.437C496.716 523.062 618.061 395.855 790.429 306.338C915.911 241.164 1068.41 195.965 1247.79 195.965C1427.17 195.965 1579.67 241.164 1705.16 306.338C1877.52 395.855 1998.87 523.049 2068.95 622.437C2177.55 776.44 2242.24 821.094 2282.5 848.863C2287.33 852.196 2291.82 855.296 2296.3 858.525L2299.62 860.925L2299.72 864.932C2299.75 865.646 2308.71 1114.09 2138.48 1157.22C2080.32 1171.95 2026.36 1157.24 1976.79 1125.26C1928.1 1093.85 1883.77 1045.7 1843.92 992.594C1839.92 987.263 1835.36 980.726 1829.71 972.724C1766.01 881.949 1570.25 602.956 1247.78 602.956Z" fill="black"/>
<path fill-rule="evenodd" clip-rule="evenodd" d="M1247.78 563.23C1590.9 563.23 1795.09 854.284 1862.25 949.923C1866.63 956.271 1871.09 962.558 1875.65 968.781C1966.44 1089.82 2049.25 1138.87 2128.74 1118.72C2243.72 1089.59 2257.85 931.364 2259.45 883.557L2259.5 881.754L2258.04 880.743C2217.61 852.845 2149.87 806.167 2036.49 645.315C1968.72 549.223 1711.58 235.691 1247.78 235.691C783.982 235.691 526.857 549.223 459.09 645.315C346.46 805.025 275.788 853.817 237.813 880.042L236.334 881.054L236.386 882.857C238.033 930.845 252.313 1089.7 366.81 1118.72C446.327 1138.88 529.113 1089.82 619.876 968.781C623.196 964.372 627.878 957.692 633.313 949.936C700.431 854.284 904.64 563.23 1247.78 563.23Z" fill="#C23227"/>
<path fill-rule="evenodd" clip-rule="evenodd" d="M509.542 697.299L473.72 739.982L540.89 878.824L396.757 831.717L365.902 868.474L513.835 992.594L536.182 965.967L431.75 877.994L571.823 923.504L586.544 905.969L519.802 772.186L624.844 860.303L657.463 821.419L509.542 697.299ZM696.554 668.234L663.053 704.147L628.735 637.819L696.554 668.234ZM618.514 580.584L585.584 615.888L678.085 799.851L700.665 775.649L675.543 726.948L720.314 678.934L770.831 700.386L808.094 660.439L618.514 580.584ZM844.383 405.803L916.754 521.61L755.488 461.353L719.445 483.868L821.79 647.625L860.855 623.228L787.913 506.475L950.93 566.94L986.013 544.995L883.694 381.252L844.383 405.803ZM1455.52 500.625L1475.82 441.678L1532.69 461.275L1541.14 436.736L1484.27 417.165L1501.57 366.816L1560.02 386.945L1568.38 362.679L1461.68 325.961L1398.83 508.524L1516.48 549.028L1524.91 524.516L1455.52 500.625ZM1785.82 488.421L1768.41 507.292L1809.02 543.841L1696.99 668.298L1734.71 702.253L1846.74 577.821L1886.74 613.799L1903.9 594.747L1785.82 488.421ZM1841.25 778.36L1888.99 738.322L1927.66 784.378L1947.51 767.699L1908.88 721.63L1949.64 687.416L1989.38 734.768L2009.02 718.271L1936.52 631.827L1788.58 755.961L1868.55 851.263L1888.41 834.597L1841.25 778.36ZM2065.01 827.541C2078.46 842.495 2078.51 860.29 2063.13 874.129C2047.74 887.967 2028.39 884.997 2013.63 868.59L2004.94 858.954L2053.74 815.038L2065.01 827.541ZM2039.29 922.687C2039.66 923.102 2069.18 937.732 2101.78 908.369C2129.04 883.817 2119.87 850.134 2091.44 818.553L2038.82 760.15L1895.32 889.355L1929.29 927.071L1986.27 875.75L2003.09 894.4L1966.76 975.708L2009.9 1010.4L2039.29 922.687ZM1313.03 309.775L1311.64 388.644L1235.78 387.334L1237.17 308.439L1186.42 307.57L1183.06 500.625L1233.8 501.52L1235.34 413.248L1311.18 414.584L1309.63 502.83L1360.42 503.725L1363.77 310.644L1313.03 309.775ZM1587.9 596.744C1623.89 618.365 1663.24 614.902 1681.56 584.423C1695.03 563.127 1695.13 545.527 1679.1 514.036C1674.8 504.905 1669.51 498.472 1665.87 490.392C1658.86 477.033 1652.3 466.229 1658.51 455.918C1665.15 444.868 1680.65 444.077 1694.81 452.585C1709.67 461.521 1715.81 476.32 1718.8 486.605L1742.19 476.489C1735.02 457.462 1724.41 440.303 1700.41 425.893C1659.12 401.082 1625.46 407.632 1611.48 430.926C1597.34 454.44 1601.35 473.856 1611.86 493.881C1611.86 493.881 1618.61 505.463 1622.54 513.05C1631.76 528.718 1642.56 548.263 1635.06 560.74C1625.84 576.096 1609.75 579.507 1594.27 569.884C1574.41 557.277 1569.77 542.738 1565.59 528.484L1539.98 539.548C1545.63 558.924 1558.87 579.3 1587.9 596.744ZM1061.5 319.892C998.269 333.354 956.857 379.747 970.514 442.637C978.296 476.579 1008.72 539.34 1104.66 518.939C1131.2 513.867 1145.72 503.102 1159.72 489.86L1142.05 469.705C1135.63 477.046 1125.65 487.72 1103.58 492.402C1057.26 502.259 1029.58 464.556 1022.69 432.119C1012.5 384.17 1040.45 350.876 1072.34 344.106C1094.7 339.346 1108.49 345.26 1117.2 348.801L1117.47 348.749L1123.35 324.133C1108.08 317.972 1089.85 313.887 1061.5 319.892ZM2085.16 641.01C2082.5 629.558 2078.75 580.649 2097.33 554.839C2114.47 531.052 2130.1 539.107 2138.49 542.829C2142.27 544.502 2153.59 551.843 2155.82 566.317C2157.01 574.086 2154.58 585.577 2148.57 594.008C2136.82 609.273 2110.09 619.402 2110.09 619.402C2110.09 619.402 2144.34 686.508 2216.93 753.147L2216.67 798.437C2117.29 702.59 2085.16 641.01 2085.16 641.01Z" fill="#FFF22D"/>
<path fill-rule="evenodd" clip-rule="evenodd" d="M2135.02 627.157C2144.85 644.095 2169.8 685.534 2232.26 744.066C2242.63 753.781 2268.46 761.874 2283.05 745.493C2288.66 739.19 2292.22 730.202 2291.66 719.748C2291 707.738 2283.61 693.718 2276.49 687.609C2264.03 676.922 2210.32 622.682 2171.82 580.077C2170.99 587.846 2164.2 600.828 2164.2 600.828C2159.04 608.117 2152.58 618.584 2135.02 627.157ZM283.699 795.712L283.439 752.938C356.057 686.286 390.349 619.401 390.349 619.401C390.349 619.401 363.619 609.272 351.868 594.006C345.85 585.576 343.399 574.072 344.605 566.316C346.862 551.841 358.158 544.514 361.92 542.827C370.311 539.105 385.939 531.038 403.06 554.837C421.645 580.647 416.782 629.219 414.136 640.671C414.162 640.671 380.311 699.632 283.699 795.712Z" fill="#FFF22D"/>
<path fill-rule="evenodd" clip-rule="evenodd" d="M364.177 627.158C354.372 644.097 329.405 685.535 266.943 744.068C256.58 753.782 230.744 761.875 216.179 745.494C210.563 739.191 206.984 730.203 207.541 719.749C208.19 707.739 215.596 693.719 222.716 687.61C235.18 676.923 288.888 622.684 327.356 580.078C328.199 587.847 334.995 600.83 334.995 600.83C340.17 608.119 346.642 618.585 364.177 627.158Z" fill="#FFF22D"/>
<path fill-rule="evenodd" clip-rule="evenodd" d="M162.406 1350.31C162.406 1261.47 234.427 1189.45 323.257 1189.45C412.113 1189.45 484.121 1261.47 484.121 1350.31C484.121 1439.18 412.1 1511.16 323.257 1511.16C234.427 1511.16 162.406 1439.17 162.406 1350.31Z" fill="#C23227"/>
<path fill-rule="evenodd" clip-rule="evenodd" d="M409.792 1233.82C412.555 1236.02 419.533 1241.76 419.533 1241.76C433.475 1254.23 446.03 1268.82 453.306 1286.28C462.515 1308.24 434.15 1341.25 425.849 1349C388.328 1384.01 365.008 1383.42 351.61 1385.36C338.199 1387.25 329.756 1378.98 330.041 1368.94C330.897 1339.4 351.831 1289.07 357.732 1279.77C361.597 1273.69 368.25 1269.81 368.25 1269.81C382.089 1265.93 395.513 1259.98 402.477 1252.09C409.468 1244.22 409.792 1233.82 409.792 1233.82ZM275.192 1212.59C290.445 1207.45 306.424 1204.79 322.519 1204.73C347.654 1204.73 371.596 1209.42 391.959 1222.31C397.121 1225.57 398.677 1229.71 398.677 1235.54C398.677 1254.47 368.834 1260.91 348.964 1260.91C329.121 1260.91 304.75 1253.01 287.501 1247.64C270.238 1242.24 266.399 1232.16 266.399 1227.71C266.373 1223.29 269.693 1214.43 275.192 1212.59ZM211.563 1444.37C191.304 1424.36 176.855 1388.39 176.855 1350.42C176.855 1335.7 179.021 1321.51 183.068 1308.11C183.068 1308.11 186.479 1302 189.799 1307.23C192.16 1310.92 195.363 1314.72 198.243 1319.79C201.148 1324.87 216.88 1336.81 215.415 1346.24C209.876 1381.8 214.87 1429.27 216.53 1437.05C218.203 1444.8 215.765 1448.52 211.563 1444.37ZM215.428 1322.39C208.255 1318.43 199.708 1300.17 196.92 1294.72C194.935 1290.82 195.052 1279.93 197.763 1275.14C209.604 1254.19 226.478 1235.11 248.345 1224.99C250.848 1223.83 254.726 1223.71 254.726 1229.91C254.726 1233.36 256.438 1238.81 256.503 1242.17C256.581 1245.46 258.072 1252.61 253.624 1258.16C249.201 1263.69 229.603 1298.01 224.831 1317.41C223.754 1321.83 222.6 1326.37 215.428 1322.39ZM325.632 1496.04C324.594 1495.99 323.556 1496.07 322.519 1496.07C295.71 1496.07 266.373 1485.91 248.98 1476.18C231.017 1466.13 224.286 1420.15 224.286 1396.64C224.286 1320.77 255.556 1275.15 260.536 1266.28C265.517 1257.44 276.593 1256.32 284.907 1258.53C293.22 1260.76 296.424 1262.43 305.957 1265.31C311.118 1266.88 321.455 1269.03 329.211 1270.7C336.967 1272.38 345.255 1274.02 340.287 1288.43C335.307 1302.82 318.602 1337.68 316.773 1378.9C315.113 1416.11 320.094 1453.21 328.537 1475.96C334.023 1490.72 333.932 1496.31 325.632 1496.04ZM363.828 1490.14C355.501 1492.82 351.662 1486.9 347.784 1482.44C332.83 1465.37 328.965 1419.42 328.965 1413.33C328.965 1407.2 331.17 1400.57 335.424 1400.47C371.778 1399.56 397.627 1388.94 421.323 1369.46C445.018 1349.97 455.277 1327.97 457.443 1323.66C459.596 1319.35 464.265 1320.12 465.394 1326.34C466.315 1331.42 468.195 1340.61 468.195 1350.4C468.182 1416.5 423.657 1470.74 363.828 1490.14Z" fill="#FFF22D"/>
<path fill-rule="evenodd" clip-rule="evenodd" d="M2339.45 1350.31C2339.45 1261.47 2267.43 1189.45 2178.6 1189.45C2089.73 1189.45 2017.74 1261.47 2017.74 1350.31C2017.74 1439.18 2089.74 1511.16 2178.6 1511.16C2267.43 1511.16 2339.45 1439.17 2339.45 1350.31Z" fill="#C23227"/>
<path fill-rule="evenodd" clip-rule="evenodd" d="M2099.35 1252.08C2106.32 1259.96 2119.74 1265.92 2133.58 1269.8C2133.58 1269.8 2140.24 1273.67 2144.1 1279.76C2150 1289.06 2170.92 1339.39 2171.81 1368.92C2172.09 1378.95 2163.65 1387.24 2150.23 1385.34C2136.83 1383.42 2113.5 1383.99 2076.01 1348.99C2067.69 1341.23 2039.33 1308.23 2048.55 1286.27C2055.8 1268.81 2068.38 1254.22 2082.33 1241.74C2082.33 1241.74 2089.27 1236.01 2092.06 1233.8C2092.05 1233.82 2092.39 1244.22 2099.35 1252.08ZM2235.48 1227.71C2235.48 1232.16 2231.63 1242.24 2214.38 1247.64C2197.1 1253.01 2172.76 1260.91 2152.9 1260.91C2133.02 1260.91 2103.18 1254.48 2103.18 1235.54C2103.18 1229.71 2104.75 1225.57 2109.9 1222.31C2130.26 1209.42 2154.2 1204.73 2179.34 1204.73C2195.92 1204.73 2211.79 1207.66 2226.67 1212.59C2232.14 1214.43 2235.48 1223.29 2235.48 1227.71ZM2285.31 1437.04C2286.96 1429.26 2291.95 1381.79 2286.43 1346.23C2284.96 1336.8 2300.69 1324.85 2303.6 1319.78C2306.49 1314.71 2309.68 1310.91 2312.03 1307.21C2315.35 1302 2318.77 1308.1 2318.77 1308.1C2322.91 1321.82 2325.01 1336.07 2325 1350.4C2325 1388.38 2310.54 1424.34 2290.27 1444.36C2286.09 1448.52 2283.64 1444.8 2285.31 1437.04ZM2277 1317.42C2272.24 1298.02 2252.63 1263.69 2248.19 1258.17C2243.76 1252.62 2245.25 1245.48 2245.3 1242.18C2245.4 1238.82 2247.1 1233.38 2247.1 1229.93C2247.1 1223.73 2250.98 1223.84 2253.46 1225C2275.35 1235.11 2292.24 1254.19 2304.07 1275.15C2306.78 1279.94 2306.91 1290.83 2304.9 1294.74C2302.13 1300.18 2293.57 1318.45 2286.4 1322.4C2279.25 1326.37 2278.09 1321.83 2277 1317.42ZM2173.32 1475.98C2181.75 1453.23 2186.74 1416.12 2185.07 1378.91C2183.24 1337.69 2166.55 1302.84 2161.57 1288.45C2156.57 1274.04 2164.89 1272.39 2172.64 1270.72C2180.4 1269.04 2190.74 1266.89 2195.92 1265.32C2205.42 1262.43 2208.62 1260.76 2216.95 1258.54C2225.24 1256.33 2236.32 1257.45 2241.32 1266.29C2246.31 1275.17 2277.57 1320.78 2277.57 1396.65C2277.57 1420.15 2270.85 1466.13 2252.87 1476.2C2235.49 1485.92 2206.16 1496.08 2179.34 1496.08C2178.3 1496.08 2177.26 1496 2176.25 1496.05C2167.92 1496.31 2167.82 1490.72 2173.32 1475.98ZM2033.67 1350.4C2033.67 1340.6 2035.55 1331.4 2036.49 1326.34C2037.6 1320.12 2042.26 1319.35 2044.41 1323.66C2046.59 1327.97 2056.85 1349.97 2080.53 1369.46C2104.24 1388.94 2130.08 1399.55 2166.43 1400.47C2170.66 1400.57 2172.89 1407.21 2172.89 1413.33C2172.89 1419.42 2169.04 1465.37 2154.07 1482.44C2150.19 1486.9 2146.37 1492.82 2138.01 1490.14C2078.17 1470.74 2033.67 1416.5 2033.67 1350.4Z" fill="#FFF22D"/>
<path d="M2018.42 1349.47C2018.39 1328.23 2022.57 1307.2 2030.69 1287.58C2038.82 1267.96 2050.75 1250.14 2065.78 1235.14C2095.04 1205.88 2135.47 1187.79 2180.1 1187.79C2224.73 1187.79 2265.17 1205.88 2294.41 1235.14C2323.67 1264.39 2341.75 1304.82 2341.75 1349.47C2341.75 1394.12 2323.66 1434.54 2294.41 1463.79C2265.17 1493.03 2224.75 1511.13 2180.1 1511.13C2158.86 1511.15 2137.83 1506.98 2118.21 1498.86C2098.59 1490.73 2080.76 1478.81 2065.76 1463.79C2050.73 1448.79 2038.81 1430.97 2030.69 1411.35C2022.56 1391.73 2018.39 1370.7 2018.42 1349.47ZM2020.07 1349.47C2020.07 1393.67 2037.98 1433.67 2066.93 1462.63C2095.9 1491.61 2135.9 1509.52 2180.11 1509.52C2224.33 1509.52 2264.31 1491.61 2293.3 1462.66C2322.25 1433.68 2340.16 1393.68 2340.16 1349.47C2340.16 1305.26 2322.25 1265.27 2293.27 1236.3C2278.43 1221.41 2260.79 1209.61 2241.37 1201.57C2221.95 1193.52 2201.13 1189.4 2180.11 1189.42C2159.09 1189.4 2138.27 1193.53 2118.85 1201.58C2099.43 1209.62 2081.8 1221.43 2066.95 1236.31C2052.07 1251.15 2040.26 1268.79 2032.21 1288.21C2024.17 1307.63 2020.04 1328.45 2020.07 1349.47Z" fill="#FDE62F"/>
</svg>
