<svg width="2500" height="2500" viewBox="0 0 2500 2500" fill="none" xmlns="http://www.w3.org/2000/svg">
<g clip-path="url(#clip0_290_1210)">
<path d="M2035.75 1786.2C1849.36 2007.78 1570.42 2148.56 1257.6 2148.56C948.03 2148.56 671.701 2010.39 485.309 1792.72L265.027 2058.62C513.333 2325.17 867.217 2492.01 1259.55 2492.01C1654.5 2492.01 2010.33 2323.22 2257.99 2054.06L2035.75 1786.2Z" fill="#211E1F"/>
<path d="M2035.75 1786.2C1849.36 2007.78 1570.42 2148.56 1257.6 2148.56C948.03 2148.56 671.701 2010.39 485.309 1792.72L265.027 2058.62C513.333 2325.17 867.217 2492.01 1259.55 2492.01C1654.5 2492.01 2010.33 2323.22 2257.99 2054.06L2035.75 1786.2Z" stroke="white" stroke-width="15.3545"/>
<path d="M1861.09 768.863V1948.48C1861.09 1982.37 1839.58 2012.35 1808.95 2023.43L1261.51 2235.89L713.411 2023.43C683.432 2012.35 661.273 1982.37 661.273 1948.48V768.863H1861.09Z" fill="#211E1F"/>
<path d="M1861.09 768.863V1948.48C1861.09 1982.37 1839.58 2012.35 1808.95 2023.43L1261.51 2235.89L713.411 2023.43C683.432 2012.35 661.273 1982.37 661.273 1948.48V768.863H1861.09Z" stroke="white" stroke-width="15.3545"/>
<path d="M690.601 1679.32V952.648H1832.42V1679.32H690.601Z" fill="white"/>
<path d="M1832.42 1611.54C1822.64 1627.83 1797.87 1638.91 1769.2 1638.91C1740.52 1638.91 1715.11 1627.83 1705.33 1611.54C1695.55 1627.83 1670.79 1638.91 1641.46 1638.91C1612.79 1638.91 1588.02 1627.83 1578.24 1611.54C1567.82 1627.83 1543.7 1638.91 1515.03 1638.91C1485.7 1638.91 1461.59 1627.83 1451.81 1611.54C1442.03 1627.83 1417.27 1638.91 1388.59 1638.91C1359.92 1638.91 1335.15 1627.83 1325.38 1611.54C1314.95 1627.83 1290.18 1638.91 1261.51 1638.91C1232.83 1638.91 1208.07 1627.83 1197.64 1611.54C1187.21 1627.83 1163.1 1638.91 1134.42 1638.91C1105.75 1638.91 1080.98 1627.83 1070.55 1611.54C1060.78 1627.83 1036.01 1638.91 1006.69 1638.91C978.01 1638.91 953.244 1627.83 943.468 1611.54C933.693 1627.83 908.927 1638.91 880.251 1638.91C850.924 1638.91 826.81 1627.83 816.383 1611.54V1612.19C806.607 1628.48 781.842 1638.91 753.166 1638.91C723.839 1638.91 699.725 1627.83 689.297 1611.54V1610.23L689.949 1931.53C689.949 1964.12 710.804 1992.14 739.48 2002.57L1261.51 2205.26L1782.88 2002.57C1811.56 1991.49 1832.42 1964.12 1832.42 1931.53V1610.23V1611.54Z" fill="#ED1A3B"/>
<path d="M1832.42 1577.65C1822.64 1593.94 1797.87 1605.02 1769.2 1605.02C1740.52 1605.02 1715.11 1593.29 1705.33 1577.65C1695.55 1593.29 1670.79 1605.02 1641.46 1605.02C1612.79 1605.02 1588.02 1593.29 1578.24 1577.65C1567.82 1593.94 1543.7 1605.02 1515.03 1605.02C1485.7 1605.02 1461.59 1593.29 1451.81 1577.65C1442.03 1593.29 1417.27 1605.02 1388.59 1605.02C1359.92 1605.02 1335.15 1593.29 1325.38 1577.65C1314.95 1593.94 1290.18 1605.02 1261.51 1605.02C1232.83 1605.02 1208.07 1593.29 1197.64 1577.65C1187.21 1593.29 1163.1 1605.02 1134.42 1605.02C1105.75 1605.02 1080.98 1593.29 1070.55 1577.65C1060.78 1593.94 1036.01 1605.02 1006.69 1605.02C978.01 1605.02 953.244 1593.29 943.468 1577.65C933.693 1593.29 908.927 1605.02 880.251 1605.02C850.924 1605.02 826.81 1593.29 816.383 1577.65V1578.3C806.607 1594.59 781.842 1605.02 753.166 1605.02C723.839 1605.02 699.725 1593.29 689.297 1577.65V1537.89C699.073 1554.19 723.839 1565.26 753.166 1565.26C781.842 1565.26 805.955 1554.19 816.383 1537.89C826.81 1554.19 850.924 1565.26 880.251 1565.26C908.927 1565.26 933.693 1553.53 943.468 1537.89C953.244 1554.19 978.01 1565.26 1006.69 1565.26C1035.36 1565.26 1060.13 1554.19 1070.55 1537.89C1080.33 1554.19 1105.1 1565.26 1134.42 1565.26C1163.1 1565.26 1187.86 1553.53 1197.64 1537.89C1207.42 1554.19 1232.18 1565.26 1261.51 1565.26C1290.18 1565.26 1314.95 1554.19 1325.38 1537.89C1335.15 1554.19 1359.92 1565.26 1388.59 1565.26C1417.27 1565.26 1442.03 1553.53 1451.81 1537.89C1461.59 1554.19 1486.35 1565.26 1515.03 1565.26C1543.7 1565.26 1568.47 1554.19 1578.24 1537.89C1588.67 1554.19 1612.79 1565.26 1641.46 1565.26C1670.14 1565.26 1694.9 1553.53 1705.33 1537.89C1715.11 1554.19 1739.87 1565.26 1769.2 1565.26C1797.87 1565.26 1822.64 1554.19 1832.42 1537.89V1577.65ZM1832.42 1505.96C1822.64 1522.25 1797.87 1533.33 1769.2 1533.33C1740.52 1533.33 1715.11 1522.25 1705.33 1505.96C1695.55 1521.6 1670.79 1533.33 1641.46 1533.33C1612.79 1533.33 1588.02 1522.25 1578.24 1505.96C1567.82 1522.25 1543.7 1533.33 1515.03 1533.33C1485.7 1533.33 1461.59 1522.25 1451.81 1505.96C1442.03 1521.6 1417.27 1533.33 1388.59 1533.33C1359.92 1533.33 1335.15 1522.25 1325.38 1505.96C1314.95 1522.25 1290.18 1533.33 1261.51 1533.33C1232.83 1533.33 1208.07 1522.25 1197.64 1505.96C1187.21 1521.6 1163.1 1533.33 1134.42 1533.33C1105.75 1533.33 1080.98 1522.25 1070.55 1505.96C1060.78 1522.25 1036.01 1533.33 1006.69 1533.33C978.01 1533.33 953.244 1522.25 943.468 1505.96C933.693 1521.6 908.927 1533.33 880.251 1533.33C850.924 1533.33 826.81 1522.25 816.383 1505.96V1506.61C806.607 1522.9 781.842 1533.33 753.166 1533.33C723.839 1533.33 699.725 1522.25 689.297 1505.96V1466.2C699.073 1482.5 723.839 1493.58 753.166 1493.58C781.842 1493.58 805.955 1482.5 816.383 1466.2C826.81 1482.5 850.924 1493.58 880.251 1493.58C908.927 1493.58 933.693 1481.84 943.468 1466.2C953.244 1482.5 978.01 1493.58 1006.69 1493.58C1035.36 1493.58 1060.13 1482.5 1070.55 1466.2C1080.33 1482.5 1105.1 1493.58 1134.42 1493.58C1163.1 1493.58 1187.86 1481.84 1197.64 1466.2C1207.42 1482.5 1232.18 1493.58 1260.86 1493.58C1289.53 1493.58 1314.3 1482.5 1324.72 1466.2C1334.5 1482.5 1359.27 1493.58 1387.94 1493.58C1416.62 1493.58 1441.38 1481.84 1451.16 1466.2C1460.93 1482.5 1485.7 1493.58 1514.38 1493.58C1543.05 1493.58 1567.82 1482.5 1577.59 1466.2C1588.02 1482.5 1612.13 1493.58 1640.81 1493.58C1669.48 1493.58 1694.25 1481.84 1704.68 1466.2C1714.45 1482.5 1739.22 1493.58 1768.55 1493.58C1797.22 1493.58 1821.99 1482.5 1831.76 1466.2V1505.96" fill="#00AEEF"/>
<path d="M1345.58 1977.15C1345.58 1977.15 1401.63 2064.48 1372.3 2039.72C1350.79 2021.47 1321.47 1978.46 1299.96 1943.26L1185.26 1988.23C1185.26 1988.23 1119.43 2068.39 1133.77 2033.2C1144.2 2007.78 1176.78 1966.07 1203.5 1934.79L1124.65 1839.64C1124.65 1839.64 1027.54 1801.84 1065.99 1805.1C1091.41 1807.05 1143.55 1825.95 1181.35 1840.94L1247.17 1736.67C1247.17 1736.67 1253.04 1633.04 1262.81 1670.19C1269.33 1695.61 1267.37 1751.01 1264.11 1792.06L1384.03 1821.39C1384.03 1821.39 1484.4 1795.32 1451.81 1815.53C1429 1829.86 1378.82 1844.85 1338.41 1854.63L1345.58 1977.15Z" fill="#211E1F"/>
<path d="M1345.58 1977.15C1345.58 1977.15 1401.63 2064.48 1372.3 2039.72C1350.79 2021.47 1321.47 1978.46 1299.96 1943.26L1185.26 1988.23C1185.26 1988.23 1119.43 2068.39 1133.77 2033.2C1144.2 2007.78 1176.78 1966.07 1203.5 1934.79L1124.65 1839.64C1124.65 1839.64 1027.54 1801.84 1065.99 1805.1C1091.41 1807.05 1143.55 1825.95 1181.35 1840.94L1247.17 1736.67C1247.17 1736.67 1253.04 1633.04 1262.81 1670.19C1269.33 1695.61 1267.37 1751.01 1264.11 1792.06L1384.03 1821.39C1384.03 1821.39 1484.4 1795.32 1451.81 1815.53C1429 1829.86 1378.82 1844.85 1338.41 1854.63L1345.58 1977.15Z" stroke="#211E1F" stroke-width="9.39129"/>
<path d="M1253.69 1954.34C1254.34 1956.3 1255.64 1956.95 1256.95 1956.95C1258.25 1956.95 1259.55 1955.64 1260.2 1954.34C1261.51 1951.08 1262.81 1944.56 1262.16 1929.58C1262.16 1929.58 1262.81 1880.7 1299.31 1933.49C1401.63 2081.43 1255.64 2082.08 1255.64 2082.08H1256.95C1256.95 2082.08 1110.96 2081.43 1213.28 1933.49C1249.78 1880.7 1250.43 1929.58 1250.43 1929.58C1251.08 1943.91 1252.38 1951.08 1253.69 1954.34Z" fill="white"/>
<path d="M1253.69 1954.34L1256.95 1956.95L1260.2 1954.34C1261.51 1951.08 1262.16 1944.56 1262.16 1929.58C1262.16 1929.58 1262.81 1880.7 1299.31 1933.49C1401.63 2081.43 1255.64 2082.08 1255.64 2082.08H1256.95C1256.95 2082.08 1110.96 2081.43 1213.28 1933.49C1249.78 1880.7 1250.43 1929.58 1250.43 1929.58C1251.73 1943.91 1252.38 1951.08 1253.69 1954.34Z" stroke="#211E1F" stroke-width="9.39129"/>
<path d="M1178.74 1895.03C1177.44 1896.34 1176.78 1897.64 1177.44 1898.94C1178.09 1900.25 1178.74 1901.55 1180.69 1901.55C1183.95 1901.55 1191.12 1900.9 1204.81 1896.34C1204.81 1896.34 1251.73 1882 1213.28 1932.83C1104.44 2076.21 1058.82 1938.05 1058.82 1938.05V1938.7C1058.82 1938.7 1014.51 1799.23 1187.21 1851.37C1248.47 1869.62 1202.2 1885.91 1202.2 1885.91C1187.21 1889.17 1181.35 1892.43 1178.74 1895.03Z" fill="white"/>
<path d="M1178.74 1895.03C1177.44 1896.34 1177.44 1898.94 1177.44 1898.94L1180.69 1901.55C1180.69 1901.55 1191.12 1900.9 1204.81 1896.34C1204.81 1896.34 1251.73 1882 1213.28 1932.83C1104.44 2076.21 1058.82 1938.05 1058.82 1938.05V1938.7C1058.82 1938.7 1014.51 1799.23 1187.21 1851.37C1248.47 1869.62 1202.2 1885.91 1202.2 1885.91C1187.21 1889.17 1181.35 1892.43 1178.74 1895.03Z" stroke="#211E1F" stroke-width="9.39129"/>
<path d="M1211.33 1804.44C1210.02 1803.79 1208.07 1803.79 1207.42 1804.44C1206.11 1805.1 1206.11 1806.4 1206.11 1808.36C1206.76 1811.61 1209.37 1818.13 1219.15 1829.86C1219.15 1829.86 1247.17 1869.62 1186.56 1848.76C1016.46 1789.46 1134.42 1703.43 1134.42 1703.43L1133.77 1704.08C1133.77 1704.08 1252.38 1619.36 1256.29 1799.23C1257.6 1863.1 1228.27 1824 1228.27 1824C1219.8 1810.96 1214.58 1806.4 1211.33 1804.44Z" fill="white"/>
<path d="M1211.33 1804.44H1207.42L1206.11 1808.36C1206.11 1808.36 1209.37 1818.13 1219.15 1829.86C1219.15 1829.86 1247.17 1869.62 1186.56 1848.76C1016.46 1789.46 1134.42 1703.43 1134.42 1703.43L1133.77 1704.08C1133.77 1704.08 1252.38 1619.36 1256.29 1799.23C1257.6 1863.1 1228.27 1824 1228.27 1824C1219.8 1810.96 1214.58 1806.4 1211.33 1804.44Z" stroke="#211E1F" stroke-width="9.39129"/>
<path d="M1307.78 1808.35C1307.78 1807.05 1307.78 1805.1 1306.48 1804.44C1305.17 1803.79 1303.87 1803.79 1301.91 1805.1C1299.31 1806.4 1294.09 1810.96 1285.62 1823.34C1285.62 1823.34 1256.29 1862.45 1257.6 1798.58C1261.51 1618.7 1380.12 1703.43 1380.12 1703.43L1379.47 1702.78C1379.47 1702.78 1496.78 1789.45 1326.68 1848.76C1266.72 1869.62 1294.75 1829.86 1294.75 1829.86C1303.87 1818.13 1307.13 1811.61 1307.78 1808.35Z" fill="white"/>
<path d="M1307.78 1808.35L1306.48 1804.44L1301.91 1805.1C1299.31 1806.4 1294.09 1810.96 1285.62 1823.34C1285.62 1823.34 1256.29 1862.45 1257.6 1798.58C1261.51 1618.7 1380.12 1703.43 1380.12 1703.43L1379.47 1702.78C1379.47 1702.78 1496.78 1789.45 1326.68 1848.76C1266.72 1869.62 1294.75 1829.86 1294.75 1829.86C1303.87 1818.13 1307.78 1808.35 1307.78 1808.35Z" stroke="#211E1F" stroke-width="9.39129"/>
<path d="M1333.85 1900.9C1335.8 1900.9 1337.11 1899.6 1337.11 1898.3C1337.76 1896.99 1337.11 1895.69 1335.8 1894.38C1333.2 1891.78 1327.33 1888.52 1312.99 1884.61C1312.99 1884.61 1266.72 1868.32 1327.98 1850.07C1500.69 1797.93 1456.37 1937.4 1456.37 1937.4V1936.75C1456.37 1936.75 1410.75 2074.91 1301.91 1931.53C1262.81 1880.7 1309.74 1895.04 1309.74 1895.04C1324.07 1900.9 1330.59 1901.55 1333.85 1900.9Z" fill="white"/>
<path d="M1333.85 1900.9L1337.11 1898.3C1337.11 1898.3 1337.11 1895.69 1335.8 1894.38C1333.2 1891.78 1327.33 1888.52 1312.99 1884.61C1312.99 1884.61 1266.72 1868.32 1327.98 1850.07C1500.69 1797.93 1456.37 1937.4 1456.37 1937.4V1936.75C1456.37 1936.75 1410.75 2074.91 1301.91 1931.53C1262.81 1880.7 1309.74 1895.04 1309.74 1895.04C1324.07 1900.9 1333.85 1900.9 1333.85 1900.9Z" stroke="#211E1F" stroke-width="9.39129"/>
<path d="M1157.23 1735.36C1157.23 1735.36 1146.15 1743.18 1137.03 1745.79C1127.25 1748.4 1123.34 1755.57 1122.04 1757.52C1122.04 1757.52 1116.83 1769.9 1112.92 1764.69C1109.01 1759.48 1116.83 1750.35 1116.83 1750.35C1118.13 1748.4 1122.04 1741.23 1131.82 1737.97C1141.59 1735.36 1152.02 1727.54 1152.02 1727.54C1152.02 1727.54 1162.45 1719.07 1168.31 1711.25C1174.18 1703.43 1182 1701.47 1183.95 1700.82C1183.95 1700.82 1195.03 1696.91 1198.94 1701.47C1202.85 1706.69 1189.17 1707.34 1189.17 1707.34C1187.21 1707.99 1178.74 1709.95 1172.87 1717.77C1167.66 1726.89 1157.23 1735.36 1157.23 1735.36ZM1356.66 1735.36C1356.66 1735.36 1346.23 1727.54 1340.37 1719.07C1334.5 1711.25 1326.68 1709.29 1324.72 1708.64C1324.72 1708.64 1311.04 1707.99 1314.95 1702.78C1318.86 1697.56 1329.94 1702.12 1329.94 1702.12C1331.89 1702.12 1340.37 1704.08 1345.58 1712.55C1351.45 1720.37 1361.87 1728.85 1361.87 1728.85C1361.87 1728.85 1372.95 1736.01 1382.73 1739.27C1391.85 1742.53 1396.41 1749.05 1397.07 1751C1397.07 1751 1404.23 1760.78 1400.98 1765.99C1397.07 1771.21 1392.5 1758.82 1392.5 1758.82C1391.2 1756.87 1387.29 1749.7 1377.51 1747.09C1367.74 1742.53 1356.66 1735.36 1356.66 1735.36ZM1418.57 1925.01C1418.57 1925.01 1423.13 1912.63 1429 1904.81C1435.52 1896.99 1434.21 1888.52 1434.21 1886.56C1434.21 1886.56 1430.96 1873.53 1436.82 1875.48C1442.69 1877.44 1442.69 1889.17 1442.69 1889.17C1442.69 1891.12 1443.34 1899.6 1438.12 1907.42C1432.26 1915.24 1427.7 1927.62 1427.7 1927.62C1427.7 1927.62 1424.44 1940.65 1424.44 1950.43C1424.44 1960.21 1418.57 1966.72 1417.92 1968.03C1417.92 1968.03 1410.75 1977.8 1405.54 1975.85C1399.67 1973.89 1410.1 1964.77 1410.1 1964.77C1411.4 1962.81 1416.62 1956.95 1416.62 1947.17C1415.31 1938.05 1418.57 1925.01 1418.57 1925.01ZM1256.95 2042.32C1256.95 2042.32 1270.63 2042.97 1279.76 2046.23C1288.88 2049.49 1296.7 2046.23 1298.66 2045.58C1298.66 2045.58 1310.39 2038.41 1309.74 2044.93C1309.74 2050.8 1298.66 2054.71 1298.66 2054.71C1296.7 2055.36 1288.88 2058.62 1279.76 2055.36C1270.63 2052.1 1256.95 2051.45 1256.95 2051.45C1256.95 2051.45 1243.26 2052.1 1234.14 2055.36C1225.01 2058.62 1217.19 2055.36 1215.24 2054.71C1215.24 2054.71 1203.5 2050.8 1203.5 2044.93C1203.5 2038.41 1215.24 2045.58 1215.24 2045.58C1217.84 2046.23 1225.01 2049.49 1234.14 2046.23C1243.26 2042.97 1256.95 2042.32 1256.95 2042.32ZM1095.97 1925.01C1095.97 1925.01 1099.88 1938.05 1099.88 1947.82C1099.88 1957.6 1105.09 1963.46 1106.4 1965.42C1106.4 1965.42 1116.83 1974.54 1110.96 1976.5C1105.09 1978.45 1097.93 1968.68 1097.93 1968.68C1096.62 1966.72 1091.41 1960.86 1091.41 1951.08C1091.41 1941.31 1088.15 1928.27 1088.15 1928.27C1088.15 1928.27 1083.59 1915.89 1077.72 1908.07C1071.86 1900.25 1072.51 1891.78 1072.51 1889.82C1072.51 1889.82 1072.51 1878.09 1078.37 1876.13C1084.24 1874.18 1080.98 1887.21 1080.98 1887.21C1080.98 1889.17 1080.33 1897.64 1086.19 1905.46C1091.41 1912.63 1095.97 1925.01 1095.97 1925.01Z" fill="#211E1F"/>
<path d="M1256.29 1839.64C1238.05 1839.64 1223.71 1854.63 1223.71 1872.87C1223.71 1891.12 1238.7 1906.11 1256.29 1906.11C1274.54 1906.11 1289.53 1891.77 1289.53 1872.87C1289.53 1853.97 1274.54 1839.64 1256.29 1839.64Z" fill="#FFC40D"/>
<path d="M1256.29 1839.64C1238.05 1839.64 1223.71 1854.63 1223.71 1872.87C1223.71 1891.12 1238.7 1906.11 1256.29 1906.11C1274.54 1906.11 1289.53 1891.77 1289.53 1872.87C1289.53 1853.97 1274.54 1839.64 1256.29 1839.64Z" stroke="#FFC40D" stroke-width="3.72132"/>
<path d="M1318.86 1242.66L1323.42 1331.3L1398.37 1282.42L1421.83 1320.87L1333.2 1372.36V1390.6C1333.2 1390.6 1436.17 1448.61 1310.39 1446V1446.65C1266.72 1483.15 1225.01 1447.3 1225.01 1447.3C1099.23 1449.26 1202.2 1391.91 1202.2 1391.91V1373.01L1123.99 1312.4L1142.89 1271.99L1213.28 1331.95L1217.19 1243.32L1318.86 1242.66Z" fill="#211E1F"/>
<path d="M1412.06 1318.92C1485.05 1402.34 1538.49 1314.35 1538.49 1314.35C1630.38 1292.19 1575.64 1227.02 1575.64 1227.02C1671.44 1164.46 1558.69 1114.93 1558.69 1114.93C1558.04 1031.51 1487 1037.37 1487 1037.37C1412.71 972.2 1341.67 1044.54 1341.67 1044.54C1230.23 951.996 1145.5 1058.88 1145.5 1058.88C1145.5 1058.88 1074.46 1009.35 1042.53 1086.9C1042.53 1086.9 929.131 1083.64 971.492 1198.35C971.492 1198.35 884.162 1285.68 998.213 1329.34C998.213 1329.34 1058.82 1442.09 1142.24 1334.56C1142.24 1334.56 1193.73 1337.82 1185.26 1265.47C1185.26 1265.47 1250.43 1292.85 1311.69 1262.22C1311.69 1262.22 1331.24 1306.53 1373.6 1281.77C1373.6 1281.77 1367.09 1310.44 1408.15 1316.31L1412.06 1318.92Z" fill="#22B24C"/>
<path d="M1412.06 1318.92C1485.05 1402.34 1538.49 1314.35 1538.49 1314.35C1630.38 1292.19 1575.64 1227.02 1575.64 1227.02C1671.44 1164.46 1558.69 1114.93 1558.69 1114.93C1558.69 1031.51 1487 1037.37 1487 1037.37C1412.71 972.2 1341.67 1044.54 1341.67 1044.54C1230.23 951.996 1145.5 1058.88 1145.5 1058.88C1145.5 1058.88 1074.46 1009.35 1042.53 1086.9C1042.53 1086.9 929.131 1083.64 971.492 1198.35C971.492 1198.35 884.162 1285.68 998.213 1329.34C998.213 1329.34 1058.82 1442.09 1142.24 1334.56C1142.24 1334.56 1193.73 1337.82 1185.26 1265.47C1185.26 1265.47 1250.43 1292.85 1311.69 1262.22C1311.69 1262.22 1331.24 1306.53 1373.6 1281.77C1373.6 1281.77 1367.09 1310.44 1408.15 1316.31L1412.06 1318.92Z" stroke="#211E1F" stroke-width="38.458"/>
<path d="M437.733 2036.46L442.947 2041.02C424.047 2074.91 421.44 2099.02 434.474 2110.1C443.598 2118.58 455.981 2114.67 467.712 2102.28C472.274 2097.07 475.533 2090.55 475.533 2085.34C475.533 2078.17 470.319 2070.35 464.454 2058.62C453.374 2035.81 454.026 2017.56 473.578 1994.1C493.781 1971.29 519.85 1963.47 536.143 1977.8C543.312 1984.32 547.222 1993.45 547.874 2005.18L560.908 2001.27L565.47 2005.18L525.715 2053.4L521.153 2048.84C536.795 2016.26 540.053 1997.36 528.322 1986.93C519.198 1979.11 507.467 1981.71 497.04 1993.45C484.005 2008.43 491.826 2016.91 501.602 2035.81C506.815 2046.23 510.726 2054.06 508.771 2066.44C506.815 2077.52 500.298 2089.9 489.871 2102.28C468.364 2127.05 443.598 2134.22 426.002 2119.23C417.53 2111.41 413.619 2102.28 413.619 2087.94L397.978 2093.16L393.416 2089.25L437.733 2036.46ZM586.977 2052.75C605.225 2044.28 620.215 2044.28 633.901 2053.4C647.587 2063.18 653.452 2076.87 651.497 2097.72C650.194 2115.97 641.07 2136.82 626.732 2157.68C612.394 2178.53 598.056 2191.57 580.46 2200.04C561.56 2209.16 544.615 2209.16 532.232 2200.04C519.198 2190.92 513.333 2176.58 515.288 2155.07C517.243 2134.87 524.412 2116.62 539.401 2095.77C553.739 2076.21 570.032 2060.57 586.977 2052.75ZM538.75 2190.27C553.088 2200.04 573.943 2183.75 603.27 2142.04C632.597 2099.68 640.418 2074.91 626.08 2064.48C612.394 2054.71 591.539 2071 561.56 2112.71C532.884 2155.07 525.064 2180.49 538.75 2190.27ZM734.266 2134.87L727.749 2131.61C722.535 2129 719.928 2130.96 715.366 2139.43L674.959 2215.03C660.621 2242.4 659.97 2258.7 675.611 2266.52C682.78 2269.77 689.949 2269.77 696.466 2266.52C706.894 2260.65 714.062 2248.92 723.838 2230.02L753.166 2175.28C761.638 2158.98 763.593 2150.51 752.514 2144.64L751.862 2143.99L757.728 2132.91L792.269 2151.16L786.403 2161.59C775.324 2157.68 770.11 2163.54 761.638 2179.19L731.659 2235.89C723.187 2252.18 716.018 2264.56 706.242 2273.03C691.252 2286.07 676.263 2287.37 660.621 2278.25C635.856 2265.21 632.597 2241.75 650.194 2207.86L693.859 2125.74C698.421 2117.27 698.421 2114.01 693.207 2111.41L686.69 2108.15L692.556 2097.07L740.131 2122.49L734.266 2134.87ZM866.565 2194.18C862.003 2192.22 859.396 2194.18 856.138 2202.65L811.169 2316.7C807.259 2325.17 807.259 2328.43 813.124 2331.04L819.641 2333.64L815.079 2345.37L764.897 2325.17L769.459 2313.44L775.976 2316.05C781.841 2318 783.797 2316.05 787.055 2306.92L832.676 2192.87C835.934 2184.4 835.934 2181.14 831.372 2179.19C820.945 2174.62 805.303 2188.96 790.314 2220.24L783.145 2217.64L809.214 2158.33L895.893 2192.87L874.386 2253.48L867.869 2250.88C878.296 2219.59 876.993 2198.09 866.565 2194.18ZM941.513 2372.1C947.378 2374.05 949.334 2371.44 951.289 2362.32L965.627 2308.23L929.13 2298.45L915.444 2351.89C912.837 2361.02 913.489 2364.27 918.703 2365.58L925.872 2367.53L922.613 2379.26L870.475 2365.58L873.734 2353.2L880.903 2354.5C886.768 2356.45 888.724 2353.85 890.679 2344.72L921.961 2228.06C924.568 2218.94 924.568 2215.68 918.703 2213.73L911.534 2211.77L914.792 2200.04L966.93 2214.38L963.671 2226.11L956.503 2224.15C950.637 2222.2 948.682 2225.46 946.075 2234.58L933.041 2283.46L969.537 2293.24L982.571 2244.36C985.178 2235.23 985.178 2231.98 979.313 2230.02L972.796 2228.06L976.054 2216.33L1028.19 2230.67L1024.93 2242.4L1017.76 2240.45C1011.9 2239.14 1010.6 2241.75 1007.99 2250.88L976.706 2367.53C974.099 2376.66 974.751 2379.92 980.616 2381.22L987.133 2383.17L983.875 2394.91L931.085 2381.22L934.344 2368.84L941.513 2372.1ZM1079.68 2399.47L1086.85 2400.12C1090.11 2400.12 1090.76 2398.82 1091.41 2395.56V2389.04L1088.8 2361.67L1052.96 2356.45L1047.74 2368.18C1046.44 2372.1 1045.14 2376.66 1044.48 2379.92C1042.53 2390.34 1046.44 2394.25 1056.87 2396.86L1054.91 2409.24L1015.16 2403.38L1017.11 2390.99C1026.24 2389.69 1032.1 2380.57 1039.92 2362.32L1092.06 2239.14L1102.49 2240.45L1119.43 2395.56C1120.08 2402.73 1122.04 2405.98 1127.25 2406.64L1125.3 2419.02L1078.37 2411.85L1079.68 2399.47ZM1058.82 2342.12L1087.5 2346.68L1081.63 2287.37L1058.82 2342.12ZM1184.6 2380.57C1183.95 2402.73 1186.56 2410.55 1200.25 2411.2V2423.58L1159.19 2422.28V2409.89C1172.22 2409.24 1174.18 2401.42 1174.83 2379.92L1177.44 2277.6C1177.44 2268.47 1176.78 2265.21 1170.92 2264.56H1163.75L1164.4 2252.18L1210.02 2253.48L1229.57 2355.8L1253.04 2254.13L1298 2255.44L1297.35 2267.82L1290.18 2267.17C1284.32 2267.17 1283.01 2270.43 1283.01 2279.55L1280.41 2400.77C1280.41 2410.55 1281.06 2413.15 1286.92 2413.15H1294.09L1293.44 2425.54L1240.65 2424.23L1241.3 2411.85H1247.17C1253.04 2411.85 1254.34 2409.24 1254.99 2399.47L1258.25 2271.73L1223.71 2423.58H1216.54L1187.21 2271.08L1184.6 2380.57ZM1376.86 2406.64L1385.99 2405.98L1387.29 2418.37L1331.24 2424.23L1329.94 2411.85L1337.76 2411.2C1343.62 2410.55 1344.28 2407.94 1343.62 2398.16L1331.89 2277.6C1331.24 2268.47 1329.94 2265.21 1323.42 2265.86L1315.6 2266.52L1314.3 2254.13L1376.21 2248.27C1402.28 2245.66 1416.62 2261.3 1419.88 2292.59C1423.13 2326.47 1409.45 2342.77 1377.51 2346.03C1373.6 2346.68 1368.39 2346.68 1363.18 2347.33L1367.74 2395.56C1369.69 2404.68 1371 2406.64 1376.86 2406.64ZM1363.18 2333.64C1364.48 2334.3 1367.09 2334.3 1370.35 2333.64C1389.24 2331.69 1396.41 2323.22 1393.81 2295.19C1391.2 2267.82 1384.03 2259.35 1367.09 2261.3C1357.96 2261.95 1356.66 2263.91 1357.31 2276.94L1363.18 2333.64ZM1503.3 2238.49C1498.08 2239.14 1497.43 2242.4 1499.39 2251.53L1524.15 2372.1C1526.11 2381.22 1528.06 2383.83 1533.93 2382.52L1541.1 2381.22L1543.7 2393.6L1490.91 2404.68L1488.31 2392.3L1495.48 2390.99C1501.34 2389.69 1501.99 2386.43 1500.04 2377.31L1475.27 2257.39C1473.32 2248.27 1472.01 2245.66 1466.8 2246.96C1455.72 2249.57 1450.51 2269.77 1455.07 2303.66L1447.9 2304.97L1436.82 2241.75L1528.06 2222.85L1543.7 2285.42L1536.53 2286.72C1526.76 2252.83 1514.38 2235.89 1503.3 2238.49ZM1569.77 2231.98C1574.33 2212.42 1583.46 2200.69 1599.1 2195.48C1614.74 2190.26 1629.08 2194.18 1644.72 2207.86C1658.41 2220.24 1669.48 2239.8 1677.96 2263.91C1685.78 2288.02 1687.73 2307.57 1683.82 2327.13C1679.26 2347.98 1669.48 2361.02 1654.5 2365.58C1639.51 2370.79 1625.17 2366.23 1608.87 2351.89C1593.89 2338.21 1584.11 2321.91 1576.29 2297.15C1567.82 2273.69 1565.86 2250.88 1569.77 2231.98ZM1650.58 2353.85C1666.88 2348.63 1666.88 2321.91 1650.58 2273.69C1634.94 2224.81 1619.3 2203.3 1603.01 2208.51C1586.72 2213.73 1586.72 2240.45 1603.01 2288.67C1618.65 2337.55 1634.29 2359.06 1650.58 2353.85ZM1735.96 2319.96C1747.04 2312.79 1745.74 2304.97 1736.61 2286.07L1693.6 2192.87L1689.04 2189.61C1684.47 2186.35 1681.22 2183.75 1676 2186.35L1674.7 2187.01L1669.48 2175.93L1702.07 2160.94L1795.92 2234.58L1769.2 2176.58C1759.42 2155.72 1754.21 2150.51 1741.17 2156.38L1735.96 2144.64L1773.76 2127.05L1778.97 2138.13C1768.55 2143.99 1769.2 2151.81 1778.32 2172.02L1833.72 2290.63L1825.25 2294.54L1709.24 2203.3L1745.74 2282.16C1754.86 2301.71 1761.38 2307.57 1773.76 2302.36L1778.97 2313.44L1741.83 2330.38L1735.96 2319.96ZM1950.38 2087.94L1944.51 2091.86C1919.75 2065.13 1904.1 2059.92 1886.51 2072.3C1879.34 2076.87 1878.69 2078.82 1885.2 2088.6L1913.88 2130.31C1914.53 2130.31 1915.18 2129.65 1915.84 2129C1926.26 2121.83 1924.96 2111.41 1913.88 2090.55L1919.75 2086.64L1964.06 2151.16L1958.2 2155.07C1943.21 2136.82 1933.43 2132.26 1923 2139.43L1921.7 2140.73L1953.63 2187.66C1958.85 2195.48 1961.46 2197.43 1966.67 2193.52L1975.14 2187.66L1982.31 2198.09L1935.39 2230.02L1928.22 2219.59L1934.08 2215.68C1939.3 2212.42 1938.65 2209.16 1933.43 2201.34L1865 2101.63C1859.79 2093.81 1857.18 2091.86 1851.97 2095.11L1846.1 2099.02L1838.93 2089.25L1915.18 2037.11L1950.38 2087.94ZM2087.89 2123.14C2078.77 2130.96 2067.03 2133.57 2052.7 2130.96C2031.84 2126.4 2009.68 2112.06 1989.48 2088.6C1973.84 2070.35 1964.06 2051.45 1959.5 2032.55C1954.94 2011.69 1958.85 1996.7 1971.88 1986.28C1979.7 1979.76 1988.83 1977.15 2000.56 1979.11L1998.6 1964.77L2003.17 1960.86L2049.44 2011.69L2044.22 2017.56C2014.25 1992.14 1992.74 1984.32 1981.01 1994.1C1966.67 2006.48 1976.45 2029.94 2010.33 2069.05C2044.22 2108.8 2065.08 2121.83 2080.72 2108.15C2092.45 2097.72 2089.84 2077.52 2072.25 2048.19L2080.72 2046.23C2104.18 2080.12 2106.14 2107.5 2087.89 2123.14Z" fill="#FFC20E"/>
<path d="M265.027 686.092L291.748 742.14L215.497 762.995L238.959 810.57L315.21 789.715L338.672 837.291L263.724 857.494L287.186 904.418L363.437 883.563L387.551 931.139L310.648 951.342L334.761 998.266L411.664 978.062L445.554 1043.89C459.892 1039.98 474.23 1034.76 487.916 1029.55L309.344 673.709C296.31 679.574 281.32 683.485 265.027 686.092ZM474.23 706.295C469.016 680.878 526.367 650.899 571.988 613.751L511.378 491.879C487.264 504.913 460.543 525.768 433.823 555.748C426.654 562.916 420.137 570.737 414.271 578.558L474.23 706.295Z" fill="white"/>
<path d="M610.439 489.273C595.449 469.07 557.65 466.463 510.726 491.88L571.336 613.752C614.349 579.21 646.935 538.152 610.439 489.273ZM309.344 673.71L487.264 1028.9C537.446 1008.04 578.505 978.715 592.191 957.208L515.288 794.278L477.488 713.465C475.533 710.858 474.229 708.251 474.229 705.644L414.271 577.907C384.292 615.707 358.223 652.855 309.344 673.71ZM265.027 686.093C240.913 690.003 212.889 691.306 179 688.699L216.148 762.996L292.399 742.141L265.027 686.093ZM315.861 789.716L239.61 810.571L263.072 857.495L339.323 836.64L315.861 789.716ZM363.437 884.216L287.186 905.071L310.648 951.995L387.551 931.139L363.437 884.216ZM334.109 998.918L362.133 1054.97C388.854 1056.27 417.53 1051.71 444.902 1043.89L411.012 978.063L334.109 998.918Z" fill="#ED1A3B"/>
<path d="M570.684 614.404L604.574 682.183C628.687 661.98 654.756 637.866 682.128 615.056L618.911 501.656C641.07 545.973 610.439 583.121 570.684 614.404Z" fill="white"/>
<path d="M477.488 713.464C479.443 716.071 482.05 718.026 485.309 720.633C519.198 744.746 559.605 719.981 604.573 682.181L570.684 614.402C520.501 655.461 456.633 686.743 477.488 713.464Z" fill="#ED1A3B"/>
<path d="M477.488 713.467C439.036 664.588 689.949 597.461 610.439 489.275C588.28 458.644 512.029 467.769 433.823 555.751C372.561 622.878 345.84 703.04 179 688.702L362.133 1054.97C454.678 1059.53 567.425 996.314 592.191 957.862L477.488 713.467ZM477.488 713.467C479.443 716.074 482.05 718.029 485.309 720.636C537.446 757.784 603.922 680.881 682.128 615.057L618.26 501.658C671.049 602.675 440.992 666.543 477.488 713.467Z" stroke="#211E1F" stroke-width="30.6569"/>
<path d="M2234.53 686.092L2207.15 742.14L2282.75 762.995L2259.29 810.57L2183.04 789.715L2159.58 837.291L2235.83 858.146L2212.37 905.07L2136.12 884.215L2112 931.79L2188.25 951.994L2164.79 998.917L2087.89 978.714L2054 1044.54C2039.66 1040.63 2025.32 1035.41 2011.64 1030.2L2189.56 675.012C2203.24 679.574 2217.58 683.485 2234.53 686.092ZM2025.32 706.295C2030.54 680.878 1973.19 650.899 1927.57 613.751L1988.83 491.879C2012.94 504.913 2039.66 525.768 2066.38 555.748C2072.9 562.916 2079.42 570.737 2085.93 578.558L2025.32 706.295Z" fill="white"/>
<path d="M1888.46 489.273C1903.45 469.07 1941.25 466.463 1988.18 491.88L1926.91 613.752C1885.2 579.21 1852.62 538.152 1888.46 489.273ZM2190.21 673.71L2012.29 1028.9C1962.76 1008.04 1921.05 978.715 1907.36 957.208L2022.07 712.813C2024.02 710.206 2025.32 707.599 2025.32 704.992L2085.28 577.255C2115.26 615.707 2141.33 652.855 2190.21 673.71ZM2234.53 686.093C2258.64 690.003 2286.66 691.306 2320.55 688.699L2283.41 762.996L2207.81 742.141L2234.53 686.093ZM2183.69 789.716L2259.94 810.571L2236.48 857.495L2160.23 836.64L2183.69 789.716ZM2136.12 884.216L2212.37 905.071L2188.91 951.995L2112.66 931.791L2136.12 884.216ZM2164.79 998.918L2136.77 1054.97C2110.05 1056.27 2081.37 1051.71 2054 1043.89L2087.89 978.063L2164.79 998.918Z" fill="#ED1A3B"/>
<path d="M1928.22 614.404L1894.33 682.183C1870.21 661.98 1844.8 637.866 1817.43 615.056L1880.64 501.656C1857.83 545.973 1889.11 583.121 1928.22 614.404Z" fill="white"/>
<path d="M2022.07 713.464C2020.11 716.071 2017.5 718.026 2014.25 720.633C1979.7 744.746 1939.95 719.981 1894.33 682.181L1928.22 614.402C1978.4 655.461 2042.27 686.743 2022.07 713.464Z" fill="#ED1A3B"/>
<path d="M2022.07 713.467C2059.87 664.588 1809.6 597.461 1889.11 489.275C1911.92 458.644 1987.52 467.769 2066.38 555.751C2126.99 622.878 2153.71 703.04 2320.55 688.702L2136.77 1054.97C2044.22 1059.53 1931.48 996.314 1906.71 957.862L2022.07 713.467ZM1817.43 615.057C1895.63 680.881 1961.46 757.784 2013.59 720.636C2016.85 718.029 2019.46 716.074 2021.41 713.467C2057.91 666.543 1827.85 602.675 1880.64 501.658L1817.43 615.057Z" stroke="#211E1F" stroke-width="30.6569"/>
<path d="M1478.53 602.673C1462.24 615.707 1433.56 635.259 1401.63 654.159V907.678C1437.47 886.171 1473.97 862.709 1508.51 843.809V581.818C1496.78 589.638 1486.35 596.807 1478.53 602.673ZM1649.28 534.242L1644.72 534.894L1608.22 808.617L1612.78 807.965C1642.11 807.965 1670.14 817.741 1695.55 832.73L1776.37 584.425C1737.92 555.097 1694.9 534.242 1649.28 534.242ZM2014.24 720.634C1980.36 744.096 1940.6 720.634 1895.63 682.834L1790.05 903.116C1833.07 940.264 1870.87 970.895 1906.71 957.209L2021.41 713.465C2020.11 716.072 2017.5 718.679 2014.24 720.634ZM485.308 720.634C482.05 718.027 479.443 716.072 477.488 713.465L592.191 957.209C628.035 970.895 666.487 940.264 708.849 903.116L603.27 682.834C558.301 720.634 519.198 744.748 485.308 720.634ZM1249.78 719.983C1239.35 719.983 1225.01 716.072 1209.37 710.858V965.681C1224.36 970.895 1237.39 974.154 1249.78 974.154C1262.16 974.154 1275.85 970.895 1290.18 965.681V710.858C1274.54 716.724 1260.2 719.983 1249.78 719.983ZM849.62 534.242C804 534.242 761.638 555.097 721.883 583.773L802.696 832.078C828.113 817.741 856.137 807.313 885.465 807.313L890.027 807.965L854.182 534.242H849.62ZM1020.37 602.673C1012.55 596.807 1002.77 588.987 990.392 581.166V843.809C1024.93 862.058 1061.43 885.52 1096.62 907.678V654.159C1065.34 635.259 1036.66 615.707 1020.37 602.673Z" fill="white"/>
<path d="M1097.27 654.159V907.678C1137.03 931.792 1176.13 954.602 1209.37 965.681V710.858C1176.13 699.127 1134.42 676.969 1097.27 654.159ZM854.182 534.242L890.027 807.965C918.051 809.268 953.244 823.606 990.392 843.809V581.818C956.503 559.659 906.972 535.546 854.182 534.242ZM603.27 682.834L708.849 903.116C737.524 878.351 768.155 850.978 802.696 832.078L721.883 583.773C678.87 614.404 639.766 652.855 603.27 682.834ZM1290.18 710.858V965.681C1323.42 954.602 1362.52 931.792 1402.28 907.678V654.159C1365.13 676.969 1323.42 699.127 1290.18 710.858ZM1508.51 581.818V844.461C1545.66 824.258 1580.2 809.92 1608.87 808.617L1645.37 534.894C1592.58 535.546 1543.05 559.659 1508.51 581.818ZM1777.67 583.773L1696.86 832.078C1730.75 850.978 1762.03 878.351 1790.7 903.116L1896.28 682.834C1859.79 652.855 1820.68 614.404 1777.67 583.773Z" fill="#ED1A3B"/>
<path d="M1249.78 973.501C1341.67 973.501 1516.98 807.312 1613.44 807.312C1741.83 807.312 1829.16 986.536 1907.36 957.208L2022.07 713.465C2020.11 716.072 2017.5 718.027 2014.24 720.634C1928.22 781.244 1805.69 533.59 1649.28 533.59C1576.29 533.59 1508.51 579.21 1478.53 602.02C1433.56 637.865 1301.26 719.33 1249.78 719.33C1198.29 719.33 1065.99 637.865 1020.37 602.02C990.392 578.559 922.613 533.59 849.62 533.59C693.859 533.59 571.336 781.244 485.308 720.634C482.05 718.027 479.443 716.072 477.488 713.465L592.191 957.208C670.397 986.536 757.728 807.312 886.117 807.312C982.571 807.312 1158.54 973.501 1249.78 973.501Z" stroke="#211E1F" stroke-width="30.6569"/>
<path d="M1253.69 471.025C1490.26 471.025 1682.52 366.75 1682.52 239.012C1682.52 110.624 1490.91 7 1253.69 7C1017.11 7 824.855 111.275 824.855 239.012C824.855 367.401 1017.11 471.025 1253.69 471.025Z" fill="#211E1F"/>
<path d="M1253.69 471.025C1490.26 471.025 1682.52 366.75 1682.52 239.012C1682.52 110.624 1490.91 7 1253.69 7C1017.11 7 824.855 111.275 824.855 239.012C824.855 367.401 1017.11 471.025 1253.69 471.025Z" stroke="white" stroke-width="15.3545"/>
<path d="M1254.34 433.226C1464.84 433.226 1635.6 345.896 1635.6 239.013C1634.94 131.48 1464.19 44.8008 1254.34 44.8008C1043.83 44.8008 873.083 131.48 873.083 239.013C873.083 346.547 1043.18 433.226 1254.34 433.226Z" fill="#FFC20E"/>
<path d="M1254.34 433.226C1464.84 433.226 1635.6 345.896 1635.6 239.013C1634.94 131.48 1464.19 44.8008 1254.34 44.8008C1043.83 44.8008 873.083 131.48 873.083 239.013C873.083 346.547 1043.18 433.226 1254.34 433.226Z" stroke="#211E1F" stroke-width="0.0130344"/>
<path d="M1254.34 386.954C1425.74 386.954 1564.56 331.558 1564.56 262.475C1564.56 194.045 1425.09 138.648 1254.34 138.648C1082.94 138.648 944.12 194.045 944.12 262.475C944.12 331.558 1082.94 386.954 1254.34 386.954Z" fill="white"/>
<path d="M1254.34 386.954C1425.74 386.954 1564.56 331.558 1564.56 262.475C1564.56 194.045 1425.09 138.648 1254.34 138.648C1082.94 138.648 944.12 194.045 944.12 262.475C944.12 331.558 1082.94 386.954 1254.34 386.954Z" stroke="#211E1F" stroke-width="61.4963"/>
<path d="M1253.69 174.492C1088.8 174.492 955.199 308.095 955.199 472.98C955.199 637.865 1088.8 771.468 1253.69 771.468H1249.78C1414.66 771.468 1548.26 637.865 1548.26 472.98C1548.26 308.095 1414.66 174.492 1249.78 174.492H1253.69Z" fill="white"/>
<path d="M1253.69 174.492C1088.8 174.492 955.199 308.095 955.199 472.98C955.199 637.865 1088.8 771.468 1253.69 771.468H1249.78C1414.66 771.468 1548.26 637.865 1548.26 472.98C1548.26 308.095 1414.66 174.492 1249.78 174.492H1253.69Z" stroke="#211E1F" stroke-width="30.6569"/>
<path d="M1203.5 719.983L1142.24 615.708L1029.5 597.459L1001.47 633.304C1002.77 635.259 1003.43 637.214 1004.73 638.518L1009.29 645.687C1047.09 699.128 1101.18 739.535 1165.05 759.086L1176.78 761.041L1203.5 719.983ZM1126.6 431.922L1174.83 581.166H1327.33L1375.56 431.922L1251.08 341.333L1126.6 431.922ZM1251.08 281.375L1344.28 220.765V190.786C1314.95 181.01 1284.32 175.145 1251.73 175.145C1219.8 175.145 1188.52 181.01 1159.19 190.786V220.765L1251.08 281.375ZM1079.03 384.347L1082.28 265.734L1058.17 246.834C1045.14 257.913 1033.41 269.644 1022.98 282.027L1021.67 283.33C987.785 325.04 964.975 375.874 957.154 431.271L983.875 443.002L1079.03 384.347ZM1361.22 615.708L1299.96 719.983L1326.68 761.041L1337.76 759.086C1402.28 739.535 1458.33 697.824 1495.48 643.08L1498.08 639.17C1499.39 637.214 1500.69 634.608 1501.99 632.652L1473.32 596.808L1361.22 615.708ZM1423.79 384.347L1518.29 443.653L1545.01 431.922C1537.19 375.874 1514.38 325.04 1479.83 283.33C1469.41 270.296 1457.02 258.565 1444.64 247.486L1420.53 266.385L1423.79 384.347Z" fill="#211E1F"/>
</g>
<defs>
<clipPath id="clip0_290_1210">
<rect width="2500" height="2500" fill="white"/>
</clipPath>
</defs>
</svg>
