<?xml version="1.0" encoding="UTF-8"?>
<svg xmlns="http://www.w3.org/2000/svg" xmlns:xlink="http://www.w3.org/1999/xlink" width="48px" height="48px" viewBox="0 0 48 59" version="1.1">
<g id="surface1">
<path style=" stroke:none;fill-rule:nonzero;fill:rgb(100%,100%,100%);fill-opacity:1;" d="M 15.253906 46.722656 C 15.253906 46.722656 8.589844 43.410156 5.34375 38.328125 C 5.34375 42.691406 5.140625 48.136719 5.140625 48.136719 L 15.34375 50.121094 Z M 15.253906 46.722656 "/>
<path style=" stroke:none;fill-rule:nonzero;fill:rgb(100%,100%,100%);fill-opacity:1;" d="M 32.863281 46.8125 C 32.863281 46.8125 39.53125 43.761719 42.777344 38.683594 C 42.777344 43.046875 42.976562 48.144531 42.976562 48.144531 L 32.773438 50.128906 Z M 32.863281 46.8125 "/>
<path style=" stroke:none;fill-rule:nonzero;fill:rgb(100%,100%,100%);fill-opacity:1;" d="M 15.207031 45.167969 L 32.9375 45.167969 L 32.9375 53.179688 L 15.207031 53.179688 Z M 15.207031 45.167969 "/>
<path style=" stroke:none;fill-rule:nonzero;fill:rgb(100%,100%,100%);fill-opacity:1;" d="M 29.34375 45.757812 C 29.375 47.871094 28.109375 49.792969 26.144531 50.621094 C 24.183594 51.449219 21.90625 51.019531 20.390625 49.535156 C 18.871094 48.050781 18.40625 45.804688 19.21875 43.847656 C 20.027344 41.890625 21.949219 40.613281 24.085938 40.613281 C 26.972656 40.59375 29.324219 42.898438 29.34375 45.757812 "/>
<path style=" stroke:none;fill-rule:nonzero;fill:rgb(100%,100%,100%);fill-opacity:1;" d="M 2.894531 48.445312 L 2.894531 40.925781 L 2.4375 40.757812 L 2.4375 39.742188 L 2.894531 39.542969 L 2.894531 38.832031 L 2.4375 38.664062 L 2.4375 37.449219 L 3.929688 36.054688 L 3.929688 35.722656 C 3.976562 35.53125 4.164062 35.40625 4.359375 35.429688 L 4.800781 35.429688 C 4.800781 35.429688 5.160156 35.480469 5.160156 35.722656 L 5.160156 36.03125 L 6.6875 37.457031 L 6.6875 38.671875 L 6.230469 38.832031 L 6.230469 39.542969 L 6.695312 39.738281 L 6.695312 47.730469 Z M 2.894531 48.445312 "/>
<path style=" stroke:none;fill-rule:nonzero;fill:rgb(100%,100%,100%);fill-opacity:1;" d="M 45.402344 48.445312 L 45.402344 40.925781 L 45.855469 40.757812 L 45.855469 39.742188 L 45.402344 39.542969 L 45.402344 38.832031 L 45.855469 38.664062 L 45.855469 37.449219 L 44.367188 36.058594 L 44.367188 35.730469 C 44.316406 35.539062 44.132812 35.414062 43.933594 35.4375 L 43.496094 35.4375 C 43.496094 35.4375 43.136719 35.484375 43.136719 35.730469 L 43.136719 36.039062 L 41.609375 37.464844 L 41.609375 38.675781 L 42.0625 38.835938 L 42.0625 39.550781 L 41.597656 39.746094 L 41.597656 47.738281 Z M 45.402344 48.445312 "/>
<path style=" stroke:none;fill-rule:nonzero;fill:rgb(100%,100%,100%);fill-opacity:1;" d="M 23.628906 59.003906 C 19.941406 59.003906 17.585938 57.753906 15.101562 56.433594 C 13.738281 55.660156 12.308594 55.007812 10.832031 54.480469 C 6.316406 52.972656 3.339844 54.835938 3.214844 54.894531 L 2.613281 53.976562 C 2.753906 53.882812 6.136719 51.757812 11.183594 53.4375 C 12.71875 53.984375 14.207031 54.660156 15.625 55.464844 C 18.1875 56.824219 20.605469 58.113281 24.585938 57.875 C 28.308594 57.652344 30.867188 56.398438 33.339844 55.183594 C 34.394531 54.667969 35.390625 54.179688 36.449219 53.789062 L 36.691406 53.695312 C 38.015625 53.175781 42.046875 51.601562 45.523438 54.226562 L 44.855469 55.097656 C 41.871094 52.847656 38.402344 54.203125 37.097656 54.714844 L 36.835938 54.8125 C 35.832031 55.171875 34.859375 55.667969 33.828125 56.167969 C 31.375 57.371094 28.597656 58.734375 24.648438 58.96875 C 24.296875 58.988281 23.953125 59 23.625 59 "/>
<path style=" stroke:none;fill-rule:nonzero;fill:rgb(100%,100%,100%);fill-opacity:1;" d="M 43.371094 57.019531 L 42.585938 56.523438 C 42.234375 56.378906 41.851562 56.339844 41.480469 56.414062 L 41.222656 56.464844 C 40.832031 56.550781 40.34375 56.65625 39.964844 56.355469 C 39.722656 56.15625 39.589844 55.859375 39.605469 55.546875 C 39.601562 55.222656 39.753906 54.910156 40.015625 54.710938 C 40.878906 54.042969 43.003906 54.511719 43.613281 54.667969 C 43.925781 54.777344 44.265625 54.785156 44.585938 54.695312 C 44.742188 52.953125 45.335938 51.277344 46.316406 49.824219 C 42.394531 47.472656 36.386719 48.753906 34.140625 50.179688 C 30.785156 52.320312 27.988281 53.621094 24.421875 53.632812 C 21.378906 53.632812 18.792969 52.398438 16.070312 51.074219 C 14.503906 50.273438 12.890625 49.578125 11.230469 48.992188 C 7.585938 47.78125 3.4375 49.144531 1.875 49.769531 C 2.84375 51.121094 3.394531 52.722656 3.449219 54.378906 C 3.535156 54.484375 3.996094 54.511719 4.40625 54.417969 C 5.054688 54.285156 7.195312 53.921875 8.027344 54.628906 C 8.277344 54.84375 8.410156 55.160156 8.386719 55.484375 C 8.394531 55.792969 8.25 56.082031 8.007812 56.273438 C 7.613281 56.554688 7.128906 56.425781 6.738281 56.324219 C 6.652344 56.296875 6.566406 56.277344 6.488281 56.257812 C 6.121094 56.164062 5.734375 56.183594 5.378906 56.3125 L 4.585938 56.769531 L 4.554688 55.5 C 4.238281 55.558594 3.339844 55.683594 2.78125 55.261719 C 2.511719 55.066406 2.351562 54.753906 2.34375 54.421875 C 2.308594 52.773438 1.691406 51.1875 0.59375 49.945312 L 0.03125 49.402344 L 0.75 49.046875 C 0.984375 48.929688 6.59375 46.269531 11.609375 47.9375 C 13.3125 48.539062 14.972656 49.253906 16.582031 50.074219 C 19.175781 51.335938 21.621094 52.523438 24.410156 52.523438 L 24.445312 52.523438 C 27.75 52.523438 30.390625 51.257812 33.578125 49.242188 C 36.214844 47.578125 43.105469 46.148438 47.460938 49.242188 L 47.953125 49.597656 L 47.558594 50.050781 C 46.503906 51.425781 45.867188 53.066406 45.714844 54.785156 C 45.695312 55.117188 45.519531 55.421875 45.242188 55.605469 C 44.671875 55.996094 43.800781 55.835938 43.441406 55.757812 Z M 43.371094 57.019531 "/>
<path style=" stroke:none;fill-rule:nonzero;fill:rgb(100%,100%,100%);fill-opacity:1;" d="M 7.976562 54.625 C 7.683594 54.335938 7.421875 54.019531 7.195312 53.675781 C 6.742188 52.882812 3.199219 54.449219 3.199219 54.449219 L 4.167969 54.65625 "/>
<path style=" stroke:none;fill-rule:nonzero;fill:rgb(100%,100%,100%);fill-opacity:1;" d="M 39.898438 54.835938 C 40.199219 54.554688 40.46875 54.242188 40.703125 53.90625 C 41.175781 53.121094 44.679688 54.773438 44.679688 54.773438 L 43.707031 54.957031 "/>
<path style=" stroke:none;fill-rule:nonzero;fill:rgb(100%,100%,100%);fill-opacity:1;" d="M 2.789062 54.65625 C 2.789062 54.65625 2.710938 52.496094 2.222656 51.542969 C 1.917969 50.929688 1.6875 50.285156 1.539062 49.621094 C 1.539062 49.621094 4.511719 48.136719 6.449219 48.101562 C 8.382812 48.066406 13.203125 48.894531 14.703125 49.714844 C 16.203125 50.535156 20.253906 52.734375 22.351562 53.183594 C 24.449219 53.632812 27.917969 53.097656 30.082031 52.214844 C 32.25 51.332031 33.703125 49.808594 34.582031 49.417969 C 35.460938 49.03125 38.296875 48.019531 40.203125 47.847656 C 42.109375 47.675781 44.40625 48.449219 45.699219 48.691406 C 46.988281 48.933594 46.800781 49.40625 46.800781 49.40625 L 45.25 54.324219 C 45.25 54.324219 42.765625 53.488281 41.09375 53.4375 C 39.425781 53.386719 36.589844 54.632812 35.695312 54.957031 C 34.804688 55.28125 30.953125 56.878906 29.710938 57.363281 C 28.464844 57.847656 24.261719 58.960938 21.863281 58.433594 C 19.46875 57.90625 14.816406 55.558594 13.585938 54.964844 C 12.359375 54.367188 7.96875 52.929688 7.382812 53.203125 C 6.796875 53.476562 2.765625 54.664062 2.765625 54.664062 "/>
<path style=" stroke:none;fill-rule:nonzero;fill:rgb(100%,100%,100%);fill-opacity:1;" d="M 44.285156 7.84375 C 44.199219 7.578125 43.738281 7.371094 41.882812 7.371094 C 41.164062 7.371094 40.488281 7.398438 40.480469 7.398438 C 40.449219 7.394531 40.421875 7.394531 40.394531 7.398438 C 39.277344 7.472656 38.183594 7.734375 37.15625 8.171875 C 38.46875 6.601562 40.515625 5.617188 41.753906 5.132812 C 41.859375 5.097656 41.953125 5.039062 42.039062 4.964844 C 42.097656 4.875 42.199219 4.789062 42.113281 4.636719 C 41.96875 4.375 41.394531 4.308594 41.035156 4.308594 C 40.464844 4.320312 39.898438 4.375 39.339844 4.46875 C 39.003906 4.503906 38.667969 4.558594 38.339844 4.632812 L 38.296875 4.632812 C 36.875 4.945312 35.542969 5.570312 34.394531 6.460938 C 34.234375 6.585938 34.085938 6.714844 33.9375 6.84375 L 34.84375 5.316406 C 35.3125 4.550781 35.84375 3.820312 36.425781 3.132812 C 36.464844 3.089844 36.492188 3.039062 36.503906 2.980469 C 36.523438 2.871094 36.65625 2.695312 36.578125 2.625 C 36.496094 2.527344 36.371094 2.472656 36.242188 2.476562 C 36.078125 2.476562 35.523438 2.53125 33.457031 4.097656 C 31.507812 5.445312 29.855469 7.175781 28.605469 9.179688 C 28.113281 10.054688 27.253906 11.675781 26.96875 12.808594 C 26.96875 12.695312 26.933594 12.582031 26.921875 12.453125 C 26.871094 11.996094 26.839844 11.523438 26.832031 10.960938 C 26.832031 10.285156 26.855469 9.683594 26.882812 9.296875 C 26.882812 9.136719 26.867188 8.753906 26.703125 8.714844 C 26.542969 8.675781 26.300781 8.992188 26.238281 9.136719 C 25.46875 10.832031 25.011719 12.652344 24.898438 14.507812 L 24.539062 17.875 C 24.496094 18.105469 24.320312 19.226562 24.320312 19.226562 C 24.050781 18.789062 23.820312 18.328125 23.625 17.855469 C 23.617188 17.839844 23.609375 17.820312 23.597656 17.804688 L 23.277344 17.300781 L 23.25 17.261719 C 22.8125 16.769531 22.289062 16.363281 21.707031 16.054688 C 20.460938 15.335938 19.355469 14.402344 18.445312 13.296875 C 17.488281 12.074219 16.789062 10.675781 16.386719 9.183594 C 15.789062 6.414062 15.839844 3.542969 16.53125 0.796875 C 16.613281 0.59375 16.621094 0.367188 16.554688 0.160156 C 16.488281 0.0664062 16.378906 0.015625 16.265625 0.015625 C 16.050781 0.015625 15.851562 0.203125 14.496094 2.34375 C 13.59375 3.765625 12.976562 5.347656 12.671875 7 C 12.609375 7.359375 12.558594 7.714844 12.527344 8.070312 C 12.207031 7.289062 11.949219 6.484375 11.746094 5.667969 C 11.316406 3.984375 11.175781 2.242188 11.332031 0.511719 C 11.332031 0.414062 11.363281 0.15625 11.292969 0.0703125 C 11.21875 0.00390625 11.125 -0.03125 11.027344 -0.03125 C 10.726562 -0.03125 10.265625 0.347656 9.308594 2.882812 C 8.417969 5.117188 8.105469 7.539062 8.390625 9.921875 C 7.359375 8.589844 6.890625 6.714844 6.472656 5.023438 C 6.367188 4.601562 6.269531 4.191406 6.160156 3.800781 C 6.105469 3.605469 5.960938 3.125 5.78125 3.214844 L 5.746094 3.238281 L 5.726562 3.238281 L 5.703125 3.257812 C 5.667969 3.292969 5.535156 3.710938 5.511719 3.753906 C 5.441406 3.910156 5.402344 4.078125 5.394531 4.25 C 5.394531 4.261719 5.394531 4.269531 5.394531 4.28125 C 5.394531 4.359375 5.394531 4.4375 5.394531 4.515625 C 5.394531 4.597656 5.394531 4.691406 5.394531 4.777344 C 5.152344 7.519531 5.664062 10.273438 6.871094 12.75 L 6.914062 12.839844 L 6.980469 12.996094 C 7.164062 13.382812 7.371094 13.738281 7.574219 14.066406 L 7.769531 14.402344 C 7.949219 14.722656 8.167969 15.023438 8.421875 15.296875 C 7.460938 15.101562 6.046875 14.820312 5.359375 14.722656 C 5.207031 14.707031 5.0625 14.796875 5 14.933594 C 4.945312 15.082031 5 15.25 5.132812 15.335938 C 6.082031 16.046875 6.984375 16.816406 7.832031 17.640625 L 9.773438 19.425781 L 9.949219 19.589844 C 10.582031 20.175781 11.238281 20.785156 11.867188 21.351562 L 10.539062 21.222656 C 10.390625 21.207031 10.253906 21.292969 10.199219 21.429688 C 10.140625 21.5625 10.179688 21.71875 10.292969 21.8125 L 13.390625 24.308594 L 14.742188 25.378906 L 14.773438 25.40625 L 17.09375 27.257812 C 17.152344 27.300781 17.222656 27.328125 17.292969 27.332031 L 17.886719 27.332031 C 16.691406 27.84375 15.34375 27.878906 14.125 27.421875 C 13.078125 27.074219 12.105469 26.546875 11.246094 25.867188 C 11.125 25.769531 10.816406 25.59375 10.695312 25.683594 C 10.570312 25.777344 10.660156 26.113281 10.71875 26.253906 C 11.023438 26.894531 11.441406 27.476562 11.957031 27.964844 C 10.320312 27.742188 8.726562 27.269531 7.234375 26.5625 C 7.097656 26.5 6.847656 26.339844 6.75 26.453125 C 6.652344 26.5625 6.730469 26.921875 6.8125 27.046875 C 7.378906 27.960938 8.03125 28.824219 8.765625 29.613281 C 9.328125 30.199219 9.957031 30.71875 10.632812 31.167969 C 10.710938 31.214844 10.921875 31.339844 11.917969 31.339844 C 12.277344 31.339844 12.714844 31.320312 13.0625 31.285156 L 13.191406 31.285156 C 12.332031 31.617188 11.410156 31.75 10.492188 31.667969 C 10.324219 31.644531 9.929688 31.667969 9.890625 31.824219 C 9.851562 31.980469 10.171875 32.257812 10.335938 32.3125 C 11.453125 32.714844 12.609375 33.003906 13.789062 33.164062 C 14.613281 33.394531 15.457031 33.550781 16.308594 33.632812 C 16.378906 33.636719 16.453125 33.636719 16.523438 33.632812 L 16.796875 33.65625 C 17.230469 33.695312 17.636719 33.734375 18.066406 33.734375 C 18.429688 33.734375 18.789062 33.707031 19.148438 33.652344 C 19.152344 33.695312 19.164062 33.738281 19.183594 33.777344 L 19.378906 34.15625 C 19.269531 34.175781 19.179688 34.242188 19.132812 34.339844 C 19.082031 34.4375 19.085938 34.550781 19.136719 34.644531 L 19.558594 35.421875 C 19.566406 35.441406 19.578125 35.457031 19.59375 35.472656 L 19.625 35.507812 L 19.570312 35.535156 C 19.457031 35.617188 19.40625 35.757812 19.4375 35.894531 C 19.550781 36.464844 19.894531 36.96875 20.390625 37.285156 C 20.582031 37.386719 20.730469 37.5625 20.796875 37.769531 C 20.839844 37.925781 20.914062 38.101562 20.988281 38.289062 C 21.152344 38.683594 21.394531 39.285156 21.242188 39.523438 C 21.105469 39.757812 20.90625 39.949219 20.667969 40.085938 C 20.476562 40.207031 20.296875 40.34375 20.125 40.496094 C 19.601562 40.960938 19.566406 41.585938 20.019531 42.347656 L 20.042969 42.390625 C 20.121094 42.511719 20.261719 42.578125 20.402344 42.554688 C 20.542969 42.535156 20.652344 42.429688 20.679688 42.292969 C 20.785156 41.757812 21.671875 41.332031 21.847656 41.324219 C 22.132812 41.34375 22.414062 41.257812 22.640625 41.085938 C 22.964844 40.765625 24.71875 40.730469 24.71875 40.730469 C 24.894531 40.742188 25.074219 40.765625 25.246094 40.800781 C 25.308594 40.832031 25.371094 40.863281 25.429688 40.898438 C 25.484375 40.933594 25.550781 40.953125 25.613281 40.949219 C 25.847656 41.023438 26.074219 41.121094 26.289062 41.238281 C 26.675781 41.496094 27.078125 41.734375 27.488281 41.949219 C 27.714844 42.226562 27.957031 42.496094 28.207031 42.75 C 28.339844 42.945312 28.394531 42.890625 28.394531 42.691406 C 28.824219 42.398438 29.125 41.957031 29.242188 41.453125 C 29.375 40.96875 29.292969 40.453125 29.019531 40.027344 C 29.003906 40.003906 28.984375 39.984375 28.964844 39.964844 C 28.90625 39.910156 28.75 39.792969 28.570312 39.652344 C 28.328125 39.460938 27.917969 39.140625 27.851562 39.046875 C 27.625 38.773438 27.460938 38.457031 27.363281 38.113281 C 27.460938 38.109375 27.550781 38.058594 27.613281 37.980469 C 27.671875 37.902344 27.695312 37.804688 27.671875 37.707031 L 27.628906 37.515625 C 27.5625 37.222656 27.480469 36.886719 27.417969 36.523438 L 27.417969 36.507812 L 27.464844 36.507812 C 27.652344 36.507812 27.800781 36.355469 27.800781 36.171875 C 27.800781 36.109375 27.785156 36.050781 27.753906 36 L 27.394531 35 L 27.46875 35.078125 C 27.558594 35.175781 27.785156 35.339844 27.910156 35.292969 C 28.035156 35.246094 28.039062 35.007812 28.050781 34.875 C 28.15625 34.214844 28.519531 33.617188 29.058594 33.207031 C 29.078125 33.265625 29.101562 33.320312 29.128906 33.375 C 29.1875 33.484375 29.195312 33.730469 29.320312 33.730469 C 29.449219 33.730469 29.546875 33.554688 29.726562 33.375 C 29.90625 33.148438 30.136719 32.972656 30.398438 32.859375 L 31.5625 33.320312 C 31.648438 33.609375 31.808594 33.863281 32.03125 34.066406 C 32.289062 34.265625 32.5625 34.449219 32.84375 34.617188 L 32.972656 34.699219 L 32.855469 34.75 C 32.722656 34.792969 32.339844 34.917969 32.339844 35.0625 C 32.339844 35.203125 32.71875 35.324219 32.851562 35.375 C 33.113281 35.472656 33.390625 35.523438 33.671875 35.523438 C 34.191406 35.542969 34.691406 35.339844 35.050781 34.964844 C 35.300781 34.667969 35.402344 34.277344 35.328125 33.894531 C 35.277344 33.59375 35.152344 32.828125 35.113281 32.601562 L 35.425781 31.582031 C 35.433594 31.550781 35.433594 31.515625 35.425781 31.480469 C 35.40625 30.921875 35.265625 30.375 35.011719 29.875 L 35.011719 29.835938 C 35 29.796875 34.980469 29.761719 34.957031 29.726562 L 34.914062 29.644531 C 34.832031 29.476562 34.738281 29.3125 34.636719 29.152344 C 34.050781 28.234375 33.351562 27.386719 32.5625 26.632812 C 32.460938 26.539062 32.265625 26.375 32.136719 26.433594 C 32.011719 26.492188 31.988281 26.761719 31.996094 26.898438 L 31.996094 26.96875 C 31.859375 26.75 31.703125 26.546875 31.535156 26.355469 C 31.402344 26.167969 31.300781 25.960938 31.230469 25.742188 C 31.902344 22.875 33.316406 20.226562 35.328125 18.0625 C 35.386719 18.007812 35.417969 17.9375 35.425781 17.859375 C 36.09375 11.289062 43.664062 8.394531 43.742188 8.367188 C 43.824219 8.339844 43.96875 8.296875 43.992188 8.277344 C 44.253906 8.085938 44.296875 7.921875 44.277344 7.867188 M 27.078125 36.46875 L 27.105469 36.46875 L 26.960938 36.496094 Z M 27.078125 36.46875 "/>
<path style=" stroke:none;fill-rule:nonzero;fill:rgb(0%,25.882353%,53.72549%);fill-opacity:1;" d="M 23.136719 54.957031 L 23.03125 54.957031 L 23.003906 55.738281 L 23.101562 55.738281 C 23.390625 55.738281 23.550781 55.628906 23.5625 55.351562 C 23.574219 55.078125 23.425781 54.96875 23.136719 54.960938 "/>
<path style=" stroke:none;fill-rule:nonzero;fill:rgb(0%,25.882353%,53.72549%);fill-opacity:1;" d="M 25.523438 55.984375 L 26.054688 55.914062 L 25.671875 55.035156 Z M 25.523438 55.984375 "/>
<path style=" stroke:none;fill-rule:nonzero;fill:rgb(0%,25.882353%,53.72549%);fill-opacity:1;" d="M 17.621094 54.597656 L 17.804688 53.660156 L 17.140625 54.359375 Z M 17.621094 54.597656 "/>
<path style=" stroke:none;fill-rule:nonzero;fill:rgb(0%,25.882353%,53.72549%);fill-opacity:1;" d="M 8.007812 49.867188 L 7.832031 49.867188 L 7.785156 50.644531 L 7.964844 50.644531 C 8.078125 50.671875 8.199219 50.640625 8.285156 50.570312 C 8.375 50.496094 8.425781 50.386719 8.421875 50.273438 C 8.421875 50.03125 8.289062 49.882812 8.011719 49.867188 "/>
<path style=" stroke:none;fill-rule:nonzero;fill:rgb(0%,25.882353%,53.72549%);fill-opacity:1;" d="M 30.722656 54.519531 L 31.214844 54.300781 L 30.59375 53.570312 Z M 30.722656 54.519531 "/>
<path style=" stroke:none;fill-rule:nonzero;fill:rgb(0%,25.882353%,53.72549%);fill-opacity:1;" d="M 33.875 49.714844 C 30.550781 51.820312 27.847656 53.070312 24.449219 53.085938 C 19.847656 53.101562 16.285156 50.082031 11.433594 48.46875 C 6.578125 46.851562 0.996094 49.539062 0.996094 49.539062 C 2.195312 50.875 2.875 52.59375 2.914062 54.382812 C 2.914062 54.382812 6.152344 52.289062 11.007812 53.90625 C 15.863281 55.519531 18.375 58.742188 24.621094 58.367188 C 30.058594 58.042969 33.152344 55.546875 36.648438 54.246094 C 37.726562 53.84375 41.726562 52 45.183594 54.605469 C 45.355469 52.8125 46.035156 51.105469 47.144531 49.675781 C 43.007812 46.746094 36.320312 48.160156 33.878906 49.703125 M 5.667969 52.292969 C 4.785156 52.460938 4.152344 52 3.976562 51.089844 C 3.867188 50.699219 3.933594 50.285156 4.15625 49.949219 C 4.378906 49.613281 4.738281 49.390625 5.140625 49.335938 C 5.394531 49.285156 5.660156 49.289062 5.910156 49.359375 L 5.933594 50.121094 C 5.75 50.019531 5.539062 49.980469 5.332031 50.015625 C 4.9375 50.089844 4.730469 50.433594 4.828125 50.921875 C 4.925781 51.410156 5.261719 51.632812 5.660156 51.574219 C 5.867188 51.527344 6.058594 51.421875 6.210938 51.277344 L 6.453125 51.945312 C 6.222656 52.125 5.953125 52.25 5.667969 52.300781 M 8.375 52.210938 L 7.894531 51.25 L 7.761719 51.25 L 7.707031 52.152344 L 6.84375 52.101562 L 7.019531 49.199219 L 8.144531 49.265625 C 8.898438 49.3125 9.3125 49.667969 9.273438 50.292969 C 9.269531 50.648438 9.046875 50.96875 8.710938 51.097656 L 9.300781 52.140625 Z M 10.75 52.660156 L 9.90625 52.4375 L 10.175781 51.453125 L 9.683594 49.453125 L 10.609375 49.582031 L 10.84375 50.808594 L 11.65625 49.898438 L 12.53125 50.132812 L 11.023438 51.664062 Z M 13.398438 51.695312 C 13.921875 52.15625 14.085938 52.476562 13.898438 52.914062 C 13.625 53.546875 13.054688 53.585938 12.507812 53.355469 C 12.15625 53.207031 11.835938 52.984375 11.574219 52.707031 L 11.972656 52.113281 C 12.191406 52.382812 12.464844 52.601562 12.777344 52.757812 C 12.933594 52.820312 13.058594 52.808594 13.109375 52.695312 C 13.160156 52.582031 13.109375 52.5 12.804688 52.21875 C 12.335938 51.789062 12.164062 51.503906 12.363281 51.039062 C 12.601562 50.488281 13.15625 50.398438 13.683594 50.625 C 14 50.746094 14.277344 50.941406 14.496094 51.195312 L 14.101562 51.789062 C 13.929688 51.554688 13.703125 51.363281 13.441406 51.234375 C 13.28125 51.167969 13.175781 51.1875 13.136719 51.28125 C 13.097656 51.375 13.136719 51.464844 13.394531 51.699219 M 14.292969 54.167969 L 15.320312 52.226562 L 14.621094 51.871094 L 14.953125 51.234375 L 17.046875 52.304688 L 16.816406 52.992188 L 16.097656 52.613281 L 15.070312 54.554688 Z M 18.25 56.09375 L 17.402344 55.824219 L 17.484375 55.285156 L 16.660156 54.875 L 16.300781 55.230469 L 15.546875 54.855469 L 17.777344 52.699219 L 18.648438 53.136719 Z M 20.441406 56.925781 L 18.710938 56.371094 L 19.613281 53.605469 L 20.445312 53.871094 L 19.773438 55.9375 L 20.5625 56.191406 Z M 23.117188 56.371094 L 22.980469 56.371094 L 22.949219 57.246094 L 22.082031 57.21875 L 22.179688 54.3125 L 23.195312 54.347656 C 23.953125 54.371094 24.40625 54.703125 24.382812 55.382812 C 24.363281 56.058594 23.855469 56.40625 23.117188 56.378906 M 26.566406 57.042969 L 26.328125 56.550781 L 25.414062 56.675781 L 25.335938 57.179688 L 24.503906 57.292969 L 25.105469 54.261719 L 26.070312 54.128906 L 27.421875 56.789062 Z M 28.027344 56.707031 L 27.160156 53.929688 L 27.992188 53.671875 L 28.640625 55.75 L 29.433594 55.507812 L 29.761719 56.175781 Z M 32.023438 55.238281 L 31.664062 54.835938 L 30.820312 55.210938 L 30.894531 55.714844 L 30.136719 56.027344 L 29.847656 52.953125 L 30.734375 52.558594 L 32.789062 54.726562 Z M 34.246094 54.167969 C 33.441406 54.558594 32.707031 54.28125 32.296875 53.457031 C 32.089844 53.109375 32.042969 52.691406 32.167969 52.308594 C 32.296875 51.925781 32.585938 51.617188 32.957031 51.460938 C 33.1875 51.34375 33.445312 51.285156 33.703125 51.285156 L 33.929688 51.996094 C 33.726562 51.945312 33.511719 51.964844 33.320312 52.050781 C 32.960938 52.226562 32.855469 52.609375 33.074219 53.054688 C 33.140625 53.246094 33.28125 53.398438 33.46875 53.476562 C 33.652344 53.558594 33.863281 53.554688 34.050781 53.472656 C 34.234375 53.375 34.394531 53.226562 34.503906 53.046875 L 34.914062 53.628906 C 34.738281 53.855469 34.511719 54.039062 34.246094 54.160156 M 35.289062 53.605469 L 34.183594 50.914062 L 35.980469 50.199219 L 36.242188 50.828125 L 35.238281 51.234375 L 35.394531 51.621094 L 36.152344 51.3125 L 36.515625 51.894531 L 35.652344 52.25 L 35.832031 52.679688 L 36.871094 52.257812 L 37.128906 52.886719 Z M 39.0625 52.296875 L 38.214844 52.472656 L 37.613281 49.621094 L 39.414062 49.242188 L 39.5625 49.933594 L 38.589844 50.136719 L 38.6875 50.59375 L 39.386719 50.445312 L 39.648438 51.109375 L 38.832031 51.277344 Z M 40.28125 52.113281 C 40.054688 52.128906 39.855469 51.960938 39.835938 51.738281 C 39.816406 51.511719 39.984375 51.3125 40.214844 51.292969 C 40.441406 51.277344 40.640625 51.445312 40.660156 51.667969 C 40.679688 51.894531 40.507812 52.09375 40.28125 52.113281 M 43.015625 50.203125 C 42.871094 50.054688 42.679688 49.957031 42.472656 49.929688 C 42.070312 49.886719 41.777344 50.152344 41.726562 50.644531 C 41.679688 50.839844 41.71875 51.042969 41.835938 51.207031 C 41.949219 51.371094 42.128906 51.480469 42.328125 51.507812 C 42.539062 51.523438 42.753906 51.480469 42.941406 51.382812 L 42.976562 52.097656 C 42.707031 52.199219 42.414062 52.234375 42.128906 52.199219 C 41.234375 52.105469 40.765625 51.488281 40.863281 50.5625 C 40.875 50.160156 41.058594 49.78125 41.371094 49.523438 C 41.683594 49.265625 42.09375 49.15625 42.496094 49.21875 C 42.75 49.242188 42.996094 49.324219 43.214844 49.460938 Z M 43.664062 52.519531 C 43.4375 52.535156 43.234375 52.371094 43.21875 52.144531 C 43.199219 51.917969 43.367188 51.71875 43.59375 51.699219 C 43.824219 51.683594 44.023438 51.851562 44.042969 52.074219 C 44.0625 52.300781 43.890625 52.5 43.664062 52.519531 "/>
<path style=" stroke:none;fill-rule:nonzero;fill:rgb(84.313725%,12.156863%,8.627451%);fill-opacity:1;" d="M 43.09375 56.460938 L 42.769531 56.253906 C 42.351562 56.0625 41.886719 56.007812 41.4375 56.097656 L 41.164062 56.152344 C 40.804688 56.230469 40.445312 56.3125 40.171875 56.105469 C 40.015625 55.964844 39.933594 55.757812 39.949219 55.546875 C 39.9375 55.320312 40.035156 55.101562 40.214844 54.957031 C 40.996094 54.351562 43.292969 54.90625 43.554688 54.957031 C 43.8125 55.007812 44.480469 55.144531 44.785156 54.9375 C 44.867188 54.878906 44.921875 54.785156 44.921875 54.683594 C 45.082031 52.886719 45.726562 51.167969 46.796875 49.707031 C 42.8125 47.078125 36.472656 48.378906 33.980469 49.878906 C 31.144531 51.589844 28.066406 53.265625 24.433594 53.28125 L 24.394531 53.28125 C 21.4375 53.28125 18.90625 52.050781 16.226562 50.753906 C 14.648438 49.945312 13.019531 49.246094 11.347656 48.652344 C 7.246094 47.289062 2.542969 49.089844 1.363281 49.597656 C 2.472656 50.957031 3.097656 52.640625 3.148438 54.386719 C 3.148438 54.488281 3.195312 54.585938 3.273438 54.648438 C 3.570312 54.867188 4.273438 54.773438 4.496094 54.722656 C 4.722656 54.667969 7.082031 54.222656 7.835938 54.863281 C 8.015625 55.011719 8.109375 55.230469 8.097656 55.460938 C 8.101562 55.667969 8.011719 55.867188 7.847656 56 C 7.578125 56.195312 7.210938 56.097656 6.855469 56 C 6.761719 55.976562 6.671875 55.953125 6.585938 55.933594 C 6.140625 55.824219 5.671875 55.855469 5.246094 56.027344 L 4.910156 56.21875 L 4.886719 55.109375 L 4.59375 55.164062 C 4.492188 55.1875 3.515625 55.394531 2.996094 55.003906 C 2.808594 54.859375 2.695312 54.636719 2.691406 54.402344 C 2.648438 52.671875 1.996094 51.007812 0.839844 49.707031 L 0.609375 49.484375 L 0.902344 49.34375 C 1.132812 49.234375 6.628906 46.628906 11.515625 48.253906 C 13.207031 48.855469 14.855469 49.570312 16.449219 50.394531 C 19.078125 51.667969 21.566406 52.890625 24.414062 52.890625 L 24.457031 52.890625 C 27.628906 52.890625 30.371094 51.601562 33.765625 49.554688 C 36.386719 47.972656 43.148438 46.609375 47.285156 49.539062 L 47.488281 49.683594 L 47.324219 49.871094 C 46.226562 51.296875 45.5625 53 45.40625 54.785156 C 45.390625 55.023438 45.265625 55.238281 45.070312 55.375 C 44.539062 55.730469 43.570312 55.488281 43.460938 55.457031 L 43.179688 55.390625 Z M 41.417969 55.140625 C 41.105469 55.113281 40.792969 55.179688 40.519531 55.328125 C 40.449219 55.378906 40.40625 55.464844 40.410156 55.550781 C 40.402344 55.625 40.417969 55.695312 40.460938 55.753906 C 40.546875 55.828125 40.847656 55.753906 41.066406 55.710938 C 41.167969 55.691406 41.269531 55.671875 41.367188 55.652344 C 41.808594 55.578125 42.257812 55.601562 42.6875 55.722656 L 42.722656 55.269531 C 42.292969 55.195312 41.855469 55.152344 41.417969 55.144531 M 6 55.429688 C 6.230469 55.429688 6.457031 55.453125 6.683594 55.5 C 6.777344 55.519531 6.875 55.546875 6.976562 55.574219 C 7.191406 55.628906 7.488281 55.710938 7.582031 55.644531 C 7.625 55.589844 7.648438 55.519531 7.644531 55.449219 C 7.652344 55.359375 7.617188 55.273438 7.546875 55.21875 C 7.210938 54.933594 6.207031 54.949219 5.347656 55.054688 L 5.347656 55.507812 C 5.558594 55.457031 5.773438 55.429688 5.992188 55.429688 "/>
<path style=" stroke:none;fill-rule:nonzero;fill:rgb(84.313725%,12.156863%,8.627451%);fill-opacity:1;" d="M 23.632812 58.679688 C 20.035156 58.679688 17.699219 57.445312 15.257812 56.148438 C 13.878906 55.367188 12.433594 54.707031 10.9375 54.175781 C 6.261719 52.617188 3.074219 54.609375 3.042969 54.628906 L 2.789062 54.242188 C 2.925781 54.15625 6.179688 52.105469 11.066406 53.742188 C 12.585938 54.28125 14.054688 54.953125 15.457031 55.746094 C 18.0625 57.128906 20.519531 58.4375 24.589844 58.195312 C 28.375 57.96875 30.964844 56.699219 33.464844 55.472656 C 34.46875 54.960938 35.496094 54.5 36.542969 54.085938 L 36.792969 53.992188 C 38.207031 53.433594 41.976562 51.960938 45.308594 54.480469 L 45.03125 54.835938 C 41.902344 52.476562 38.308594 53.878906 36.957031 54.40625 L 36.703125 54.503906 C 35.6875 54.886719 34.703125 55.363281 33.667969 55.875 C 31.242188 57.058594 28.492188 58.40625 24.613281 58.640625 C 24.269531 58.660156 23.9375 58.671875 23.613281 58.667969 "/>
<path style=" stroke:none;fill-rule:nonzero;fill:rgb(84.313725%,12.156863%,8.627451%);fill-opacity:1;" d="M 7.613281 55.28125 C 6.984375 54.796875 6.460938 54.191406 6.074219 53.5 L 6.488281 53.300781 C 6.847656 53.933594 7.328125 54.492188 7.90625 54.9375 Z M 7.613281 55.28125 "/>
<path style=" stroke:none;fill-rule:nonzero;fill:rgb(84.313725%,12.156863%,8.627451%);fill-opacity:1;" d="M 40.449219 55.378906 L 40.179688 55.019531 C 41.359375 54.167969 41.5 53.261719 41.503906 53.238281 L 41.957031 53.300781 C 41.957031 53.347656 41.789062 54.410156 40.449219 55.375 "/>
<path style=" stroke:none;fill-rule:nonzero;fill:rgb(0%,25.882353%,53.72549%);fill-opacity:1;" d="M 26.785156 13.734375 C 26.714844 13.398438 26.644531 12.980469 26.585938 12.515625 C 26.632812 12.925781 26.699219 13.332031 26.785156 13.734375 "/>
<path style=" stroke:none;fill-rule:nonzero;fill:rgb(0%,25.882353%,53.72549%);fill-opacity:1;" d="M 34.714844 29.972656 L 34.695312 29.917969 L 34.695312 29.957031 L 34.601562 29.765625 C 34.527344 29.605469 34.441406 29.453125 34.34375 29.308594 C 33.773438 28.414062 33.097656 27.59375 32.328125 26.859375 L 32.347656 27.183594 L 32.382812 27.691406 C 32.382812 27.691406 28.53125 25.476562 26.890625 23.433594 C 25.617188 21.851562 24.152344 20.121094 23.292969 18.003906 L 22.972656 17.5 C 21.863281 16.191406 20.707031 16.429688 18.175781 13.535156 C 17.1875 12.273438 16.460938 10.824219 16.046875 9.28125 C 15.4375 6.453125 15.488281 3.527344 16.199219 0.722656 C 16.199219 0.722656 16.519531 -0.203125 14.761719 2.554688 C 13.875 3.949219 13.261719 5.496094 12.960938 7.113281 C 12.808594 7.925781 12.746094 8.75 12.769531 9.574219 C 12.164062 8.371094 11.695312 7.105469 11.375 5.800781 C 10.933594 4.082031 10.789062 2.300781 10.949219 0.53125 C 10.949219 0.53125 10.640625 0.230469 9.578125 3.050781 C 8.570312 5.566406 8.3125 8.316406 8.832031 10.96875 C 6.875 9.328125 6.4375 6.335938 5.785156 3.941406 C 5.777344 3.949219 5.765625 3.960938 5.761719 3.976562 C 5.714844 4.089844 5.6875 4.210938 5.679688 4.332031 C 5.679688 4.503906 5.660156 4.6875 5.660156 4.84375 C 5.421875 7.53125 5.917969 10.234375 7.097656 12.664062 C 7.136719 12.742188 7.167969 12.824219 7.203125 12.902344 C 7.441406 13.402344 7.726562 13.851562 7.980469 14.296875 C 8.40625 15.039062 8.738281 15.21875 9.210938 15.875 C 9.160156 15.875 6.28125 15.265625 5.226562 15.109375 C 6.328125 15.941406 7.375 16.84375 8.359375 17.804688 C 8.359375 17.804688 12.316406 18.121094 15.449219 20.410156 C 13.570312 19.5625 11.5625 19.042969 9.507812 18.875 L 10.078125 19.410156 C 11.003906 20.273438 11.933594 21.128906 12.757812 21.851562 L 10.414062 21.621094 L 13.78125 24.320312 L 14.386719 24.339844 C 15.144531 24.328125 15.898438 24.398438 16.640625 24.550781 C 17.277344 24.679688 17.894531 24.898438 18.46875 25.203125 C 17.667969 25 16.84375 24.929688 16.019531 24.988281 C 15.636719 25.039062 15.257812 25.109375 14.882812 25.199219 L 15.082031 25.355469 L 17.207031 27.050781 L 19.101562 27.101562 C 17.503906 28.085938 15.933594 28.472656 13.921875 27.8125 C 12.839844 27.453125 11.832031 26.90625 10.9375 26.203125 C 11.300781 27.070312 12.121094 27.808594 12.761719 28.464844 C 10.765625 28.316406 8.8125 27.800781 7.003906 26.941406 C 7.5625 27.839844 8.203125 28.683594 8.921875 29.460938 C 9.464844 30.023438 10.066406 30.527344 10.71875 30.960938 C 10.976562 31.113281 12.160156 31.109375 12.945312 31.03125 C 13.089844 31.03125 13.222656 31.003906 13.335938 30.984375 C 13.515625 30.953125 13.738281 30.90625 13.980469 30.851562 C 14.785156 30.667969 15.753906 30.398438 15.699219 30.433594 C 15.332031 30.667969 14.957031 30.886719 14.566406 31.082031 C 14.328125 31.203125 14.085938 31.316406 13.847656 31.441406 C 12.765625 31.945312 11.566406 32.164062 10.375 32.074219 C 11.628906 32.53125 12.933594 32.828125 14.261719 32.964844 C 14.605469 33.03125 14.964844 32.980469 15.277344 32.820312 C 15.867188 32.546875 16.359375 32.324219 16.828125 32.105469 C 17.066406 31.992188 17.304688 31.878906 17.550781 31.75 C 17.878906 31.582031 18.21875 31.394531 18.601562 31.195312 C 18.378906 31.398438 18.160156 31.59375 17.933594 31.78125 L 17.546875 32.097656 C 17.089844 32.457031 16.597656 32.855469 16.042969 33.339844 C 17.539062 33.441406 18.402344 33.695312 20.390625 33.074219 C 20.078125 33.300781 19.753906 33.511719 19.417969 33.703125 L 20.007812 34.847656 L 19.367188 34.5625 L 19.789062 35.339844 C 20 35.59375 20.242188 35.816406 20.507812 36.015625 L 20.652344 36.472656 C 20.308594 36.320312 19.984375 36.125 19.691406 35.890625 C 20.023438 37.210938 20.816406 36.957031 21.042969 37.753906 C 21.199219 38.296875 21.761719 39.265625 21.449219 39.777344 C 21.066406 40.386719 20.8125 40.34375 20.273438 40.824219 C 19.648438 41.378906 20.128906 42.078125 20.273438 42.304688 C 20.363281 41.792969 20.699219 41.359375 21.171875 41.144531 C 21.613281 41.015625 22.132812 41.117188 22.328125 40.921875 C 23.019531 40.238281 24.503906 40.066406 25.535156 40.707031 C 25.054688 39.941406 24.816406 39.96875 23.863281 39.695312 C 25.539062 39.808594 25.664062 40.167969 26.46875 41.125 C 26.535156 40.585938 26.082031 39.898438 25.695312 39.570312 C 25.578125 39.46875 24.257812 39.285156 22.953125 39.171875 C 22.5 39.132812 22.316406 38.554688 22.234375 38.246094 C 22.480469 38.382812 22.753906 38.464844 23.039062 38.476562 C 22.949219 38.027344 22.820312 37.515625 22.746094 37.203125 C 22.914062 37.296875 23.097656 37.347656 23.289062 37.351562 L 23.101562 36.589844 C 23.011719 35.984375 22.8125 35.550781 23.402344 34.625 C 23.625 34.757812 23.832031 34.921875 24.015625 35.109375 C 24.078125 35.410156 24.164062 35.707031 24.273438 35.996094 C 24.296875 36.054688 24.871094 36.542969 24.894531 36.601562 L 23.902344 36.316406 C 24.125 36.785156 24.464844 37.191406 24.886719 37.492188 C 25.199219 37.574219 25.488281 37.722656 25.734375 37.933594 C 25.910156 38.160156 25.988281 38.445312 25.953125 38.730469 C 25.875 38.914062 25.351562 38.136719 24.238281 39.0625 C 25 39.0625 25.90625 39.28125 26.101562 39.507812 C 26.28125 39.757812 26.488281 39.984375 26.722656 40.183594 C 27.527344 40.664062 27.582031 40.898438 27.519531 41.855469 C 28.019531 41.472656 27.878906 40.476562 27.800781 40.238281 C 28.304688 40.886719 28.425781 41.75 28.113281 42.507812 C 28.613281 42.234375 29.195312 41.148438 28.644531 40.292969 C 28.488281 40.152344 27.652344 39.53125 27.488281 39.347656 C 27.066406 38.875 26.964844 38.335938 26.769531 37.792969 C 26.917969 37.792969 27.097656 37.855469 27.242188 37.855469 C 27.167969 37.535156 27.0625 37.117188 26.984375 36.652344 L 26.964844 36.527344 C 26.964844 36.527344 26.964844 36.492188 26.964844 36.472656 C 26.964844 36.457031 26.941406 36.335938 26.929688 36.265625 C 26.929688 36.265625 26.929688 36.230469 26.929688 36.21875 C 26.929688 36.144531 26.929688 36.074219 26.90625 36.003906 C 27.050781 36.097656 27.207031 36.179688 27.367188 36.25 L 26.898438 34.992188 C 26.898438 34.894531 26.910156 34.800781 26.933594 34.707031 C 26.933594 34.621094 26.96875 34.535156 26.988281 34.449219 L 26.988281 34.40625 C 27.007812 34.328125 27.03125 34.253906 27.058594 34.175781 L 27.058594 34.117188 C 27.089844 34.023438 27.125 33.933594 27.167969 33.84375 C 26.957031 34.292969 27.574219 34.9375 27.574219 34.9375 C 27.65625 33.945312 28.546875 33.019531 29.300781 32.683594 C 29.292969 32.867188 29.332031 33.046875 29.417969 33.207031 C 29.621094 32.828125 29.992188 32.566406 30.417969 32.496094 L 31.027344 32.738281 L 31.671875 32.992188 L 31.839844 33.0625 C 31.902344 33.339844 32.039062 33.59375 32.238281 33.796875 C 32.511719 34.015625 32.796875 34.179688 33.484375 34.613281 C 33.398438 34.835938 33.203125 35 32.96875 35.050781 C 33.941406 35.40625 35.167969 34.980469 34.996094 33.941406 C 34.933594 33.585938 34.773438 32.570312 34.773438 32.570312 L 35.003906 31.824219 L 35.070312 31.605469 L 35.070312 31.578125 L 35.101562 31.476562 C 35.082031 30.957031 34.949219 30.449219 34.710938 29.988281 M 31.253906 31.519531 L 30.734375 30.59375 L 29.417969 29.921875 L 30.496094 31.160156 C 29.695312 30.683594 28.824219 30.339844 27.910156 30.136719 C 27.910156 30.136719 28.800781 30.964844 29.226562 31.375 C 29.308594 31.429688 29.324219 31.46875 29.324219 31.46875 L 29.226562 31.375 C 28.890625 31.214844 28.519531 31.136719 28.148438 31.152344 C 27.457031 31.09375 26.785156 30.894531 26.175781 30.570312 C 26.289062 30.722656 26.421875 30.863281 26.570312 30.988281 C 26.898438 31.261719 27.277344 31.46875 27.683594 31.597656 C 27.722656 31.597656 28.214844 31.808594 28.253906 31.824219 C 27.933594 31.949219 27.628906 32.117188 27.351562 32.324219 C 26.921875 32.648438 26.589844 33.085938 26.390625 33.585938 C 26.082031 34.367188 25.800781 35.773438 26.03125 36.582031 C 25.347656 35.671875 24.742188 34.5 25.082031 33.171875 C 24.042969 33.753906 23.367188 33.566406 22.648438 33.457031 C 22.175781 34.1875 21.890625 35.019531 21.816406 35.886719 C 21.753906 35.785156 21.699219 35.683594 21.648438 35.574219 C 21.382812 34.996094 21.234375 34.367188 21.207031 33.730469 C 21.1875 33.496094 21.1875 33.257812 21.207031 33.019531 L 23.585938 31.347656 L 20.125 31.058594 L 20.300781 30.933594 C 21.636719 29.949219 23.261719 29.421875 24.925781 29.4375 C 25.050781 29.4375 25.183594 29.4375 25.308594 29.464844 C 24.226562 28.875 22.382812 28.90625 21.273438 29.246094 C 19.773438 29.710938 19.179688 29.738281 17.570312 29.457031 C 19.253906 29.117188 19.195312 29.070312 20.195312 28.605469 C 21.019531 28.148438 22.578125 27.308594 24.546875 27.667969 C 24.070312 27.4375 23.574219 27.253906 23.066406 27.121094 C 22.238281 26.925781 21.378906 26.914062 20.546875 27.078125 C 21.085938 26.582031 21.769531 26.269531 22.496094 26.179688 C 20.761719 24.632812 15.660156 22.207031 15.660156 22.207031 C 22.925781 23.90625 26.011719 27.285156 26.472656 27.832031 L 26.5625 27.902344 C 25.230469 24.972656 23.03125 22.511719 20.261719 20.835938 C 19.652344 20.457031 18.976562 20.191406 18.351562 19.835938 C 17.378906 19.277344 16.457031 18.640625 15.59375 17.925781 C 7.378906 11.460938 10.433594 2.5625 10.433594 2.5625 C 10.21875 4.550781 10.453125 6.5625 11.125 8.449219 C 11.492188 9.523438 11.945312 10.5625 12.488281 11.558594 C 12.953125 12.421875 13.472656 13.253906 14.039062 14.054688 C 15.046875 15.296875 16.285156 16.335938 17.6875 17.113281 C 17.6875 17.113281 11.484375 12.929688 15.007812 4.007812 C 14.871094 4.390625 12.433594 11.539062 21.59375 17.765625 C 21.769531 17.882812 21.898438 17.878906 21.953125 18.007812 C 23.175781 20.917969 27.867188 25.546875 28.742188 27.773438 C 28.703125 27.316406 28.664062 26.863281 28.621094 26.410156 C 29.15625 26.972656 29.550781 27.652344 29.773438 28.394531 C 29.8125 27.945312 29.851562 27.261719 29.894531 26.8125 C 30.9375 27.429688 31.882812 28.191406 32.707031 29.078125 L 32.679688 29.054688 L 32.589844 28.953125 L 32.628906 28.996094 L 32.648438 29.023438 L 32.703125 29.078125 L 32.664062 28.417969 L 32.644531 28.109375 C 32.644531 28.109375 34.050781 29.816406 34.527344 31.140625 C 34.554688 31.214844 34.578125 31.289062 34.597656 31.359375 C 34.601562 31.628906 34.558594 31.894531 34.472656 32.144531 C 34.394531 32.296875 34.289062 32.433594 34.160156 32.550781 C 34.144531 32.566406 34.125 32.574219 34.105469 32.585938 C 34.171875 32.503906 34.199219 32.402344 34.1875 32.300781 C 34.179688 32.148438 34.152344 31.996094 34.101562 31.847656 C 34.050781 31.691406 33.996094 31.542969 33.945312 31.429688 C 33.894531 31.316406 33.851562 31.21875 33.851562 31.21875 C 33.878906 31.449219 33.871094 31.683594 33.828125 31.914062 C 33.757812 32.21875 33.617188 32.300781 33.578125 32.316406 C 33.578125 32.265625 33.554688 32.21875 33.546875 32.175781 C 33.503906 32.066406 33.460938 31.957031 33.417969 31.847656 C 33.261719 31.457031 32.679688 30.371094 32.492188 29.992188 C 32.324219 30.222656 32.542969 30.761719 32.542969 30.761719 C 32.617188 30.90625 32.792969 31.269531 32.792969 31.269531 C 32.664062 31.628906 32.839844 32.03125 33.191406 32.183594 C 32.984375 32.210938 32.769531 32.167969 32.589844 32.058594 C 32.722656 32.296875 32.894531 32.511719 33.089844 32.703125 C 32.683594 32.601562 31.75 31.867188 31.238281 31.449219 M 33.34375 34.183594 L 32.941406 33.859375 L 32.648438 33.628906 L 32.578125 33.40625 L 32.558594 33.351562 L 32.457031 33.046875 C 32.769531 33.253906 33.027344 33.53125 33.210938 33.855469 C 33.246094 33.914062 33.425781 34.261719 33.425781 34.261719 Z M 34.597656 34.421875 C 34.453125 34.585938 34.269531 34.71875 34.066406 34.800781 C 33.859375 34.902344 33.628906 34.9375 33.402344 34.902344 L 33.457031 34.871094 L 33.496094 34.851562 C 33.964844 34.5625 33.710938 34.019531 33.222656 33.464844 L 32.105469 32.503906 L 32.042969 32.453125 L 32.121094 32.453125 L 32.289062 32.542969 L 32.859375 32.863281 L 32.902344 32.886719 L 33.152344 33.027344 L 33.425781 33.179688 L 34.011719 33.035156 C 34.140625 33.011719 34.261719 32.960938 34.371094 32.886719 C 34.371094 32.925781 34.863281 34.117188 34.578125 34.472656 "/>
<path style=" stroke:none;fill-rule:nonzero;fill:rgb(0%,25.882353%,53.72549%);fill-opacity:1;" d="M 40.492188 7.734375 L 40.550781 7.734375 C 38.992188 7.8125 37.476562 8.277344 36.148438 9.089844 C 37.226562 7.035156 39.558594 5.648438 41.632812 4.835938 C 41.632812 4.835938 41.890625 4.4375 39.382812 4.808594 C 39.058594 4.847656 38.734375 4.898438 38.414062 4.96875 C 37.03125 5.273438 35.730469 5.882812 34.617188 6.753906 C 33.988281 7.242188 33.433594 7.8125 32.960938 8.453125 C 31.734375 10.027344 30.78125 11.792969 30.132812 13.675781 C 30.132812 13.675781 29.828125 10.078125 34.453125 5.332031 C 34.957031 4.492188 35.53125 3.691406 36.167969 2.945312 C 36.167969 2.945312 36.277344 2.40625 33.648438 4.371094 C 31.742188 5.691406 30.125 7.386719 28.894531 9.34375 C 28.464844 10.109375 27.546875 11.820312 27.28125 12.949219 C 27.28125 12.980469 27.28125 13.015625 27.28125 13.050781 C 27.28125 13.082031 27.308594 13.726562 27.433594 14.628906 C 27.582031 15.503906 27.785156 16.371094 28.039062 17.222656 C 27.636719 16.371094 27.289062 15.496094 27 14.601562 C 26.910156 14.289062 26.839844 14 26.78125 13.71875 C 26.742188 13.542969 26.710938 13.363281 26.683594 13.214844 C 26.667969 13.125 26.652344 13.035156 26.640625 12.9375 C 26.617188 12.789062 26.597656 12.644531 26.578125 12.5 C 26.519531 11.972656 26.496094 11.472656 26.488281 10.972656 C 26.488281 10.3125 26.507812 9.714844 26.539062 9.285156 C 25.710938 11.078125 25.257812 13.019531 25.214844 14.988281 C 25.152344 15.527344 25.121094 15.929688 25.097656 16.265625 C 25.570312 17.515625 26.195312 18.707031 26.960938 19.804688 C 26.960938 19.804688 26.066406 19.3125 25.011719 17.488281 C 24.953125 18.015625 24.859375 18.542969 24.734375 19.0625 C 25.726562 20.75 26.886719 22.335938 28.203125 23.792969 L 28.203125 21.402344 C 28.5 21.691406 28.78125 21.996094 29.042969 22.316406 C 29.246094 21.402344 29.496094 20.496094 29.796875 19.609375 C 31.898438 13.410156 34.390625 11.523438 34.390625 11.523438 C 32.097656 15.089844 29.992188 22.253906 30.074219 25.605469 C 30.515625 25.980469 30.914062 26.285156 31.246094 26.511719 C 31.074219 26.269531 30.953125 26 30.886719 25.710938 C 31.558594 22.75 33.007812 20.019531 35.089844 17.792969 C 35.785156 10.929688 43.621094 8.023438 43.621094 8.023438 C 44.257812 7.558594 40.480469 7.726562 40.480469 7.726562 "/>
<path style=" stroke:none;fill-rule:nonzero;fill:rgb(77.254902%,78.039216%,78.431373%);fill-opacity:1;" d="M 7.777344 43.125 L 7.777344 42.015625 L 6.613281 40.851562 L 6.613281 42.152344 C 6.949219 42.644531 7.339844 43.09375 7.777344 43.492188 Z M 7.777344 43.125 "/>
<path style=" stroke:none;fill-rule:nonzero;fill:rgb(77.254902%,78.039216%,78.431373%);fill-opacity:1;" d="M 41.652344 47.265625 L 41.652344 43.382812 C 41.242188 43.699219 40.859375 43.976562 40.492188 44.230469 L 40.492188 45.375 L 39.898438 45.375 L 39.898438 44.617188 C 37.347656 46.285156 36.089844 46.460938 36.089844 46.460938 C 37.449219 45.792969 38.726562 44.972656 39.898438 44.015625 L 39.898438 42.535156 C 37.796875 44.351562 35.445312 45.863281 32.917969 47.027344 C 32.917969 47.101562 32.917969 47.328125 32.917969 47.644531 L 38.285156 47.644531 C 39.398438 47.457031 40.527344 47.386719 41.652344 47.429688 "/>
<path style=" stroke:none;fill-rule:nonzero;fill:rgb(58.823529%,59.607843%,60.392157%);fill-opacity:1;" d="M 36.824219 47.964844 C 36.054688 48.15625 35.304688 48.414062 34.582031 48.734375 L 34.582031 47.964844 Z M 36.824219 47.964844 "/>
<path style=" stroke:none;fill-rule:nonzero;fill:rgb(58.823529%,59.607843%,60.392157%);fill-opacity:1;" d="M 30.082031 51.21875 L 29.34375 51.542969 L 29.34375 49.132812 L 30.066406 49.132812 L 30.066406 51.21875 Z M 30.082031 51.21875 "/>
<path style=" stroke:none;fill-rule:nonzero;fill:rgb(58.823529%,59.607843%,60.392157%);fill-opacity:1;" d="M 29.347656 47.007812 L 30.085938 47.007812 L 30.085938 48.84375 L 29.347656 48.84375 Z M 29.347656 47.007812 "/>
<path style=" stroke:none;fill-rule:nonzero;fill:rgb(58.823529%,59.607843%,60.392157%);fill-opacity:1;" d="M 32.65625 49.707031 L 32.65625 49.132812 L 31.996094 49.132812 L 31.996094 50.234375 L 32.65625 49.847656 Z M 32.65625 49.707031 "/>
<path style=" stroke:none;fill-rule:nonzero;fill:rgb(58.823529%,59.607843%,60.392157%);fill-opacity:1;" d="M 31.984375 47.007812 L 32.640625 47.007812 L 32.640625 48.84375 L 31.984375 48.84375 Z M 31.984375 47.007812 "/>
<path style=" stroke:none;fill-rule:nonzero;fill:rgb(58.823529%,59.607843%,60.392157%);fill-opacity:1;" d="M 30.882812 50.355469 L 30.882812 49.132812 L 30.375 49.132812 L 30.375 51.089844 L 30.882812 50.835938 Z M 30.882812 50.355469 "/>
<path style=" stroke:none;fill-rule:nonzero;fill:rgb(58.823529%,59.607843%,60.392157%);fill-opacity:1;" d="M 30.378906 47.007812 L 30.886719 47.007812 L 30.886719 48.84375 L 30.378906 48.84375 Z M 30.378906 47.007812 "/>
<path style=" stroke:none;fill-rule:nonzero;fill:rgb(58.823529%,59.607843%,60.392157%);fill-opacity:1;" d="M 31.171875 47.007812 L 31.679688 47.007812 L 31.679688 48.84375 L 31.171875 48.84375 Z M 31.171875 47.007812 "/>
<path style=" stroke:none;fill-rule:nonzero;fill:rgb(58.823529%,59.607843%,60.392157%);fill-opacity:1;" d="M 31.679688 50.226562 L 31.679688 49.132812 L 31.171875 49.132812 L 31.171875 50.679688 L 31.679688 50.402344 Z M 31.679688 50.226562 "/>
<path style=" stroke:none;fill-rule:nonzero;fill:rgb(58.823529%,59.607843%,60.392157%);fill-opacity:1;" d="M 29.347656 45.457031 L 32.644531 45.457031 L 32.644531 46.722656 L 29.347656 46.722656 Z M 29.347656 45.457031 "/>
<path style=" stroke:none;fill-rule:nonzero;fill:rgb(58.823529%,59.607843%,60.392157%);fill-opacity:1;" d="M 16.226562 49.90625 L 15.503906 49.546875 L 15.503906 49.125 L 16.226562 49.125 Z M 16.226562 49.90625 "/>
<path style=" stroke:none;fill-rule:nonzero;fill:rgb(58.823529%,59.607843%,60.392157%);fill-opacity:1;" d="M 15.503906 47.007812 L 16.238281 47.007812 L 16.238281 48.84375 L 15.503906 48.84375 Z M 15.503906 47.007812 "/>
<path style=" stroke:none;fill-rule:nonzero;fill:rgb(58.823529%,59.607843%,60.392157%);fill-opacity:1;" d="M 18.117188 50.8125 L 18.789062 51.117188 L 18.789062 49.128906 L 18.117188 49.128906 Z M 18.117188 50.8125 "/>
<path style=" stroke:none;fill-rule:nonzero;fill:rgb(58.823529%,59.607843%,60.392157%);fill-opacity:1;" d="M 18.136719 47.007812 L 18.792969 47.007812 L 18.792969 48.84375 L 18.136719 48.84375 Z M 18.136719 47.007812 "/>
<path style=" stroke:none;fill-rule:nonzero;fill:rgb(58.823529%,59.607843%,60.392157%);fill-opacity:1;" d="M 16.519531 47.007812 L 17.027344 47.007812 L 17.027344 48.84375 L 16.519531 48.84375 Z M 16.519531 47.007812 "/>
<path style=" stroke:none;fill-rule:nonzero;fill:rgb(58.823529%,59.607843%,60.392157%);fill-opacity:1;" d="M 17.332031 47.007812 L 17.832031 47.007812 L 17.832031 48.84375 L 17.332031 48.84375 Z M 17.332031 47.007812 "/>
<path style=" stroke:none;fill-rule:nonzero;fill:rgb(58.823529%,59.607843%,60.392157%);fill-opacity:1;" d="M 15.503906 45.457031 L 18.796875 45.457031 L 18.796875 46.722656 L 15.503906 46.722656 Z M 15.503906 45.457031 "/>
<path style=" stroke:none;fill-rule:nonzero;fill:rgb(58.823529%,59.607843%,60.392157%);fill-opacity:1;" d="M 17.324219 50.4375 L 17.832031 50.6875 L 17.832031 49.132812 L 17.324219 49.132812 Z M 17.324219 50.4375 "/>
<path style=" stroke:none;fill-rule:nonzero;fill:rgb(58.823529%,59.607843%,60.392157%);fill-opacity:1;" d="M 14.703125 49.183594 L 15.210938 49.417969 L 15.210938 47.964844 L 14.699219 47.964844 L 14.699219 49.183594 Z M 14.703125 49.183594 "/>
<path style=" stroke:none;fill-rule:nonzero;fill:rgb(58.823529%,59.607843%,60.392157%);fill-opacity:1;" d="M 16.519531 50.046875 L 16.601562 50.089844 L 17.023438 50.292969 L 17.023438 49.132812 L 16.519531 49.132812 Z M 16.519531 50.046875 "/>
<path style=" stroke:none;fill-rule:nonzero;fill:rgb(77.254902%,78.039216%,78.431373%);fill-opacity:1;" d="M 6.617188 45.894531 L 6.617188 43.398438 C 7.027344 43.710938 7.414062 43.988281 7.777344 44.242188 L 7.777344 45.386719 L 8.371094 45.386719 L 8.371094 44.617188 C 10.917969 46.285156 12.175781 46.460938 12.175781 46.460938 C 10.816406 45.792969 9.539062 44.972656 8.371094 44.015625 L 8.371094 42.535156 C 10.433594 44.316406 12.734375 45.804688 15.207031 46.96875 L 15.207031 47.648438 C 15.207031 47.648438 10.644531 47.667969 10.527344 47.648438 C 9.242188 47.390625 7.921875 47.328125 6.613281 47.46875 "/>
<path style=" stroke:none;fill-rule:nonzero;fill:rgb(58.823529%,59.607843%,60.392157%);fill-opacity:1;" d="M 13.605469 48.714844 C 12.964844 48.453125 12.109375 48.109375 11.628906 47.949219 L 13.605469 47.949219 Z M 13.605469 48.714844 "/>
<path style=" stroke:none;fill-rule:nonzero;fill:rgb(58.823529%,59.607843%,60.392157%);fill-opacity:1;" d="M 13.902344 48.671875 L 13.902344 47.957031 L 14.40625 47.957031 L 14.40625 49.027344 L 13.902344 48.8125 Z M 13.902344 48.671875 "/>
<path style=" stroke:none;fill-rule:nonzero;fill:rgb(58.823529%,59.607843%,60.392157%);fill-opacity:1;" d="M 33.492188 49.132812 L 33.492188 47.964844 L 32.9375 47.964844 L 32.9375 49.671875 L 33.492188 49.316406 Z M 33.492188 49.132812 "/>
<path style=" stroke:none;fill-rule:nonzero;fill:rgb(58.823529%,59.607843%,60.392157%);fill-opacity:1;" d="M 34.292969 48.734375 L 34.292969 47.964844 L 33.785156 47.964844 L 33.785156 49.140625 C 33.941406 49.050781 34.109375 48.960938 34.285156 48.875 Z M 34.292969 48.734375 "/>
<path style=" stroke:none;fill-rule:nonzero;fill:rgb(58.823529%,59.607843%,60.392157%);fill-opacity:1;" d="M 29.058594 46.722656 L 29.058594 45.824219 C 28.984375 43.148438 26.773438 41.015625 24.070312 41.015625 C 21.371094 41.015625 19.160156 43.148438 19.085938 45.824219 L 19.085938 46.722656 L 19.933594 46.722656 C 19.605469 45.074219 20.304688 43.390625 21.714844 42.457031 C 23.125 41.523438 24.960938 41.523438 26.371094 42.457031 C 27.78125 43.390625 28.484375 45.074219 28.152344 46.722656 Z M 29.058594 46.722656 "/>
<path style=" stroke:none;fill-rule:nonzero;fill:rgb(77.254902%,78.039216%,78.431373%);fill-opacity:1;" d="M 41.652344 42.15625 C 41.316406 42.644531 40.929688 43.097656 40.492188 43.496094 L 40.492188 42.015625 L 41.652344 40.851562 Z M 41.652344 42.15625 "/>
<path style=" stroke:none;fill-rule:nonzero;fill:rgb(58.823529%,59.607843%,60.392157%);fill-opacity:1;" d="M 23.234375 50.644531 C 23.171875 50.644531 23.109375 50.667969 23.066406 50.714844 C 23.023438 50.757812 23 50.824219 23.007812 50.886719 C 23 50.945312 23.019531 51.007812 23.066406 51.054688 C 23.109375 51.097656 23.171875 51.117188 23.234375 51.109375 C 23.328125 51.109375 23.417969 51.078125 23.492188 51.019531 C 23.492188 50.785156 23.386719 50.664062 23.234375 50.664062 "/>
<path style=" stroke:none;fill-rule:nonzero;fill:rgb(58.823529%,59.607843%,60.392157%);fill-opacity:1;" d="M 24.496094 50.652344 C 24.320312 50.652344 24.226562 50.820312 24.226562 51.121094 C 24.226562 51.421875 24.320312 51.585938 24.496094 51.585938 C 24.667969 51.585938 24.761719 51.421875 24.761719 51.121094 C 24.761719 50.820312 24.667969 50.652344 24.496094 50.652344 "/>
<path style=" stroke:none;fill-rule:nonzero;fill:rgb(58.823529%,59.607843%,60.392157%);fill-opacity:1;" d="M 28.078125 47.019531 C 27.570312 48.8125 25.921875 50.050781 24.042969 50.050781 C 22.164062 50.050781 20.515625 48.8125 20.007812 47.019531 L 19.085938 47.019531 L 19.085938 51.25 C 20.816406 51.992188 22.546875 52.539062 24.433594 52.539062 L 24.46875 52.539062 C 26.042969 52.53125 27.597656 52.234375 29.058594 51.660156 L 29.058594 47.023438 Z M 28.078125 47.019531 "/>
<path style=" stroke:none;fill-rule:nonzero;fill:rgb(58.823529%,59.607843%,60.392157%);fill-opacity:1;" d="M 5.480469 40.3125 C 5.648438 40.34375 5.816406 40.386719 5.980469 40.433594 L 5.980469 42.652344 C 5.816406 42.601562 5.648438 42.5625 5.480469 42.53125 Z M 5.480469 40.3125 "/>
<path style=" stroke:none;fill-rule:nonzero;fill:rgb(58.823529%,59.607843%,60.392157%);fill-opacity:1;" d="M 5.191406 42.476562 C 5.03125 42.457031 4.859375 42.445312 4.691406 42.441406 L 4.691406 40.226562 L 4.9375 40.226562 L 5.191406 40.25 Z M 5.191406 42.476562 "/>
<path style=" stroke:none;fill-rule:nonzero;fill:rgb(58.823529%,59.607843%,60.392157%);fill-opacity:1;" d="M 3.898438 42.476562 C 4.0625 42.457031 4.226562 42.445312 4.402344 42.441406 L 4.402344 40.226562 C 4.230469 40.226562 4.0625 40.238281 3.898438 40.265625 Z M 3.898438 42.476562 "/>
<path style=" stroke:none;fill-rule:nonzero;fill:rgb(58.823529%,59.607843%,60.392157%);fill-opacity:1;" d="M 3.113281 42.652344 C 3.273438 42.601562 3.441406 42.5625 3.609375 42.53125 L 3.609375 40.3125 C 3.441406 40.34375 3.273438 40.386719 3.113281 40.433594 Z M 3.113281 42.652344 "/>
<path style=" stroke:none;fill-rule:nonzero;fill:rgb(58.823529%,59.607843%,60.392157%);fill-opacity:1;" d="M 2.664062 38.507812 C 2.773438 38.457031 2.886719 38.414062 3 38.375 L 3 38.640625 Z M 2.664062 38.507812 "/>
<path style=" stroke:none;fill-rule:nonzero;fill:rgb(58.823529%,59.607843%,60.392157%);fill-opacity:1;" d="M 4.402344 39.285156 C 4.234375 39.292969 4.066406 39.304688 3.898438 39.328125 L 3.898438 38.171875 C 4.0625 38.148438 4.230469 38.140625 4.402344 38.132812 Z M 4.402344 39.285156 "/>
<path style=" stroke:none;fill-rule:nonzero;fill:rgb(58.823529%,59.607843%,60.392157%);fill-opacity:1;" d="M 5.191406 38.171875 C 5.03125 38.148438 4.859375 38.140625 4.691406 38.136719 L 4.691406 39.289062 C 4.859375 39.296875 5.027344 39.308594 5.191406 39.328125 Z M 5.191406 38.171875 "/>
<path style=" stroke:none;fill-rule:nonzero;fill:rgb(58.823529%,59.607843%,60.392157%);fill-opacity:1;" d="M 5.480469 38.199219 C 5.648438 38.230469 5.816406 38.269531 5.980469 38.320312 L 5.980469 39.476562 C 5.816406 39.425781 5.648438 39.386719 5.480469 39.355469 Z M 5.480469 38.199219 "/>
<path style=" stroke:none;fill-rule:nonzero;fill:rgb(58.823529%,59.607843%,60.392157%);fill-opacity:1;" d="M 3.613281 39.367188 C 3.445312 39.398438 3.277344 39.441406 3.113281 39.488281 L 3.113281 38.335938 C 3.277344 38.285156 3.445312 38.246094 3.613281 38.214844 Z M 3.613281 39.367188 "/>
<path style=" stroke:none;fill-rule:nonzero;fill:rgb(58.823529%,59.607843%,60.392157%);fill-opacity:1;" d="M 6.089844 38.375 C 6.214844 38.414062 6.335938 38.457031 6.453125 38.507812 L 6.089844 38.640625 Z M 6.089844 38.375 "/>
<path style=" stroke:none;fill-rule:nonzero;fill:rgb(58.823529%,59.607843%,60.392157%);fill-opacity:1;" d="M 2.664062 40.605469 C 2.773438 40.554688 2.886719 40.511719 3 40.46875 L 3 40.738281 Z M 2.664062 40.605469 "/>
<path style=" stroke:none;fill-rule:nonzero;fill:rgb(58.823529%,59.607843%,60.392157%);fill-opacity:1;" d="M 6.089844 40.46875 C 6.214844 40.507812 6.335938 40.554688 6.453125 40.605469 L 6.089844 40.738281 Z M 6.089844 40.46875 "/>
<path style=" stroke:none;fill-rule:nonzero;fill:rgb(58.823529%,59.607843%,60.392157%);fill-opacity:1;" d="M 6.4375 37.761719 C 5.230469 37.257812 3.867188 37.257812 2.664062 37.761719 L 2.664062 38.242188 C 3.867188 37.738281 5.230469 37.738281 6.4375 38.242188 Z M 6.4375 37.761719 "/>
<path style=" stroke:none;fill-rule:nonzero;fill:rgb(58.823529%,59.607843%,60.392157%);fill-opacity:1;" d="M 6.4375 39.875 C 5.230469 39.371094 3.867188 39.371094 2.664062 39.875 L 2.664062 40.339844 C 3.867188 39.835938 5.230469 39.835938 6.4375 40.339844 Z M 6.4375 39.875 "/>
<path style=" stroke:none;fill-rule:nonzero;fill:rgb(58.823529%,59.607843%,60.392157%);fill-opacity:1;" d="M 6.4375 37.550781 C 5.230469 37.046875 3.867188 37.046875 2.664062 37.550781 L 4.160156 36.125 C 4.285156 36.125 4.417969 36.125 4.546875 36.125 C 4.679688 36.125 4.8125 36.125 4.9375 36.125 Z M 6.4375 37.550781 "/>
<path style=" stroke:none;fill-rule:nonzero;fill:rgb(58.823529%,59.607843%,60.392157%);fill-opacity:1;" d="M 4.160156 35.738281 L 4.160156 35.972656 C 4.285156 35.972656 4.417969 35.972656 4.546875 35.972656 C 4.679688 35.972656 4.808594 35.972656 4.9375 35.972656 L 4.9375 35.738281 C 4.9375 35.648438 4.742188 35.648438 4.691406 35.648438 L 4.402344 35.648438 C 4.351562 35.648438 4.160156 35.648438 4.160156 35.738281 "/>
<path style=" stroke:none;fill-rule:nonzero;fill:rgb(58.823529%,59.607843%,60.392157%);fill-opacity:1;" d="M 5.980469 45.058594 C 5.816406 45.007812 5.648438 44.96875 5.480469 44.9375 L 5.480469 42.78125 C 5.648438 42.8125 5.816406 42.851562 5.980469 42.902344 Z M 5.980469 45.058594 "/>
<path style=" stroke:none;fill-rule:nonzero;fill:rgb(58.823529%,59.607843%,60.392157%);fill-opacity:1;" d="M 5.191406 44.890625 C 5.03125 44.871094 4.859375 44.859375 4.691406 44.855469 L 4.691406 42.699219 C 4.859375 42.699219 5.03125 42.699219 5.191406 42.734375 Z M 5.191406 44.890625 "/>
<path style=" stroke:none;fill-rule:nonzero;fill:rgb(58.823529%,59.607843%,60.392157%);fill-opacity:1;" d="M 4.402344 44.851562 C 4.234375 44.855469 4.066406 44.871094 3.898438 44.890625 L 3.898438 42.734375 C 4.0625 42.714844 4.230469 42.699219 4.402344 42.695312 Z M 4.402344 44.851562 "/>
<path style=" stroke:none;fill-rule:nonzero;fill:rgb(58.823529%,59.607843%,60.392157%);fill-opacity:1;" d="M 3.613281 44.933594 C 3.445312 44.964844 3.277344 45.003906 3.113281 45.054688 L 3.113281 42.898438 C 3.277344 42.847656 3.445312 42.808594 3.613281 42.777344 Z M 3.613281 44.933594 "/>
<path style=" stroke:none;fill-rule:nonzero;fill:rgb(58.823529%,59.607843%,60.392157%);fill-opacity:1;" d="M 44.675781 40.3125 C 44.84375 40.34375 45.011719 40.386719 45.175781 40.433594 L 45.175781 42.652344 C 45.011719 42.601562 44.84375 42.5625 44.675781 42.53125 Z M 44.675781 40.3125 "/>
<path style=" stroke:none;fill-rule:nonzero;fill:rgb(58.823529%,59.607843%,60.392157%);fill-opacity:1;" d="M 44.386719 42.476562 C 44.226562 42.457031 44.058594 42.445312 43.886719 42.441406 L 43.886719 40.226562 L 44.132812 40.226562 L 44.386719 40.25 Z M 44.386719 42.476562 "/>
<path style=" stroke:none;fill-rule:nonzero;fill:rgb(58.823529%,59.607843%,60.392157%);fill-opacity:1;" d="M 43.09375 42.476562 C 43.253906 42.457031 43.417969 42.445312 43.59375 42.441406 L 43.59375 40.226562 C 43.421875 40.226562 43.253906 40.238281 43.09375 40.265625 Z M 43.09375 42.476562 "/>
<path style=" stroke:none;fill-rule:nonzero;fill:rgb(58.823529%,59.607843%,60.392157%);fill-opacity:1;" d="M 42.308594 42.652344 C 42.46875 42.601562 42.636719 42.5625 42.804688 42.53125 L 42.804688 40.3125 C 42.636719 40.34375 42.46875 40.386719 42.308594 40.433594 Z M 42.308594 42.652344 "/>
<path style=" stroke:none;fill-rule:nonzero;fill:rgb(58.823529%,59.607843%,60.392157%);fill-opacity:1;" d="M 41.859375 38.507812 C 41.96875 38.457031 42.082031 38.414062 42.195312 38.375 L 42.195312 38.640625 Z M 41.859375 38.507812 "/>
<path style=" stroke:none;fill-rule:nonzero;fill:rgb(58.823529%,59.607843%,60.392157%);fill-opacity:1;" d="M 43.597656 39.285156 C 43.429688 39.292969 43.261719 39.304688 43.097656 39.328125 L 43.097656 38.171875 C 43.257812 38.148438 43.425781 38.140625 43.597656 38.132812 Z M 43.597656 39.285156 "/>
<path style=" stroke:none;fill-rule:nonzero;fill:rgb(58.823529%,59.607843%,60.392157%);fill-opacity:1;" d="M 44.386719 38.171875 C 44.226562 38.148438 44.058594 38.140625 43.886719 38.136719 L 43.886719 39.289062 C 44.054688 39.296875 44.222656 39.308594 44.386719 39.328125 Z M 44.386719 38.171875 "/>
<path style=" stroke:none;fill-rule:nonzero;fill:rgb(58.823529%,59.607843%,60.392157%);fill-opacity:1;" d="M 44.675781 38.199219 C 44.84375 38.230469 45.011719 38.269531 45.175781 38.320312 L 45.175781 39.476562 C 45.011719 39.425781 44.84375 39.386719 44.675781 39.355469 Z M 44.675781 38.199219 "/>
<path style=" stroke:none;fill-rule:nonzero;fill:rgb(58.823529%,59.607843%,60.392157%);fill-opacity:1;" d="M 42.808594 39.367188 C 42.640625 39.398438 42.472656 39.441406 42.308594 39.488281 L 42.308594 38.335938 C 42.472656 38.285156 42.640625 38.246094 42.808594 38.214844 Z M 42.808594 39.367188 "/>
<path style=" stroke:none;fill-rule:nonzero;fill:rgb(58.823529%,59.607843%,60.392157%);fill-opacity:1;" d="M 45.289062 38.375 C 45.410156 38.414062 45.53125 38.457031 45.648438 38.507812 L 45.289062 38.640625 Z M 45.289062 38.375 "/>
<path style=" stroke:none;fill-rule:nonzero;fill:rgb(58.823529%,59.607843%,60.392157%);fill-opacity:1;" d="M 41.859375 40.605469 C 41.96875 40.554688 42.082031 40.511719 42.195312 40.46875 L 42.195312 40.738281 Z M 41.859375 40.605469 "/>
<path style=" stroke:none;fill-rule:nonzero;fill:rgb(58.823529%,59.607843%,60.392157%);fill-opacity:1;" d="M 45.289062 40.46875 C 45.40625 40.511719 45.519531 40.554688 45.648438 40.605469 L 45.289062 40.738281 Z M 45.289062 40.46875 "/>
<path style=" stroke:none;fill-rule:nonzero;fill:rgb(58.823529%,59.607843%,60.392157%);fill-opacity:1;" d="M 45.632812 37.761719 C 44.425781 37.257812 43.066406 37.257812 41.859375 37.761719 L 41.859375 38.242188 C 43.0625 37.738281 44.425781 37.738281 45.632812 38.242188 Z M 45.632812 37.761719 "/>
<path style=" stroke:none;fill-rule:nonzero;fill:rgb(58.823529%,59.607843%,60.392157%);fill-opacity:1;" d="M 45.632812 39.875 C 44.425781 39.371094 43.066406 39.371094 41.859375 39.875 L 41.859375 40.339844 C 43.066406 39.835938 44.425781 39.835938 45.632812 40.339844 Z M 45.632812 39.875 "/>
<path style=" stroke:none;fill-rule:nonzero;fill:rgb(58.823529%,59.607843%,60.392157%);fill-opacity:1;" d="M 45.632812 37.550781 C 44.425781 37.046875 43.066406 37.046875 41.859375 37.550781 L 43.355469 36.125 C 43.480469 36.125 43.613281 36.125 43.742188 36.125 C 43.875 36.125 44.007812 36.125 44.132812 36.125 Z M 45.632812 37.550781 "/>
<path style=" stroke:none;fill-rule:nonzero;fill:rgb(58.823529%,59.607843%,60.392157%);fill-opacity:1;" d="M 43.355469 35.738281 L 43.355469 35.972656 C 43.480469 35.972656 43.609375 35.972656 43.742188 35.972656 C 43.875 35.972656 44.007812 35.972656 44.132812 35.972656 L 44.132812 35.738281 C 44.132812 35.648438 43.9375 35.648438 43.886719 35.648438 L 43.597656 35.648438 C 43.546875 35.648438 43.355469 35.648438 43.355469 35.738281 "/>
<path style=" stroke:none;fill-rule:nonzero;fill:rgb(58.823529%,59.607843%,60.392157%);fill-opacity:1;" d="M 45.175781 45.058594 C 45.011719 45.007812 44.84375 44.96875 44.675781 44.9375 L 44.675781 42.78125 C 44.84375 42.8125 45.011719 42.851562 45.175781 42.902344 Z M 45.175781 45.058594 "/>
<path style=" stroke:none;fill-rule:nonzero;fill:rgb(58.823529%,59.607843%,60.392157%);fill-opacity:1;" d="M 44.386719 44.890625 C 44.226562 44.871094 44.058594 44.859375 43.886719 44.855469 L 43.886719 42.699219 C 44.058594 42.699219 44.222656 42.710938 44.386719 42.734375 Z M 44.386719 44.890625 "/>
<path style=" stroke:none;fill-rule:nonzero;fill:rgb(58.823529%,59.607843%,60.392157%);fill-opacity:1;" d="M 43.597656 44.851562 C 43.429688 44.855469 43.261719 44.871094 43.097656 44.890625 L 43.097656 42.734375 C 43.257812 42.714844 43.425781 42.699219 43.597656 42.695312 Z M 43.597656 44.851562 "/>
<path style=" stroke:none;fill-rule:nonzero;fill:rgb(58.823529%,59.607843%,60.392157%);fill-opacity:1;" d="M 42.808594 44.933594 C 42.640625 44.964844 42.472656 45.003906 42.308594 45.054688 L 42.308594 42.898438 C 42.472656 42.847656 42.640625 42.808594 42.808594 42.777344 Z M 42.808594 44.933594 "/>
<path style=" stroke:none;fill-rule:nonzero;fill:rgb(58.823529%,59.607843%,60.392157%);fill-opacity:1;" d="M 45.175781 48.089844 C 45.011719 48.03125 44.84375 47.976562 44.671875 47.925781 C 44.671875 47.792969 44.671875 46.855469 44.671875 46.855469 L 44.671875 45.195312 C 44.671875 45.195312 45.015625 45.269531 45.171875 45.316406 L 45.171875 48.082031 Z M 44.386719 47.847656 C 44.222656 47.804688 44.054688 47.761719 43.882812 47.726562 C 43.882812 47.597656 43.882812 46.945312 43.882812 46.945312 L 43.882812 45.117188 C 43.882812 45.117188 44.222656 45.117188 44.382812 45.152344 L 44.382812 47.84375 Z M 43.601562 46.945312 L 43.601562 45.117188 C 43.429688 45.117188 43.101562 45.152344 43.101562 45.152344 L 43.101562 46.933594 C 43.101562 46.933594 43.101562 47.40625 43.101562 47.574219 C 43.277344 47.597656 43.445312 47.628906 43.617188 47.660156 M 42.820312 47.03125 L 42.820312 45.1875 C 42.648438 45.21875 42.320312 45.308594 42.320312 45.308594 L 42.320312 47.222656 C 42.320312 47.222656 42.320312 47.261719 42.320312 47.480469 L 42.820312 47.535156 M 5.980469 46.757812 L 5.980469 45.332031 C 5.820312 45.28125 5.480469 45.210938 5.480469 45.210938 L 5.480469 47.613281 L 5.980469 47.535156 Z M 5.191406 45.164062 C 5.03125 45.140625 4.691406 45.128906 4.691406 45.128906 L 4.691406 46.828125 C 4.691406 46.828125 4.691406 47.621094 4.691406 47.761719 L 5.191406 47.660156 Z M 4.402344 47.824219 L 3.898438 47.949219 C 3.898438 47.832031 3.898438 46.828125 3.898438 46.828125 L 3.898438 45.164062 C 3.898438 45.164062 4.222656 45.128906 4.398438 45.128906 L 4.398438 46.828125 Z M 3.605469 48.03125 L 3.113281 48.175781 C 3.113281 47.886719 3.113281 47.105469 3.113281 47.105469 L 3.113281 45.332031 C 3.113281 45.332031 3.4375 45.242188 3.613281 45.210938 L 3.613281 48.03125 Z M 3.605469 48.03125 "/>
<path style=" stroke:none;fill-rule:nonzero;fill:rgb(84.313725%,12.156863%,8.627451%);fill-opacity:1;" d="M 22.433594 47.316406 C 22.980469 47.609375 23.566406 47.816406 24.179688 47.929688 L 24.203125 47.929688 C 24.273438 47.929688 24.332031 47.875 24.335938 47.804688 C 24.351562 47.269531 24.285156 46.734375 24.136719 46.222656 C 24.125 46.183594 24.097656 46.15625 24.0625 46.140625 C 23.308594 45.796875 22.613281 45.34375 21.996094 44.796875 C 21.660156 44.496094 21.386719 44.132812 21.191406 43.726562 C 21.171875 43.683594 21.128906 43.652344 21.082031 43.648438 C 21.035156 43.644531 20.988281 43.664062 20.960938 43.703125 C 20.675781 44.113281 20.46875 44.574219 20.359375 45.058594 C 20.351562 45.085938 20.351562 45.113281 20.359375 45.140625 C 20.785156 46.070312 21.511719 46.832031 22.421875 47.308594 "/>
<path style=" stroke:none;fill-rule:nonzero;fill:rgb(84.313725%,12.156863%,8.627451%);fill-opacity:1;" d="M 22.175781 44.589844 C 22.203125 44.613281 22.234375 44.625 22.269531 44.625 C 22.308594 44.621094 22.34375 44.601562 22.367188 44.570312 C 23.042969 43.585938 24.050781 42.871094 25.210938 42.554688 C 25.269531 42.539062 25.308594 42.488281 25.3125 42.429688 C 25.3125 42.371094 25.273438 42.316406 25.21875 42.300781 C 23.863281 41.863281 22.375 42.21875 21.367188 43.214844 C 21.335938 43.25 21.320312 43.296875 21.332031 43.339844 C 21.484375 43.828125 21.773438 44.257812 22.164062 44.589844 "/>
<path style=" stroke:none;fill-rule:nonzero;fill:rgb(84.313725%,12.156863%,8.627451%);fill-opacity:1;" d="M 22.582031 44.761719 C 22.539062 44.820312 22.550781 44.902344 22.605469 44.945312 C 23.074219 45.296875 23.578125 45.605469 24.105469 45.859375 C 24.160156 45.882812 24.226562 45.871094 24.265625 45.824219 C 25.042969 44.957031 26.105469 44.386719 27.265625 44.214844 C 27.308594 44.207031 27.347656 44.179688 27.367188 44.140625 C 27.386719 44.101562 27.382812 44.054688 27.363281 44.019531 C 27.070312 43.503906 26.65625 43.066406 26.160156 42.742188 C 26.140625 42.726562 26.113281 42.71875 26.089844 42.71875 C 25.59375 42.722656 25.101562 42.832031 24.648438 43.039062 C 23.8125 43.421875 23.09375 44.015625 22.566406 44.765625 "/>
<path style=" stroke:none;fill-rule:nonzero;fill:rgb(84.313725%,12.156863%,8.627451%);fill-opacity:1;" d="M 27.597656 44.539062 C 27.574219 44.480469 27.515625 44.445312 27.457031 44.453125 C 27.164062 44.488281 26.875 44.546875 26.597656 44.636719 C 26.5625 44.644531 26.535156 44.667969 26.519531 44.699219 C 26.5 44.730469 26.5 44.769531 26.511719 44.800781 C 26.679688 45.328125 26.78125 45.871094 26.808594 46.421875 C 26.828125 46.855469 26.789062 47.285156 26.691406 47.707031 C 26.628906 47.96875 26.535156 48.226562 26.421875 48.46875 C 26.398438 48.507812 26.402344 48.554688 26.425781 48.59375 C 26.449219 48.632812 26.492188 48.65625 26.539062 48.65625 C 26.570312 48.65625 26.605469 48.644531 26.628906 48.621094 C 27.039062 48.246094 27.359375 47.785156 27.566406 47.273438 C 27.925781 46.398438 27.9375 45.421875 27.597656 44.539062 "/>
<path style=" stroke:none;fill-rule:nonzero;fill:rgb(84.313725%,12.156863%,8.627451%);fill-opacity:1;" d="M 24.25 48.253906 C 24.230469 48.226562 24.199219 48.207031 24.164062 48.199219 C 23.5625 48.089844 22.980469 47.894531 22.4375 47.621094 C 21.664062 47.238281 21.003906 46.664062 20.519531 45.957031 C 20.484375 45.90625 20.421875 45.886719 20.367188 45.902344 C 20.308594 45.921875 20.269531 45.976562 20.273438 46.035156 C 20.292969 46.484375 20.390625 46.925781 20.570312 47.335938 C 21.097656 48.570312 22.246094 49.429688 23.589844 49.589844 C 23.625 49.589844 23.664062 49.574219 23.6875 49.542969 C 23.980469 49.203125 24.175781 48.789062 24.253906 48.351562 C 24.261719 48.316406 24.253906 48.28125 24.230469 48.25 "/>
<path style=" stroke:none;fill-rule:nonzero;fill:rgb(84.313725%,12.156863%,8.627451%);fill-opacity:1;" d="M 26.261719 44.910156 C 26.25 44.875 26.222656 44.847656 26.1875 44.832031 C 26.15625 44.816406 26.117188 44.816406 26.082031 44.832031 C 25.449219 45.113281 24.882812 45.523438 24.425781 46.042969 C 24.398438 46.078125 24.390625 46.121094 24.402344 46.164062 C 24.53125 46.605469 24.605469 47.058594 24.617188 47.519531 C 24.628906 47.878906 24.59375 48.238281 24.503906 48.589844 C 24.433594 48.886719 24.308594 49.167969 24.144531 49.425781 C 24.121094 49.46875 24.121094 49.523438 24.144531 49.566406 C 24.171875 49.605469 24.214844 49.628906 24.261719 49.628906 C 24.648438 49.605469 25.027344 49.523438 25.390625 49.386719 C 25.40625 49.382812 25.421875 49.371094 25.433594 49.359375 C 25.820312 49 26.117188 48.554688 26.300781 48.0625 C 26.460938 47.621094 26.539062 47.15625 26.539062 46.6875 C 26.539062 46.082031 26.445312 45.480469 26.257812 44.90625 "/>
<path style=" stroke:none;fill-rule:nonzero;fill:rgb(100%,100%,100%);fill-opacity:1;" d="M 22.550781 51.820312 L 22.550781 50.703125 L 22.269531 50.808594 L 22.242188 50.605469 L 22.582031 50.449219 L 22.8125 50.449219 L 22.8125 51.820312 Z M 22.550781 51.820312 "/>
<path style=" stroke:none;fill-rule:nonzero;fill:rgb(100%,100%,100%);fill-opacity:1;" d="M 23.109375 50.789062 C 23.109375 50.570312 23.300781 50.433594 23.578125 50.433594 C 23.855469 50.433594 24.035156 50.578125 24.035156 50.789062 C 24.027344 50.929688 23.941406 51.054688 23.8125 51.117188 C 23.96875 51.164062 24.078125 51.308594 24.082031 51.472656 C 24.082031 51.695312 23.886719 51.859375 23.574219 51.859375 C 23.261719 51.859375 23.066406 51.683594 23.066406 51.476562 C 23.082031 51.316406 23.183594 51.179688 23.332031 51.121094 C 23.203125 51.066406 23.117188 50.941406 23.113281 50.804688 M 23.316406 51.460938 C 23.316406 51.589844 23.425781 51.667969 23.578125 51.667969 C 23.726562 51.667969 23.828125 51.59375 23.828125 51.472656 C 23.828125 51.351562 23.75 51.296875 23.511719 51.203125 C 23.402344 51.246094 23.324219 51.347656 23.3125 51.464844 M 23.789062 50.804688 C 23.789062 50.699219 23.707031 50.632812 23.570312 50.632812 C 23.433594 50.632812 23.355469 50.707031 23.355469 50.804688 C 23.355469 50.898438 23.425781 50.960938 23.625 51.039062 C 23.71875 50.996094 23.78125 50.90625 23.789062 50.804688 "/>
<path style=" stroke:none;fill-rule:nonzero;fill:rgb(100%,100%,100%);fill-opacity:1;" d="M 24.847656 50.96875 C 24.960938 50.960938 25.070312 51.003906 25.148438 51.082031 C 25.226562 51.164062 25.265625 51.273438 25.253906 51.382812 C 25.253906 51.511719 25.203125 51.632812 25.109375 51.722656 C 25.015625 51.808594 24.890625 51.855469 24.761719 51.847656 C 24.460938 51.847656 24.25 51.648438 24.25 51.269531 C 24.25 50.835938 24.582031 50.472656 25.019531 50.429688 L 25.050781 50.644531 C 24.800781 50.671875 24.585938 50.839844 24.503906 51.078125 C 24.609375 51.003906 24.734375 50.96875 24.863281 50.972656 M 24.777344 51.648438 C 24.84375 51.652344 24.910156 51.625 24.957031 51.578125 C 25.003906 51.53125 25.027344 51.46875 25.019531 51.402344 C 25.027344 51.335938 25.007812 51.273438 24.957031 51.226562 C 24.910156 51.179688 24.84375 51.160156 24.777344 51.171875 C 24.679688 51.171875 24.582031 51.207031 24.503906 51.269531 C 24.503906 51.511719 24.617188 51.648438 24.777344 51.648438 "/>
<path style=" stroke:none;fill-rule:nonzero;fill:rgb(100%,100%,100%);fill-opacity:1;" d="M 25.640625 51.820312 L 25.640625 50.703125 L 25.359375 50.808594 L 25.328125 50.605469 L 25.671875 50.449219 L 25.902344 50.449219 L 25.902344 51.820312 Z M 25.640625 51.820312 "/>
</g>
</svg>
