<svg width="2200" height="2500" viewBox="0 0 2200 2500" fill="none" xmlns="http://www.w3.org/2000/svg">
<g clip-path="url(#clip0_290_1211)">
<path d="M698.84 1979.92C698.84 1979.92 392.906 1839.64 243.884 1624.42C243.884 1809.2 234.559 2039.8 234.559 2039.8L702.965 2123.84L698.84 1979.92Z" fill="white"/>
<path d="M1507.25 1983.72C1507.25 1983.72 1813.37 1854.52 1962.39 1639.47C1962.39 1824.25 1971.54 2040.12 1971.54 2040.12L1503.13 2124.16L1507.25 1983.72Z" fill="white"/>
<path d="M696.707 1914.17H1510.68V2253.45H696.707V1914.17Z" fill="white"/>
<path d="M1345.7 1939.08C1347.13 2028.57 1289.03 2109.96 1198.83 2145.03C1108.81 2180.1 1004.26 2161.9 934.678 2099.04C864.919 2036.18 843.579 1941.06 880.879 1858.19C918 1775.31 1006.23 1721.22 1104.32 1721.22C1236.85 1720.39 1344.8 1817.99 1345.7 1939.08Z" fill="white"/>
<path d="M131.442 2052.92V1734.48L110.46 1727.37V1684.36L131.442 1675.92V1645.81L110.46 1638.7V1587.25L178.964 1528.2V1514.14C181.116 1506.03 189.723 1500.74 198.69 1501.73H218.954C218.954 1501.73 235.452 1503.88 235.452 1514.14V1527.2L305.569 1587.58V1639.03L284.588 1645.81V1675.92L305.928 1684.19V2022.65L131.442 2052.92Z" fill="white"/>
<path d="M2082.88 2053V1734.56L2103.68 1727.44V1684.43L2082.88 1676V1645.89L2103.68 1638.78V1587.33L2035.36 1528.44V1514.54C2033.03 1506.44 2024.6 1501.14 2015.45 1502.14H1995.37C1995.37 1502.14 1978.87 1504.12 1978.87 1514.54V1527.61L1908.75 1587.99V1639.27L1929.55 1646.05V1676.33L1908.21 1684.6V2023.05L2082.88 2053Z" fill="white"/>
<path d="M1083.32 2500C914.034 2500 805.899 2447.06 691.846 2391.15C629.26 2358.4 563.626 2330.77 495.84 2308.44C288.536 2244.59 151.888 2323.49 146.15 2325.97L118.533 2287.1C124.989 2283.13 280.287 2193.14 511.98 2264.27C582.456 2287.43 650.78 2316.05 715.876 2350.13C833.515 2407.69 944.52 2462.28 1127.26 2452.19C1298.16 2442.76 1415.62 2389.66 1529.13 2338.22C1577.55 2316.38 1623.28 2295.7 1671.88 2279.16L1682.99 2275.19C1743.79 2253.19 1928.85 2186.52 2088.46 2297.69L2057.79 2334.58C1920.78 2239.29 1761.54 2296.7 1701.64 2318.37L1689.63 2322.5C1643.54 2337.72 1598.89 2358.73 1551.55 2379.9C1438.93 2430.85 1311.43 2488.59 1130.12 2498.51C1113.98 2499.34 1098.2 2499.83 1083.14 2499.83" fill="white"/>
<path d="M1989.65 2415.93L1953.6 2394.92C1937.46 2388.8 1919.89 2387.15 1902.85 2390.29L1891.02 2392.44C1873.08 2396.08 1850.67 2400.55 1833.27 2387.81C1822.16 2379.37 1816.06 2366.8 1816.78 2353.57C1816.6 2339.84 1823.59 2326.6 1835.6 2318.17C1875.24 2289.88 1972.79 2309.73 2000.77 2316.35C2015.11 2320.98 2030.71 2321.31 2045.42 2317.5C2052.59 2243.73 2079.85 2172.76 2124.86 2111.22C1944.82 2011.64 1669.01 2065.9 1565.9 2126.28C1411.85 2216.93 1283.45 2272.01 1119.73 2272.51C980.029 2272.51 861.314 2220.24 736.322 2164.16C664.412 2130.25 590.349 2100.8 514.134 2075.99C346.821 2024.71 156.374 2082.44 84.643 2108.91C129.116 2166.14 154.402 2233.97 156.912 2304.11C160.858 2308.57 182.018 2309.73 200.848 2305.76C230.616 2300.13 328.888 2284.75 367.085 2314.69C378.562 2323.79 384.659 2337.19 383.583 2350.92C383.942 2363.99 377.307 2376.23 366.188 2384.34C348.076 2396.25 325.84 2390.79 307.907 2386.49C303.962 2385.33 300.016 2384.5 296.43 2383.67C279.573 2379.7 261.819 2380.53 245.5 2385.99L209.097 2405.34L207.662 2351.58C193.137 2354.06 151.891 2359.36 126.247 2341.49C113.874 2333.22 106.521 2319.99 106.162 2305.92C104.548 2236.12 76.2145 2168.95 25.8233 2116.35L0 2093.36L32.9964 2078.3C43.7561 2073.34 301.272 1960.69 531.529 2031.32C609.716 2056.8 685.931 2087.07 759.814 2121.81C878.888 2175.24 991.148 2225.53 1119.19 2225.53H1120.8C1272.51 2225.53 1393.74 2171.93 1540.07 2086.57C1661.12 2016.1 1977.45 1955.56 2177.4 2086.57L2200 2101.63L2181.89 2120.82C2133.47 2179.05 2104.24 2248.52 2097.24 2321.31C2096.35 2335.37 2088.28 2348.27 2075.55 2356.05C2049.36 2372.59 2009.37 2365.81 1992.88 2362.5L1989.65 2415.93Z" fill="white"/>
<path d="M364.744 2314.61C351.294 2302.37 339.279 2288.97 328.878 2274.41C308.076 2240.83 145.425 2307.16 145.425 2307.16L189.899 2315.93" fill="white"/>
<path d="M1830.24 2323.62C1844.05 2311.71 1856.42 2298.48 1867.18 2284.25C1888.88 2251 2049.74 2320.98 2049.74 2320.98L2005.08 2328.75" fill="white"/>
<path d="M126.598 2315.99C126.598 2315.99 123.012 2224.51 100.596 2184.15C86.608 2158.18 76.0276 2130.88 69.2131 2102.76C69.2131 2102.76 205.682 2039.9 294.629 2038.41C383.396 2036.92 604.688 2071.99 673.55 2106.73C742.412 2141.47 928.375 2234.6 1024.67 2253.63C1120.97 2272.65 1280.22 2249.99 1379.57 2212.6C1479.09 2175.22 1545.8 2110.7 1586.15 2094.16C1626.5 2077.78 1756.69 2034.94 1844.2 2027.66C1931.72 2020.38 2037.16 2053.14 2096.52 2063.39C2155.7 2073.65 2147.09 2093.66 2147.09 2093.66L2075.9 2301.93C2075.9 2301.93 1961.84 2266.53 1885.09 2264.38C1808.52 2262.23 1678.33 2315 1637.26 2328.73C1596.37 2342.46 1419.56 2410.12 1362.53 2430.63C1305.32 2451.14 1112.37 2498.29 1002.26 2475.96C892.33 2453.62 678.75 2354.21 622.262 2329.06C565.953 2303.75 364.388 2242.88 337.488 2254.46C310.589 2266.04 125.522 2316.32 125.522 2316.32" fill="white"/>
<path d="M2031.62 333.493C2027.67 322.244 2006.51 313.477 1921.33 313.477C1888.33 313.477 1857.31 314.635 1856.95 314.635C1855.52 314.469 1854.26 314.469 1853.01 314.635C1801.72 317.778 1751.51 328.861 1704.34 347.388C1764.6 280.888 1858.57 239.202 1915.41 218.689C1920.25 217.2 1924.56 214.719 1928.5 211.576C1931.19 207.771 1935.86 204.132 1931.91 197.681C1925.28 186.597 1898.91 183.785 1882.42 183.785C1856.23 184.281 1830.23 186.597 1804.59 190.567C1789.17 192.056 1773.74 194.372 1758.68 197.515H1756.71C1691.43 210.749 1630.28 237.217 1577.56 274.933C1570.21 280.227 1563.39 285.686 1556.58 291.145L1598.18 226.464C1619.7 194.041 1644.09 163.107 1670.81 133.993C1672.6 132.173 1673.86 130.023 1674.4 127.541C1675.29 122.909 1681.39 115.465 1677.8 112.488C1674.04 108.352 1668.3 106.036 1662.38 106.202C1654.85 106.202 1629.38 108.518 1534.52 174.852C1445.03 231.923 1369.18 305.206 1311.79 390.068C1289.2 427.122 1249.75 495.773 1236.66 543.746C1236.66 538.948 1235.04 534.151 1234.5 528.692C1232.17 509.338 1230.74 489.322 1230.38 465.501C1230.38 436.882 1231.45 411.407 1232.71 395.03C1232.71 388.248 1231.99 372.036 1224.46 370.382C1217.11 368.728 1205.99 382.127 1203.12 388.248C1167.79 460.042 1146.81 537.129 1141.61 615.705L1125.11 758.299C1123.14 768.059 1115.07 815.536 1115.07 815.536C1102.7 797.008 1092.12 777.488 1083.15 757.472C1082.79 756.811 1082.43 755.983 1081.89 755.322L1067.19 733.982L1065.93 732.328C1045.85 711.485 1021.82 694.281 995.1 681.212C937.894 650.774 887.144 611.238 845.361 564.424C801.425 512.646 769.326 453.425 750.855 390.233C723.418 272.948 725.749 151.362 757.49 35.0697C761.256 26.4677 761.615 16.8732 758.566 8.10572C755.517 4.13557 750.496 1.98508 745.296 1.98508C735.433 1.98508 726.287 9.92538 664.06 100.577C622.635 160.791 594.301 227.788 580.314 297.762C577.444 312.98 575.113 328.034 573.678 343.087C558.973 310.003 547.138 275.926 537.813 241.352C518.087 170.055 511.631 96.2763 518.804 22.9938C518.804 18.8582 520.239 7.94031 517.011 4.301C513.603 1.48881 509.3 0 504.816 0C491.008 0 469.847 16.046 425.912 123.406C385.025 218.028 370.679 320.59 383.77 421.498C336.427 365.089 314.908 285.686 295.719 214.057C290.878 196.192 286.394 178.822 281.373 162.28C278.863 154.009 272.227 133.662 263.978 137.467L262.364 138.459H261.468L260.392 139.286C258.778 140.775 252.681 158.475 251.605 160.295C248.377 166.912 246.583 174.025 246.225 181.304C246.225 181.8 246.225 182.131 246.225 182.627C246.225 185.936 246.225 189.244 246.225 192.552C246.225 196.026 246.225 199.997 246.225 203.636C235.106 319.763 258.598 436.386 314.011 541.264L315.984 545.069L319.032 551.686C327.461 568.063 336.965 583.116 346.29 597.012L355.256 611.238C363.506 624.803 373.548 637.541 385.204 649.12C341.09 640.849 276.173 628.939 244.611 624.803C237.617 624.141 230.982 627.946 228.113 633.736C225.602 640.022 228.113 647.135 234.21 650.774C277.787 680.881 319.211 713.47 358.126 748.374L447.252 823.972L455.322 830.92C484.373 855.734 514.5 881.54 543.372 905.526L482.4 900.067C475.586 899.405 469.309 903.045 466.799 908.834C464.109 914.459 465.902 921.076 471.103 925.046L613.31 1030.75L675.358 1076.08L676.792 1077.24L783.313 1155.65C786.003 1157.47 789.231 1158.62 792.459 1158.79H819.717C764.842 1180.46 702.974 1181.95 647.024 1162.59C598.964 1147.87 554.311 1125.54 514.859 1096.76C509.3 1092.62 495.133 1085.18 489.573 1088.98C483.835 1092.95 487.959 1107.18 490.649 1113.13C504.637 1140.26 523.825 1164.91 547.496 1185.59C472.358 1176.16 399.192 1156.14 330.688 1126.2C324.412 1123.55 312.935 1116.77 308.452 1121.57C303.969 1126.2 307.555 1141.42 311.321 1146.71C337.324 1185.42 367.271 1221.98 400.985 1255.4C426.808 1280.21 455.68 1302.21 486.704 1321.23C490.291 1323.22 499.974 1328.51 545.703 1328.51C562.201 1328.51 582.286 1327.69 598.246 1326.2H604.164C564.712 1340.26 522.39 1345.88 480.248 1342.41C472.537 1341.42 454.425 1342.41 452.632 1349.03C450.838 1355.64 465.543 1367.39 473.075 1369.7C524.363 1386.74 577.444 1398.98 631.601 1405.77C669.44 1415.53 708.175 1422.14 747.268 1425.62C750.496 1425.78 753.903 1425.78 757.131 1425.62L769.684 1426.61C789.59 1428.26 808.24 1429.92 827.966 1429.92C844.644 1429.92 861.142 1428.76 877.64 1426.44C877.819 1428.26 878.357 1430.08 879.254 1431.74L888.22 1447.78C883.199 1448.61 879.075 1451.42 876.923 1455.56C874.591 1459.69 874.771 1464.49 877.102 1468.46L896.469 1501.38C896.828 1502.21 897.366 1502.87 898.083 1503.53L899.518 1505.02L897.007 1506.18C891.807 1509.65 889.476 1515.61 890.91 1521.4C896.111 1545.55 911.892 1566.89 934.666 1580.29C943.453 1584.59 950.268 1592.03 953.317 1600.8C955.289 1607.42 958.696 1614.86 962.104 1622.8C969.635 1639.51 980.754 1664.98 973.76 1675.07C967.483 1685 958.338 1693.11 947.399 1698.9C938.612 1704.02 930.362 1709.81 922.472 1716.26C898.442 1735.95 896.828 1762.42 917.63 1794.67L918.706 1796.49C922.293 1801.62 928.749 1804.43 935.204 1803.44C941.66 1802.62 946.681 1798.15 947.937 1792.36C952.779 1769.7 993.486 1751.66 1001.56 1751.33C1014.65 1752.16 1027.56 1748.52 1037.96 1741.24C1052.84 1727.68 1133.36 1726.19 1133.36 1726.19C1141.43 1726.69 1149.68 1727.68 1157.57 1729.17C1160.44 1730.49 1163.31 1731.81 1166 1733.3C1168.51 1734.79 1171.56 1735.62 1174.43 1735.45C1185.19 1738.6 1195.59 1742.73 1205.45 1747.69C1223.21 1758.61 1241.68 1768.7 1260.51 1777.8C1270.91 1789.55 1282.03 1800.96 1293.5 1811.71C1299.6 1819.98 1302.11 1817.67 1302.11 1809.23C1321.84 1796.83 1335.64 1778.13 1341.02 1756.79C1347.12 1736.28 1343.36 1714.44 1330.8 1696.41C1330.09 1695.42 1329.19 1694.59 1328.29 1693.77C1325.6 1691.45 1318.43 1686.49 1310.18 1680.53C1299.06 1672.43 1280.23 1658.86 1277.18 1654.89C1266.78 1643.31 1259.25 1629.91 1254.77 1615.36C1259.25 1615.19 1263.38 1613.04 1266.24 1609.73C1268.93 1606.42 1270.01 1602.29 1268.93 1598.15L1266.96 1590.05C1263.91 1577.64 1260.15 1563.41 1257.28 1548.03V1547.37H1259.43C1268.04 1547.37 1274.85 1540.92 1274.85 1533.14C1274.85 1530.49 1274.13 1528.01 1272.7 1525.86L1256.2 1483.51L1259.61 1486.82C1263.73 1490.96 1274.13 1497.91 1279.87 1495.92C1285.61 1493.94 1285.79 1483.85 1286.33 1478.22C1291.17 1450.26 1307.85 1424.95 1332.6 1407.58C1333.49 1410.07 1334.57 1412.38 1335.82 1414.7C1338.51 1419.33 1338.87 1429.75 1344.61 1429.75C1350.53 1429.75 1355.01 1422.31 1363.26 1414.7C1371.51 1405.1 1382.09 1397.66 1394.11 1392.86L1447.55 1412.38C1451.49 1424.62 1458.84 1435.38 1469.06 1443.98C1480.9 1452.41 1493.45 1460.19 1506.37 1467.3L1512.28 1470.78L1506.9 1472.93C1500.81 1474.75 1483.23 1480.04 1483.23 1486.16C1483.23 1492.12 1500.63 1497.24 1506.72 1499.39C1518.74 1503.53 1531.47 1505.68 1544.38 1505.68C1568.23 1506.51 1591.19 1497.91 1607.69 1482.03C1619.16 1469.45 1623.83 1452.91 1620.42 1436.7C1618.09 1423.96 1612.35 1391.54 1610.55 1381.94L1624.9 1338.77C1625.26 1337.45 1625.26 1335.96 1624.9 1334.47C1624 1310.81 1617.55 1287.65 1605.89 1266.48V1264.82C1605.35 1263.17 1604.46 1261.68 1603.38 1260.19L1601.41 1256.72C1597.64 1249.61 1593.34 1242.66 1588.68 1235.88C1561.78 1197 1529.68 1161.1 1493.45 1129.18C1488.79 1125.21 1479.82 1118.26 1473.91 1120.74C1468.17 1123.22 1467.09 1134.64 1467.45 1140.43V1143.4C1461.17 1134.14 1454 1125.54 1446.29 1117.43C1440.19 1109.49 1435.53 1100.73 1432.3 1091.46C1463.15 970.041 1528.06 857.884 1620.42 766.24C1623.11 763.924 1624.54 760.946 1624.9 757.638C1655.57 479.396 2003.1 356.818 2006.69 355.66C2010.46 354.502 2017.09 352.682 2018.17 351.855C2030.18 343.749 2032.16 336.801 2031.26 334.485M1241.68 1545.71H1242.93L1236.3 1546.87L1241.68 1545.71Z" fill="white"/>
<path d="M1060.72 2328.56H1055.88L1054.62 2361.65H1059.1C1072.37 2361.65 1079.73 2357.02 1080.26 2345.27C1080.8 2333.69 1073.99 2329.06 1060.72 2328.73" fill="#004289"/>
<path d="M1170.29 2372.22L1194.68 2369.24L1177.1 2332.02L1170.29 2372.22Z" fill="#004289"/>
<path d="M807.512 2313.37L815.941 2273.66L785.455 2303.27L807.512 2313.37Z" fill="#004289"/>
<path d="M366.207 2113.03H358.137L355.985 2145.95H364.234C369.435 2147.11 374.994 2145.79 378.939 2142.81C383.064 2139.66 385.395 2135.03 385.216 2130.24C385.216 2119.98 379.119 2113.69 366.386 2113.03" fill="#004289"/>
<path d="M1408.97 2310.2L1431.57 2300.94L1403.06 2270L1408.97 2310.2Z" fill="#004289"/>
<path d="M1553.71 2106.6C1401.1 2195.76 1277.01 2248.7 1120.99 2249.36C909.744 2250.02 746.197 2122.15 523.471 2053.83C300.566 1985.34 44.3054 2099.16 44.3054 2099.16C99.3592 2155.73 130.562 2228.52 132.356 2304.28C132.356 2304.28 281.019 2215.61 503.924 2284.1C726.829 2352.42 842.137 2488.89 1128.88 2473.01C1378.51 2459.28 1520.54 2353.58 1681.04 2298.49C1730.53 2281.45 1914.16 2203.37 2072.87 2313.71C2080.76 2237.78 2111.96 2165.49 2162.89 2104.95C1972.98 1980.88 1665.97 2040.76 1553.89 2106.1M258.782 2215.78C218.254 2222.89 189.203 2203.37 181.133 2164.83C176.112 2148.29 179.16 2130.75 189.382 2116.53C199.604 2102.3 216.102 2092.87 234.573 2090.55C246.229 2088.4 258.423 2088.57 269.9 2091.55L270.976 2123.8C262.548 2119.5 252.864 2117.85 243.36 2119.34C225.248 2122.48 215.743 2137.04 220.227 2157.72C224.71 2178.39 240.132 2187.82 258.423 2185.34C267.928 2183.36 276.715 2178.89 283.709 2172.77L294.827 2201.06C284.247 2208.67 271.873 2213.96 258.782 2216.11M383.057 2212.31L360.999 2171.61H354.902L352.391 2209.82L312.76 2207.67L320.83 2084.76L372.476 2087.58C407.087 2089.56 426.095 2104.61 424.302 2131.08C424.123 2146.14 413.901 2159.7 398.479 2165.16L425.557 2209.33L383.057 2212.31ZM492.088 2231.33L453.353 2221.9L465.727 2180.21L443.132 2095.52L485.632 2100.98L496.392 2152.92L533.692 2114.37L573.862 2124.3L504.641 2189.15L492.088 2231.33ZM613.673 2190.47C637.703 2209.99 645.235 2223.55 636.627 2242.08C624.074 2268.88 597.892 2270.53 572.786 2260.77C556.646 2254.49 541.942 2245.06 529.927 2233.31L548.218 2208.17C558.26 2219.58 570.813 2228.85 585.16 2235.46C592.333 2238.11 598.071 2237.62 600.403 2232.82C602.734 2228.02 600.403 2224.55 586.415 2212.64C564.896 2194.44 557.005 2182.36 566.151 2162.68C577.09 2139.35 602.555 2135.55 626.764 2145.14C641.289 2150.27 654.022 2158.54 664.064 2169.3L645.952 2194.44C638.062 2184.51 627.661 2176.41 615.646 2170.95C608.293 2168.14 603.451 2168.96 601.658 2172.93C599.865 2176.9 601.658 2180.71 613.494 2190.63M654.739 2295.18L701.902 2212.97L669.803 2197.91L685.046 2170.95L781.166 2216.28L770.585 2245.39L737.589 2229.34L690.425 2311.56L654.739 2295.18ZM836.399 2376.74L797.484 2365.32L801.25 2342.49L763.412 2325.12L746.914 2340.18L712.303 2324.3L814.7 2232.98L854.69 2251.51L836.399 2376.74ZM937.002 2411.97L857.559 2388.48L898.984 2271.36L937.181 2282.61L906.337 2370.12L942.561 2380.87L937.002 2411.97ZM1059.84 2388.48H1053.57L1052.13 2425.54L1012.32 2424.38L1016.8 2301.3L1063.43 2302.79C1098.22 2303.78 1119.02 2317.85 1117.94 2346.63C1117.05 2375.25 1093.73 2389.97 1059.84 2388.81M1218.19 2416.93L1207.25 2396.09L1165.29 2401.38L1161.7 2422.72L1123.5 2427.52L1151.12 2299.15L1195.41 2293.53L1257.46 2406.18L1218.19 2416.93ZM1285.26 2402.71L1245.45 2285.09L1283.64 2274.17L1313.41 2362.18L1349.82 2351.92L1364.88 2380.21L1285.26 2402.71ZM1468.71 2340.51L1452.21 2323.47L1413.48 2339.35L1416.88 2360.69L1382.09 2373.92L1368.82 2243.74L1409.53 2227.03L1503.86 2318.84L1468.71 2340.51ZM1570.75 2295.18C1533.81 2311.72 1500.09 2299.98 1481.26 2265.08C1471.76 2250.35 1469.61 2232.65 1475.35 2216.44C1481.26 2200.23 1494.53 2187.16 1511.57 2180.54C1522.15 2175.58 1533.99 2173.1 1545.82 2173.1L1556.22 2203.21C1546.9 2201.06 1537.03 2201.88 1528.25 2205.52C1511.75 2212.97 1506.91 2229.18 1516.95 2248.04C1520 2256.14 1526.45 2262.59 1535.06 2265.9C1543.49 2269.38 1553.17 2269.21 1561.78 2265.74C1570.21 2261.6 1577.56 2255.32 1582.58 2247.71L1601.41 2272.35C1593.34 2281.95 1582.94 2289.72 1570.75 2294.85M1618.63 2271.36L1567.88 2157.38L1650.37 2127.11L1662.39 2153.75L1616.3 2170.95L1623.47 2187.33L1658.26 2174.26L1674.94 2198.91L1635.31 2213.96L1643.56 2232.16L1691.26 2214.29L1703.09 2240.92L1618.63 2271.36ZM1791.86 2215.94L1752.95 2223.39L1725.33 2102.63L1808 2086.58L1814.81 2115.86L1770.16 2124.47L1774.64 2143.82L1806.74 2137.53L1818.76 2165.66L1781.28 2172.77L1791.86 2215.94ZM1847.81 2208.17C1837.41 2208.83 1828.26 2201.72 1827.37 2192.29C1826.47 2182.69 1834.18 2174.26 1844.76 2173.43C1855.16 2172.77 1864.31 2179.88 1865.21 2189.31C1866.1 2198.91 1858.21 2207.34 1847.81 2208.17ZM1973.34 2127.28C1966.71 2120.99 1957.92 2116.86 1948.41 2115.7C1929.94 2113.88 1916.49 2125.13 1914.16 2145.97C1912.01 2154.24 1913.8 2162.84 1919.18 2169.79C1924.38 2176.74 1932.63 2181.37 1941.78 2182.53C1951.46 2183.19 1961.33 2181.37 1969.93 2177.24L1971.55 2207.51C1959.17 2211.81 1945.72 2213.3 1932.63 2211.81C1891.57 2207.84 1870.05 2181.7 1874.53 2142.5C1875.07 2125.46 1883.5 2109.41 1897.84 2098.49C1912.19 2087.58 1931.02 2082.94 1949.49 2085.59C1961.15 2086.58 1972.44 2090.06 1982.49 2095.85L1973.34 2127.28ZM2003.11 2225.37C1992.71 2226.04 1983.38 2219.09 1982.67 2209.49C1981.77 2199.9 1989.48 2191.46 1999.88 2190.63C2010.46 2189.97 2019.61 2197.09 2020.5 2206.52C2021.4 2216.11 2013.51 2224.55 2003.11 2225.37Z" fill="#004289"/>
<path d="M1976.94 2392.43L1962.05 2383.66C1942.86 2375.56 1921.52 2373.24 1900.9 2377.05L1888.35 2379.36C1871.85 2382.67 1855.35 2386.15 1842.8 2377.38C1835.63 2371.42 1831.86 2362.66 1832.58 2353.72C1832.04 2344.13 1836.52 2334.86 1844.77 2328.74C1880.64 2303.1 1986.08 2326.59 1998.1 2328.74C2009.93 2330.89 2040.6 2336.68 2054.59 2327.92C2058.35 2325.43 2060.86 2321.46 2060.86 2317.16C2068.21 2241.07 2097.8 2168.28 2146.94 2106.41C1964.02 1995.09 1672.97 2050.17 1558.56 2113.69C1428.37 2186.15 1287.06 2257.12 1120.28 2257.78H1118.49C982.74 2257.78 866.535 2205.67 743.516 2150.75C671.067 2116.51 596.287 2086.89 519.535 2061.75C331.24 2004.02 115.329 2080.28 61.1714 2101.78C112.101 2159.35 140.793 2230.65 143.124 2304.59C143.124 2308.89 145.276 2313.03 148.863 2315.67C162.492 2324.94 194.771 2320.97 204.993 2318.82C215.394 2316.5 323.708 2297.64 358.318 2324.77C366.568 2331.06 370.871 2340.32 370.333 2350.08C370.513 2358.85 366.388 2367.29 358.856 2372.91C346.483 2381.18 329.626 2377.05 313.307 2372.91C309.003 2371.92 304.879 2370.93 300.933 2370.1C280.49 2365.47 258.971 2366.79 239.424 2374.07L224.002 2382.18L222.926 2335.19L209.476 2337.51C204.813 2338.5 159.981 2347.27 136.131 2330.73C127.523 2324.61 122.322 2315.18 122.143 2305.25C120.17 2231.97 90.2226 2161.5 37.1414 2106.41L26.561 2096.99L40.0107 2091.03C50.591 2086.4 302.906 1976.06 527.246 2044.88C604.895 2070.35 680.571 2100.63 753.737 2135.53C874.425 2189.46 988.658 2241.23 1119.39 2241.23H1121.36C1266.98 2241.23 1392.86 2186.64 1548.7 2099.96C1669.03 2032.97 1979.45 1975.23 2169.36 2099.3L2178.68 2105.42L2171.15 2113.36C2120.76 2173.74 2090.27 2245.87 2083.1 2321.46C2082.38 2331.56 2076.64 2340.65 2067.68 2346.44C2043.29 2361.5 1998.81 2351.24 1993.79 2349.92L1980.88 2347.11L1976.94 2392.43ZM1900 2336.52C1885.66 2335.36 1871.31 2338.17 1858.76 2344.46C1855.53 2346.61 1853.56 2350.25 1853.74 2353.89C1853.38 2357.03 1854.1 2360.01 1856.07 2362.49C1860.01 2365.63 1873.82 2362.49 1883.86 2360.67C1888.53 2359.84 1893.19 2359.02 1897.67 2358.19C1917.94 2355.05 1938.56 2356.04 1958.29 2361.17L1959.9 2341.98C1940.17 2338.83 1920.09 2337.01 1900 2336.68M274.034 2348.76C284.615 2348.76 295.016 2349.75 305.417 2351.74C309.721 2352.56 314.204 2353.72 318.866 2354.88C328.729 2357.2 342.358 2360.67 346.662 2357.86C348.635 2355.54 349.711 2352.56 349.531 2349.59C349.89 2345.78 348.276 2342.14 345.048 2339.83C329.626 2327.75 283.539 2328.41 244.086 2332.88V2352.07C253.77 2349.92 263.633 2348.76 273.676 2348.76" fill="#D71F16"/>
<path d="M1083.5 2486.26C918.341 2486.26 811.102 2433.98 699.022 2379.06C635.719 2345.98 569.368 2318.02 500.685 2295.52C286.029 2229.52 139.697 2313.89 138.263 2314.71L126.606 2298.34C132.883 2294.7 282.263 2207.85 506.603 2277.16C576.362 2299.99 643.789 2328.44 708.168 2362.02C827.78 2420.58 940.578 2476 1127.44 2465.74C1301.21 2456.15 1420.1 2402.39 1534.87 2350.44C1580.96 2328.77 1628.12 2309.25 1676.18 2291.72L1687.66 2287.75C1752.58 2264.09 1925.63 2201.73 2078.6 2308.43L2065.86 2323.48C1922.22 2223.56 1757.24 2282.95 1695.19 2305.28L1683.53 2309.42C1636.91 2325.63 1591.72 2345.81 1544.2 2367.48C1432.83 2417.61 1306.59 2474.68 1128.51 2484.6C1112.73 2485.43 1097.49 2485.93 1082.61 2485.76" fill="#D71F16"/>
<path d="M348.059 2342.49C319.188 2321.97 295.158 2296.33 277.404 2267.05L296.413 2258.62C312.911 2285.42 334.968 2309.07 361.509 2327.93L348.059 2342.49Z" fill="#D71F16"/>
<path d="M1855.51 2346.63L1843.13 2331.41C1897.29 2295.35 1903.75 2256.97 1903.93 2255.97L1924.73 2258.62C1924.73 2260.61 1917.02 2305.6 1855.51 2346.46" fill="#D71F16"/>
<path d="M1228.2 582.92C1224.98 568.693 1221.75 550.993 1219.06 531.308C1221.21 548.677 1224.26 565.881 1228.2 582.92Z" fill="#004289"/>
<path d="M1592.25 1270.57L1591.35 1268.25V1269.91L1587.05 1261.8C1583.64 1255.02 1579.7 1248.57 1575.21 1242.45C1549.03 1204.57 1518.01 1169.83 1482.68 1138.73L1483.58 1152.46L1485.19 1173.96C1485.19 1173.96 1308.37 1080.17 1233.05 993.652C1174.59 926.656 1107.35 853.373 1067.89 763.714L1053.19 742.374C1002.26 686.958 949.177 697.048 832.973 574.47C787.603 521.038 754.248 459.666 735.239 394.324C707.264 274.558 709.595 150.656 742.233 31.8822C742.233 31.8822 756.937 -7.32307 676.24 109.466C635.532 168.522 607.378 234.029 593.569 302.514C586.576 336.922 583.706 371.827 584.782 406.731C556.986 355.781 535.467 302.183 520.762 246.932C500.498 174.146 493.863 98.7131 501.215 23.7765C501.215 23.7765 487.048 11.0389 438.271 130.474C392.004 237.007 380.169 353.465 404.019 465.787C314.176 396.309 294.091 269.595 264.143 168.191C263.785 168.522 263.247 169.018 263.067 169.68C260.915 174.477 259.66 179.605 259.301 184.733C259.301 192.012 258.405 199.787 258.405 206.404C247.466 320.215 270.24 434.687 324.398 537.58C326.191 540.889 327.625 544.363 329.239 547.671C340.178 568.845 353.269 587.869 364.926 606.727C384.473 638.158 399.715 645.767 421.414 673.558C419.083 673.558 286.918 647.752 238.499 641.135C289.07 676.37 337.13 714.583 382.321 755.277C382.321 755.277 563.98 768.677 707.802 865.614C621.545 829.718 529.37 807.716 435.043 800.603L461.225 823.266C503.726 859.825 546.406 896.052 584.244 926.656L476.647 916.896L631.228 1031.2L659.024 1032.03C693.814 1031.53 728.424 1034.51 762.497 1040.96C791.727 1046.42 820.061 1055.69 846.422 1068.59C809.66 1059.99 771.822 1057.01 733.983 1059.49C716.409 1061.64 699.014 1064.62 681.799 1068.42L690.945 1075.04L788.499 1146.83L875.474 1148.98C802.128 1190.67 730.038 1207.05 637.684 1179.09C588.01 1163.87 541.743 1140.71 500.677 1110.94C517.355 1147.66 555.014 1178.93 584.424 1206.72C492.787 1200.43 403.123 1178.59 320.094 1142.2C345.738 1180.25 375.147 1215.98 408.144 1248.9C433.071 1272.72 460.687 1294.06 490.635 1312.42C502.471 1318.87 556.807 1318.71 592.852 1315.4C599.487 1315.4 605.584 1314.24 610.785 1313.41C619.034 1312.09 629.256 1310.11 640.374 1307.79C677.316 1300.02 721.789 1288.6 719.279 1290.09C702.422 1300.02 685.206 1309.28 667.273 1317.55C656.334 1322.68 645.216 1327.48 634.277 1332.77C584.603 1354.11 529.549 1363.37 474.854 1359.57C532.418 1378.92 592.314 1391.49 653.286 1397.28C669.067 1400.1 685.565 1397.95 699.911 1391.16C726.99 1379.58 749.585 1370.15 771.104 1360.89C782.043 1356.09 792.983 1351.3 804.28 1345.84C819.344 1338.72 834.945 1330.78 852.519 1322.35C842.298 1330.95 832.255 1339.22 821.854 1347.16L804.101 1360.56C783.119 1375.78 760.524 1392.65 735.059 1413.16C803.742 1417.47 843.374 1428.22 934.652 1401.92C920.306 1411.51 905.421 1420.44 889.999 1428.55L917.078 1477.02L887.668 1464.94L907.035 1497.86C916.719 1508.61 927.837 1518.04 940.032 1526.48L946.667 1545.83C930.886 1539.38 916.002 1531.11 902.552 1521.19C917.795 1577.1 954.199 1566.35 964.6 1600.09C971.773 1623.09 997.596 1664.11 983.25 1685.78C965.676 1711.59 954.019 1709.77 929.272 1730.12C900.579 1753.61 922.637 1783.22 929.272 1792.81C933.397 1771.14 948.819 1752.78 970.518 1743.68C990.782 1738.22 1014.63 1742.52 1023.6 1734.25C1055.34 1705.3 1123.48 1698.02 1170.83 1725.15C1148.77 1692.73 1137.83 1693.89 1094.07 1682.31C1171.01 1687.11 1176.75 1702.32 1213.69 1742.85C1216.74 1720.02 1195.93 1690.91 1178.18 1677.01C1172.8 1672.71 1112.19 1664.94 1052.29 1660.14C1031.49 1658.49 1023.06 1634 1019.29 1620.94C1030.59 1626.73 1043.15 1630.2 1056.24 1630.7C1052.11 1611.67 1046.19 1590 1042.79 1576.77C1050.5 1580.74 1058.93 1582.89 1067.71 1583.05L1059.11 1550.8C1054.98 1525.16 1045.84 1506.79 1072.91 1467.59C1083.14 1473.21 1092.64 1480.16 1101.07 1488.1C1103.94 1500.84 1107.88 1513.41 1112.9 1525.65C1113.98 1528.13 1140.34 1548.81 1141.42 1551.29L1095.87 1539.22C1106.09 1559.07 1121.69 1576.27 1141.06 1589.01C1155.41 1592.48 1168.68 1598.77 1179.97 1607.7C1188.04 1617.3 1191.63 1629.37 1190.02 1641.45C1186.43 1649.22 1162.4 1616.3 1111.29 1655.51C1146.26 1655.51 1187.86 1664.77 1196.83 1674.37C1205.08 1684.95 1214.58 1694.55 1225.34 1702.99C1262.28 1723.33 1264.8 1733.26 1261.93 1773.79C1284.88 1757.58 1278.42 1715.39 1274.84 1705.3C1297.97 1732.76 1303.53 1769.32 1289.18 1801.41C1312.14 1789.83 1338.86 1743.85 1313.57 1707.62C1306.4 1701.66 1268.02 1675.36 1260.49 1667.59C1241.12 1647.57 1236.46 1624.74 1227.5 1601.75C1234.31 1601.75 1242.56 1604.39 1249.19 1604.39C1245.79 1590.83 1240.94 1573.13 1237.36 1553.44L1236.46 1548.15C1236.46 1548.15 1236.46 1546.66 1236.46 1545.83C1236.46 1545.17 1235.39 1540.04 1234.85 1537.07C1234.85 1537.07 1234.85 1535.58 1234.85 1535.08C1234.85 1531.94 1234.85 1528.96 1233.77 1525.98C1240.41 1529.95 1247.58 1533.43 1254.93 1536.41L1233.41 1483.14C1233.41 1479 1233.95 1475.03 1235.03 1471.06C1235.03 1467.42 1236.64 1463.78 1237.54 1460.14V1458.33C1238.43 1455.02 1239.51 1451.87 1240.77 1448.57V1446.08C1242.2 1442.11 1243.81 1438.31 1245.79 1434.5C1236.1 1453.53 1264.44 1480.82 1264.44 1480.82C1268.2 1438.81 1309.09 1399.6 1343.7 1385.37C1343.34 1393.15 1345.13 1400.76 1349.08 1407.54C1358.4 1391.49 1375.44 1380.41 1394.99 1377.43L1422.96 1387.69L1452.55 1398.44L1460.26 1401.42C1463.13 1413.16 1469.41 1423.92 1478.55 1432.52C1491.11 1441.78 1504.2 1448.73 1535.76 1467.09C1531.82 1476.52 1522.85 1483.47 1512.09 1485.62C1556.74 1500.67 1613.05 1482.64 1605.16 1438.64C1602.29 1423.59 1594.94 1380.58 1594.94 1380.58L1605.52 1348.98L1608.57 1339.72V1338.56L1610 1334.26C1609.11 1312.26 1603.01 1290.75 1592.07 1271.23M1433.36 1336.08L1409.51 1296.87L1349.08 1268.42L1398.57 1320.86C1361.81 1300.68 1321.82 1286.12 1279.86 1277.52C1279.86 1277.52 1320.75 1312.59 1340.29 1329.96C1344.06 1332.27 1344.78 1333.93 1344.78 1333.93L1340.29 1329.96C1324.87 1323.17 1307.83 1319.87 1290.8 1320.53C1259.06 1318.05 1228.21 1309.61 1200.24 1295.88C1205.44 1302.33 1211.53 1308.29 1218.35 1313.58C1233.41 1325.16 1250.81 1333.93 1269.46 1339.39C1271.25 1339.39 1293.85 1348.32 1295.64 1348.98C1280.93 1354.27 1266.95 1361.39 1254.21 1370.15C1234.49 1383.88 1219.25 1402.41 1210.1 1423.59C1195.93 1456.67 1183.02 1516.22 1193.6 1550.47C1162.22 1511.92 1134.42 1462.3 1150.03 1406.05C1102.32 1430.7 1071.3 1422.76 1038.3 1418.13C1016.6 1449.06 1003.51 1484.3 1000.11 1521.02C997.237 1516.72 994.727 1512.42 992.396 1507.79C980.201 1483.3 973.387 1456.67 972.131 1429.71C971.235 1419.78 971.235 1409.69 972.131 1399.6L1081.34 1328.8L922.458 1316.56L930.527 1311.26C991.858 1269.58 1066.46 1247.25 1142.85 1247.91C1148.59 1247.91 1154.69 1247.91 1160.43 1249.07C1110.75 1224.09 1026.11 1225.41 975.18 1239.8C906.318 1259.49 879.06 1260.64 805.177 1248.73C882.467 1234.34 879.777 1232.36 925.685 1212.67C963.524 1193.32 1035.08 1157.75 1125.46 1172.97C1103.58 1163.21 1080.8 1155.44 1057.49 1149.81C1019.47 1141.54 980.022 1141.04 941.825 1147.99C966.572 1126.98 997.955 1113.75 1031.31 1109.94C951.688 1044.44 717.485 941.709 717.485 941.709C1051.04 1013.67 1192.71 1156.76 1213.87 1179.92L1217.99 1182.9C1156.84 1058.83 1055.88 954.612 928.734 883.646C900.759 867.6 869.735 856.351 841.042 841.297C796.39 817.642 754.068 790.678 714.437 760.405C337.309 486.63 477.544 109.796 477.544 109.796C467.681 193.997 478.441 279.19 509.285 359.089C526.142 404.58 546.944 448.583 571.871 490.766C593.211 527.324 617.061 562.559 643.064 596.471C689.331 649.076 746.178 693.078 810.557 725.997C810.557 725.997 525.783 548.829 687.537 171.003C681.261 187.214 569.36 489.939 989.885 753.623C997.955 758.586 1003.87 758.42 1006.38 763.879C1062.51 887.12 1277.89 1083.15 1318.06 1177.44C1316.26 1158.08 1314.47 1138.89 1312.5 1119.7C1337.06 1143.53 1355.18 1172.31 1365.4 1203.74C1367.19 1184.72 1368.99 1155.77 1370.96 1136.74C1418.84 1162.88 1462.24 1195.14 1500.07 1232.69L1498.82 1231.7L1494.69 1227.39L1496.49 1229.21L1497.38 1230.37L1499.89 1232.69L1498.1 1204.73L1497.2 1191.66C1497.2 1191.66 1561.76 1263.95 1583.64 1320.03C1584.9 1323.17 1585.97 1326.32 1586.87 1329.3C1587.05 1340.71 1585.08 1351.96 1581.13 1362.55C1577.54 1369 1572.7 1374.79 1566.78 1379.75C1566.07 1380.41 1565.17 1380.74 1564.27 1381.24C1567.32 1377.76 1568.58 1373.46 1568.04 1369.16C1567.68 1362.71 1566.43 1356.26 1564.09 1349.97C1561.76 1343.36 1559.25 1337.07 1556.92 1332.27C1554.59 1327.48 1552.62 1323.34 1552.62 1323.34C1553.87 1333.1 1553.51 1343.03 1551.54 1352.79C1548.31 1365.69 1541.86 1369.16 1540.06 1369.82C1540.06 1367.67 1538.99 1365.69 1538.63 1363.87C1536.66 1359.24 1534.68 1354.61 1532.71 1349.97C1525.54 1333.43 1498.82 1287.44 1490.21 1271.4C1482.5 1281.16 1492.54 1303.99 1492.54 1303.99C1495.95 1310.11 1504.02 1325.49 1504.02 1325.49C1498.1 1340.71 1506.17 1357.75 1522.31 1364.2C1512.81 1365.36 1502.94 1363.54 1494.69 1358.91C1500.79 1369 1508.68 1378.1 1517.65 1386.2C1499 1381.9 1456.14 1350.8 1432.65 1333.1M1529.3 1448.9L1510.83 1435.17L1497.38 1425.41L1494.16 1415.98L1493.26 1413.66L1488.6 1400.76C1502.94 1409.53 1514.78 1421.27 1523.21 1435C1524.82 1437.48 1533.07 1452.2 1533.07 1452.2L1529.3 1448.9ZM1586.87 1458.99C1580.23 1465.93 1571.81 1471.56 1562.48 1475.03C1552.98 1479.33 1542.4 1480.82 1531.99 1479.33L1534.51 1478.01L1536.3 1477.18C1557.82 1464.94 1546.16 1441.95 1523.75 1418.46L1472.46 1377.76L1469.59 1375.61H1473.17L1480.89 1379.42L1507.07 1392.98L1509.04 1393.98L1520.52 1399.93L1533.07 1406.38L1559.97 1400.26C1565.89 1399.27 1571.45 1397.12 1576.47 1393.98C1576.47 1395.63 1599.06 1446.08 1585.97 1461.14" fill="#004289"/>
<path d="M1857.49 328.894H1860.18C1788.63 332.202 1719.05 351.888 1658.08 386.296C1707.58 299.283 1814.63 240.558 1909.86 206.15C1909.86 206.15 1921.69 189.277 1806.56 204.992C1791.68 206.646 1776.8 208.797 1762.09 211.775C1698.61 224.678 1638.89 250.483 1587.78 287.373C1558.91 308.051 1533.45 332.202 1511.75 359.332C1455.44 425.997 1411.68 500.769 1381.92 580.503C1381.92 580.503 1367.93 428.148 1580.25 227.159C1603.39 191.593 1629.75 157.681 1658.98 126.085C1658.98 126.085 1664 103.257 1543.31 186.465C1455.8 242.378 1381.56 314.171 1325.07 397.048C1305.34 429.471 1263.2 501.927 1251.01 549.734C1251.01 551.057 1251.01 552.546 1251.01 554.035C1251.01 555.358 1252.26 582.653 1258 620.866C1264.81 657.921 1274.14 694.644 1285.8 730.707C1267.32 694.644 1251.36 657.59 1238.09 619.708C1233.97 606.474 1230.74 594.233 1228.05 582.322C1226.26 574.878 1224.82 567.269 1223.57 560.983C1222.85 557.178 1222.13 553.373 1221.6 549.238C1220.52 542.951 1219.62 536.831 1218.73 530.71C1216.04 508.378 1214.96 487.204 1214.6 466.03C1214.6 438.073 1215.5 412.764 1216.93 394.567C1178.92 470.496 1158.11 552.711 1156.14 636.085C1153.27 658.913 1151.84 675.952 1150.76 690.178C1172.46 743.113 1201.15 793.567 1236.3 840.051C1236.3 840.051 1195.23 819.208 1146.82 741.955C1144.13 764.288 1139.82 786.62 1134.08 808.621C1179.63 880.084 1232.89 947.245 1293.33 1008.95V907.709C1306.96 919.951 1319.87 932.854 1331.88 946.418C1341.21 907.709 1352.68 869.331 1366.49 831.78C1462.97 569.254 1577.38 489.354 1577.38 489.354C1472.12 640.386 1375.46 943.772 1379.23 1085.7C1399.49 1101.59 1417.78 1114.49 1433.02 1124.08C1425.13 1113.83 1419.57 1102.41 1416.53 1090.17C1447.37 964.78 1513.9 849.15 1609.48 754.858C1641.4 464.21 2001.14 341.135 2001.14 341.135C2030.37 321.45 1856.96 328.563 1856.96 328.563" fill="#004289"/>
<path d="M355.614 1827.65V1780.67L302.174 1731.38V1786.46C317.597 1807.31 335.529 1826.33 355.614 1843.2V1827.65Z" fill="#C5C7C8"/>
<path d="M1910.75 2002.87V1838.44C1891.92 1851.84 1874.34 1863.58 1857.49 1874.34V1922.81H1830.23V1890.71C1713.13 1961.35 1655.38 1968.79 1655.38 1968.79C1717.79 1940.51 1776.43 1905.77 1830.23 1865.24V1802.54C1733.75 1879.46 1625.79 1943.48 1509.77 1992.78C1509.77 1995.92 1509.77 2005.52 1509.77 2018.92H1756.17C1807.28 2010.98 1859.1 2008 1910.75 2009.82" fill="#C5C7C8"/>
<path d="M1689.11 2032.51C1653.78 2040.62 1619.35 2051.54 1586.17 2065.1V2032.51H1689.11Z" fill="#96989A"/>
<path d="M1379.58 2170.26L1345.69 2183.99V2081.92H1378.87V2170.26H1379.58Z" fill="#96989A"/>
<path d="M1345.86 1992.05H1379.75V2069.8H1345.86V1992.05Z" fill="#96989A"/>
<path d="M1497.75 2106.24V2081.92H1467.45V2128.57L1497.75 2112.19V2106.24Z" fill="#96989A"/>
<path d="M1466.92 1992.05H1497.05V2069.8H1466.92V1992.05Z" fill="#96989A"/>
<path d="M1416.34 2133.7V2081.92H1393.03V2164.8L1416.34 2154.05V2133.7Z" fill="#96989A"/>
<path d="M1393.19 1992.05H1416.51V2069.8H1393.19V1992.05Z" fill="#96989A"/>
<path d="M1429.62 1992.05H1452.93V2069.8H1429.62V1992.05Z" fill="#96989A"/>
<path d="M1452.93 2128.24V2081.92H1429.62V2147.43L1452.93 2135.68V2128.24Z" fill="#96989A"/>
<path d="M1345.86 1926.37H1497.21V1979.97H1345.86V1926.37Z" fill="#96989A"/>
<path d="M743.493 2114.8L710.318 2099.58V2081.72H743.493V2114.8Z" fill="#96989A"/>
<path d="M710.318 1992.05H744.031V2069.8H710.318V1992.05Z" fill="#96989A"/>
<path d="M830.284 2153.22L861.128 2166.12V2081.92H830.284V2153.22Z" fill="#96989A"/>
<path d="M831.193 1992.05H861.32V2069.8H831.193V1992.05Z" fill="#96989A"/>
<path d="M756.938 1992.05H780.25V2069.8H756.938V1992.05Z" fill="#96989A"/>
<path d="M794.244 1992.05H817.198V2069.8H794.244V1992.05Z" fill="#96989A"/>
<path d="M710.318 1926.37H861.491V1979.97H710.318V1926.37Z" fill="#96989A"/>
<path d="M793.886 2137.17L817.199 2147.76V2081.92H793.886V2137.17Z" fill="#96989A"/>
<path d="M673.576 2084.12L696.889 2094.05V2032.51H673.396V2084.12H673.576Z" fill="#96989A"/>
<path d="M756.938 2120.63L760.703 2122.45L780.071 2131.05V2081.92H756.938V2120.63Z" fill="#96989A"/>
<path d="M302.354 1944.81V1839.1C321.183 1852.34 338.937 1864.08 355.614 1874.83V1923.3H382.872V1890.71C499.794 1961.35 557.538 1968.79 557.538 1968.79C495.132 1940.51 436.491 1905.77 382.872 1865.24V1802.54C477.557 1877.98 583.182 1941 696.697 1990.3V2019.08C696.697 2019.08 487.241 2019.91 481.861 2019.08C422.862 2008.16 362.249 2005.52 302.174 2011.47" fill="#C5C7C8"/>
<path d="M623.175 2064.33C593.766 2053.24 554.493 2038.68 532.435 2031.9H623.175V2064.33Z" fill="#96989A"/>
<path d="M636.806 2062.58V2032.31H659.94V2077.63L636.806 2068.54V2062.58Z" fill="#96989A"/>
<path d="M1536.14 2081.97V2032.51H1510.68V2104.8L1536.14 2089.75V2081.97Z" fill="#96989A"/>
<path d="M1572.9 2065.1V2032.51H1549.58V2082.3C1556.76 2078.5 1564.47 2074.69 1572.54 2071.06L1572.9 2065.1Z" fill="#96989A"/>
<path d="M1332.58 1979.97V1941.93C1329.17 1828.61 1227.67 1738.29 1103.58 1738.29C979.662 1738.29 878.162 1828.61 874.754 1941.93V1979.97H913.669C898.605 1910.16 930.705 1838.87 995.442 1799.33C1060.18 1759.8 1144.46 1759.8 1209.2 1799.33C1273.94 1838.87 1306.22 1910.16 1290.98 1979.97H1332.58Z" fill="#96989A"/>
<path d="M1910.75 1786.63C1895.33 1807.31 1877.57 1826.5 1857.49 1843.37V1780.67L1910.75 1731.38V1786.63Z" fill="#C5C7C8"/>
<path d="M1065.21 2145.97C1062.34 2145.97 1059.47 2146.96 1057.5 2148.95C1055.53 2150.77 1054.45 2153.58 1054.81 2156.23C1054.45 2158.71 1055.35 2161.36 1057.5 2163.34C1059.47 2165.16 1062.34 2165.99 1065.21 2165.66C1069.51 2165.66 1073.64 2164.33 1077.04 2161.85C1077.04 2151.93 1072.2 2146.8 1065.21 2146.8" fill="#96989A"/>
<path d="M1123.15 2146.38C1115.08 2146.38 1110.77 2153.49 1110.77 2166.23C1110.77 2178.97 1115.08 2185.91 1123.15 2185.91C1131.04 2185.91 1135.34 2178.97 1135.34 2166.23C1135.34 2153.49 1131.04 2146.38 1123.15 2146.38Z" fill="#96989A"/>
<path d="M1287.57 1992.46C1264.26 2068.38 1188.58 2120.82 1102.32 2120.82C1016.07 2120.82 940.389 2068.38 917.076 1992.46H874.754V2171.61C954.197 2203.04 1033.64 2226.2 1120.25 2226.2H1121.87C1194.14 2225.87 1265.51 2213.29 1332.58 2188.98V1992.62L1287.57 1992.46Z" fill="#96989A"/>
<path d="M250.182 1708.4C257.893 1709.72 265.604 1711.54 273.136 1713.53V1807.49C265.604 1805.34 257.893 1803.68 250.182 1802.36V1708.4Z" fill="#96989A"/>
<path d="M236.876 1800.23C229.523 1799.4 221.633 1798.9 213.922 1798.74V1704.94H225.22L236.876 1705.94V1800.23Z" fill="#96989A"/>
<path d="M177.552 1800.23C185.084 1799.4 192.616 1798.9 200.685 1798.74V1704.94C192.795 1704.94 185.084 1705.44 177.552 1706.6V1800.23Z" fill="#96989A"/>
<path d="M141.485 1807.49C148.837 1805.34 156.548 1803.68 164.26 1802.36V1708.4C156.548 1709.72 148.837 1711.54 141.485 1713.53V1807.49Z" fill="#96989A"/>
<path d="M120.848 1632.08C125.869 1629.93 131.07 1628.11 136.27 1626.46V1637.71L120.848 1632.08Z" fill="#96989A"/>
<path d="M200.685 1664.89C192.974 1665.22 185.263 1665.71 177.552 1666.71V1617.74C185.084 1616.75 192.795 1616.42 200.685 1616.09V1664.89Z" fill="#96989A"/>
<path d="M236.876 1617.78C229.523 1616.79 221.633 1616.46 213.922 1616.29V1665.09C221.633 1665.42 229.344 1665.92 236.876 1666.74V1617.78Z" fill="#96989A"/>
<path d="M250.182 1618.93C257.893 1620.26 265.604 1621.91 273.136 1624.06V1673.03C265.604 1670.88 257.893 1669.22 250.182 1667.9V1618.93Z" fill="#96989A"/>
<path d="M164.439 1668.55C156.728 1669.87 149.017 1671.69 141.485 1673.67V1624.88C149.017 1622.72 156.728 1621.07 164.439 1619.75V1668.55Z" fill="#96989A"/>
<path d="M278.121 1626.46C283.859 1628.11 289.418 1629.93 294.798 1632.08L278.121 1637.71V1626.46Z" fill="#96989A"/>
<path d="M120.848 1720.9C125.869 1718.75 131.07 1716.93 136.27 1715.11V1726.52L120.848 1720.9Z" fill="#96989A"/>
<path d="M278.121 1715.11C283.859 1716.76 289.418 1718.75 294.798 1720.9L278.121 1726.52V1715.11Z" fill="#96989A"/>
<path d="M294.079 1600.37C238.667 1579.03 176.081 1579.03 120.848 1600.37V1620.72C176.081 1599.38 238.667 1599.38 294.079 1620.72V1600.37Z" fill="#96989A"/>
<path d="M294.079 1690.04C238.667 1668.7 176.081 1668.7 120.848 1690.04V1709.73C176.081 1688.39 238.667 1688.39 294.079 1709.73V1690.04Z" fill="#96989A"/>
<path d="M294.079 1591.47C238.667 1570.13 176.081 1570.13 120.848 1591.47L189.531 1531.09C195.269 1531.09 201.366 1531.09 207.284 1531.09C213.381 1531.09 219.479 1531.09 225.217 1531.09L294.079 1591.47Z" fill="#96989A"/>
<path d="M189.565 1514.77V1524.69C195.303 1524.69 201.401 1524.69 207.318 1524.69C213.416 1524.69 219.333 1524.69 225.251 1524.69V1514.77C225.251 1510.96 216.285 1510.96 213.954 1510.96H200.683C198.352 1510.96 189.565 1510.96 189.565 1514.77Z" fill="#96989A"/>
<path d="M273.136 1909.56C265.604 1907.41 257.893 1905.75 250.182 1904.43V1813.12C257.893 1814.44 265.604 1816.09 273.136 1818.24V1909.56Z" fill="#96989A"/>
<path d="M236.876 1902.46C229.523 1901.63 221.633 1901.14 213.922 1900.97V1809.66C221.633 1809.66 229.523 1809.66 236.876 1811.15V1902.46Z" fill="#96989A"/>
<path d="M200.685 1900.77C192.974 1900.94 185.263 1901.6 177.552 1902.42V1811.11C185.084 1810.28 192.795 1809.62 200.685 1809.46V1900.77Z" fill="#96989A"/>
<path d="M164.439 1904.23C156.728 1905.55 149.017 1907.2 141.485 1909.35V1818.04C149.017 1815.89 156.728 1814.24 164.439 1812.91V1904.23Z" fill="#96989A"/>
<path d="M2049.56 1708.4C2057.27 1709.72 2064.98 1711.54 2072.52 1713.53V1807.49C2064.98 1805.34 2057.27 1803.68 2049.56 1802.36V1708.4Z" fill="#96989A"/>
<path d="M2036.26 1800.23C2028.9 1799.4 2021.19 1798.9 2013.3 1798.74V1704.94H2024.6L2036.26 1705.94V1800.23Z" fill="#96989A"/>
<path d="M1976.93 1800.23C1984.28 1799.4 1991.82 1798.9 1999.89 1798.74V1704.94C1992 1704.94 1984.28 1705.44 1976.93 1706.6V1800.23Z" fill="#96989A"/>
<path d="M1940.86 1807.49C1948.22 1805.34 1955.93 1803.68 1963.64 1802.36V1708.4C1955.93 1709.72 1948.22 1711.54 1940.86 1713.53V1807.49Z" fill="#96989A"/>
<path d="M1920.23 1632.08C1925.25 1629.93 1930.45 1628.11 1935.65 1626.46V1637.71L1920.23 1632.08Z" fill="#96989A"/>
<path d="M2000.05 1664.89C1992.34 1665.22 1984.63 1665.71 1977.1 1666.71V1617.74C1984.45 1616.75 1992.16 1616.42 2000.05 1616.09V1664.89Z" fill="#96989A"/>
<path d="M2036.26 1617.78C2028.9 1616.79 2021.19 1616.46 2013.3 1616.29V1665.09C2021.01 1665.42 2028.72 1665.92 2036.26 1666.74V1617.78Z" fill="#96989A"/>
<path d="M2049.56 1618.93C2057.27 1620.26 2064.98 1621.91 2072.52 1624.06V1673.03C2064.98 1670.88 2057.27 1669.22 2049.56 1667.9V1618.93Z" fill="#96989A"/>
<path d="M1963.82 1668.55C1956.11 1669.87 1948.4 1671.69 1940.86 1673.67V1624.88C1948.4 1622.72 1956.11 1621.07 1963.82 1619.75V1668.55Z" fill="#96989A"/>
<path d="M2077.69 1626.46C2083.25 1628.11 2088.81 1629.93 2094.19 1632.08L2077.69 1637.71V1626.46Z" fill="#96989A"/>
<path d="M1920.23 1720.9C1925.25 1718.75 1930.45 1716.93 1935.65 1715.11V1726.52L1920.23 1720.9Z" fill="#96989A"/>
<path d="M2077.69 1715.11C2083.07 1716.93 2088.27 1718.75 2094.19 1720.9L2077.69 1726.52V1715.11Z" fill="#96989A"/>
<path d="M2093.46 1600.37C2038.05 1579.03 1975.64 1579.03 1920.23 1600.37V1620.72C1975.46 1599.38 2038.05 1599.38 2093.46 1620.72V1600.37Z" fill="#96989A"/>
<path d="M2093.46 1690.04C2038.05 1668.7 1975.64 1668.7 1920.23 1690.04V1709.73C1975.64 1688.39 2038.05 1688.39 2093.46 1709.73V1690.04Z" fill="#96989A"/>
<path d="M2093.46 1591.47C2038.05 1570.13 1975.64 1570.13 1920.23 1591.47L1988.91 1531.09C1994.65 1531.09 2000.75 1531.09 2006.66 1531.09C2012.76 1531.09 2018.86 1531.09 2024.6 1531.09L2093.46 1591.47Z" fill="#96989A"/>
<path d="M1988.94 1514.77V1524.69C1994.68 1524.69 2000.6 1524.69 2006.7 1524.69C2012.8 1524.69 2018.89 1524.69 2024.63 1524.69V1514.77C2024.63 1510.96 2015.66 1510.96 2013.33 1510.96H2000.06C1997.73 1510.96 1988.94 1510.96 1988.94 1514.77Z" fill="#96989A"/>
<path d="M2072.52 1909.56C2064.98 1907.41 2057.27 1905.75 2049.56 1904.43V1813.12C2057.27 1814.44 2064.98 1816.09 2072.52 1818.24V1909.56Z" fill="#96989A"/>
<path d="M2036.26 1902.46C2028.9 1901.63 2021.19 1901.14 2013.3 1900.97V1809.66C2021.19 1809.66 2028.72 1810.16 2036.26 1811.15V1902.46Z" fill="#96989A"/>
<path d="M2000.05 1900.77C1992.34 1900.94 1984.63 1901.6 1977.1 1902.42V1811.11C1984.45 1810.28 1992.16 1809.62 2000.05 1809.46V1900.77Z" fill="#96989A"/>
<path d="M1963.82 1904.23C1956.11 1905.55 1948.4 1907.2 1940.86 1909.35V1818.04C1948.4 1815.89 1956.11 1814.24 1963.82 1812.91V1904.23Z" fill="#96989A"/>
<path d="M2072.49 2037.82C2064.96 2035.34 2057.25 2033.03 2049.36 2030.87C2049.36 2025.25 2049.36 1985.55 2049.36 1985.55V1915.24C2049.36 1915.24 2065.14 1918.39 2072.31 1920.37V2037.49L2072.49 2037.82ZM2036.27 2027.57C2028.74 2025.75 2021.03 2023.93 2013.13 2022.44C2013.13 2016.98 2013.13 1989.35 2013.13 1989.35V1911.94C2013.13 1911.94 2028.74 1911.94 2036.09 1913.42V2027.4L2036.27 2027.57ZM2000.22 1989.35V1911.94C1992.33 1911.94 1977.27 1913.42 1977.27 1913.42V1988.86C1977.27 1988.86 1977.27 2008.87 1977.27 2015.99C1985.34 2016.98 1993.05 2018.3 2000.94 2019.63M1964.36 1992.99V1914.91C1956.47 1916.24 1941.4 1920.04 1941.4 1920.04V2001.1C1941.4 2001.1 1941.4 2002.75 1941.4 2012.02L1964.36 2014.33M273.112 1981.41V1921.03C265.759 1918.88 250.158 1915.91 250.158 1915.91V2017.64L273.112 2014.33V1981.41ZM236.888 1913.92C229.535 1912.93 213.933 1912.43 213.933 1912.43V1984.39C213.933 1984.39 213.933 2017.97 213.933 2023.93L236.888 2019.63V1913.92ZM200.663 2026.57L177.53 2031.87C177.53 2026.9 177.53 1984.39 177.53 1984.39V1913.92C177.53 1913.92 192.414 1912.43 200.484 1912.43V1984.39L200.663 2026.57ZM164.08 2035.34L141.485 2041.46C141.485 2029.22 141.485 1996.14 141.485 1996.14V1921.03C141.485 1921.03 156.369 1917.23 164.439 1915.91V2035.34H164.08Z" fill="#96989A"/>
<path d="M1028.44 2005.07C1053.54 2017.48 1080.44 2026.24 1108.6 2031.04H1109.67C1112.9 2031.04 1115.59 2028.72 1115.77 2025.75C1116.49 2003.08 1113.44 1980.42 1106.63 1958.75C1106.09 1957.1 1104.83 1955.94 1103.22 1955.28C1068.61 1940.72 1036.69 1921.53 1008.35 1898.37C992.932 1885.63 980.379 1870.25 971.412 1853.05C970.516 1851.23 968.543 1849.9 966.391 1849.74C964.239 1849.57 962.087 1850.4 960.832 1852.05C947.741 1869.42 938.237 1888.94 933.216 1909.45C932.857 1910.61 932.857 1911.77 933.216 1912.93C952.762 1952.3 986.117 1984.56 1027.9 2004.74" fill="#D71F16"/>
<path d="M1016.61 1889.6C1017.86 1890.59 1019.3 1891.09 1020.91 1891.09C1022.7 1890.92 1024.32 1890.09 1025.39 1888.77C1056.42 1847.08 1102.68 1816.81 1155.94 1803.41C1158.63 1802.75 1160.43 1800.6 1160.61 1798.12C1160.61 1795.64 1158.81 1793.32 1156.3 1792.66C1094.08 1774.13 1025.75 1789.19 979.485 1831.37C978.05 1832.86 977.333 1834.84 977.871 1836.66C984.865 1857.34 998.135 1875.54 1016.07 1889.6" fill="#D71F16"/>
<path d="M1035.26 1896.99C1033.29 1899.47 1033.83 1902.94 1036.34 1904.76C1057.86 1919.65 1080.99 1932.72 1105.2 1943.47C1107.71 1944.47 1110.76 1943.97 1112.55 1941.98C1148.24 1905.26 1197.02 1881.11 1250.28 1873.83C1252.25 1873.5 1254.04 1872.34 1254.94 1870.69C1255.84 1869.03 1255.66 1867.05 1254.76 1865.56C1241.31 1843.72 1222.3 1825.2 1199.53 1811.47C1198.63 1810.8 1197.38 1810.47 1196.3 1810.47C1173.53 1810.64 1150.93 1815.27 1130.13 1824.04C1091.75 1840.25 1058.76 1865.39 1034.55 1897.15" fill="#D71F16"/>
<path d="M1265.52 1887.56C1264.44 1885.08 1261.75 1883.59 1259.06 1883.92C1245.61 1885.41 1232.34 1887.89 1219.61 1891.7C1218 1892.03 1216.74 1893.02 1216.02 1894.34C1215.13 1895.67 1215.13 1897.32 1215.67 1898.64C1223.38 1920.98 1228.04 1943.97 1229.3 1967.29C1230.19 1985.66 1228.4 2003.85 1223.92 2021.72C1221.05 2032.8 1216.74 2043.72 1211.54 2053.98C1210.47 2055.63 1210.65 2057.62 1211.72 2059.27C1212.8 2060.92 1214.77 2061.92 1216.92 2061.92C1218.36 2061.92 1219.97 2061.42 1221.05 2060.43C1239.88 2044.55 1254.58 2025.03 1264.08 2003.36C1280.58 1966.3 1281.12 1924.95 1265.52 1887.56Z" fill="#D71F16"/>
<path d="M1111.82 2044.89C1110.93 2043.73 1109.49 2042.9 1107.88 2042.57C1080.26 2037.94 1053.54 2029.67 1028.61 2018.09C993.108 2001.88 962.801 1977.56 940.564 1947.62C938.95 1945.47 936.081 1944.64 933.571 1945.3C930.881 1946.13 929.087 1948.44 929.267 1950.93C930.163 1969.95 934.647 1988.64 942.896 2006.01C967.105 2058.29 1019.83 2094.68 1081.52 2101.46C1083.13 2101.46 1084.92 2100.8 1086 2099.48C1099.45 2085.08 1108.42 2067.55 1112 2049.02C1112.36 2047.53 1112 2046.04 1110.93 2044.72" fill="#D71F16"/>
<path d="M1204.2 1903.13C1203.66 1901.65 1202.41 1900.49 1200.8 1899.83C1199.36 1899.16 1197.57 1899.16 1195.95 1899.83C1166.9 1911.74 1140.9 1929.11 1119.92 1951.11C1118.66 1952.6 1118.3 1954.42 1118.84 1956.23C1124.76 1974.93 1128.17 1994.12 1128.71 2013.64C1129.24 2028.86 1127.63 2044.07 1123.51 2058.96C1120.28 2071.53 1114.54 2083.45 1107.01 2094.36C1105.93 2096.18 1105.93 2098.5 1107.01 2100.32C1108.26 2101.97 1110.23 2102.96 1112.39 2102.96C1130.14 2101.97 1147.54 2098.5 1164.21 2092.71C1164.93 2092.54 1165.65 2092.05 1166.19 2091.55C1183.94 2076.33 1197.57 2057.47 1206 2036.63C1213.35 2017.94 1216.94 1998.25 1216.94 1978.4C1216.94 1952.76 1212.63 1927.29 1204.02 1902.97" fill="#D71F16"/>
<path d="M1033.82 2195.9V2148.59L1020.91 2153.06L1019.66 2144.45L1035.26 2137.84H1045.84V2195.9H1033.82Z" fill="white"/>
<path d="M1059.46 2152.08C1059.46 2142.82 1068.25 2137.03 1080.98 2137.03C1093.71 2137.03 1101.96 2143.15 1101.96 2152.08C1101.6 2158.03 1097.66 2163.33 1091.74 2165.97C1098.91 2167.96 1103.93 2174.08 1104.11 2181.03C1104.11 2190.46 1095.15 2197.4 1080.8 2197.4C1066.45 2197.4 1057.49 2189.96 1057.49 2181.19C1058.2 2174.41 1062.87 2168.62 1069.68 2166.14C1063.76 2163.82 1059.82 2158.53 1059.64 2152.74M1068.96 2180.53C1068.96 2185.99 1073.98 2189.3 1080.98 2189.3C1087.79 2189.3 1092.46 2186.16 1092.46 2181.03C1092.46 2175.9 1088.87 2173.58 1077.93 2169.61C1072.91 2171.43 1069.32 2175.73 1068.78 2180.7M1090.66 2152.74C1090.66 2148.27 1086.9 2145.46 1080.62 2145.46C1074.34 2145.46 1070.76 2148.6 1070.76 2152.74C1070.76 2156.71 1073.98 2159.36 1083.13 2162.67C1087.43 2160.85 1090.3 2157.04 1090.66 2152.74Z" fill="white"/>
<path d="M1139.26 2159.85C1144.46 2159.52 1149.48 2161.34 1153.07 2164.65C1156.65 2168.12 1158.45 2172.76 1157.91 2177.39C1157.91 2182.85 1155.58 2187.98 1151.27 2191.78C1146.97 2195.42 1141.23 2197.4 1135.31 2197.07C1121.5 2197.07 1111.82 2188.64 1111.82 2172.59C1111.82 2154.23 1127.06 2138.85 1147.15 2137.03L1148.58 2146.12C1137.11 2147.28 1127.24 2154.39 1123.48 2164.49C1128.32 2161.34 1134.06 2159.85 1139.98 2160.02M1136.03 2188.64C1139.08 2188.8 1142.13 2187.64 1144.28 2185.66C1146.43 2183.67 1147.51 2181.03 1147.15 2178.22C1147.51 2175.4 1146.61 2172.76 1144.28 2170.77C1142.13 2168.79 1139.08 2167.96 1136.03 2168.46C1131.55 2168.46 1127.06 2169.94 1123.48 2172.59C1123.48 2182.85 1128.68 2188.64 1136.03 2188.64Z" fill="white"/>
<path d="M1175.68 2195.9V2148.59L1162.77 2153.06L1161.33 2144.45L1177.11 2137.84H1187.69V2195.9H1175.68Z" fill="white"/>
</g>
<defs>
<clipPath id="clip0_290_1211">
<rect width="2200" height="2500" fill="white"/>
</clipPath>
</defs>
</svg>
