<svg width="2500" height="2500" viewBox="0 0 2500 2500" fill="none" xmlns="http://www.w3.org/2000/svg">
<path fill-rule="evenodd" clip-rule="evenodd" d="M238.309 479.891H2257.7C2257.7 479.891 2427.88 1787.36 1241.31 2463.49C99.5068 1782.87 238.309 479.891 238.309 479.891Z" fill="#CD3529"/>
<path fill-rule="evenodd" clip-rule="evenodd" d="M1892.32 535.766V1636.77L1752.71 1474.17V535.766H1580.23V1273.29L1499.35 1179.08C1499.35 1179.08 1139.71 904.639 1095.51 902.927C1053.64 901.318 998.376 973.755 998.376 973.755L785.828 966.517L784.868 1055.88C784.868 1055.88 754.026 1035.63 719.448 1049.46C685.325 1063.09 686.272 1077.11 680.734 1102C668.179 1097.38 648.711 1089.73 624.069 1106.16C599.426 1122.6 603.33 1153.15 603.33 1153.15C603.33 1153.15 538.105 1158.85 513.463 1175.29C488.82 1191.72 472.776 1236.57 489.209 1277.61C505.642 1318.65 587.766 1409.01 678.088 1565.07C728.099 1651.53 740.356 1821.02 741.315 1955.1C869.288 2115.7 1032.66 2267.67 1242 2397.06C1541.13 2220.32 1748.5 2000.44 1892.3 1773.47V1774.24C1964.99 1659.66 2021.12 1543.39 2064.76 1429.82V535.766H1892.32Z" fill="white"/>
<path fill-rule="evenodd" clip-rule="evenodd" d="M1484.88 37C1212.6 37 991.061 258.562 991.061 530.876C991.061 803.189 1212.6 1024.75 1484.88 1024.75C1757.22 1024.75 1978.8 803.189 1978.8 530.876C1978.8 258.562 1757.22 37 1484.88 37Z" fill="black"/>
<path fill-rule="evenodd" clip-rule="evenodd" d="M1839.04 415.821L1839.06 415.808L1841.78 221.118C1818.28 193.984 1791.74 169.643 1762.69 148.579C1733.65 127.466 1702.3 109.747 1669.24 95.7656L1484.87 158.526V158.513L1300.59 95.7656C1267.53 109.753 1236.19 127.472 1207.16 148.579C1178.11 169.635 1151.57 193.967 1128.07 221.092L1130.8 415.821L1014.15 571.743C1017.24 607.501 1024.39 642.79 1035.47 676.928C1046.55 711.064 1061.5 743.819 1080.03 774.551L1266.06 832.124L1378.25 991.263C1412.55 999.227 1448.29 1003.44 1484.87 1003.44C1521.58 1003.44 1557.22 999.227 1591.55 991.263L1703.76 832.124L1889.83 774.59C1908.33 743.83 1923.26 711.06 1934.34 676.915C1945.46 642.79 1952.62 607.502 1955.69 571.743L1839.04 415.821ZM1454.28 702.491H1360.22V702.465L1312.27 554.804L1312.25 554.792L1283.19 465.365L1408.82 374.071L1484.89 318.794L1610.51 410.075L1610.56 410.049L1686.66 465.313H1686.63L1638.63 613.026L1638.66 613.039L1609.6 702.478L1454.28 702.491Z" fill="white"/>
<path fill-rule="evenodd" clip-rule="evenodd" d="M1240.99 1424.97L1213.86 1448.91L1712.28 2012.46C1720.39 2003.32 1728.52 1994.18 1736.37 1984.95L1240.99 1424.97ZM1193.93 1466.44L1166.83 1490.3L1669.55 2059.08C1677.92 2050.26 1686.2 2041.35 1694.37 2032.35L1193.93 1466.44ZM1146.94 1507.8L1119.81 1531.71L1202.2 1623.69C1202.2 1623.69 1202.2 1623.72 1202.25 1623.72C1173.92 1611.1 1149.41 1602.22 1147.75 1601.91L1094.75 1546.46L1068.36 1571.18L1134.38 1640.92C1134.38 1640.92 1201.94 1648.92 1229.8 1678.79C1237.36 1686.87 1249.66 1706.3 1253.26 1726.13C1256.73 1745 1252.83 1767.14 1240 1783.25C1200.42 1833.03 1090.42 1833.43 1046.84 1826.59L1427.49 2273.44C1436.46 2266.72 1445.51 2260.04 1454.26 2253.25L1115.4 1864.78C1131.11 1863.85 1146.74 1861.9 1162.2 1858.93L1485.53 2228.46C1494.97 2220.83 1504.34 2213.1 1513.63 2205.28L1201.25 1848.38C1210.2 1845.17 1218.89 1841.34 1227.02 1836.96L1534.27 2187.85C1543.43 2179.92 1552.52 2171.9 1561.54 2163.79L1256.54 1815.71C1260.34 1812.17 1263.89 1808.37 1267.16 1804.34C1269.34 1801.5 1271.36 1798.64 1273.19 1795.67L1580.82 2146.44C1589.78 2138.2 1598.45 2129.88 1607.16 2121.51L1285.98 1755.78C1286.01 1755.83 1285.98 1755.86 1285.98 1755.91C1287.2 1740.89 1285.19 1725.87 1281.17 1711.93L1625.78 2103.76C1634.36 2095.3 1642.62 2086.74 1650.98 2078.22L1146.94 1507.8ZM1336.61 1429.84C1322.43 1432.44 1308.07 1433.94 1293.66 1434.32L1292.83 1435.09L1757.11 1960.01C1764.91 1950.49 1772.66 1940.96 1780.23 1931.39L1336.61 1429.84ZM1401.57 1396.37C1394.47 1405.94 1384.37 1413.17 1372.86 1418.54L1801.9 1903.54C1809.43 1893.61 1816.68 1883.69 1823.94 1873.73L1401.57 1396.37ZM1429.15 1319.66C1427.03 1334.12 1423.52 1348.35 1418.66 1362.13L1845.17 1843.96C1852.32 1833.75 1859.44 1823.57 1866.3 1813.31L1429.15 1319.66ZM1892.32 1774.23C1897.13 1766.61 1901.69 1758.98 1906.38 1751.36L1404.23 1185.15C1404.46 1200.59 1404.15 1222.85 1401.06 1235.79L1886.08 1783C1888.1 1779.84 1890.28 1776.65 1892.3 1773.48V1774.23H1892.32ZM1490.95 1169.83C1490.16 1168.92 1489.26 1168.11 1488.27 1167.42L1486.97 1169.67L1498.19 1178.17L1490.95 1169.83ZM1892.32 1636.77V1633.27L1752.71 1472.08V1474.17L1892.32 1636.77ZM1580.23 1272.93L1544.58 1231.76L1580.23 1273.28V1272.93Z" fill="black"/>
<path fill-rule="evenodd" clip-rule="evenodd" d="M1892.32 1633.27V1636.77L1752.71 1474.17V1472.09L1580.23 1272.94V1273.29L1544.58 1231.76L1498.2 1178.18L1486.99 1169.69L1471.86 1196.03C1493.02 1220.59 1712.06 1473.43 1925.43 1719.75C1931.11 1710.1 1936.73 1700.48 1942.17 1690.83L1892.32 1633.27Z" fill="black"/>
</svg>
