<svg width="2500" height="2500" viewBox="0 0 2500 2500" fill="none" xmlns="http://www.w3.org/2000/svg">
<path d="M1129.86 2497.04C826.358 2442.41 548.739 2298.67 336.399 2086.24C122.54 1870.64 1.56102 1604.65 0 1341.03V0H2300V1340.88C2296.88 1606.87 2177.62 1870.49 1963.76 2086.24C1751.64 2298.95 1473.92 2442.73 1170.29 2497.04L1150.16 2500L1129.86 2497.04Z" fill="#5F0041"/>
<path d="M71.3354 67.8242V1341.32C74.4575 1589.28 187.631 1837.24 389.002 2041.17C591.121 2243.11 855.121 2379.88 1143.75 2432.17L1150 2433.65L1156.24 2432.17C1445.19 2380.27 1709.39 2243.14 1910.99 2040.43C2112.52 1836.5 2225.69 1588.54 2228.66 1339.1V67.8242H71.3354ZM2157.48 1339.84C2152.79 1813.75 1709.62 2262.68 1150 2365.38C588.968 2264.15 147.201 1813.75 142.518 1341.32V135.06H2158.88V1339.55L2157.48 1339.84Z" fill="white"/>
<path d="M519.196 1760.56C527.001 1759.09 531.528 1757.61 534.806 1750.22C538.084 1742.83 537.928 1729.68 517.791 1722.29L474.395 1706.18L443.174 1780.96L488.132 1797.06C491.347 1798.76 494.9 1799.81 498.565 1800.14C502.231 1800.46 505.928 1800.07 509.422 1798.97C512.916 1797.87 516.131 1796.1 518.862 1793.76C521.593 1791.42 523.779 1788.57 525.284 1785.39C527.487 1781.23 528.085 1776.47 526.973 1771.94C525.862 1767.4 523.11 1763.38 519.196 1760.56ZM502.181 1772.24C501.794 1773.39 501.104 1774.42 500.177 1775.25C499.25 1776.07 498.116 1776.66 496.882 1776.96C495.648 1777.25 494.354 1777.25 493.124 1776.94C491.893 1776.63 490.766 1776.03 489.849 1775.19L475.956 1769.28L482.2 1756.13L497.81 1762.04C502.181 1765 503.742 1767.21 502.181 1772.24ZM509.986 1744.31C508.425 1748.74 503.742 1748.74 499.215 1747.26L486.883 1742.83L491.566 1731.16L503.898 1735.59C510.142 1738.55 511.703 1741.5 510.142 1744.46L509.986 1744.31Z" fill="white"/>
<path d="M578.043 1744.43L554.784 1734.24L533.086 1778.57C523.72 1799.11 529.964 1813.74 553.223 1824.08C576.482 1834.43 593.497 1829.99 602.863 1809.31L624.561 1764.98L601.302 1754.63L581.165 1794.23C578.043 1801.62 573.36 1810.34 561.028 1805.91C548.696 1801.47 554.784 1791.13 557.906 1783.89L578.043 1744.43Z" fill="white"/>
<path d="M615.356 1853.03L630.966 1828.06L643.298 1833.97C652.664 1838.4 647.981 1845.64 644.859 1853.03C643.298 1857.46 641.737 1860.42 640.176 1864.7L663.435 1876.38C664.568 1870.72 666.678 1865.28 669.679 1860.27C671.987 1856.74 673.21 1852.67 673.21 1848.52C673.21 1844.37 671.987 1840.3 669.679 1836.77C674.119 1837.14 678.57 1836.21 682.445 1834.13C686.319 1832.05 689.434 1828.9 691.377 1825.1C693.144 1822.28 694.229 1819.13 694.554 1815.87C694.88 1812.6 694.436 1809.31 693.257 1806.23C692.078 1803.15 690.191 1800.36 687.734 1798.05C685.276 1795.74 682.309 1793.98 679.045 1792.89L634.868 1769.39L593.033 1838.4L615.356 1853.03ZM647.825 1800.27L658.596 1806.19C667.962 1810.62 667.962 1815.05 664.84 1819.34C661.718 1823.62 655.474 1823.77 650.947 1820.82L638.615 1814.9L647.825 1800.27Z" fill="white"/>
<path d="M683.565 1894.14L712.912 1860.3L703.546 1908.77L723.683 1924.87L776.446 1861.78L757.869 1847L728.522 1880.84L737.888 1832.37L717.751 1816.26L663.584 1879.36L683.565 1894.14Z" fill="white"/>
<path d="M781.133 1967.42L795.026 1951.31L765.523 1930.77L804.237 1882.3L782.538 1867.52L731.337 1930.62L781.133 1967.42Z" fill="white"/>
<path d="M847.785 2011.47L860.117 1993.89L822.184 1970.39L828.428 1961.52L862.458 1982.07L873.23 1967.29L840.76 1945.27L845.443 1937.88L882.595 1959.9L890.401 1951.03V1999.5L874.79 2024.48L896.488 2037.63L912.099 2011.18L964.861 1980.44L940.041 1967.29L912.099 1986.35L915.221 1954.14L895.084 1943.94L836.233 1907.29L789.403 1973.35L847.785 2011.47Z" fill="white"/>
<path d="M984.22 2074.55L994.991 2044.99L1027.46 2055.34L1033.7 2037.75L1001.23 2027.41L1005.92 2017.21L1043.07 2030.36L1049.31 2011.3L988.903 1990.76L959.399 2065.53L984.22 2074.55Z" fill="white"/>
<path d="M1038.39 2049.61C1036.9 2054.93 1036.62 2060.49 1037.56 2065.91C1038.51 2071.34 1040.66 2076.52 1043.88 2081.1C1047.1 2085.68 1051.3 2089.56 1056.22 2092.49C1061.14 2095.42 1066.66 2097.33 1072.42 2098.08C1078.14 2099.25 1084.05 2099.3 1089.78 2098.21C1095.52 2097.13 1100.96 2094.94 1105.76 2091.78C1110.57 2088.62 1114.63 2084.56 1117.7 2079.84C1120.78 2075.13 1122.79 2069.87 1123.62 2064.39C1125.11 2059.07 1125.4 2053.52 1124.45 2048.09C1123.5 2042.66 1121.35 2037.48 1118.13 2032.9C1114.92 2028.32 1110.71 2024.44 1105.79 2021.51C1100.87 2018.58 1095.35 2016.68 1089.59 2015.92C1083.87 2014.7 1077.95 2014.62 1072.19 2015.69C1066.44 2016.76 1060.98 2018.94 1056.17 2022.11C1051.35 2025.28 1047.28 2029.36 1044.22 2034.09C1041.17 2038.83 1039.18 2044.11 1038.39 2049.61ZM1063.21 2055.52C1066.33 2037.94 1077.1 2036.46 1084.91 2036.46C1092.71 2036.46 1100.52 2043.85 1097.24 2061.43C1093.96 2079.02 1083.35 2080.5 1075.54 2080.5C1067.74 2080.5 1060.09 2073.11 1063.21 2055.52Z" fill="white"/>
<path d="M1168.57 2109.76C1174.41 2110.2 1180.28 2109.44 1185.78 2107.53C1191.28 2105.63 1196.28 2102.63 1200.44 2098.73C1204.61 2094.83 1207.83 2090.13 1209.9 2084.94C1211.97 2079.76 1212.84 2074.21 1212.44 2068.68C1212.92 2063.22 1212.19 2057.74 1210.3 2052.56C1208.4 2047.39 1205.39 2042.65 1201.45 2038.65C1197.52 2034.64 1192.74 2031.46 1187.43 2029.3C1182.11 2027.14 1176.38 2026.06 1170.6 2026.12C1164.8 2025.75 1158.99 2026.56 1153.54 2028.49C1148.1 2030.42 1143.16 2033.44 1139.05 2037.33C1134.94 2041.22 1131.75 2045.9 1129.71 2051.05C1127.67 2056.2 1126.81 2061.71 1127.21 2067.2C1126.73 2072.62 1127.45 2078.07 1129.31 2083.21C1131.17 2088.35 1134.14 2093.07 1138.03 2097.07C1141.92 2101.07 1146.64 2104.26 1151.9 2106.44C1157.15 2108.63 1162.83 2109.76 1168.57 2109.76ZM1170.13 2045.18C1176.38 2045.18 1187.15 2049.61 1187.15 2067.2C1187.15 2084.78 1176.38 2089.22 1170.13 2089.22C1163.89 2089.22 1153.12 2084.78 1153.12 2067.2C1153.12 2049.61 1162.49 2045.18 1170.13 2045.18Z" fill="white"/>
<path d="M1235.23 2043.66L1246.16 2103.81L1270.98 2099.38L1261.61 2040.27L1284.87 2035.83L1281.75 2015.29L1208.85 2026.97L1212.44 2047.95L1235.23 2043.66Z" fill="white"/>
<path d="M1357.62 2076.06C1361.16 2075.24 1364.49 2073.73 1367.38 2071.63C1370.28 2069.52 1372.67 2066.87 1374.42 2063.84C1376.17 2060.81 1377.23 2057.46 1377.54 2054.02C1377.84 2050.58 1377.38 2047.11 1376.19 2043.85C1374.99 2039.36 1372.16 2035.42 1368.19 2032.71C1364.22 2030.01 1359.37 2028.72 1354.5 2029.07C1357.23 2027.05 1359.17 2024.22 1360.02 2021.04C1360.87 2017.85 1360.57 2014.49 1359.18 2011.49C1356.06 2004.1 1348.25 1993.9 1326.55 2001.29L1283.16 2016.07L1311.1 2090.84L1357.62 2076.06ZM1351.37 2049.61C1351.78 2050.67 1351.94 2051.8 1351.83 2052.91C1351.73 2054.03 1351.36 2055.12 1350.77 2056.09C1350.17 2057.06 1349.36 2057.9 1348.38 2058.54C1347.41 2059.18 1346.3 2059.62 1345.13 2059.81L1331.24 2064.24L1326.55 2049.46L1342.16 2043.55C1344.18 2043.49 1346.17 2044.03 1347.85 2045.09C1349.53 2046.15 1350.81 2047.68 1351.53 2049.46L1351.37 2049.61ZM1328.11 2020.06C1332.8 2018.58 1337.48 2018.58 1338.89 2023.01C1340.29 2027.45 1337.32 2030.4 1332.64 2031.88L1320.31 2036.31L1315.63 2024.64L1328.11 2020.06Z" fill="white"/>
<path d="M1408.82 2055.52L1407.26 2043.84L1430.52 2032.17L1439.88 2041.03L1463.14 2029.36L1396.49 1972.17L1373.23 1983.85L1385.56 2068.96L1408.82 2055.52ZM1398.05 1999.81L1416.62 2018.87L1402.73 2026.26L1398.05 1999.81Z" fill="white"/>
<path d="M1518.87 1990.92L1508.1 1974.82L1475.47 1993.88L1441.44 1944.52L1419.75 1957.68L1466.58 2025.21L1518.87 1990.92Z" fill="white"/>
<path d="M1576.16 1951.33L1563.83 1933.74L1534.32 1955.76L1495.61 1907.29L1475.47 1922.07L1526.67 1986.65L1576.16 1951.33Z" fill="white"/>
<path d="M1639.69 1905.79C1643.61 1903.12 1646.92 1899.74 1649.44 1895.85C1651.96 1891.95 1653.64 1887.62 1654.36 1883.11C1655.09 1878.59 1654.86 1873.98 1653.68 1869.56C1652.5 1865.13 1650.39 1860.97 1647.49 1857.32L1627.35 1872.1C1630.48 1879.48 1632.04 1885.25 1625.79 1891.16C1616.43 1898.55 1605.66 1891.16 1599.41 1883.77C1593.17 1876.38 1588.64 1864.71 1597.85 1857.32C1600.56 1855.27 1604 1854.29 1607.45 1854.56C1610.9 1854.84 1614.12 1856.35 1616.43 1858.8L1636.57 1844.02C1633.5 1840.51 1629.71 1837.64 1625.42 1835.57C1621.13 1833.51 1616.44 1832.3 1611.64 1832.03C1606.84 1831.75 1602.03 1832.41 1597.51 1833.96C1592.99 1835.52 1588.86 1837.93 1585.36 1841.06C1580.48 1844.3 1576.39 1848.49 1573.38 1853.35C1570.36 1858.22 1568.5 1863.65 1567.91 1869.26C1567.31 1874.87 1568.01 1880.54 1569.94 1885.88C1571.88 1891.21 1575.01 1896.09 1579.12 1900.17C1582.61 1904.4 1586.97 1907.92 1591.93 1910.52C1596.89 1913.12 1602.36 1914.74 1608 1915.29C1613.64 1915.84 1619.34 1915.31 1624.76 1913.73C1630.17 1912.15 1635.2 1909.55 1639.53 1906.08L1639.69 1905.79Z" fill="white"/>
<path d="M1723.52 1841.07L1709.62 1824.96L1680.74 1847.13L1643.59 1798.66L1621.89 1813.43L1673.09 1878.01L1723.52 1841.07Z" fill="white"/>
<path d="M1758.8 1822.17C1780.5 1809.02 1786.74 1794.24 1774.41 1775.18L1748.03 1732.62L1726.33 1745.77L1749.59 1783.9C1754.27 1791.29 1758.95 1800 1749.59 1805.92C1740.22 1811.83 1732.57 1802.96 1729.45 1795.72L1706.19 1757.59L1684.49 1770.75L1710.88 1813.3C1720.24 1830.89 1737.26 1833.84 1758.95 1822.17H1758.8Z" fill="white"/>
<path d="M1839.65 1785.54C1843.2 1784.72 1846.52 1783.21 1849.42 1781.11C1852.31 1779.01 1854.71 1776.35 1856.46 1773.32C1858.21 1770.29 1859.27 1766.94 1859.57 1763.5C1859.88 1760.06 1859.42 1756.59 1858.23 1753.33C1857.03 1748.84 1854.2 1744.9 1850.23 1742.2C1846.26 1739.49 1841.41 1738.2 1836.53 1738.55C1839.27 1736.53 1841.21 1733.7 1842.06 1730.52C1842.91 1727.34 1842.61 1723.97 1841.21 1720.97C1838.09 1713.58 1828.88 1703.38 1808.75 1710.77L1765.35 1725.55L1793.29 1800.32L1839.65 1785.54ZM1833.41 1759.09C1833.79 1760.15 1833.92 1761.27 1833.81 1762.38C1833.69 1763.49 1833.32 1764.57 1832.73 1765.53C1832.14 1766.5 1831.34 1767.33 1830.38 1767.98C1829.42 1768.63 1828.32 1769.07 1827.17 1769.29L1813.27 1773.72L1808.59 1758.94L1824.2 1753.03C1826.26 1752.75 1828.35 1753.2 1830.08 1754.29C1831.81 1755.38 1833.05 1757.04 1833.57 1758.94L1833.41 1759.09ZM1810.15 1729.54C1814.83 1728.06 1819.52 1728.06 1821.08 1732.49C1822.64 1736.93 1819.52 1739.88 1814.83 1741.36L1802.5 1745.79L1797.82 1734.12L1810.15 1729.54Z" fill="white"/>
<path d="M1968.28 1607.88L1963.6 1603.45H1961.73C1989.73 1557.24 2001.13 1503.67 1994.2 1450.8C1991.67 1438.93 1985.15 1428.15 1975.62 1420.06C1958.61 1405.29 1930.66 1399.52 1893.51 1403.96C1853.24 1408.39 1823.73 1421.54 1812.96 1442.08L1811.4 1443.56C1806.06 1454.03 1803.9 1465.69 1805.16 1477.25C1807.54 1490.11 1810.67 1502.84 1814.52 1515.38C1792.36 1517.34 1770.51 1521.75 1749.43 1528.53C1729.29 1535.92 1718.21 1544.64 1715.4 1556.46C1714.65 1558.06 1714.26 1559.8 1714.26 1561.56C1714.26 1563.31 1714.65 1565.05 1715.4 1566.65C1712.84 1607.25 1713.88 1647.98 1718.52 1688.42C1662.73 1711.11 1610.98 1741.82 1565.07 1779.44C1351.21 1967.26 1180.75 1973.17 1160.61 1973.17H1159.05C1157.49 1973.17 979.224 1976.13 754.594 1779.44C709.555 1745.65 660.074 1717.54 607.391 1695.81C613.713 1649.1 614.76 1601.89 610.513 1554.98C607.936 1547.9 603.433 1541.59 597.459 1536.69C591.484 1531.79 584.248 1528.46 576.482 1527.05C555.401 1520.28 533.554 1515.86 511.388 1513.9C515.97 1501.55 519.111 1488.77 520.754 1475.77C522.613 1464.2 520.42 1452.37 514.51 1442.08C514.51 1440.6 512.949 1440.6 512.949 1439.13C500.617 1418.59 472.675 1403.96 432.401 1401C395.249 1398.05 367.307 1402.48 350.292 1417.11C340.76 1425.19 334.243 1435.97 331.715 1447.85C325.535 1499.9 339.27 1552.33 370.428 1595.62C369.23 1595.73 368.117 1596.25 367.307 1597.09C366.465 1597.9 365.368 1598.42 364.185 1598.57C361.395 1599.73 359.167 1601.84 357.94 1604.48C351.35 1611.41 346.069 1619.36 342.33 1627.98C331.559 1651.47 325.315 1701.86 373.55 1805.3L375.112 1808.26L378.234 1809.74C479.011 1840.24 573.029 1887.97 655.626 1950.56C756.312 2025.34 877.29 2106.02 1005.92 2141.34L1016.69 2144.29C1034.38 2149.23 1052.51 2152.64 1070.86 2154.49L1083.19 2155.97C1085.88 2155.86 1088.55 2156.37 1090.99 2157.44H1097.24C1117.37 2158.92 1137.51 2160.4 1157.65 2160.4C1168.08 2160.65 1178.52 2160.16 1188.87 2158.92C1216.49 2157.55 1243.94 2154.09 1270.98 2148.58C1284.67 2146.22 1298.14 2142.81 1311.25 2138.38C1429.11 2106.17 1553.05 2037.16 1659.98 1947.61C1800.47 1829.39 1934.25 1808.26 1935.81 1808.26H1940.5L1942.06 1803.83C1980.77 1705.56 1985.45 1656.06 1980.77 1630.64C1982.33 1623.25 1972.97 1613.05 1968.44 1607.14L1968.28 1607.88ZM1827.79 1446.52C1838.56 1430.41 1861.82 1420.06 1896.01 1416.96C1902.25 1416.96 1908.34 1415.48 1914.59 1415.48C1923.73 1414.64 1932.96 1415.5 1941.74 1418.04C1950.53 1420.58 1958.7 1424.73 1965.79 1430.26C1972.54 1436.19 1977.37 1443.83 1979.68 1452.28V1459.67C1975 1486.12 1953.3 1497.79 1916.15 1504L1905.38 1457.01L1897.57 1458.49C1841.84 1473.26 1829.35 1464.4 1826.23 1461.44C1823.11 1458.49 1827.79 1446.66 1827.79 1446.66V1446.52ZM1826.23 1478.73C1840.12 1484.64 1863.38 1483.16 1894.45 1475.77L1902.25 1507.99C1889.87 1509.47 1875.92 1510.94 1860.42 1512.42H1858.86C1855.65 1512.18 1852.44 1512.69 1849.49 1513.9C1845.78 1513.66 1842.05 1514.16 1838.56 1515.38H1832.32C1831.7 1512.77 1830.65 1510.28 1829.2 1507.99C1827.64 1503.56 1826.08 1497.79 1824.51 1491.88C1822.72 1487.12 1821.67 1482.15 1821.39 1477.1C1822.95 1477.1 1824.51 1478.58 1826.08 1478.58L1826.23 1478.73ZM1731.17 1560.3C1732.73 1552.91 1741.94 1547.15 1755.99 1541.24C1777.07 1534.46 1798.91 1530.05 1821.08 1528.09C1823.78 1528.32 1826.49 1527.81 1828.88 1526.61C1838.25 1525.13 1845.9 1525.13 1855.27 1523.65H1866.19C1869.4 1523.89 1872.61 1523.38 1875.56 1522.17C1890.65 1521.03 1905.66 1519.05 1920.52 1516.26C1932.25 1514.87 1943.71 1511.88 1954.55 1507.4C1961.72 1504.89 1968.5 1501.46 1974.68 1497.2C1977.81 1494.25 1982.49 1491.29 1985.45 1488.34V1497.2C1983.21 1531.34 1972.51 1564.49 1954.23 1593.99C1948.49 1590.93 1942.19 1588.93 1935.66 1588.08C1903.5 1582.22 1870.84 1579.26 1838.09 1579.21C1811.71 1577.74 1783.93 1577.74 1763.63 1574.78C1754.36 1574.26 1745.33 1571.73 1737.25 1567.39C1731.01 1565.92 1731.01 1562.96 1731.01 1560L1731.17 1560.3ZM1729.6 1585.27V1582.32C1746.62 1587.76 1764.41 1590.74 1782.37 1591.18C1793.14 1591.18 1804.06 1592.66 1816.4 1592.66H1832.01C1863.68 1593.1 1895.28 1595.57 1926.6 1600.05C1932.85 1601.53 1937.38 1603.01 1942.21 1604.48C1947.05 1605.96 1946.9 1605.96 1948.46 1607.44C1956.26 1611.87 1956.26 1614.83 1956.26 1614.83C1956.26 1617.78 1953.14 1622.22 1943.93 1626.5C1937.99 1629.49 1931.77 1631.96 1925.36 1633.89C1908.2 1639.04 1890.51 1642.45 1872.59 1644.09C1824.78 1651.33 1777.96 1663.62 1733.04 1680.73C1729.92 1645.56 1729.92 1606.85 1729.92 1585.42L1729.6 1585.27ZM508.266 1475.18C507.838 1480.21 506.791 1485.17 505.144 1489.96C503.583 1495.87 502.022 1500.16 500.461 1506.07C498.9 1509.02 498.9 1510.5 497.339 1513.46H491.095C487.383 1513.7 483.659 1513.2 480.168 1511.98C476.965 1512.22 473.75 1511.71 470.802 1510.5H469.241C453.735 1509.02 439.79 1507.55 427.406 1506.07L435.211 1473.85C467.68 1481.24 489.378 1482.72 503.427 1476.81C506.861 1477.4 508.422 1477.4 508.422 1475.92L508.266 1475.18ZM362.623 1428.19C376.516 1416.52 401.337 1412.09 433.962 1415.04C466.587 1418 492.812 1428.19 502.178 1444.59C503.64 1447.02 504.536 1449.71 504.805 1452.49C505.075 1455.27 504.711 1458.07 503.739 1460.7C500.617 1463.66 488.129 1472.38 432.401 1457.75L424.596 1456.27L413.669 1503.26C376.517 1497.35 353.257 1485.68 350.135 1458.93V1451.54C351.006 1442.75 355.491 1434.63 362.623 1428.93V1428.19ZM350.292 1498.68C350.292 1495.72 348.73 1492.77 348.73 1489.81C351.448 1492.7 354.605 1495.19 358.097 1497.2C364.284 1501.46 371.06 1504.89 378.234 1507.4C388.525 1511.88 399.471 1514.87 410.703 1516.26C425.556 1519.05 440.567 1521.03 455.66 1522.17C458.863 1521.94 462.078 1522.44 465.026 1523.65H475.953C484.821 1523.91 493.648 1524.9 502.334 1526.61C505.032 1526.37 507.746 1526.88 510.139 1528.09C532.305 1530.05 554.152 1534.46 575.234 1541.24C589.127 1547.15 598.493 1552.91 600.054 1560.3C600.564 1561.79 600.688 1563.37 600.417 1564.91C600.145 1566.46 599.485 1567.92 598.493 1569.17C590.277 1573.2 581.322 1575.71 572.112 1576.55C551.975 1579.51 524.033 1579.51 497.651 1580.99C464.908 1581.03 432.242 1584 400.088 1589.85C395.405 1591.33 392.283 1592.81 387.756 1594.29C368.547 1565.29 355.897 1532.83 350.604 1498.97L350.292 1498.68ZM373.55 1616.9V1613.94C375.829 1611.62 378.459 1609.62 381.356 1608.03C382.917 1606.55 386.039 1606.55 387.6 1605.07C389.161 1603.6 392.283 1603.6 395.405 1602.12C397.973 1601.48 400.58 1600.99 403.21 1600.64C434.307 1594.54 466.075 1592.06 497.807 1593.25C505.593 1593.49 513.385 1593 521.067 1591.78C533.399 1591.78 544.326 1590.3 553.536 1590.3C569.561 1589.86 585.394 1586.86 600.366 1581.43V1584.39C601.584 1619.67 600.019 1654.98 595.683 1690.04C549.079 1670.06 500.214 1655.19 450.04 1645.71C437.481 1643.46 425.075 1640.5 412.888 1636.85C409.766 1635.37 406.644 1635.37 403.522 1633.89C373.55 1625.62 373.55 1619.41 373.55 1618.23V1616.9ZM1932.69 1798.8C1907.87 1803.24 1785.49 1831.02 1653.74 1941.11C1548.37 2029.77 1425.99 2096.56 1310.32 2128.93C1297.59 2132.55 1284.67 2135.51 1271.6 2137.79C1245.63 2143.34 1219.21 2146.75 1192.62 2147.99C1162.62 2149.94 1132.48 2148.95 1102.7 2145.03H1096.46C1094.26 2145.25 1092.04 2144.73 1090.21 2143.55L1077.88 2142.08C1063.64 2140.53 1049.62 2137.56 1036.05 2133.21L1026.68 2130.26C896.491 2096.56 774.107 2014.4 671.704 1939.48C587.64 1877.82 493.385 1829.74 392.751 1797.18C345.921 1691.52 355.599 1647.49 364.809 1631.38C364.809 1629.9 366.37 1629.9 366.37 1628.42C369.877 1632.06 374.056 1635.07 378.702 1637.29C382.65 1639.55 386.772 1641.53 391.034 1643.2C410.291 1649.68 429.944 1655.06 449.884 1659.31C483.914 1666.7 514.978 1675.41 543.545 1684.28C554.316 1688.71 565.243 1691.67 576.014 1695.95C585.603 1699.23 594.94 1703.13 603.956 1707.63C656.027 1728.99 704.977 1756.6 749.599 1789.79C977.351 1989.28 1155.46 1987.8 1163.42 1987.8H1164.99C1185.12 1987.8 1360.27 1981.89 1578.81 1791.27C1622.1 1754.61 1671.26 1724.68 1724.45 1702.6C1726.01 1701.13 1729.14 1701.13 1732.26 1699.65C1740.06 1696.69 1747.87 1693.74 1757.08 1690.78C1796.63 1676.54 1837.65 1666.24 1879.46 1660.05C1902.32 1657.41 1924.72 1652 1946.12 1643.94C1950.38 1642.26 1954.5 1640.29 1958.45 1638.03C1963.1 1635.81 1967.27 1632.8 1970.78 1629.16C1970.78 1630.64 1972.34 1632.12 1972.34 1633.59C1973.9 1651.18 1972.34 1698.17 1933.63 1797.92L1932.69 1798.8Z" fill="white"/>
<path d="M1148.44 1631.4C1157.8 1615.29 1142.19 1600.51 1142.19 1603.47C1142.19 1606.42 1134.39 1609.38 1134.39 1609.38C1124.37 1609.39 1114.41 1607.89 1104.88 1604.95C1036.67 1593.27 1058.05 1673.96 1063.05 1691.54C1066.17 1701.74 1058.37 1725.23 1019.65 1722.28C990.149 1719.32 988.432 1733.95 988.432 1733.95C1002.33 1723.61 1011.69 1731 1011.69 1731C1006.93 1731.84 1002.51 1733.93 998.948 1737.04C995.386 1740.15 992.823 1744.15 991.554 1748.58C995.223 1744.8 1000.13 1742.3 1005.49 1741.5C1010.85 1740.69 1016.33 1741.63 1021.06 1744.15C1008.73 1747.1 1008.73 1763.21 1008.73 1763.21C1018.09 1751.54 1027.3 1757.3 1027.3 1757.3C1029.58 1758.52 1032.16 1759.19 1034.78 1759.22C1037.4 1759.26 1039.99 1758.66 1042.31 1757.5C1044.63 1756.34 1046.6 1754.64 1048.04 1752.56C1049.49 1750.49 1050.35 1748.1 1050.56 1745.63C1052.12 1739.71 1062.89 1748.58 1062.89 1748.58C1062 1742.55 1063.09 1736.41 1066.01 1731C1067.58 1728.04 1079.91 1739.86 1079.91 1739.86C1081.78 1737.89 1083.06 1735.48 1083.61 1732.88C1084.16 1730.28 1083.96 1727.59 1083.03 1725.09C1083.03 1722.13 1078.35 1711.93 1081.47 1706.02C1090.83 1694.35 1103.17 1714.89 1103.17 1714.89C1106.29 1698.78 1089.27 1667.9 1087.56 1666.42C1079.75 1657.55 1076.63 1636.87 1110.82 1661.99C1114.66 1664.96 1119.27 1666.94 1124.17 1667.71C1129.07 1668.49 1134.1 1668.04 1138.76 1666.42C1137.31 1654.01 1140.75 1641.54 1148.44 1631.4Z" fill="white"/>
<path d="M1105.04 1452.46C1106.88 1455.06 1107.86 1458.12 1107.86 1461.25C1107.86 1464.38 1106.88 1467.44 1105.04 1470.04C1105.04 1470.04 1123.62 1474.48 1132.98 1465.61C1131.68 1469.76 1131.29 1474.11 1131.82 1478.4C1132.36 1482.7 1133.82 1486.84 1136.11 1490.58C1136.11 1490.58 1150 1483.2 1153.12 1474.48C1153.12 1474.48 1159.36 1475.96 1164.05 1486.15C1168.73 1496.35 1173.41 1497.83 1173.41 1497.83C1173.41 1497.83 1173.41 1483.05 1184.18 1480.24C1187.62 1484.32 1192.26 1487.34 1197.51 1488.92C1202.76 1490.5 1208.4 1490.57 1213.69 1489.11C1213.69 1489.11 1185.75 1474.33 1213.69 1468.57C1213.69 1468.57 1193.55 1462.66 1195.11 1453.79C1191.29 1458.7 1186.02 1462.43 1179.96 1464.5C1173.91 1466.58 1167.34 1466.91 1161.08 1465.46C1162.87 1463.19 1164.09 1460.55 1164.63 1457.76C1165.17 1454.96 1165.03 1452.09 1164.2 1449.36C1159.1 1452.17 1153.41 1453.89 1147.53 1454.4C1141.66 1454.92 1135.73 1454.2 1130.17 1452.31C1130.17 1452.31 1130.17 1436.2 1140.94 1430.29C1140.94 1430.29 1116.12 1427.34 1108.48 1434.73C1107.19 1431.57 1106.8 1428.15 1107.35 1424.8C1107.9 1421.46 1109.36 1418.31 1111.6 1415.66C1111.6 1415.66 1088.34 1423.05 1082.09 1458.22C1080.53 1459.7 1097.7 1461.18 1105.35 1452.31L1105.04 1452.46Z" fill="white"/>
<path d="M951.597 1540.51C951.597 1540.51 929.899 1556.62 946.914 1574.21C946.914 1574.21 948.475 1552.19 962.524 1558.1C962.524 1558.1 939.265 1574.21 962.524 1587.65C962.524 1587.65 960.963 1565.64 979.539 1570.07C990.31 1573.02 998.115 1559.87 998.115 1559.87C1001.29 1558 1005.07 1557.27 1008.76 1557.81C1012.46 1558.35 1015.83 1560.13 1018.25 1562.83C1023.12 1569.67 1030.18 1574.85 1038.39 1577.61C1038.39 1577.61 1030.58 1567.26 1038.39 1562.83C1038.39 1562.83 1050.72 1574.5 1060.09 1574.5C1060.09 1574.5 1049.16 1562.83 1060.09 1561.35C1061.9 1561.37 1063.65 1561.96 1065.07 1563.03C1066.48 1564.1 1067.47 1565.59 1067.89 1567.26C1069.45 1574.65 1088.03 1577.61 1089.59 1577.61C1091.15 1577.61 1078.82 1568.74 1084.91 1560.02V1558.54C1091.15 1549.68 1097.24 1552.63 1097.24 1552.63C1120.5 1546.72 1118.94 1523.08 1118.94 1517.46C1119.75 1517.5 1120.53 1517.82 1121.1 1518.37C1121.68 1518.91 1122.02 1519.64 1122.06 1520.42C1125.18 1527.81 1126.74 1545.39 1100.36 1560.02C1100.36 1560.02 1101.92 1580.56 1137.51 1595.19C1137.51 1595.19 1132.83 1568.74 1154.53 1606.86C1156.77 1611.55 1157.8 1616.68 1157.53 1621.82C1157.25 1626.96 1155.69 1631.96 1152.97 1636.42C1145.16 1651.2 1135.95 1676.02 1165.3 1692.13C1194.65 1708.24 1213.38 1728.78 1199.33 1778.72C1196.83 1783.51 1192.75 1787.38 1187.7 1789.76C1182.66 1792.14 1176.92 1792.88 1171.39 1791.87C1152.81 1787.44 1145.01 1780.2 1129.55 1799.26C1129.55 1799.26 1148.13 1790.4 1159.06 1802.22C1159.06 1802.22 1137.36 1796.31 1129.55 1822.76C1129.55 1822.76 1151.25 1811.08 1160.77 1819.8C1156.92 1820.99 1153.61 1823.37 1151.37 1826.56C1149.14 1829.76 1148.1 1833.57 1148.44 1837.39C1148.44 1837.39 1160.77 1828.52 1170.14 1832.95C1185.75 1838.87 1188.72 1830 1193.4 1822.76C1198.08 1815.52 1209.01 1825.71 1224.62 1822.76C1224.62 1822.76 1202.92 1806.65 1215.25 1799.26C1223.06 1794.83 1236.95 1803.7 1243.19 1796.31C1243.19 1796.31 1215.25 1786.11 1229.3 1768.38C1235.55 1760.99 1246.32 1769.86 1252.56 1765.42C1252.56 1765.42 1233.98 1759.51 1236.95 1743.4C1238.51 1733.06 1243.19 1734.54 1246.32 1736.02C1248.75 1737.13 1251.42 1737.71 1254.12 1737.71C1256.83 1737.71 1259.49 1737.13 1261.93 1736.02C1259.47 1735.39 1257.27 1734.08 1255.6 1732.27C1253.94 1730.45 1252.88 1728.21 1252.56 1725.82C1251 1716.95 1252.56 1705.28 1241.79 1697.89C1235.55 1693.46 1230.86 1693.46 1230.86 1678.83C1230.86 1661.24 1238.67 1659.77 1243.19 1658.29C1250.86 1658.21 1258.36 1656.17 1264.89 1652.38C1276.73 1644.63 1285.16 1633.04 1288.58 1619.81C1292 1606.57 1290.19 1592.61 1283.47 1580.56C1261.77 1532.09 1251 1529.28 1253.97 1491.01C1254.24 1466.54 1261.75 1442.63 1275.66 1422C1282.45 1412.21 1293.06 1405.35 1305.17 1402.94C1305.17 1402.94 1328.43 1398.51 1325.3 1424.96C1325.3 1424.96 1325.3 1432.35 1311.41 1442.54C1303.45 1448.97 1297.1 1456.99 1292.83 1466.04C1292.83 1466.04 1308.45 1455.69 1311.41 1458.65C1314.38 1461.6 1312.97 1466.04 1306.73 1473.43C1298.36 1482.24 1293.93 1493.79 1294.4 1505.64C1294.4 1505.64 1299.08 1498.25 1305.32 1498.25C1305.32 1498.25 1302.2 1521.75 1317.66 1530.47C1315.08 1516.49 1317.26 1502.1 1323.9 1489.39C1331.7 1479.04 1350.28 1445.05 1339.51 1421.85C1339.51 1421.85 1339.51 1391.12 1319.37 1388.16C1319.37 1388.16 1322.49 1394.07 1320.93 1392.59C1319.37 1391.12 1257.4 1386.68 1245.07 1479.19C1244.42 1485.11 1243.37 1490.98 1241.95 1496.77C1241.95 1496.77 1240.38 1520.27 1224.93 1502.68C1224.88 1508.91 1226.57 1515.03 1229.83 1520.43C1233.1 1525.83 1237.82 1530.31 1243.51 1533.42C1263.64 1546.57 1224.93 1545.09 1217.13 1531.94C1217.8 1537.26 1220.05 1542.29 1223.61 1546.44C1227.17 1550.6 1231.91 1553.72 1237.26 1555.44C1257.4 1562.83 1254.28 1573.02 1221.65 1565.78C1226.06 1570.48 1231.59 1574.13 1237.78 1576.41C1243.96 1578.7 1250.64 1579.56 1257.24 1578.93C1283.62 1578.93 1285.19 1617.06 1275.82 1625.93C1261.93 1637.6 1254.12 1636.12 1247.88 1634.79C1244.32 1633.76 1240.51 1633.76 1236.95 1634.79C1228.61 1626.93 1222.26 1617.38 1218.37 1606.86C1216.81 1596.67 1195.12 1578.93 1195.12 1578.93C1186.45 1565.71 1183.64 1549.78 1187.31 1534.6C1191.01 1520.7 1192.58 1506.37 1191.99 1492.05C1187.82 1491.24 1184.03 1489.17 1181.22 1486.13C1178.75 1492.26 1177.18 1498.67 1176.54 1505.2C1172.05 1504.26 1167.81 1502.47 1164.08 1499.93C1160.35 1497.39 1157.2 1494.15 1154.84 1490.42C1150.16 1478.75 1145.48 1481.55 1145.48 1481.55C1140.3 1488.11 1133.34 1493.22 1125.34 1496.33C1125.34 1496.33 1120.65 1494.85 1120.65 1483.18V1471.65C1111.51 1474.06 1101.85 1474.06 1092.71 1471.65C1093.55 1469.81 1093.98 1467.82 1093.98 1465.82C1093.98 1463.81 1093.55 1461.82 1092.71 1459.98C1085.38 1463.01 1077.15 1463.53 1069.45 1461.46C1068.49 1449.35 1072.33 1437.33 1080.22 1427.76C1080.22 1427.76 1081.79 1421.85 1073.98 1408.7C1066.18 1395.55 1053.84 1370.58 1064.61 1352.99C1068.37 1347.7 1069.82 1341.24 1068.66 1334.96C1067.5 1328.67 1063.81 1323.06 1058.37 1319.3C1054.09 1316.47 1049.06 1314.83 1043.84 1314.57C1038.63 1314.31 1033.44 1315.43 1028.87 1317.82C1028.87 1317.82 1047.44 1316.34 1047.44 1330.97C1045.11 1328.49 1042.25 1326.49 1039.05 1325.13C1035.85 1323.77 1032.38 1323.06 1028.87 1323.06C1025.36 1323.06 1021.88 1323.77 1018.68 1325.13C1015.48 1326.49 1012.62 1328.49 1010.29 1330.97C1010.29 1330.97 1033.55 1328.02 1028.87 1345.75C1028.87 1345.75 1011.85 1323.73 994.837 1350.18C994.837 1350.18 1018.1 1347.23 1018.1 1366.29C1016.54 1379.44 1035.11 1383.88 1035.11 1383.88C1035.11 1383.88 1039.79 1422 1016.54 1420.52C1016.54 1420.52 1030.43 1429.39 1036.67 1427.91C1036.67 1427.91 1038.23 1442.69 1024.34 1444.02C1029.39 1448.51 1035.99 1451.14 1042.92 1451.41C1042.92 1451.41 1044.48 1455.84 1038.23 1458.8C1031.99 1461.75 1030.43 1474.9 1030.43 1476.38C1033.44 1474.58 1036.93 1473.63 1040.5 1473.63C1044.06 1473.63 1047.55 1474.58 1050.57 1476.38C1060.56 1480.29 1071.79 1480.29 1081.79 1476.38C1083.74 1475.48 1085.86 1474.98 1088.03 1474.9C1085.76 1477.73 1083.67 1480.7 1081.79 1483.77C1077.1 1489.68 1070.86 1496.92 1064.77 1504.31C1053.5 1515.71 1038.52 1523.21 1022.21 1525.59C1005.91 1527.98 989.236 1525.11 974.856 1517.46C969.019 1514.78 962.568 1513.5 956.083 1513.76C949.598 1514.02 943.283 1515.8 937.704 1518.94C935.64 1520.47 933.92 1522.37 932.643 1524.53C931.366 1526.7 930.558 1529.08 930.267 1531.54C929.976 1534.01 930.208 1536.5 930.949 1538.88C931.69 1541.26 932.925 1543.47 934.582 1545.39C937.704 1554.26 937.704 1538 951.597 1540.96V1540.51Z" fill="white"/>
<path d="M1154.69 1427.3C1150.79 1428.86 1147.5 1431.54 1145.29 1434.96C1143.08 1438.38 1142.05 1442.36 1142.35 1446.36C1164.05 1444.88 1168.74 1436.16 1168.74 1436.16C1181.07 1439.12 1173.42 1455.23 1171.86 1456.7H1174.98C1179.8 1455.65 1184.35 1453.67 1188.35 1450.9C1192.35 1448.14 1195.71 1444.63 1198.24 1440.6C1198.24 1443.55 1201.36 1462.62 1232.27 1461.14C1232.27 1461.14 1212.13 1452.27 1216.66 1440.6V1439.12C1228.99 1450.79 1246.16 1436.16 1246.16 1436.16C1229.15 1436.16 1227.59 1427.3 1227.59 1423.01C1247.72 1434.69 1258.81 1415.62 1255.53 1412.67C1255.53 1412.67 1219.94 1425.82 1249.28 1365.68C1252.41 1358.29 1263.18 1346.62 1252.41 1336.12C1241.63 1325.63 1236.8 1308.19 1249.28 1299.48C1243.77 1297.89 1237.93 1297.6 1232.28 1298.63C1226.62 1299.66 1221.31 1301.98 1216.81 1305.39C1214.41 1307.1 1211.63 1308.25 1208.67 1308.76C1205.72 1309.28 1202.68 1309.13 1199.8 1308.34C1195.23 1306.27 1190.27 1305.08 1185.2 1304.82C1180.14 1304.57 1175.07 1305.26 1170.3 1306.86C1163.46 1309.12 1157.84 1313.85 1154.69 1320.02C1146.88 1317.06 1132.99 1325.93 1131.43 1325.93C1129.87 1325.93 1131.43 1331.84 1129.87 1334.79C1128.3 1337.75 1126.74 1347.95 1140.64 1347.95C1148.52 1347.17 1156.31 1345.69 1163.9 1343.51C1166.42 1346.49 1168.04 1350.07 1168.58 1353.86C1170.14 1362.72 1174.82 1375.87 1156.25 1377.35L1160.93 1381.79C1165.61 1384.74 1181.07 1384.74 1182.63 1375.87C1183.23 1373.98 1184.24 1372.21 1185.58 1370.69C1186.92 1369.17 1188.57 1367.91 1190.43 1367.01C1190.43 1367.01 1198.24 1387.55 1167.17 1390.5C1136.11 1393.46 1117.53 1403.66 1111.45 1425.67C1148.44 1417.25 1154.69 1427.3 1154.69 1427.3ZM1184.19 1326.07C1177.95 1330.51 1171.86 1329.03 1164.05 1321.64C1171.86 1312.78 1182.63 1309.97 1198.08 1320.16C1193.02 1321.28 1188.25 1323.34 1184.03 1326.22L1184.19 1326.07Z" fill="white"/>
<path d="M852.469 1125.27L802.829 1046.06L751.627 1126.75L802.829 1217.77L852.469 1125.27Z" fill="white"/>
<path d="M1571.47 1125.27L1520.27 1046.06L1469.07 1126.75L1521.83 1217.77L1571.47 1125.27Z" fill="white"/>
<path d="M1151.56 1916.18H1157.8C1449.24 1861.95 1680.12 1613.99 1683.24 1351.4V701.201H1436.76C1444.87 698.168 1451.85 692.929 1456.83 686.144C1461.8 679.359 1464.54 671.333 1464.7 663.076C1464.7 652.181 1460.13 641.732 1451.99 634.028C1443.85 626.324 1432.81 621.996 1421.3 621.996H1360.73C1353.54 620.984 1346.86 617.903 1341.58 613.171C1336.3 608.44 1332.69 602.286 1331.23 595.545C1301.73 625.099 1272.38 579.437 1272.38 579.437L1221.18 595.545L1208.85 573.527C1214 562.442 1221.37 552.406 1230.55 543.972C1235.98 538.702 1242.25 534.265 1249.12 530.821C1244.33 521.514 1241.17 511.533 1239.76 501.266C1247.24 497.298 1255.01 493.841 1263.02 490.922L1276.91 486.489H1284.71L1278.47 480.578C1280.03 480.578 1283.15 483.534 1284.71 483.534C1287.56 485.178 1290.76 486.188 1294.08 486.489C1297.2 486.489 1301.88 486.489 1300.32 483.534C1301.88 483.534 1305.01 485.011 1306.57 485.011H1312.81C1314.37 483.534 1315.93 483.534 1317.49 482.056C1319.06 480.578 1320.62 480.578 1322.18 479.101C1323.74 477.623 1323.74 477.623 1323.74 476.145C1323.74 474.667 1323.74 473.19 1322.18 473.19C1319.06 470.234 1315.93 470.234 1312.81 468.757L1302.04 465.801C1298.92 464.323 1297.36 464.323 1294.24 462.846C1286.43 459.89 1294.24 462.846 1297.36 462.846H1305.16C1308.28 462.846 1309.85 461.368 1312.97 461.368L1320.77 458.412C1320.77 458.412 1312.97 461.368 1295.95 449.546C1290.9 444.993 1286.25 440.05 1282.06 434.769C1273.04 424.214 1263.18 414.333 1252.56 405.215C1242.26 396.106 1230.83 388.217 1218.53 381.719C1207.3 375.288 1194.49 371.771 1181.37 371.523H1179.81C1178.58 352.863 1182.34 334.21 1190.74 317.291C1194.79 310.364 1197.05 302.625 1197.32 294.712C1197.59 286.799 1195.87 278.937 1192.3 271.777C1189.48 267.085 1185.69 262.98 1181.16 259.704C1176.63 256.429 1171.44 254.052 1165.92 252.714C1150.92 251.524 1136 255.688 1124.08 264.388L1105.51 273.255C1124.41 254.891 1147.1 240.405 1172.16 230.696V230.401C1156.45 231.095 1141.1 235.083 1127.21 242.075C1131.95 231.951 1133.05 220.632 1130.33 209.861V208.383H1128.77C1128.77 208.383 1088.49 217.249 1088.49 270.004C1088.28 275.487 1087.23 280.913 1085.37 286.111C1082.82 287.577 1080.68 289.605 1079.13 292.022C1079.74 291.454 1080.48 291.026 1081.29 290.77C1082.1 290.514 1082.96 290.437 1083.81 290.544C1082.32 294.238 1080.21 297.681 1077.57 300.74C1066.88 315.466 1060.97 332.825 1060.55 350.687V352.165L1062.11 350.687C1070.77 344.903 1077.27 336.68 1080.69 327.191C1082.61 322.477 1085.24 318.048 1088.49 314.04C1090.1 321.297 1091.14 328.656 1091.62 336.057V337.535H1093.18C1098.19 331.868 1101.19 324.848 1101.75 317.473C1102.32 310.098 1100.41 302.744 1096.3 296.455C1094.93 292.709 1094.4 288.732 1094.74 284.781C1108.47 281.852 1122.86 283.964 1135.01 290.692C1138.45 293.442 1141.13 296.941 1142.82 300.888C1144.31 305.845 1144.67 311.048 1143.86 316.146C1143.05 321.244 1141.1 326.119 1138.13 330.442C1133.62 339.137 1128.4 347.487 1122.52 355.416C1115.3 364.027 1109.94 373.902 1106.75 384.475C1103.57 395.049 1102.61 406.114 1103.95 417.036C1105.21 428.962 1109.73 440.371 1117.07 450.139C1124.4 459.907 1134.3 467.699 1145.78 472.746C1152.36 480.23 1157.63 488.661 1161.39 497.72C1166.08 506.586 1161.39 505.108 1161.39 505.108C1135.01 506.586 1125.8 493.434 1107.23 486.046C1102.79 484.373 1098.1 483.376 1093.33 483.09C1080.31 478.681 1066.08 478.681 1053.06 483.09C1026.68 490.479 1009.66 511.019 1015.91 528.604C1016.81 531.937 1018.54 535.018 1020.96 537.589C1023.38 540.159 1026.41 542.145 1029.8 543.381C1037.09 546.541 1045.05 548.059 1053.06 547.814C1060.37 547.449 1067.63 546.46 1074.76 544.859C1084.08 542.584 1092.59 537.985 1099.4 531.539C1106.21 525.094 1111.07 517.038 1113.47 508.212C1122.84 511.167 1149.06 530.23 1169.2 537.766C1189.34 545.302 1198.7 522.989 1198.7 522.989C1204.95 533.185 1189.34 567.32 1180.13 586.087L1170.76 591.998L1166.08 569.98L1144.38 597.909C1132.81 589.226 1122.33 579.309 1113.16 568.354C1110.04 596.283 1100.83 603.524 1097.55 605.002L1046.35 572.788C1045.8 581.699 1041.92 590.134 1035.39 596.579C1028.87 603.025 1020.14 607.059 1010.76 607.957L976.725 591.85C977.576 595.179 977.618 598.648 976.846 601.995C976.073 605.341 974.508 608.477 972.268 611.167C970.028 613.857 967.171 616.03 963.914 617.522C960.657 619.014 957.084 619.786 953.466 619.779H894.616C883.106 619.779 872.068 624.107 863.93 631.811C855.791 639.515 851.219 649.964 851.219 660.86C851.073 669.184 853.691 677.342 858.704 684.182C863.718 691.023 870.873 696.2 879.162 698.985H626.121V1349.18C629.243 1615.17 860.273 1862.69 1151.56 1916.92V1916.18ZM1385.71 639.728H1387.27C1402.81 635.93 1419.23 636.966 1434.1 642.684C1443.47 647.117 1446.43 652.88 1444.87 658.791C1443.31 670.465 1426.3 683.764 1424.74 676.375C1423.21 671.171 1420.47 666.357 1416.71 662.29C1412.96 658.224 1408.28 655.007 1403.04 652.88C1403.04 652.88 1377.91 641.206 1385.55 639.728H1385.71ZM1427.55 812.917C1427.55 811.439 1429.11 808.483 1429.11 807.006C1419.74 790.899 1412.09 777.451 1408.97 773.314L1405.85 770.358C1401.17 764.447 1398.04 761.492 1401.17 760.014C1404.29 758.537 1405.85 760.014 1408.97 760.014C1418.87 766.921 1426.85 775.997 1432.23 786.466C1433.79 787.943 1433.79 789.421 1435.35 792.376C1443.16 776.269 1452.37 765.925 1463.29 765.925C1474.22 765.925 1483.43 776.269 1491.24 792.376C1492.44 789.725 1494.01 787.24 1495.92 784.988C1501.3 774.52 1509.28 765.443 1519.18 758.537C1519.66 758.005 1520.26 757.579 1520.93 757.287C1521.61 756.995 1522.34 756.843 1523.08 756.843C1523.82 756.843 1524.55 756.995 1525.23 757.287C1525.9 757.579 1526.5 758.005 1526.98 758.537C1528.54 761.492 1526.98 762.97 1522.3 768.733L1519.18 771.688C1510.58 782.609 1503.3 794.406 1497.48 806.858C1498.88 808.077 1499.95 809.598 1500.6 811.291C1550.24 802.425 1588.96 803.903 1592.08 815.724C1595.2 824.591 1567.26 837.742 1542.44 850.894C1567.26 864.046 1595.2 877.345 1592.08 886.063C1587.39 899.215 1551.8 900.841 1502.16 891.974L1500.6 902.318V905.274L1503.72 909.707C1510.39 921.111 1518.18 931.896 1526.98 941.921C1530.1 944.877 1528.54 946.354 1528.54 946.354C1528.54 946.354 1526.98 947.832 1525.42 947.832C1522.22 947.088 1519.09 946.1 1516.06 944.877C1508.52 937.527 1502.25 929.1 1497.48 919.903C1495.92 922.859 1495.92 927.292 1494.36 930.247C1486.55 949.31 1477.34 959.802 1464.85 959.802C1452.37 959.802 1440.03 945.024 1433.63 921.676C1429.47 930.397 1423.71 938.352 1416.62 945.172C1413.92 947.091 1410.63 948.128 1407.25 948.128C1405.69 948.128 1405.69 948.128 1404.13 946.65C1403.92 946.263 1403.79 945.84 1403.75 945.405C1403.72 944.971 1403.77 944.534 1403.92 944.12C1404.06 943.706 1404.3 943.325 1404.6 942.998C1404.91 942.671 1405.28 942.405 1405.69 942.217C1414.62 931.752 1422.41 920.465 1428.95 908.525C1430.03 907.281 1430.59 905.701 1430.51 904.092C1430.51 904.092 1428.95 893.895 1428.95 890.94C1380.87 899.806 1343.72 898.329 1340.6 885.029C1337.48 876.163 1362.3 861.534 1388.68 848.382C1380.87 845.426 1374.78 840.993 1368.54 838.038C1351.52 829.171 1339.04 820.453 1340.6 814.542C1339.04 805.528 1376.34 804.05 1427.39 812.769L1427.55 812.917ZM1143.75 268.526C1143.75 268.526 1150 259.66 1167.01 268.526C1167.01 268.526 1160.92 280.2 1143.75 268.526ZM1153.12 386.743C1153.12 440.975 1205.88 460.629 1207.29 461.516C1205.64 459.892 1204.55 457.83 1204.17 455.605C1210.06 458.686 1216.29 461.163 1222.74 462.993C1225.86 464.471 1228.99 464.471 1232.11 465.949H1233.67C1232.02 464.325 1230.93 462.263 1230.55 460.038C1234.6 462.798 1239.44 464.342 1244.44 464.471C1246.64 464.692 1248.85 464.169 1250.68 462.993L1253.81 461.516C1255.37 461.516 1256.93 460.038 1258.49 460.038C1260.05 460.038 1256.93 462.993 1256.93 464.471L1253.81 467.426C1250.96 469.07 1247.76 470.081 1244.44 470.382C1243.59 470.489 1242.73 470.412 1241.92 470.156C1241.11 469.9 1240.37 469.472 1239.76 468.904C1237.42 470.257 1234.66 470.78 1231.95 470.382C1228.24 470.624 1224.52 470.121 1221.02 468.904C1217.9 467.427 1216.34 467.427 1213.22 465.949C1203.3 465.55 1193.6 463.026 1184.85 458.568C1176.11 454.11 1168.54 447.834 1162.73 440.211C1156.91 432.587 1153 423.816 1151.28 414.555C1149.56 405.295 1150.09 395.786 1152.81 386.743H1153.12ZM1177.94 623.178C1224.77 607.071 1281.75 630.566 1281.75 630.566C1295.82 635.881 1308.9 643.317 1320.46 652.584L1326.7 658.495C1333.83 665.993 1342.93 671.554 1353.09 674.602C1360.89 676.08 1346.84 690.71 1325.14 680.513C1323.58 679.036 1320.46 677.558 1317.34 674.602C1306.01 665.401 1291.93 659.771 1277.06 658.495C1256.93 657.018 1261.45 668.692 1261.45 668.692C1272.23 689.232 1244.44 683.469 1230.23 668.692C1214.96 653.532 1196.51 641.554 1176.07 633.522C1162.49 629.384 1171.7 625.099 1177.94 623.621V623.178ZM1185.75 931.282C1187.31 932.759 1191.99 941.626 1184.18 959.211C1174.72 963.246 1164.51 965.455 1154.14 965.709C1143.76 965.962 1133.44 964.256 1123.77 960.688C1123.96 950.815 1123.44 940.94 1122.21 931.134C1120.65 926.701 1106.6 917.982 1106.6 917.982C1106.6 917.982 1092.71 835.821 1103.48 803.607C1103.48 803.607 1103.48 777.156 1112.85 774.053C1119.09 772.575 1117.53 801.981 1117.53 801.981V836.264C1105.2 845.131 1114.41 846.461 1114.41 846.461C1136.8 841.829 1159.71 839.843 1182.62 840.55H1185.75C1191.99 842.027 1191.99 844.983 1191.99 844.983C1191.99 844.983 1193.55 852.372 1165.61 856.657C1165.61 856.657 1150 859.612 1147.03 865.523C1144.94 871.52 1144.14 877.852 1144.68 884.146C1145.21 890.44 1147.08 896.569 1150.15 902.171C1150.15 902.171 1154.84 900.693 1153.28 894.782C1151.71 888.871 1153.28 874.242 1157.96 871.286C1162.64 868.331 1202.92 862.42 1202.92 852.224C1200.4 839.845 1202.04 827.031 1207.6 815.577C1215.4 802.425 1224.61 820.01 1223.21 843.505C1223.21 843.505 1221.65 880.153 1221.65 887.837C1221.61 896.229 1218.46 904.341 1212.76 910.766C1207.05 917.191 1199.15 921.521 1190.43 923.006C1190.43 923.006 1181.06 925.962 1179.5 930.395C1177.94 930.395 1184.18 930.395 1185.75 931.873V931.282ZM1143.91 816.906C1144.46 821.881 1143.92 826.91 1142.35 831.684C1136.1 831.684 1131.58 833.161 1126.74 833.161C1124.73 823.423 1123.69 813.529 1123.62 803.607L1125.18 775.678C1125.18 774.2 1125.18 758.093 1134.54 758.093C1143.91 758.093 1142.35 777.156 1142.35 777.156C1142.35 777.156 1142.19 798.14 1143.75 817.202L1143.91 816.906ZM1179.5 791.933C1179.5 778.781 1179.5 761.196 1188.87 761.196C1195.11 761.196 1195.11 772.871 1195.11 780.259V810.995C1192.23 817.513 1190.65 824.475 1190.43 831.536C1186.97 830.209 1183.22 829.702 1179.5 830.058C1178.69 817.361 1178.69 804.63 1179.5 791.933ZM1159.36 747.602H1160.93C1173.26 750.557 1171.85 819.419 1168.73 828.285C1164.04 828.056 1159.35 828.555 1154.84 829.763C1153.44 826.486 1152.9 822.935 1153.28 819.419C1153.28 812.03 1153.28 766.664 1154.84 756.32C1153.28 748.931 1157.96 747.454 1159.52 747.454L1159.36 747.602ZM1010.6 629.384C1052.43 614.607 1104.26 636.773 1104.26 636.773C1146.1 654.358 1152.34 673.42 1152.34 673.42C1152.34 673.42 1158.58 693.96 1135.32 677.853C1130.93 674.145 1125.79 671.327 1120.2 669.574C1114.62 667.82 1108.72 667.168 1102.86 667.657C1088.96 667.657 1085.84 699.871 1056.02 672.09C1041.42 658.89 1024.66 648.011 1006.38 639.876C994.989 633.817 1004.36 632.34 1010.6 629.384ZM892.743 642.536C900.85 637.517 910.685 635.639 920.214 637.289C929.743 638.939 938.238 643.992 943.944 651.402C964.081 679.331 990.774 683.616 977.974 685.094C962.752 684.374 948.138 679.212 936.139 670.317C922.246 658.643 900.547 667.361 916.001 679.183C917.563 680.661 914.441 682.139 911.319 682.139C881.815 682.139 872.605 655.688 892.743 642.536ZM733.05 818.532C737.734 805.38 774.886 803.755 826.711 814.099C826.711 812.621 828.273 809.666 828.273 808.188C818.906 792.081 811.258 778.634 808.136 774.496L805.013 771.54C800.33 765.63 797.208 762.674 800.33 761.344C803.452 760.014 805.013 761.344 808.136 761.344C818.034 768.251 826.015 777.327 831.395 787.795C832.956 789.273 832.955 790.751 834.516 793.706C842.322 777.599 851.532 767.255 862.459 767.255C873.386 767.255 882.596 777.451 890.401 793.706C891.604 791.055 893.179 788.57 895.084 786.318C900.463 775.85 908.444 766.773 918.343 759.867C918.827 759.335 919.426 758.909 920.099 758.617C920.773 758.325 921.505 758.173 922.246 758.173C922.987 758.173 923.719 758.325 924.392 758.617C925.066 758.909 925.665 759.335 926.148 759.867C927.709 762.822 926.148 764.3 921.465 770.211L918.343 773.166C909.749 784.087 902.471 795.884 896.645 808.336C898.046 809.555 899.117 811.075 899.767 812.769C949.407 803.903 988.121 805.38 991.243 817.202C994.365 826.068 966.422 839.22 941.602 852.372C966.422 865.523 994.365 878.823 991.243 887.541C986.559 900.693 950.968 902.318 901.328 893.452L899.767 903.648V906.604L902.889 911.037C909.561 922.44 917.348 933.226 926.148 943.251C929.27 946.207 927.709 947.684 927.709 947.684C927.709 947.684 926.148 949.162 924.587 949.162C921.386 948.419 918.253 947.431 915.221 946.207C907.68 938.859 901.411 930.431 896.645 921.233C895.084 924.189 895.084 928.622 893.523 931.429C885.718 950.492 876.508 960.984 864.02 960.984C851.532 960.984 839.2 946.207 832.799 922.859C828.639 931.581 822.878 939.536 815.784 946.354C813.082 948.273 809.796 949.31 806.418 949.31C804.857 949.31 804.857 949.31 803.296 947.832C803.083 947.445 802.955 947.022 802.919 946.588C802.882 946.153 802.939 945.716 803.084 945.302C803.23 944.889 803.462 944.507 803.766 944.18C804.071 943.853 804.442 943.587 804.857 943.399C813.783 932.935 821.576 921.647 828.117 909.707C829.213 908.471 829.771 906.886 829.677 905.274C829.677 905.274 828.117 894.93 828.117 892.122C780.037 900.988 742.885 899.511 739.763 886.211C736.641 877.345 761.461 862.716 787.842 849.564C780.037 846.608 773.949 842.175 767.705 839.368C744.446 833.457 730.553 824.591 733.675 818.828L733.05 818.532ZM674.2 1437.7C672.639 1433.26 672.639 1427.5 671.078 1422.92C671.33 1420.36 670.788 1417.8 669.517 1415.53C667.956 1409.62 667.956 1403.86 666.395 1397.94V1393.51C666.395 1387.6 664.834 1380.36 664.834 1374.45V1372.97C665.088 1365.6 664.565 1358.22 663.273 1350.95V1002.06H1645.93V1376.22C1645.93 1382.13 1644.37 1387.9 1644.37 1393.81C1644.61 1396.36 1644.07 1398.93 1642.81 1401.2C1642.81 1405.63 1641.25 1410.06 1641.25 1412.87C1640.82 1417.89 1639.77 1422.85 1638.13 1427.65C1638.13 1430.6 1636.57 1432.08 1636.57 1435.03C1635.22 1443.03 1633.13 1450.89 1630.32 1458.53H1603.94V1386.71H1534.16V1327.61H1467.51V1258.89H1407.1V1197.27H1342V1144.52H1273.79L1272.23 1075.51H1204.01L1162.17 1022.75L1126.58 1075.51H1050.72V1140.08H970.169V1201.7H900.235V1260.81H832.019V1326.87H762.242V1383.02H712.914V1443.16H678.883C675.761 1441.68 675.761 1440.21 674.2 1437.25V1437.7ZM771.764 1641.62C770.203 1640.14 770.203 1638.66 768.642 1637.19C765.897 1633.04 762.762 1629.13 759.276 1625.51C759.276 1625.12 759.111 1624.74 758.818 1624.47C758.526 1624.19 758.129 1624.03 757.715 1624.03C748.348 1610.88 739.138 1596.11 731.333 1582.95C731.333 1581.48 729.772 1581.48 729.772 1580C721.967 1565.22 714.162 1550.44 706.513 1534.49H770.047V1469.91H835.141V1403.86H909.602V1338.69H978.286V1274.11H1051.19V1208.06H1120.96V1146.58H1199.01V1211.16H1261.45V1275.74H1328.11V1340.31H1396.33V1403.41H1462.2V1470.94H1547.43V1545.57H1601.6C1598.48 1550 1596.92 1555.76 1593.79 1560.35V1561.82C1586.45 1576.48 1578.16 1590.69 1568.97 1604.38C1568.97 1604.58 1568.93 1604.77 1568.86 1604.95C1568.78 1605.13 1568.66 1605.29 1568.52 1605.43C1568.37 1605.56 1568.2 1605.67 1568.01 1605.75C1567.82 1605.82 1567.62 1605.86 1567.41 1605.86L1558.05 1619.01C1548.68 1632.16 1537.91 1646.94 1528.54 1658.61L1525.42 1661.57L1494.2 1696.74C1492.64 1698.22 1492.64 1699.69 1491.08 1699.69C1487.96 1702.65 1484.84 1707.08 1481.71 1709.89L1477.03 1714.32C1466.1 1724.67 1455.33 1733.39 1444.41 1743.88C1441.28 1745.36 1439.72 1748.31 1436.6 1749.79C1433.48 1751.27 1430.36 1754.22 1427.23 1757.18C1424.34 1758.77 1421.71 1760.76 1419.43 1763.09C1414.75 1766.04 1411.62 1769 1407.1 1771.95C1402.57 1774.91 1399.29 1777.87 1394.76 1780.82C1391.87 1782.41 1389.24 1784.41 1386.96 1786.73C1383.84 1789.69 1379.15 1791.16 1376.19 1794.12C1373.39 1795.26 1370.76 1796.75 1368.38 1798.55C1363.7 1801.51 1357.61 1804.46 1352.77 1807.42C1347.93 1810.38 1348.09 1810.37 1344.97 1811.85C1340.28 1815.19 1334.99 1817.69 1329.36 1819.24C1326.24 1820.72 1324.68 1822.2 1321.55 1823.67C1318.43 1825.15 1312.19 1828.11 1307.66 1831.06C1306.1 1832.54 1302.98 1832.54 1301.42 1834.02C1295.17 1836.97 1287.52 1839.93 1281.28 1842.88C1280.67 1843.45 1279.93 1843.88 1279.12 1844.14C1278.31 1844.39 1277.44 1844.47 1276.6 1844.36C1271.91 1845.84 1265.67 1848.8 1260.99 1850.27C1259.42 1851.75 1256.3 1851.75 1254.74 1853.23C1248.5 1854.71 1243.97 1857.66 1237.73 1859.14C1236.17 1859.14 1234.6 1860.62 1233.04 1860.62C1225.24 1863.57 1219.15 1865.05 1211.35 1868.01C1209.78 1868.01 1206.66 1869.48 1205.1 1869.48L1188.09 1873.92C1186.53 1873.92 1183.4 1875.39 1181.84 1875.39L1158.58 1879.83L1135.32 1875.39C1133.76 1875.39 1130.64 1873.92 1129.08 1873.92L1112.07 1869.48C1110.5 1869.48 1107.38 1868.01 1105.82 1868.01C1098.36 1866.2 1091.09 1863.73 1084.12 1860.62C1082.56 1860.62 1082.56 1860.62 1081 1859.14C1074.55 1857.31 1068.32 1854.83 1062.42 1851.75C1060.86 1850.27 1057.74 1850.27 1056.18 1848.8C1051.5 1847.32 1045.25 1844.36 1040.57 1842.88C1039.01 1841.41 1035.89 1841.41 1034.33 1839.93C1028.08 1836.97 1020.43 1834.02 1014.19 1831.06C1012.63 1829.59 1011.07 1829.59 1009.51 1828.11C1004.82 1825.15 998.735 1823.67 993.896 1820.72C989.057 1817.76 989.213 1817.76 986.091 1816.29C981.768 1814.16 977.643 1811.68 973.759 1808.9C970.637 1807.42 969.076 1805.94 965.954 1804.46C959.71 1801.51 953.622 1797.08 947.378 1794.27C944.256 1792.79 942.695 1791.31 939.573 1789.83C936.451 1788.36 931.768 1785.4 928.802 1782.45C919.904 1775.5 910.85 1770.48 902.421 1763.38C857.776 1724.37 802.828 1685.51 770.671 1643.1L771.764 1641.62Z" fill="white"/>
<path d="M884.628 899.35C884.813 896.835 885.338 894.352 886.189 891.962C876.823 890.484 869.174 887.528 859.808 886.051C850.675 888.72 841.331 890.697 831.866 891.962C831.878 894.497 832.408 897.006 833.427 899.35C850.075 904.415 867.98 904.415 884.628 899.35Z" fill="white"/>
<path d="M878.855 805.531C878.855 804.053 878.855 802.575 877.294 802.575C872.611 787.798 864.962 782.035 858.718 782.035C852.473 782.035 844.824 787.946 840.141 802.575C840.141 804.053 838.581 805.531 838.581 807.009C844.857 804.253 851.648 802.703 858.561 802.449C865.474 802.195 872.372 803.243 878.855 805.531Z" fill="white"/>
<path d="M833.893 906.719C835.454 915.585 835.454 915.585 838.576 919.87C852.169 924.069 866.819 924.069 880.411 919.87C882.342 915.719 883.402 911.253 883.533 906.719C874.97 909.066 866.058 910.064 857.152 909.674C849.284 909.844 841.436 908.847 833.893 906.719Z" fill="white"/>
<path d="M1443 928.743C1444.39 932.484 1446.5 935.943 1449.25 938.939C1457.23 941.883 1466.08 941.883 1474.07 938.939C1477.19 935.984 1477.19 933.029 1480.31 927.266C1474.2 928.427 1467.97 928.922 1461.73 928.743C1455.65 930.259 1449.25 930.259 1443.16 928.743H1443Z" fill="white"/>
<path d="M841.546 928.743C842.931 932.484 845.049 935.943 847.79 938.939C855.771 941.883 864.629 941.883 872.61 938.939C875.732 935.984 875.732 933.029 878.854 927.266C872.742 928.427 866.509 928.922 860.278 928.743C854.189 930.259 847.79 930.259 841.702 928.743H841.546Z" fill="white"/>
<path d="M1486.4 899.35C1486.58 896.835 1487.11 894.352 1487.96 891.962C1478.59 890.484 1470.94 887.528 1461.58 886.051C1452.44 888.72 1443.1 890.697 1433.63 891.962C1433.65 894.497 1434.18 897.006 1435.19 899.35C1451.84 904.415 1469.75 904.415 1486.4 899.35Z" fill="white"/>
<path d="M1435.2 906.719C1436.76 915.585 1436.76 915.585 1439.88 919.87C1453.47 924.069 1468.12 924.069 1481.71 919.87C1483.65 915.719 1484.71 911.253 1484.84 906.719C1476.27 909.066 1467.36 910.064 1458.46 909.674C1450.6 909.616 1442.79 908.623 1435.2 906.719Z" fill="white"/>
<path d="M1480.16 805.531C1480.16 804.053 1480.16 802.575 1478.6 802.575C1473.91 787.798 1466.26 782.035 1460.02 782.035C1453.78 782.035 1446.13 787.946 1441.45 802.575C1441.45 804.053 1439.88 805.531 1439.88 807.009C1446.16 804.245 1452.95 802.69 1459.86 802.437C1466.78 802.183 1473.68 803.235 1480.16 805.531Z" fill="white"/>
</svg>
