<svg width="2500" height="2500" viewBox="0 0 2500 2500" fill="none" xmlns="http://www.w3.org/2000/svg">
<g clip-path="url(#clip0_290_1044)">
<path d="M1250.01 2500C1940.36 2500 2500.01 1940.36 2500.01 1250C2500.01 559.644 1940.36 0 1250.01 0C559.65 0 0.00585938 559.644 0.00585938 1250C0.00585938 1940.36 559.65 2500 1250.01 2500Z" fill="#295BA7"/>
<path d="M1249.98 2452.86C1914.3 2452.86 2452.84 1914.32 2452.84 1250C2452.84 585.685 1914.3 47.1484 1249.98 47.1484C585.665 47.1484 47.1289 585.685 47.1289 1250C47.1289 1914.32 585.665 2452.86 1249.98 2452.86Z" fill="white"/>
<path d="M1249.98 2175.72C1761.24 2175.72 2175.7 1761.26 2175.7 1250C2175.7 738.737 1761.24 324.277 1249.98 324.277C738.72 324.277 324.26 738.737 324.26 1250C324.26 1761.26 738.72 2175.72 1249.98 2175.72Z" fill="#295BA7"/>
<path d="M1114.03 2367.42L1092.22 2365.36L1107.65 2203.84L1219.47 2214.52L1217.62 2233.85L1127.63 2225.25L1122.88 2274.76L1202.09 2282.32L1200.23 2301.66L1121.03 2294.09L1114.03 2367.42ZM1389.81 2253.4C1381.25 2225.56 1357.12 2222.48 1341.59 2223.86C1312.34 2226.46 1290.61 2250.16 1294.4 2292.7C1297.76 2330.75 1313.84 2358.82 1353.93 2355.27C1368.11 2354.03 1392.05 2345.08 1396.14 2306.85L1417.3 2304.97C1413.72 2366.76 1364.42 2373.85 1352.26 2374.93C1315.57 2378.19 1277.44 2357.5 1271.95 2295.36C1267.54 2245.62 1292.86 2208.65 1339.9 2204.49C1381.56 2200.82 1405.44 2224.79 1410.98 2251.53L1389.81 2253.4Z" fill="#295BA7"/>
<path d="M256.965 1759.99L239.944 1724.02C229.5 1701.98 233.31 1689.92 246.989 1683.43C264.947 1674.94 276.189 1683.88 285.168 1702.86L302.106 1738.61L256.965 1759.99ZM396.046 1718.38L366.167 1655.25C350.799 1622.78 322.76 1614.81 299.269 1625.93C274.149 1637.82 275.439 1657.96 276.095 1669.4C260.903 1656.82 245.782 1659.76 236.182 1664.3C216.16 1673.76 205.88 1695.88 218.833 1723.25L249.404 1787.81L396.046 1718.38ZM318.247 1730.95L299.762 1691.94C292.119 1675.81 287.606 1655.7 308.225 1645.93C324.577 1638.21 339.921 1643.67 349.686 1664.3L369.707 1706.6L318.247 1730.95ZM178.181 1562.65L164.795 1509.63C162.122 1499.13 159.602 1480.89 183.937 1474.74C207.158 1468.86 215.246 1484.3 219.196 1499.84L231.645 1549.15L178.181 1562.65ZM249.826 1544.55L236.826 1493.04C230.391 1467.64 244.856 1461.18 257.774 1457.93C263.693 1456.44 287.418 1449.73 296.28 1444.25L289.681 1418.14L286.176 1419.06C284.113 1426.56 281.1 1428.49 272.403 1430.92L244.246 1439.44C222.561 1445.84 220.884 1455.83 219.431 1465.77C210.979 1457.15 199.421 1447.49 176.212 1453.38C142.91 1461.79 140.46 1489.9 146.989 1515.75L165.369 1588.5L322.69 1548.75L317.321 1527.51L249.826 1544.55ZM281.546 1334.5L283.679 1356.33L122.197 1372.09L120.052 1350.26L281.546 1334.5ZM192.974 1187.93L197.1 1116.87L283.738 1121.9L282.917 1136.11L261.642 1140.08C276.341 1152.03 285.098 1172.9 283.808 1195.02C282.202 1222.77 271.289 1235.72 262.673 1243.59C237.764 1267.07 209.983 1266.13 192.822 1265.13C153.342 1262.85 110.275 1236.36 113.347 1183.57C115.081 1153.33 134.188 1120.71 170.784 1118.08L169.554 1139.29C140.952 1144.65 133.708 1168.01 132.676 1185.82C131 1214.93 152.85 1240.2 195.26 1242.64C228.211 1244.55 262.673 1235.66 265.17 1192.57C265.639 1184.45 265.487 1171.32 256.719 1158.82C246.262 1143.94 232.032 1139.51 214.648 1138.5L211.729 1189.03L192.974 1187.93ZM165.92 912.723L171.628 891.565L328.281 933.846L322.561 955.005L249.486 935.276L227.39 1017.08L300.489 1036.82L294.78 1057.98L138.115 1015.69L143.824 994.531L208.623 1012.02L230.719 930.201L165.92 912.723ZM200.336 814.434L257.867 695.901L275.357 704.4L251.373 753.796L379.858 816.169L370.281 835.897L241.796 773.524L217.813 822.921L200.336 814.434ZM436.358 578.927C467.058 601.633 476.776 635.251 455.817 663.595C434.858 691.927 399.879 692.478 369.168 669.773C338.468 647.056 328.739 613.449 349.698 585.105C370.668 556.761 405.647 556.21 436.358 578.927ZM449.792 560.746C421.624 539.916 370.082 524.854 334.084 573.547C298.062 622.24 327.566 667.112 355.723 687.942C383.891 708.772 435.432 723.846 471.442 675.142C507.452 626.448 477.948 581.588 449.792 560.746ZM526.313 375.48L542.15 361.32L650.32 482.279L631.952 498.702L483.082 455.963L482.754 456.268L570.13 553.983L554.293 568.131L446.134 447.172L465.511 429.847L613.361 473.476L613.689 473.171L526.313 375.48ZM788.804 318.722L782.251 243.01L782.65 242.822L834.508 297.458L788.804 318.722ZM849.887 311.747L884.35 347.804L906.083 337.7L784.338 215.369L761.797 225.86L774.925 398.725L795.427 389.183L790.879 339.212L849.887 311.747ZM1020.49 138.156L1041.12 133.092L1079.83 290.671L1055.9 296.532L944.519 188.924L944.085 189.03L975.348 316.307L954.729 321.383L916.011 163.804L941.249 157.603L1051.31 265.539L1051.75 265.434L1020.49 138.156ZM1161.34 137.207L1202.23 135.495C1232.02 134.264 1251.64 154.028 1253.34 194.891C1255.05 235.754 1237.45 258.881 1209.01 260.077L1166.56 261.847L1161.34 137.207ZM1145.46 281.505L1210.26 278.797C1263.53 276.558 1277.38 228.955 1275.87 192.593C1273.91 145.858 1246.6 114.876 1204.38 116.646L1138.67 119.389L1145.46 281.505ZM1580.92 163.968L1602.11 169.559L1560.76 326.459L1539.54 320.867L1558.85 247.663L1476.91 226.048L1457.59 299.264L1436.41 293.672L1477.77 136.773L1498.96 142.364L1481.86 207.269L1563.82 228.873L1580.92 163.968ZM1771.96 333.375C1754.84 367.509 1723.38 382.83 1691.88 367.028C1660.35 351.239 1653.83 316.87 1670.94 282.724C1688.07 248.578 1719.53 233.257 1751.03 249.058C1782.53 264.871 1789.07 299.228 1771.96 333.375ZM1792.16 343.502C1807.86 312.193 1813.87 258.834 1759.75 231.698C1705.59 204.55 1666.44 241.286 1650.75 272.608C1635.05 303.917 1629.01 357.276 1683.16 384.424C1737.29 411.56 1776.45 374.812 1792.16 343.502ZM1975.49 376.851L1995.05 391.82L1849.41 484.706L1830.93 470.557L1882.51 305.711L1901.88 320.551L1854.63 458.542L1854.98 458.823L1975.49 376.851ZM2016.27 648.556L1936.27 559.41L2057.06 451.052L2135.98 539.014L2121.53 551.99L2057.22 480.333L2020.22 513.542L2079.54 579.642L2065.08 592.619L2005.75 526.518L1965.39 562.739L2030.74 635.568L2016.27 648.556ZM2177.63 781.613L2253.29 774.45L2253.49 774.872L2199.27 827.129L2177.63 781.613ZM2185.11 842.626L2149.3 877.37L2159.59 899.02L2280.97 776.338L2270.29 753.878L2097.54 768.355L2107.23 788.775L2157.18 783.816L2185.11 842.626ZM2200.01 964.605L2221.74 1043.95L2203.01 1049.09L2175.47 948.593L2331.98 905.725L2337.77 926.872L2200.01 964.605ZM2357.38 1110L2361.03 1149.6C2363.27 1173.91 2355.57 1183.92 2340.51 1185.32C2320.71 1187.14 2313.22 1174.89 2311.29 1153.96L2307.65 1114.59L2357.38 1110ZM2212.48 1101.34L2218.88 1170.88C2222.18 1206.65 2245.77 1223.77 2271.65 1221.4C2299.31 1218.84 2305.03 1199.48 2308.34 1188.52C2318.3 1205.53 2333.5 1207.98 2344.09 1207.02C2366.13 1204.98 2383.38 1187.73 2380.62 1157.58L2374.05 1086.47L2212.48 1101.34ZM2289.89 1116.22L2293.83 1159.2C2295.48 1176.98 2292.81 1197.43 2270.1 1199.53C2252.09 1201.18 2239.57 1190.76 2237.47 1168.03L2233.17 1121.45L2289.89 1116.22ZM2220.17 1310.86L2221.27 1288.99L2383.33 1297.15L2382.21 1319.06L2220.17 1310.86ZM2268.94 1522.98C2231.56 1515.12 2208.71 1488.6 2215.97 1454.12C2223.23 1419.61 2254.82 1404.54 2292.2 1412.41C2329.55 1420.24 2352.39 1446.75 2345.14 1481.26C2337.88 1515.79 2306.32 1530.84 2268.94 1522.98ZM2264.29 1545.1C2298.58 1552.3 2351.71 1544.53 2364.18 1485.27C2376.62 1425.98 2331.14 1397.49 2296.84 1390.29C2262.58 1383.09 2209.44 1390.84 2196.97 1450.12C2184.5 1509.39 2230.03 1537.87 2264.29 1545.1ZM2271.39 1745.61L2262.85 1765.05L2114.32 1699.75L2124.22 1677.22L2277.41 1654.43L2277.57 1654.01L2157.59 1601.26L2166.15 1581.82L2314.68 1647.11L2304.23 1670.91L2151.59 1692.42L2151.39 1692.85L2271.39 1745.61Z" fill="#295BA7"/>
<path d="M1779.49 1389.18C1750.69 1387.66 1721.91 1386.23 1692.96 1384.59C1645.14 1381.92 1610.14 1364.33 1567.85 1341.58C1541.61 1327.48 1454.52 1287.62 1494.8 1259.18C1513.92 1245.68 1543.38 1233.05 1570.33 1229.38L1558.22 1224.51C1513.81 1205.71 1471.84 1187.97 1421.33 1180.37C1382.58 1174.55 1348.51 1173.5 1320.03 1177.24C1302.38 1179.56 1262.85 1187.87 1233.74 1202.91C1193.78 1230.64 1166.49 1257.56 1142.62 1280.68C1163.56 1234.91 1147.49 1218.57 1106.31 1195.48C1064.2 1171.85 1017.15 1156.79 972.651 1140.15C880.012 1105.5 799.06 1067.98 698.649 1071.87C636.265 1074.3 573.048 1072.92 510.71 1076.01C490.947 1076.98 468.98 1079.53 449.51 1083.07C432.255 1086.21 411.05 1097.92 393.326 1093.42C402.071 1122.63 513.993 1120.84 538.96 1111.38H541.317C513.524 1139.12 452.429 1115.12 421.436 1134.33C450.963 1147.47 492.295 1148.35 524.835 1146.81C569.508 1144.7 616.056 1135.87 658.959 1151.39C700.15 1166.31 736.922 1193.83 778.969 1208.49C828.986 1225.92 864.61 1221.93 915.624 1222.02C957.87 1222.09 996.869 1243.68 1037.32 1245.44C963.637 1262.29 878.184 1230.86 814.334 1277.92C798.497 1289.62 782.415 1306.64 764.961 1315.71C747.741 1324.68 726.782 1322.77 708.343 1329.73C686.189 1338.06 615.845 1378.2 647.26 1410.33L647.764 1410.56C667.047 1381.24 712.012 1362.92 747.765 1375.16C733.065 1373.93 705.577 1377.23 694.277 1387.24C675.487 1403.88 691.393 1416.35 713.173 1415.02C733.581 1413.78 743.134 1399.22 764.949 1396.21C784.748 1393.51 805.835 1392.87 826.161 1393.86C908.813 1397.92 977.434 1460.15 1059.32 1476.79C1139.14 1492.97 1219.72 1480.9 1297.52 1462.13C1351.45 1449.12 1394.13 1435.79 1470.6 1439.18C1523.57 1441.53 1526.35 1445.36 1546.53 1456.75C1562.28 1465.69 1583.83 1486.41 1603.08 1482.82C1667.8 1470.8 1573.81 1425.06 1562.67 1415.1C1580.3 1402.43 1611.08 1409.75 1631.28 1412.81C1655.42 1416.5 1679.36 1416.12 1704.25 1417.39C1719.92 1418.19 1863.15 1432.51 1840.3 1394.38C1832.99 1382.2 1792.79 1389.89 1779.49 1389.18Z" fill="white"/>
<path d="M2118.57 1261.62C2012.93 1250.77 1907.06 1251.76 1804.96 1219.63C1751.11 1202.69 1694.47 1181.74 1644.73 1155.47C1600.38 1132.03 1508.86 1101.4 1508.86 1101.4C1459.21 1084.64 1395.53 1075.42 1344.05 1091.39C1318.47 1099.33 1296.71 1113.6 1275.77 1129.7C1258.14 1143.28 1229.7 1154.58 1217.64 1174.01C1236.1 1174.51 1242.64 1171.42 1263.08 1170.92C1285.15 1163.73 1306.25 1158.38 1318.64 1156.76C1348.11 1152.88 1383.17 1153.95 1422.89 1159.92C1474.73 1167.71 1517.29 1185.7 1562.34 1204.76L1600.19 1219.91C1601.9 1220.28 1603.74 1220.4 1605.35 1220.92C1646.6 1233.89 1685.65 1253.36 1727.78 1266.15C1777.19 1281.22 1826.88 1289.08 1877.92 1294.48C1926.55 1299.64 1969.98 1299.35 2017.84 1292.14C2053.35 1286.78 2111.54 1286.15 2137.16 1260.9C2130.52 1259.66 2124.53 1262.23 2118.57 1261.62Z" fill="white"/>
<path d="M884.396 1318.59C891.848 1318.59 897.888 1312.55 897.888 1305.09C897.888 1297.64 891.848 1291.6 884.396 1291.6C876.945 1291.6 870.904 1297.64 870.904 1305.09C870.904 1312.55 876.945 1318.59 884.396 1318.59Z" fill="#295BA7"/>
</g>
<defs>
<clipPath id="clip0_290_1044">
<rect width="2500" height="2500" fill="white"/>
</clipPath>
</defs>
</svg>
