<svg width="2500" height="2500" viewBox="0 0 2500 2500" fill="none" xmlns="http://www.w3.org/2000/svg">
<g clip-path="url(#clip0_158_686)">
<g clip-path="url(#clip1_158_686)">
<mask id="mask0_158_686" style="mask-type:luminance" maskUnits="userSpaceOnUse" x="-1378" y="-312" width="14785" height="3123">
<path d="M-1377.86 2810.93H13406.1V-311.845H-1377.86V2810.93Z" fill="white"/>
</mask>
<g mask="url(#mask0_158_686)">
<path d="M1245.77 2499.26L1171.93 2437.42C1171.93 2437.42 1133.7 2407.71 1109.09 2394.69C1107.52 2393.88 1048.35 2372.72 1039.44 2369.06C898.049 2332.85 677.58 2297.86 482.771 2229.5C385.367 2195.33 292.676 2151.79 220.932 2089.94C149.188 2028.1 100.485 1944.69 100.485 1849.07V0.228449H2400.49V1849.48C2400.49 1946.72 2351.78 2030.54 2278.47 2092.39C2205.15 2154.23 2110.89 2197.36 2012.44 2230.72C1815.01 2297.86 1590.88 2332.04 1456.81 2370.28C1405.49 2384.93 1400.78 2387.78 1373.03 2404.46V2403.24C1362.55 2409.75 1322.23 2439.45 1322.23 2439.45L1245.77 2499.26Z" fill="white"/>
</g>
<path d="M1308.15 2339.29C1341.25 2319.11 1365.54 2309.02 1420.85 2293.39C1717.88 2208.76 2294.76 2158.63 2294.76 1849.41V82.5898H205.909V1849.41C205.909 2153.1 768.131 2213.32 1072.28 2291.11C1072.28 2291.11 1140.15 2312.27 1168.22 2327.24C1208.02 2348.4 1248.24 2381.6 1248.24 2381.6C1248.24 2381.6 1285.95 2352.63 1308.15 2339.29Z" fill="#94BEE5"/>
<path d="M1308.15 2339.29C1341.25 2319.11 1365.54 2309.02 1420.85 2293.39C1717.88 2208.76 2294.76 2158.63 2294.76 1849.41V82.5898H205.909V1849.41C205.909 2153.1 768.131 2213.32 1072.28 2291.11C1072.28 2291.11 1140.15 2312.27 1168.22 2327.24C1208.02 2348.4 1248.24 2381.6 1248.24 2381.6C1248.24 2381.6 1285.95 2352.63 1308.15 2339.29Z" stroke="#7A003C" stroke-width="7.30326" stroke-miterlimit="6"/>
<path d="M680.153 639.848L714.087 693.881L789.497 702.669L735.034 744.659L748.022 803.9L680.572 775.907L613.122 803.9L626.109 744.659L571.646 702.669L647.056 693.881L680.153 639.848Z" fill="white"/>
<path d="M612.703 191.961C611.027 191.961 607.676 193.588 603.905 196.192L574.16 213.118C567.876 216.699 562.849 223.534 558.66 233.625C554.889 243.716 551.537 253.155 548.605 261.618L471.938 438.04C461.465 461.476 451.829 478.402 443.45 488.167C435.071 497.932 422.503 502.489 406.164 502.489C400.299 502.489 396.109 505.093 396.109 509.324V517.136C396.109 519.74 398.623 521.368 402.812 521.368C405.326 521.368 414.962 520.391 430.044 519.74C445.545 519.089 456.856 518.764 463.978 518.764C471.1 518.764 481.574 518.764 495.818 519.74C510.481 520.391 520.117 521.368 524.306 521.368C531.428 521.368 535.199 519.74 535.199 517.136V508.673C535.199 505.093 532.685 502.814 527.658 502.814C500.426 502.814 487.02 496.955 487.02 484.912C487.02 480.029 489.115 472.543 493.723 462.778L520.955 398.979H640.354L668.842 451.06C675.126 463.429 679.315 471.892 680.991 475.798C682.667 479.378 684.343 482.633 684.343 485.888C684.343 497.281 672.612 502.814 649.151 502.814C642.867 502.814 639.097 505.418 639.097 509.65V517.462C639.097 519.74 641.191 521.693 644.543 521.693C649.151 521.693 662.139 520.717 685.18 520.066C708.222 519.415 724.142 519.089 732.521 519.089C742.576 519.089 755.563 519.089 771.902 520.066C788.66 520.717 800.39 521.693 807.093 521.693C811.282 521.693 813.796 519.74 813.796 515.834V508.022C813.796 505.418 811.282 503.465 806.255 502.814C791.592 501.187 781.119 498.908 775.672 494.351C769.807 489.794 763.104 480.029 755.982 466.358L617.73 198.796C615.636 194.565 613.96 191.961 612.703 191.961ZM1936.56 198.796C1871.63 198.796 1816.33 213.77 1771.92 244.692C1727.51 275.615 1706.15 313.373 1706.15 356.99C1706.15 412 1728.77 454.315 1773.18 483.935C1817.58 513.556 1871.63 528.203 1937.82 528.203C1988.51 528.203 2033.76 520.717 2072.72 505.093L2090.32 448.781C2091.57 445.201 2092.41 442.922 2092.41 441.946C2092.41 440.318 2089.48 438.365 2083.61 436.738C2077.75 435.11 2073.14 434.134 2070.63 434.134C2068.53 434.134 2066.44 437.389 2063.09 443.573C2050.52 465.382 2036.27 481.331 2020.35 491.422C2004.85 501.187 1980.97 505.744 1947.88 505.744C1902.63 505.744 1864.93 491.747 1834.76 464.08C1804.6 436.087 1789.93 401.909 1789.93 360.896C1789.93 320.208 1803.76 287.007 1831.41 260.316C1859.06 233.625 1895.09 220.28 1939.92 220.28C1970.08 220.28 1994.38 226.79 2013.23 239.81C2032.08 252.83 2045.49 267.803 2052.61 285.054C2053.45 287.658 2054.29 289.937 2054.71 290.913C2055.54 291.89 2055.96 291.89 2058.06 291.89C2060.99 291.89 2066.02 291.89 2071.05 290.913C2076.49 289.937 2079.84 288.635 2079.84 287.658C2079.84 285.705 2078.17 275.94 2075.65 258.689C2072.72 241.112 2070.21 231.997 2068.95 229.719C2066.02 224.511 2051.36 218.001 2022.87 210.189C1994.8 203.028 1965.89 198.796 1936.56 198.796ZM811.282 206.608C806.674 206.608 804.579 208.236 804.579 211.816V219.629C804.579 222.884 807.093 224.836 813.377 224.836C828.878 224.836 841.027 226.79 849.406 231.672C857.785 236.555 866.164 246.971 873.705 260.642L1009.86 522.344C1011.54 525.274 1012.38 527.227 1014.05 528.203C1015.73 529.18 1019.08 529.18 1024.11 529.18H1034.16C1037.51 529.18 1040.03 529.18 1041.7 528.203C1043.38 527.227 1044.63 525.599 1045.89 522.995L1180.79 263.246C1188.75 247.622 1194.62 236.555 1199.22 231.672C1203.83 226.79 1213.47 224.836 1226.46 224.836C1231.48 224.836 1233.16 222.558 1233.16 218.977V212.142C1233.16 208.562 1230.64 206.934 1226.46 206.934C1222.27 206.934 1215.14 206.934 1203.41 207.911C1191.68 208.562 1182.89 208.887 1177.02 208.887C1169.48 208.887 1155.65 208.887 1137.64 207.911C1119.63 207.26 1109.57 206.934 1105.8 206.934C1101.19 206.934 1099.1 208.562 1099.1 212.142V218.977C1099.1 222.883 1101.61 224.836 1107.89 224.836C1123.81 224.836 1135.13 225.488 1140.99 227.441C1146.86 229.394 1149.79 233.625 1149.79 240.135C1149.79 246.971 1148.53 255.108 1144.34 263.246L1053.43 448.13L953.723 257.712C948.696 247.622 947.02 240.461 947.02 236.555C947.02 232.649 949.953 229.068 955.818 227.115C961.683 225.162 972.157 224.511 986.401 224.511C991.847 224.511 993.942 222.884 993.942 219.303V211.491C993.942 207.91 991.428 206.283 985.144 206.283C980.536 206.283 965.454 206.283 940.317 207.26C915.18 207.911 897.166 208.236 887.53 208.236C876.219 208.236 861.975 208.236 843.541 207.26C826.364 206.609 815.472 206.608 811.282 206.608ZM1329.1 206.608C1322.39 206.608 1318.2 207.91 1318.2 210.84V219.303C1318.2 222.558 1322.81 224.511 1330.35 224.511C1347.11 224.511 1357.58 227.441 1363.45 233.951C1369.32 240.461 1372.25 252.504 1372.25 269.756V464.731C1372.25 477.425 1368.48 487.19 1361.36 493.7C1354.23 500.21 1343.34 503.14 1328.26 503.14C1321.97 503.14 1318.2 505.093 1318.2 508.348V516.811C1318.2 520.066 1321.56 522.019 1328.26 522.019C1332.03 522.019 1346.69 521.042 1370.99 520.391C1395.71 519.74 1410.79 519.415 1418.33 519.415C1426.29 519.415 1440.12 519.415 1458.97 520.391C1478.24 521.042 1489.97 522.019 1492.9 522.019C1499.19 522.019 1501.7 520.391 1501.7 517.787V507.697C1501.7 505.418 1499.19 503.465 1492.9 503.465C1477.4 503.465 1466.09 500.536 1458.97 495.002C1451.85 489.469 1448.08 479.378 1448.08 465.056V361.872H1526.84C1543.6 361.872 1556.16 364.802 1564.12 370.335C1572.5 375.869 1578.79 385.309 1582.56 398.329C1583.4 402.235 1585.91 403.537 1589.26 403.537H1601.41C1604.34 403.537 1604.76 401.909 1604.76 397.678C1604.76 394.748 1604.76 387.913 1603.5 378.148C1602.67 368.382 1602.25 361.872 1602.25 357.641C1602.25 351.782 1602.67 342.668 1603.5 331.926C1604.34 321.185 1604.76 315 1604.76 312.396C1604.76 309.141 1603.09 307.188 1599.32 307.188H1588.42C1585.49 307.188 1583.81 308.165 1582.98 311.42C1579.62 323.789 1574.6 332.252 1568.73 336.158C1562.87 340.064 1551.14 342.017 1533.54 342.017H1448.08V254.132C1448.08 243.065 1452.69 235.904 1460.23 231.998C1468.19 228.091 1482.43 226.79 1504.22 226.79H1521.81C1552.39 226.79 1572.92 229.068 1583.4 233.625C1593.87 238.182 1601.83 246.32 1607.69 258.363L1614.4 271.058C1616.49 275.615 1618.17 277.893 1621.94 277.893H1630.74C1634.51 277.893 1636.18 276.591 1636.18 272.685V210.515C1636.18 207.26 1634.93 206.283 1630.74 206.283C1625.29 206.283 1594.71 206.283 1540.66 207.26C1487.04 207.911 1453.52 208.236 1439.7 208.236C1422.94 208.236 1401.57 208.236 1375.18 207.26C1347.53 206.609 1332.45 206.608 1329.1 206.608ZM574.579 275.615L628.204 376.845H532.685L574.579 275.615ZM848.569 2014.44C828.459 2013.46 809.188 2016.07 809.188 2016.07V2130.32H830.135V2070.75C830.135 2070.75 889.206 2060.01 889.206 2033.32C889.206 2019.65 868.678 2015.42 848.569 2014.44ZM956.237 2014.44C936.128 2013.46 915.6 2016.07 915.6 2016.07V2130.32H937.384V2070.75C937.384 2070.75 948.277 2068.15 960.426 2063.92C962.102 2065.87 968.805 2074.98 978.86 2093.86C990.171 2114.7 993.104 2130.64 993.104 2130.64H1014.05C1014.05 2130.64 1009.02 2109.81 999.807 2091.58C991.847 2075.96 980.117 2062.61 976.765 2058.38C987.658 2052.52 996.456 2044.06 996.456 2033.65C996.874 2019.65 976.346 2015.42 956.237 2014.44ZM1186.24 2014.44C1166.13 2013.46 1145.6 2016.07 1145.6 2016.07V2130.32H1167.38V2070.75C1167.38 2070.75 1226.46 2060.01 1226.46 2033.32C1226.87 2019.65 1206.35 2015.42 1186.24 2014.44ZM1405.76 2014.44C1385.65 2013.46 1365.13 2016.07 1365.13 2016.07V2130.32H1386.07V2070.75C1386.07 2070.75 1396.97 2068.15 1409.11 2063.92C1410.79 2065.87 1418.75 2074.98 1428.81 2093.86C1440.12 2114.7 1441.79 2130.64 1441.79 2130.64H1462.74C1462.74 2130.64 1457.71 2109.81 1448.5 2091.58C1440.12 2075.31 1429.64 2060.99 1426.71 2057.41C1437.18 2051.55 1445.14 2043.74 1445.14 2033.65C1445.14 2019.65 1425.87 2015.42 1405.76 2014.44ZM1603.09 2014.44C1594.29 2014.77 1587.58 2016.07 1587.58 2016.07V2130.32H1609.37C1609.37 2130.32 1680.59 2131.3 1680.59 2060.34C1681.01 2016.72 1629.06 2013.14 1603.09 2014.44ZM1045.89 2016.07V2130.32H1110.41V2116.65H1066.84V2064.57H1096.58V2051.87H1066.84V2028.76H1110.83V2016.07H1045.89ZM1268.77 2016.07L1222.69 2130.32H1245.73L1270.03 2064.57H1298.51L1322.81 2130.32H1344.6L1299.77 2016.07H1268.77ZM1487.88 2016.07V2130.32H1552.81V2116.65H1510.08V2064.57H1538.57V2051.87H1510.08V2028.76H1552.81V2016.07H1487.88ZM1283.85 2025.51L1293.91 2051.87H1274.22L1283.85 2025.51ZM848.569 2027.14C857.785 2027.46 867.002 2029.09 867.002 2032.99C867.002 2048.29 829.716 2054.15 829.716 2054.15V2027.79C830.135 2028.11 839.352 2027.14 848.569 2027.14ZM956.237 2027.14C965.454 2027.46 973.833 2029.09 973.833 2032.99C973.833 2048.29 937.803 2054.15 937.803 2054.15V2027.79C937.385 2028.11 947.02 2027.14 956.237 2027.14ZM1186.24 2027.14C1195.45 2027.46 1204.67 2029.09 1204.67 2032.99C1204.67 2048.29 1167.38 2054.15 1167.38 2054.15V2027.79C1167.8 2028.11 1177.02 2027.14 1186.24 2027.14ZM1404.51 2027.14C1413.72 2027.46 1422.94 2029.09 1422.94 2032.99C1422.94 2048.29 1385.65 2054.15 1385.65 2054.15V2027.79C1386.07 2028.11 1395.29 2027.14 1404.51 2027.14ZM1615.24 2028.76C1629.9 2028.11 1659.22 2030.39 1659.22 2060.99C1659.22 2112.09 1622.36 2118.28 1609.79 2118.93V2029.41C1611.05 2029.41 1611.88 2029.09 1615.24 2028.76Z" fill="#7A003C"/>
<path d="M1311.08 687.374C1298.93 702.022 1267.51 711.136 1267.51 711.136C1267.51 711.136 1260.39 710.81 1265.84 700.72C1270.86 691.606 1272.96 687.048 1272.96 687.048L1247.4 694.21C1247.4 694.21 1256.2 688.025 1259.97 677.934C1263.32 667.844 1262.48 661.334 1262.48 661.334C1262.48 661.334 1259.13 669.797 1246.56 674.028C1236.51 677.283 1216.4 678.911 1216.4 678.911C1216.4 678.911 1240.7 639.851 1278.4 642.455C1316.11 645.385 1323.23 672.727 1311.08 687.374ZM1140.57 730.34C1135.96 738.803 1125.07 747.592 1112.5 750.196C1102.03 752.149 1092.81 752.149 1085.27 749.87C1066.42 744.662 1062.65 734.246 1062.65 734.246L1082.76 726.76C1086.11 734.572 1093.23 739.129 1101.61 739.454C1109.99 739.78 1116.27 736.525 1118.79 730.991C1120.04 727.736 1119.21 722.854 1119.21 722.854C1119.21 722.854 1116.69 727.411 1111.66 727.411C1107.89 727.411 1102.03 725.458 1104.12 718.622L1149.37 701.696C1149.37 702.022 1148.11 716.669 1140.57 730.34ZM2045.07 848.497C2045.07 848.497 2003.18 893.091 1958.35 900.252C1926.93 905.46 1905.14 902.856 1905.14 902.856C1905.14 902.856 1916.87 902.205 1925.67 896.671C1936.15 890.487 1942.01 879.745 1942.01 879.745C1942.01 879.745 1923.16 887.232 1891.74 880.722C1877.49 877.792 1846.49 875.514 1821.77 882.675C1802.92 887.883 1780.72 902.856 1780.72 902.856C1780.72 902.856 1787.84 896.997 1791.61 890.161C1796.22 881.373 1793.7 871.608 1793.7 871.608C1793.7 871.608 1791.19 881.047 1775.69 886.255C1766.47 889.185 1746.36 896.02 1737.57 906.436C1725.84 920.107 1727.09 936.708 1722.48 940.614C1718.71 943.869 1604.76 983.905 1596.8 1065.61C1589.26 1146.98 1667.18 1209.8 1692.74 1232.91C1718.3 1256.02 1826.8 1354.33 1844.4 1376.46C1858.64 1394.04 1870.37 1412.59 1856.97 1435.38C1849.01 1448.72 1821.77 1464.34 1781.56 1449.7C1740.5 1434.72 1712.85 1413.89 1669.7 1399.24C1635.34 1387.2 1595.13 1378.74 1586.33 1374.18C1579.62 1370.6 1519.72 1340.98 1514.27 1286.95C1509.66 1244.96 1531.45 1179.21 1534.8 1133.64C1539.41 1070.81 1515.95 1043.8 1515.53 1041.19C1514.69 1036.96 1536.05 1042.17 1544.85 1054.54C1557.42 1071.79 1555.75 1078.63 1555.75 1078.63C1555.75 1078.63 1583.4 1038.59 1571.66 987.811C1558.26 930.198 1512.59 923.037 1512.17 918.805C1511.76 915.55 1526 913.272 1540.24 916.852C1580.46 926.617 1587.58 956.889 1587.58 956.889C1587.58 956.889 1604.76 914.574 1580.88 871.608C1559.1 832.222 1526.42 828.641 1525.58 824.084C1525.16 821.806 1535.64 817.9 1557.42 822.131C1590.94 828.641 1598.48 850.776 1598.48 850.776C1598.48 850.776 1606.44 813.994 1592.19 782.746C1566.64 726.76 1514.69 720.901 1514.27 716.669C1514.27 714.065 1528.93 710.81 1544.01 714.065C1569.15 719.599 1572.5 725.132 1572.5 725.132C1572.5 725.132 1571.25 711.461 1557.42 690.955C1542.34 668.495 1505.47 638.549 1490.39 631.713C1405.76 592.328 1359.68 600.14 1344.6 599.489C1340.41 599.163 1331.61 593.63 1335.8 583.865C1341.66 569.217 1354.65 564.009 1354.65 564.009C1354.65 564.009 1319.04 563.033 1286.78 572.472C1249.08 583.539 1229.81 599.814 1225.2 599.814C1221.43 599.814 1216.82 594.606 1216.82 587.445C1217.24 576.704 1221.85 573.449 1221.85 573.449C1221.85 573.449 1177.44 584.841 1156.07 597.21C1140.99 605.673 1118.37 619.344 1106.64 640.502C1097.42 657.102 1092.81 678.586 1092.81 678.586C1092.81 678.586 1082.76 672.726 1068.51 680.538C1053.85 688.676 1037.93 704.626 1029.55 714.065C1022.01 723.179 1010.28 732.619 1002.74 734.897C993.942 737.501 944.087 751.172 934.033 755.729C925.235 759.961 921.465 774.283 923.14 780.142C923.978 782.746 927.33 789.256 935.29 796.091C939.479 799.672 942.412 796.742 944.925 792.511C946.182 790.232 948.277 788.93 949.953 789.581C960.426 793.813 951.209 812.366 953.723 817.574C957.075 824.084 964.616 829.618 973.414 834.175C984.725 840.034 1007.77 845.567 1007.77 845.567C1007.77 845.567 1004.42 837.43 1008.6 832.547C1011.96 828.641 1021.59 822.782 1031.23 821.806C1049.24 819.853 1076.89 821.155 1091.14 830.594C1111.25 843.94 1108.31 861.517 1108.31 861.517C1108.31 861.517 1072.7 872.258 1055.53 874.211C1038.35 876.164 1025.36 876.164 1012.79 872.584C1000.23 869.003 989.333 858.913 989.333 858.913C989.333 858.913 985.563 874.537 983.887 876.49C982.63 877.792 973.414 881.373 974.251 885.93C975.927 894.718 991.847 895.369 993.523 897.973C995.617 900.903 983.468 910.017 991.847 923.688C996.455 931.174 1006.09 937.359 1015.31 941.265C1025.36 945.496 1034.58 947.124 1034.58 947.124C1034.58 947.124 1031.23 936.382 1039.19 928.57C1043.38 924.013 1052.17 922.711 1053.43 923.362C1055.95 924.339 1055.95 928.245 1066 932.476C1076.47 937.033 1089.88 935.406 1089.88 935.406C1089.88 935.406 1079.83 925.641 1088.62 917.178C1094.91 911.319 1107.89 909.04 1110.41 909.691C1113.34 910.342 1124.65 920.758 1152.3 926.943C1164.87 929.872 1184.98 931.174 1194.62 926.943C1217.66 917.178 1218.08 909.366 1241.54 905.785C1241.54 905.785 1228.97 910.342 1216.82 933.778C1205.93 954.61 1176.6 962.422 1158.17 966.979C1135.54 972.513 1110.41 976.419 1087.79 984.556C1072.7 990.09 1053.43 999.529 1036.26 1011.57C1019.08 1023.62 1003.16 1042.82 994.78 1046.73C985.982 1050.63 909.734 1058.12 838.095 1039.24C766.455 1020.69 739.643 992.368 709.479 962.097C678.058 930.523 649.151 907.413 629.042 901.879C610.608 896.671 598.459 894.067 581.701 896.671C569.133 898.624 559.078 904.809 555.727 913.923C550.281 928.57 554.051 935.731 558.659 940.288C564.106 945.496 580.025 949.728 580.025 949.728C580.025 949.728 560.754 947.124 549.862 955.261C539.388 963.073 536.455 989.113 551.537 998.879C564.106 1007.02 576.255 1007.02 576.255 1007.02C576.255 1007.02 568.295 1007.34 565.362 1011.57C560.335 1019.06 556.146 1031.1 563.268 1039.24C581.282 1059.75 599.297 1051.94 618.987 1054.86C646.219 1059.42 656.692 1060.72 676.382 1068.21C706.965 1079.93 736.71 1102.06 766.036 1124.52C800.809 1151.21 830.554 1165.53 840.19 1171.39C919.789 1220.87 1000.64 1215.01 1000.64 1215.01C1000.64 1215.01 994.361 1212.73 983.887 1208.18C976.346 1204.92 970.062 1200.69 972.994 1200.36C978.441 1199.71 996.874 1204.27 1022.43 1203.29C1047.57 1202.32 1058.88 1197.43 1061.39 1198.08C1065.58 1198.74 1058.88 1230.96 1031.65 1250.17C1004.83 1269.04 988.076 1272.95 958.331 1274.58C933.614 1275.88 845.636 1284.02 826.364 1281.74C807.093 1279.46 775.253 1268.07 762.685 1266.44C749.698 1264.81 740.062 1262.86 726.237 1272.3C712.412 1281.74 699.424 1305.5 706.546 1317.54C713.25 1329.26 735.454 1330.56 735.454 1330.56C735.454 1330.56 705.29 1330.56 694.397 1342.93C685.18 1353.35 679.734 1366.69 691.883 1387.53C698.587 1399.57 716.601 1409.66 728.75 1408.36C740.481 1407.06 755.144 1397.62 755.144 1397.62C755.144 1397.62 738.386 1413.57 745.927 1422.68C753.468 1431.79 776.091 1439.93 794.944 1438.96C813.377 1438.3 832.23 1416.82 844.379 1403.15C857.366 1388.18 876.219 1382.97 896.747 1376.13C920.208 1368.65 1064.74 1354.65 1086.95 1357.58C1109.99 1360.51 1109.57 1361.49 1122.56 1363.76C1122.56 1363.76 1121.3 1358.23 1115.85 1351.4C1109.15 1342.93 1102.45 1338.38 1104.12 1337.07C1106.22 1334.8 1137.22 1334.8 1162.36 1339.03C1191.68 1344.23 1215.14 1358.88 1215.14 1358.88C1215.14 1358.88 1194.2 1354 1172.83 1355.3C1158.59 1356.28 1146.44 1359.21 1146.44 1359.21C1148.53 1361.81 1148.95 1363.44 1150.63 1367.02C1154.4 1374.83 1157.33 1385.25 1155.65 1385.25C1152.72 1385.25 1140.99 1382.32 1126.75 1380.04C1109.15 1377.44 1102.87 1375.16 1087.79 1376.13C1078.57 1376.78 977.603 1396.32 946.601 1441.89C917.275 1484.85 932.357 1509.59 941.574 1522.61C950.79 1535.95 978.86 1554.83 988.077 1560.37C1002.32 1569.16 1052.59 1586.73 1052.17 1590.64C1051.76 1594.22 1019.08 1603.33 982.211 1606.59C944.925 1609.84 891.3 1599.43 874.543 1584.78C863.65 1575.34 841.446 1545.39 827.621 1533.68C814.215 1521.96 779.862 1509.59 757.658 1516.42C742.995 1520.98 735.454 1530.42 729.588 1539.86C723.723 1549.3 729.169 1557.44 733.359 1560.37C736.291 1562.32 745.089 1566.55 745.089 1566.55C745.089 1566.55 735.872 1564.6 725.399 1571.43C716.601 1577.29 710.736 1584.13 709.06 1600.4C707.384 1614.73 713.25 1623.19 721.628 1628.72C730.007 1634.26 741.319 1632.95 741.319 1632.95C741.319 1632.95 724.142 1637.19 723.723 1646.95C723.304 1656.72 730.845 1672.34 746.765 1678.52C762.685 1684.38 819.242 1677.22 844.798 1674.94C863.65 1673.32 897.585 1676.9 915.599 1686.01C927.749 1692.2 936.128 1702.61 947.02 1709.12C954.98 1714 969.643 1715.31 979.279 1709.77C987.657 1705.22 988.077 1699.68 993.104 1696.43C998.131 1693.17 1001.48 1691.22 1039.19 1688.94C1070.61 1686.99 1083.18 1696.75 1087.79 1702.61C1089.88 1704.89 1090.72 1702.29 1091.97 1710.1C1093.65 1721.17 1089.04 1725.4 1089.04 1725.4C1089.04 1725.4 1106.64 1724.75 1119.62 1718.24C1127.17 1714.66 1136.8 1708.8 1138.9 1707.49C1140.99 1705.87 1146.44 1703.91 1148.11 1709.45C1150.21 1716.28 1146.86 1718.24 1146.86 1718.24C1146.86 1718.24 1164.03 1716.61 1176.6 1710.1C1190.85 1702.94 1195.03 1699.03 1199.64 1698.38C1202.58 1698.05 1204.25 1700.66 1201.74 1708.47C1201.74 1708.47 1257.46 1700.01 1251.59 1652.48C1243.63 1589.99 1235.25 1564.92 1243.21 1539.86C1251.17 1514.8 1280.08 1490.38 1280.08 1490.38L1292.23 1504.71C1292.23 1504.71 1270.44 1527.82 1267.93 1558.09C1266.26 1576.32 1273.8 1612.77 1280.92 1629.7C1289.72 1649.88 1303.96 1667.13 1311.08 1673.64C1325.33 1687.31 1336.22 1688.29 1336.22 1688.29C1336.22 1688.29 1336.22 1684.71 1338.73 1678.85C1340.41 1674.29 1345.44 1673.97 1346.27 1674.29C1348.79 1674.94 1350.46 1681.45 1360.1 1687.96C1370.99 1695.12 1399.48 1698.38 1399.48 1698.38C1399.48 1698.38 1397.38 1695.12 1397.8 1689.92C1398.22 1685.03 1401.99 1681.45 1404.09 1681.78C1407.02 1682.43 1404.09 1686.01 1421.26 1692.52C1437.6 1698.71 1454.78 1695.78 1454.78 1695.78C1454.78 1695.78 1451.43 1692.2 1451.43 1688.61C1451.43 1684.06 1454.78 1680.48 1456.46 1680.15C1458.97 1679.83 1455.62 1681.78 1476.15 1685.03C1495.42 1688.29 1507.99 1678.52 1507.99 1678.52C1507.99 1678.52 1499.61 1672.01 1495 1665.18C1492.07 1661.27 1493.74 1656.72 1496.26 1654.44C1499.19 1651.83 1524.74 1651.51 1537.31 1664.85C1548.2 1676.57 1556.58 1730.6 1552.81 1760.55C1550.3 1782.68 1523.49 1822.4 1484.94 1840.62C1451.43 1856.57 1439.7 1849.74 1427.97 1843.23C1414.14 1835.42 1390.26 1819.47 1374.76 1817.84C1359.26 1815.89 1343.34 1815.89 1331.19 1818.16C1321.14 1820.12 1325.75 1818.49 1307.31 1822.4C1294.74 1825 1273.8 1830.21 1265.42 1842.9C1257.88 1853.97 1258.71 1873.83 1270.86 1880.66C1282.17 1887.5 1293.07 1889.12 1298.51 1884.89C1298.51 1884.89 1292.23 1888.8 1287.62 1895.63C1280.5 1905.07 1280.5 1913.54 1292.23 1927.53C1302.28 1939.58 1318.62 1944.46 1326.58 1944.78C1339.15 1945.44 1346.69 1942.83 1346.69 1942.83C1346.69 1942.83 1349.62 1942.18 1356.33 1935.67C1356.33 1935.67 1341.66 1952.6 1350.46 1964.31C1354.65 1969.85 1368.06 1976.03 1383.14 1976.03C1404.09 1976.03 1423.36 1973.43 1432.58 1969.2C1447.24 1962.69 1460.23 1955.2 1471.12 1947.71C1490.81 1934.37 1508.4 1918.42 1534.8 1905.4C1549.04 1898.24 1606.44 1874.8 1633.25 1870.57C1648.75 1868.29 1655.87 1866.99 1665.09 1860.15C1674.31 1853.64 1682.68 1836.39 1673.89 1821.09C1664.67 1805.8 1672.21 1784.31 1679.75 1755.02C1687.29 1725.72 1696.51 1706.52 1708.66 1699.68C1720.39 1692.85 1734.21 1693.82 1758.09 1681.78C1783.65 1669.08 1780.72 1647.28 1780.72 1647.28C1780.72 1647.28 1773.6 1649.88 1754.32 1642.07C1737.99 1635.56 1740.08 1627.75 1740.5 1624.82C1741.34 1621.24 1745.53 1621.56 1759.77 1611.8C1776.11 1600.4 1771.5 1572.74 1771.5 1572.74C1771.5 1572.74 1766.05 1578.6 1748.88 1578.6C1736.73 1578.27 1725 1577.62 1722.9 1569.48C1720.39 1561.02 1729.61 1559.39 1731.7 1548C1734.21 1533.68 1724.58 1524.24 1724.58 1524.24C1724.58 1524.24 1717.46 1534 1686.87 1535.63C1667.6 1536.61 1657.97 1534.33 1649.59 1531.72C1637.86 1527.82 1624.45 1516.75 1621.52 1505.03C1616.07 1482.25 1626.55 1471.51 1629.48 1468.9C1640.79 1459.14 1667.6 1463.37 1701.12 1481.6C1738.82 1502.1 1812.56 1530.75 1872.05 1511.54C1927.35 1493.97 1978.04 1416.5 1919.81 1351.07C1868.28 1292.81 1719.97 1169.12 1703.63 1148.61C1688.97 1130.71 1665.09 1100.11 1670.54 1070.16C1674.72 1044.77 1689.81 1027.85 1704.89 1018.08C1719.55 1008.32 1737.99 1001.48 1743.43 1001.16C1748.46 1000.51 1789.1 1019.39 1823.87 1022.64C1856.97 1025.57 1886.71 1014.18 1910.17 1004.09C1929.02 995.949 1945.78 997.576 1945.78 997.576C1937.4 993.67 1939.92 993.345 1930.7 990.415C1925.25 988.788 1912.68 989.113 1912.68 989.113C1912.68 989.113 1964.21 977.07 1991.45 953.308C2037.53 913.597 2045.07 848.497 2045.07 848.497Z" fill="#FFE600"/>
</g>
</g>
<defs>
<clipPath id="clip0_158_686">
<rect width="2500" height="2500" fill="white"/>
</clipPath>
<clipPath id="clip1_158_686">
<rect width="2300" height="2500" fill="white" transform="translate(100)"/>
</clipPath>
</defs>
</svg>
