<svg width="2500" height="2500" viewBox="0 0 2500 2500" fill="none" xmlns="http://www.w3.org/2000/svg">
<path d="M1295.39 2356.7C1321.11 2336.52 1339.99 2326.43 1382.95 2310.8C1613.73 2226.17 2061.95 2176.04 2061.95 1866.82V100H439V1866.82C439 2170.51 875.822 2230.73 1112.14 2308.52C1112.14 2308.52 1164.87 2329.68 1186.68 2344.65C1217.6 2365.81 1248.85 2399.01 1248.85 2399.01C1248.85 2399.01 1278.14 2370.04 1295.39 2356.7Z" fill="#94BEE5"/>
<path d="M1295.39 2356.7C1321.11 2336.52 1339.99 2326.43 1382.95 2310.8C1613.73 2226.17 2061.95 2176.04 2061.95 1866.82V100H439V1866.82C439 2170.51 875.822 2230.73 1112.14 2308.52C1112.14 2308.52 1164.87 2329.68 1186.68 2344.65C1217.6 2365.81 1248.85 2399.01 1248.85 2399.01C1248.85 2399.01 1278.14 2370.04 1295.39 2356.7Z" stroke="#7A003C" stroke-width="7.30326" stroke-miterlimit="6"/>
<path d="M807.467 657.258L833.832 711.291L892.423 720.08L850.107 762.069L860.198 821.31L807.792 793.317L755.387 821.31L765.477 762.069L723.162 720.08L781.752 711.291L807.467 657.258Z" fill="white"/>
<path d="M755.061 209.367C753.759 209.367 751.155 210.995 748.226 213.599L725.115 230.525C720.233 234.105 716.327 240.941 713.072 251.031C710.142 261.122 707.538 270.561 705.26 279.024L645.693 455.446C637.556 478.882 630.069 495.808 623.559 505.573C617.049 515.338 607.284 519.895 594.589 519.895C590.032 519.895 586.777 522.499 586.777 526.731V534.543C586.777 537.147 588.73 538.774 591.985 538.774C593.938 538.774 601.425 537.798 613.143 537.147C625.186 536.496 633.975 536.17 639.509 536.17C645.042 536.17 653.18 536.17 664.247 537.147C675.639 537.798 683.126 538.774 686.381 538.774C691.914 538.774 694.844 537.147 694.844 534.543V526.08C694.844 522.499 692.891 520.221 688.985 520.221C667.827 520.221 657.411 514.362 657.411 502.318C657.411 497.435 659.039 489.949 662.619 480.184L683.777 416.386H776.544L798.678 468.466C803.561 480.835 806.816 489.298 808.118 493.204C809.42 496.785 810.722 500.039 810.722 503.294C810.722 514.687 801.608 520.221 783.38 520.221C778.497 520.221 775.568 522.824 775.568 527.056V534.868C775.568 537.147 777.195 539.1 779.799 539.1C783.38 539.1 793.47 538.123 811.373 537.472C829.276 536.821 841.645 536.496 848.155 536.496C855.967 536.496 866.057 536.496 878.752 537.472C891.772 538.123 900.886 539.1 906.094 539.1C909.349 539.1 911.302 537.147 911.302 533.241V525.428C911.302 522.824 909.349 520.872 905.443 520.221C894.05 518.593 885.913 516.315 881.681 511.758C877.124 507.201 871.916 497.435 866.383 483.764L758.967 216.203C757.34 211.971 756.038 209.367 755.061 209.367ZM1783.64 216.203C1733.19 216.203 1690.23 231.176 1655.72 262.098C1621.22 293.021 1604.62 330.779 1604.62 374.396C1604.62 429.406 1622.2 471.721 1656.7 501.342C1691.2 530.962 1733.19 545.61 1784.62 545.61C1824.01 545.61 1859.16 538.123 1889.43 522.499L1903.1 466.187C1904.08 462.607 1904.73 460.328 1904.73 459.352C1904.73 457.724 1902.45 455.771 1897.9 454.144C1893.34 452.516 1889.76 451.54 1887.8 451.54C1886.18 451.54 1884.55 454.795 1881.95 460.979C1872.18 482.788 1861.11 498.738 1848.74 508.828C1836.7 518.593 1818.15 523.15 1792.43 523.15C1757.28 523.15 1727.98 509.153 1704.55 481.486C1681.11 453.493 1669.72 419.315 1669.72 378.302C1669.72 337.615 1680.46 304.413 1701.94 277.722C1723.43 251.031 1751.42 237.686 1786.25 237.686C1809.68 237.686 1828.56 244.196 1843.21 257.216C1857.86 270.236 1868.27 285.209 1873.81 302.46C1874.46 305.064 1875.11 307.343 1875.44 308.32C1876.09 309.296 1876.41 309.296 1878.04 309.296C1880.32 309.296 1884.22 309.296 1888.13 308.32C1892.36 307.343 1894.97 306.041 1894.97 305.065C1894.97 303.112 1893.66 293.346 1891.71 276.095C1889.43 258.518 1887.48 249.404 1886.5 247.125C1884.22 241.917 1872.83 235.407 1850.7 227.595C1828.89 220.434 1806.43 216.203 1783.64 216.203ZM909.349 224.015C905.768 224.015 904.141 225.642 904.141 229.223V237.035C904.141 240.29 906.094 242.243 910.976 242.243C923.02 242.243 932.459 244.196 938.969 249.078C945.479 253.961 951.989 264.377 957.849 278.048L1063.64 539.751C1064.94 542.68 1065.59 544.633 1066.89 545.61C1068.19 546.586 1070.8 546.586 1074.7 546.586H1082.52C1085.12 546.586 1087.07 546.586 1088.37 545.61C1089.68 544.633 1090.65 543.006 1091.63 540.402L1196.44 280.652C1202.63 265.028 1207.18 253.961 1210.76 249.078C1214.34 244.196 1221.83 242.243 1231.92 242.243C1235.83 242.243 1237.13 239.964 1237.13 236.384V229.548C1237.13 225.968 1235.18 224.34 1231.92 224.34C1228.67 224.34 1223.13 224.34 1214.02 225.317C1204.9 225.968 1198.07 226.293 1193.51 226.293C1187.65 226.293 1176.91 226.293 1162.91 225.317C1148.92 224.666 1141.11 224.34 1138.18 224.34C1134.6 224.34 1132.97 225.968 1132.97 229.548V236.384C1132.97 240.29 1134.92 242.243 1139.8 242.243C1152.17 242.243 1160.96 242.894 1165.52 244.847C1170.08 246.8 1172.35 251.031 1172.35 257.541C1172.35 264.377 1171.38 272.514 1168.12 280.652L1097.49 465.536L1020.02 275.118C1016.11 265.028 1014.81 257.867 1014.81 253.961C1014.81 250.055 1017.09 246.474 1021.65 244.521C1026.2 242.568 1034.34 241.917 1045.41 241.917C1049.64 241.917 1051.27 240.29 1051.27 236.709V228.897C1051.27 225.317 1049.31 223.689 1044.43 223.689C1040.85 223.689 1029.13 223.689 1009.6 224.666C990.073 225.317 976.077 225.642 968.59 225.642C959.801 225.642 948.734 225.642 934.412 224.666C921.067 224.015 912.604 224.015 909.349 224.015ZM1311.67 224.015C1306.46 224.015 1303.2 225.317 1303.2 228.246V236.709C1303.2 239.964 1306.79 241.917 1312.64 241.917C1325.66 241.917 1333.8 244.847 1338.36 251.357C1342.92 257.867 1345.19 269.91 1345.19 287.162V482.137C1345.19 494.831 1342.27 504.597 1336.73 511.107C1331.2 517.617 1322.74 520.546 1311.02 520.546C1306.13 520.546 1303.2 522.499 1303.2 525.754V534.217C1303.2 537.472 1305.81 539.425 1311.02 539.425C1313.95 539.425 1325.34 538.449 1344.22 537.798C1363.42 537.147 1375.14 536.821 1381 536.821C1387.18 536.821 1397.93 536.821 1412.57 537.798C1427.55 538.449 1436.66 539.425 1438.94 539.425C1443.82 539.425 1445.77 537.798 1445.77 535.194V525.103C1445.77 522.825 1443.82 520.872 1438.94 520.872C1426.9 520.872 1418.11 517.942 1412.57 512.408C1407.04 506.875 1404.11 496.785 1404.11 482.463V379.279H1465.3C1478.32 379.279 1488.09 382.208 1494.27 387.742C1500.78 393.275 1505.67 402.715 1508.6 415.735C1509.25 419.641 1511.2 420.943 1513.8 420.943H1523.24C1525.52 420.943 1525.85 419.315 1525.85 415.084C1525.85 412.154 1525.85 405.319 1524.87 395.554C1524.22 385.789 1523.89 379.279 1523.89 375.047C1523.89 369.188 1524.22 360.074 1524.87 349.333C1525.52 338.591 1525.85 332.407 1525.85 329.803C1525.85 326.548 1524.55 324.595 1521.62 324.595H1513.15C1510.87 324.595 1509.57 325.571 1508.92 328.826C1506.32 341.195 1502.41 349.658 1497.85 353.564C1493.3 357.47 1484.18 359.423 1470.51 359.423H1404.11V271.538C1404.11 260.471 1407.69 253.31 1413.55 249.404C1419.73 245.498 1430.8 244.196 1447.73 244.196H1461.4C1485.16 244.196 1501.11 246.474 1509.25 251.031C1517.38 255.588 1523.57 263.726 1528.13 275.769L1533.33 288.464C1534.96 293.021 1536.26 295.3 1539.19 295.3H1546.03C1548.96 295.3 1550.26 293.997 1550.26 290.091V227.921C1550.26 224.666 1549.28 223.689 1546.03 223.689C1541.8 223.689 1518.04 223.689 1476.05 224.666C1434.38 225.317 1408.34 225.642 1397.6 225.642C1384.58 225.642 1367.98 225.642 1347.47 224.666C1325.99 224.015 1314.27 224.015 1311.67 224.015ZM725.441 293.021L767.105 394.252H692.891L725.441 293.021ZM938.318 2031.85C922.694 2030.87 907.721 2033.47 907.721 2033.47V2147.73H923.996V2088.16C923.996 2088.16 969.892 2077.42 969.892 2050.73C969.892 2037.05 953.943 2032.82 938.318 2031.85ZM1021.97 2031.85C1006.35 2030.87 990.399 2033.47 990.399 2033.47V2147.73H1007.32V2088.16C1007.32 2088.16 1015.79 2085.55 1025.23 2081.32C1026.53 2083.28 1031.74 2092.39 1039.55 2111.27C1048.34 2132.1 1050.62 2148.05 1050.62 2148.05H1066.89C1066.89 2148.05 1062.99 2127.22 1055.82 2108.99C1049.64 2093.37 1040.53 2080.02 1037.92 2075.79C1046.38 2069.93 1053.22 2061.47 1053.22 2051.05C1053.55 2037.05 1037.6 2032.82 1021.97 2031.85ZM1200.67 2031.85C1185.05 2030.87 1169.1 2033.47 1169.1 2033.47V2147.73H1186.02V2088.16C1186.02 2088.16 1231.92 2077.42 1231.92 2050.73C1232.25 2037.05 1216.3 2032.82 1200.67 2031.85ZM1371.23 2031.85C1355.61 2030.87 1339.66 2033.47 1339.66 2033.47V2147.73H1355.94V2088.16C1355.94 2088.16 1364.4 2085.55 1373.84 2081.32C1375.14 2083.28 1381.33 2092.39 1389.14 2111.27C1397.93 2132.1 1399.23 2148.05 1399.23 2148.05H1415.5C1415.5 2148.05 1411.6 2127.22 1404.44 2108.99C1397.93 2092.72 1389.79 2078.39 1387.51 2074.81C1395.65 2068.95 1401.83 2061.14 1401.83 2051.05C1401.83 2037.05 1386.86 2032.82 1371.23 2031.85ZM1524.55 2031.85C1517.71 2032.17 1512.5 2033.47 1512.5 2033.47V2147.73H1529.43C1529.43 2147.73 1584.76 2148.7 1584.76 2077.74C1585.09 2034.13 1544.73 2030.54 1524.55 2031.85ZM1091.63 2033.47V2147.73H1141.76V2134.05H1107.9V2081.97H1131.01V2069.28H1107.9V2046.17H1142.08V2033.47H1091.63ZM1264.8 2033.47L1228.99 2147.73H1246.89L1265.77 2081.97H1287.91L1306.79 2147.73H1323.71L1288.88 2033.47H1264.8ZM1435.03 2033.47V2147.73H1485.49V2134.05H1452.28V2081.97H1474.42V2069.28H1452.28V2046.17H1485.49V2033.47H1435.03ZM1276.51 2042.91L1284.33 2069.28H1269.03L1276.51 2042.91ZM938.318 2044.54C945.479 2044.87 952.64 2046.49 952.64 2050.4C952.64 2065.7 923.671 2071.56 923.671 2071.56V2045.19C923.996 2045.52 931.157 2044.54 938.318 2044.54ZM1021.97 2044.54C1029.13 2044.87 1035.64 2046.49 1035.64 2050.4C1035.64 2065.7 1007.65 2071.56 1007.65 2071.56V2045.19C1007.32 2045.52 1014.81 2044.54 1021.97 2044.54ZM1200.67 2044.54C1207.83 2044.87 1214.99 2046.49 1214.99 2050.4C1214.99 2065.7 1186.02 2071.56 1186.02 2071.56V2045.19C1186.35 2045.52 1193.51 2044.54 1200.67 2044.54ZM1370.26 2044.54C1377.42 2044.87 1384.58 2046.49 1384.58 2050.4C1384.58 2065.7 1355.61 2071.56 1355.61 2071.56V2045.19C1355.94 2045.52 1363.1 2044.54 1370.26 2044.54ZM1533.99 2046.17C1545.38 2045.52 1568.16 2047.8 1568.16 2078.39C1568.16 2129.5 1539.52 2135.68 1529.75 2136.33V2046.82C1530.73 2046.82 1531.38 2046.49 1533.99 2046.17Z" fill="#7A003C"/>
<path d="M1297.67 704.78C1288.23 719.428 1263.82 728.542 1263.82 728.542C1263.82 728.542 1258.29 728.216 1262.52 718.126C1266.42 709.012 1268.05 704.455 1268.05 704.455L1248.19 711.616C1248.19 711.616 1255.03 705.431 1257.96 695.341C1260.56 685.25 1259.91 678.74 1259.91 678.74C1259.91 678.74 1257.31 687.203 1247.54 691.435C1239.73 694.69 1224.11 696.317 1224.11 696.317C1224.11 696.317 1242.99 657.257 1272.28 659.861C1301.58 662.791 1307.11 690.133 1297.67 704.78ZM1165.19 747.746C1161.61 756.21 1153.15 764.998 1143.38 767.602C1135.25 769.555 1128.09 769.555 1122.23 767.277C1107.58 762.069 1104.65 751.652 1104.65 751.652L1120.27 744.166C1122.88 751.978 1128.41 756.535 1134.92 756.86C1141.43 757.186 1146.31 753.931 1148.27 748.397C1149.24 745.142 1148.59 740.26 1148.59 740.26C1148.59 740.26 1146.64 744.817 1142.73 744.817C1139.8 744.817 1135.25 742.864 1136.87 736.028L1172.03 719.102C1172.03 719.428 1171.05 734.075 1165.19 747.746ZM1867.95 865.903C1867.95 865.903 1835.4 910.497 1800.57 917.658C1776.16 922.866 1759.23 920.262 1759.23 920.262C1759.23 920.262 1768.35 919.611 1775.18 914.077C1783.32 907.893 1787.88 897.151 1787.88 897.151C1787.88 897.151 1773.23 904.638 1748.82 898.128C1737.75 895.198 1713.66 892.92 1694.46 900.081C1679.81 905.289 1662.56 920.262 1662.56 920.262C1662.56 920.262 1668.09 914.403 1671.02 907.567C1674.6 898.779 1672.65 889.014 1672.65 889.014C1672.65 889.014 1670.7 898.453 1658.65 903.661C1651.49 906.591 1635.87 913.426 1629.03 923.842C1619.92 937.513 1620.89 954.114 1617.31 958.02C1614.38 961.275 1525.85 1001.31 1519.66 1083.01C1513.8 1164.39 1574.35 1227.21 1594.2 1250.32C1614.06 1273.43 1698.36 1371.73 1712.03 1393.87C1723.1 1411.44 1732.21 1430 1721.8 1452.78C1715.61 1466.13 1694.46 1481.75 1663.21 1467.1C1631.31 1452.13 1609.83 1431.3 1576.3 1416.65C1549.61 1404.61 1518.36 1396.14 1511.53 1391.59C1506.32 1388.01 1459.77 1358.39 1455.54 1304.35C1451.96 1262.36 1468.88 1196.61 1471.49 1151.04C1475.07 1088.22 1456.84 1061.2 1456.52 1058.6C1455.86 1054.37 1472.46 1059.58 1479.3 1071.95C1489.07 1089.2 1487.76 1096.03 1487.76 1096.03C1487.76 1096.03 1509.25 1056 1500.13 1005.22C1489.72 947.604 1454.24 940.443 1453.91 936.211C1453.59 932.956 1464.65 930.678 1475.72 934.258C1506.97 944.024 1512.5 974.295 1512.5 974.295C1512.5 974.295 1525.85 931.98 1507.29 889.014C1490.37 849.628 1464.98 846.048 1464.33 841.491C1464 839.212 1472.14 835.306 1489.07 839.538C1515.11 846.048 1520.96 868.182 1520.96 868.182C1520.96 868.182 1527.15 831.4 1516.08 800.152C1496.23 744.166 1455.86 738.307 1455.54 734.075C1455.54 731.471 1466.93 728.216 1478.65 731.471C1498.18 737.005 1500.78 742.538 1500.78 742.538C1500.78 742.538 1499.81 728.867 1489.07 708.361C1477.35 685.901 1448.7 655.955 1436.99 649.12C1371.23 609.734 1335.43 617.546 1323.71 616.895C1320.46 616.57 1313.62 611.036 1316.88 601.271C1321.43 586.624 1331.52 581.415 1331.52 581.415C1331.52 581.415 1303.86 580.439 1278.79 589.879C1249.5 600.946 1234.52 617.221 1230.94 617.221C1228.01 617.221 1224.43 612.013 1224.43 604.852C1224.76 594.11 1228.34 590.855 1228.34 590.855C1228.34 590.855 1193.84 602.248 1177.24 614.617C1165.52 623.08 1147.94 636.751 1138.83 657.908C1131.67 674.509 1128.09 695.992 1128.09 695.992C1128.09 695.992 1120.27 690.133 1109.21 697.945C1097.81 706.082 1085.44 722.032 1078.93 731.471C1073.08 740.585 1063.96 750.025 1058.1 752.303C1051.27 754.907 1012.53 768.579 1004.72 773.136C997.885 777.367 994.955 791.689 996.257 797.548C996.908 800.152 999.512 806.662 1005.7 813.498C1008.95 817.078 1011.23 814.149 1013.18 809.917C1014.16 807.639 1015.79 806.336 1017.09 806.987C1025.23 811.219 1018.07 829.773 1020.02 834.981C1022.62 841.491 1028.48 847.024 1035.32 851.581C1044.11 857.44 1062.01 862.974 1062.01 862.974C1062.01 862.974 1059.4 854.836 1062.66 849.954C1065.26 846.048 1072.75 840.189 1080.24 839.212C1094.23 837.259 1115.72 838.561 1126.78 848.001C1142.41 861.346 1140.13 878.923 1140.13 878.923C1140.13 878.923 1112.46 889.665 1099.12 891.618C1085.77 893.571 1075.68 893.571 1065.91 889.99C1056.15 886.41 1047.69 876.319 1047.69 876.319C1047.69 876.319 1044.76 891.943 1043.45 893.896C1042.48 895.198 1035.32 898.779 1035.97 903.336C1037.27 912.124 1049.64 912.775 1050.94 915.379C1052.57 918.309 1043.13 927.423 1049.64 941.094C1053.22 948.58 1060.71 954.765 1067.87 958.671C1075.68 962.903 1082.84 964.53 1082.84 964.53C1082.84 964.53 1080.24 953.788 1086.42 945.976C1089.68 941.419 1096.51 940.117 1097.49 940.768C1099.44 941.745 1099.44 945.651 1107.25 949.882C1115.39 954.439 1125.81 952.812 1125.81 952.812C1125.81 952.812 1117.99 943.047 1124.83 934.584C1129.71 928.725 1139.8 926.446 1141.76 927.097C1144.03 927.748 1152.82 938.164 1174.31 944.349C1184.07 947.278 1199.7 948.58 1207.18 944.349C1225.08 934.584 1225.41 926.772 1243.64 923.191C1243.64 923.191 1233.87 927.748 1224.43 951.185C1215.97 972.017 1193.19 979.828 1178.86 984.385C1161.29 989.919 1141.76 993.825 1124.18 1001.96C1112.46 1007.5 1097.49 1016.94 1084.14 1028.98C1070.8 1041.02 1058.43 1060.23 1051.92 1064.13C1045.08 1068.04 985.841 1075.53 930.181 1056.65C874.52 1038.09 853.688 1009.77 830.252 979.503C805.839 947.929 783.38 924.819 767.756 919.285C753.433 914.077 743.994 911.473 730.974 914.077C721.209 916.03 713.397 922.215 710.793 931.329C706.561 945.976 709.491 953.138 713.071 957.695C717.303 962.903 729.672 967.134 729.672 967.134C729.672 967.134 714.699 964.53 706.236 972.668C698.098 980.48 695.82 1006.52 707.538 1016.28C717.303 1024.42 726.742 1024.42 726.742 1024.42C726.742 1024.42 720.558 1024.75 718.279 1028.98C714.373 1036.47 711.118 1048.51 716.652 1056.65C730.648 1077.15 744.645 1069.34 759.944 1072.27C781.101 1076.83 789.239 1078.13 804.537 1085.62C828.299 1097.33 851.409 1119.47 874.194 1141.93C901.211 1168.62 924.322 1182.94 931.808 1188.8C993.653 1238.28 1056.47 1232.42 1056.47 1232.42C1056.47 1232.42 1051.59 1230.14 1043.45 1225.58C1037.6 1222.33 1032.71 1218.1 1034.99 1217.77C1039.22 1217.12 1053.55 1221.68 1073.4 1220.7C1092.93 1219.72 1101.72 1214.84 1103.67 1215.49C1106.93 1216.14 1101.72 1248.37 1080.56 1267.57C1059.73 1286.45 1046.71 1290.36 1023.6 1291.98C1004.39 1293.29 936.039 1301.42 921.066 1299.14C906.093 1296.87 881.355 1285.47 871.59 1283.85C861.5 1282.22 854.013 1280.27 843.272 1289.71C832.53 1299.15 822.44 1322.91 827.973 1334.95C833.181 1346.67 850.433 1347.97 850.433 1347.97C850.433 1347.97 826.997 1347.97 818.534 1360.34C811.373 1370.76 807.141 1384.1 816.581 1404.93C821.789 1416.98 835.785 1427.07 845.225 1425.76C854.339 1424.46 865.731 1415.02 865.731 1415.02C865.731 1415.02 852.711 1430.97 858.57 1440.09C864.429 1449.2 882.006 1457.34 896.654 1456.36C910.976 1455.71 925.624 1434.23 935.063 1420.56C945.154 1405.58 959.801 1400.38 975.751 1393.54C993.979 1386.05 1106.28 1372.06 1123.53 1374.99C1141.43 1377.92 1141.11 1378.89 1151.2 1381.17C1151.2 1381.17 1150.22 1375.64 1145.99 1368.8C1140.78 1360.34 1135.57 1355.78 1136.87 1354.48C1138.5 1352.2 1162.59 1352.2 1182.12 1356.43C1204.9 1361.64 1223.13 1376.29 1223.13 1376.29C1223.13 1376.29 1206.86 1371.41 1190.26 1372.71C1179.19 1373.68 1169.75 1376.61 1169.75 1376.61C1171.38 1379.22 1171.7 1380.85 1173 1384.43C1175.93 1392.24 1178.21 1402.65 1176.91 1402.65C1174.63 1402.65 1165.52 1399.72 1154.45 1397.45C1140.78 1394.84 1135.9 1392.56 1124.18 1393.54C1117.02 1394.19 1038.57 1413.72 1014.49 1459.29C991.7 1502.26 1003.42 1527 1010.58 1540.02C1017.74 1553.36 1039.55 1572.24 1046.71 1577.77C1057.78 1586.56 1096.84 1604.14 1096.51 1608.05C1096.19 1611.63 1070.8 1620.74 1042.15 1623.99C1013.18 1627.25 971.519 1616.83 958.499 1602.19C950.036 1592.75 932.785 1562.8 922.043 1551.08C911.627 1539.36 884.936 1527 867.684 1533.83C856.292 1538.39 850.433 1547.83 845.876 1557.27C841.319 1566.71 845.55 1574.84 848.805 1577.77C851.084 1579.73 857.919 1583.96 857.919 1583.96C857.919 1583.96 850.758 1582.01 842.621 1588.84C835.785 1594.7 831.228 1601.54 829.926 1617.81C828.624 1632.13 833.181 1640.6 839.691 1646.13C846.201 1651.66 854.99 1650.36 854.99 1650.36C854.99 1650.36 841.644 1654.59 841.319 1664.36C840.993 1674.12 846.852 1689.75 859.221 1695.93C871.59 1701.79 915.533 1694.63 935.388 1692.35C950.036 1690.72 976.402 1694.3 990.398 1703.42C999.838 1709.6 1006.35 1720.02 1014.81 1726.53C1021 1731.41 1032.39 1732.71 1039.87 1727.18C1046.38 1722.62 1046.71 1717.09 1050.62 1713.83C1054.52 1710.58 1057.13 1708.63 1086.42 1706.35C1110.83 1704.39 1120.6 1714.16 1124.18 1720.02C1125.81 1722.3 1126.46 1719.69 1127.43 1727.5C1128.74 1738.57 1125.16 1742.8 1125.16 1742.8C1125.16 1742.8 1138.83 1742.15 1148.92 1735.64C1154.78 1732.06 1162.26 1726.2 1163.89 1724.9C1165.52 1723.27 1169.75 1721.32 1171.05 1726.85C1172.68 1733.69 1170.07 1735.64 1170.07 1735.64C1170.07 1735.64 1183.42 1734.01 1193.19 1727.5C1204.25 1720.34 1207.51 1716.44 1211.09 1715.79C1213.37 1715.46 1214.67 1718.06 1212.72 1725.88C1212.72 1725.88 1256.01 1717.41 1251.45 1669.89C1245.27 1607.39 1238.76 1582.33 1244.94 1557.27C1251.12 1532.2 1273.58 1507.79 1273.58 1507.79L1283.02 1522.11C1283.02 1522.11 1266.1 1545.22 1264.14 1575.5C1262.84 1593.72 1268.7 1630.18 1274.23 1647.11C1281.07 1667.29 1292.14 1684.54 1297.67 1691.05C1308.74 1704.72 1317.2 1705.7 1317.2 1705.7C1317.2 1705.7 1317.2 1702.12 1319.15 1696.26C1320.46 1691.7 1324.36 1691.37 1325.01 1691.7C1326.97 1692.35 1328.27 1698.86 1335.75 1705.37C1344.22 1712.53 1366.35 1715.79 1366.35 1715.79C1366.35 1715.79 1364.72 1712.53 1365.05 1707.32C1365.38 1702.44 1368.3 1698.86 1369.93 1699.19C1372.21 1699.84 1369.93 1703.42 1383.28 1709.93C1395.97 1716.11 1409.32 1713.18 1409.32 1713.18C1409.32 1713.18 1406.71 1709.6 1406.71 1706.02C1406.71 1701.46 1409.32 1697.88 1410.62 1697.56C1412.57 1697.23 1409.97 1699.19 1425.92 1702.44C1440.89 1705.7 1450.66 1695.93 1450.66 1695.93C1450.66 1695.93 1444.15 1689.42 1440.57 1682.58C1438.29 1678.68 1439.59 1674.12 1441.54 1671.84C1443.82 1669.24 1463.68 1668.91 1473.44 1682.26C1481.9 1693.98 1488.41 1748.01 1485.49 1777.96C1483.53 1800.09 1462.7 1839.8 1432.75 1858.03C1406.71 1873.98 1397.6 1867.14 1388.49 1860.63C1377.74 1852.82 1359.19 1836.87 1347.15 1835.25C1335.1 1833.29 1322.73 1833.29 1313.3 1835.57C1305.48 1837.52 1309.06 1835.9 1294.74 1839.8C1284.98 1842.41 1268.7 1847.61 1262.19 1860.31C1256.33 1871.38 1256.98 1891.23 1266.42 1898.07C1275.21 1904.9 1283.67 1906.53 1287.91 1902.3C1287.91 1902.3 1283.02 1906.2 1279.44 1913.04C1273.91 1922.48 1273.91 1930.94 1283.02 1944.94C1290.84 1956.98 1303.53 1961.86 1309.71 1962.19C1319.48 1962.84 1325.34 1960.24 1325.34 1960.24C1325.34 1960.24 1327.62 1959.59 1332.83 1953.08C1332.83 1953.08 1321.43 1970 1328.27 1981.72C1331.52 1987.25 1341.94 1993.44 1353.66 1993.44C1369.93 1993.44 1384.91 1990.83 1392.07 1986.6C1403.46 1980.09 1413.55 1972.61 1422.01 1965.12C1437.31 1951.77 1450.98 1935.82 1471.49 1922.8C1482.56 1915.64 1527.15 1892.21 1547.98 1887.98C1560.02 1885.7 1565.56 1884.4 1572.72 1877.56C1579.88 1871.05 1586.39 1853.8 1579.55 1838.5C1572.39 1823.2 1578.25 1801.72 1584.11 1772.42C1589.97 1743.13 1597.13 1723.92 1606.57 1717.09C1615.69 1710.25 1626.43 1711.23 1644.98 1699.19C1664.84 1686.49 1662.56 1664.68 1662.56 1664.68C1662.56 1664.68 1657.02 1667.29 1642.05 1659.47C1629.36 1652.96 1630.98 1645.15 1631.31 1642.22C1631.96 1638.64 1635.22 1638.97 1646.28 1629.2C1658.98 1617.81 1655.4 1590.14 1655.4 1590.14C1655.4 1590.14 1651.16 1596 1637.82 1596C1628.38 1595.68 1619.27 1595.03 1617.64 1586.89C1615.69 1578.42 1622.85 1576.8 1624.47 1565.4C1626.43 1551.08 1618.94 1541.64 1618.94 1541.64C1618.94 1541.64 1613.41 1551.41 1589.65 1553.04C1574.67 1554.01 1567.19 1551.73 1560.68 1549.13C1551.56 1545.22 1541.15 1534.16 1538.87 1522.44C1534.64 1499.65 1542.77 1488.91 1545.05 1486.31C1553.84 1476.54 1574.67 1480.77 1600.71 1499C1630.01 1519.51 1687.3 1548.15 1733.52 1528.95C1776.48 1511.37 1815.87 1433.9 1770.62 1368.48C1730.59 1310.21 1615.36 1186.52 1602.67 1166.02C1591.27 1148.11 1572.72 1117.52 1576.95 1087.57C1580.21 1062.18 1591.92 1045.25 1603.64 1035.49C1615.03 1025.72 1629.36 1018.89 1633.59 1018.56C1637.49 1017.91 1669.07 1036.79 1696.08 1040.05C1721.8 1042.98 1744.91 1031.58 1763.14 1021.49C1777.78 1013.36 1790.8 1014.98 1790.8 1014.98C1784.29 1011.08 1786.25 1010.75 1779.09 1007.82C1774.86 1006.19 1765.09 1006.52 1765.09 1006.52C1765.09 1006.52 1805.13 994.476 1826.28 970.715C1862.09 931.004 1867.95 865.903 1867.95 865.903Z" fill="#FFE600"/>
</svg>
