<svg width="2200" height="2500" viewBox="0 0 2200 2500" fill="none" xmlns="http://www.w3.org/2000/svg">
<g clip-path="url(#clip0_290_1729)">
<path d="M1269.43 0.0078125V93.882H1397.08V0.0078125H1734.92V93.882H1862.4V0.0078125H2200.42V536.597H2134.71C2073.84 536.597 2024.25 576.498 2024.25 632.789V2146.86L1100.42 2500.01L176.589 2146.86V632.789C176.589 576.498 126.996 536.597 66.124 536.597H0.417603V0.0078125H338.438V93.882H465.912V0.0078125H803.754V93.882H931.407V0.0078125H1269.43Z" fill="#CD3529"/>
<path d="M244.454 613.912C244.454 523.846 166.394 474.674 68.2822 474.011V62.5875H270.593V156.462H533.777V62.5875H736.088V156.462H999.272V62.5875H1201.58V156.462H1464.77V62.5875H1667.26V156.462H1930.26V62.5875H2132.75V474.011C2034.64 474.674 1956.4 523.846 1956.4 613.912L1956.58 2104.97L1100.43 2432.29L244.454 2104.97V613.912ZM976.713 41.7266V135.601H758.647V41.7266H511.039V135.601H293.152V41.7266H45.7236V494.872H66.1338C151.713 494.872 221.716 539.905 221.716 619.044V2118.88L1100.43 2454.81L1979.14 2118.88V619.044C1979.14 539.905 2049.14 494.872 2134.72 494.872H2155.13V41.7266H1907.7V135.601H1689.82V41.7266H1442.21V135.601H1224.14V41.7266H976.713Z" fill="white"/>
<path d="M334.147 1597.61V503.07H1866.7V1597.61H334.147Z" fill="white"/>
<path d="M356.704 1576.64V523.828H1844.14V1576.64H356.704Z" fill="#374689"/>
<path d="M221.694 462.948V223.047H1979.12V462.948H221.694Z" fill="white"/>
<path d="M1956.39 441.983V243.805H244.443V441.983H1956.39ZM334.14 1627.58C845.11 1627.58 1355.72 1627.75 1866.69 1627.75V1862.18C1355.72 1862.18 845.11 1862.18 334.14 1862.18V1627.58Z" fill="#374689"/>
<path d="M334.147 1892.6H1866.7V2088.96H334.147V1892.6Z" fill="white"/>
<path d="M356.704 1913.36V2067.83H1844.14V1913.36H356.704Z" fill="#374689"/>
<path d="M1126.74 822.433C958.624 814.155 952.895 626.903 677.895 614.817C615.232 612.996 542.185 615.811 505.482 645.943C482.924 623.758 447.833 613.658 424.737 614.486C424.021 622.268 429.75 636.175 438.881 645.115V729.884C430.645 729.718 429.213 735.347 428.497 745.612C427.602 757.202 430.108 763.327 438.523 764.321L436.553 821.937C435.837 840.811 442.999 837.665 447.475 856.374C450.16 866.97 451.234 879.552 451.592 892.798C451.951 905.877 451.234 917.301 451.055 930.215C458.217 929.718 463.767 929.884 463.23 936.341C462.872 940.645 458.933 940.976 451.234 940.149V946.771C464.483 958.526 488.832 985.513 506.557 1002.23C506.557 1005.55 535.919 1002.23 539.32 1002.23C514.971 962.831 573.516 955.38 573.516 990.48C578.708 995.115 597.507 984.851 595.18 975.413C593.926 969.784 583.9 968.956 585.87 941.307C623.826 919.784 623.826 876.572 644.236 860.513C668.048 845.612 686.846 869.619 684.698 883.195C679.685 917.135 709.047 954.221 719.431 954.221C722.475 975.248 701.169 1023.59 702.064 1067.47C703.855 1151.57 814.857 1177.4 824.525 1188.33C827.211 1207.37 856.752 1266.31 893.454 1308.53C902.048 1341.97 929.978 1371.44 939.467 1377.07C944.838 1388.16 954.327 1415.31 964.532 1431.87C963.1 1441.31 971.693 1479.88 957.37 1493.29C954.327 1503.39 942.51 1532.53 942.331 1545.45C952.716 1545.45 1016.63 1543.13 1016.63 1530.38C1017.35 1502.73 1035.07 1491.97 1042.05 1491.97C1042.05 1488.82 1048.5 1460.68 1034.36 1448.43L1026.66 1435.02L1030.95 1423.92C996.4 1404.22 990.134 1360.35 983.689 1343.96C962.204 1289.49 970.082 1235.02 970.082 1173.76C999.623 1190.65 1052.98 1201.57 1097.02 1200.08C1198.17 1196.44 1313.83 1143.13 1348.39 1121.77C1340.33 1116.14 1332.27 1108.03 1321.53 1095.94L1339.08 1095.78C1394.94 1154.22 1577.73 1224.09 1563.23 1218.63C1562.16 1218.29 1597.43 1242.14 1615.69 1247.6L1647.91 1284.52C1647.91 1303.23 1625.18 1408.69 1620.16 1448.26C1611.57 1459.68 1555.17 1485.84 1555.17 1509.35L1643.98 1509.85C1638.78 1494.45 1676.74 1466.8 1703.42 1447.1L1702.88 1431.37C1695.54 1431.37 1687.12 1406.04 1689.27 1383.86C1693.57 1337.33 1724.18 1257.37 1743.52 1211.67C1706.28 1190.48 1684.44 1181.7 1651.85 1151.41C1642.54 1146.44 1636.99 1115.81 1599.75 1096.77C1555.35 1096.61 1502.18 1079.72 1498.96 1013.33C1497.52 983.857 1523.13 948.427 1580.78 930.215C1608.35 921.44 1661.7 901.738 1697.87 879.552C1696.07 875.745 1693.93 872.268 1691.6 868.791C1681.39 854.387 1669.76 840.811 1656.51 828.725C1697.33 817.301 1739.22 826.903 1742.62 848.096C1748.53 886.175 1625.36 928.228 1584.71 943.129C1533.33 962.168 1511.85 988.327 1513.1 1014.98C1517.22 1099.92 1643.26 1089.82 1650.42 1077.4C1624.64 1056.37 1627.68 1036.84 1634.67 1021.61C1647.73 993.956 1704.49 963.493 1754.8 929.552C1783.8 910.016 1815.85 872.764 1814.78 848.923C1812.99 804.387 1765.36 794.95 1717.38 796.109C1690.35 796.771 1652.93 801.572 1629.29 807.036C1582.57 775.579 1527.96 763.493 1471.38 763.327C1337.64 762.665 1194.24 821.937 1126.74 822.433Z" fill="white"/>
<path d="M1657.04 1063.47C1678.88 1040.78 1694.46 1009.99 1702.33 978.863C1684.97 989.79 1657.57 1008.66 1648.62 1028.53C1643.43 1039.96 1644.68 1052.21 1657.04 1063.47Z" fill="white"/>
<path d="M454.268 754.602C449.434 769.337 449.613 788.707 453.552 805.429C457.312 798.972 472.888 791.853 481.302 792.184C481.302 772.317 457.132 764.204 455.879 755.761L454.268 754.602Z" fill="#374689" stroke="white" stroke-width="0.110576"/>
<path d="M1270.13 1469.99C1269.42 1467.84 1309.16 1473.64 1318.29 1474.96C1324.74 1474.96 1342.46 1454.6 1348.73 1450.62C1360.73 1443.67 1378.99 1439.53 1392.6 1433.9C1413.9 1422.81 1406.74 1406.42 1406.74 1384.07C1407.28 1369 1463.14 1316.85 1482.11 1305.09C1498.76 1294.66 1511.12 1270.49 1509.51 1255.26C1507.54 1235.89 1493.21 1221.98 1500.91 1208.07C1468.33 1194.5 1416.41 1170.66 1377.74 1144C1348.91 1139.7 1343.9 1170.82 1354.28 1184.89C1371.11 1207.08 1416.76 1253.27 1414.08 1298.97C1398.5 1345.49 1356.61 1355.09 1336.56 1403.6C1317.22 1427.61 1266.73 1443.67 1270.13 1469.99ZM509.229 1346.98C525.521 1334.56 545.574 1321.32 576.189 1309.23C566.7 1277.94 589.079 1264.53 592.66 1259.07C584.066 1251.28 571.892 1241.52 565.984 1230.59C543.604 1188.7 548.975 1159.4 548.975 1146.65C590.512 1144.5 601.433 1183.07 754.867 1195.32C763.282 1195.99 778.321 1194.33 779.753 1187.71C780.648 1183.4 778.142 1179.27 773.845 1177.44C766.146 1175.46 757.195 1170.32 749.675 1166.19C719.239 1149.96 695.427 1117.84 692.025 1102.61C664.633 1087.05 567.595 1083.4 502.605 1083.4C497.234 1086.72 453.549 1102.61 450.147 1109.07C432.781 1141.02 514.6 1220.99 515.495 1277.78C515.854 1295.32 504.037 1332.74 509.229 1346.98ZM980.274 653.272C974.545 648.801 968.637 644.662 962.549 640.854L931.039 680.093C937.126 684.563 943.213 690.027 948.406 694.331L980.274 653.272ZM923.878 621.152C917.432 618.007 910.629 613.702 903.825 610.722L879.835 649.464C886.459 652.941 893.262 657.08 899.35 660.556L923.878 621.152ZM852.8 589.199C845.997 586.715 839.014 584.398 832.032 582.08L815.74 622.146C822.722 624.629 829.704 627.113 836.329 629.927L852.8 589.199ZM773.487 566.517C766.146 564.861 758.627 563.537 751.107 562.212L741.977 602.609C749.317 603.934 757.195 605.424 764.356 606.914L773.487 566.517ZM694.711 555.424C687.37 555.093 680.03 554.762 672.689 554.762V595.987C680.209 596.152 687.55 596.318 694.711 596.815V555.424ZM617.725 554.762C610.564 555.093 603.044 555.755 595.704 556.417L600.001 598.801C607.52 597.643 614.861 597.643 622.022 596.98L617.725 554.762ZM539.486 561.715C532.325 563.04 524.626 565.358 517.465 567.013L531.967 610.556C539.307 608.57 547.364 605.921 554.346 604.265L539.486 561.715Z" fill="white"/>
<path d="M1100.43 2387.45L434.415 2133.14H1766.45L1100.43 2387.45Z" fill="#374689"/>
<path d="M328.425 405.058V280.555H358.683V405.058H328.425ZM385.001 405.058V280.555H430.118C447.306 280.555 456.795 281.217 461.987 282.376C470.043 284.363 476.668 288.336 482.218 294.628C487.589 300.919 490.274 309.031 490.274 318.8C490.274 326.581 488.663 332.873 485.619 338.171C482.755 343.137 478.637 347.277 473.624 350.422C469.327 353.237 464.314 355.224 458.943 356.382C452.319 357.541 444.262 358.038 431.371 358.038H412.931V405.058H385.001ZM413.826 301.581V337.012H429.76C441.218 337.012 447.127 336.349 451.065 335.025C454.825 333.7 457.869 331.714 460.196 328.899C462.345 326.084 463.419 322.939 463.419 319.296C463.419 314.661 461.808 311.018 458.764 308.038C455.72 305.058 451.602 303.071 447.127 302.575C443.546 301.912 438.354 301.581 427.97 301.581H413.826ZM502.449 364.495H529.304C531.095 371.614 534.138 376.747 538.435 380.224C543.269 384.031 549.893 386.018 558.129 386.018C566.902 386.018 573.347 384.363 577.823 380.886C582.299 377.409 584.448 373.435 584.448 368.965C584.448 366.151 583.552 363.502 581.583 361.349C579.793 359.363 576.57 357.541 571.915 356.051C568.692 354.892 561.531 353.237 550.252 350.588C535.75 347.277 525.545 343.137 519.636 338.171C511.401 331.382 507.283 323.104 507.283 313.171C507.283 306.879 509.252 300.919 513.191 295.455C517.13 289.826 522.68 285.687 529.841 282.873C537.182 279.892 545.955 278.568 556.339 278.568C573.168 278.568 585.701 281.879 594.295 288.833C602.709 295.621 607.185 304.727 607.722 316.151H580.33C579.076 310.356 576.749 306.051 573.168 303.402C569.408 300.753 563.679 299.263 555.981 299.263C548.103 299.263 542.016 300.753 537.54 303.733C534.675 305.555 533.064 308.369 533.243 311.515C533.243 314.495 534.496 316.978 537.182 319.131C540.584 321.78 548.998 324.429 562.068 327.409C575.317 330.224 584.985 333.204 591.251 336.349C597.696 339.495 602.53 343.634 606.111 348.932C609.692 354.396 611.482 361.018 611.482 368.8C611.482 375.919 609.334 382.541 605.037 388.833C600.74 395.124 594.832 399.76 586.954 402.74C579.255 405.72 569.408 407.21 557.771 407.21C540.942 407.21 527.872 403.568 518.741 396.283C509.789 388.998 504.239 378.402 502.449 364.495ZM849.959 405.058V280.555H880.395V405.058H849.959ZM994.441 359.363L1023.98 359.859C1022.01 375.422 1011.27 390.654 1001.07 397.276C991.039 403.899 978.328 407.21 962.752 407.21C943.595 407.21 927.839 401.581 915.486 390.157C903.311 378.899 897.045 363.502 897.045 343.965C897.045 323.27 903.311 307.045 915.665 295.621C928.018 284.197 944.311 278.402 964.542 278.402C982.267 278.402 996.589 283.038 1007.51 291.979C1014.14 297.277 1023.27 310.522 1023.44 320.786H993.546C991.755 314.329 988.175 309.363 982.804 305.555C977.433 301.747 970.808 299.926 963.11 299.926C952.367 299.926 943.774 303.237 937.149 309.859C930.346 316.482 927.123 327.243 927.123 341.979C927.123 357.707 930.346 368.965 936.97 375.588C943.416 382.376 952.009 385.687 962.573 385.687C970.271 385.687 976.895 383.535 982.446 379.23C987.996 375.091 992.114 368.303 994.441 359.363ZM1045.29 405.058V280.555H1074.29V329.065H1131.4V280.555H1160.59V405.058H1131.4V353.071H1074.29V405.058H1045.29ZM1292.18 405.058V303.071H1249.39V280.555H1363.97V303.071H1321.18V405.058H1292.18ZM1396.91 342.806C1396.91 356.879 1400.85 367.475 1408.37 374.76C1416.07 382.045 1425.92 385.687 1437.74 385.687C1449.55 385.687 1459.4 382.045 1466.92 374.76C1474.44 367.641 1478.38 356.714 1478.38 342.31C1478.38 328.071 1474.62 317.475 1467.28 310.356C1459.76 303.402 1449.91 299.926 1437.74 299.926C1425.56 299.926 1415.71 303.402 1408.19 310.522C1400.67 317.641 1396.91 328.402 1396.91 342.806ZM1369.16 343.634C1369.16 330.886 1371.31 320.29 1375.61 311.68C1378.83 305.224 1383.31 299.429 1388.86 294.628C1394.05 289.826 1400.14 286.018 1406.94 283.369C1415.89 280.058 1425.92 278.402 1437.38 278.402C1458.15 278.402 1474.8 284.197 1487.33 295.621C1499.86 306.879 1505.95 322.773 1505.95 342.972C1505.95 363.005 1499.86 378.733 1487.51 390.157C1475.15 401.416 1458.5 407.21 1437.74 407.21C1416.79 407.21 1400.14 401.581 1387.78 390.157C1375.43 378.899 1369.16 363.336 1369.16 343.634ZM1739.41 405.058V280.555H1768.95L1844.33 363.667V280.555H1872.61V405.058H1842L1767.52 323.932V405.058H1739.41ZM1615.88 321.449L1615.7 321.118V321.449L1577.03 404.892H1551.24L1504.16 280.72H1535.31L1565.93 361.515L1603.52 280.72H1628.05L1665.65 361.515L1696.08 280.72H1727.42L1680.33 404.892H1654.55L1615.88 321.449ZM725.17 321.449L724.991 321.118L724.812 321.449L686.319 404.892H660.359L613.451 280.72H644.604L675.04 361.515L712.638 280.72H737.345L774.942 361.515L805.379 280.72H836.531L789.623 404.892H763.663L725.17 321.449ZM404.337 2037.01V1944.13H485.977V1961.02H428.328V1981.71H478.1V1997.94H428.328V2037.01H404.337ZM500.838 1991.15C500.838 1981.71 502.628 1973.77 506.388 1967.31C509.073 1962.51 512.833 1958.2 517.488 1954.56C521.964 1950.92 527.156 1948.1 532.706 1946.28C540.226 1943.8 548.819 1942.64 558.487 1942.64C576.033 1942.64 589.998 1946.78 600.561 1955.39C610.945 1963.83 616.316 1975.59 616.316 1990.82C616.316 2005.72 611.124 2017.48 600.561 2025.92C590.177 2034.36 576.212 2038.67 558.845 2038.67C541.121 2038.67 526.977 2034.36 516.593 2025.92C506.03 2017.64 500.838 2005.89 500.838 1991.15ZM525.545 1990.49C525.545 2001.08 528.767 2009.03 535.033 2014.5C541.121 2019.96 548.998 2022.61 558.666 2022.61C568.155 2022.61 576.033 2019.96 582.299 2014.5C588.386 2009.2 591.43 2001.08 591.43 1990.32C591.43 1979.73 588.386 1971.78 582.478 1966.48C576.57 1961.18 568.513 1958.53 558.666 1958.53C548.819 1958.53 540.763 1961.18 534.675 1966.48C528.588 1971.78 525.545 1979.89 525.545 1990.49ZM630.102 1991.15C630.102 1981.71 632.071 1973.77 635.652 1967.31C638.338 1962.51 642.097 1958.2 646.752 1954.56C651.228 1950.92 656.42 1948.1 662.149 1946.28C669.49 1943.8 678.084 1942.64 687.752 1942.64C705.297 1942.64 719.262 1946.78 729.825 1955.39C740.388 1963.83 745.58 1975.59 745.58 1990.82C745.58 2005.72 740.388 2017.48 730.004 2025.92C719.441 2034.36 705.476 2038.67 688.11 2038.67C670.385 2038.67 656.241 2034.36 645.857 2025.92C635.473 2017.64 630.102 2005.89 630.102 1991.15ZM654.988 1990.49C654.988 2001.08 658.032 2009.03 664.298 2014.5C670.564 2019.96 678.442 2022.61 687.931 2022.61C697.599 2022.61 705.476 2019.96 711.563 2014.5C717.651 2009.2 720.694 2001.08 720.694 1990.32C720.694 1979.73 717.83 1971.78 711.742 1966.48C705.834 1961.18 697.778 1958.53 687.931 1958.53C678.084 1958.53 670.027 1961.18 663.94 1966.48C658.031 1971.78 654.988 1979.89 654.988 1990.49ZM791.056 2037.01V1961.02H755.785V1944.13H850.317V1961.02H815.046V2037.01H791.056ZM865.893 1944.13H913.517C922.826 1944.13 929.988 1944.46 934.643 1945.12C939.119 1945.62 943.416 1946.95 946.996 1948.93C950.577 1950.92 953.621 1953.4 956.127 1956.71C958.634 1959.86 959.708 1963.5 959.708 1967.48C959.708 1971.95 958.276 1975.92 955.232 1979.56C952.188 1983.2 948.25 1985.85 943.058 1987.67C950.398 1989.33 955.948 1992.14 959.708 1996.12C963.647 2000.09 965.616 2004.73 965.616 2010.19C965.616 2014.33 964.363 2018.47 961.856 2022.44C959.35 2026.42 955.769 2029.73 951.472 2032.04C947.175 2034.36 941.804 2035.85 935.359 2036.35C931.42 2036.68 921.752 2037.01 906.534 2037.01H865.893V1944.13ZM889.884 1959.69V1981.05H905.639C915.128 1981.05 920.857 1981.05 923.185 1980.72C927.302 1980.39 930.525 1979.23 932.852 1977.41C935.18 1975.59 936.433 1972.94 936.433 1970.12C936.433 1967.48 935.359 1964.99 933.39 1963.17C931.241 1961.35 928.377 1960.36 924.259 1959.86C921.931 1959.69 915.128 1959.53 903.849 1959.53H889.884V1959.69ZM889.884 1996.61V2021.45H912.263C920.857 2021.45 926.407 2021.12 928.735 2020.79C932.315 2020.29 935.18 2019.13 937.328 2017.14C939.656 2015.16 940.73 2012.51 940.73 2009.2C940.909 2006.71 940.014 2004.06 938.224 2002.08C936.433 2000.26 933.927 1998.77 930.704 1997.94C927.481 1996.95 920.32 1996.61 909.399 1996.61H889.884ZM1093.09 2037.01H1066.95L1056.57 2015.99H1009.12L999.275 2037.01H973.852L1020.04 1944.13H1045.47L1093.09 2037.01ZM1048.87 2000.26L1032.58 1965.82L1016.46 2000.26H1048.87ZM1106.52 2037.01V1944.96H1130.69V2020.95H1186.55V2037.01H1106.52ZM1208.03 2037.01V1944.96H1232.2V2020.95H1286.81V2037.01H1208.03ZM1431.29 2002.91H1455.64C1453.31 2016.15 1445.08 2026.42 1436.84 2031.22C1428.43 2036.18 1417.86 2038.67 1405.15 2038.67C1389.4 2038.67 1376.33 2034.36 1366.12 2025.92C1356.09 2017.64 1350.9 2006.05 1350.9 1991.48C1350.9 1975.92 1356.09 1964 1366.3 1955.39C1376.5 1946.78 1389.93 1942.64 1406.58 1942.64C1421.08 1942.64 1432.9 1945.95 1442.03 1952.57C1447.4 1956.55 1453.49 1965.32 1454.74 1974.26H1430.39C1429.14 1969.46 1425.92 1965.49 1421.62 1962.84C1417.15 1960.03 1411.77 1958.53 1405.33 1958.53C1396.56 1958.53 1389.4 1961.02 1383.85 1965.99C1378.47 1970.95 1375.61 1978.9 1375.61 1989.99C1375.61 2001.75 1378.3 2010.19 1383.85 2015.16C1389.22 2020.12 1396.2 2022.61 1404.97 2022.61C1411.24 2022.61 1416.79 2020.95 1421.44 2017.81C1425.92 2014.66 1429.32 2009.69 1431.29 2002.91ZM1475.87 2037.01V1944.96H1499.86V2020.79H1554.65V2037.01H1475.87ZM1576.49 1944.13H1600.48V1994.46C1600.48 2002.41 1600.84 2007.54 1601.37 2010.03C1602.45 2013.83 1604.96 2016.81 1608.89 2019.13C1612.65 2021.45 1618.03 2022.61 1624.65 2022.61C1631.45 2022.61 1636.64 2021.45 1640.05 2019.3C1643.63 2017.14 1645.6 2014.5 1646.31 2011.35C1647.03 2008.2 1647.39 2002.91 1647.39 1995.46V1944.13H1671.38V1992.97C1671.38 2004.06 1670.84 2012.01 1669.41 2016.65C1668.33 2020.95 1665.83 2025.09 1662.25 2028.24C1658.85 2031.38 1654.19 2033.87 1648.28 2035.85C1642.37 2037.67 1634.85 2038.67 1625.37 2038.67C1614.09 2038.67 1605.49 2037.67 1599.58 2035.52C1593.68 2033.53 1589.02 2030.89 1585.62 2027.57C1582.22 2024.26 1580.07 2020.79 1579 2017.31C1577.38 2012.01 1576.49 2004.06 1576.49 1993.63V1944.13ZM1696.8 1944.13H1744.42C1753.73 1944.13 1760.72 1944.46 1765.37 1945.12C1770.03 1945.62 1774.14 1946.95 1777.9 1948.93C1781.49 1950.92 1784.53 1953.4 1787.04 1956.71C1789.36 1959.86 1790.62 1963.5 1790.62 1967.48C1790.62 1971.95 1789.18 1975.92 1786.14 1979.56C1783.1 1983.2 1778.98 1985.85 1773.97 1987.67C1781.13 1989.33 1786.68 1992.14 1790.62 1996.12C1794.55 2000.09 1796.52 2004.73 1796.52 2010.19C1796.52 2014.33 1795.27 2018.47 1792.76 2022.44C1790.26 2026.42 1786.68 2029.73 1782.38 2032.04C1778.08 2034.36 1772.71 2035.85 1766.27 2036.35C1762.33 2036.68 1752.66 2037.01 1737.26 2037.01H1696.8V1944.13ZM1720.79 1959.69V1981.05H1736.55C1746.04 1981.05 1751.77 1981.05 1754.09 1980.72C1758.21 1980.39 1761.43 1979.23 1763.76 1977.41C1766.09 1975.59 1767.34 1972.94 1767.34 1970.12C1767.34 1967.48 1766.27 1964.99 1764.3 1963.17C1762.15 1961.35 1759.11 1960.36 1755.17 1959.86C1752.84 1959.69 1746.04 1959.53 1734.58 1959.53H1720.79V1959.69ZM1720.79 1996.61V2021.45H1743.17C1751.77 2021.45 1757.14 2021.12 1759.46 2020.79C1763.04 2020.29 1766.09 2019.13 1768.24 2017.14C1770.56 2015.16 1771.64 2012.51 1771.64 2009.2C1771.82 2006.71 1770.74 2004.06 1769.13 2002.08C1767.16 2000.09 1764.48 1998.6 1761.61 1997.94C1758.21 1996.95 1751.23 1996.61 1740.31 1996.61H1720.79ZM618.823 1335.19C592.683 1336.02 567.618 1344.96 547.745 1360.69C552.937 1366.65 558.845 1372.11 565.291 1377.24C575.317 1363.83 596.98 1346.45 618.823 1335.19ZM535.571 1371.61C529.125 1378.57 523.396 1386.18 518.92 1394.46C551.505 1428.07 609.871 1462.01 644.246 1474.26C645.499 1463.5 644.783 1452.57 642.097 1441.98C602.172 1422.77 558.487 1399.93 535.571 1371.61ZM511.938 1410.69C507.999 1421.95 506.388 1433.7 506.746 1445.62C541.837 1472.94 601.277 1504.4 631.892 1514.16C635.831 1506.71 638.875 1498.6 641.202 1490.32C608.08 1480.72 545.955 1446.12 511.938 1410.69ZM509.968 1467.64C521.069 1509.86 559.024 1542.31 606.111 1548.77C612.377 1542.81 618.464 1535.69 623.836 1527.74C595.19 1518.3 544.522 1492.64 509.968 1467.64ZM627.237 1549.76C642.276 1549.26 657.315 1546.12 671.101 1540.32C691.153 1507.54 700.642 1457.71 690.616 1406.38C675.219 1413.34 664.298 1422.44 658.211 1434.03C670.922 1472.94 651.586 1523.6 627.237 1549.76ZM699.568 1523.27C724.812 1502.91 739.493 1473.44 739.493 1442.48C739.493 1426.08 735.375 1410.02 727.677 1395.46C720.694 1396.78 714.249 1398.27 708.162 1400.09C717.651 1435.52 713.175 1491.32 699.568 1523.27ZM718.546 1381.05C712.459 1373.1 705.297 1365.99 697.061 1359.69C663.224 1369.46 629.207 1388.67 615.242 1410.36C625.805 1416.32 635.652 1421.28 643.53 1425.09C652.481 1405.72 680.59 1389.33 718.546 1381.05ZM678.979 1348.27C669.669 1343.63 659.822 1339.99 649.438 1337.84C621.329 1348.93 589.64 1371.45 579.076 1387.51C586.059 1392.64 593.757 1397.44 601.277 1402.08C613.809 1380.89 646.394 1360.02 678.979 1348.27ZM1866.71 1786.02C1778.08 1786.02 1772.53 1829.23 1675.14 1828.57C1577.56 1829.23 1572.19 1786.02 1483.57 1786.02C1394.77 1786.02 1389.57 1829.23 1292 1828.57C1194.42 1829.23 1189.05 1786.02 1100.43 1786.02C1011.63 1786.02 1006.44 1829.23 908.862 1828.57C811.287 1829.23 805.916 1786.02 717.293 1786.02C628.67 1786.02 623.298 1829.23 525.724 1828.57C428.149 1829.23 422.957 1786.02 334.155 1786.02V1754.73C422.957 1754.73 428.149 1797.94 525.724 1797.28C623.298 1797.94 628.67 1754.73 717.293 1754.73C805.916 1754.73 811.287 1797.94 908.862 1797.28C1006.44 1797.94 1011.63 1754.73 1100.43 1754.73C1189.05 1754.73 1194.42 1797.94 1292 1797.28C1389.57 1797.94 1394.77 1754.73 1483.57 1754.73C1572.19 1754.73 1577.56 1797.94 1675.14 1797.28C1772.53 1797.94 1777.9 1754.73 1866.71 1754.73V1786.02ZM1866.71 1660.85C1778.08 1660.85 1772.71 1703.9 1675.14 1703.4C1577.56 1703.9 1572.19 1660.85 1483.57 1660.85C1394.95 1660.85 1389.57 1703.9 1292 1703.4C1194.42 1703.9 1189.23 1660.85 1100.43 1660.85C1011.81 1660.85 1006.44 1703.9 908.862 1703.4C811.287 1703.9 806.095 1660.85 717.293 1660.85C628.67 1660.85 623.298 1703.9 525.724 1703.4C428.328 1703.9 422.957 1660.85 334.334 1660.85V1692.14C422.957 1692.14 428.328 1735.19 525.724 1734.69C623.298 1735.19 628.67 1692.14 717.293 1692.14C806.095 1692.14 811.287 1735.19 908.862 1734.69C1006.44 1735.19 1011.81 1692.14 1100.43 1692.14C1189.23 1692.14 1194.6 1735.19 1292 1734.69C1389.57 1735.19 1394.95 1692.14 1483.57 1692.14C1572.19 1692.14 1577.56 1735.19 1675.14 1734.69C1772.71 1735.19 1778.08 1692.14 1866.71 1692.14V1660.85Z" fill="white"/>
</g>
<defs>
<clipPath id="clip0_290_1729">
<rect width="2200" height="2500" fill="white"/>
</clipPath>
</defs>
</svg>
