<?xml version="1.0" encoding="UTF-8"?>
<svg xmlns="http://www.w3.org/2000/svg" xmlns:xlink="http://www.w3.org/1999/xlink" width="48px" height="48px" viewBox="0 0 48 59" version="1.1">
<g id="surface1">
<path style=" stroke:none;fill-rule:nonzero;fill:rgb(80.392157%,20.784314%,16.078431%);fill-opacity:1;" d="M 27.6875 0.0078125 L 27.6875 2.222656 L 30.472656 2.222656 L 30.472656 0.0078125 L 37.84375 0.0078125 L 37.84375 2.222656 L 40.625 2.222656 L 40.625 0.0078125 L 48 0.0078125 L 48 12.667969 L 46.566406 12.667969 C 45.238281 12.667969 44.15625 13.609375 44.15625 14.9375 L 44.15625 50.660156 L 24 58.992188 L 3.84375 50.660156 L 3.84375 14.9375 C 3.84375 13.609375 2.761719 12.667969 1.433594 12.667969 L 0 12.667969 L 0 0.0078125 L 7.375 0.0078125 L 7.375 2.222656 L 10.15625 2.222656 L 10.15625 0.0078125 L 17.527344 0.0078125 L 17.527344 2.222656 L 20.3125 2.222656 L 20.3125 0.0078125 Z M 27.6875 0.0078125 "/>
<path style=" stroke:none;fill-rule:nonzero;fill:rgb(100%,100%,100%);fill-opacity:1;" d="M 5.324219 14.492188 C 5.324219 12.367188 3.621094 11.207031 1.480469 11.191406 L 1.480469 1.484375 L 5.894531 1.484375 L 5.894531 3.699219 L 11.636719 3.699219 L 11.636719 1.484375 L 16.050781 1.484375 L 16.050781 3.699219 L 21.792969 3.699219 L 21.792969 1.484375 L 26.207031 1.484375 L 26.207031 3.699219 L 31.949219 3.699219 L 31.949219 1.484375 L 36.367188 1.484375 L 36.367188 3.699219 L 42.105469 3.699219 L 42.105469 1.484375 L 46.523438 1.484375 L 46.523438 11.191406 C 44.382812 11.207031 42.675781 12.367188 42.675781 14.492188 L 42.679688 49.671875 L 24 57.394531 L 5.324219 49.671875 Z M 21.300781 0.992188 L 21.300781 3.207031 L 16.542969 3.207031 L 16.542969 0.992188 L 11.140625 0.992188 L 11.140625 3.207031 L 6.386719 3.207031 L 6.386719 0.992188 L 0.988281 0.992188 L 0.988281 11.683594 L 1.433594 11.683594 C 3.300781 11.683594 4.828125 12.746094 4.828125 14.613281 L 4.828125 50 L 24 57.925781 L 43.171875 50 L 43.171875 14.613281 C 43.171875 12.746094 44.699219 11.683594 46.566406 11.683594 L 47.011719 11.683594 L 47.011719 0.992188 L 41.613281 0.992188 L 41.613281 3.207031 L 36.859375 3.207031 L 36.859375 0.992188 L 31.457031 0.992188 L 31.457031 3.207031 L 26.699219 3.207031 L 26.699219 0.992188 Z M 21.300781 0.992188 "/>
<path style=" stroke:none;fill-rule:nonzero;fill:rgb(100%,100%,100%);fill-opacity:1;" d="M 7.28125 37.699219 L 7.28125 11.875 L 40.71875 11.875 L 40.71875 37.699219 Z M 7.28125 37.699219 "/>
<path style=" stroke:none;fill-rule:nonzero;fill:rgb(21.568627%,27.45098%,53.72549%);fill-opacity:1;" d="M 7.773438 37.207031 L 7.773438 12.367188 L 40.226562 12.367188 L 40.226562 37.207031 Z M 7.773438 37.207031 "/>
<path style=" stroke:none;fill-rule:nonzero;fill:rgb(100%,100%,100%);fill-opacity:1;" d="M 4.828125 10.929688 L 4.828125 5.269531 L 43.171875 5.269531 L 43.171875 10.929688 Z M 4.828125 10.929688 "/>
<path style=" stroke:none;fill-rule:nonzero;fill:rgb(21.568627%,27.45098%,53.72549%);fill-opacity:1;" d="M 42.675781 10.4375 L 42.675781 5.761719 L 5.324219 5.761719 L 5.324219 10.4375 Z M 7.28125 38.410156 C 18.429688 38.410156 29.570312 38.414062 40.71875 38.414062 L 40.71875 43.945312 C 29.570312 43.945312 18.429688 43.945312 7.28125 43.945312 Z M 7.28125 38.410156 "/>
<path style=" stroke:none;fill-rule:nonzero;fill:rgb(100%,100%,100%);fill-opacity:1;" d="M 7.28125 44.660156 L 40.71875 44.660156 L 40.71875 49.292969 L 7.28125 49.292969 Z M 7.28125 44.660156 "/>
<path style=" stroke:none;fill-rule:nonzero;fill:rgb(21.568627%,27.45098%,53.72549%);fill-opacity:1;" d="M 7.773438 45.152344 L 7.773438 48.796875 L 40.226562 48.796875 L 40.226562 45.152344 Z M 7.773438 45.152344 "/>
<path style=" stroke:none;fill-rule:nonzero;fill:rgb(100%,100%,100%);fill-opacity:1;" d="M 24.574219 19.410156 C 20.90625 19.214844 20.78125 14.796875 14.78125 14.511719 C 13.414062 14.46875 11.820312 14.535156 11.019531 15.246094 C 10.527344 14.722656 9.761719 14.484375 9.257812 14.503906 C 9.242188 14.6875 9.367188 15.015625 9.566406 15.226562 L 9.566406 17.226562 C 9.386719 17.222656 9.355469 17.355469 9.339844 17.597656 C 9.320312 17.871094 9.375 18.015625 9.558594 18.039062 L 9.515625 19.398438 C 9.5 19.84375 9.65625 19.769531 9.753906 20.210938 C 9.8125 20.460938 9.835938 20.757812 9.84375 21.070312 C 9.851562 21.378906 9.835938 21.648438 9.832031 21.953125 C 9.988281 21.941406 10.109375 21.945312 10.097656 22.097656 C 10.089844 22.199219 10.003906 22.207031 9.835938 22.1875 L 9.835938 22.34375 C 10.125 22.621094 10.65625 23.257812 11.042969 23.652344 C 11.042969 23.730469 11.683594 23.652344 11.757812 23.652344 C 11.226562 22.722656 12.503906 22.546875 12.503906 23.375 C 12.617188 23.484375 13.027344 23.242188 12.976562 23.019531 C 12.949219 22.886719 12.730469 22.867188 12.773438 22.214844 C 13.601562 21.707031 13.601562 20.6875 14.046875 20.308594 C 14.566406 19.957031 14.976562 20.523438 14.929688 20.84375 C 14.820312 21.644531 15.460938 22.519531 15.6875 22.519531 C 15.753906 23.015625 15.289062 24.15625 15.308594 25.191406 C 15.347656 27.175781 17.769531 27.785156 17.980469 28.042969 C 18.039062 28.492188 18.683594 29.882812 19.484375 30.878906 C 19.671875 31.667969 20.28125 32.363281 20.488281 32.496094 C 20.605469 32.757812 20.8125 33.398438 21.035156 33.789062 C 21.003906 34.011719 21.191406 34.921875 20.878906 35.238281 C 20.8125 35.476562 20.554688 36.164062 20.550781 36.46875 C 20.777344 36.46875 22.171875 36.414062 22.171875 36.113281 C 22.1875 35.460938 22.574219 35.207031 22.726562 35.207031 C 22.726562 35.132812 22.867188 34.46875 22.558594 34.179688 L 22.390625 33.863281 L 22.484375 33.601562 C 21.730469 33.136719 21.59375 32.101562 21.453125 31.714844 C 20.984375 30.429688 21.15625 29.144531 21.15625 27.699219 C 21.800781 28.097656 22.964844 28.355469 23.925781 28.320312 C 26.132812 28.234375 28.65625 26.976562 29.410156 26.472656 C 29.234375 26.339844 29.058594 26.148438 28.824219 25.863281 L 29.207031 25.859375 C 30.425781 27.238281 34.414062 28.886719 34.097656 28.757812 C 34.074219 28.75 34.84375 29.3125 35.242188 29.441406 L 35.945312 30.3125 C 35.945312 30.753906 35.449219 33.242188 35.339844 34.175781 C 35.152344 34.445312 33.921875 35.0625 33.921875 35.617188 L 35.859375 35.628906 C 35.746094 35.265625 36.574219 34.613281 37.15625 34.148438 L 37.144531 33.777344 C 36.984375 33.777344 36.800781 33.179688 36.847656 32.65625 C 36.941406 31.558594 37.609375 29.671875 38.03125 28.59375 C 37.21875 28.09375 36.742188 27.886719 36.03125 27.171875 C 35.828125 27.054688 35.707031 26.332031 34.894531 25.882812 C 33.925781 25.878906 32.765625 25.480469 32.695312 23.914062 C 32.664062 23.21875 33.222656 22.382812 34.480469 21.953125 C 35.082031 21.746094 36.246094 21.28125 37.035156 20.757812 C 36.996094 20.667969 36.949219 20.585938 36.898438 20.503906 C 36.675781 20.164062 36.421875 19.84375 36.132812 19.558594 C 37.023438 19.289062 37.9375 19.515625 38.011719 20.015625 C 38.140625 20.914062 35.453125 21.90625 34.566406 22.257812 C 33.445312 22.707031 32.976562 23.324219 33.003906 23.953125 C 33.09375 25.957031 35.84375 25.71875 36 25.425781 C 35.4375 24.929688 35.503906 24.46875 35.65625 24.109375 C 35.941406 23.457031 37.179688 22.738281 38.277344 21.9375 C 38.910156 21.476562 39.609375 20.597656 39.585938 20.035156 C 39.546875 18.984375 38.507812 18.761719 37.460938 18.789062 C 36.871094 18.804688 36.054688 18.917969 35.539062 19.046875 C 34.519531 18.304688 33.328125 18.019531 32.09375 18.015625 C 29.175781 18 26.046875 19.398438 24.574219 19.410156 Z M 24.574219 19.410156 "/>
<path style=" stroke:none;fill-rule:nonzero;fill:rgb(100%,100%,100%);fill-opacity:1;" d="M 36.144531 25.097656 C 36.621094 24.5625 36.960938 23.835938 37.132812 23.101562 C 36.753906 23.359375 36.15625 23.804688 35.960938 24.273438 C 35.847656 24.542969 35.875 24.832031 36.144531 25.097656 Z M 36.144531 25.097656 "/>
<path style="fill-rule:nonzero;fill:rgb(21.568627%,27.45098%,53.72549%);fill-opacity:1;stroke-width:0.491;stroke-linecap:butt;stroke-linejoin:miter;stroke:rgb(100%,100%,100%);stroke-opacity:1;stroke-miterlimit:4;" d="M 35.738177 64.38758 C 35.357534 65.644703 35.371632 67.297325 35.681786 68.723947 C 35.977842 68.173073 37.204359 67.565699 37.86696 67.593949 C 37.86696 65.898952 35.963744 65.206828 35.865059 64.486455 Z M 35.738177 64.38758 " transform="matrix(0.27708,0,0,0.276549,0,0.0061665)"/>
<path style=" stroke:none;fill-rule:nonzero;fill:rgb(100%,100%,100%);fill-opacity:1;" d="M 27.703125 34.691406 C 27.6875 34.640625 28.554688 34.777344 28.753906 34.808594 C 28.894531 34.808594 29.28125 34.328125 29.417969 34.234375 C 29.679688 34.070312 30.078125 33.972656 30.375 33.839844 C 30.839844 33.578125 30.683594 33.191406 30.683594 32.664062 C 30.695312 32.308594 31.914062 31.078125 32.328125 30.800781 C 32.691406 30.554688 32.960938 29.984375 32.925781 29.625 C 32.882812 29.167969 32.570312 28.839844 32.738281 28.511719 C 32.027344 28.191406 30.894531 27.628906 30.050781 27 C 29.421875 26.898438 29.3125 27.632812 29.539062 27.964844 C 29.90625 28.488281 30.902344 29.578125 30.84375 30.65625 C 30.503906 31.753906 29.589844 31.980469 29.152344 33.125 C 28.730469 33.691406 27.628906 34.070312 27.703125 34.691406 Z M 11.101562 31.789062 C 11.457031 31.496094 11.894531 31.183594 12.5625 30.898438 C 12.355469 30.160156 12.84375 29.84375 12.921875 29.714844 C 12.734375 29.53125 12.46875 29.300781 12.339844 29.042969 C 11.851562 28.054688 11.96875 27.363281 11.96875 27.0625 C 12.875 27.011719 13.113281 27.921875 16.460938 28.210938 C 16.644531 28.226562 16.972656 28.1875 17.003906 28.03125 C 17.023438 27.929688 16.96875 27.832031 16.875 27.789062 C 16.707031 27.742188 16.511719 27.621094 16.347656 27.523438 C 15.683594 27.140625 15.164062 26.382812 15.089844 26.023438 C 14.492188 25.65625 12.375 25.570312 10.957031 25.570312 C 10.839844 25.648438 9.886719 26.023438 9.8125 26.175781 C 9.433594 26.929688 11.21875 28.816406 11.238281 30.15625 C 11.246094 30.570312 10.988281 31.453125 11.101562 31.789062 Z M 21.378906 15.421875 C 21.253906 15.316406 21.125 15.21875 20.992188 15.128906 L 20.304688 16.054688 C 20.4375 16.160156 20.570312 16.289062 20.683594 16.390625 Z M 20.148438 14.664062 C 20.007812 14.589844 19.859375 14.488281 19.710938 14.417969 L 19.1875 15.332031 C 19.332031 15.414062 19.480469 15.511719 19.613281 15.59375 Z M 18.597656 13.910156 C 18.449219 13.851562 18.296875 13.796875 18.144531 13.742188 L 17.789062 14.6875 C 17.941406 14.746094 18.09375 14.804688 18.238281 14.871094 Z M 16.867188 13.375 C 16.707031 13.335938 16.542969 13.304688 16.378906 13.273438 L 16.179688 14.226562 C 16.339844 14.257812 16.511719 14.292969 16.667969 14.328125 Z M 15.148438 13.113281 C 14.988281 13.105469 14.828125 13.097656 14.667969 13.097656 L 14.667969 14.070312 C 14.832031 14.074219 14.992188 14.078125 15.148438 14.089844 Z M 13.46875 13.097656 C 13.3125 13.105469 13.148438 13.121094 12.988281 13.136719 L 13.082031 14.136719 C 13.246094 14.109375 13.40625 14.109375 13.5625 14.09375 Z M 11.761719 13.261719 C 11.605469 13.292969 11.4375 13.347656 11.28125 13.386719 L 11.597656 14.414062 C 11.757812 14.367188 11.933594 14.304688 12.085938 14.265625 Z M 11.761719 13.261719 "/>
<path style=" stroke:none;fill-rule:nonzero;fill:rgb(21.568627%,27.45098%,53.72549%);fill-opacity:1;" d="M 24 56.335938 L 9.46875 50.335938 L 38.53125 50.335938 Z M 24 56.335938 "/>
<path style=" stroke:none;fill-rule:nonzero;fill:rgb(100%,100%,100%);fill-opacity:1;" d="M 7.15625 9.566406 L 7.15625 6.628906 L 7.816406 6.628906 L 7.816406 9.566406 Z M 8.390625 9.566406 L 8.390625 6.628906 L 9.375 6.628906 C 9.75 6.628906 9.957031 6.644531 10.070312 6.671875 C 10.246094 6.71875 10.390625 6.8125 10.511719 6.960938 C 10.628906 7.109375 10.6875 7.300781 10.6875 7.53125 C 10.6875 7.714844 10.652344 7.863281 10.585938 7.988281 C 10.523438 8.105469 10.433594 8.203125 10.324219 8.277344 C 10.230469 8.34375 10.121094 8.390625 10.003906 8.417969 C 9.859375 8.445312 9.683594 8.457031 9.402344 8.457031 L 9 8.457031 L 9 9.566406 Z M 9.019531 7.125 L 9.019531 7.960938 L 9.367188 7.960938 C 9.617188 7.960938 9.746094 7.945312 9.832031 7.914062 C 9.914062 7.882812 9.980469 7.835938 10.03125 7.769531 C 10.078125 7.703125 10.101562 7.628906 10.101562 7.542969 C 10.101562 7.433594 10.066406 7.347656 10 7.277344 C 9.933594 7.207031 9.84375 7.160156 9.746094 7.148438 C 9.667969 7.132812 9.554688 7.125 9.328125 7.125 Z M 10.953125 8.609375 L 11.539062 8.609375 C 11.578125 8.777344 11.644531 8.898438 11.738281 8.980469 C 11.84375 9.070312 11.988281 9.117188 12.167969 9.117188 C 12.359375 9.117188 12.5 9.078125 12.597656 8.996094 C 12.695312 8.914062 12.742188 8.820312 12.742188 8.714844 C 12.742188 8.648438 12.722656 8.585938 12.679688 8.535156 C 12.640625 8.488281 12.570312 8.445312 12.46875 8.410156 C 12.398438 8.382812 12.242188 8.34375 11.996094 8.28125 C 11.679688 8.203125 11.457031 8.105469 11.328125 7.988281 C 11.148438 7.828125 11.058594 7.632812 11.058594 7.398438 C 11.058594 7.25 11.101562 7.109375 11.1875 6.980469 C 11.273438 6.847656 11.394531 6.75 11.550781 6.683594 C 11.710938 6.613281 11.902344 6.582031 12.128906 6.582031 C 12.496094 6.582031 12.769531 6.660156 12.957031 6.824219 C 13.140625 6.984375 13.238281 7.199219 13.25 7.46875 L 12.652344 7.46875 C 12.625 7.332031 12.574219 7.230469 12.496094 7.167969 C 12.414062 7.105469 12.289062 7.070312 12.121094 7.070312 C 11.949219 7.070312 11.816406 7.105469 11.71875 7.175781 C 11.65625 7.21875 11.621094 7.285156 11.625 7.359375 C 11.625 7.429688 11.652344 7.488281 11.710938 7.539062 C 11.785156 7.601562 11.96875 7.664062 12.253906 7.734375 C 12.542969 7.800781 12.753906 7.871094 12.890625 7.945312 C 13.03125 8.019531 13.136719 8.117188 13.214844 8.242188 C 13.292969 8.371094 13.332031 8.527344 13.332031 8.710938 C 13.332031 8.878906 13.285156 9.035156 13.191406 9.183594 C 13.097656 9.332031 12.96875 9.441406 12.796875 9.511719 C 12.628906 9.582031 12.414062 9.617188 12.160156 9.617188 C 11.792969 9.617188 11.507812 9.53125 11.308594 9.359375 C 11.113281 9.1875 10.992188 8.9375 10.953125 8.609375 Z M 18.535156 9.566406 L 18.535156 6.628906 L 19.199219 6.628906 L 19.199219 9.566406 Z M 21.6875 8.488281 L 22.332031 8.5 C 22.289062 8.867188 22.054688 9.226562 21.832031 9.382812 C 21.613281 9.539062 21.335938 9.617188 20.996094 9.617188 C 20.578125 9.617188 20.234375 9.484375 19.964844 9.214844 C 19.699219 8.949219 19.5625 8.585938 19.5625 8.125 C 19.5625 7.636719 19.699219 7.253906 19.96875 6.984375 C 20.238281 6.714844 20.59375 6.578125 21.035156 6.578125 C 21.421875 6.578125 21.734375 6.6875 21.972656 6.898438 C 22.117188 7.023438 22.316406 7.335938 22.320312 7.578125 L 21.667969 7.578125 C 21.628906 7.425781 21.550781 7.308594 21.433594 7.21875 C 21.316406 7.128906 21.171875 7.085938 21.003906 7.085938 C 20.769531 7.085938 20.582031 7.164062 20.4375 7.320312 C 20.289062 7.476562 20.21875 7.730469 20.21875 8.078125 C 20.21875 8.449219 20.289062 8.714844 20.433594 8.871094 C 20.574219 9.03125 20.761719 9.109375 20.992188 9.109375 C 21.160156 9.109375 21.304688 9.058594 21.425781 8.957031 C 21.546875 8.859375 21.636719 8.699219 21.6875 8.488281 Z M 22.796875 9.566406 L 22.796875 6.628906 L 23.429688 6.628906 L 23.429688 7.773438 L 24.675781 7.773438 L 24.675781 6.628906 L 25.3125 6.628906 L 25.3125 9.566406 L 24.675781 9.566406 L 24.675781 8.339844 L 23.429688 8.339844 L 23.429688 9.566406 Z M 28.183594 9.566406 L 28.183594 7.160156 L 27.25 7.160156 L 27.25 6.628906 L 29.75 6.628906 L 29.75 7.160156 L 28.816406 7.160156 L 28.816406 9.566406 Z M 30.46875 8.097656 C 30.46875 8.429688 30.554688 8.679688 30.71875 8.851562 C 30.886719 9.023438 31.101562 9.109375 31.359375 9.109375 C 31.617188 9.109375 31.832031 9.023438 31.996094 8.851562 C 32.160156 8.683594 32.246094 8.425781 32.246094 8.085938 C 32.246094 7.75 32.164062 7.5 32.003906 7.332031 C 31.839844 7.167969 31.625 7.085938 31.359375 7.085938 C 31.09375 7.085938 30.878906 7.167969 30.714844 7.335938 C 30.550781 7.503906 30.46875 7.757812 30.46875 8.097656 Z M 29.863281 8.117188 C 29.863281 7.816406 29.910156 7.566406 30.003906 7.363281 C 30.074219 7.210938 30.171875 7.074219 30.292969 6.960938 C 30.40625 6.847656 30.539062 6.757812 30.6875 6.695312 C 30.882812 6.617188 31.101562 6.578125 31.351562 6.578125 C 31.804688 6.578125 32.167969 6.714844 32.441406 6.984375 C 32.714844 7.25 32.847656 7.625 32.847656 8.101562 C 32.847656 8.574219 32.714844 8.945312 32.445312 9.214844 C 32.175781 9.480469 31.8125 9.617188 31.359375 9.617188 C 30.902344 9.617188 30.539062 9.484375 30.269531 9.214844 C 30 8.949219 29.863281 8.582031 29.863281 8.117188 Z M 37.941406 9.566406 L 37.941406 6.628906 L 38.585938 6.628906 L 40.230469 8.589844 L 40.230469 6.628906 L 40.847656 6.628906 L 40.847656 9.566406 L 40.179688 9.566406 L 38.554688 7.652344 L 38.554688 9.566406 Z M 35.246094 7.59375 L 35.242188 7.585938 L 35.242188 7.59375 L 34.398438 9.5625 L 33.835938 9.5625 L 32.808594 6.632812 L 33.488281 6.632812 L 34.15625 8.539062 L 34.976562 6.632812 L 35.511719 6.632812 L 36.332031 8.539062 L 36.996094 6.632812 L 37.679688 6.632812 L 36.652344 9.5625 L 36.089844 9.5625 Z M 15.8125 7.59375 L 15.808594 7.585938 L 15.804688 7.59375 L 14.964844 9.5625 L 14.398438 9.5625 L 13.375 6.632812 L 14.054688 6.632812 L 14.71875 8.539062 L 15.539062 6.632812 L 16.078125 6.632812 L 16.898438 8.539062 L 17.5625 6.632812 L 18.242188 6.632812 L 17.21875 9.5625 L 16.652344 9.5625 Z M 8.8125 48.070312 L 8.8125 45.878906 L 10.59375 45.878906 L 10.59375 46.277344 L 9.335938 46.277344 L 9.335938 46.765625 L 10.421875 46.765625 L 10.421875 47.148438 L 9.335938 47.148438 L 9.335938 48.070312 Z M 10.917969 46.988281 C 10.917969 46.765625 10.957031 46.578125 11.039062 46.425781 C 11.097656 46.3125 11.179688 46.210938 11.28125 46.125 C 11.378906 46.039062 11.492188 45.972656 11.613281 45.929688 C 11.777344 45.871094 11.964844 45.84375 12.175781 45.84375 C 12.558594 45.84375 12.863281 45.941406 13.09375 46.144531 C 13.320312 46.34375 13.4375 46.621094 13.4375 46.980469 C 13.4375 47.332031 13.324219 47.609375 13.09375 47.808594 C 12.867188 48.007812 12.5625 48.109375 12.183594 48.109375 C 11.796875 48.109375 11.488281 48.007812 11.261719 47.808594 C 11.03125 47.613281 10.917969 47.335938 10.917969 46.988281 Z M 11.457031 46.972656 C 11.457031 47.222656 11.527344 47.410156 11.664062 47.539062 C 11.796875 47.667969 11.96875 47.730469 12.179688 47.730469 C 12.386719 47.730469 12.558594 47.667969 12.695312 47.539062 C 12.828125 47.414062 12.894531 47.222656 12.894531 46.96875 C 12.894531 46.71875 12.828125 46.53125 12.699219 46.40625 C 12.570312 46.28125 12.394531 46.21875 12.179688 46.21875 C 11.964844 46.21875 11.789062 46.28125 11.65625 46.40625 C 11.523438 46.53125 11.457031 46.722656 11.457031 46.972656 Z M 13.738281 46.988281 C 13.738281 46.765625 13.78125 46.578125 13.859375 46.425781 C 13.917969 46.3125 14 46.210938 14.101562 46.125 C 14.199219 46.039062 14.3125 45.972656 14.4375 45.929688 C 14.597656 45.871094 14.785156 45.84375 14.996094 45.84375 C 15.378906 45.84375 15.683594 45.941406 15.914062 46.144531 C 16.144531 46.34375 16.257812 46.621094 16.257812 46.980469 C 16.257812 47.332031 16.144531 47.609375 15.917969 47.808594 C 15.6875 48.007812 15.382812 48.109375 15.003906 48.109375 C 14.617188 48.109375 14.308594 48.007812 14.082031 47.808594 C 13.855469 47.613281 13.738281 47.335938 13.738281 46.988281 Z M 14.28125 46.972656 C 14.28125 47.222656 14.347656 47.410156 14.484375 47.539062 C 14.621094 47.667969 14.792969 47.730469 15 47.730469 C 15.210938 47.730469 15.382812 47.667969 15.515625 47.539062 C 15.648438 47.414062 15.714844 47.222656 15.714844 46.96875 C 15.714844 46.71875 15.652344 46.53125 15.519531 46.40625 C 15.390625 46.28125 15.214844 46.21875 15 46.21875 C 14.785156 46.21875 14.609375 46.28125 14.476562 46.40625 C 14.347656 46.53125 14.28125 46.722656 14.28125 46.972656 Z M 17.25 48.070312 L 17.25 46.277344 L 16.480469 46.277344 L 16.480469 45.878906 L 18.542969 45.878906 L 18.542969 46.277344 L 17.773438 46.277344 L 17.773438 48.070312 Z M 18.882812 45.878906 L 19.921875 45.878906 C 20.125 45.878906 20.28125 45.886719 20.382812 45.902344 C 20.480469 45.914062 20.574219 45.945312 20.652344 45.992188 C 20.730469 46.039062 20.796875 46.097656 20.851562 46.175781 C 20.90625 46.25 20.929688 46.335938 20.929688 46.429688 C 20.929688 46.535156 20.898438 46.628906 20.832031 46.714844 C 20.765625 46.800781 20.679688 46.863281 20.566406 46.90625 C 20.726562 46.945312 20.847656 47.011719 20.929688 47.105469 C 21.015625 47.199219 21.058594 47.308594 21.058594 47.4375 C 21.058594 47.535156 21.03125 47.632812 20.976562 47.726562 C 20.921875 47.820312 20.84375 47.898438 20.75 47.953125 C 20.65625 48.007812 20.539062 48.042969 20.398438 48.054688 C 20.3125 48.0625 20.101562 48.070312 19.769531 48.070312 L 18.882812 48.070312 Z M 19.40625 46.246094 L 19.40625 46.75 L 19.75 46.75 C 19.957031 46.75 20.082031 46.75 20.132812 46.742188 C 20.222656 46.734375 20.292969 46.707031 20.34375 46.664062 C 20.394531 46.621094 20.421875 46.558594 20.421875 46.492188 C 20.421875 46.429688 20.398438 46.371094 20.355469 46.328125 C 20.308594 46.285156 20.246094 46.261719 20.15625 46.25 C 20.105469 46.246094 19.957031 46.242188 19.710938 46.242188 L 19.40625 46.242188 Z M 19.40625 47.117188 L 19.40625 47.703125 L 19.894531 47.703125 C 20.082031 47.703125 20.203125 47.695312 20.253906 47.6875 C 20.332031 47.675781 20.394531 47.648438 20.441406 47.601562 C 20.492188 47.554688 20.515625 47.492188 20.515625 47.414062 C 20.519531 47.355469 20.5 47.292969 20.460938 47.246094 C 20.421875 47.203125 20.367188 47.167969 20.296875 47.148438 C 20.226562 47.125 20.070312 47.117188 19.832031 47.117188 Z M 23.839844 48.070312 L 23.269531 48.070312 L 23.042969 47.574219 L 22.007812 47.574219 L 21.792969 48.070312 L 21.238281 48.070312 L 22.246094 45.878906 L 22.800781 45.878906 Z M 22.875 47.203125 L 22.519531 46.390625 L 22.167969 47.203125 Z M 24.132812 48.070312 L 24.132812 45.898438 L 24.660156 45.898438 L 24.660156 47.691406 L 25.878906 47.691406 L 25.878906 48.070312 Z M 26.347656 48.070312 L 26.347656 45.898438 L 26.875 45.898438 L 26.875 47.691406 L 28.066406 47.691406 L 28.066406 48.070312 Z M 31.21875 47.265625 L 31.75 47.265625 C 31.699219 47.578125 31.519531 47.820312 31.339844 47.933594 C 31.15625 48.050781 30.925781 48.109375 30.648438 48.109375 C 30.304688 48.109375 30.019531 48.007812 29.796875 47.808594 C 29.578125 47.613281 29.464844 47.339844 29.464844 46.996094 C 29.464844 46.628906 29.578125 46.347656 29.800781 46.144531 C 30.023438 45.941406 30.316406 45.84375 30.679688 45.84375 C 30.996094 45.84375 31.253906 45.921875 31.453125 46.078125 C 31.570312 46.171875 31.703125 46.378906 31.730469 46.589844 L 31.199219 46.589844 C 31.171875 46.476562 31.101562 46.382812 31.007812 46.320312 C 30.910156 46.253906 30.792969 46.21875 30.652344 46.21875 C 30.460938 46.21875 30.304688 46.277344 30.183594 46.394531 C 30.066406 46.511719 30.003906 46.699219 30.003906 46.960938 C 30.003906 47.238281 30.0625 47.4375 30.183594 47.554688 C 30.300781 47.671875 30.453125 47.730469 30.644531 47.730469 C 30.78125 47.730469 30.902344 47.691406 31.003906 47.617188 C 31.101562 47.542969 31.175781 47.425781 31.21875 47.265625 Z M 32.191406 48.070312 L 32.191406 45.898438 L 32.714844 45.898438 L 32.714844 47.6875 L 33.910156 47.6875 L 33.910156 48.070312 Z M 34.386719 45.878906 L 34.910156 45.878906 L 34.910156 47.066406 C 34.910156 47.253906 34.917969 47.375 34.929688 47.433594 C 34.953125 47.523438 35.007812 47.59375 35.09375 47.648438 C 35.175781 47.703125 35.292969 47.730469 35.4375 47.730469 C 35.585938 47.730469 35.699219 47.703125 35.773438 47.652344 C 35.851562 47.601562 35.894531 47.539062 35.910156 47.464844 C 35.925781 47.390625 35.933594 47.265625 35.933594 47.089844 L 35.933594 45.878906 L 36.457031 45.878906 L 36.457031 47.03125 C 36.457031 47.292969 36.445312 47.480469 36.414062 47.589844 C 36.390625 47.691406 36.335938 47.789062 36.257812 47.863281 C 36.183594 47.9375 36.082031 47.996094 35.953125 48.042969 C 35.824219 48.085938 35.660156 48.109375 35.453125 48.109375 C 35.207031 48.109375 35.019531 48.085938 34.890625 48.035156 C 34.761719 47.988281 34.660156 47.925781 34.585938 47.847656 C 34.511719 47.769531 34.464844 47.6875 34.441406 47.605469 C 34.40625 47.480469 34.386719 47.292969 34.386719 47.046875 Z M 37.011719 45.878906 L 38.050781 45.878906 C 38.253906 45.878906 38.40625 45.886719 38.507812 45.902344 C 38.609375 45.914062 38.699219 45.945312 38.78125 45.992188 C 38.859375 46.039062 38.925781 46.097656 38.980469 46.175781 C 39.03125 46.25 39.058594 46.335938 39.058594 46.429688 C 39.058594 46.535156 39.027344 46.628906 38.960938 46.714844 C 38.894531 46.800781 38.804688 46.863281 38.695312 46.90625 C 38.851562 46.945312 38.972656 47.011719 39.058594 47.105469 C 39.144531 47.199219 39.1875 47.308594 39.1875 47.4375 C 39.1875 47.535156 39.160156 47.632812 39.105469 47.726562 C 39.050781 47.820312 38.972656 47.898438 38.878906 47.953125 C 38.785156 48.007812 38.667969 48.042969 38.527344 48.054688 C 38.441406 48.0625 38.230469 48.070312 37.894531 48.070312 L 37.011719 48.070312 Z M 37.535156 46.246094 L 37.535156 46.75 L 37.878906 46.75 C 38.085938 46.75 38.210938 46.75 38.261719 46.742188 C 38.351562 46.734375 38.421875 46.707031 38.472656 46.664062 C 38.523438 46.621094 38.550781 46.558594 38.550781 46.492188 C 38.550781 46.429688 38.527344 46.371094 38.484375 46.328125 C 38.4375 46.285156 38.371094 46.261719 38.285156 46.25 C 38.234375 46.246094 38.085938 46.242188 37.835938 46.242188 L 37.535156 46.242188 Z M 37.535156 47.117188 L 37.535156 47.703125 L 38.023438 47.703125 C 38.210938 47.703125 38.328125 47.695312 38.378906 47.6875 C 38.457031 47.675781 38.523438 47.648438 38.570312 47.601562 C 38.621094 47.554688 38.644531 47.492188 38.644531 47.414062 C 38.648438 47.355469 38.625 47.292969 38.589844 47.246094 C 38.546875 47.199219 38.488281 47.164062 38.425781 47.148438 C 38.351562 47.125 38.199219 47.117188 37.960938 47.117188 Z M 13.492188 31.511719 C 12.921875 31.53125 12.375 31.742188 11.941406 32.113281 C 12.054688 32.253906 12.183594 32.382812 12.324219 32.503906 C 12.542969 32.1875 13.015625 31.777344 13.492188 31.511719 Z M 11.675781 32.371094 C 11.535156 32.535156 11.410156 32.714844 11.3125 32.910156 C 12.023438 33.703125 13.296875 34.503906 14.046875 34.792969 C 14.074219 34.539062 14.058594 34.28125 14 34.03125 C 13.128906 33.578125 12.175781 33.039062 11.675781 32.371094 Z M 11.160156 33.292969 C 11.074219 33.558594 11.039062 33.835938 11.046875 34.117188 C 11.8125 34.761719 13.109375 35.503906 13.777344 35.734375 C 13.863281 35.558594 13.929688 35.367188 13.980469 35.171875 C 13.257812 34.945312 11.902344 34.128906 11.160156 33.292969 Z M 11.117188 34.636719 C 11.359375 35.632812 12.1875 36.398438 13.214844 36.550781 C 13.351562 36.410156 13.484375 36.242188 13.601562 36.054688 C 12.976562 35.832031 11.871094 35.226562 11.117188 34.636719 Z M 13.675781 36.574219 C 14.003906 36.5625 14.332031 36.488281 14.632812 36.351562 C 15.070312 35.578125 15.277344 34.402344 15.058594 33.191406 C 14.722656 33.355469 14.484375 33.570312 14.351562 33.84375 C 14.628906 34.761719 14.207031 35.957031 13.675781 36.574219 Z M 15.253906 35.949219 C 15.804688 35.46875 16.125 34.773438 16.125 34.042969 C 16.125 33.65625 16.035156 33.277344 15.867188 32.933594 C 15.714844 32.964844 15.574219 33 15.441406 33.042969 C 15.648438 33.878906 15.550781 35.195312 15.253906 35.949219 Z M 15.667969 32.59375 C 15.535156 32.40625 15.378906 32.238281 15.199219 32.089844 C 14.460938 32.320312 13.71875 32.773438 13.414062 33.285156 C 13.644531 33.425781 13.859375 33.542969 14.03125 33.632812 C 14.226562 33.175781 14.839844 32.789062 15.667969 32.59375 Z M 14.804688 31.820312 C 14.601562 31.710938 14.386719 31.625 14.160156 31.574219 C 13.546875 31.835938 12.855469 32.367188 12.625 32.746094 C 12.777344 32.867188 12.945312 32.980469 13.109375 33.089844 C 13.382812 32.589844 14.09375 32.097656 14.804688 31.820312 Z M 40.71875 42.148438 C 38.785156 42.148438 38.664062 43.167969 36.539062 43.152344 C 34.410156 43.167969 34.292969 42.148438 32.359375 42.148438 C 30.421875 42.148438 30.308594 43.167969 28.179688 43.152344 C 26.050781 43.167969 25.933594 42.148438 24 42.148438 C 22.0625 42.148438 21.949219 43.167969 19.820312 43.152344 C 17.691406 43.167969 17.574219 42.148438 15.640625 42.148438 C 13.707031 42.148438 13.589844 43.167969 11.460938 43.152344 C 9.332031 43.167969 9.21875 42.148438 7.28125 42.148438 L 7.28125 41.410156 C 9.21875 41.410156 9.332031 42.429688 11.460938 42.414062 C 13.589844 42.429688 13.707031 41.410156 15.640625 41.410156 C 17.574219 41.410156 17.691406 42.429688 19.820312 42.414062 C 21.949219 42.429688 22.0625 41.410156 24 41.410156 C 25.933594 41.410156 26.050781 42.429688 28.179688 42.414062 C 30.308594 42.429688 30.421875 41.410156 32.359375 41.410156 C 34.292969 41.410156 34.410156 42.429688 36.539062 42.414062 C 38.664062 42.429688 38.78125 41.410156 40.71875 41.410156 Z M 40.71875 39.195312 C 38.785156 39.195312 38.667969 40.210938 36.539062 40.199219 C 34.410156 40.210938 34.292969 39.195312 32.359375 39.195312 C 30.425781 39.195312 30.308594 40.210938 28.179688 40.199219 C 26.050781 40.210938 25.9375 39.195312 24 39.195312 C 22.066406 39.195312 21.949219 40.210938 19.820312 40.199219 C 17.691406 40.210938 17.578125 39.195312 15.640625 39.195312 C 13.707031 39.195312 13.589844 40.210938 11.460938 40.199219 C 9.335938 40.210938 9.21875 39.195312 7.285156 39.195312 L 7.285156 39.933594 C 9.21875 39.933594 9.335938 40.949219 11.460938 40.9375 C 13.589844 40.949219 13.707031 39.933594 15.640625 39.933594 C 17.578125 39.933594 17.691406 40.949219 19.820312 40.9375 C 21.949219 40.949219 22.066406 39.933594 24 39.933594 C 25.9375 39.933594 26.054688 40.949219 28.179688 40.9375 C 30.308594 40.949219 30.425781 39.933594 32.359375 39.933594 C 34.292969 39.933594 34.410156 40.949219 36.539062 40.9375 C 38.667969 40.949219 38.785156 39.933594 40.71875 39.933594 Z M 40.71875 39.195312 "/>
</g>
</svg>
