<svg width="2300" height="2500" viewBox="0 0 2300 2500" fill="none" xmlns="http://www.w3.org/2000/svg">
<g clip-path="url(#clip0_290_1321)">
<path d="M2300 81.0177C1950.52 29.2408 1560.64 0 1149.91 0C739.36 0 349.485 29.2408 0 81.0177V1019.15C0 1811.26 470.467 2257.13 1131.32 2494.23L1149.91 2500L1168.68 2494.23C1829.53 2256.39 2300 1810.51 2300 1018.4V81.0177Z" fill="#2DAFE5"/>
<path d="M2220.54 158.55C1894.95 110.498 1532.76 83.4922 1149.71 83.4922C767.424 83.4922 404.476 110.498 78.8843 158.55V1046.39C78.8843 1783.93 517.305 2199.08 1131.89 2419.22L1148.96 2425.18L1166.21 2419.22C1782.88 2199.08 2220.54 1784.68 2220.54 1047.14V158.55Z" fill="#7C2C3B"/>
<path d="M1678.39 2018.44C1695.65 2035.2 1722.57 2017.69 1750.07 1989.94C1777.76 1962.93 1795.77 1935.93 1779.27 1919.91L717.355 908.773C700.288 892.011 670.327 894.991 649.468 914.733C629.177 934.475 626.333 964.275 643.4 981.037L1678.39 2018.44Z" fill="#D6A93A"/>
<path d="M750.551 893.382L837.021 793.553C837.021 793.553 845.365 782.565 832.66 768.037C799.096 727.808 731.778 670.257 731.778 670.257C722.107 662.994 715.28 665.042 704.85 674.541C651.944 724.269 516.739 851.849 508.585 860.602C498.156 870.846 493.605 878.11 496.639 895.617C499.483 913.124 509.344 943.11 492.846 971.606L401.825 1112.22C390.447 1129.73 386.844 1144.44 395.757 1153.2C400.308 1157.48 412.254 1162.7 435.389 1146.68C446.577 1139.23 571.163 1056.91 610.795 1025.43C633.93 1006.62 651.944 989.672 651.944 989.672L726.658 917.594C726.658 917.594 742.207 902.135 750.551 893.382Z" fill="#F8D742"/>
<path d="M435.953 1137.06C409.785 1154.57 409.785 1156.81 413.577 1156.06C419.456 1154.57 426.282 1151.59 435.195 1145.82C446.383 1138.55 571.158 1056.05 610.601 1024.76C627.099 1011.53 640.562 999.241 647.199 993.281C627.099 997.751 600.93 1007.25 585.191 1020.29C563.573 1037.24 473.31 1112.29 435.953 1137.06Z" fill="#D6A93A"/>
<path d="M750.558 893.344L837.029 793.515C837.029 793.515 842.338 786.996 837.787 776.753C837.787 776.753 830.392 768.744 805.74 797.054C784.881 821.266 775.021 830.764 757.195 851.81C743.732 867.828 733.302 894.089 729.51 914.576C734.819 909.547 744.49 900.049 750.558 893.344Z" fill="#D6A93A"/>
<path d="M624.07 2018.44C606.814 2035.2 579.886 2017.69 552.39 1989.94C524.705 1962.93 506.88 1935.93 523.188 1919.91L1585.11 908.773C1602.36 892.011 1632.13 894.991 1652.99 914.733C1673.28 934.475 1676.13 964.275 1659.06 981.037L624.07 2018.44Z" fill="#D6A93A"/>
<path d="M613.626 2008.21L1604.62 1014.02C1621.88 997.256 1618.85 968.015 1598.74 947.528C1588.13 937.284 1574.85 931.511 1562.15 930.766L524.122 1919.37C506.866 1935.38 522.605 1960.9 548.773 1986.42C574.184 2009.7 598.077 2023.67 613.626 2008.21Z" fill="#F8D742"/>
<path d="M1552.5 892.968L1465.84 793.139C1465.84 793.139 1457.68 782.151 1470.39 767.623C1503.95 727.394 1571.08 669.843 1571.08 669.843C1580.75 662.58 1587.58 664.628 1598.01 674.127C1651.1 723.855 1786.12 851.435 1794.46 860.188C1804.89 870.432 1809.25 877.696 1806.41 895.203C1803.37 912.71 1793.7 942.696 1810.01 971.005L1901.22 1111.81C1912.41 1129.32 1916.2 1144.03 1907.1 1152.78C1902.74 1157.07 1890.79 1162.28 1867.66 1146.08C1856.47 1138.07 1731.69 1056.49 1692.06 1024.27C1668.93 1005.46 1651.1 988.513 1651.1 988.513L1576.39 916.435C1576.39 917.18 1560.65 901.721 1552.5 892.968Z" fill="#F8D742"/>
<path d="M1866.9 1136.65C1893.07 1154.16 1893.07 1156.4 1889.47 1155.65C1883.4 1154.91 1876.76 1151.93 1867.66 1145.41C1856.47 1138.14 1731.89 1055.64 1692.25 1024.35C1675.76 1011.12 1662.29 998.831 1655.66 992.871C1675.76 997.341 1701.92 1006.84 1717.66 1019.88C1739.28 1036.64 1829.73 1111.88 1866.9 1136.65Z" fill="#D6A93A"/>
<path d="M1552.5 893.137L1465.84 793.308C1465.84 793.308 1460.53 786.603 1465.08 776.546C1465.08 776.546 1472.47 768.537 1497.12 796.847C1518.17 821.059 1528.6 830.371 1545.67 850.858C1559.13 866.876 1569.56 893.137 1573.35 913.624C1568.04 909.154 1558.37 899.841 1552.5 893.137Z" fill="#D6A93A"/>
<path d="M1719.73 922.172C1711.39 930.18 1698.12 930.18 1689.77 922.172L1645.02 878.404C1636.87 870.209 1636.87 857.171 1645.02 849.163C1653.17 841.154 1666.64 841.154 1674.98 849.163L1719.73 892.931C1727.89 900.94 1727.89 913.977 1719.73 922.172Z" fill="#D6A93A"/>
<path d="M1651.47 878.519C1643.32 870.51 1643.32 857.473 1651.47 849.464C1654.51 846.484 1659.06 844.249 1663.42 843.504C1656.78 842.759 1650.91 844.994 1645.6 849.464C1637.44 857.473 1637.44 870.51 1645.6 878.519L1690.35 922.287C1695.66 927.502 1701.54 928.806 1708.36 928.247C1703.81 927.502 1699.45 925.267 1696.42 922.287L1651.47 878.519Z" fill="#CDA938"/>
<path d="M1671.19 894.613C1670.43 895.358 1668.92 895.358 1668.16 894.613C1667.4 893.868 1667.4 892.378 1668.16 891.633L1688.26 871.891C1689.02 871.146 1690.53 871.146 1691.29 871.891C1692.05 872.636 1692.05 874.126 1691.29 874.871L1671.19 894.613Z" fill="#D6A93A"/>
<path d="M1677.84 901.009C1677.08 901.754 1675.56 901.754 1674.81 901.009C1674.05 900.264 1674.05 898.96 1674.81 898.215C1675.56 897.47 1677.08 897.47 1677.84 898.215C1678.6 898.96 1678.6 900.264 1677.84 901.009Z" fill="#D6A93A"/>
<path d="M1663.81 887.414C1663.05 888.159 1661.72 888.159 1660.96 887.414C1660.2 886.669 1660.2 885.179 1660.96 884.434C1661.72 883.689 1663.05 883.689 1663.81 884.434C1664.56 885.179 1664.56 886.669 1663.81 887.414Z" fill="#D6A93A"/>
<path d="M1680.3 860.519L1673.66 854C1672.9 853.255 1671.39 853.255 1670.63 854C1669.87 854.745 1669.87 856.235 1670.63 856.98L1671.39 857.539C1672.14 858.284 1672.14 858.284 1671.39 859.029L1653.37 876.536C1652.61 877.281 1652.61 878.771 1653.37 879.516C1654.13 880.261 1655.65 880.261 1656.4 879.516L1674.42 862.009H1675.75L1677.26 863.499C1678.02 864.244 1679.54 864.244 1680.3 863.499C1681.06 862.754 1681.06 861.264 1680.3 860.519Z" fill="#D6A93A"/>
<path d="M1717.66 897.358C1716.9 896.613 1715.38 895.868 1714.63 896.613L1702.68 905.367C1701.92 906.112 1701.16 905.367 1701.16 905.367C1700.4 904.622 1700.4 904.622 1701.16 903.877L1703.44 899.407C1704.2 898.662 1703.44 897.917 1703.44 897.358C1702.68 896.613 1701.92 896.613 1701.16 897.358L1695.28 897.917H1693.77V896.613L1701.92 884.879C1702.68 884.135 1702.68 882.645 1701.92 881.899C1701.16 881.155 1699.65 881.154 1699.08 882.644L1681.82 905.367C1681.06 906.112 1681.06 907.415 1681.82 908.16C1682.58 908.905 1683.34 908.905 1684.1 908.16L1693.01 904.622H1694.53C1695.28 905.367 1695.28 905.367 1694.53 906.112L1690.73 914.12C1689.97 914.865 1690.73 915.424 1690.73 916.169C1691.49 916.914 1693.01 916.914 1693.77 916.169L1716.9 899.407C1718.42 899.407 1718.42 897.917 1717.66 897.358Z" fill="#D6A93A"/>
<path d="M747.524 937.344C734.819 937.344 720.597 942.559 709.409 953.361C690.635 971.613 687.601 999.364 703.341 1014.64L1128.3 1439.28L1200.74 1368.51L747.524 937.344Z" fill="#F8D742"/>
<path d="M1779.08 1919.95L1243.76 1410.75C1235.6 1414.28 1227.26 1419.5 1220.62 1426.02C1192.94 1453.02 1190.66 1496.05 1213.8 1526.03L1692.61 2005.25C1708.16 2020.52 1733.57 2004.5 1758.98 1978.99C1764.29 1974.52 1767.89 1970.23 1771.68 1965.76C1785.91 1948.26 1791.03 1931.49 1779.08 1919.95Z" fill="#F8D742"/>
<path d="M1670.06 893.586C1669.49 894.331 1667.97 894.331 1667.22 893.586C1666.46 892.841 1666.46 891.351 1667.22 890.606L1687.32 870.863C1688.08 870.118 1689.59 870.118 1690.35 870.863C1691.11 871.608 1691.11 873.098 1690.35 873.843L1670.06 893.586Z" fill="#F8D742"/>
<path d="M1676.87 900.184C1676.11 900.929 1674.6 900.929 1673.84 900.184C1673.08 899.439 1673.08 897.95 1673.84 897.391C1674.6 896.646 1676.11 896.646 1676.87 897.391C1677.63 897.95 1677.63 899.439 1676.87 900.184Z" fill="#F8D742"/>
<path d="M1662.84 886.593C1662.08 887.338 1660.57 887.338 1659.81 886.593C1659.05 885.848 1659.05 884.358 1659.81 883.613C1660.57 882.868 1662.08 882.868 1662.84 883.613C1663.6 884.358 1663.6 885.848 1662.84 886.593Z" fill="#F8D742"/>
<path d="M1679.36 859.488L1672.53 852.969C1671.77 852.224 1670.44 852.224 1669.68 852.969C1668.93 853.714 1668.93 855.018 1669.68 855.763L1670.44 856.508C1671.2 857.253 1671.2 857.253 1670.44 857.998L1652.43 875.505C1651.67 876.25 1651.67 877.74 1652.43 878.485C1653.19 879.23 1654.7 879.23 1655.46 878.485L1673.29 860.978H1674.8L1676.32 862.468C1677.08 863.213 1678.6 863.213 1679.36 862.468C1680.11 861.723 1680.11 860.233 1679.36 859.488Z" fill="#F8D742"/>
<path d="M1716.69 896.141C1715.93 895.396 1714.42 894.837 1713.66 895.396L1701.71 904.149C1700.95 904.894 1700.19 904.149 1700.19 904.149C1699.44 904.149 1699.44 903.59 1700.19 902.845L1702.47 898.376C1703.23 897.631 1702.47 896.886 1702.47 896.141C1701.71 895.396 1700.95 895.396 1700.19 896.141L1694.32 896.886H1692.8V895.396L1700.95 883.848C1701.71 883.103 1701.71 881.613 1700.95 880.868C1700.19 880.123 1698.68 880.123 1697.92 881.613L1680.85 904.149C1680.09 904.894 1680.09 906.384 1680.85 907.129C1681.61 907.874 1682.37 907.874 1683.13 907.129L1692.04 903.59H1693.56C1694.32 904.149 1694.32 904.149 1693.56 904.894L1689.76 912.903C1689.01 913.648 1689.76 914.393 1689.76 915.138C1690.52 915.883 1692.04 915.883 1692.8 915.138L1715.93 898.376C1717.45 898.376 1717.45 896.886 1716.69 896.141Z" fill="#F8D742"/>
<path d="M657.26 849.987C665.604 857.996 665.604 871.219 657.26 879.228L612.508 922.996C604.354 931.005 590.89 931.005 582.736 922.996C574.393 914.987 574.393 901.764 582.736 893.755L627.488 849.987C635.643 841.978 649.106 841.978 657.26 849.987Z" fill="#D6A93A"/>
<path d="M586.888 897.07L631.64 853.302C639.226 846.038 651.172 846.038 659.326 851.812L657.051 849.577C648.897 841.568 635.433 841.568 627.279 849.577L582.527 893.345C574.183 901.354 574.183 914.577 582.527 922.586C583.096 923.331 583.854 924.076 584.613 924.076C578.734 916.067 579.493 904.334 586.888 897.07Z" fill="#CDA938"/>
<path d="M628.239 900.68C628.998 901.239 628.998 902.729 628.239 903.474C627.481 904.219 625.964 904.219 625.205 903.474L605.105 883.731C604.346 883.173 604.346 881.683 605.105 880.938C605.673 880.193 607.19 880.193 607.949 880.938L628.239 900.68Z" fill="#D6A93A"/>
<path d="M634.881 893.895C635.639 894.64 635.639 896.13 634.881 896.875C634.122 897.62 632.795 897.62 632.036 896.875C631.278 896.13 631.278 894.64 632.036 893.895C632.795 893.15 634.122 893.15 634.881 893.895Z" fill="#D6A93A"/>
<path d="M621.041 907.672C621.61 908.417 621.61 909.721 621.041 910.466C620.283 911.211 618.766 911.211 618.007 910.466C617.249 909.721 617.249 908.417 618.007 907.672C618.766 906.927 620.283 906.927 621.041 907.672Z" fill="#D6A93A"/>
<path d="M593.337 891.636L586.51 898.341C585.942 899.086 585.942 900.39 586.51 901.135C587.269 901.88 588.786 901.88 589.544 901.135L591.061 900.39C591.82 899.831 591.82 899.831 592.579 900.39L610.404 917.897C611.162 918.642 612.679 918.642 613.438 917.897C614.196 917.338 614.196 915.848 613.438 915.103L595.613 897.596V896.106L597.13 895.361C597.888 894.616 597.888 893.126 597.13 892.381C595.613 891.077 594.096 891.077 593.337 891.636Z" fill="#D6A93A"/>
<path d="M630.895 855.165C630.137 855.91 629.568 857.214 630.137 857.959L639.239 869.692V871.182C638.48 871.927 637.722 871.927 637.722 871.927L632.412 868.947C631.654 868.947 630.895 868.947 630.137 869.692C629.568 870.437 629.568 871.182 630.137 871.927L631.654 876.956V878.446H630.137L618.19 870.437C617.621 869.692 616.104 869.692 615.346 870.437C614.587 871.182 614.587 872.672 616.104 873.417L639.239 890.18C639.997 890.925 641.514 890.925 642.083 890.18C642.842 889.435 642.842 888.69 642.083 887.945L638.48 879.191V877.701C639.239 876.956 639.239 876.956 639.997 877.701L648.151 881.426C648.91 882.171 649.668 881.426 650.427 881.426C651.185 880.681 651.185 879.191 650.427 878.446L633.929 855.91C633.171 854.42 631.654 854.42 630.895 855.165Z" fill="#D6A93A"/>
<path d="M628.239 898.418C628.998 899.163 628.998 900.653 628.239 901.212C627.481 901.957 625.964 901.957 625.205 901.212L605.105 881.656C604.346 880.911 604.346 879.421 605.105 878.676C605.673 877.931 607.19 877.931 607.949 878.676L628.239 898.418Z" fill="#F8D742"/>
<path d="M634.881 891.84C635.639 892.399 635.639 893.889 634.881 894.634C634.122 895.379 632.795 895.379 632.036 894.634C631.278 893.889 631.278 892.399 632.036 891.84C632.795 891.095 634.122 891.095 634.881 891.84Z" fill="#F8D742"/>
<path d="M621.041 905.617C621.61 906.362 621.61 907.852 621.041 908.597C620.283 909.156 618.766 909.156 618.007 908.597C617.249 907.852 617.249 906.362 618.007 905.617C618.766 904.872 620.283 904.872 621.041 905.617Z" fill="#F8D742"/>
<path d="M593.337 889.505L586.51 896.024C585.942 896.769 585.942 898.259 586.51 899.004C587.269 899.749 588.786 899.749 589.544 899.004L591.061 898.259C591.82 897.514 591.82 897.514 592.579 898.259L610.404 915.766C611.162 916.511 612.679 916.511 613.438 915.766C614.196 915.021 614.196 913.531 613.438 912.786L595.613 895.279V893.789L597.13 893.044C597.888 892.299 597.888 890.995 597.13 890.25C595.613 888.76 594.096 888.76 593.337 889.505Z" fill="#F8D742"/>
<path d="M630.895 853.107C630.137 853.852 629.568 855.342 630.137 856.086L639.239 867.634V869.124C638.48 869.869 637.722 869.869 637.722 869.869L632.412 866.889C631.654 866.889 630.895 866.889 630.137 867.634C629.568 868.379 629.568 869.124 630.137 869.869L631.654 874.897V876.387H630.137L618.19 867.634C617.621 867.634 616.104 867.634 615.346 868.379C614.587 869.124 614.587 870.614 616.104 871.359L639.239 888.121C639.997 888.866 641.514 888.866 642.083 888.121C642.842 887.376 642.842 886.631 642.083 885.886L638.48 877.132V875.642C639.239 874.897 639.239 874.897 639.997 875.642L648.151 879.367C648.91 880.112 649.668 879.367 650.427 879.367C651.185 878.622 651.185 877.132 650.427 876.387L633.929 853.852C633.171 852.362 631.654 852.362 630.895 853.107Z" fill="#F8D742"/>
<path d="M732.525 601.131C692.324 604.856 654.208 578.595 653.45 537.62C651.933 499.812 651.174 461.817 649.657 423.823C667.672 422.519 677.343 421.774 695.358 420.284C696.116 458.093 697.444 496.087 698.202 534.081C698.961 553.079 711.666 561.832 731.197 561.087C734.042 561.087 734.8 561.087 737.834 560.342C757.176 559.597 769.881 548.609 769.123 529.612C768.364 491.803 767.796 453.809 766.279 415.814C784.104 415.069 793.775 414.324 811.789 413.766L814.065 527.563C815.582 568.351 780.311 598.896 739.351 600.386C736.317 601.131 735.559 601.131 732.525 601.131Z" fill="white"/>
<path d="M846.868 412.005C867.917 411.26 879.105 410.515 899.964 409.77C923.857 447.02 947.75 485.014 970.885 522.264H971.643C970.885 484.269 970.885 445.53 970.126 407.722C988.141 406.977 997.812 406.977 1015.64 406.977C1016.4 466.762 1016.4 527.292 1017.15 587.078C996.295 587.823 985.866 587.823 965.007 588.568C941.872 551.318 917.979 513.51 894.086 476.261H893.327C894.086 514.069 894.654 552.808 894.654 590.803C876.829 591.548 867.917 592.293 849.902 592.852C849.144 532.321 848.385 471.791 846.868 412.005Z" fill="white"/>
<path d="M1049.39 405.874C1067.41 405.874 1077.08 405.129 1095.09 405.129C1095.09 464.914 1095.85 525.631 1095.85 585.416C1077.84 585.416 1068.92 585.417 1050.91 586.162C1050.15 526.19 1050.15 465.659 1049.39 405.874Z" fill="white"/>
<path d="M1187.07 442.937H1128.09V405.129C1182.52 405.129 1237.13 405.874 1291.55 406.619V444.427C1268.42 443.682 1256.47 443.682 1232.58 443.682C1232.58 491.175 1231.82 538.668 1231.82 585.975C1213.99 585.975 1205.08 585.975 1187.07 585.23V442.937Z" fill="white"/>
<path d="M1324.94 407.391C1365.9 408.881 1407.04 410.184 1448.76 411.674C1448.76 427.133 1448.19 434.396 1448.19 449.669C1416.72 448.179 1400.98 447.434 1369.69 446.689V479.655C1395.1 480.213 1407.8 480.958 1433.21 481.703C1433.21 497.162 1432.46 504.426 1432.46 519.698C1407.04 518.208 1394.34 517.463 1368.93 516.718C1368.93 530.686 1368.93 537.205 1368.17 550.987C1400.41 551.732 1416.72 552.477 1448.76 553.967C1448.76 569.24 1448.19 576.503 1448.19 591.962C1407.04 590.472 1365.14 588.982 1322.66 587.492L1324.94 407.391Z" fill="white"/>
<path d="M1483.28 413.148C1512.48 414.452 1527.27 415.197 1556.48 417.432C1609.38 419.667 1651.29 461.945 1649.77 513.722C1648.26 564.754 1603.5 602.748 1551.92 597.72C1522.91 596.23 1508.69 594.74 1479.49 593.25C1481 533.464 1481.76 472.934 1483.28 413.148ZM1550.41 558.98C1581.89 561.215 1601.23 544.453 1601.99 509.438C1602.75 474.983 1583.4 456.172 1552.68 453.937C1543.01 453.937 1538.46 453.937 1528.03 453.192C1527.27 488.206 1526.51 523.221 1525.76 557.49C1535.62 558.235 1540.74 558.98 1550.41 558.98Z" fill="white"/>
<path d="M267.38 202.184L327.113 194.92C337.542 245.952 348.73 297.17 359.349 348.202H359.918C371.865 294.935 383.811 240.924 395.758 187.657C416.048 185.422 426.478 184.677 447.337 182.628C459.283 233.66 471.23 284.692 483.177 336.469H483.935C495.123 282.457 506.311 229.19 518.258 175.923C541.392 173.874 553.339 173.13 576.474 170.895C557.131 248.187 537.789 324.735 518.258 402.214C490.762 404.263 477.298 405.753 449.612 408.733C439.941 365.709 431.029 321.941 421.168 278.918H420.41C410.739 324.176 401.826 369.248 392.155 414.506C364.469 417.486 350.247 418.976 322.751 421.77C304.736 348.947 286.153 275.193 267.38 202.184Z" fill="white"/>
<path d="M1759.38 174.391C1784.79 176.626 1797.49 177.371 1822.9 180.351C1840.16 229.147 1856.47 277.199 1873.72 326.182H1874.48C1890.79 280.924 1908.05 235.666 1925.3 190.408C1950.71 193.388 1963.23 194.878 1987.88 197.858C2002.1 275.15 2015.56 351.698 2029.79 428.991C2006.65 426.197 1994.71 424.707 1971.57 421.727C1964.74 371.44 1958.11 320.967 1950.71 270.681H1949.95C1933.46 318.919 1916.96 366.226 1899.89 414.464C1879.6 412.229 1869.17 411.484 1848.31 409.249C1831.06 358.217 1814.75 307.185 1797.49 256.153H1796.73C1790.86 304.95 1784.79 353.933 1778.91 403.475C1755.02 401.24 1743.07 400.495 1719.18 398.446C1733.4 323.202 1746.1 248.89 1759.38 174.391Z" fill="white"/>
<path d="M599.406 169.826C651.743 166.101 704.08 162.562 756.228 159.582C754.711 178.579 754.711 188.078 753.194 207.075C721.147 208.565 688.341 210.614 656.104 212.849V253.823C687.583 251.588 704.08 250.843 735.369 248.608V296.101C704.08 297.591 687.583 298.895 656.104 301.13V344.153C689.858 341.918 724.181 339.87 757.745 338.38V385.686C704.649 388.666 652.501 392.391 599.406 395.93V169.826Z" fill="white"/>
<path d="M1022.66 198.363C993.459 199.108 978.478 199.108 949.465 199.853V152.36C1017.35 150.87 1084.67 150.125 1152.56 150.125V197.618H1079.36V376.416C1056.98 376.416 1045.04 376.416 1022.66 377.161V198.363Z" fill="white"/>
<path d="M1247 150.328C1269.37 150.328 1281.32 151.073 1303.69 151.073V241.589C1336.69 242.334 1369.5 243.079 1402.3 244.569V154.053C1424.68 154.798 1436.62 155.543 1459.19 156.288V382.393C1436.62 381.648 1424.68 380.903 1402.3 380.158V291.876C1369.5 290.573 1336.69 289.828 1303.69 289.083V377.364C1281.32 377.364 1269.37 377.364 1247 376.619V150.328Z" fill="white"/>
<path d="M1629.1 344.025C1597.62 341.791 1581.88 341.232 1551.35 339.742C1546.04 358.739 1543.2 367.493 1537.13 386.304C1513.99 385 1502.05 385 1478.91 383.51C1502.05 309.011 1525.94 234.698 1549.07 160.199C1579.79 161.689 1594.58 163.179 1625.3 164.669L1701.53 396.547C1678.21 395.057 1666.26 394.312 1643.13 392.264C1637.25 373.266 1634.98 363.768 1629.1 344.025ZM1590.22 214.211C1581.88 241.217 1572.97 268.223 1564.81 295.974C1585.67 297.464 1595.34 297.464 1616.39 298.767C1607.29 270.458 1599.14 242.707 1590.22 214.211Z" fill="white"/>
<path d="M863.387 151.205C820.72 152.695 772.934 178.211 772.934 224.773C772.176 295.547 881.212 276.55 887.849 315.289C889.366 326.278 877.419 335.031 861.87 335.031C832.667 335.031 809.532 329.258 785.639 317.524C784.122 337.266 783.364 347.324 782.605 364.831C807.257 381.034 832.667 384.573 860.353 385.318C901.312 386.063 949.857 359.057 950.616 312.309C951.374 242.28 843.097 257.739 835.701 221.234C833.425 211.736 845.372 202.237 862.628 201.492C889.366 200.002 908.897 206.521 923.12 212.481C924.447 189.758 924.447 186.965 925.964 164.987C913.259 157.724 893.158 150.46 863.387 151.205Z" fill="white"/>
<path d="M814.644 2020.7L842.329 2032.43L803.456 2119.22L849.725 2138.97L839.295 2162.25L765.34 2130.96L814.644 2020.7Z" fill="white"/>
<path d="M950.984 2068.19C986.823 2077.68 1005.41 2110.46 996.494 2143.99C986.823 2178.44 953.259 2197.26 917.419 2187.76C881.58 2178.44 862.806 2144.73 872.477 2110.46C881.58 2077.68 915.144 2058.69 950.984 2068.19ZM924.815 2162.24C942.64 2167.46 960.655 2155.72 966.723 2135.98C971.843 2117.17 961.413 2098.92 944.157 2094.45C926.332 2089.42 908.317 2100.22 903.197 2119.22C896.371 2138.21 906.8 2157.21 924.815 2162.24Z" fill="white"/>
<path d="M1025.14 2088.15L1055.86 2090.95L1084.12 2150.17C1087.91 2158.18 1092.46 2171.22 1092.46 2171.22C1092.46 2171.22 1092.46 2158.18 1093.22 2150.73L1098.34 2095.42L1128.3 2098.21L1115.59 2217.97L1085.63 2214.99L1058.14 2155.95C1053.59 2147.19 1049.79 2134.71 1049.79 2134.71C1049.79 2134.71 1049.79 2147.94 1049.04 2155.2L1043.16 2210.7L1013.2 2207.72L1025.14 2088.15Z" fill="white"/>
<path d="M1149.9 2098.77L1193.13 2096.54C1232 2094.3 1258.17 2115.54 1259.5 2152.6C1261.78 2190.59 1237.88 2213.88 1199.77 2216.11L1156.53 2218.35L1149.9 2098.77ZM1197.68 2191.34C1218.54 2190.59 1230.49 2177.56 1228.97 2154.09C1227.45 2131.55 1213.99 2120.57 1193.89 2121.31L1181.18 2122.06L1184.98 2191.34C1184.98 2192.08 1197.68 2191.34 1197.68 2191.34Z" fill="white"/>
<path d="M1324.54 2077.51C1360.95 2069.51 1393.19 2090.55 1400.58 2124.08C1408.17 2158.53 1387.88 2191.31 1351.28 2199.32C1314.68 2207.33 1282.63 2186.1 1274.48 2151.08C1267.65 2117.56 1287.94 2085.52 1324.54 2077.51ZM1346.16 2172.31C1363.98 2168.59 1375.17 2150.34 1370.81 2130.04C1366.26 2111.04 1348.43 2099.31 1330.42 2103.03C1312.59 2106.57 1301.22 2124.08 1305.77 2143.82C1310.32 2164.31 1328.14 2176.6 1346.16 2172.31Z" fill="white"/>
<path d="M1399.45 2061.37L1427.89 2050.38L1480.99 2089.87C1488.39 2095.64 1498.06 2105.14 1498.06 2105.14C1498.06 2105.14 1492.18 2093.4 1489.14 2086.89L1468.29 2034.36L1495.78 2023.38L1542.24 2135.12L1513.8 2145.93L1460.7 2106.63C1453.31 2100.85 1443.63 2091.36 1443.63 2091.36C1443.63 2091.36 1449.51 2102.9 1452.55 2109.61L1474.16 2161.38L1446.48 2172.19L1399.45 2061.37Z" fill="white"/>
</g>
<defs>
<clipPath id="clip0_290_1321">
<rect width="2300" height="2500" fill="white"/>
</clipPath>
</defs>
</svg>
