<?xml version="1.0" encoding="UTF-8"?>
<svg xmlns="http://www.w3.org/2000/svg" xmlns:xlink="http://www.w3.org/1999/xlink" width="48px" height="48px" viewBox="0 0 48 53" version="1.1">
<g id="surface1">
<path style=" stroke:none;fill-rule:nonzero;fill:rgb(17.647059%,68.627451%,89.803922%);fill-opacity:1;" d="M 47.6875 1.992188 C 40.488281 0.90625 32.457031 0.292969 23.996094 0.292969 C 15.539062 0.292969 7.507812 0.90625 0.308594 1.992188 L 0.308594 21.667969 C 0.308594 38.28125 10 47.632812 23.613281 52.605469 L 23.996094 52.726562 L 24.382812 52.605469 C 37.996094 47.617188 47.6875 38.265625 47.6875 21.652344 Z M 23.996094 25.582031 L 24.027344 25.613281 Z M 23.996094 25.582031 "/>
<path style=" stroke:none;fill-rule:nonzero;fill:rgb(48.627451%,17.254902%,23.137255%);fill-opacity:1;" d="M 46.050781 3.617188 C 39.34375 2.609375 31.882812 2.042969 23.992188 2.042969 C 16.117188 2.042969 8.640625 2.609375 1.933594 3.617188 L 1.933594 22.238281 C 1.933594 37.707031 10.964844 46.414062 23.625 51.03125 L 23.976562 51.15625 L 24.332031 51.03125 C 37.035156 46.414062 46.050781 37.722656 46.050781 22.253906 Z M 46.050781 3.617188 "/>
<path style=" stroke:none;fill-rule:nonzero;fill:rgb(83.921569%,66.27451%,22.745098%);fill-opacity:1;" d="M 34.882812 42.625 C 35.238281 42.976562 35.792969 42.609375 36.359375 42.027344 C 36.929688 41.460938 37.300781 40.894531 36.960938 40.558594 L 15.085938 19.351562 C 14.734375 19 14.117188 19.0625 13.6875 19.476562 C 13.269531 19.890625 13.210938 20.515625 13.5625 20.867188 Z M 34.882812 42.625 "/>
<path style=" stroke:none;fill-rule:nonzero;fill:rgb(97.254902%,84.313725%,25.882353%);fill-opacity:1;" d="M 15.769531 19.03125 L 17.550781 16.9375 C 17.550781 16.9375 17.722656 16.707031 17.460938 16.402344 C 16.769531 15.558594 15.382812 14.351562 15.382812 14.351562 C 15.183594 14.199219 15.042969 14.242188 14.828125 14.441406 C 13.738281 15.484375 10.953125 18.160156 10.785156 18.34375 C 10.570312 18.558594 10.476562 18.710938 10.539062 19.078125 C 10.597656 19.445312 10.800781 20.074219 10.460938 20.671875 L 8.585938 23.621094 C 8.351562 23.988281 8.277344 24.296875 8.460938 24.480469 C 8.554688 24.570312 8.800781 24.679688 9.277344 24.34375 C 9.507812 24.1875 12.074219 22.460938 12.890625 21.800781 C 13.367188 21.40625 13.738281 21.050781 13.738281 21.050781 L 15.277344 19.539062 C 15.277344 19.539062 15.597656 19.214844 15.769531 19.03125 "/>
<path style=" stroke:none;fill-rule:nonzero;fill:rgb(83.921569%,66.27451%,22.745098%);fill-opacity:1;" d="M 9.289062 24.140625 C 8.75 24.507812 8.75 24.554688 8.828125 24.539062 C 8.949219 24.507812 9.089844 24.445312 9.273438 24.324219 C 9.503906 24.171875 12.074219 22.441406 12.886719 21.785156 C 13.226562 21.507812 13.503906 21.25 13.640625 21.125 C 13.226562 21.21875 12.6875 21.417969 12.363281 21.691406 C 11.917969 22.046875 10.058594 23.621094 9.289062 24.140625 "/>
<path style=" stroke:none;fill-rule:nonzero;fill:rgb(83.921569%,66.27451%,22.745098%);fill-opacity:1;" d="M 15.769531 19.03125 L 17.550781 16.9375 C 17.550781 16.9375 17.660156 16.800781 17.566406 16.585938 C 17.566406 16.585938 17.414062 16.417969 16.90625 17.011719 C 16.476562 17.519531 16.273438 17.71875 15.90625 18.160156 C 15.628906 18.496094 15.414062 19.046875 15.335938 19.476562 C 15.445312 19.371094 15.644531 19.171875 15.769531 19.03125 "/>
<path style=" stroke:none;fill-rule:nonzero;fill:rgb(83.921569%,66.27451%,22.745098%);fill-opacity:1;" d="M 13.164062 42.625 C 12.808594 42.976562 12.253906 42.609375 11.6875 42.027344 C 11.117188 41.460938 10.75 40.894531 11.085938 40.558594 L 32.960938 19.351562 C 33.316406 19 33.929688 19.0625 34.359375 19.476562 C 34.777344 19.890625 34.835938 20.515625 34.484375 20.867188 Z M 13.164062 42.625 "/>
<path style=" stroke:none;fill-rule:nonzero;fill:rgb(97.254902%,84.313725%,25.882353%);fill-opacity:1;" d="M 12.949219 42.414062 L 33.363281 21.5625 C 33.71875 21.210938 33.65625 20.597656 33.242188 20.167969 C 33.023438 19.953125 32.75 19.832031 32.488281 19.816406 L 11.105469 40.550781 C 10.75 40.886719 11.074219 41.421875 11.613281 41.957031 C 12.136719 42.445312 12.628906 42.738281 12.949219 42.414062 "/>
<path style=" stroke:none;fill-rule:nonzero;fill:rgb(97.254902%,84.313725%,25.882353%);fill-opacity:1;" d="M 32.289062 19.023438 L 30.503906 16.929688 C 30.503906 16.929688 30.335938 16.699219 30.597656 16.394531 C 31.289062 15.550781 32.671875 14.34375 32.671875 14.34375 C 32.871094 14.191406 33.011719 14.234375 33.226562 14.433594 C 34.320312 15.476562 37.101562 18.152344 37.273438 18.335938 C 37.488281 18.550781 37.578125 18.703125 37.519531 19.070312 C 37.457031 19.4375 37.257812 20.066406 37.59375 20.660156 L 39.472656 23.613281 C 39.703125 23.980469 39.78125 24.289062 39.59375 24.472656 C 39.503906 24.5625 39.257812 24.671875 38.78125 24.332031 C 38.550781 24.164062 35.980469 22.453125 35.164062 21.777344 C 34.6875 21.382812 34.320312 21.027344 34.320312 21.027344 L 32.78125 19.515625 C 32.78125 19.53125 32.457031 19.207031 32.289062 19.023438 "/>
<path style=" stroke:none;fill-rule:nonzero;fill:rgb(83.921569%,66.27451%,22.745098%);fill-opacity:1;" d="M 38.765625 24.132812 C 39.304688 24.5 39.304688 24.546875 39.230469 24.53125 C 39.105469 24.515625 38.96875 24.453125 38.78125 24.316406 C 38.550781 24.164062 35.984375 22.433594 35.167969 21.777344 C 34.828125 21.5 34.550781 21.242188 34.414062 21.117188 C 34.828125 21.210938 35.367188 21.410156 35.691406 21.683594 C 36.136719 22.035156 38 23.613281 38.765625 24.132812 "/>
<path style=" stroke:none;fill-rule:nonzero;fill:rgb(83.921569%,66.27451%,22.745098%);fill-opacity:1;" d="M 32.289062 19.023438 L 30.503906 16.929688 C 30.503906 16.929688 30.394531 16.789062 30.488281 16.578125 C 30.488281 16.578125 30.640625 16.410156 31.148438 17.003906 C 31.582031 17.511719 31.796875 17.707031 32.148438 18.136719 C 32.425781 18.472656 32.640625 19.023438 32.71875 19.453125 C 32.609375 19.359375 32.410156 19.164062 32.289062 19.023438 "/>
<path style=" stroke:none;fill-rule:nonzero;fill:rgb(83.921569%,66.27451%,22.745098%);fill-opacity:1;" d="M 35.734375 19.632812 C 35.5625 19.800781 35.289062 19.800781 35.117188 19.632812 L 34.195312 18.714844 C 34.027344 18.542969 34.027344 18.269531 34.195312 18.101562 C 34.363281 17.933594 34.640625 17.933594 34.8125 18.101562 L 35.734375 19.019531 C 35.902344 19.1875 35.902344 19.460938 35.734375 19.632812 "/>
<path style=" stroke:none;fill-rule:nonzero;fill:rgb(80.392157%,66.27451%,21.960784%);fill-opacity:1;" d="M 34.328125 18.71875 C 34.160156 18.550781 34.160156 18.277344 34.328125 18.109375 C 34.390625 18.046875 34.484375 18 34.574219 17.984375 C 34.4375 17.96875 34.316406 18.015625 34.207031 18.109375 C 34.039062 18.277344 34.039062 18.550781 34.207031 18.71875 L 35.128906 19.636719 C 35.238281 19.746094 35.359375 19.773438 35.5 19.761719 C 35.40625 19.746094 35.316406 19.699219 35.253906 19.636719 Z M 34.328125 18.71875 "/>
<path style=" stroke:none;fill-rule:nonzero;fill:rgb(83.921569%,66.27451%,22.745098%);fill-opacity:1;" d="M 34.734375 19.054688 C 34.71875 19.070312 34.6875 19.070312 34.671875 19.054688 C 34.65625 19.039062 34.65625 19.007812 34.671875 18.992188 L 35.085938 18.578125 C 35.101562 18.5625 35.132812 18.5625 35.148438 18.578125 C 35.164062 18.59375 35.164062 18.625 35.148438 18.640625 Z M 34.734375 19.054688 "/>
<path style=" stroke:none;fill-rule:nonzero;fill:rgb(83.921569%,66.27451%,22.745098%);fill-opacity:1;" d="M 34.871094 19.191406 C 34.855469 19.207031 34.824219 19.207031 34.808594 19.191406 C 34.792969 19.175781 34.792969 19.148438 34.808594 19.132812 C 34.824219 19.117188 34.855469 19.117188 34.871094 19.132812 C 34.886719 19.148438 34.886719 19.175781 34.871094 19.191406 "/>
<path style=" stroke:none;fill-rule:nonzero;fill:rgb(83.921569%,66.27451%,22.745098%);fill-opacity:1;" d="M 34.582031 18.90625 C 34.566406 18.921875 34.539062 18.921875 34.523438 18.90625 C 34.507812 18.890625 34.507812 18.859375 34.523438 18.84375 C 34.539062 18.828125 34.566406 18.828125 34.582031 18.84375 C 34.597656 18.859375 34.597656 18.890625 34.582031 18.90625 "/>
<path style=" stroke:none;fill-rule:nonzero;fill:rgb(83.921569%,66.27451%,22.745098%);fill-opacity:1;" d="M 34.921875 18.339844 L 34.785156 18.203125 C 34.769531 18.1875 34.738281 18.1875 34.722656 18.203125 C 34.707031 18.21875 34.707031 18.25 34.722656 18.265625 L 34.738281 18.277344 C 34.753906 18.292969 34.753906 18.292969 34.738281 18.308594 L 34.367188 18.675781 C 34.351562 18.691406 34.351562 18.722656 34.367188 18.738281 C 34.382812 18.753906 34.414062 18.753906 34.429688 18.738281 L 34.800781 18.371094 L 34.828125 18.371094 L 34.859375 18.402344 C 34.875 18.417969 34.90625 18.417969 34.921875 18.402344 C 34.9375 18.386719 34.9375 18.355469 34.921875 18.339844 "/>
<path style=" stroke:none;fill-rule:nonzero;fill:rgb(83.921569%,66.27451%,22.745098%);fill-opacity:1;" d="M 35.691406 19.113281 C 35.675781 19.097656 35.644531 19.082031 35.628906 19.097656 L 35.382812 19.28125 C 35.367188 19.296875 35.351562 19.28125 35.351562 19.28125 C 35.335938 19.265625 35.335938 19.265625 35.351562 19.25 L 35.398438 19.15625 C 35.414062 19.140625 35.398438 19.125 35.398438 19.113281 C 35.382812 19.097656 35.367188 19.097656 35.351562 19.113281 L 35.230469 19.125 L 35.199219 19.125 L 35.199219 19.097656 L 35.367188 18.851562 C 35.382812 18.835938 35.382812 18.804688 35.367188 18.789062 C 35.351562 18.773438 35.320312 18.773438 35.308594 18.804688 L 34.953125 19.28125 C 34.9375 19.296875 34.9375 19.324219 34.953125 19.339844 C 34.96875 19.355469 34.984375 19.355469 35 19.339844 L 35.183594 19.265625 L 35.214844 19.265625 C 35.230469 19.28125 35.230469 19.28125 35.214844 19.296875 L 35.136719 19.464844 C 35.121094 19.480469 35.136719 19.492188 35.136719 19.507812 C 35.152344 19.523438 35.183594 19.523438 35.199219 19.507812 L 35.675781 19.15625 C 35.707031 19.15625 35.707031 19.125 35.691406 19.113281 "/>
<path style=" stroke:none;fill-rule:nonzero;fill:rgb(97.254902%,84.313725%,25.882353%);fill-opacity:1;" d="M 15.707031 19.953125 C 15.445312 19.953125 15.152344 20.0625 14.921875 20.289062 C 14.535156 20.671875 14.472656 21.253906 14.796875 21.574219 L 23.550781 30.480469 L 25.042969 28.996094 Z M 15.707031 19.953125 "/>
<path style=" stroke:none;fill-rule:nonzero;fill:rgb(97.254902%,84.313725%,25.882353%);fill-opacity:1;" d="M 36.957031 40.5625 L 25.929688 29.882812 C 25.761719 29.957031 25.589844 30.066406 25.453125 30.203125 C 24.882812 30.769531 24.835938 31.671875 25.3125 32.300781 L 35.175781 42.351562 C 35.496094 42.671875 36.019531 42.335938 36.542969 41.800781 C 36.652344 41.707031 36.726562 41.617188 36.804688 41.523438 C 37.097656 41.15625 37.203125 40.804688 36.957031 40.5625 "/>
<path style=" stroke:none;fill-rule:nonzero;fill:rgb(97.254902%,84.313725%,25.882353%);fill-opacity:1;" d="M 34.710938 19.035156 C 34.699219 19.050781 34.667969 19.050781 34.652344 19.035156 C 34.636719 19.019531 34.636719 18.988281 34.652344 18.972656 L 35.066406 18.558594 C 35.082031 18.542969 35.113281 18.542969 35.128906 18.558594 C 35.144531 18.574219 35.144531 18.605469 35.128906 18.621094 Z M 34.710938 19.035156 "/>
<path style=" stroke:none;fill-rule:nonzero;fill:rgb(97.254902%,84.313725%,25.882353%);fill-opacity:1;" d="M 34.851562 19.171875 C 34.835938 19.1875 34.804688 19.1875 34.789062 19.171875 C 34.773438 19.15625 34.773438 19.125 34.789062 19.113281 C 34.804688 19.097656 34.835938 19.097656 34.851562 19.113281 C 34.867188 19.125 34.867188 19.15625 34.851562 19.171875 "/>
<path style=" stroke:none;fill-rule:nonzero;fill:rgb(97.254902%,84.313725%,25.882353%);fill-opacity:1;" d="M 34.5625 18.886719 C 34.546875 18.902344 34.515625 18.902344 34.5 18.886719 C 34.484375 18.871094 34.484375 18.839844 34.5 18.824219 C 34.515625 18.808594 34.546875 18.808594 34.5625 18.824219 C 34.578125 18.839844 34.578125 18.871094 34.5625 18.886719 "/>
<path style=" stroke:none;fill-rule:nonzero;fill:rgb(97.254902%,84.313725%,25.882353%);fill-opacity:1;" d="M 34.902344 18.320312 L 34.761719 18.183594 C 34.746094 18.167969 34.71875 18.167969 34.703125 18.183594 C 34.6875 18.199219 34.6875 18.226562 34.703125 18.242188 L 34.71875 18.257812 C 34.734375 18.273438 34.734375 18.273438 34.71875 18.289062 L 34.347656 18.65625 C 34.332031 18.671875 34.332031 18.703125 34.347656 18.71875 C 34.363281 18.734375 34.394531 18.734375 34.410156 18.71875 L 34.777344 18.351562 L 34.808594 18.351562 L 34.839844 18.382812 C 34.855469 18.398438 34.886719 18.398438 34.902344 18.382812 C 34.917969 18.367188 34.917969 18.335938 34.902344 18.320312 "/>
<path style=" stroke:none;fill-rule:nonzero;fill:rgb(97.254902%,84.313725%,25.882353%);fill-opacity:1;" d="M 35.671875 19.089844 C 35.65625 19.074219 35.625 19.0625 35.609375 19.074219 L 35.363281 19.257812 C 35.347656 19.273438 35.332031 19.257812 35.332031 19.257812 C 35.316406 19.257812 35.316406 19.246094 35.332031 19.230469 L 35.378906 19.136719 C 35.394531 19.121094 35.378906 19.105469 35.378906 19.089844 C 35.363281 19.074219 35.347656 19.074219 35.332031 19.089844 L 35.210938 19.105469 L 35.179688 19.105469 L 35.179688 19.074219 L 35.347656 18.832031 C 35.363281 18.816406 35.363281 18.785156 35.347656 18.769531 C 35.332031 18.753906 35.300781 18.753906 35.285156 18.785156 L 34.933594 19.257812 C 34.917969 19.273438 34.917969 19.304688 34.933594 19.320312 C 34.949219 19.335938 34.964844 19.335938 34.980469 19.320312 L 35.164062 19.246094 L 35.195312 19.246094 C 35.210938 19.257812 35.210938 19.257812 35.195312 19.273438 L 35.117188 19.441406 C 35.101562 19.457031 35.117188 19.472656 35.117188 19.488281 C 35.132812 19.503906 35.164062 19.503906 35.179688 19.488281 L 35.65625 19.136719 C 35.6875 19.136719 35.6875 19.105469 35.671875 19.089844 "/>
<path style=" stroke:none;fill-rule:nonzero;fill:rgb(83.921569%,66.27451%,22.745098%);fill-opacity:1;" d="M 13.847656 18.121094 C 14.019531 18.289062 14.019531 18.566406 13.847656 18.734375 L 12.925781 19.652344 C 12.757812 19.820312 12.480469 19.820312 12.3125 19.652344 C 12.140625 19.484375 12.140625 19.207031 12.3125 19.039062 L 13.234375 18.121094 C 13.402344 17.953125 13.679688 17.953125 13.847656 18.121094 "/>
<path style=" stroke:none;fill-rule:nonzero;fill:rgb(80.392157%,66.27451%,21.960784%);fill-opacity:1;" d="M 12.398438 19.109375 L 13.320312 18.191406 C 13.476562 18.039062 13.722656 18.039062 13.890625 18.160156 L 13.84375 18.113281 C 13.675781 17.945312 13.398438 17.945312 13.230469 18.113281 L 12.308594 19.03125 C 12.136719 19.199219 12.136719 19.476562 12.308594 19.644531 C 12.320312 19.660156 12.335938 19.675781 12.351562 19.675781 C 12.230469 19.507812 12.246094 19.261719 12.398438 19.109375 "/>
<path style=" stroke:none;fill-rule:nonzero;fill:rgb(83.921569%,66.27451%,22.745098%);fill-opacity:1;" d="M 13.25 19.183594 C 13.265625 19.195312 13.265625 19.226562 13.25 19.242188 C 13.234375 19.257812 13.203125 19.257812 13.1875 19.242188 L 12.773438 18.828125 C 12.757812 18.816406 12.757812 18.785156 12.773438 18.769531 C 12.785156 18.753906 12.816406 18.753906 12.832031 18.769531 Z M 13.25 19.183594 "/>
<path style=" stroke:none;fill-rule:nonzero;fill:rgb(83.921569%,66.27451%,22.745098%);fill-opacity:1;" d="M 13.386719 19.042969 C 13.402344 19.058594 13.402344 19.089844 13.386719 19.105469 C 13.371094 19.121094 13.34375 19.121094 13.328125 19.105469 C 13.3125 19.089844 13.3125 19.058594 13.328125 19.042969 C 13.34375 19.027344 13.371094 19.027344 13.386719 19.042969 "/>
<path style=" stroke:none;fill-rule:nonzero;fill:rgb(83.921569%,66.27451%,22.745098%);fill-opacity:1;" d="M 13.101562 19.332031 C 13.113281 19.347656 13.113281 19.375 13.101562 19.390625 C 13.085938 19.40625 13.054688 19.40625 13.039062 19.390625 C 13.023438 19.375 13.023438 19.347656 13.039062 19.332031 C 13.054688 19.316406 13.085938 19.316406 13.101562 19.332031 "/>
<path style=" stroke:none;fill-rule:nonzero;fill:rgb(83.921569%,66.27451%,22.745098%);fill-opacity:1;" d="M 12.53125 18.992188 L 12.390625 19.132812 C 12.378906 19.148438 12.378906 19.175781 12.390625 19.191406 C 12.40625 19.207031 12.4375 19.207031 12.453125 19.191406 L 12.484375 19.175781 C 12.5 19.164062 12.5 19.164062 12.515625 19.175781 L 12.882812 19.542969 C 12.898438 19.558594 12.929688 19.558594 12.945312 19.542969 C 12.960938 19.53125 12.960938 19.5 12.945312 19.484375 L 12.578125 19.117188 L 12.578125 19.085938 L 12.609375 19.070312 C 12.625 19.054688 12.625 19.023438 12.609375 19.007812 C 12.578125 18.980469 12.546875 18.980469 12.53125 18.992188 "/>
<path style=" stroke:none;fill-rule:nonzero;fill:rgb(83.921569%,66.27451%,22.745098%);fill-opacity:1;" d="M 13.304688 18.230469 C 13.289062 18.246094 13.277344 18.273438 13.289062 18.289062 L 13.476562 18.535156 L 13.476562 18.566406 C 13.460938 18.582031 13.445312 18.582031 13.445312 18.582031 L 13.335938 18.519531 C 13.320312 18.519531 13.304688 18.519531 13.289062 18.535156 C 13.277344 18.550781 13.277344 18.566406 13.289062 18.582031 L 13.320312 18.6875 L 13.320312 18.71875 L 13.289062 18.71875 L 13.042969 18.550781 C 13.03125 18.535156 13 18.535156 12.984375 18.550781 C 12.96875 18.566406 12.96875 18.597656 13 18.613281 L 13.476562 18.964844 C 13.492188 18.980469 13.523438 18.980469 13.535156 18.964844 C 13.550781 18.949219 13.550781 18.933594 13.535156 18.917969 L 13.460938 18.734375 L 13.460938 18.703125 C 13.476562 18.6875 13.476562 18.6875 13.492188 18.703125 L 13.660156 18.78125 C 13.675781 18.796875 13.691406 18.78125 13.707031 18.78125 C 13.722656 18.765625 13.722656 18.734375 13.707031 18.71875 L 13.367188 18.246094 C 13.351562 18.214844 13.320312 18.214844 13.304688 18.230469 "/>
<path style=" stroke:none;fill-rule:nonzero;fill:rgb(97.254902%,84.313725%,25.882353%);fill-opacity:1;" d="M 13.25 19.136719 C 13.265625 19.152344 13.265625 19.183594 13.25 19.195312 C 13.234375 19.210938 13.203125 19.210938 13.1875 19.195312 L 12.773438 18.785156 C 12.757812 18.769531 12.757812 18.738281 12.773438 18.722656 C 12.785156 18.707031 12.816406 18.707031 12.832031 18.722656 Z M 13.25 19.136719 "/>
<path style=" stroke:none;fill-rule:nonzero;fill:rgb(97.254902%,84.313725%,25.882353%);fill-opacity:1;" d="M 13.386719 19 C 13.402344 19.011719 13.402344 19.042969 13.386719 19.058594 C 13.371094 19.074219 13.34375 19.074219 13.328125 19.058594 C 13.3125 19.042969 13.3125 19.011719 13.328125 19 C 13.34375 18.984375 13.371094 18.984375 13.386719 19 "/>
<path style=" stroke:none;fill-rule:nonzero;fill:rgb(97.254902%,84.313725%,25.882353%);fill-opacity:1;" d="M 13.101562 19.285156 C 13.113281 19.300781 13.113281 19.332031 13.101562 19.347656 C 13.085938 19.359375 13.054688 19.359375 13.039062 19.347656 C 13.023438 19.332031 13.023438 19.300781 13.039062 19.285156 C 13.054688 19.269531 13.085938 19.269531 13.101562 19.285156 "/>
<path style=" stroke:none;fill-rule:nonzero;fill:rgb(97.254902%,84.313725%,25.882353%);fill-opacity:1;" d="M 12.53125 18.949219 L 12.390625 19.085938 C 12.378906 19.101562 12.378906 19.132812 12.390625 19.148438 C 12.40625 19.164062 12.4375 19.164062 12.453125 19.148438 L 12.484375 19.132812 C 12.5 19.117188 12.5 19.117188 12.515625 19.132812 L 12.882812 19.5 C 12.898438 19.515625 12.929688 19.515625 12.945312 19.5 C 12.960938 19.484375 12.960938 19.453125 12.945312 19.4375 L 12.578125 19.070312 L 12.578125 19.039062 L 12.609375 19.023438 C 12.625 19.007812 12.625 18.980469 12.609375 18.964844 C 12.578125 18.933594 12.546875 18.933594 12.53125 18.949219 "/>
<path style=" stroke:none;fill-rule:nonzero;fill:rgb(97.254902%,84.313725%,25.882353%);fill-opacity:1;" d="M 13.304688 18.183594 C 13.289062 18.199219 13.277344 18.230469 13.289062 18.246094 L 13.476562 18.488281 L 13.476562 18.519531 C 13.460938 18.535156 13.445312 18.535156 13.445312 18.535156 L 13.335938 18.472656 C 13.320312 18.472656 13.304688 18.472656 13.289062 18.488281 C 13.277344 18.503906 13.277344 18.519531 13.289062 18.535156 L 13.320312 18.640625 L 13.320312 18.671875 L 13.289062 18.671875 L 13.042969 18.488281 C 13.03125 18.488281 13 18.488281 12.984375 18.503906 C 12.96875 18.519531 12.96875 18.550781 13 18.566406 L 13.476562 18.917969 C 13.492188 18.933594 13.523438 18.933594 13.535156 18.917969 C 13.550781 18.902344 13.550781 18.886719 13.535156 18.871094 L 13.460938 18.6875 L 13.460938 18.65625 C 13.476562 18.640625 13.476562 18.640625 13.492188 18.65625 L 13.660156 18.734375 C 13.675781 18.75 13.691406 18.734375 13.707031 18.734375 C 13.722656 18.71875 13.722656 18.6875 13.707031 18.671875 L 13.367188 18.199219 C 13.351562 18.167969 13.320312 18.167969 13.304688 18.183594 "/>
<path style=" stroke:none;fill-rule:nonzero;fill:rgb(100%,100%,100%);fill-opacity:1;" d="M 15.398438 12.902344 C 14.570312 12.980469 13.785156 12.429688 13.769531 11.570312 C 13.738281 10.777344 13.722656 9.980469 13.691406 9.183594 C 14.0625 9.15625 14.261719 9.140625 14.632812 9.109375 C 14.648438 9.902344 14.675781 10.699219 14.691406 11.496094 C 14.707031 11.894531 14.96875 12.078125 15.371094 12.0625 C 15.429688 12.0625 15.445312 12.0625 15.507812 12.046875 C 15.90625 12.03125 16.167969 11.800781 16.152344 11.402344 C 16.136719 10.609375 16.125 9.8125 16.09375 9.015625 C 16.460938 9 16.660156 8.984375 17.03125 8.972656 L 17.078125 11.359375 C 17.109375 12.214844 16.382812 12.855469 15.539062 12.886719 C 15.476562 12.902344 15.460938 12.902344 15.398438 12.902344 "/>
<path style=" stroke:none;fill-rule:nonzero;fill:rgb(100%,100%,100%);fill-opacity:1;" d="M 17.753906 8.933594 C 18.1875 8.917969 18.417969 8.902344 18.847656 8.886719 C 19.339844 9.667969 19.832031 10.464844 20.308594 11.246094 L 20.324219 11.246094 C 20.308594 10.449219 20.308594 9.636719 20.292969 8.84375 C 20.664062 8.828125 20.863281 8.828125 21.230469 8.828125 C 21.246094 10.082031 21.246094 11.351562 21.261719 12.605469 C 20.832031 12.621094 20.617188 12.621094 20.1875 12.636719 C 19.710938 11.855469 19.21875 11.0625 18.726562 10.28125 L 18.710938 10.28125 C 18.726562 11.074219 18.738281 11.886719 18.738281 12.683594 C 18.371094 12.699219 18.1875 12.714844 17.816406 12.726562 C 17.800781 11.457031 17.785156 10.1875 17.753906 8.933594 "/>
<path style=" stroke:none;fill-rule:nonzero;fill:rgb(100%,100%,100%);fill-opacity:1;" d="M 21.925781 8.804688 C 22.296875 8.804688 22.496094 8.789062 22.867188 8.789062 C 22.867188 10.042969 22.882812 11.316406 22.882812 12.570312 C 22.511719 12.570312 22.328125 12.570312 21.957031 12.585938 C 21.941406 11.328125 21.941406 10.058594 21.925781 8.804688 "/>
<path style=" stroke:none;fill-rule:nonzero;fill:rgb(100%,100%,100%);fill-opacity:1;" d="M 24.761719 9.582031 L 23.546875 9.582031 L 23.546875 8.789062 C 24.667969 8.789062 25.792969 8.804688 26.914062 8.820312 L 26.914062 9.613281 C 26.4375 9.597656 26.191406 9.597656 25.699219 9.597656 C 25.699219 10.59375 25.683594 11.589844 25.683594 12.582031 C 25.316406 12.582031 25.132812 12.582031 24.761719 12.566406 L 24.761719 9.582031 "/>
<path style=" stroke:none;fill-rule:nonzero;fill:rgb(100%,100%,100%);fill-opacity:1;" d="M 27.601562 8.835938 C 28.445312 8.867188 29.292969 8.894531 30.152344 8.925781 C 30.152344 9.25 30.140625 9.402344 30.140625 9.722656 C 29.492188 9.691406 29.167969 9.675781 28.523438 9.660156 L 28.523438 10.351562 C 29.046875 10.363281 29.308594 10.378906 29.832031 10.394531 C 29.832031 10.71875 29.816406 10.871094 29.816406 11.191406 C 29.292969 11.160156 29.03125 11.144531 28.507812 11.128906 C 28.507812 11.421875 28.507812 11.558594 28.492188 11.847656 C 29.15625 11.863281 29.492188 11.878906 30.152344 11.910156 C 30.152344 12.230469 30.140625 12.382812 30.140625 12.707031 C 29.292969 12.675781 28.429688 12.644531 27.554688 12.613281 L 27.601562 8.835938 "/>
<path style=" stroke:none;fill-rule:nonzero;fill:rgb(100%,100%,100%);fill-opacity:1;" d="M 30.863281 8.957031 C 31.464844 8.984375 31.769531 9 32.371094 9.046875 C 33.460938 9.09375 34.324219 9.980469 34.292969 11.066406 C 34.261719 12.136719 33.339844 12.933594 32.277344 12.828125 C 31.679688 12.796875 31.386719 12.765625 30.785156 12.734375 C 30.816406 11.480469 30.832031 10.210938 30.863281 8.957031 M 32.246094 12.015625 C 32.894531 12.0625 33.292969 11.710938 33.308594 10.976562 C 33.324219 10.253906 32.925781 9.859375 32.292969 9.8125 C 32.09375 9.8125 32 9.8125 31.785156 9.796875 C 31.769531 10.53125 31.753906 11.265625 31.738281 11.984375 C 31.941406 12 32.046875 12.015625 32.246094 12.015625 "/>
<path style=" stroke:none;fill-rule:nonzero;fill:rgb(100%,100%,100%);fill-opacity:1;" d="M 5.816406 4.535156 L 7.046875 4.382812 C 7.261719 5.453125 7.492188 6.527344 7.710938 7.597656 L 7.722656 7.597656 C 7.96875 6.480469 8.214844 5.347656 8.460938 4.230469 C 8.878906 4.183594 9.09375 4.167969 9.523438 4.125 C 9.769531 5.195312 10.015625 6.265625 10.261719 7.351562 L 10.277344 7.351562 C 10.507812 6.21875 10.738281 5.101562 10.984375 3.984375 C 11.460938 3.941406 11.707031 3.925781 12.183594 3.878906 C 11.785156 5.5 11.386719 7.105469 10.984375 8.730469 C 10.417969 8.773438 10.140625 8.804688 9.570312 8.867188 C 9.371094 7.964844 9.1875 7.046875 8.984375 6.144531 L 8.96875 6.144531 C 8.769531 7.09375 8.585938 8.039062 8.386719 8.988281 C 7.816406 9.050781 7.523438 9.082031 6.957031 9.140625 C 6.585938 7.613281 6.203125 6.066406 5.816406 4.535156 "/>
<path style=" stroke:none;fill-rule:nonzero;fill:rgb(100%,100%,100%);fill-opacity:1;" d="M 36.550781 3.949219 C 37.074219 3.996094 37.335938 4.011719 37.859375 4.074219 C 38.214844 5.097656 38.550781 6.105469 38.90625 7.132812 L 38.921875 7.132812 C 39.257812 6.183594 39.613281 5.234375 39.96875 4.285156 C 40.492188 4.347656 40.75 4.378906 41.257812 4.441406 C 41.550781 6.0625 41.828125 7.667969 42.121094 9.289062 C 41.644531 9.230469 41.398438 9.199219 40.921875 9.136719 C 40.78125 8.082031 40.644531 7.023438 40.492188 5.96875 L 40.476562 5.96875 C 40.136719 6.980469 39.796875 7.972656 39.445312 8.984375 C 39.027344 8.9375 38.8125 8.921875 38.382812 8.875 C 38.027344 7.804688 37.691406 6.734375 37.335938 5.664062 L 37.320312 5.664062 C 37.199219 6.6875 37.074219 7.714844 36.953125 8.753906 C 36.460938 8.707031 36.214844 8.691406 35.722656 8.648438 C 36.015625 7.070312 36.277344 5.511719 36.550781 3.949219 "/>
<path style=" stroke:none;fill-rule:nonzero;fill:rgb(100%,100%,100%);fill-opacity:1;" d="M 12.65625 3.855469 C 13.734375 3.777344 14.8125 3.703125 15.886719 3.640625 C 15.855469 4.039062 15.855469 4.238281 15.824219 4.636719 C 15.164062 4.667969 14.488281 4.710938 13.824219 4.757812 L 13.824219 5.617188 C 14.472656 5.570312 14.8125 5.554688 15.457031 5.507812 L 15.457031 6.503906 C 14.8125 6.535156 14.472656 6.5625 13.824219 6.609375 L 13.824219 7.511719 C 14.519531 7.464844 15.226562 7.421875 15.917969 7.390625 L 15.917969 8.382812 C 14.824219 8.445312 13.75 8.523438 12.65625 8.597656 L 12.65625 3.855469 "/>
<path style=" stroke:none;fill-rule:nonzero;fill:rgb(100%,100%,100%);fill-opacity:1;" d="M 21.375 4.453125 C 20.773438 4.46875 20.464844 4.46875 19.867188 4.484375 L 19.867188 3.488281 C 21.265625 3.457031 22.652344 3.441406 24.050781 3.441406 L 24.050781 4.4375 L 22.542969 4.4375 L 22.542969 8.1875 C 22.082031 8.1875 21.835938 8.1875 21.375 8.203125 L 21.375 4.453125 "/>
<path style=" stroke:none;fill-rule:nonzero;fill:rgb(100%,100%,100%);fill-opacity:1;" d="M 25.996094 3.445312 C 26.457031 3.445312 26.703125 3.460938 27.164062 3.460938 L 27.164062 5.359375 C 27.84375 5.375 28.519531 5.390625 29.195312 5.421875 L 29.195312 3.523438 C 29.65625 3.539062 29.902344 3.554688 30.367188 3.570312 L 30.367188 8.3125 C 29.902344 8.296875 29.65625 8.28125 29.195312 8.265625 L 29.195312 6.414062 C 28.519531 6.386719 27.84375 6.371094 27.164062 6.355469 L 27.164062 8.207031 C 26.703125 8.207031 26.457031 8.207031 25.996094 8.191406 L 25.996094 3.445312 "/>
<path style=" stroke:none;fill-rule:nonzero;fill:rgb(100%,100%,100%);fill-opacity:1;" d="M 33.867188 7.507812 C 33.21875 7.460938 32.894531 7.449219 32.265625 7.417969 C 32.15625 7.816406 32.097656 8 31.972656 8.394531 C 31.496094 8.367188 31.25 8.367188 30.773438 8.335938 C 31.25 6.773438 31.742188 5.214844 32.21875 3.652344 C 32.851562 3.683594 33.15625 3.714844 33.789062 3.746094 L 35.359375 8.609375 C 34.878906 8.578125 34.632812 8.5625 34.15625 8.519531 C 34.035156 8.121094 33.988281 7.921875 33.867188 7.507812 M 33.066406 4.785156 C 32.894531 5.351562 32.710938 5.917969 32.542969 6.5 C 32.972656 6.53125 33.171875 6.53125 33.605469 6.558594 C 33.417969 5.964844 33.25 5.382812 33.066406 4.785156 "/>
<path style=" stroke:none;fill-rule:nonzero;fill:rgb(100%,100%,100%);fill-opacity:1;" d="M 18.09375 3.464844 C 17.214844 3.496094 16.230469 4.03125 16.230469 5.007812 C 16.214844 6.492188 18.460938 6.09375 18.597656 6.90625 C 18.628906 7.136719 18.382812 7.320312 18.0625 7.320312 C 17.460938 7.320312 16.984375 7.199219 16.492188 6.953125 C 16.460938 7.367188 16.445312 7.578125 16.429688 7.945312 C 16.9375 8.285156 17.460938 8.359375 18.03125 8.375 C 18.875 8.390625 19.875 7.824219 19.890625 6.84375 C 19.90625 5.375 17.675781 5.699219 17.523438 4.933594 C 17.476562 4.734375 17.722656 4.535156 18.078125 4.519531 C 18.628906 4.488281 19.03125 4.625 19.324219 4.75 C 19.351562 4.273438 19.351562 4.214844 19.382812 3.753906 C 19.121094 3.601562 18.707031 3.449219 18.09375 3.464844 "/>
<path style=" stroke:none;fill-rule:nonzero;fill:rgb(100%,100%,100%);fill-opacity:1;" d="M 17.089844 42.675781 L 17.660156 42.921875 L 16.859375 44.742188 L 17.8125 45.15625 L 17.597656 45.644531 L 16.074219 44.988281 Z M 17.089844 42.675781 "/>
<path style=" stroke:none;fill-rule:nonzero;fill:rgb(100%,100%,100%);fill-opacity:1;" d="M 19.898438 43.671875 C 20.636719 43.871094 21.019531 44.558594 20.835938 45.261719 C 20.636719 45.984375 19.945312 46.378906 19.207031 46.179688 C 18.46875 45.984375 18.082031 45.277344 18.28125 44.558594 C 18.46875 43.871094 19.160156 43.472656 19.898438 43.671875 M 19.359375 45.644531 C 19.726562 45.753906 20.097656 45.507812 20.222656 45.09375 C 20.328125 44.699219 20.113281 44.316406 19.757812 44.222656 C 19.390625 44.117188 19.019531 44.34375 18.914062 44.742188 C 18.773438 45.140625 18.988281 45.539062 19.359375 45.644531 "/>
<path style=" stroke:none;fill-rule:nonzero;fill:rgb(100%,100%,100%);fill-opacity:1;" d="M 21.425781 44.089844 L 22.058594 44.148438 L 22.640625 45.390625 C 22.71875 45.558594 22.8125 45.832031 22.8125 45.832031 C 22.8125 45.832031 22.8125 45.558594 22.828125 45.402344 L 22.933594 44.242188 L 23.550781 44.300781 L 23.289062 46.8125 L 22.671875 46.75 L 22.105469 45.511719 C 22.011719 45.328125 21.933594 45.066406 21.933594 45.066406 C 21.933594 45.066406 21.933594 45.34375 21.917969 45.496094 L 21.796875 46.660156 L 21.179688 46.597656 Z M 21.425781 44.089844 "/>
<path style=" stroke:none;fill-rule:nonzero;fill:rgb(100%,100%,100%);fill-opacity:1;" d="M 23.996094 44.3125 L 24.886719 44.265625 C 25.6875 44.21875 26.226562 44.664062 26.253906 45.441406 C 26.300781 46.238281 25.808594 46.726562 25.023438 46.773438 L 24.132812 46.820312 Z M 24.980469 46.253906 C 25.410156 46.238281 25.65625 45.964844 25.625 45.472656 C 25.59375 45 25.316406 44.769531 24.902344 44.785156 L 24.640625 44.800781 L 24.71875 46.253906 C 24.71875 46.269531 24.980469 46.253906 24.980469 46.253906 Z M 24.980469 46.253906 "/>
<path style=" stroke:none;fill-rule:nonzero;fill:rgb(100%,100%,100%);fill-opacity:1;" d="M 27.59375 43.867188 C 28.34375 43.699219 29.007812 44.140625 29.160156 44.84375 C 29.316406 45.566406 28.898438 46.253906 28.144531 46.421875 C 27.390625 46.589844 26.730469 46.144531 26.5625 45.410156 C 26.421875 44.707031 26.839844 44.035156 27.59375 43.867188 M 28.039062 45.855469 C 28.40625 45.777344 28.636719 45.394531 28.546875 44.96875 C 28.453125 44.570312 28.085938 44.324219 27.714844 44.402344 C 27.347656 44.476562 27.113281 44.84375 27.207031 45.257812 C 27.300781 45.6875 27.667969 45.945312 28.039062 45.855469 "/>
<path style=" stroke:none;fill-rule:nonzero;fill:rgb(100%,100%,100%);fill-opacity:1;" d="M 29.136719 43.527344 L 29.722656 43.296875 L 30.816406 44.125 C 30.96875 44.246094 31.167969 44.445312 31.167969 44.445312 C 31.167969 44.445312 31.046875 44.199219 30.984375 44.0625 L 30.554688 42.960938 L 31.121094 42.730469 L 32.078125 45.074219 L 31.492188 45.300781 L 30.398438 44.476562 C 30.246094 44.355469 30.046875 44.15625 30.046875 44.15625 C 30.046875 44.15625 30.167969 44.398438 30.230469 44.539062 L 30.675781 45.625 L 30.105469 45.851562 Z M 29.136719 43.527344 "/>
</g>
</svg>
