<svg width="2500" height="2500" viewBox="0 0 2500 2500" fill="none" xmlns="http://www.w3.org/2000/svg">
<path d="M2433.09 1250.05C2433.09 1903.31 1903.31 2433.09 1250.05 2433.09C596.786 2433.09 67 1903.31 67 1250.05C67 596.786 596.786 67 1250.05 67C1903.31 67 2433.09 596.786 2433.09 1250.05Z" fill="white" stroke="#0053A0" stroke-width="128.505"/>
<path d="M156.414 1264.04C148.507 660.043 632.066 163.711 1236.06 156.412C1840.05 148.505 2336.38 632.672 2343.68 1236.66C2351.59 1840.66 1867.42 2336.99 1263.43 2344.29C660.045 2351.59 163.713 1868.03 156.414 1264.04ZM1236.06 142.423C624.767 150.33 135.125 652.136 142.424 1264.04C150.332 1875.33 652.138 2364.97 1264.04 2357.67C1875.33 2349.76 2364.97 1847.96 2357.67 1236.06C2349.76 624.157 1847.35 134.515 1236.06 142.423Z" fill="#0053A0"/>
<path d="M1209.9 523.193C1075.48 522.584 919.768 576.11 814.54 663.09C813.932 663.09 813.932 664.307 815.149 664.915C875.366 688.637 916.118 720.266 980.593 756.152C983.026 757.369 983.634 756.761 984.242 754.936C1015.26 597.399 1207.47 641.193 1225.72 526.234C1225.11 525.626 1225.11 523.801 1223.28 523.801C1218.42 523.193 1214.16 523.193 1209.9 523.193ZM1289.58 523.193C1288.37 523.193 1287.76 523.801 1287.76 525.626C1279.85 545.698 1303.57 566.987 1316.96 580.368C1318.17 581.585 1320.6 582.801 1322.43 584.018C1408.19 618.688 1503.08 644.843 1523.76 743.379C1524.37 745.204 1524.37 745.812 1526.19 744.596C1571.81 714.183 1617.43 683.771 1663.66 654.575C1666.09 653.358 1664.87 652.75 1663.66 651.533C1559.65 576.719 1428.87 528.667 1289.58 523.193ZM754.324 712.358C670.385 786.565 598.612 883.885 561.509 992.762C560.9 993.978 561.509 994.586 563.333 994.586C645.447 1001.89 672.21 895.442 734.86 855.297C735.468 854.689 736.685 854.081 736.685 853.472C731.819 804.812 729.994 764.06 754.324 712.358ZM1764.63 736.08C1769.49 773.792 1765.84 809.678 1755.5 844.349C1754.9 846.173 1754.89 847.39 1756.72 848.606C1816.94 880.844 1849.78 975.731 1919.73 979.38C1920.34 979.988 1922.16 979.988 1921.56 978.772C1898.44 894.225 1828.49 794.472 1764.63 736.08ZM1944.67 1034.12C1858.91 1119.89 1998.2 1264.65 1809.03 1344.94C1792.61 1349.8 1776.18 1355.89 1760.98 1355.89C1719.01 1355.89 1659.4 1324.26 1659.4 1388.12C1659.4 1389.34 1660.62 1389.95 1661.83 1390.56C1720.22 1415.5 1799.3 1469.63 1800.51 1552.96C1803.56 1652.71 1698.33 1719.62 1715.36 1813.9C1939.8 1619.87 2031.65 1333.99 1944.67 1034.12ZM545.086 1048.11C544.478 1048.11 543.869 1049.33 543.261 1050.55C458.714 1282.29 542.045 1642.37 801.767 1832.75C801.767 1827.89 804.809 1817.55 807.85 1810.86C809.066 1808.42 809.066 1804.78 807.85 1801.73C798.118 1759.76 773.18 1717.8 749.458 1676.43C667.344 1540.19 712.963 1447.12 845.561 1386.3C847.386 1385.69 847.386 1385.08 846.778 1383.26C844.953 1379 842.52 1374.13 840.695 1369.88C840.087 1368.66 840.695 1366.23 837.654 1366.84C807.85 1370.48 774.396 1372.92 743.984 1371.7C698.365 1361.36 655.179 1343.72 622.334 1295.06C563.942 1213.56 644.231 1103.46 547.519 1049.33C546.302 1048.11 545.694 1048.11 545.086 1048.11ZM1771.32 1383.26C1773.75 1383.26 1775.58 1383.87 1778.01 1384.47C1807.2 1389.95 1851.61 1406.98 1878.37 1439.83C1880.19 1441.65 1879.59 1443.47 1876.55 1443.47C1833.97 1442.26 1786.52 1437.39 1753.68 1411.24C1748.81 1407.59 1744.55 1403.94 1748.2 1394.81C1750.64 1389.34 1758.54 1385.08 1764.63 1383.87C1767.06 1383.26 1768.88 1383.26 1771.32 1383.26ZM722.695 1400.29H729.994C731.819 1400.29 734.252 1400.29 735.468 1402.11C743.375 1411.85 742.159 1425.23 726.953 1436.18C694.715 1456.86 657.612 1458.07 622.942 1459.29C621.725 1459.29 619.292 1458.07 621.725 1455.64C652.746 1427.05 686.808 1400.9 722.695 1400.29ZM1304.18 1790.79C1303.57 1790.79 1302.97 1790.79 1302.97 1791.39C1276.81 1804.17 1235.45 1810.25 1211.73 1796.87C1208.69 1795.65 1207.47 1796.26 1206.25 1798.08C1164.28 1868.64 1065.14 1867.43 994.582 1849.18C942.273 1837.62 890.572 1822.41 848.603 1864.38C1069.4 2023.75 1409.41 2028.61 1664.87 1853.44C1616.82 1830.93 1573.03 1846.74 1520.11 1859.52C1459.89 1873.51 1375.96 1886.28 1307.83 1792.61C1306.61 1792 1305.4 1790.79 1304.18 1790.79ZM1259.78 1806.6H1261.6C1269.51 1807.21 1273.77 1811.47 1278.03 1816.94C1280.46 1819.98 1281.07 1823.63 1280.46 1827.28C1279.24 1860.13 1273.77 1892.97 1262.82 1921.56C1262.82 1922.78 1261.6 1923.38 1261 1921.56C1248.22 1881.41 1226.33 1840.66 1253.7 1808.42C1256.74 1807.21 1257.95 1806.6 1259.78 1806.6Z" fill="#0053A0"/>
<path d="M1330.94 217.844C1337.64 226.359 1344.33 236.091 1341.89 246.432C1333.38 293.875 1324.25 341.319 1314.52 388.762C1312.7 399.102 1305.4 403.968 1297.49 411.267C1349.8 420.999 1446.51 439.247 1498.82 448.979C1497.6 428.298 1513.42 416.133 1519.5 397.886C1501.86 410.051 1479.97 414.309 1459.29 410.051C1438 405.793 1385.08 395.453 1363.18 391.195C1366.83 374.772 1368.66 357.741 1372.91 341.318C1393.59 344.968 1427.05 352.875 1447.73 355.308C1465.37 359.566 1478.75 335.236 1488.48 323.071C1481.79 324.896 1469.02 325.504 1462.33 323.679C1440.43 319.422 1401.5 310.906 1379.6 306.648C1381.43 290.834 1385.08 275.019 1388.12 259.813C1425.22 269.545 1503.69 273.194 1531.06 304.823C1532.28 287.792 1521.93 265.895 1532.28 254.339C1480.57 244.607 1382.04 227.576 1330.94 217.844ZM1306.01 219.06C1256.13 219.06 1161.24 224.535 1111.37 225.143C1121.71 242.782 1105.89 257.988 1105.89 275.627C1122.92 260.421 1164.89 255.555 1186.79 256.163C1186.79 304.215 1191.66 352.267 1192.26 400.319C1192.26 409.443 1185.57 414.917 1179.49 418.566C1201.39 418.566 1235.45 415.525 1255.52 415.525C1245.79 406.401 1240.32 405.793 1240.32 393.02C1236.67 348.617 1234.84 297.525 1233.62 253.731C1256.13 251.906 1296.88 256.164 1315.13 267.112C1315.74 247.04 1296.88 227.576 1306.01 219.06ZM1088.25 231.833C1056.62 238.524 985.459 243.999 958.087 264.679C925.242 287.184 917.943 337.669 960.52 360.174C987.283 371.123 1037.77 358.958 1064.53 361.391C1082.78 361.999 1090.08 387.545 1078.52 399.71C1052.97 422.824 982.417 422.824 952.005 413.092C959.304 430.731 967.819 445.937 975.726 462.968C986.067 456.278 1004.31 455.061 1016.48 452.628C1041.42 448.979 1101.03 433.164 1117.45 412.484C1137.52 388.762 1138.13 354.7 1118.67 333.411C1101.03 313.947 1046.89 317.597 1023.78 319.422C1010.4 319.422 1000.06 324.287 987.283 318.205C976.943 310.906 977.551 292.658 989.108 286.576C1012.22 274.411 1063.92 272.586 1087.64 282.318C1087.04 264.679 1088.86 248.256 1088.25 231.833ZM1599.79 274.411C1604.05 284.751 1606.48 295.091 1601.62 304.823C1582.76 345.576 1561.47 385.721 1541.4 426.473C1535.92 438.638 1528.63 445.937 1515.24 450.803C1532.88 459.927 1563.3 475.133 1580.94 484.257C1573.64 456.886 1591.88 432.556 1602.83 410.051C1613.17 415.525 1640.54 428.298 1647.23 439.247C1656.36 454.453 1658.18 470.268 1660.62 486.082C1661.22 500.072 1662.44 511.02 1647.84 515.886C1668.52 524.402 1700.76 541.433 1720.22 550.557C1705.02 518.928 1714.14 476.35 1694.07 445.329C1707.45 445.937 1729.35 448.37 1743.95 439.247C1769.49 424.04 1775.58 400.927 1767.06 369.298C1762.19 352.875 1746.38 343.752 1732.39 337.061C1699.54 322.463 1632.64 290.225 1599.79 274.411ZM854.685 295.7C809.066 321.246 721.478 365.04 676.467 391.195C688.024 394.236 696.54 398.494 702.014 408.834C724.519 448.979 747.025 489.731 769.53 529.876C775.612 539.608 773.788 551.773 768.922 563.33C815.757 537.175 903.345 491.556 950.18 466.01C935.582 457.494 944.706 430.123 939.231 411.875C934.365 427.69 917.943 442.288 904.561 452.02C882.664 466.618 831.571 492.773 809.066 505.546C800.551 490.948 792.643 475.742 784.736 461.144C802.375 450.195 843.128 431.948 860.767 420.391C871.108 407.618 865.025 389.37 867.458 374.164C863.2 379.638 857.118 384.504 851.035 387.546C832.179 397.886 790.21 420.999 770.746 431.948C763.447 417.958 754.932 405.185 748.241 390.587C783.52 374.772 846.778 331.587 886.922 334.02C875.974 319.422 860.159 312.731 854.685 295.7ZM1641.15 332.195C1658.79 340.71 1684.34 352.267 1700.15 360.782C1742.12 382.679 1712.32 428.298 1681.9 411.267C1664.27 405.185 1634.46 388.154 1617.43 381.463C1624.73 364.432 1633.85 349.226 1641.15 332.195ZM635.107 421.608C630.241 428.298 624.158 434.989 616.251 438.638C591.313 450.195 546.302 490.948 535.354 516.495C520.147 545.691 520.756 572.453 538.395 606.515C558.467 646.66 587.055 665.516 630.849 665.516C674.034 663.083 713.571 624.763 731.21 601.041C740.942 589.485 750.674 577.32 765.272 570.629C753.107 557.247 740.334 544.474 728.169 531.093C723.911 547.515 716.004 560.897 705.664 574.887C689.849 592.526 665.519 620.505 638.148 619.289C610.777 618.072 601.653 604.691 589.488 591.309C577.323 577.928 568.807 562.113 570.632 537.783C573.065 513.453 620.508 469.051 655.179 467.835C647.271 453.845 643.014 436.814 635.107 421.608ZM467.23 584.01C454.456 600.433 432.559 628.413 419.178 644.227C431.343 642.402 442.9 643.619 452.023 650.918C488.518 678.897 524.405 707.485 560.292 736.073C569.416 742.763 573.673 753.712 574.89 765.269C588.271 749.454 609.56 721.475 622.333 706.269C611.385 707.485 600.436 708.093 591.312 701.402L481.827 615.639C472.704 607.732 467.23 597.392 467.23 584.01ZM381.466 692.887C358.353 739.722 310.909 827.918 288.404 874.754C301.177 869.888 310.301 870.496 321.858 876.579C362.611 897.259 403.363 916.723 444.724 936.795C454.456 941.661 463.58 952.001 467.23 962.342C489.735 914.29 531.704 829.743 557.859 782.3C552.384 782.3 546.91 778.042 543.261 773.784C532.312 763.444 526.838 751.887 515.89 741.547C518.931 760.403 515.89 783.516 507.982 801.764C498.25 822.444 472.704 872.321 462.972 893.001C447.157 887.527 434.384 878.403 419.178 871.712C427.085 853.465 449.59 811.496 457.497 793.248C457.497 782.3 444.724 764.66 435.601 751.279C434.992 757.97 431.951 765.269 428.91 771.351C419.178 791.423 396.673 835.826 386.941 855.29C372.951 847.991 354.703 841.3 340.714 834.609C350.446 814.537 375.384 764.661 385.724 744.588C393.631 728.774 406.405 716.001 422.219 708.093C406.405 702.619 395.456 704.444 381.466 692.887ZM411.271 955.043C417.961 965.383 419.178 983.63 419.786 996.404C421.611 1020.13 407.621 1065.74 403.972 1088.86C360.178 1080.34 315.775 1069.39 271.981 1059.66C259.816 1057.23 254.95 1047.5 247.651 1037.16C242.785 1057.23 234.878 1094.33 231.229 1114.4C240.352 1107.71 246.435 1102.85 256.775 1105.28C303.61 1115.01 350.446 1125.35 397.281 1136.3C408.229 1138.73 418.57 1146.64 424.652 1156.98C434.384 1111.36 453.24 1028.64 462.972 983.022C458.106 983.631 453.24 984.239 448.982 981.806C434.384 973.898 424.652 962.342 411.271 955.043Z" fill="#0053A0"/>
<path d="M411.27 1344.33C404.579 1354.06 395.455 1361.36 383.899 1363.79C340.713 1375.96 295.094 1385.08 245.826 1397.25C236.094 1400.9 230.011 1396.64 220.888 1389.34C225.145 1409.41 231.836 1441.65 236.702 1461.72C254.341 1437.39 286.579 1438 312.125 1429.48C318.208 1450.16 325.507 1493.35 332.197 1513.42C343.146 1524.37 360.785 1526.19 374.775 1531.06C371.125 1525.59 364.435 1514.03 363.218 1507.34C358.352 1485.44 348.62 1444.08 343.754 1422.18C360.177 1418.53 376.6 1413.67 393.022 1411.24C402.146 1445.91 422.827 1509.77 406.404 1542.62C423.435 1537.14 436.816 1518.9 452.023 1522.55C442.899 1476.93 420.394 1391.16 411.27 1344.33ZM413.703 1555.39C408.229 1555.39 402.754 1556 397.28 1556.61C360.177 1564.51 325.507 1582.76 309.692 1621.69C289.012 1675.82 329.764 1759.15 385.115 1779.84C420.394 1792.61 455.672 1782.88 482.435 1763.41C506.765 1746.38 523.796 1718.4 523.188 1680.69C521.363 1638.11 497.641 1596.14 463.579 1572.42C446.548 1560.26 430.126 1555.39 413.703 1555.39ZM412.486 1602.83C433.167 1602.83 453.847 1607.7 467.837 1628.99C485.476 1650.89 490.951 1681.3 478.177 1700.15C460.538 1723.27 431.95 1737.26 402.146 1736.04C369.301 1734.82 336.455 1692.86 346.187 1652.71C355.311 1619.87 392.414 1604.05 412.486 1602.83ZM540.827 1760.37C532.92 1760.37 525.013 1762.2 517.105 1765.24C480.002 1779.23 452.631 1802.95 441.682 1843.7C426.476 1899.66 487.909 1973.87 545.693 1984.21C582.796 1990.29 615.642 1976.91 638.147 1953.19C659.436 1932.51 672.817 1901.49 665.518 1864.38C656.395 1823.02 622.941 1787.13 584.621 1769.49C568.807 1763.41 554.209 1759.76 540.827 1760.37ZM559.683 1805.99C576.106 1805.99 590.704 1812.68 601.652 1824.24C621.724 1843.09 631.456 1866.21 622.333 1890.54C609.559 1919.12 585.229 1937.98 555.425 1941.63C523.188 1945.89 481.219 1903.31 485.476 1868.03C490.951 1835.79 511.631 1822.41 529.27 1813.29C539.611 1808.42 549.951 1805.99 559.683 1805.99ZM703.838 1889.93C703.23 1908.18 684.374 1902.7 669.776 1926.42C692.281 1923.99 729.993 1944.06 747.632 1957.44C721.477 1996.98 694.106 2035.91 667.951 2075.44C663.085 2083.96 654.57 2084.57 645.446 2085.18C661.869 2096.73 692.281 2116.81 708.704 2128.36C705.663 2114.98 706.879 2104.03 713.57 2093.69C736.684 2059.02 760.405 2024.35 784.127 1989.68C785.344 1988.46 786.56 1984.82 788.993 1986.03C808.457 1996.37 838.261 2022.53 844.952 2043.21C852.859 2028 851.643 2003.06 866.241 1996.98C824.88 1968.39 744.591 1917.3 703.838 1889.93ZM875.973 2004.89C882.055 2015.84 880.231 2028 877.189 2039.56C863.808 2083.96 846.777 2124.1 833.395 2168.51C830.354 2179.46 823.663 2185.54 810.282 2188.58C852.251 2201.96 901.519 2219.6 945.922 2233.59C992.149 2248.8 1033.51 2237.24 1038.98 2188.58C1042.03 2160.6 1012.22 2147.83 1000.66 2141.74C1031.08 2145.39 1051.76 2128.97 1053.58 2100.38C1056.01 2079.7 1037.77 2057.81 995.19 2043.82C964.777 2034.08 906.385 2013.4 875.973 2004.89ZM1515.85 2039.56C1496.39 2044.42 1463.54 2058.41 1444.08 2065.1C1455.03 2069.97 1462.33 2073.01 1465.98 2083.96C1479.97 2125.93 1496.39 2164.86 1510.38 2206.22C1514.03 2219.6 1518.89 2234.2 1512.2 2246.97C1556.6 2233.59 1633.85 2205.61 1677.65 2191.01C1675.21 2187.36 1671.56 2184.32 1671.56 2179.46C1670.35 2163.64 1674.61 2150.87 1673.39 2135.05C1663.05 2156.34 1641.15 2167.29 1618.04 2175.81C1605.26 2180.06 1569.38 2195.88 1556.6 2197.09C1542.61 2154.52 1525.58 2110.11 1511.59 2068.15C1507.34 2057.81 1509.77 2049.9 1515.85 2039.56ZM917.942 2053.55C934.365 2059.02 980.592 2069.97 996.406 2076.66C1018.3 2085.78 1004.31 2125.32 981.2 2119.85C965.386 2117.41 919.767 2104.64 904.561 2099.17C908.818 2083.96 913.076 2068.75 917.942 2053.55ZM1133.26 2076.66C1134.48 2079.7 1133.87 2086.39 1131.44 2090.04L1048.72 2229.94C1041.42 2242.11 1034.12 2247.58 1024.39 2255.49C1043.24 2258.53 1076.09 2267.65 1094.94 2271.3C1088.86 2257.92 1089.47 2241.5 1099.2 2228.72C1128.4 2231.16 1183.14 2235.41 1211.73 2239.06C1217.81 2253.05 1225.11 2269.48 1211.73 2282.25C1231.19 2282.25 1264.64 2281.64 1282.89 2282.86C1274.38 2273.13 1266.47 2262.79 1262.82 2250.01C1254.3 2223.86 1221.46 2127.75 1211.12 2097.95C1209.29 2092.48 1211.73 2085.78 1211.73 2085.18L1133.26 2076.66ZM1351.62 2077.27C1330.34 2080.92 1294.45 2085.18 1274.38 2087.61C1284.11 2094.3 1290.8 2098.56 1292.62 2110.11C1297.49 2153.91 1306.61 2195.88 1312.09 2239.06C1313.3 2252.45 1313.3 2270.08 1304.18 2281.64C1350.41 2277.38 1435.56 2263.39 1481.79 2257.92C1479.97 2253.66 1476.92 2250.01 1478.14 2245.75C1479.97 2229.94 1486.05 2216.56 1487.87 2200.74C1472.67 2218.38 1450.77 2227.51 1426.44 2231.76C1412.45 2234.2 1372.3 2240.28 1360.14 2240.28C1354.67 2195.88 1347.37 2149.04 1341.89 2105.25C1339.46 2093.08 1343.72 2086.39 1351.62 2077.27ZM1166.72 2110.11L1200.17 2201.96C1178.88 2200.74 1138.74 2198.31 1118.06 2195.88L1166.72 2110.11ZM897.262 2128.36C916.726 2135.66 948.963 2146.61 965.994 2153.3C1003.71 2166.68 993.973 2217.17 948.355 2201.35C927.674 2194.66 900.303 2186.15 880.839 2178.85C885.097 2162.42 892.396 2144.79 897.262 2128.36Z" fill="#0053A0"/>
<path d="M1906.96 485.481C1877.15 484.264 1857.69 492.172 1836.4 509.811C1813.29 531.1 1797.47 555.43 1797.47 592.533C1798.08 621.729 1829.71 667.348 1868.03 691.678C1878.98 699.585 1896.01 709.317 1897.22 722.698C1910 709.925 1923.38 697.152 1936.15 684.987C1905.13 675.863 1852.82 645.451 1844.92 610.78C1840.05 583.409 1846.74 574.285 1858.9 559.079C1880.8 532.924 1903.31 523.192 1936.15 532.316C1965.96 543.873 1992.72 581.584 1994.54 608.347C2009.75 600.44 2024.96 593.749 2040.16 585.842C2028 577.935 2021.92 568.811 2014.01 557.863C1995.76 531.1 1961.09 493.388 1919.73 486.697C1916.08 486.089 1911.21 485.481 1906.96 485.481ZM2071.18 627.203C2070.58 646.667 2060.24 652.75 2046.25 663.09C2012.18 686.203 1979.95 709.925 1946.49 732.43C1936.76 738.513 1924.6 746.42 1910.61 739.729C1921.55 756.76 1943.45 785.956 1954.4 802.379C1955.62 784.74 1964.74 776.833 1975.69 770.142C2012.18 745.812 2046.85 719.049 2083.35 695.327C2093.69 688.028 2099.77 684.987 2114.37 689.853C2103.42 673.43 2082.13 644.234 2071.18 627.203ZM2136.27 719.049C2125.93 734.255 2103.42 725.131 2087.61 731.214C2107.07 742.162 2128.36 777.441 2136.88 798.121C2093.08 818.194 2057.19 837.049 2014.01 857.122C2005.49 861.379 1992.72 858.946 1984.2 855.297C1993.33 873.544 2007.93 905.782 2017.05 924.029C2021.92 910.039 2035.91 897.874 2049.29 892.4C2088.22 874.761 2120.45 857.73 2159.38 840.699C2169.11 860.163 2186.14 897.266 2180.67 919.163C2195.88 910.039 2203.17 890.575 2220.21 892.4C2198.92 847.39 2157.56 764.059 2136.27 719.049ZM2230.55 914.297C2226.29 933.153 2209.26 944.101 2198.31 958.091C2177.02 983.029 2151.47 1011.01 2126.53 1035.95C2120.45 1041.42 2105.85 1043.25 2096.73 1045.07C2077.88 1047.5 2069.36 1049.94 2055.37 1037.77C2059.63 1057.84 2066.93 1093.73 2071.18 1113.19C2079.09 1101.03 2087.61 1094.34 2103.42 1090.08C2117.41 1087.65 2129.58 1082.17 2139.31 1086.43C2184.93 1111.37 2270.08 1146.65 2281.03 1157.6L2265.22 1082.78C2260.35 1090.08 2254.27 1093.73 2248.18 1091.3C2220.81 1080.96 2188.58 1065.75 2165.46 1056.63C2182.49 1037.16 2201.96 1017.7 2220.21 999.452C2228.11 989.72 2238.45 986.071 2248.18 995.194L2230.55 914.297Z" fill="#0053A0"/>
<path d="M2122.89 1354.67C2114.37 1354.67 2104.64 1357.71 2093.69 1365.01C2079.09 1378.39 2073.62 1398.46 2068.14 1416.71C2061.45 1447.73 2045.03 1510.99 2038.95 1542.01C2049.29 1533.49 2058.41 1532.88 2069.97 1535.32C2115.59 1545.05 2160.6 1555.39 2205.61 1565.12C2216.56 1566.95 2224.46 1576.07 2231.15 1585.19C2237.84 1542.01 2264.61 1454.42 2264 1410.63C2263.39 1374.74 2229.94 1351.63 2197.7 1358.92C2179.45 1363.79 2169.11 1385.08 2165.46 1399.68C2165.46 1379 2148.43 1354.06 2122.89 1354.67ZM2122.89 1406.98C2136.27 1406.98 2148.43 1419.14 2144.78 1434.96C2141.13 1450.77 2135.05 1484.83 2130.79 1500.65C2115.59 1497.61 2099.16 1493.96 2083.96 1490.31C2088.21 1473.88 2092.47 1450.16 2096.73 1433.13C2101.6 1414.28 2112.54 1406.98 2122.89 1406.98ZM2206.22 1410.02C2220.21 1410.63 2232.98 1424.62 2229.94 1441.65C2225.68 1462.33 2217.77 1499.43 2214.12 1519.5L2163.03 1508.55C2167.29 1487.87 2173.98 1458.68 2179.45 1438C2183.71 1417.32 2195.27 1409.41 2206.22 1410.02ZM2035.91 1551.74C2023.13 1574.85 2011.58 1596.75 1998.19 1619.86C2008.53 1615 2018.27 1614.39 2026.78 1618.65C2056.59 1634.46 2081.52 1649.06 2111.33 1665.48C2122.89 1672.17 2135.05 1684.34 2136.27 1700.15C2135.66 1722.05 2121.06 1748.2 2100.99 1756.72C2086.39 1763.41 2069.97 1756.72 2059.02 1750.03C2032.26 1733.61 2010.97 1722.05 1984.2 1705.63C1975.08 1700.15 1966.56 1696.5 1965.96 1678.86C1953.18 1700.76 1941.63 1724.48 1927.64 1746.99C1945.88 1739.08 1958.05 1744.56 1970.82 1752.46C1994.54 1766.45 2014.62 1778.01 2038.34 1791.39C2056.59 1801.73 2074.83 1808.42 2099.16 1802.95C2120.45 1798.08 2138.7 1777.4 2151.47 1756.11C2165.46 1733.61 2177.63 1708.06 2175.8 1683.12C2174.59 1657.58 2158.77 1639.94 2141.74 1628.99C2113.76 1611.96 2091.26 1600.4 2062.67 1583.37C2051.72 1577.89 2036.51 1568.16 2035.91 1551.74ZM2051.72 1814.5C2051.11 1835.79 2038.95 1861.34 2023.74 1878.98C2015.83 1889.32 1991.5 1917.3 1981.16 1928.25C1947.1 1899.66 1916.08 1873.5 1882.02 1844.31C1872.89 1837.01 1865.6 1826.67 1865.6 1814.5C1851.61 1829.1 1832.75 1850.39 1819.37 1866.21C1830.93 1864.38 1841.87 1870.46 1851 1877.76C1884.45 1906.35 1916.69 1935.55 1950.75 1963.53C1961.09 1972.65 1965.96 1981.77 1966.56 1996.37C1997.59 1961.7 2054.15 1896.01 2084.57 1860.73C2080.31 1858.91 2074.83 1858.3 2073.01 1853.43C2063.28 1837.62 2060.84 1827.28 2051.72 1814.5ZM1815.72 1870.46C1805.99 1883.24 1787.13 1889.93 1773.14 1896.01C1743.34 1910 1701.98 1944.06 1692.85 1983.6C1686.16 2017.66 1693.46 2045.64 1712.32 2070.58C1731.17 2096.12 1754.89 2110.72 1787.13 2111.33C1823.63 2110.72 1862.55 2087.61 1891.14 2058.41C1900.87 2048.68 1912.43 2035.91 1925.81 2034.69C1914.26 2020.7 1904.52 2005.49 1891.75 1992.11C1883.84 2017.05 1844.31 2058.41 1817.54 2065.71C1793.82 2071.19 1778.62 2064.49 1760.98 2049.9C1742.12 2030.43 1729.96 2006.1 1737.86 1977.52C1749.42 1941.02 1798.08 1914.26 1828.49 1919.12C1825.45 1903.92 1821.19 1886.28 1815.72 1870.46Z" fill="#0053A0"/>
<path d="M1255.52 529.273C1251.87 540.222 1248.83 555.428 1246.4 568.201C1245.79 571.243 1244.57 573.067 1242.75 574.892C1156.38 661.872 1049.32 636.325 1009.79 764.058C1005.53 775.006 1011 785.955 1030.47 796.903C1032.29 798.12 1034.12 797.512 1034.12 795.687C1029.25 657.006 1216.59 666.738 1257.35 570.026C1257.95 568.81 1259.17 569.418 1259.78 570.026C1294.45 634.501 1351.02 642.408 1403.33 672.82C1442.25 695.326 1470.23 715.398 1478.14 779.264C1478.14 782.305 1479.36 781.697 1480.57 780.481C1486.66 773.79 1500.65 770.749 1500.04 761.017C1487.26 666.738 1383.86 646.666 1300.53 607.738C1296.88 605.305 1293.84 602.263 1290.19 599.83C1272.55 579.15 1259.17 556.036 1255.52 529.273ZM1253.7 647.274C1252.48 647.274 1251.87 647.274 1251.26 647.882C1250.66 648.49 1249.44 649.099 1248.83 650.315C1248.22 650.923 1248.83 653.965 1248.83 655.789C1249.44 657.006 1250.05 657.614 1250.66 658.222C1251.87 660.047 1253.09 660.655 1254.91 662.48C1257.35 663.697 1259.78 661.872 1260.39 660.655C1261 657.614 1261 653.965 1260.39 651.532C1260.39 650.315 1259.17 649.707 1258.56 649.099C1257.95 647.882 1256.74 647.882 1255.52 647.882C1255.52 647.274 1254.91 646.666 1253.7 647.274ZM1282.28 673.429C1282.28 673.429 1281.68 673.429 1281.68 674.037C1281.07 674.645 1280.46 675.253 1280.46 675.862C1280.46 679.511 1278.63 684.985 1282.28 687.418C1284.11 688.027 1285.93 688.635 1287.76 686.81C1288.37 685.594 1289.58 685.594 1289.58 683.161C1289.58 681.944 1288.37 681.944 1287.76 680.728C1287.15 678.903 1287.76 676.47 1287.15 675.253C1286.54 674.645 1285.93 673.429 1285.33 673.429C1284.11 673.429 1282.89 672.82 1282.28 673.429ZM1229.97 674.037C1227.54 674.645 1224.5 676.47 1223.89 680.119C1222.68 681.944 1222.68 683.769 1223.89 684.985C1225.11 686.81 1226.93 689.243 1229.37 690.46C1231.19 691.676 1233.62 691.676 1234.84 687.418C1236.06 683.769 1236.06 678.903 1234.23 677.686C1232.41 675.253 1232.41 673.429 1229.97 674.037ZM1257.95 719.656C1247.01 753.109 1243.96 769.532 1236.06 796.295C1250.66 796.295 1258.56 796.295 1268.9 796.903C1260.39 766.491 1259.78 754.326 1257.95 719.656Z" fill="#0053A0"/>
<path d="M747.025 884.484C746.416 884.484 745.808 884.484 745.2 885.093C667.952 939.227 647.272 1035.94 548.127 1020.12C618.684 1052.97 616.859 1133.87 624.158 1208.68C630.241 1271.94 678.292 1357.09 808.458 1339.46C809.674 1339.46 810.891 1338.24 809.674 1337.02C801.159 1324.86 773.179 1329.12 766.489 1327.9C663.694 1308.43 646.055 1213.55 624.766 1106.5C619.9 1075.47 599.828 1056.01 587.055 1032.9C586.447 1030.46 585.23 1029.86 588.271 1029.25C653.962 1016.47 703.231 959.907 756.148 899.082C757.365 898.474 757.365 896.649 756.148 896.041C753.107 893 750.674 889.959 747.633 886.309C747.633 884.484 747.633 884.484 747.025 884.484ZM736.684 1009.18C735.468 1009.18 734.86 1009.18 734.251 1009.78C733.035 1010.39 732.427 1011 731.818 1012.22C731.21 1012.83 731.818 1015.87 731.818 1017.69C732.427 1018.91 733.643 1019.52 734.251 1020.12C735.468 1021.95 736.684 1022.56 738.509 1024.38C740.942 1025.6 743.375 1023.77 743.983 1022.56C744.592 1019.52 744.592 1015.87 743.983 1013.43C743.983 1012.22 742.767 1011.61 742.159 1011C741.55 1009.78 740.334 1009.78 739.117 1009.78C738.509 1009.18 737.901 1008.57 736.684 1009.18ZM766.489 1035.94C765.88 1035.94 765.88 1035.94 765.272 1036.55C764.664 1037.16 764.056 1037.76 764.056 1038.37C764.056 1042.02 762.231 1047.5 765.272 1049.32C767.097 1049.93 768.922 1050.54 770.138 1048.71C770.746 1047.5 771.963 1047.5 771.963 1045.67C771.963 1044.45 770.746 1044.45 770.746 1043.24C770.138 1041.41 770.746 1038.98 770.138 1037.76C769.53 1037.16 768.922 1035.94 768.313 1035.94H766.489ZM714.179 1040.2C711.746 1040.8 708.705 1043.24 708.097 1046.28C706.88 1048.1 706.88 1049.32 708.097 1050.54C709.313 1052.36 711.138 1054.79 713.571 1056.01C715.396 1057.23 717.829 1057.23 719.045 1052.97C720.262 1049.32 719.653 1044.45 718.437 1043.24C716.004 1041.41 716.612 1039.59 714.179 1040.2ZM744.592 1085.21C740.334 1118.66 728.169 1156.98 716.004 1182.53C729.994 1180.7 740.942 1189.22 742.159 1200.17C745.808 1188 754.932 1178.27 766.489 1181.92C759.19 1150.9 750.066 1118.05 744.592 1085.21Z" fill="#0053A0"/>
<path d="M854.684 1413.06C854.076 1413.06 853.467 1413.66 852.859 1413.66C733.642 1459.89 709.92 1566.94 776.22 1661.22C826.096 1745.16 848.601 1780.44 824.88 1847.95C917.942 1736.65 1083.39 1916.69 1178.27 1778.01C1179.49 1776.18 1177.66 1774.96 1175.84 1773.14C1170.97 1770.1 1166.11 1767.67 1161.85 1765.84C1158.2 1764.62 1156.38 1765.23 1154.55 1768.27C1115.62 1809.03 989.715 1799.9 894.828 1800.51C891.787 1800.51 883.272 1802.34 880.23 1803.55C871.107 1808.42 861.983 1812.07 852.251 1811.46C849.818 1811.46 845.56 1810.24 846.168 1804.77C851.034 1735.43 809.673 1691.63 783.519 1634.46C775.611 1615 714.786 1505.51 860.158 1439.21C860.766 1437.99 861.983 1437.39 861.983 1434.95C861.375 1428.26 860.158 1421.57 858.333 1414.88C857.117 1413.06 856.509 1412.45 854.684 1413.06ZM962.344 1545.05C961.128 1545.05 960.519 1545.65 959.911 1545.65C959.303 1546.26 958.086 1546.87 957.478 1548.09C956.87 1548.7 956.87 1551.74 957.478 1553.56C957.478 1554.78 959.303 1555.39 959.911 1555.99C961.128 1557.82 962.344 1558.43 964.169 1560.25C966.602 1561.47 969.035 1559.64 969.643 1557.82C970.251 1554.78 970.251 1551.13 969.643 1548.7C969.643 1547.48 968.427 1547.48 967.818 1546.26C966.602 1545.05 965.994 1545.05 964.777 1544.44C964.169 1544.44 963.561 1544.44 962.344 1545.05ZM992.757 1569.98C992.148 1569.98 992.148 1569.98 991.54 1570.59C990.932 1571.2 990.324 1571.81 990.324 1572.42C990.324 1576.07 988.499 1581.54 991.54 1583.97C993.365 1584.58 995.19 1585.19 996.406 1583.37C997.014 1582.15 998.839 1582.15 998.839 1580.32C998.839 1579.72 997.623 1579.11 997.014 1577.89C996.406 1576.68 997.014 1573.63 996.406 1572.42C995.798 1571.81 995.19 1570.59 994.581 1570.59C993.973 1570.59 993.365 1569.98 992.757 1569.98ZM939.231 1573.63C936.798 1574.24 934.365 1576.68 933.148 1579.72C931.932 1581.54 931.932 1582.76 933.148 1583.97C934.365 1585.8 936.189 1588.23 938.622 1589.45C940.447 1590.67 942.88 1590.67 944.097 1586.41C945.313 1582.76 945.313 1577.89 943.488 1576.68C941.055 1574.85 941.664 1573.03 939.231 1573.63ZM966.602 1616.82C962.344 1650.27 950.179 1688.59 938.014 1714.14C952.004 1712.32 962.952 1720.83 964.169 1731.78C967.818 1719.61 976.942 1710.49 988.499 1713.53C980.592 1682.51 971.468 1649.67 966.602 1616.82Z" fill="#0053A0"/>
<path d="M1644.19 1412.45C1643.58 1412.45 1642.98 1413.06 1642.37 1413.67C1639.94 1419.14 1636.89 1424.62 1634.46 1430.09C1632.03 1436.17 1632.03 1441.65 1641.76 1444.69C1812.68 1514.64 1728.74 1646.63 1683.73 1724.49C1678.86 1732.39 1667.91 1756.11 1667.31 1766.45C1665.48 1777.4 1667.31 1787.14 1667.31 1798.69C1667.31 1801.12 1663.66 1802.34 1661.22 1801.73C1551.74 1780.44 1456.85 1877.16 1367.44 1773.15C1358.92 1764.02 1349.19 1763.41 1345.54 1766.45C1341.28 1769.5 1338.85 1772.54 1335.81 1776.79C1333.99 1779.23 1333.99 1781.05 1336.42 1783.49C1429.48 1914.26 1567.55 1759.76 1686.16 1824.85C1658.18 1758.55 1712.93 1694.07 1743.95 1635.68C1812.68 1519.51 1732.39 1447.73 1644.19 1412.45C1644.8 1412.45 1644.8 1412.45 1644.19 1412.45ZM1553.56 1542.01C1552.35 1542.01 1551.74 1542.62 1551.13 1542.62C1550.52 1543.23 1549.31 1543.84 1548.7 1545.05C1548.09 1546.27 1548.7 1548.7 1548.7 1550.53C1549.31 1551.74 1549.91 1552.35 1550.52 1552.96C1551.74 1554.78 1552.96 1555.39 1554.78 1557.22C1557.21 1559.04 1559.65 1557.22 1560.25 1555.39C1560.86 1552.35 1560.86 1548.7 1560.25 1546.27C1560.25 1545.05 1559.04 1544.44 1559.04 1543.84C1558.43 1542.62 1557.21 1542.62 1556 1542.01H1553.56ZM1582.15 1568.77C1581.54 1568.77 1581.54 1568.77 1580.94 1569.38C1580.33 1569.99 1579.72 1570.6 1579.72 1571.21C1579.72 1574.86 1577.89 1580.33 1580.94 1582.15C1582.76 1583.37 1584.58 1583.37 1586.41 1581.55C1587.02 1580.33 1588.23 1580.33 1588.23 1578.51C1588.23 1577.9 1587.02 1577.29 1587.02 1576.07C1586.41 1574.86 1587.02 1571.81 1586.41 1570.6C1585.8 1569.99 1585.8 1568.77 1584.58 1568.77C1583.98 1568.77 1583.37 1568.17 1582.15 1568.77ZM1529.23 1572.42C1526.8 1573.03 1524.37 1575.46 1523.15 1578.51C1521.93 1580.33 1521.93 1581.55 1523.15 1582.76C1524.37 1584.59 1526.19 1587.02 1528.63 1588.24C1530.45 1589.45 1532.88 1589.45 1534.1 1585.2C1535.32 1581.55 1534.71 1576.68 1533.49 1575.46C1531.67 1573.64 1531.67 1571.81 1529.23 1572.42ZM1558.43 1615.61C1554.17 1649.06 1542.01 1687.38 1529.84 1712.93C1543.83 1711.1 1554.78 1719.62 1556 1730.57C1559.65 1718.4 1568.77 1708.67 1580.33 1712.32C1573.03 1681.91 1563.9 1649.06 1558.43 1615.61Z" fill="#0053A0"/>
<path d="M1748.2 882.664C1747.6 882.664 1747.6 883.272 1746.99 883.272C1745.77 884.489 1744.55 893.004 1744.55 898.479C1744.55 899.695 1744.55 900.303 1745.77 901.52C1770.1 916.726 1843.7 999.448 1907.56 1014.05C1910.61 1014.65 1910.61 1017.09 1909.39 1018.3C1833.36 1107.72 1923.99 1247.61 1774.36 1300.53C1746.38 1308.44 1718.4 1304.79 1713.53 1323.04C1713.53 1323.65 1714.14 1324.25 1714.75 1324.25C1804.77 1329.73 1861.34 1299.32 1877.76 1235.45C1899.66 1163.68 1858.3 1061.49 1935.54 1006.14C1937.37 1004.92 1936.15 1001.88 1934.94 1002.49C1857.08 1010.4 1807.2 927.675 1749.42 882.664H1748.2ZM1773.14 1002.49C1771.93 1002.49 1771.32 1003.1 1770.71 1003.71C1770.1 1004.31 1768.88 1004.92 1768.28 1006.14C1767.67 1006.75 1768.28 1009.79 1768.28 1011.61C1768.88 1012.83 1769.49 1013.44 1770.1 1014.05C1771.32 1015.87 1772.53 1016.48 1774.36 1017.7C1776.79 1019.52 1779.22 1017.7 1779.83 1015.87C1780.44 1012.83 1780.44 1009.18 1779.83 1006.75C1779.83 1005.53 1778.62 1004.92 1778.62 1004.31C1778.01 1003.1 1776.79 1003.1 1775.57 1002.49H1773.14ZM1799.3 1031.69C1799.3 1031.69 1798.69 1031.69 1798.69 1032.29C1798.08 1032.9 1798.08 1033.51 1798.08 1034.12C1798.08 1037.77 1796.26 1043.24 1799.3 1045.07C1801.12 1045.68 1802.95 1046.28 1804.16 1044.46C1804.77 1043.24 1806.6 1043.24 1806.6 1041.42C1806.6 1040.2 1805.38 1040.2 1804.77 1038.98C1804.16 1037.16 1804.77 1034.73 1804.16 1033.51C1803.55 1032.9 1803.55 1031.69 1802.34 1031.69C1801.12 1032.29 1799.9 1031.69 1799.3 1031.69ZM1745.16 1032.29C1742.73 1032.9 1740.3 1035.33 1739.08 1038.38C1737.86 1040.2 1737.86 1041.42 1739.08 1042.63C1740.3 1044.46 1742.12 1046.89 1744.55 1048.11C1746.38 1049.32 1748.81 1049.32 1750.03 1045.07C1750.64 1041.42 1750.64 1036.55 1749.42 1035.33C1746.99 1034.12 1747.6 1031.69 1745.16 1032.29ZM1774.36 1075.48C1770.1 1108.93 1757.94 1147.25 1745.77 1172.8C1759.76 1170.97 1771.32 1179.49 1771.93 1190.44C1775.57 1178.27 1784.7 1168.54 1796.26 1172.19C1788.96 1141.17 1779.83 1108.32 1774.36 1075.48Z" fill="#0053A0"/>
<path d="M1696.5 674.036H1695.29C1625.95 693.5 1532.88 773.18 1456.24 843.129C1453.81 845.562 1450.77 846.17 1448.34 845.562C1397.24 828.531 1337.64 826.706 1288.37 825.49C1217.81 818.799 1132.66 827.923 1056.62 852.253C1053.58 853.469 1051.15 850.428 1048.72 847.387C988.5 780.479 903.953 725.737 812.107 687.417C809.674 686.201 807.241 684.984 804.808 688.025C757.973 731.211 768.313 859.552 808.458 928.892C813.324 939.233 814.54 956.872 814.54 962.954C817.582 1000.06 824.881 1032.9 834.613 1067.57C837.046 1089.47 845.561 1111.37 857.726 1129.61C860.159 1132.66 858.943 1135.09 857.118 1136.91C841.303 1152.73 826.705 1167.93 810.891 1183.75C809.674 1184.97 807.241 1185.57 805.417 1186.18C792.035 1188.01 787.777 1192.26 781.695 1207.47C780.478 1209.9 781.087 1211.12 782.303 1212.95C784.736 1217.2 799.943 1243.97 812.716 1257.96C824.881 1270.12 820.623 1281.68 810.283 1292.63C829.747 1307.22 864.417 1335.2 866.85 1339.46C869.283 1350.41 888.747 1354.67 877.19 1370.48C880.231 1371.09 882.056 1372.31 884.489 1374.13C886.314 1375.96 886.922 1377.78 886.922 1379.61C888.747 1397.24 891.788 1413.06 901.52 1429.48C941.056 1496.39 985.459 1486.05 1037.77 1543.22C1069.4 1577.29 1100.42 1579.11 1121.71 1639.33C1119.88 1662.44 1118.67 1676.43 1127.79 1695.9C1138.74 1720.23 1166.72 1720.83 1202 1737.26C1206.86 1739.08 1209.29 1740.3 1212.94 1743.95C1222.07 1753.07 1233.02 1758.55 1245.18 1764.63C1254.91 1768.89 1266.47 1768.89 1275.59 1764.02C1292.62 1754.29 1296.27 1761.59 1327.9 1738.47C1357.71 1729.96 1405.76 1693.46 1400.89 1630.81C1400.89 1628.99 1401.5 1627.77 1402.11 1625.95C1403.33 1622.91 1405.76 1620.47 1408.19 1617.43C1420.36 1602.83 1433.74 1590.67 1442.25 1573.03C1444.08 1568.77 1445.3 1564.51 1448.95 1561.47C1567.55 1464.76 1525.58 1507.34 1568.16 1474.49C1655.75 1407.59 1598.57 1329.73 1701.37 1285.94C1687.38 1256.13 1692.25 1253.7 1737.26 1191.05C1713.53 1178.27 1696.5 1163.68 1680.08 1152.12C1627.77 1111.37 1675.21 1076.7 1679.47 1056.62C1682.51 1045.07 1686.77 1031.08 1687.99 1016.48C1693.46 983.027 1690.42 943.49 1707.45 925.851C1720.22 913.686 1723.87 846.779 1725.7 841.913C1739.69 798.119 1734.21 792.644 1737.26 765.273C1737.86 761.624 1739.08 758.582 1737.26 754.933C1727.52 728.17 1715.97 702.623 1701.98 677.077C1700.76 674.644 1700.15 672.819 1698.33 672.211C1697.11 674.036 1696.5 674.036 1696.5 674.036ZM1655.14 776.222C1649.67 830.964 1629.6 866.851 1635.68 912.47C1612.56 941.057 1620.47 993.975 1599.18 1025.6C1597.97 1027.43 1596.14 1028.65 1593.71 1028.04C1565.12 1023.17 1545.66 987.893 1521.33 967.82C1518.89 965.996 1517.68 964.171 1518.29 962.346C1528.02 940.449 1550.52 918.552 1532.88 896.655C1534.71 833.397 1610.13 823.057 1655.14 776.222ZM840.695 787.17C885.097 812.108 913.685 854.078 935.582 854.686C939.232 860.16 944.098 865.634 947.747 869.892C980.593 906.995 954.438 920.985 983.026 968.429C986.067 975.119 987.284 981.81 983.026 985.46C963.562 1002.49 946.531 1018.91 930.716 1037.77C909.427 1063.32 899.087 1054.19 893.005 1037.77C889.355 1025.6 885.097 1012.22 890.572 998.233C894.221 990.934 891.788 984.243 886.314 976.944C878.407 965.996 872.324 955.047 866.242 943.49C863.809 939.233 862.592 935.583 861.984 930.109C854.077 883.274 855.901 812.717 840.695 787.17ZM1392.99 1253.09C1396.03 1252.48 1399.07 1254.91 1399.68 1257.96C1400.29 1261 1397.85 1264.04 1394.2 1264.65C1391.16 1265.25 1388.12 1262.82 1387.51 1259.17C1386.9 1256.13 1389.34 1253.09 1392.99 1253.09ZM1088.86 1253.7C1091.9 1253.7 1094.94 1255.52 1095.55 1259.17C1096.16 1262.21 1093.73 1265.25 1090.08 1265.86C1087.04 1266.47 1084 1264.04 1083.39 1261C1083.39 1256.74 1085.82 1253.7 1088.86 1253.7ZM1578.5 1385.69C1583.37 1385.69 1584.58 1389.95 1583.98 1394.81C1579.11 1459.29 1548.7 1441.65 1479.97 1502.47C1461.72 1517.07 1467.8 1530.45 1443.47 1551.13C1423.4 1569.99 1404.54 1590.06 1386.9 1614.39C1383.86 1618.65 1382.04 1614.39 1382.04 1611.96C1381.43 1607.09 1378.39 1601.01 1374.13 1596.14C1362.57 1583.37 1380.82 1585.19 1360.75 1554.17C1352.23 1542.01 1342.5 1557.82 1336.42 1537.75C1332.77 1524.98 1336.42 1531.06 1331.55 1501.26L1343.72 1491.52C1349.19 1507.34 1357.1 1521.33 1365.61 1532.28C1366.83 1534.1 1364.4 1547.48 1369.87 1559.04C1371.09 1540.18 1388.12 1529.24 1363.79 1495.78C1360.75 1491.52 1358.92 1487.27 1357.71 1481.79C1357.71 1481.18 1357.71 1480.58 1357.1 1479.97C1402.72 1450.16 1453.81 1426.44 1501.86 1406.37C1499.43 1409.41 1497 1411.84 1494.56 1414.88C1493.35 1416.1 1495.78 1416.71 1496.39 1416.71C1499.43 1416.1 1500.65 1416.1 1503.08 1416.71C1504.9 1417.32 1504.3 1419.14 1504.3 1420.36C1504.9 1425.83 1500.04 1426.44 1501.25 1432.52C1509.16 1422.18 1516.46 1412.45 1524.98 1403.33C1526.8 1400.89 1529.23 1397.85 1532.88 1398.46L1541.4 1399.68C1544.44 1399.68 1547.48 1399.07 1550.52 1398.46C1558.43 1395.42 1563.9 1391.77 1571.2 1386.9C1574.85 1386.3 1576.68 1385.69 1578.5 1385.69ZM932.541 1396.03C932.541 1396.03 933.149 1396.03 933.757 1396.64C956.263 1408.19 987.892 1415.49 1003.71 1422.18C1012.22 1425.83 1020.74 1431.92 1027.43 1433.13C1029.86 1433.13 1029.86 1431.92 1028.64 1430.09C1026.82 1427.66 1024.99 1424.62 1023.78 1422.79C1062.71 1441.04 1099.2 1462.33 1137.52 1487.27C1137.52 1487.87 1137.52 1487.87 1136.91 1488.48C1135.7 1491.52 1134.48 1494.56 1133.87 1497.61C1133.26 1499.43 1132.66 1500.65 1132.05 1502.47L1130.22 1506.12C1129.61 1507.95 1128.4 1510.38 1127.79 1511.6C1126.57 1513.42 1125.36 1516.46 1124.75 1518.29C1124.75 1518.89 1124.14 1519.5 1123.53 1520.11C1122.92 1521.33 1122.31 1522.54 1121.71 1524.37C1121.1 1525.59 1121.1 1526.19 1121.1 1526.8C1121.1 1527.41 1121.1 1527.41 1120.49 1528.02C1120.49 1529.24 1119.88 1530.45 1119.88 1531.67V1535.32C1119.88 1536.53 1119.88 1538.36 1120.49 1539.58C1121.1 1543.22 1122.31 1545.05 1123.53 1545.66C1124.14 1545.66 1124.75 1545.66 1124.75 1546.27C1125.36 1546.27 1127.18 1546.87 1127.79 1545.05C1128.4 1543.83 1129.01 1542.62 1129.61 1540.79L1131.44 1537.14C1132.66 1534.71 1134.48 1532.28 1136.3 1529.84C1136.91 1529.24 1136.91 1528.63 1137.52 1528.02C1140.56 1523.76 1144.21 1519.5 1147.25 1515.25C1147.86 1514.64 1147.86 1514.64 1147.86 1514.03L1151.51 1508.55C1152.12 1507.95 1152.12 1507.34 1152.73 1506.73C1153.94 1504.91 1155.16 1503.08 1155.77 1501.26L1180.1 1519.5C1175.84 1529.24 1170.97 1543.22 1169.15 1552.35C1166.11 1573.64 1152.73 1569.38 1143 1560.86C1143.6 1583.37 1145.43 1592.49 1132.66 1611.96C1130.83 1615 1129.61 1613.78 1128.4 1611.96C1098.59 1554.17 1069.4 1568.16 1031.69 1506.12C1028.04 1497 1021.95 1488.48 1009.18 1484.22C962.345 1465.98 928.891 1453.2 930.108 1399.68C930.716 1396.64 931.325 1396.03 932.541 1396.03ZM1344.93 1588.84C1346.76 1588.84 1348.58 1590.67 1349.19 1592.49C1358.92 1613.78 1370.48 1651.49 1366.83 1663.05C1352.84 1715.97 1315.74 1725.09 1280.46 1720.23C1254.31 1716.58 1254.31 1710.49 1253.7 1693.46C1253.7 1691.64 1256.13 1691.03 1258.56 1690.42C1290.19 1680.69 1309.05 1663.05 1309.66 1630.81C1309.66 1626.56 1310.26 1621.69 1307.83 1617.43C1316.35 1611.96 1324.86 1605.87 1332.77 1598.58L1333.38 1597.97C1335.81 1594.32 1338.85 1591.28 1342.5 1588.84C1343.72 1589.45 1344.33 1588.84 1344.93 1588.84ZM1169.76 1593.1C1170.97 1592.49 1171.58 1593.1 1172.8 1594.32C1173.41 1594.93 1174.62 1597.97 1177.06 1597.97C1181.32 1603.44 1187.4 1607.7 1192.87 1611.96C1191.05 1613.78 1189.83 1615.61 1189.22 1617.43C1187.4 1622.3 1188.01 1630.81 1189.22 1638.72C1189.83 1643.59 1191.66 1647.24 1194.09 1651.49C1205.65 1669.13 1213.55 1677.04 1226.33 1686.16C1231.8 1689.21 1237.27 1692.25 1244.57 1691.64C1246.4 1691.64 1247.61 1692.85 1247.01 1694.07C1245.18 1720.23 1233.02 1722.05 1203.21 1718.4C1136.91 1705.02 1130.83 1661.83 1166.72 1596.75C1167.33 1594.32 1168.54 1593.1 1169.76 1593.1ZM1255.52 1734.22C1264.65 1734.22 1274.38 1734.22 1284.11 1735.43C1285.33 1735.43 1285.93 1736.65 1285.33 1737.87C1284.11 1741.51 1279.85 1745.77 1278.03 1747.6C1276.81 1748.81 1274.99 1748.81 1273.16 1749.42C1265.86 1751.25 1254.91 1752.46 1253.09 1751.85L1247.61 1750.03C1241.53 1746.38 1235.45 1742.73 1229.37 1738.47C1228.15 1737.26 1228.15 1736.04 1229.37 1735.43C1237.88 1735.43 1246.4 1734.22 1255.52 1734.22Z" fill="#0053A0"/>
<path d="M1689.2 722.693H1687.99C1612.56 750.064 1518.89 804.807 1470.23 877.189C1450.77 893.003 1430.7 908.209 1409.41 922.199C1452.59 864.415 1366.22 860.766 1261.6 849.209C1189.83 843.127 1104.07 865.632 1076.7 880.838C1074.26 882.055 1072.44 885.096 1074.87 887.529C1082.78 898.477 1085.21 911.859 1089.47 924.024C1090.08 925.24 1088.86 925.24 1087.64 924.632C997.015 843.127 861.375 733.642 815.756 722.693C813.323 722.085 811.498 723.301 810.282 725.126C807.241 731.817 806.024 733.642 803.591 740.332C801.766 746.415 798.725 750.064 796.9 751.281C770.746 776.827 816.364 824.271 823.055 911.251C827.313 947.746 836.437 964.168 844.952 989.715C846.169 993.364 847.385 995.797 847.385 999.447C858.942 1040.2 866.849 1081.56 882.055 1118.66C900.911 1178.88 827.921 1169.15 824.88 1219.03C823.055 1253.09 863.2 1271.33 856.509 1296.27C855.901 1298.1 852.859 1299.31 854.684 1301.75C885.097 1333.38 897.262 1326.08 909.427 1352.23C938.014 1402.72 969.643 1347.37 1021.34 1420.96C1060.27 1439.21 1096.77 1460.5 1135.09 1485.44C1138.13 1476.92 1140.56 1465.97 1142.39 1452.59C1147.25 1425.22 1146.04 1397.24 1129 1358.92C1125.96 1353.45 1127.79 1343.72 1133.26 1339.46C1136.3 1337.03 1137.52 1336.42 1137.52 1340.68C1142.39 1391.77 1183.75 1425.83 1158.2 1473.88C1156.98 1475.71 1156.38 1476.92 1156.38 1479.96C1156.98 1486.66 1155.77 1492.13 1153.33 1497.6L1177.66 1515.85C1179.49 1511.59 1180.71 1508.55 1181.92 1506.12C1192.87 1449.55 1201.39 1358.31 1209.9 1346.76C1210.51 1345.54 1211.73 1343.72 1209.9 1342.5C1200.17 1332.77 1189.83 1316.35 1194.7 1311.48C1200.17 1307.22 1230.58 1319.99 1229.97 1341.89C1228.76 1361.36 1209.29 1544.44 1185.57 1570.59C1184.36 1571.81 1184.96 1573.03 1185.57 1573.63C1195.91 1588.23 1194.09 1591.88 1190.44 1593.71C1186.79 1594.92 1180.1 1594.32 1177.06 1595.53H1175.23C1179.49 1601.01 1185.57 1605.26 1191.05 1609.52C1194.7 1606.48 1200.17 1604.05 1208.69 1602.22C1242.75 1596.14 1274.98 1597.36 1299.92 1608.91C1302.96 1610.74 1305.4 1612.56 1306.61 1615C1315.13 1609.52 1323.64 1603.44 1331.55 1596.14C1329.12 1597.96 1324.25 1596.14 1323.64 1592.49C1310.26 1518.28 1295.67 1506.73 1287.15 1450.77C1283.5 1431.91 1282.28 1411.84 1285.33 1393.59C1286.54 1387.51 1287.15 1382.64 1285.33 1375.95C1280.46 1357.71 1280.46 1338.85 1284.72 1320.6C1287.76 1314.52 1294.45 1306.61 1299.92 1299.31C1304.18 1293.84 1307.22 1287.15 1309.66 1280.46C1312.09 1273.16 1335.81 1237.88 1355.88 1232.41C1357.71 1231.8 1357.71 1231.19 1358.32 1229.37C1358.32 1227.54 1355.27 1227.54 1355.27 1225.11C1355.88 1211.12 1444.08 1218.42 1490.31 1222.67C1507.94 1220.85 1525.58 1218.42 1542.01 1215.38C1545.05 1214.77 1545.05 1215.98 1543.22 1217.81C1529.23 1233.01 1509.77 1241.53 1491.52 1243.36C1487.87 1243.96 1487.26 1245.79 1486.66 1248.22C1476.32 1299.92 1401.5 1324.86 1369.26 1318.78C1367.44 1318.17 1366.83 1319.99 1367.44 1321.21C1369.87 1347.37 1358.32 1350.41 1348.58 1427.65C1347.97 1431.91 1347.97 1435.56 1348.58 1440.43C1350.41 1453.2 1354.06 1464.76 1356.49 1478.14C1402.11 1448.34 1453.2 1424.61 1501.25 1404.54C1510.99 1393.59 1520.72 1383.86 1530.45 1372.3C1533.49 1368.65 1538.36 1366.22 1543.83 1364.4C1582.15 1348.58 1621.08 1323.04 1649.67 1292.02C1650.28 1290.8 1652.1 1288.97 1651.49 1287.15C1642.37 1245.79 1669.74 1233.62 1687.38 1202.6C1689.81 1198.34 1687.38 1197.74 1684.34 1195.91C1665.48 1183.75 1648.45 1167.32 1635.07 1152.12C1632.03 1147.25 1630.81 1141.78 1629.59 1136.3C1615.6 1071.83 1644.19 1066.96 1649.06 1029.86C1648.45 1011 1653.92 989.715 1659.4 970.251C1666.09 947.746 1669.13 929.498 1677.04 916.725C1680.69 804.199 1715.97 829.745 1706.23 770.137C1703.8 757.972 1697.72 736.683 1689.81 721.477C1691.03 723.301 1690.42 722.693 1689.2 722.693ZM1667.31 744.59H1669.13C1673.39 744.59 1676.43 747.631 1676.43 751.281C1677.04 758.58 1678.86 765.271 1680.08 771.961C1653.92 834.003 1669.13 919.158 1635.07 971.467C1633.24 1017.09 1627.77 1046.28 1600.4 1064.53C1599.18 1065.14 1597.97 1065.14 1596.75 1064.53C1553.56 1043.24 1514.64 999.447 1476.92 964.777C1535.92 926.457 1482.4 886.312 1524.37 842.518C1573.03 790.817 1616.21 785.951 1660.62 747.631C1663.66 745.198 1665.48 744.59 1667.31 744.59ZM823.663 747.631C829.138 747.631 835.22 750.673 839.478 754.93C883.272 773.786 879.014 791.425 913.076 808.456C920.375 812.106 932.54 818.797 942.272 821.23C946.53 836.436 953.829 835.828 969.643 863.199C973.293 869.89 987.283 880.838 989.107 889.962C990.324 895.436 989.716 900.91 989.716 906.385C989.107 921.591 983.025 936.797 991.54 943.488C998.231 947.137 993.973 950.787 1006.75 956.869C1013.44 959.911 1016.48 962.952 1012.83 969.643C1002.49 987.282 990.324 1001.88 978.767 1018.3C975.726 1021.95 971.468 1024.99 967.21 1027.43C942.88 1042.02 922.2 1062.7 900.303 1082.17C899.086 1083.39 898.478 1082.17 897.262 1081.56C875.973 1069.4 870.499 1048.72 867.457 1020.13C860.158 944.096 844.952 1009.79 819.406 782.91C815.756 772.57 812.107 754.322 815.148 750.064C817.581 748.848 820.622 747.631 823.663 747.631ZM1320 895.436C1300.53 931.931 1290.8 928.282 1278.63 942.271C1278.03 943.488 1276.81 944.704 1276.2 945.921C1275.59 947.137 1274.38 948.354 1273.77 950.179C1272.55 951.395 1271.94 953.22 1271.94 954.436C1271.94 955.653 1271.34 956.869 1271.34 958.086C1271.94 969.643 1270.12 974.509 1273.16 978.766C1273.16 978.766 1273.77 979.375 1273.77 979.983V981.199C1273.77 981.808 1273.77 983.024 1273.16 983.632C1270.73 982.416 1267.69 979.375 1264.64 976.942C1262.21 975.117 1260.39 973.292 1259.78 971.467C1259.78 970.859 1259.17 970.251 1259.17 969.643V967.21C1259.17 964.777 1257.95 964.777 1257.35 961.735C1257.35 960.519 1256.74 958.086 1256.74 953.828V945.921C1256.74 944.096 1256.74 942.88 1257.35 942.271C1257.35 941.663 1257.95 941.663 1257.95 941.055L1259.17 939.838C1276.2 920.374 1299.92 908.209 1320 895.436ZM1179.49 899.694C1197.74 912.467 1218.42 928.89 1239.1 945.921C1239.71 946.529 1239.71 947.137 1240.31 947.746C1241.53 949.57 1242.14 951.395 1242.14 954.436C1240.92 962.344 1237.27 969.643 1234.23 976.942C1234.23 977.55 1233.62 977.55 1233.62 977.55L1233.02 978.158H1231.19C1227.54 973.292 1223.89 969.034 1220.24 964.168C1219.03 962.952 1217.81 961.127 1217.81 959.302V955.045V951.395C1217.81 948.962 1216.59 947.137 1215.98 945.921C1214.16 942.88 1210.51 941.055 1205.64 939.838C1201.39 938.622 1197.74 936.797 1194.09 934.364C1189.22 930.715 1186.18 926.457 1183.75 920.983C1180.71 913.684 1179.49 907.601 1179.49 899.694ZM1424.01 1077.3C1428.87 1077.3 1434.35 1077.91 1439.21 1079.13C1444.08 1080.34 1449.55 1082.17 1453.81 1084.6C1455.03 1085.21 1455.64 1087.03 1453.81 1087.64C1446.51 1089.47 1439.21 1091.9 1431.31 1094.94C1427.66 1096.16 1424.01 1097.98 1420.36 1099.81C1401.5 1108.32 1382.04 1118.66 1363.18 1128.4C1361.36 1129 1359.53 1129 1358.92 1127.79C1358.92 1127.18 1358.32 1127.18 1358.32 1125.96C1357.71 1124.14 1357.71 1121.71 1358.32 1119.88C1358.32 1118.06 1358.92 1115.62 1358.92 1113.8C1358.92 1110.76 1360.75 1110.76 1361.96 1108.93C1365.61 1107.72 1368.66 1106.5 1371.09 1105.28C1378.39 1101.63 1381.43 1099.2 1383.86 1097.38C1385.69 1095.55 1387.51 1094.33 1389.34 1092.51C1391.77 1090.68 1394.81 1088.86 1399.68 1086.43C1402.72 1085.21 1405.76 1083.99 1408.19 1082.78C1411.23 1081.56 1414.27 1080.34 1416.71 1079.13C1419.75 1078.52 1422.18 1077.91 1424.01 1077.3ZM1053.58 1081.56H1054.8C1056.01 1082.17 1057.23 1082.78 1057.84 1082.78L1059.66 1084.6C1062.1 1086.43 1062.71 1088.86 1068.79 1091.29C1070 1091.9 1071.83 1092.51 1074.26 1093.73C1076.09 1094.33 1079.13 1094.94 1081.56 1096.16C1088.86 1098.59 1093.73 1099.81 1098.59 1101.63C1103.46 1103.46 1107.72 1105.89 1113.8 1109.54C1115.62 1110.76 1118.06 1112.58 1119.88 1114.41C1122.31 1116.23 1124.75 1118.06 1127.18 1120.49C1128.4 1121.71 1129.61 1122.31 1129.61 1123.53V1125.35C1129.61 1125.96 1129 1126.57 1129 1127.18C1128.4 1128.4 1127.18 1129.61 1126.57 1130.22C1125.96 1130.22 1125.96 1130.83 1125.36 1130.83H1124.14C1122.31 1130.22 1121.1 1130.22 1119.27 1129.61L1115.62 1127.79C1114.41 1127.18 1113.19 1126.57 1112.58 1125.96C1111.37 1125.35 1110.76 1124.14 1110.15 1123.53C1108.32 1121.71 1106.5 1120.49 1104.67 1118.66C1103.46 1118.06 1102.24 1116.84 1101.03 1116.23C1099.81 1115.62 1097.98 1114.41 1096.16 1113.8C1094.33 1113.19 1093.12 1112.58 1091.29 1113.19C1090.69 1113.19 1090.08 1113.19 1090.08 1113.8C1088.25 1114.41 1086.43 1113.8 1084.6 1113.19C1083.39 1112.58 1081.56 1112.58 1079.74 1111.97C1068.18 1107.11 1052.97 1095.55 1052.97 1082.17C1052.97 1082.17 1052.97 1081.56 1053.58 1081.56C1052.97 1081.56 1052.97 1081.56 1053.58 1081.56ZM1078.52 1213.55C1081.56 1213.55 1085.21 1213.55 1088.25 1214.16C1091.29 1214.77 1094.94 1214.77 1098.59 1215.38C1101.03 1215.98 1104.07 1216.59 1106.5 1217.2C1107.11 1217.2 1108.32 1217.81 1108.93 1217.81C1110.76 1218.42 1111.97 1218.42 1113.8 1219.03C1115.62 1219.63 1118.06 1220.24 1119.88 1220.85C1122.92 1222.07 1125.96 1222.67 1128.4 1224.5L1135.7 1228.15C1138.13 1229.37 1140.56 1231.19 1142.99 1232.41C1144.82 1233.62 1147.25 1234.84 1149.08 1236.66C1150.29 1237.27 1150.9 1237.88 1151.51 1238.49C1152.73 1239.71 1154.55 1240.92 1155.77 1242.14C1156.38 1242.14 1156.38 1242.75 1156.98 1242.75L1157.59 1243.36C1158.2 1243.96 1158.81 1243.96 1158.81 1244.57L1164.28 1250.05L1171.58 1257.34L1172.19 1257.95C1174.02 1260.39 1176.45 1262.82 1178.27 1265.25C1179.49 1267.08 1180.71 1268.29 1181.92 1270.12C1183.14 1271.33 1183.75 1272.55 1184.96 1274.38C1187.4 1277.42 1189.22 1281.07 1191.05 1284.11C1191.65 1285.32 1192.26 1287.15 1192.26 1288.37C1192.26 1288.97 1192.26 1288.97 1191.65 1289.58C1189.83 1293.84 1188.61 1297.49 1187.4 1302.36C1187.4 1302.96 1186.79 1303.57 1186.18 1303.57H1185.57C1182.53 1301.75 1179.49 1299.31 1176.45 1297.49C1173.41 1295.66 1170.97 1293.23 1168.54 1290.8C1166.11 1288.37 1163.68 1286.54 1161.24 1284.11C1138.74 1263.43 1123.53 1240.92 1093.12 1234.84C1079.74 1232.41 1063.31 1233.01 1042.63 1238.49C1035.94 1239.1 1028.04 1239.1 1020.13 1238.49C1012.22 1237.88 1004.31 1236.66 996.406 1235.45C992.757 1234.84 989.107 1234.23 985.458 1233.01C981.808 1232.41 978.767 1231.19 975.726 1230.58C969.643 1228.76 964.777 1226.93 961.128 1225.11C976.942 1225.11 993.973 1225.11 1009.18 1224.5C1024.39 1223.89 1036.55 1222.67 1042.63 1221.46C1044.46 1220.24 1046.89 1219.63 1049.93 1219.03C1052.37 1218.42 1055.41 1217.2 1057.84 1216.59H1058.45C1060.88 1215.98 1063.92 1215.38 1066.96 1215.38H1068.18C1071.22 1214.16 1074.87 1214.16 1078.52 1213.55ZM1410.02 1239.1C1396.63 1239.71 1382.04 1245.18 1365.61 1259.17C1340.68 1283.5 1320 1313.91 1303.57 1343.11C1301.75 1346.76 1301.14 1349.8 1301.75 1353.45C1320 1437.39 1327.9 1479.36 1331.55 1501.25L1343.72 1491.52C1336.42 1471.45 1332.77 1446.51 1335.2 1417.31C1343.72 1394.81 1348.58 1368.05 1352.23 1343.11C1365.61 1315.13 1366.83 1303.57 1379.6 1304.18C1391.16 1304.79 1402.72 1305.4 1413.67 1302.96C1417.92 1302.36 1420.96 1300.53 1424.61 1298.1C1442.86 1287.15 1458.07 1272.55 1470.84 1256.13C1472.67 1254.3 1473.27 1250.65 1472.67 1249.44C1472.06 1248.22 1471.45 1247.61 1469.62 1247.61C1450.77 1248.83 1431.91 1237.88 1410.02 1239.1ZM1403.93 1241.53C1407.58 1241.53 1411.23 1242.14 1414.27 1243.96C1420.96 1247 1426.44 1251.87 1428.87 1258.56C1430.09 1261.6 1431.31 1265.25 1431.31 1268.9C1431.31 1272.55 1430.7 1276.2 1429.48 1279.24C1428.26 1282.89 1425.83 1285.93 1423.4 1288.37C1416.1 1295.66 1404.54 1298.71 1394.2 1294.45C1392.38 1293.84 1390.55 1293.23 1389.34 1292.02C1387.51 1290.8 1386.29 1289.58 1385.08 1288.37C1377.78 1281.07 1374.74 1269.51 1379 1259.17L1380.82 1255.52L1381.43 1254.91C1382.04 1254.3 1382.04 1253.7 1382.65 1253.7C1383.25 1252.48 1384.47 1251.87 1385.08 1251.26L1385.69 1250.65C1386.9 1249.44 1388.12 1248.22 1389.34 1247.61L1392.99 1245.79H1393.59C1394.2 1245.79 1394.2 1245.18 1394.81 1245.18C1396.03 1244.57 1397.85 1243.96 1399.68 1243.96C1400.28 1241.53 1402.11 1241.53 1403.93 1241.53ZM1100.42 1241.53C1104.07 1241.53 1107.11 1242.14 1110.76 1243.36C1112.58 1243.96 1114.41 1244.57 1115.62 1245.79C1117.45 1247 1118.66 1248.22 1119.88 1249.44C1121.1 1250.65 1122.31 1251.87 1123.53 1253.7C1125.36 1256.74 1127.18 1259.78 1127.79 1263.43C1129 1268.29 1128.4 1273.77 1126.57 1279.24C1125.96 1281.07 1124.75 1282.28 1124.14 1284.11C1120.49 1290.19 1113.8 1293.84 1107.11 1295.66C1103.46 1296.27 1100.42 1296.27 1096.77 1295.66C1094.94 1295.66 1093.12 1295.06 1091.29 1294.45C1089.47 1293.84 1087.64 1292.62 1086.43 1292.02C1083.39 1290.19 1080.95 1287.76 1079.13 1284.72C1074.26 1277.42 1073.05 1268.29 1076.09 1259.78C1076.7 1257.95 1077.91 1256.74 1078.52 1254.91C1079.13 1253.7 1080.34 1252.48 1081.56 1251.26L1082.17 1250.65C1083.39 1249.44 1084.6 1248.22 1085.82 1247.61L1089.47 1245.79C1090.69 1245.18 1091.9 1245.18 1093.12 1244.57C1094.33 1243.96 1095.55 1243.96 1096.77 1243.36H1097.38C1097.98 1242.14 1099.2 1241.53 1100.42 1241.53ZM1014.05 1254.91H1016.48C1017.7 1254.91 1018.91 1255.52 1020.13 1256.13C1021.34 1256.74 1023.17 1257.34 1024.99 1258.56C1026.82 1259.78 1028.04 1260.39 1030.47 1262.21L1031.08 1262.82C1032.9 1264.04 1034.12 1265.25 1035.94 1266.47C1037.77 1267.69 1039.59 1269.51 1041.42 1270.73C1045.07 1273.77 1049.32 1276.81 1054.19 1280.46C1056.62 1282.28 1059.06 1283.5 1061.49 1285.32C1063.31 1286.54 1065.14 1287.76 1067.57 1288.97C1068.18 1289.58 1069.4 1290.19 1070 1290.19L1077.3 1293.84C1079.74 1295.06 1082.17 1296.27 1085.21 1297.49C1085.82 1298.1 1087.04 1298.1 1087.64 1298.71C1090.08 1299.92 1093.12 1300.53 1096.16 1301.14C1099.81 1302.36 1102.85 1302.96 1106.5 1303.57C1110.15 1304.18 1113.8 1304.79 1117.45 1304.79C1121.1 1305.4 1125.36 1305.4 1129.61 1305.4C1130.22 1305.4 1130.83 1305.4 1131.44 1306C1132.05 1306.61 1132.05 1306.61 1132.65 1307.83C1132.65 1314.52 1126.57 1316.95 1120.49 1316.95H1108.93C1097.38 1316.35 1086.43 1315.74 1074.87 1313.91C1073.65 1313.91 1072.44 1313.3 1071.22 1313.3C1070 1312.7 1069.4 1312.09 1068.18 1311.48C1064.53 1309.05 1060.88 1306.61 1057.23 1303.57L1046.28 1294.45C1042.63 1291.41 1039.59 1288.37 1036.55 1285.93C1033.51 1283.5 1031.68 1281.07 1029.86 1279.24C1028.04 1278.03 1026.82 1276.81 1025.6 1275.59C1024.39 1274.38 1023.78 1273.16 1023.17 1272.55C1021.95 1270.73 1021.34 1269.51 1020.13 1268.29C1019.52 1267.69 1019.52 1267.08 1018.91 1266.47C1017.7 1264.64 1014.65 1263.43 1009.18 1260.39C1008.57 1260.39 1007.96 1259.78 1007.96 1259.17V1258.56C1007.96 1258.56 1008.57 1257.95 1008.57 1257.34C1009.18 1256.74 1009.79 1256.74 1010.4 1256.13C1011 1255.52 1011.61 1255.52 1012.22 1255.52C1012.83 1255.52 1013.44 1254.91 1014.05 1254.91Z" fill="#FDBE11"/>
</svg>
