<svg width="2500" height="2500" viewBox="0 0 2500 2500" fill="none" xmlns="http://www.w3.org/2000/svg">
<g clip-path="url(#clip0_158_647)">
<path fill-rule="evenodd" clip-rule="evenodd" d="M2381.95 1499.54C2321.15 1461.62 2216.81 1419.19 2070.65 1418.78C1773.66 1417.89 1586.79 1546.32 1306.65 1565.65V951.929C1368.81 1004.08 1543.83 1042.94 1690.16 1028.11C1796.98 1017.28 1888.51 981.63 1896.31 897.91C1988.42 960.71 2184.45 973.848 2233.42 888.52C2269.63 825.513 2196.96 762.311 2023.61 771.027C2131.84 741.028 2149.38 689.382 2114.35 654.507C2080.42 620.707 1997.05 602.666 1898.97 635.363C1983.78 579.347 1985.47 528.531 1944.51 490.348C1900.97 449.714 1801.8 432.244 1677.28 462.282C1776.82 401.103 1785.03 326.333 1724.81 280.614C1626.23 220.409 1504.77 227.036 1413.28 271.393C1444.18 181.408 1306.67 149.646 1250.09 148.906C1193.52 149.646 1055.96 181.396 1086.83 271.393C995.369 227.036 873.912 220.409 775.303 280.614C715.084 326.333 723.296 401.103 822.856 462.282C698.359 432.244 599.171 449.714 555.63 490.348C514.688 528.518 516.335 579.347 601.165 635.363C503.09 602.666 419.744 620.707 385.784 654.507C350.757 689.382 368.294 741.028 476.53 771.027C303.181 762.298 230.506 825.5 266.693 888.52C315.684 973.848 511.696 960.697 603.833 897.91C611.627 981.63 703.161 1017.28 809.959 1028.11C956.306 1042.95 1131.33 1004.08 1193.47 951.929V1565.65C913.346 1546.32 726.474 1417.88 429.487 1418.78C283.325 1419.18 176.736 1461.62 116.448 1500.04L115.938 1719.23C176.759 1680.91 283.325 1638.47 429.487 1638.04C746.261 1637.11 936.96 1783.21 1250.07 1787.19C1563.18 1783.21 1753.81 1637.11 2070.6 1638.04C2216.77 1638.47 2321.11 1680.91 2381.9 1719.23V1499.54H2381.95Z" fill="white"/>
<path fill-rule="evenodd" clip-rule="evenodd" d="M1044.83 2153.48V2299.49H912.513V1918.32H1117.11C1175.05 1918.32 1218.08 1926.51 1246.29 1942.9C1274.52 1959.29 1288.62 1986.17 1288.62 2023.53C1288.62 2045.19 1283.36 2065.2 1272.71 2079.19C1262.09 2093.17 1199.18 2113.69 1171.25 2121.92C1263.53 2150.57 1264.92 2173.57 1275.73 2230.17C1295.07 2330.92 1393.61 2346.39 1534.83 2351.25L1535.3 2425.62C1495.75 2424.26 1347.73 2437.66 1245.34 2386.61C1147.66 2337.92 1155.82 2260.89 1140.93 2189.08C1133.18 2151.73 1095.42 2151.54 1044.83 2153.48ZM1044.83 1982.21V2094.87H1100.34C1133.72 2094.87 1150.42 2070.15 1150.42 2038.68C1150.42 2024.27 1147.12 2008.28 1140.49 2001.55C1133.93 1994.88 1124.3 1985.74 1111.68 1984.25C1103.63 1983.42 1095.51 1982.85 1087.35 1982.52C1076.88 1982.03 1057.54 1982.21 1044.83 1982.21ZM1250.12 148.908C1306.69 149.648 1444.2 181.398 1413.31 271.395C1504.77 227.038 1626.25 220.411 1724.84 280.616C1785.06 326.335 1776.84 401.106 1677.31 462.284C1801.8 432.246 1900.99 449.716 1944.53 490.351C1985.5 528.521 1983.8 579.349 1899 635.365C1997.1 602.669 2080.44 620.71 2114.38 654.509C2149.41 689.385 2131.87 741.03 2023.63 771.029C2196.98 762.301 2269.63 825.502 2233.45 888.522C2184.48 973.85 1988.44 960.699 1896.33 897.912C1888.54 981.632 1797.03 1017.29 1690.18 1028.12C1543.83 1042.95 1368.81 1004.08 1306.67 951.931V1565.65C1586.79 1546.32 1773.69 1417.88 2070.68 1418.78C2216.84 1419.18 2321.18 1461.62 2381.98 1499.97V1386.13C2321.18 1347.81 2216.84 1305.37 2070.68 1304.94C1847.94 1304.28 1689.25 1376.35 1504.79 1420.58V1141.15C1592.41 1174.86 1716.7 1186.85 1819.76 1164.12C1899.9 1146.43 1967.22 1107.71 1994.5 1041.85C2110.9 1062.11 2211.06 1062.75 2291.11 1047.97C2436.19 1021.2 2513.25 941.128 2498.26 858.653C2486.24 792.754 2416.93 728.177 2300.72 714.014C2353.72 681.68 2367.27 627 2334.47 591.605C2305.52 560.374 2248.34 538.274 2172.09 540.92C2225.95 499.689 2214.87 428.952 2175.32 400.107C2130.96 367.747 2052.49 355.219 1938.73 364.44C2025.26 296.725 1986.45 204.186 1912.5 164.109C1828.9 118.806 1664.71 101.815 1537.22 127.768C1515.46 57.4327 1420.66 -0.983094 1250.14 -0.230848C1079.62 -0.996064 984.701 57.4198 962.966 127.755C835.454 101.815 671.314 118.793 587.713 164.096C513.762 204.173 474.931 296.712 561.455 364.427C447.698 355.206 369.224 367.734 324.872 400.094C285.322 428.952 274.234 499.676 328.12 540.907C251.849 538.261 194.692 560.361 165.72 591.592C132.896 626.987 146.467 681.667 199.494 714.001C83.2556 728.177 13.9439 792.741 1.95122 858.64C-13.057 941.115 64.0255 1021.19 209.097 1047.96C289.149 1062.73 389.336 1062.08 505.713 1041.84C532.969 1107.71 600.309 1146.41 680.454 1164.1C783.516 1186.84 907.804 1174.84 995.418 1141.13V1420.55C810.958 1376.33 652.293 1304.26 429.559 1304.92C283.396 1305.34 176.808 1347.78 116.009 1386.11V1499.94C176.831 1461.59 283.396 1419.15 429.559 1418.75C726.522 1417.87 913.418 1546.3 1193.54 1565.62V951.931C1131.37 1004.08 956.378 1042.94 810.03 1028.12C703.233 1017.29 611.699 981.632 603.905 897.912C511.791 960.712 315.779 973.85 266.764 888.522C230.554 825.515 303.253 762.313 476.601 771.029C368.366 741.03 350.829 689.385 385.856 654.509C419.793 620.71 503.162 602.669 601.237 635.365C516.407 579.349 514.76 528.533 555.702 490.351C599.242 449.716 698.431 432.246 822.928 462.284C723.368 401.106 715.156 326.335 775.375 280.616C873.96 220.411 995.441 227.038 1086.91 271.395C1055.98 181.398 1193.54 149.648 1250.12 148.908ZM1250.12 1618.34C1563.23 1614.36 1753.86 1468.26 2070.65 1469.19C2216.82 1469.62 2321.15 1512.06 2381.95 1550.38V1664.22C2321.15 1625.87 2216.82 1583.43 2070.65 1583.03C1753.88 1582.09 1563.23 1728.2 1250.12 1732.18C937.009 1728.2 746.309 1582.09 429.535 1583.03C283.373 1583.43 176.785 1625.87 115.986 1664.22V1550.38C176.808 1512.06 283.373 1469.62 429.535 1469.19C746.309 1468.26 937.009 1614.36 1250.12 1618.34ZM1250.12 1787.2C1563.23 1783.22 1753.86 1637.11 2070.65 1638.04C2216.82 1638.47 2321.15 1680.91 2381.95 1719.24V1833.12C2321.15 1794.75 2216.82 1752.32 2070.65 1751.88C1753.88 1750.95 1563.23 1897.05 1250.12 1901.03C937.009 1897.05 746.309 1750.95 429.535 1751.88C283.373 1752.31 176.785 1794.75 115.986 1833.12V1719.24C176.808 1680.91 283.373 1638.47 429.535 1638.04C746.309 1637.11 937.009 1783.23 1250.12 1787.2ZM1703.5 2171.91H1839.64V2198.7C1839.64 2226.16 1859.03 2239.87 1897.81 2239.87C1914.4 2239.87 1926.81 2236.25 1934.98 2228.95C1943.14 2221.7 1947.15 2212.68 1947.15 2201.89C1947.15 2187.83 1940.89 2177.25 1928.39 2170.13C1922.12 2166.68 1913.89 2162.76 1903.57 2158.38C1893.25 2154 1880.51 2148.98 1865.29 2143.31C1812.82 2125.15 1775.87 2108.5 1754.39 2093.45C1725.93 2072.8 1711.62 2047.37 1711.62 2017.28C1711.62 1982.02 1727.92 1955.22 1760.37 1936.78C1792.8 1918.31 1838.08 1909.09 1896.28 1909.09C1956.04 1909.09 2001.94 1920.09 2034.19 1941.99C2066.41 1963.9 2082.48 1994.14 2082.48 2032.7H1947.15C1947.15 2027.23 1946.83 2022.21 1946.11 2017.66C1945.45 2012.77 1944.52 2007.89 1943.3 2003.04C1942.07 1997.83 1938.08 1992.51 1931.29 1987.04C1927.96 1984.14 1923.42 1981.74 1918.07 1980.04C1912.73 1978.4 1906.28 1977.57 1898.67 1977.57C1868.82 1977.57 1851.82 1986.08 1847.76 2003.1C1847.76 2014.35 1851.19 2023.32 1858.08 2029.93C1864.97 2036.53 1876.33 2043.19 1891.97 2049.81L1941.93 2068.17C1965.71 2076.6 1983.67 2083.22 1995.75 2088.11C2007.77 2093 2018.76 2098.11 2028.41 2103.61C2064.44 2124.1 2085.92 2154.5 2085.92 2194.69C2085.92 2218.71 2075.36 2239.23 2061.1 2256.38C2046.88 2273.47 2025.63 2286.49 1997.26 2295.34C1968.98 2304.16 1934.56 2308.61 1894.2 2308.61C1851.61 2308.61 1815.63 2304.68 1787.44 2295.59C1704.12 2268.65 1707.49 2221.76 1703.5 2171.91Z" fill="#CC2229"/>
<path fill-rule="evenodd" clip-rule="evenodd" d="M2074.04 1994.46V1918.32H2436.53V1994.46H2323.59V2299.47H2183.87V1994.46H2074.04ZM434.266 2111.57C434.266 2049.7 453.681 2001.56 492.466 1967.1C531.181 1932.65 585.23 1915.45 654.356 1915.45C725.314 1915.45 780.012 1932.38 818.356 1966.16C856.747 2000.03 875.953 2047.46 875.953 2108.46C875.953 2152.68 867.556 2189.01 850.785 2217.31C834.037 2245.7 809.773 2267.72 778.063 2283.48C746.423 2299.29 706.896 2307.14 659.621 2307.14C611.534 2307.14 571.706 2300.33 540.228 2286.73C508.75 2273.09 483.211 2251.59 463.633 2222.11C444.078 2192.66 434.266 2155.8 434.266 2111.57ZM580.196 2112.05C580.196 2155.98 586.876 2187.46 600.354 2206.64C613.808 2225.77 632.087 2235.31 655.26 2235.31C679.037 2235.31 697.525 2225.99 710.538 2207.17C723.574 2188.45 730.07 2154.76 730.07 2106.12C730.07 2065.24 723.296 2035.35 709.657 2016.55C696.063 1997.66 677.599 1988.25 654.24 1988.25C631.948 1988.25 613.97 1997.8 600.447 2017.01C586.946 2036.11 580.196 2067.82 580.196 2112.05Z" fill="#CC2229"/>
<path fill-rule="evenodd" clip-rule="evenodd" d="M258.135 2299.48H118.422V1918.32H452.152V1994.47H258.135V2072.92H439.301V2149.31H258.135V2299.48ZM1575.01 2172.32H1702.55C1699.18 2210.54 1682.06 2243.93 1647.92 2268.93C1613.8 2293.94 1570.39 2306.45 1517.53 2306.45C1447.94 2306.45 1397.11 2290.37 1365.17 2258.27C1333.18 2226.2 1317.25 2176.57 1317.25 2109.39C1317.25 2047.15 1335.18 1998.99 1370.93 1964.9C1406.67 1930.8 1454.6 1913.78 1514.63 1913.78C1586.26 1913.78 1637.41 1935.39 1668.12 1978.5C1694.03 2014.8 1707.05 2067.93 1707.05 2138.04H1446.94C1446.94 2161.57 1449.52 2179.51 1454.87 2191.75C1464.94 2215.25 1483.41 2227.04 1510.34 2227.04C1526.65 2227.04 1540.66 2223.37 1552.12 2215.99C1566.54 2206.74 1573.11 2190.96 1575.01 2172.32ZM1578.77 2063.8C1575.87 2035.87 1568.58 2015.65 1556.8 2003.13C1544.97 1990.64 1529.48 1984.39 1510.31 1984.39C1492.59 1984.39 1478.23 1991.28 1467.45 2004.98C1456.61 2018.67 1451.23 2038.34 1451.23 2063.8H1578.77Z" fill="#CC2229"/>
</g>
<defs>
<clipPath id="clip0_158_647">
<rect width="2500" height="2500" fill="white"/>
</clipPath>
</defs>
</svg>
