<svg width="2500" height="2500" viewBox="0 0 2500 2500" fill="none" xmlns="http://www.w3.org/2000/svg">
<path fill-rule="evenodd" clip-rule="evenodd" d="M1883.98 1536.78C1849.98 1498.86 1791.65 1456.43 1709.92 1456.02C1543.87 1455.14 1439.39 1583.56 1282.75 1602.89V989.171C1317.51 1041.32 1415.37 1080.18 1497.18 1065.36C1556.91 1054.53 1608.08 1018.87 1612.44 935.152C1663.95 997.952 1773.55 1011.09 1800.93 925.762C1821.18 862.755 1780.54 799.553 1683.62 808.269C1744.14 778.27 1753.94 726.624 1734.36 691.749C1715.38 657.95 1668.77 639.909 1613.93 672.605C1661.35 616.589 1662.3 565.773 1639.39 527.59C1615.05 486.956 1559.6 469.486 1489.98 499.524C1545.64 438.345 1550.23 363.575 1516.56 317.856C1461.44 257.651 1393.53 264.278 1342.37 308.635C1359.65 218.651 1282.76 186.888 1251.13 186.148C1219.5 186.888 1142.59 218.638 1159.85 308.635C1108.71 264.278 1040.8 257.651 985.666 317.856C951.996 363.575 956.587 438.345 1012.25 499.524C942.645 469.486 887.186 486.956 862.842 527.59C839.95 565.76 840.871 616.589 888.302 672.605C833.465 639.909 786.865 657.95 767.877 691.749C748.293 726.624 758.098 778.27 818.615 808.269C721.692 799.54 681.058 862.742 701.291 925.762C728.683 1011.09 838.277 997.939 889.793 935.152C894.151 1018.87 945.33 1054.53 1005.04 1065.36C1086.87 1080.19 1184.73 1041.32 1219.47 989.171V1602.89C1062.85 1583.56 958.364 1455.12 792.312 1456.02C710.59 1456.42 650.994 1498.86 617.285 1537.29L617 1756.48C651.007 1718.15 710.59 1675.71 792.312 1675.28C969.427 1674.35 1076.05 1820.46 1251.12 1824.44C1426.18 1820.46 1532.77 1674.35 1709.9 1675.28C1791.62 1675.71 1849.96 1718.15 1883.95 1756.48V1536.78H1883.98Z" fill="white"/>
<path fill-rule="evenodd" clip-rule="evenodd" d="M1135.13 2190.71V2336.73H1061.15V1955.56H1175.54C1207.94 1955.56 1232 1963.74 1247.77 1980.14C1263.55 1996.53 1271.44 2023.4 1271.44 2060.77C1271.44 2082.43 1268.5 2102.44 1262.54 2116.42C1256.6 2130.41 1221.43 2150.92 1205.81 2159.16C1257.41 2187.81 1258.18 2210.8 1264.23 2267.4C1275.05 2368.15 1330.14 2383.63 1409.1 2388.49L1409.36 2462.86C1387.25 2461.5 1304.49 2474.9 1247.24 2423.85C1192.62 2375.16 1197.19 2298.13 1188.86 2226.32C1184.53 2188.96 1163.41 2188.78 1135.13 2190.71ZM1135.13 2019.45V2132.1H1166.16C1184.83 2132.1 1194.17 2107.38 1194.17 2075.92C1194.17 2061.51 1192.32 2045.52 1188.62 2038.79C1184.94 2032.12 1179.56 2022.98 1172.51 2021.49C1168.01 2020.66 1163.46 2020.09 1158.9 2019.76C1153.05 2019.27 1142.24 2019.45 1135.13 2019.45ZM1249.91 186.147C1281.54 186.886 1358.43 218.636 1341.15 308.633C1392.29 264.277 1460.21 257.649 1515.34 317.855C1549.01 363.573 1544.41 438.344 1488.76 499.522C1558.37 469.484 1613.83 486.955 1638.17 527.589C1661.08 565.759 1660.13 616.587 1612.71 672.604C1667.56 639.907 1714.16 657.948 1733.14 691.747C1752.72 726.623 1742.92 778.268 1682.4 808.267C1779.32 799.539 1819.94 862.74 1799.71 925.761C1772.33 1011.09 1662.72 997.937 1611.22 935.151C1606.86 1018.87 1555.7 1054.52 1495.96 1065.35C1414.13 1080.19 1316.28 1041.32 1281.53 989.17V1602.89C1438.15 1583.56 1542.65 1455.12 1708.7 1456.02C1790.43 1456.42 1848.76 1498.86 1882.76 1537.21V1423.37C1848.76 1385.05 1790.43 1342.61 1708.7 1342.18C1584.17 1341.52 1495.44 1413.59 1392.31 1457.82V1178.39C1441.29 1212.09 1510.78 1224.09 1568.41 1201.36C1613.22 1183.66 1650.86 1144.95 1666.11 1079.09C1731.19 1099.35 1787.2 1099.98 1831.95 1085.21C1913.07 1058.44 1956.15 978.366 1947.77 895.891C1941.06 829.992 1902.3 765.415 1837.32 751.252C1866.96 718.919 1874.53 664.238 1856.19 628.844C1840.01 597.613 1808.04 575.512 1765.41 578.158C1795.52 536.927 1789.32 466.19 1767.21 437.345C1742.41 404.986 1698.53 392.457 1634.93 401.678C1683.31 333.963 1661.61 241.424 1620.26 201.347C1573.52 156.044 1481.72 139.054 1410.44 165.006C1398.27 94.671 1345.26 36.2552 1249.92 37.0074C1154.58 36.2422 1101.51 94.658 1089.36 164.993C1018.06 139.054 926.289 156.031 879.546 201.334C838.198 241.411 816.487 333.95 864.864 401.665C801.26 392.444 757.383 404.973 732.585 437.332C710.472 466.19 704.272 536.914 734.401 578.145C691.756 575.499 659.799 597.6 643.6 628.831C625.247 664.225 632.835 718.906 662.484 751.239C597.492 765.415 558.738 829.979 552.033 895.878C543.642 978.353 586.74 1058.43 667.853 1085.2C712.612 1099.97 768.628 1099.32 833.697 1079.08C848.937 1144.95 886.588 1183.65 931.399 1201.34C989.023 1224.08 1058.52 1212.08 1107.5 1178.37V1457.79C1004.37 1413.57 915.653 1341.49 791.118 1342.15C709.395 1342.58 649.799 1385.02 615.805 1423.35V1537.18C649.812 1498.83 709.395 1456.39 791.118 1455.99C957.157 1455.11 1061.65 1583.54 1218.28 1602.86V989.17C1183.52 1041.32 1085.67 1080.18 1003.85 1065.35C944.135 1054.52 892.956 1018.87 888.599 935.151C837.096 997.95 727.501 1011.09 700.096 925.761C679.85 862.753 720.497 799.552 817.42 808.267C756.904 778.268 747.098 726.623 766.683 691.747C785.657 657.948 832.271 639.907 887.107 672.604C839.677 616.587 838.756 565.772 861.647 527.589C885.992 486.955 941.45 469.484 1011.06 499.522C955.393 438.344 950.802 363.573 984.471 317.855C1039.59 257.649 1107.52 264.277 1158.65 308.633C1141.37 218.636 1218.28 186.886 1249.91 186.147ZM1249.91 1655.58C1424.98 1651.6 1531.56 1505.5 1708.69 1506.43C1790.41 1506.86 1848.75 1549.29 1882.74 1587.62V1701.46C1848.75 1663.1 1790.41 1620.67 1708.69 1620.27C1531.57 1619.33 1424.98 1765.44 1249.91 1769.42C1074.84 1765.44 968.22 1619.33 791.105 1620.27C709.382 1620.67 649.786 1663.1 615.792 1701.46V1587.62C649.799 1549.29 709.382 1506.86 791.105 1506.43C968.22 1505.5 1074.84 1651.6 1249.91 1655.58ZM1249.91 1824.44C1424.98 1820.45 1531.56 1674.35 1708.69 1675.28C1790.41 1675.71 1848.75 1718.15 1882.74 1756.47V1870.36C1848.75 1831.98 1790.41 1789.56 1708.69 1789.12C1531.57 1788.19 1424.98 1934.29 1249.91 1938.27C1074.84 1934.29 968.22 1788.19 791.105 1789.12C709.382 1789.55 649.786 1831.98 615.792 1870.36V1756.47C649.799 1718.15 709.382 1675.71 791.105 1675.28C968.22 1674.35 1074.84 1820.47 1249.91 1824.44ZM1503.4 2209.14H1579.52V2235.94C1579.52 2263.4 1590.37 2277.11 1612.05 2277.11C1621.33 2277.11 1628.26 2273.49 1632.83 2266.19C1637.39 2258.94 1639.64 2249.92 1639.64 2239.13C1639.64 2225.07 1636.14 2214.49 1629.15 2207.37C1625.64 2203.92 1621.04 2200 1615.27 2195.62C1609.5 2191.23 1602.38 2186.21 1593.87 2180.55C1564.53 2162.39 1543.87 2145.74 1531.86 2130.69C1515.95 2110.04 1507.94 2084.61 1507.94 2054.52C1507.94 2019.25 1517.06 1992.46 1535.21 1974.02C1553.34 1955.55 1578.65 1946.33 1611.2 1946.33C1644.61 1946.33 1670.27 1957.32 1688.3 1979.23C1706.32 2001.14 1715.3 2031.38 1715.3 2069.94H1639.64C1639.64 2064.47 1639.46 2059.45 1639.06 2054.9C1638.69 2050.01 1638.16 2045.13 1637.49 2040.28C1636.8 2035.06 1634.57 2029.75 1630.77 2024.27C1628.91 2021.38 1626.37 2018.98 1623.37 2017.28C1620.39 2015.64 1616.79 2014.81 1612.53 2014.81C1595.84 2014.81 1586.33 2023.31 1584.06 2040.34C1584.06 2051.59 1585.98 2060.56 1589.83 2067.16C1593.69 2073.77 1600.04 2080.43 1608.78 2087.05L1636.72 2105.41C1650.01 2113.84 1660.05 2120.46 1666.81 2125.35C1673.53 2130.24 1679.68 2135.35 1685.07 2140.85C1705.21 2161.34 1717.22 2191.74 1717.22 2231.93C1717.22 2255.95 1711.32 2276.47 1703.35 2293.62C1695.4 2310.71 1683.52 2323.73 1667.65 2332.58C1651.84 2341.4 1632.6 2345.85 1610.03 2345.85C1586.22 2345.85 1566.1 2341.92 1550.34 2332.82C1503.75 2305.89 1505.64 2259 1503.4 2209.14Z" fill="#CC2229"/>
<path fill-rule="evenodd" clip-rule="evenodd" d="M1606.83 2031.71V1955.56H1809.51V2031.71H1746.36V2336.72H1668.24V2031.71H1606.83ZM690 2148.81C690 2086.95 700.856 2038.8 722.541 2004.34C744.188 1969.89 774.407 1952.7 813.057 1952.7C852.732 1952.7 883.314 1969.62 904.753 2003.41C926.218 2037.27 936.957 2084.7 936.957 2145.7C936.957 2189.93 932.262 2226.25 922.885 2254.55C913.521 2282.94 899.955 2304.97 882.225 2320.73C864.534 2336.54 842.434 2344.38 816.001 2344.38C789.115 2344.38 766.846 2337.57 749.246 2323.97C731.646 2310.34 717.366 2288.83 706.42 2259.35C695.486 2229.9 690 2193.04 690 2148.81ZM771.593 2149.29C771.593 2193.22 775.328 2224.7 782.863 2243.88C790.386 2263.01 800.606 2272.56 813.563 2272.56C826.857 2272.56 837.194 2263.23 844.47 2244.41C851.759 2225.7 855.39 2192 855.39 2143.36C855.39 2102.48 851.603 2072.59 843.977 2053.79C836.377 2034.9 826.053 2025.49 812.992 2025.49C800.528 2025.49 790.477 2035.04 782.915 2054.25C775.367 2073.35 771.593 2105.06 771.593 2149.29Z" fill="#CC2229"/>
<path fill-rule="evenodd" clip-rule="evenodd" d="M884.117 2336.71H806V1955.56H992.596V2031.7H884.117V2110.16H985.411V2186.55H884.117V2336.71ZM1620.41 2209.56H1691.72C1689.84 2247.78 1680.27 2281.16 1661.17 2306.17C1642.1 2331.18 1617.83 2343.69 1588.27 2343.69C1549.36 2343.69 1520.95 2327.61 1503.09 2295.51C1485.2 2263.44 1476.29 2213.81 1476.29 2146.63C1476.29 2084.39 1486.32 2036.23 1506.3 2002.13C1526.29 1968.04 1553.08 1951.02 1586.65 1951.02C1626.7 1951.02 1655.3 1972.63 1672.47 2015.74C1686.96 2052.04 1694.23 2105.17 1694.23 2175.28H1548.8C1548.8 2198.81 1550.24 2216.74 1553.24 2228.99C1558.87 2252.49 1569.19 2264.28 1584.25 2264.28C1593.37 2264.28 1601.2 2260.61 1607.61 2253.23C1615.68 2243.98 1619.35 2228.2 1620.41 2209.56ZM1622.51 2101.04C1620.89 2073.1 1616.82 2052.88 1610.23 2040.37C1603.61 2027.88 1594.95 2021.63 1584.24 2021.63C1574.33 2021.63 1566.3 2028.51 1560.27 2042.22C1554.21 2055.91 1551.2 2075.58 1551.2 2101.04H1622.51Z" fill="#CC2229"/>
</svg>
