<svg width="2500" height="2500" viewBox="0 0 2500 2500" fill="none" xmlns="http://www.w3.org/2000/svg">
<g clip-path="url(#clip0_158_1822)">
<path d="M2500 1250C2500 1940.35 1940.33 2500 1250 2500C559.64 2499.99 0 1940.34 0 1250C0 559.647 559.64 0 1250 0C1940.33 0 2500 559.647 2500 1250Z" fill="white"/>
<path d="M2437.4 1250C2437.4 1905.75 1905.79 2437.42 1250 2437.42C594.217 2437.42 62.585 1905.75 62.585 1250C62.585 594.224 594.211 62.5742 1250 62.5742C1905.78 62.5742 2437.4 594.218 2437.4 1250Z" fill="#EC2227"/>
<path d="M2098.97 1250C2098.97 1718.9 1718.87 2098.97 1250 2098.97C781.121 2098.97 401.027 1718.9 401.027 1250C401.027 781.113 781.121 401.014 1250 401.014C1718.87 401.008 2098.97 781.113 2098.97 1250Z" fill="white"/>
<path d="M1250 2038.24C1685.32 2038.24 2038.22 1685.33 2038.22 1250C2038.22 814.671 1685.32 461.766 1250 461.766C814.672 461.766 461.771 814.671 461.771 1250C461.771 1685.33 814.672 2038.24 1250 2038.24Z" fill="#010101"/>
<path d="M1214.28 909.801C1201.59 928.025 1166.3 985.824 1143.23 1016.95C1155.84 1066.15 1193.87 1031 1246.98 1028.73C1297.36 1026.56 1319.98 1068.21 1351.88 1015.15C1331.01 980.424 1293.96 924.224 1281.51 907.889C1271.8 914.793 1259.93 918.954 1247.11 919.078C1235.07 919.249 1223.86 915.732 1214.28 909.801Z" fill="white"/>
<path d="M1242.12 797.408L1242.15 797.367C1242.15 797.367 1239 705.221 1238.85 658.87C1199.27 627.114 1185.65 681.066 1144.52 714.698C1105.47 746.543 1058.27 729.889 1064.49 791.418C1103.22 807.252 1173.91 827.766 1191.18 832.664C1200.18 812.97 1219.32 799.049 1242.12 797.408Z" fill="white"/>
<path d="M1187.62 842.623C1174.02 838.333 1100.21 815.541 1057.66 807.279C1018.73 855.359 1067.42 867.209 1082.55 915.36C1098.57 966.001 1080.41 1018.65 1130.87 1013.65C1152.81 980.489 1195.06 920.305 1206.56 903.97C1193.9 892.934 1185.61 876.923 1185.38 858.758C1185.34 853.146 1186.26 847.799 1187.62 842.623Z" fill="white"/>
<path d="M1251.06 797.408C1273.87 799.049 1293.01 812.97 1302.01 832.67C1319.26 827.765 1389.94 807.258 1428.7 791.424C1434.92 729.895 1387.71 746.543 1348.67 714.704C1307.52 681.072 1293.89 627.12 1254.33 658.876C1254.2 705.226 1251.02 797.373 1251.02 797.373L1251.06 797.408Z" fill="white"/>
<path d="M1305.52 842.624C1306.9 847.799 1307.83 853.146 1307.8 858.758C1307.54 876.923 1300.43 892.102 1287.75 903.149C1299.26 919.473 1340.38 975.284 1362.32 1008.46C1412.77 1013.44 1394.59 965.995 1410.64 915.354C1425.74 867.203 1474.45 855.353 1435.51 807.273C1392.94 815.541 1319.16 838.339 1305.52 842.624Z" fill="white"/>
<path d="M1034.1 807.568C1033.51 808.052 1024.97 833.694 1030.04 859.437C1032.89 874.084 1058.64 884.164 1068.36 910.762C1083 950.893 1062.34 1025.43 1116.87 1023.27C1011.18 1097.41 922.856 838.811 1034.1 807.568Z" fill="white"/>
<path d="M1453.44 802.463C1567.48 819.182 1489.87 1025.76 1442.59 1036.09C1423.94 1042.15 1399.76 1035.57 1385.46 1029.45C1430.86 1014.49 1413.43 974.793 1426.48 915.837C1434.07 881.75 1467.23 873.647 1468 844.671C1469.58 824.003 1454.28 820.569 1453.44 802.463Z" fill="white"/>
<path d="M1131.15 1037.24C1156.54 1085.63 1190.4 1047.71 1258.54 1049.83C1304.15 1051.25 1347.51 1074.05 1366.73 1039.06C1400.37 1151.09 1106.7 1169.39 1131.15 1037.24Z" fill="white"/>
<path d="M1232.72 641.329C1183.19 618.13 1179.22 668.783 1123.65 708.347C1086.51 734.786 1038.11 742.853 1043.96 782.34C949.425 713.434 1172.26 521.269 1232.72 641.329Z" fill="white"/>
<path d="M1259.5 641.329C1309.03 618.13 1313 668.783 1368.57 708.347C1405.72 734.786 1454.09 742.853 1448.25 782.34C1542.78 713.434 1319.96 521.269 1259.5 641.329Z" fill="white"/>
<path d="M1272.03 595.551C1272.03 595.551 1245.65 614.176 1246.34 634.826C1245.28 613.084 1219.61 596.177 1219.61 596.177C1219.61 596.177 1246.35 577.439 1245.36 556.943C1247.34 584.787 1272.03 595.551 1272.03 595.551Z" fill="white"/>
<path d="M1505.69 804.447C1505.69 804.447 1478.77 787.899 1459.82 789.599C1482.89 782.865 1493.66 755.223 1493.66 755.223C1493.66 755.223 1510.97 773.329 1539.61 770.047C1521.65 774.178 1505.69 804.447 1505.69 804.447Z" fill="white"/>
<path d="M1385.13 1091.27C1385.13 1091.27 1393.28 1063.64 1382.81 1042.74C1396.07 1060.11 1429.16 1057.39 1429.16 1057.39C1429.16 1057.39 1418.26 1089.05 1431.5 1105.98C1418.28 1089.42 1385.13 1091.27 1385.13 1091.27Z" fill="white"/>
<path d="M1072.46 1052C1072.46 1052 1100.14 1061.76 1118.93 1040.02C1106.7 1059.95 1117.1 1087.96 1117.1 1087.96C1117.1 1087.96 1088.63 1084.2 1070.58 1099.97C1084.75 1076.38 1072.46 1052 1072.46 1052Z" fill="white"/>
<path d="M1001.18 759.201C1000.95 778.871 1028.75 794.061 1028.75 794.061C1028.75 794.061 1007.01 789.116 988.091 812.002C982.661 788.03 960.377 777.071 960.377 777.071C960.377 777.071 993.089 776.841 1001.18 759.201Z" fill="white"/>
<path d="M1298.88 857.63C1299.23 886.377 1276.13 910.012 1247.26 910.331C1218.38 910.703 1194.69 887.675 1194.38 858.905C1194.03 830.188 1217.11 806.594 1245.94 806.205C1274.84 805.88 1298.52 828.908 1298.88 857.63Z" fill="white"/>
<path d="M1246.68 888.059C1243.79 892.237 1239.33 894.722 1234.36 894.722C1222.53 894.551 1210.89 883.214 1210.48 871.352C1210.38 866.377 1212.77 861.903 1216.84 858.876C1212.68 856.02 1210.2 851.588 1210.2 846.624C1210.32 834.762 1221.65 823.113 1233.5 822.682C1238.47 822.623 1242.99 824.925 1245.97 829.002C1248.88 824.854 1253.28 822.41 1258.28 822.369C1270.14 822.54 1281.77 833.889 1282.17 845.727C1282.31 850.732 1279.95 855.199 1275.85 858.162C1280.02 861.095 1282.46 865.521 1282.49 870.526C1282.36 882.317 1271.02 893.955 1259.15 894.409H1259.05C1254.09 894.462 1249.64 892.149 1246.68 888.059Z" fill="#010101"/>
<path d="M1233.69 833.065C1227.57 833.283 1220.61 840.43 1220.55 846.715C1220.55 848.473 1221.74 849.66 1222.71 850.344L1234.68 858.577L1223 867.223C1222 867.954 1220.81 869.235 1220.86 871.141C1221.07 877.261 1228.17 884.219 1234.43 884.349C1236.28 884.319 1237.47 883.163 1238.12 882.207L1246.43 870.085L1255.06 881.959C1256.06 883.346 1257.35 884.036 1258.85 884.036C1265.06 883.806 1272.05 876.671 1272.1 870.427C1272.1 868.999 1271.35 867.683 1269.91 866.668L1257.95 858.335L1269.74 849.772C1271.15 848.757 1271.86 847.488 1271.81 846.013C1271.6 839.81 1264.44 832.834 1258.15 832.764C1256.8 832.764 1255.5 833.507 1254.48 834.953L1246.17 846.803L1237.62 835.154C1236.91 834.198 1235.65 833.065 1233.69 833.065Z" fill="white"/>
<path d="M1265.13 844.142C1264.01 843.658 1262.69 843.328 1261.14 843.34C1261.02 839.639 1259.07 837.066 1257.8 835.78C1254.69 832.794 1250.29 831.619 1246 831.602C1241.73 831.69 1237.34 832.988 1234.3 836.093C1233.01 837.35 1231.21 839.982 1231.14 843.694C1229.64 843.753 1228.29 844.077 1227.15 844.579C1221.99 846.898 1219.32 852.611 1219.42 858.855C1219.47 865.105 1222.32 870.788 1227.54 872.965C1228.65 873.449 1229.94 873.721 1231.48 873.733C1231.65 877.492 1233.54 879.994 1234.87 881.34C1237.98 884.296 1242.41 885.512 1246.66 885.459C1250.93 885.4 1255.28 884.113 1258.37 881.027C1259.63 879.669 1261.49 877.108 1261.55 873.378C1263.06 873.337 1264.38 872.965 1265.51 872.511C1270.67 870.192 1273.35 864.432 1273.27 858.188C1273.2 851.932 1270.41 846.243 1265.13 844.142Z" fill="#010101"/>
<path d="M1261.52 863.209L1261.15 863.25C1260.41 863.339 1258.71 862.678 1256.69 861.191C1256.94 860.229 1257.09 859.302 1257.09 858.287C1257.06 857.355 1256.88 856.446 1256.69 855.614C1258.67 854.097 1260.29 853.383 1260.98 853.501L1261.41 853.513C1261.73 853.513 1263.23 855.354 1263.16 858.328C1263.29 861.291 1261.8 863.168 1261.52 863.209Z" fill="white"/>
<path d="M1251.09 873.974C1250.55 874.587 1248.59 875.372 1246.52 875.372C1244.49 875.431 1242.47 874.688 1241.94 874.068L1241.63 873.283C1241.45 872.38 1242.59 870.397 1243.87 868.65C1244.79 868.881 1245.64 869.052 1246.63 869.022C1247.49 869.01 1248.27 868.851 1249.11 868.662C1250.37 870.391 1251.57 872.274 1251.41 873.165L1251.09 873.974Z" fill="white"/>
<path d="M1231.62 863.641L1231.29 863.57C1230.93 863.57 1229.5 861.711 1229.55 858.725C1229.42 855.809 1230.83 853.88 1231.12 853.88L1231.51 853.85L1231.69 853.791C1232.42 853.821 1234.1 854.535 1236.19 856.004C1235.98 856.818 1235.85 857.645 1235.85 858.536C1235.85 859.492 1236.03 860.395 1236.29 861.25C1234.18 862.968 1232.39 863.682 1231.62 863.641Z" fill="white"/>
<path d="M1241.5 843.155C1242.14 842.47 1244.08 841.727 1246.13 841.727C1248.2 841.715 1250.14 842.382 1250.73 843.043L1251.07 843.798C1251.22 844.63 1250.2 846.43 1249.01 848.089C1248.14 847.935 1247.24 847.758 1246.34 847.776C1245.29 847.788 1244.36 848.006 1243.49 848.236C1242.19 846.619 1241.13 844.778 1241.26 843.922L1241.5 843.155Z" fill="white"/>
<path d="M1246.3 861.992C1248.19 861.992 1249.73 860.457 1249.73 858.564C1249.73 856.67 1248.19 855.135 1246.3 855.135C1244.4 855.135 1242.87 856.67 1242.87 858.564C1242.87 860.457 1244.4 861.992 1246.3 861.992Z" fill="white"/>
<path d="M1073.37 1794.53C1083.71 1813.65 1082.04 1834.04 1064.05 1841.53C1046.1 1849.05 1016.5 1840.81 1004.07 1821.69C953.544 1745.29 981.599 1654.14 938.749 1577.78C928.474 1558.67 930.145 1538.33 948.168 1530.83C966.049 1523.36 995.733 1531.57 1008.11 1550.69C1058.61 1627.04 1030.58 1718.2 1073.37 1794.53Z" fill="white"/>
<path d="M1559.26 1577.82C1569.51 1558.66 1567.84 1538.33 1549.86 1530.79C1531.97 1523.32 1502.38 1531.56 1489.87 1550.66C1439.42 1627.13 1467.46 1718.24 1424.62 1794.6C1414.41 1813.65 1415.95 1834.04 1433.99 1841.52C1451.88 1849.04 1481.59 1840.76 1493.97 1821.68C1544.5 1745.34 1516.45 1654.2 1559.26 1577.82Z" fill="white"/>
<path d="M784.16 1676.73C794.535 1679.86 800.395 1690.84 797.267 1701.22L780.761 1756.05C777.716 1766.44 766.71 1772.31 756.376 1769.2C745.984 1766.09 740.1 1755.16 743.198 1744.76L759.663 1689.9C762.809 1679.55 773.715 1673.61 784.16 1676.73Z" fill="#FCEE23"/>
<path d="M836.441 1675.12C846.905 1678.25 852.765 1689.2 849.631 1699.51L833.125 1754.4C829.991 1764.81 819.103 1770.69 808.728 1767.59C798.336 1764.45 792.434 1753.51 795.509 1743.08L812.033 1688.26C815.137 1677.89 826.078 1672 836.441 1675.12Z" fill="#FCEE23"/>
<path d="M891.284 1669.4C901.605 1672.54 907.519 1683.48 904.391 1693.88L887.967 1748.68C884.792 1759.05 873.874 1764.97 863.488 1761.8C853.113 1758.73 847.206 1747.76 850.363 1737.38L866.799 1682.54C869.974 1672.16 880.879 1666.26 891.284 1669.4Z" fill="#FCEE23"/>
<path d="M944.438 1665.3C954.86 1668.43 960.714 1679.41 957.598 1689.77L941.121 1744.62C937.976 1754.96 927.087 1760.87 916.683 1757.76C906.279 1754.63 900.401 1743.68 903.493 1733.33L919.982 1678.47C923.098 1668.04 934.033 1662.17 944.438 1665.3Z" fill="#FCEE23"/>
<path d="M1715.51 1676.73C1705.15 1679.86 1699.27 1690.84 1702.35 1701.22L1718.84 1756.05C1721.94 1766.44 1732.93 1772.31 1743.28 1769.2C1753.66 1766.09 1759.59 1755.11 1756.44 1744.76L1739.93 1689.9C1736.8 1679.55 1725.91 1673.61 1715.51 1676.73Z" fill="#FCEE23"/>
<path d="M1663.11 1675.12C1652.81 1678.25 1646.87 1689.2 1649.97 1699.56L1666.5 1754.4C1669.6 1764.84 1680.61 1770.69 1690.96 1767.63C1701.33 1764.45 1707.15 1753.53 1704.07 1743.08L1687.64 1688.31C1684.5 1677.89 1673.56 1672 1663.11 1675.12Z" fill="#FCEE23"/>
<path d="M1608.39 1669.4C1598.01 1672.5 1592.09 1683.48 1595.23 1693.84L1611.67 1748.68C1614.87 1759.06 1625.74 1764.97 1636.19 1761.8C1646.55 1758.73 1652.4 1747.76 1649.31 1737.39L1632.8 1682.51C1629.7 1672.11 1618.75 1666.26 1608.39 1669.4Z" fill="#FCEE23"/>
<path d="M1555.21 1665.3C1544.85 1668.43 1538.92 1679.41 1542.04 1689.77L1558.55 1744.62C1561.63 1754.96 1572.59 1760.87 1582.99 1757.73C1593.37 1754.63 1599.23 1743.68 1596.14 1733.33L1579.63 1678.47C1576.52 1668.06 1565.62 1662.17 1555.21 1665.3Z" fill="#FCEE23"/>
<path d="M1591.53 979.137C1560.91 1243.24 1424.31 1397.74 1262.38 1530.54C1289.11 1548.9 1316.29 1565.7 1343.45 1581.29C1592.28 1439.86 1792.81 1250.24 1808.27 875.488C1734.06 908.071 1664.77 945.663 1591.53 979.137Z" fill="white"/>
<path d="M1051.23 1649.24C1055.93 1666.9 1054.96 1684.98 1059.66 1696.31C1117.27 1673.9 1185.9 1657.26 1238.03 1629.38C1210.05 1617.62 1182.08 1604.83 1154.34 1590.83C1125.24 1613.15 1089.85 1631.14 1050.42 1643.17C1050.71 1645.19 1050.96 1647.2 1051.23 1649.24Z" fill="white"/>
<path d="M1443.38 1677.78C1444.51 1667.58 1445.67 1657.25 1447.09 1646.92C1174.13 1516.56 956.542 1334.27 908.409 979.154C835.143 945.669 765.943 908.088 691.732 875.506C718.542 1367.68 1051.71 1576.29 1442.09 1689.31C1442.53 1685.48 1442.95 1681.64 1443.38 1677.78Z" fill="white"/>
<path d="M263.458 1193.59C287.689 1195.88 298.908 1177.89 300.932 1156.47C302.26 1142.44 300.2 1120.64 281.587 1118.87C261.947 1117.01 256.052 1143.99 246.379 1170.09C236.683 1196.45 223.641 1222.75 189.472 1219.52C152.233 1215.99 137.71 1179.11 140.82 1146.22C144.414 1108.22 164.296 1074.84 206.373 1078.83L202.709 1117.59C180.655 1116.79 173.573 1131.82 171.767 1150.94C170.557 1163.7 174.517 1178.99 189.82 1180.44C203.848 1181.77 206.45 1173.26 222.502 1128.72C227.07 1115.77 239.345 1075.76 280.661 1079.67C314.069 1082.83 336.583 1111.46 331.897 1160.94C328.085 1201.23 304.627 1237.1 259.787 1232.34L263.458 1193.59Z" fill="white"/>
<path d="M162.136 1017.3L173.231 978.636L240.696 998.004L261.121 926.85L193.656 907.481L204.751 868.826L380.549 919.296L369.448 957.951L293.615 936.186L273.19 1007.35L349.029 1029.11L337.929 1067.77L162.136 1017.3Z" fill="white"/>
<path d="M228.132 812.153L289.372 689.855L319.599 704.993L276.365 791.332L311.408 808.883L351.083 729.638L379.02 743.63L339.339 822.87L379.422 842.935L423.571 754.766L453.798 769.904L391.644 894.03L228.132 812.153Z" fill="white"/>
<path d="M322.29 638.444L398.637 535.025L425.825 555.096L373.355 626.168L407.347 651.262L452.824 589.662L477.958 608.216L432.493 669.822L493.26 714.685L469.389 747.031L322.29 638.444Z" fill="white"/>
<path d="M425.069 505.67L516.099 414.863L539.97 438.8L477.415 501.208L507.265 531.129L561.487 477.042L583.553 499.166L529.33 553.254L582.697 606.745L554.222 635.143L425.069 505.67Z" fill="white"/>
<path d="M546.462 391.719L577.999 366.773L691.449 510.204L659.911 535.15L546.462 391.719Z" fill="white"/>
<path d="M620.744 333.671L737.787 262.895L755.285 291.83L672.647 341.798L692.924 375.336L768.764 329.475L784.94 356.221L709.1 402.082L732.293 440.442L816.683 389.417L834.175 418.352L715.373 490.174L620.744 333.671Z" fill="white"/>
<path d="M794.482 236.26L831.98 221.707L885.919 360.717L969.035 328.465L981.269 359.991L860.655 406.796L794.482 236.26Z" fill="white"/>
<path d="M973.313 172.488L1050.9 158.283C1097.5 149.756 1137.87 172.565 1148.79 232.271C1158.34 284.416 1138.74 328.099 1083.83 338.15L1006.24 352.355L973.313 172.488ZM1039.7 311.864L1074.97 305.408C1097.9 301.212 1117.23 283.095 1109.94 243.295C1103.3 207.018 1086.47 186.144 1047.17 193.344L1018.96 198.508L1039.7 311.864Z" fill="white"/>
<path d="M1439.95 269.15C1434.43 318.262 1402.73 338.924 1354.13 333.465C1305.27 327.976 1279.43 301.107 1284.97 251.735L1297.66 138.744L1337.62 143.235L1324.93 256.226C1322.69 276.072 1325.58 296.244 1357.9 299.873C1386.4 303.072 1396.97 291.635 1400 264.659L1412.69 151.668L1452.64 156.16L1439.95 269.15Z" fill="white"/>
<path d="M1506.53 167.52L1544.68 179.399L1581.07 319.23L1581.56 319.377L1618.04 202.244L1653.99 213.439L1599.61 388.036L1561.22 376.079L1524.99 236.573L1524.5 236.42L1488.1 353.311L1452.15 342.122L1506.53 167.52Z" fill="white"/>
<path d="M1704.77 237.518L1741.13 254.679L1663.09 420.028L1626.73 402.866L1704.77 237.518Z" fill="white"/>
<path d="M1800.52 325.384L1753.97 296.426L1771.83 267.715L1899.08 346.884L1881.22 375.6L1834.67 346.636L1755.91 473.229L1721.76 451.984L1800.52 325.384Z" fill="white"/>
<path d="M1927.06 368.561L2030.4 458.122L2008.27 483.664L1935.32 420.435L1909.65 450.043L1976.61 508.072L1956.14 531.678L1889.19 473.649L1859.83 507.512L1934.34 572.08L1912.2 597.628L1807.32 506.727L1927.06 368.561Z" fill="white"/>
<path d="M2075.89 505.109L2124.56 567.187C2153.79 604.473 2152.38 650.818 2104.61 688.263C2062.89 720.969 2015.1 723.938 1980.65 680.001L1931.99 617.923L2075.89 505.109ZM1983.41 628.711L2005.52 656.932C2019.9 675.274 2044.93 683.961 2076.78 658.991C2105.8 636.241 2116.44 611.626 2091.79 580.183L2074.09 557.609L1983.41 628.711Z" fill="white"/>
<path d="M2254.82 775.445L2303.59 894.396L2272.32 907.214L2238.8 825.467L2199.7 841.495L2228.75 912.343L2199.85 924.193L2170.8 853.345L2100.89 882.003L2085.64 844.8L2254.82 775.445Z" fill="white"/>
<path d="M2168.83 950.092L2180.5 988.576L2142.75 1000.01L2131.09 961.535L2168.83 950.092Z" fill="white"/>
<path d="M2291.2 1121.63C2308.72 1116.13 2319.53 1096.68 2316.25 1076.98C2310.34 1041.35 2277.8 1032.98 2246.23 1038.22C2216.15 1043.2 2188.05 1061.62 2193.96 1097.24C2197.98 1121.51 2216.92 1132.39 2241.18 1131.48L2247.54 1169.89C2201.89 1173.3 2167.93 1146.99 2160.6 1102.77C2151.35 1046.93 2187.6 1007.17 2239.66 998.541C2293.22 989.66 2340.36 1015.6 2349.61 1071.45C2356.19 1111.12 2338.47 1148.33 2297.58 1160.04L2291.2 1121.63Z" fill="white"/>
<path d="M2214.93 1198.45L2216.21 1238.65L2176.78 1239.9L2175.5 1199.7L2214.93 1198.45Z" fill="white"/>
<path d="M1045.05 2339.89L1009.48 2332.26L1033.87 2218.55L989.785 2209.1L995.533 2182.3C1020.22 2188.12 1044.83 2184.49 1054.34 2158.5L1082.64 2164.56L1045.05 2339.89Z" fill="white"/>
<path d="M1167.36 2171.94C1211.75 2175.88 1224.34 2207.86 1222.8 2225.2C1221.24 2242.81 1210.79 2256.28 1193.4 2260.91L1193.44 2260.4L1193.43 2260.66L1193.4 2260.91C1214.15 2267.65 1224.95 2285.06 1222.95 2307.51C1219.62 2345.01 1184.28 2360.65 1151.12 2357.7C1116.67 2354.64 1084.79 2334.32 1088.22 2295.79C1090.23 2273.09 1104.42 2258.14 1125.8 2254.9L1125.84 2254.4C1108.92 2248 1101.26 2232.92 1102.83 2215.32C1105.67 2183.17 1138.27 2169.35 1167.36 2171.94ZM1153.54 2330.41C1170.88 2331.94 1185.24 2320.89 1186.83 2303.02C1188.35 2285.93 1175.59 2273.21 1158.75 2271.72C1141.15 2270.15 1126.23 2278.86 1124.59 2297.23C1122.96 2315.6 1136.19 2328.86 1153.54 2330.41ZM1160.65 2247.46C1175.45 2248.78 1188.17 2241.68 1189.53 2226.36C1190.35 2217.18 1187.39 2201.23 1164.93 2199.24C1150.39 2197.94 1136.84 2205.74 1135.43 2221.56C1134.05 2237.12 1146.11 2246.16 1160.65 2247.46Z" fill="white"/>
<path d="M1307.44 2173.79C1351.94 2171.07 1369.15 2200.82 1370.22 2218.2C1371.29 2235.84 1362.96 2250.73 1346.47 2257.9L1346.43 2257.39L1346.45 2257.64L1346.47 2257.9C1367.98 2261.46 1381.26 2277.08 1382.64 2299.57C1384.93 2337.16 1352.32 2357.9 1319.08 2359.93C1284.56 2362.03 1250 2346.7 1247.64 2308.08C1246.25 2285.33 1258.05 2268.43 1278.7 2262.03L1278.67 2261.53C1260.99 2257.73 1251.16 2243.96 1250.08 2226.31C1248.11 2194.09 1278.28 2175.56 1307.44 2173.79ZM1312.07 2249.48C1326.89 2248.57 1338.41 2239.65 1337.48 2224.32C1336.91 2215.1 1331.61 2199.77 1309.11 2201.14C1294.54 2202.03 1282.3 2211.76 1283.28 2227.62C1284.21 2243.22 1297.49 2250.37 1312.07 2249.48ZM1317.4 2332.56C1334.78 2331.5 1347.32 2318.42 1346.24 2300.52C1345.19 2283.38 1330.68 2272.71 1313.8 2273.75C1296.16 2274.83 1282.71 2285.66 1283.83 2304.07C1284.96 2322.48 1300.01 2333.64 1317.4 2332.56Z" fill="white"/>
<path d="M1445.88 2294.67C1450.65 2305.97 1461.82 2314.05 1474.09 2311.42C1499.89 2305.88 1499.4 2270.62 1496.22 2250.86L1495.6 2250.47C1488.79 2266.34 1477.26 2274.85 1460.22 2278.5C1445.2 2281.72 1428.42 2277.98 1416.04 2269.11C1404.47 2260.33 1397.09 2246.71 1394.13 2232.94C1386.45 2197.13 1405.18 2163.51 1441.74 2155.66C1494.83 2144.27 1519.05 2187.54 1528.56 2231.89C1537.75 2274.71 1529.18 2327.63 1479.34 2338.32C1449.03 2344.83 1422.69 2331.87 1412.06 2301.92L1445.88 2294.67ZM1484.31 2211.24C1480.81 2194.97 1466.8 2180.94 1449.03 2184.76C1432 2188.41 1425.72 2206.78 1429.11 2222.56C1432.65 2239.09 1444.72 2253.8 1462.99 2249.87C1482.02 2245.79 1488.02 2228.52 1484.31 2211.24Z" fill="white"/>
</g>
<defs>
<clipPath id="clip0_158_1822">
<rect width="2500" height="2500" fill="white"/>
</clipPath>
</defs>
</svg>
