<svg width="2500" height="2500" viewBox="0 0 2500 2500" fill="none" xmlns="http://www.w3.org/2000/svg">
<path d="M660.754 584.789V586.605M842.11 821.591H846.935" stroke="#9EA176" stroke-width="12.0489" stroke-miterlimit="2.613" stroke-linecap="round" stroke-linejoin="round"/>
<path fill-rule="evenodd" clip-rule="evenodd" d="M1951.97 1076.46V1068.03C1963.42 848.71 1932.09 600.469 1856.75 322.696C1445.84 189.535 1040.94 188.951 642.065 320.893C505.895 827.012 515.544 1254.81 671.597 1604.87C673.399 1607.88 674.606 1610.9 676.421 1614.52C676.421 1614.52 690.273 1641.05 717.393 1695.26H716.796C720.415 1702.48 725.227 1710.33 729.455 1718.16C845.132 1923.63 1018.06 2100.16 1247.62 2247.19C1633.85 2001.35 1861.6 1674.18 1931.49 1265.05C1932.1 1260.24 1932.71 1255.43 1933.91 1251.2H1933.3L1951.97 1076.46Z" fill="#C6232D"/>
<path fill-rule="evenodd" clip-rule="evenodd" d="M2077.9 341.982C1523.57 109.409 971.639 110.005 422.746 343.785C175.114 1257.22 451.668 1920 1251.83 2331.53C2050.18 1916.98 2325.53 1253.6 2077.9 341.982ZM1894.72 335.355C1940.52 351.022 1984.5 367.299 2026.68 385.366V386.572C2091.76 635.423 2117.06 864.975 2101.41 1076.46H1422.95C1370.51 1045.13 1312.68 1030.07 1248.82 1030.07L1236.77 1030.66C1177.11 1031.87 1122.88 1046.94 1074.67 1076.46H747.509C725.214 1077.06 706.537 1084.29 692.076 1098.76C677.615 1110.8 669.781 1126.47 667.978 1144.54H633.038C601.69 1177.08 601.69 1209.01 633.038 1240.94H667.978C669.171 1258.43 677.018 1274.69 692.076 1289.15C707.743 1303 725.823 1310.23 745.706 1310.84C746.912 1310.84 747.522 1310.84 748.715 1311.45L909.592 1303.02C904.682 1327.21 902.261 1351.84 902.368 1376.53C902.368 1393.4 902.964 1408.45 904.78 1421.72C845.729 1501.23 769.817 1565.1 676.421 1614.51L648.705 1628.97C627.02 1639.21 601.703 1649.44 573.39 1660.31C369.725 1315.65 335.381 890.863 470.954 384.757C512.523 366.664 555.31 350.413 598.694 335.329L642.078 320.881C1040.95 188.926 1445.87 189.523 1856.76 322.683L1894.72 335.355ZM1145.17 1379.52C1145.17 1388.56 1145.77 1396.42 1146.98 1403.03L1002.36 1486.77C987.903 1454.24 980.679 1418.71 980.679 1380.12C980.679 1340.95 987.903 1305.42 1002.36 1272.86L1146.98 1356.63C1145.73 1364.2 1145.13 1371.86 1145.17 1379.52ZM1248.21 1334.93H1249.41C1254.83 1334.93 1260.86 1335.54 1266.29 1337.94C1268.7 1338.55 1272.9 1340.95 1278.93 1345.79L1281.34 1348.2C1287.98 1354.82 1292.19 1362.66 1294.02 1372.9L1293.41 1388.55C1291.6 1396.4 1287.38 1403.62 1281.34 1410.85C1280.15 1410.85 1279.54 1411.46 1278.93 1412.68C1273.51 1416.88 1268.7 1419.9 1263.86 1421.72C1259.14 1422.9 1254.28 1423.51 1249.41 1423.52L1236.16 1421.72C1230.27 1420.03 1224.9 1416.92 1220.49 1412.68C1219.28 1412.07 1218.69 1411.46 1218.69 1410.85C1211.46 1403.62 1207.24 1396.41 1206.64 1388.55L1205.43 1379.51L1206.03 1372.9C1206.97 1363.36 1211.49 1354.54 1218.69 1348.2C1218.69 1346.98 1219.28 1346.37 1220.49 1346.37C1225.31 1342.17 1229.53 1339.15 1233.75 1337.94C1236.16 1336.76 1240.98 1335.54 1248.21 1334.93ZM1217.47 1279.51C1202.41 1284.33 1189.16 1292.19 1178.3 1303.63L1033.7 1219.26C1041.31 1208.56 1049.99 1198.67 1059.61 1189.74C1103.59 1145.15 1156.02 1119.23 1217.47 1112.62V1279.51ZM1059.61 1569.93C1050.11 1560.51 1041.25 1550.44 1033.1 1539.82L1178.31 1456.05C1189.66 1466.43 1202.98 1474.42 1217.48 1479.55V1647.06C1156.63 1640.44 1104.2 1614.52 1059.61 1569.93ZM973.455 1587.42C979.473 1595.25 989.123 1606.69 1003.58 1621.73C1071.68 1689.22 1153.01 1722.96 1248.82 1722.96C1344.01 1722.96 1425.97 1689.22 1493.45 1621.73C1560.93 1553.67 1595.29 1471.73 1595.29 1376.53C1595.29 1363.26 1594.68 1350.62 1593.46 1337.94L1733.85 1307.83C1761.56 1299.99 1776.63 1284.33 1779.03 1262.03L2080.31 1241.55C1997.17 1678.39 1720.6 2020.02 1249.43 2265.85C1248.21 2265.85 1247.61 2266.46 1247.61 2267.07L1242.79 2264.63C961.406 2114.62 750.518 1932.66 609.536 1718.15C631.222 1715.14 657.135 1710.32 687.861 1703.11L716.783 1695.26C793.902 1672.97 879.463 1636.82 973.455 1587.42ZM1279.54 1647.66V1480.17C1295.81 1474.75 1309.05 1466.93 1320.5 1456.67L1466.31 1540.41C1460.91 1547.06 1452.45 1556.7 1440.42 1569.95C1395.23 1615.13 1341.6 1641.05 1279.54 1647.66ZM1466.31 1219.26L1321.11 1303.02C1308.46 1291.56 1294.59 1283.13 1279.54 1278.91V1112.62C1340.99 1118.64 1394.62 1143.95 1440.42 1189.74C1452.45 1202.38 1460.91 1212.03 1466.31 1219.26ZM1497.07 1272.29C1508.72 1299.05 1515.84 1327.55 1518.15 1356.65L1518.76 1380.13C1518.76 1419.9 1510.92 1456.06 1496.46 1489.21L1351.24 1404.25L1353.07 1396.99L1354.26 1379.51C1354.26 1373.51 1353.07 1365.66 1351.85 1356.02L1497.07 1272.29Z" fill="#9EA176"/>
<path fill-rule="evenodd" clip-rule="evenodd" d="M1353.05 1396.99L1518.15 1356.65C1515.84 1327.55 1508.72 1299.05 1497.07 1272.29L1351.85 1356.04C1353.07 1365.66 1354.26 1373.52 1354.26 1379.52L1353.05 1396.99ZM1321.11 1303.02L1466.31 1219.26C1460.91 1212.03 1452.45 1202.38 1440.42 1189.74C1394.62 1143.95 1340.99 1118.64 1279.54 1112.62V1278.9C1294.59 1283.13 1308.48 1291.58 1321.11 1303.02ZM1278.93 1345.8C1272.9 1340.96 1268.7 1338.55 1266.29 1337.96C1260.86 1335.54 1254.83 1334.95 1249.41 1334.95H1248.19C1240.97 1335.56 1236.14 1336.78 1233.75 1337.96C1229.53 1339.17 1225.3 1342.18 1220.49 1346.39C1219.28 1346.39 1218.69 1347 1218.69 1348.21C1211.5 1354.55 1206.98 1363.38 1206.03 1372.91L1205.43 1379.52L1206.64 1388.56C1207.24 1396.41 1211.46 1403.63 1218.69 1410.86C1218.69 1411.47 1219.28 1412.08 1220.49 1412.69C1224.72 1416.89 1230.13 1419.91 1236.16 1421.73L1249.41 1423.53C1254.22 1423.53 1259.05 1422.92 1263.86 1421.73C1268.7 1419.9 1273.51 1416.89 1278.93 1412.69C1279.54 1411.47 1280.15 1410.86 1281.34 1410.86C1287.38 1403.63 1291.6 1396.42 1293.41 1388.56L1294.02 1372.91C1292.19 1362.68 1287.98 1354.82 1281.34 1348.21L1278.93 1345.8ZM1178.31 1303.62C1189.16 1292.17 1202.41 1284.33 1217.48 1279.51V1112.62C1156.03 1119.25 1103.61 1145.15 1059.63 1189.74C1051.79 1196.97 1042.77 1206.61 1033.71 1219.26L1178.31 1303.62ZM1145.17 1379.52C1145.17 1371.09 1145.77 1363.87 1146.98 1356.65L1002.36 1272.87C987.903 1305.43 980.679 1340.96 980.679 1380.13C980.679 1418.72 987.903 1454.26 1002.36 1486.78L1146.98 1403.04C1145.68 1395.27 1145.08 1387.4 1145.17 1379.52Z" fill="#9EA176"/>
<path fill-rule="evenodd" clip-rule="evenodd" d="M1976.06 1242.76V1243.96C1903.15 1663.32 1660.93 2004.34 1249.41 2265.85C1719.98 2020.04 1997.16 1677.78 2080.9 1237.95L1976.06 1242.76ZM684.852 1697.66L609.536 1718.15C750.531 1932.66 961.406 2114.61 1242.79 2264.63C995.75 2106.18 810.166 1916.98 684.852 1697.66ZM2026.68 385.353C1984.5 367.286 1940.52 351.009 1894.72 335.342C1973.05 603.479 2005.6 852.913 1992.93 1082.48L2100.79 1081.27C2117.05 867.375 2092.36 635.994 2026.66 386.559V385.353H2026.68ZM598.681 335.355C555.297 350.426 512.51 366.69 470.941 384.783C335.978 890.292 370.919 1316.89 576.386 1665.14L651.091 1634.42C473.354 1274.09 455.884 840.877 598.681 335.355Z" fill="#355170"/>
<path fill-rule="evenodd" clip-rule="evenodd" d="M772.813 520.33L661.35 535.388C668.587 549.253 668.587 566.113 660.754 584.79V586.606C634.827 669.145 605.321 747.483 570.977 821.592H651.104L664.969 761.334H741.491L752.333 821.592H842.11C814.381 726.394 791.489 625.774 772.813 520.33ZM732.438 711.323H681.83L714.371 614.322L732.438 711.323Z" fill="white"/>
<path d="M660.754 586.606C634.827 669.145 605.321 747.483 570.977 821.592H651.104L664.969 761.334H741.491L752.333 821.592H842.11C814.394 726.394 791.489 625.774 772.813 520.33L661.35 535.388C668.587 549.253 668.587 566.113 660.754 584.79M714.371 614.322L732.438 711.323H681.83L714.371 614.322Z" stroke="#9EA176" stroke-width="12.0489" stroke-miterlimit="2.613" stroke-linecap="round" stroke-linejoin="round"/>
<path fill-rule="evenodd" clip-rule="evenodd" d="M931.278 821.591C916.816 702.282 939.111 647.459 998.759 657.096L1003.58 602.869C980.083 593.233 954.169 606.488 926.466 643.854L928.268 607.707L855.975 610.716C862.603 684.215 859.581 754.719 846.935 821.604L931.278 821.591Z" fill="white"/>
<path d="M998.759 657.096C939.098 647.46 916.816 702.283 931.277 821.592H846.922C859.58 754.707 862.589 684.216 855.962 610.703L928.255 607.695L926.453 643.841C954.169 606.488 980.07 593.233 1003.57 602.857L998.759 657.096Z" stroke="#9EA176" stroke-width="12.0489" stroke-miterlimit="2.613" stroke-linecap="round" stroke-linejoin="round"/>
<path fill-rule="evenodd" clip-rule="evenodd" d="M1803.14 821.591H1887.5C1869.41 733.02 1856.16 637.822 1848.33 536.593L1768.79 521.535C1791.11 620.007 1802.63 720.621 1803.14 821.591Z" fill="white"/>
<path d="M1887.5 821.591C1869.41 733.02 1856.16 637.822 1848.33 536.593L1768.79 521.535C1791.11 620.007 1802.63 720.621 1803.13 821.591H1887.5Z" stroke="#9EA176" stroke-width="12.0489" stroke-miterlimit="2.613" stroke-linecap="round" stroke-linejoin="round"/>
<path fill-rule="evenodd" clip-rule="evenodd" d="M1363.9 780.619L1343.4 757.727C1297.63 793.264 1265.08 787.246 1245.79 740.853C1271.72 730.011 1310.88 714.343 1362.68 693.254C1362.68 668.547 1354.84 645.059 1339.19 622.764C1322.9 600.469 1300.6 589.626 1271.1 589.016C1241.57 588.42 1215.67 599.859 1192.16 622.764C1169.87 645.668 1159.03 673.372 1159.03 706.509C1159.03 738.441 1169.87 766.17 1192.16 789.659C1208.44 805.923 1226.51 816.765 1246.4 821.59H1301.23C1321.11 816.765 1339.2 805.923 1355.47 789.659L1363.9 780.619ZM1266.3 629.975C1289.18 636.006 1297 651.064 1289.79 675.162L1234.35 698.066C1229.53 660.117 1239.78 637.212 1266.3 629.975Z" fill="white"/>
<path d="M1289.77 675.174C1297 651.077 1289.16 636.019 1266.29 629.988C1239.76 637.225 1229.53 660.117 1234.34 698.079L1289.77 675.174ZM1362.68 693.254C1310.88 714.33 1271.71 730.011 1245.79 740.853C1265.08 787.259 1297.63 793.277 1343.4 757.727L1363.9 780.619L1355.47 789.659C1339.2 805.923 1321.12 816.765 1301.23 821.59C1290.99 823.393 1281.95 824.599 1274.12 824.599C1265.08 824.599 1256.04 823.393 1246.4 821.59C1226.51 816.765 1208.44 805.923 1192.16 789.659C1169.87 766.157 1159.03 738.441 1159.03 706.509C1159.03 673.372 1169.87 645.668 1192.16 622.764C1215.67 599.859 1241.58 588.42 1271.1 589.016C1300.6 589.626 1322.9 600.469 1339.19 622.764C1354.86 645.046 1362.68 668.547 1362.68 693.254Z" stroke="#9EA176" stroke-width="12.0489" stroke-miterlimit="2.613" stroke-linecap="round" stroke-linejoin="round"/>
<path fill-rule="evenodd" clip-rule="evenodd" d="M1577.18 821.592C1567.54 768.571 1563.94 711.323 1565.12 649.872C1533.79 590.821 1491.61 583.596 1438.59 629.976L1432.56 599.861L1365.08 598.654C1381.37 660.105 1384.38 734.824 1375.34 821.592H1453.66C1445.83 774.589 1444.01 722.165 1447.63 666.136C1465.11 639.016 1480.77 639.016 1494.62 666.136C1498.24 717.891 1498.24 769.836 1494.62 821.592H1577.18Z" fill="white"/>
<path d="M1453.67 821.592H1375.35ZM1577.18 821.592H1494.63ZM1494.63 821.592C1498.25 769.836 1498.25 717.891 1494.63 666.136C1480.78 639.016 1465.13 639.016 1447.64 666.136C1444.02 722.165 1445.84 774.589 1453.67 821.592M1375.35 821.592C1384.39 734.824 1381.38 660.105 1365.09 598.654L1432.57 599.861L1438.6 629.976C1491.62 583.596 1533.8 590.821 1565.14 649.872C1563.94 711.323 1567.54 768.558 1577.18 821.592" stroke="#9EA176" stroke-width="12.0489" stroke-miterlimit="2.613" stroke-linecap="round" stroke-linejoin="round"/>
<path fill-rule="evenodd" clip-rule="evenodd" d="M1143.37 646.862V604.685C1080.72 581.78 1033.71 593.829 1001.17 640.831L999.369 642.647C984.298 667.951 990.329 690.246 1017.45 708.313C1075.29 731.205 1100.6 749.284 1092.17 762.54L1090.96 765.549C1068.07 789.646 1034.32 782.422 989.732 745.069L988.526 804.717C1005.4 812.551 1019.86 817.972 1031.91 821.591C1055.4 827.609 1077.71 827.609 1098.19 821.591C1116.86 814.963 1134.94 802.318 1152.42 783.628C1180.14 736.042 1155.43 696.874 1078.91 666.135C1054.81 655.889 1054.81 645.656 1078.32 636.007C1093.36 632.998 1115.05 636.02 1143.37 646.862Z" fill="white"/>
<path d="M1090.95 765.548C1068.06 789.646 1034.31 782.422 989.719 745.069L988.513 804.717C1005.39 812.55 1019.85 817.972 1031.9 821.59C1055.38 827.608 1077.69 827.608 1098.17 821.59C1116.85 814.963 1134.93 802.317 1152.41 783.628C1180.13 736.042 1155.42 696.873 1078.9 666.135C1054.8 655.889 1054.8 645.655 1078.3 636.006C1093.37 632.997 1115.05 636.006 1143.37 646.849V604.671C1080.71 581.766 1033.71 593.815 1001.17 640.818L999.368 642.633C984.298 667.937 990.328 690.232 1017.45 708.299C1075.29 731.191 1100.6 749.271 1092.17 762.526" stroke="#9EA176" stroke-width="12.0489" stroke-miterlimit="2.613" stroke-linecap="round" stroke-linejoin="round"/>
<path fill-rule="evenodd" clip-rule="evenodd" d="M1592.84 613.711C1592.84 626.966 1592.84 645.655 1594.06 670.959C1650.7 636.006 1683.23 636.615 1691.66 675.162C1609.13 692.035 1572.96 722.164 1582 765.548C1588.64 795.067 1600.09 813.757 1616.34 821.59C1636.83 831.227 1659.74 831.227 1686.23 821.59L1706.12 808.932L1720.58 822.783H1788.06V821.59C1772.38 779.413 1764.56 727.585 1763.95 666.135C1747.11 614.917 1689.87 597.447 1592.84 613.711ZM1696.48 714.33L1699.52 773.395C1669.37 786.637 1653.11 778.803 1649.49 750.49C1655.52 723.98 1670.59 711.931 1694.68 714.33H1696.48Z" fill="white"/>
<path d="M1696.48 714.33L1699.52 773.395C1669.37 786.637 1653.11 778.803 1649.49 750.49C1655.52 723.98 1670.59 711.931 1694.68 714.33M1594.06 670.959C1650.7 636.006 1683.23 636.615 1691.66 675.162C1609.13 692.035 1572.96 722.164 1582 765.548C1588.64 795.067 1600.09 813.757 1616.34 821.59C1636.83 831.227 1659.74 831.227 1686.23 821.59L1706.12 808.932L1720.58 822.783H1788.06C1772.38 779.413 1764.56 727.585 1763.95 666.135C1747.1 614.917 1689.85 597.447 1592.84 613.711H1592.26L1594.06 670.959Z" stroke="#9EA176" stroke-width="12.0489" stroke-miterlimit="2.613" stroke-linecap="round" stroke-linejoin="round"/>
<path d="M1980.79 1076.46H1422.95C1370.51 1045.12 1312.68 1030.07 1248.82 1030.07L1236.77 1030.66C1177.11 1031.87 1122.88 1046.94 1074.67 1076.46H747.509C725.214 1077.06 706.537 1084.29 692.076 1098.75C677.615 1110.8 669.781 1126.47 667.978 1144.54H633.038C601.69 1177.08 601.69 1209.01 633.038 1240.94H667.978C669.172 1258.42 677.018 1274.69 692.076 1289.15C707.744 1303 725.823 1310.23 745.706 1310.84C746.912 1310.84 747.522 1310.84 748.715 1311.45L909.592 1303.02C904.682 1327.21 902.261 1351.84 902.368 1376.53C902.368 1393.4 902.964 1408.45 904.78 1421.71C846.663 1499.99 772.177 1563.11 680.779 1612.19C673.737 1615.75 666.201 1620.7 660.404 1623.43M699.417 1699.71C708.34 1697.4 715.059 1695.99 722.205 1693.68C797.909 1671.25 881.655 1635.64 973.455 1587.42C979.473 1595.25 989.123 1606.69 1003.58 1621.73C1071.68 1689.22 1153.01 1722.96 1248.82 1722.96C1344.01 1722.96 1425.97 1689.22 1493.45 1621.73C1560.93 1553.67 1595.29 1471.73 1595.29 1376.53C1595.29 1363.26 1594.68 1350.61 1593.46 1337.94L1733.85 1307.83C1761.56 1299.99 1776.63 1284.33 1779.03 1262.03L1965.93 1248.91M1145.17 1379.52C1145.17 1388.56 1145.77 1396.42 1146.98 1403.02L1002.36 1486.77C987.903 1454.24 980.679 1418.71 980.679 1380.12C980.679 1340.95 987.903 1305.41 1002.36 1272.86L1146.98 1356.63C1145.73 1364.2 1145.13 1371.86 1145.17 1379.52ZM1248.21 1334.93H1249.41C1254.83 1334.93 1260.87 1335.54 1266.29 1337.94C1268.7 1338.55 1272.9 1340.95 1278.93 1345.79L1281.34 1348.2C1287.98 1354.82 1292.19 1362.66 1294.02 1372.9L1293.41 1388.55C1291.6 1396.4 1287.38 1403.62 1281.34 1410.85C1280.15 1410.85 1279.54 1411.46 1278.93 1412.67C1273.51 1416.88 1268.7 1419.9 1263.86 1421.71C1259.14 1422.9 1254.28 1423.51 1249.41 1423.52L1236.16 1421.71C1230.27 1420.03 1224.9 1416.92 1220.49 1412.67C1219.28 1412.06 1218.69 1411.46 1218.69 1410.85C1211.46 1403.62 1207.24 1396.41 1206.64 1388.55L1205.43 1379.51L1206.03 1372.9C1206.97 1363.36 1211.49 1354.53 1218.69 1348.2C1218.69 1346.98 1219.28 1346.37 1220.49 1346.37C1225.32 1342.17 1229.53 1339.15 1233.75 1337.94C1236.16 1336.76 1240.98 1335.54 1248.21 1334.93ZM1217.47 1279.51C1202.41 1284.33 1189.16 1292.19 1178.3 1303.62L1033.7 1219.26C1041.31 1208.56 1049.99 1198.67 1059.61 1189.74C1103.59 1145.15 1156.02 1119.23 1217.47 1112.62V1279.51ZM1059.61 1569.93C1050.11 1560.5 1041.25 1550.44 1033.1 1539.82L1178.31 1456.05C1189.66 1466.43 1202.98 1474.42 1217.48 1479.55V1647.06C1156.63 1640.44 1104.2 1614.52 1059.61 1569.93ZM1279.54 1647.66V1480.17C1295.81 1474.75 1309.05 1466.93 1320.5 1456.67L1466.31 1540.41C1460.91 1547.05 1452.45 1556.7 1440.42 1569.95C1395.23 1615.13 1341.6 1641.05 1279.54 1647.66ZM1466.31 1219.26L1321.11 1303.02C1308.46 1291.56 1294.59 1283.13 1279.54 1278.9V1112.62C1340.99 1118.64 1394.62 1143.95 1440.42 1189.74C1452.45 1202.38 1460.91 1212.03 1466.31 1219.26ZM1497.07 1272.29C1508.72 1299.05 1515.84 1327.55 1518.15 1356.65L1518.76 1380.13C1518.76 1419.9 1510.92 1456.06 1496.46 1489.21L1351.24 1404.24L1353.07 1396.99L1354.26 1379.51C1354.26 1373.51 1353.07 1365.66 1351.85 1356.02L1497.07 1272.29Z" stroke="white" stroke-width="12.3083" stroke-miterlimit="2.613" stroke-linecap="round" stroke-linejoin="round"/>
</svg>
