<?xml version="1.0" encoding="UTF-8"?>
<svg xmlns="http://www.w3.org/2000/svg" xmlns:xlink="http://www.w3.org/1999/xlink" width="48px" height="48px" viewBox="0 0 48 99" version="1.1">
<g id="surface1">
<path style=" stroke:none;fill-rule:nonzero;fill:rgb(0%,12.941176%,33.72549%);fill-opacity:1;" d="M 13.300781 66.8125 C 13.023438 66.746094 12.785156 66.574219 12.601562 66.316406 C 11.667969 67.753906 11.277344 69.035156 11.617188 70.1875 C 13.054688 75.019531 17.328125 78.585938 22.445312 79.0625 C 17.554688 77.582031 13.933594 72.496094 13.300781 66.8125 M 12.296875 63.957031 C 11.988281 63.738281 11.726562 63.535156 11.539062 63.355469 C 11.203125 64.585938 11.058594 65.863281 11.113281 67.140625 C 11.125 67.402344 11.140625 67.667969 11.167969 67.925781 C 11.359375 67.152344 11.730469 66.34375 12.265625 65.519531 C 12.160156 65.035156 12.179688 64.484375 12.296875 63.957031 Z M 12.539062 63.222656 C 12.667969 62.929688 12.828125 62.65625 13.023438 62.429688 C 13.175781 62.246094 13.34375 62.101562 13.519531 61.996094 C 13.984375 59.832031 14.957031 57.902344 16.378906 56.445312 C 14.253906 57.953125 12.628906 60.097656 11.773438 62.585938 C 11.886719 62.742188 12.1875 62.976562 12.539062 63.222656 Z M 30.894531 74.328125 C 29.835938 74.210938 28.417969 73.933594 27.800781 73.71875 C 27.109375 73.480469 26.496094 72.90625 26.15625 72.179688 C 25.984375 71.804688 25.886719 71.402344 25.871094 70.992188 C 25.859375 70.703125 25.886719 70.382812 25.972656 70.039062 C 22.089844 68.859375 17.976562 67.214844 15.109375 65.691406 C 15.011719 65.871094 14.898438 66.042969 14.765625 66.199219 C 14.550781 66.453125 14.308594 66.636719 14.058594 66.742188 C 14.328125 69.121094 15.15625 71.449219 16.472656 73.476562 C 18.222656 76.167969 20.601562 78.015625 23.171875 78.59375 C 24.085938 78.800781 25.277344 79.054688 26.34375 78.820312 C 30.296875 77.945312 33.515625 75.21875 35.09375 71.632812 C 34.90625 71.664062 34.699219 71.683594 34.476562 71.691406 C 33.574219 74.324219 31.679688 74.417969 30.894531 74.328125 Z M 36.125 66.125 C 36.070312 64.738281 35.789062 63.414062 35.320312 62.1875 C 34.746094 60.679688 32.816406 59.613281 30.28125 59.039062 C 25.585938 57.980469 19.421875 59.726562 15.5 63.019531 C 15.652344 63.621094 15.609375 64.335938 15.40625 64.988281 C 18.230469 66.503906 22.339844 68.144531 26.21875 69.320312 C 27.132812 67.230469 28.878906 66.832031 30.242188 67.171875 C 30.925781 67.34375 31.613281 67.496094 32.304688 67.636719 L 32.808594 67.742188 C 33.453125 67.890625 34.023438 68.320312 34.363281 68.917969 C 34.605469 69.34375 34.828125 70.011719 34.675781 70.929688 C 35.152344 70.902344 35.382812 70.824219 35.4375 70.761719 C 35.945312 69.3125 36.191406 67.746094 36.125 66.125 Z M 33.902344 70.929688 C 34.058594 70.160156 33.890625 69.621094 33.703125 69.292969 C 33.464844 68.878906 33.074219 68.582031 32.636719 68.480469 L 32.152344 68.378906 C 31.449219 68.238281 30.75 68.082031 30.058594 67.910156 C 28.726562 67.578125 27.585938 68.183594 26.957031 69.539062 C 27.589844 69.722656 28.222656 69.898438 28.863281 70.058594 C 28.964844 69.578125 28.984375 69.242188 28.984375 69.234375 C 28.996094 69.027344 29.179688 68.867188 29.386719 68.878906 C 29.488281 68.882812 29.582031 68.929688 29.648438 69.003906 C 29.714844 69.082031 29.75 69.179688 29.746094 69.28125 C 29.742188 69.308594 29.71875 69.691406 29.605469 70.238281 C 29.726562 70.265625 29.851562 70.296875 29.972656 70.324219 C 30.097656 70.351562 30.21875 70.378906 30.339844 70.40625 C 30.449219 69.871094 30.515625 69.417969 30.519531 69.40625 C 30.554688 69.203125 30.746094 69.0625 30.953125 69.09375 C 31.160156 69.125 31.300781 69.316406 31.273438 69.523438 C 31.265625 69.558594 31.195312 70.011719 31.085938 70.558594 C 31.339844 70.605469 31.582031 70.652344 31.8125 70.691406 C 31.894531 70.230469 31.917969 69.863281 31.917969 69.855469 C 31.925781 69.648438 32.105469 69.484375 32.316406 69.496094 C 32.417969 69.5 32.511719 69.546875 32.578125 69.621094 C 32.648438 69.695312 32.683594 69.792969 32.675781 69.894531 C 32.675781 69.925781 32.65625 70.308594 32.566406 70.804688 C 33.09375 70.875 33.535156 70.914062 33.902344 70.929688 Z M 26.847656 71.859375 C 27.144531 72.5 27.664062 72.871094 28.050781 73 C 28.550781 73.175781 29.878906 73.453125 30.980469 73.574219 C 32.1875 73.707031 33.132812 73.035156 33.671875 71.679688 C 33.265625 71.660156 32.832031 71.609375 32.386719 71.546875 C 32.300781 71.820312 32.195312 72.09375 32.058594 72.335938 C 31.953125 72.515625 31.71875 72.582031 31.539062 72.476562 C 31.355469 72.371094 31.292969 72.140625 31.394531 71.957031 C 31.488281 71.796875 31.5625 71.617188 31.625 71.429688 C 31.390625 71.390625 31.152344 71.34375 30.914062 71.300781 C 30.835938 71.613281 30.742188 71.914062 30.644531 72.136719 C 30.5625 72.328125 30.335938 72.417969 30.144531 72.332031 C 30.050781 72.292969 29.976562 72.21875 29.941406 72.125 C 29.90625 72.03125 29.90625 71.925781 29.945312 71.832031 C 30.027344 71.652344 30.101562 71.410156 30.171875 71.144531 C 30.046875 71.117188 29.925781 71.089844 29.804688 71.0625 C 29.675781 71.035156 29.542969 71.003906 29.414062 70.972656 C 29.34375 71.203125 29.261719 71.429688 29.167969 71.652344 C 29.085938 71.847656 28.859375 71.9375 28.667969 71.855469 C 28.472656 71.773438 28.382812 71.550781 28.464844 71.359375 C 28.542969 71.175781 28.613281 70.984375 28.671875 70.792969 C 28.011719 70.625 27.355469 70.445312 26.703125 70.257812 C 26.542969 70.957031 26.683594 71.503906 26.847656 71.859375 Z M 14.308594 62.398438 C 14.140625 62.367188 13.804688 62.371094 13.46875 62.730469 C 12.941406 63.304688 12.691406 64.082031 12.730469 65.039062 C 12.742188 65.28125 12.773438 65.417969 12.84375 65.613281 C 12.96875 65.960938 13.265625 66.191406 13.480469 66.230469 C 13.738281 66.277344 14.03125 66.128906 14.300781 65.808594 C 14.894531 65.105469 15.152344 63.816406 14.859375 62.996094 C 14.738281 62.652344 14.542969 62.441406 14.308594 62.398438 Z M 14.308594 62.398438 "/>
<path style=" stroke:none;fill-rule:nonzero;fill:rgb(100%,100%,100%);fill-opacity:1;" d="M 18.195312 0 C 13.292969 0 12.128906 2.507812 12.128906 2.507812 C 12.128906 2.507812 17.789062 2.101562 17.789062 7.675781 C 17.789062 10.183594 16.417969 11.882812 14.972656 13.683594 C 13.289062 15.773438 11.382812 18.140625 11.382812 22.113281 C 11.382812 28.691406 15.617188 31.777344 19.355469 34.5 C 22.613281 36.871094 25.6875 39.113281 25.6875 43.328125 C 25.6875 47.570312 23.824219 50.859375 22.972656 51.707031 C 21.542969 53.132812 20.257812 53.390625 19.222656 53.597656 C 18.164062 53.8125 17.160156 54.019531 16.949219 55.539062 C 13.023438 57.890625 10.644531 62.078125 10.644531 66.625 C 10.644531 66.800781 10.648438 66.980469 10.65625 67.15625 C 10.796875 70.613281 12.277344 73.804688 14.828125 76.148438 C 17.375 78.488281 20.683594 79.703125 24.148438 79.5625 C 27.609375 79.421875 30.808594 77.941406 33.160156 75.402344 C 35.507812 72.859375 36.722656 69.558594 36.582031 66.105469 C 36.367188 60.832031 33.011719 56.261719 28.035156 54.464844 L 28.054688 54.46875 C 28.035156 54.460938 28.011719 54.453125 27.988281 54.441406 C 27.949219 54.429688 27.910156 54.414062 27.871094 54.402344 C 27.242188 54.183594 26.527344 53.9375 26.527344 52.324219 C 26.527344 50.761719 27.238281 50.628906 28.65625 50.371094 C 29.5 50.214844 30.53125 50.027344 31.539062 49.414062 C 33.339844 48.316406 33.675781 46.996094 33.347656 46.667969 C 32.902344 46.222656 32.414062 47.160156 30.601562 47.703125 C 29.949219 47.898438 29.292969 48.015625 28.847656 48.015625 C 28.480469 48.015625 28.203125 47.984375 28 47.945312 C 28.953125 46.167969 30.019531 44.714844 30.03125 44.699219 L 30.261719 44.382812 L 29.984375 44.109375 C 29.617188 43.742188 29.40625 42.976562 29.40625 41.953125 C 29.40625 40.691406 29.726562 39.035156 30.472656 37.234375 C 31.359375 35.105469 34.867188 28.164062 42.914062 28.164062 L 43.371094 28.164062 L 43.371094 27.707031 C 43.371094 24.835938 43.109375 22.199219 42.589844 19.863281 L 42.488281 19.410156 C 42.488281 19.410156 41.707031 19.628906 41.058594 19.777344 C 40.980469 19.792969 40.371094 19.941406 40.34375 19.8125 C 40.320312 19.699219 40.789062 19.464844 40.949219 19.382812 C 41.5625 19.082031 42.324219 18.761719 42.324219 18.761719 L 42.21875 18.394531 C 41.644531 16.398438 41.066406 15.441406 41.042969 15.402344 L 40.855469 15.097656 L 40.515625 15.207031 C 33.816406 17.3125 32.382812 21.746094 31.527344 24.398438 C 31.109375 25.683594 30.851562 26.414062 30.386719 26.414062 C 29 26.414062 27.859375 25.273438 27.480469 24.898438 C 23.304688 20.730469 23.625 17.726562 24.109375 13.175781 C 24.28125 11.570312 24.472656 9.753906 24.472656 7.675781 C 24.472656 2.4375 22.480469 0 18.195312 0 "/>
<path style=" stroke:none;fill-rule:nonzero;fill:rgb(0%,12.941176%,33.72549%);fill-opacity:1;" d="M 26.144531 43.328125 C 26.144531 47.554688 24.339844 50.988281 23.292969 52.03125 C 20.058594 55.257812 17.390625 52.90625 17.363281 56.144531 C 15.894531 57.46875 14.839844 59.484375 14.320312 61.785156 C 14.355469 61.789062 14.386719 61.792969 14.417969 61.800781 C 14.722656 61.855469 14.980469 62.027344 15.179688 62.300781 C 19.289062 58.960938 25.613281 57.207031 30.449219 58.296875 C 31.984375 58.644531 33.289062 59.210938 34.277344 60.074219 C 32.792969 57.679688 30.523438 55.832031 27.839844 54.875 C 27.203125 54.644531 26.070312 54.386719 26.070312 52.324219 C 26.070312 48.480469 30.289062 51.46875 33.070312 47.28125 C 33.203125 47.074219 33.007812 46.890625 32.84375 47.054688 C 32.003906 47.894531 29.941406 48.46875 28.847656 48.46875 C 27.753906 48.46875 27.34375 48.222656 27.34375 48.222656 C 28.375 46.171875 29.660156 44.429688 29.660156 44.429688 C 27.082031 41.855469 31.421875 27.707031 42.914062 27.707031 C 42.914062 24.425781 42.566406 21.863281 42.144531 19.960938 C 41.871094 20.027344 39.707031 20.535156 39.605469 20.082031 C 39.519531 19.679688 41.199219 18.808594 41.78125 18.519531 C 41.214844 16.558594 40.652344 15.640625 40.652344 15.640625 C 30.804688 18.734375 32.785156 26.867188 30.386719 26.867188 C 28.824219 26.867188 27.597656 25.65625 27.160156 25.21875 C 21.277344 19.351562 24.019531 15.46875 24.019531 7.671875 C 24.019531 2.421875 21.972656 0.457031 18.195312 0.457031 C 14.421875 0.457031 13.070312 2.085938 13.070312 2.085938 C 13.070312 2.085938 18.246094 2.253906 18.246094 7.671875 C 18.246094 13.347656 11.839844 14.914062 11.839844 22.113281 C 11.839844 34.097656 26.144531 33.871094 26.144531 43.328125 M 19.324219 7.675781 C 19.324219 6.976562 19.25 6.351562 19.113281 5.78125 C 19.113281 5.78125 20.238281 5.722656 20.238281 4.359375 C 20.238281 3.230469 19.484375 2.460938 19.285156 2.460938 C 19.121094 2.460938 19.078125 2.636719 18.726562 2.636719 C 17.867188 2.636719 17.804688 1.539062 17.804688 1.539062 C 17.929688 1.535156 18.0625 1.53125 18.195312 1.53125 C 20.660156 1.53125 22.9375 2.277344 22.9375 7.675781 C 22.9375 9.671875 22.75 11.445312 22.582031 13.011719 C 22.414062 14.5625 22.261719 16 22.304688 17.40625 C 22.304688 17.40625 18.019531 16.902344 18.019531 13.683594 C 18.019531 11.59375 19.324219 11.085938 19.324219 7.675781 Z M 13.300781 66.8125 C 13.023438 66.746094 12.785156 66.574219 12.601562 66.316406 C 11.667969 67.753906 11.277344 69.035156 11.617188 70.1875 C 13.054688 75.019531 17.328125 78.585938 22.445312 79.0625 C 17.554688 77.582031 13.933594 72.496094 13.300781 66.8125 Z M 12.296875 63.957031 C 11.988281 63.738281 11.726562 63.535156 11.539062 63.355469 C 11.203125 64.585938 11.058594 65.863281 11.113281 67.140625 C 11.125 67.402344 11.140625 67.667969 11.167969 67.925781 C 11.359375 67.152344 11.730469 66.34375 12.265625 65.519531 C 12.160156 65.035156 12.179688 64.484375 12.296875 63.957031 Z M 12.539062 63.222656 C 12.667969 62.929688 12.828125 62.65625 13.023438 62.429688 C 13.175781 62.246094 13.34375 62.101562 13.519531 61.996094 C 13.984375 59.832031 14.957031 57.902344 16.378906 56.445312 C 14.253906 57.953125 12.628906 60.097656 11.773438 62.585938 C 11.886719 62.742188 12.1875 62.976562 12.539062 63.222656 Z M 30.894531 74.328125 C 29.835938 74.210938 28.417969 73.933594 27.800781 73.71875 C 27.109375 73.480469 26.496094 72.90625 26.15625 72.179688 C 25.984375 71.804688 25.886719 71.402344 25.871094 70.992188 C 25.859375 70.703125 25.886719 70.382812 25.972656 70.039062 C 22.089844 68.859375 17.976562 67.214844 15.109375 65.691406 C 15.011719 65.871094 14.898438 66.042969 14.765625 66.199219 C 14.550781 66.453125 14.308594 66.636719 14.058594 66.742188 C 14.328125 69.121094 15.15625 71.449219 16.472656 73.476562 C 18.222656 76.167969 20.601562 78.015625 23.171875 78.59375 C 24.085938 78.800781 25.277344 79.054688 26.34375 78.820312 C 30.296875 77.945312 33.515625 75.21875 35.09375 71.632812 C 34.90625 71.664062 34.699219 71.683594 34.476562 71.691406 C 33.574219 74.324219 31.679688 74.417969 30.894531 74.328125 Z M 35.320312 62.1875 C 34.746094 60.679688 32.816406 59.613281 30.28125 59.039062 C 25.585938 57.980469 19.421875 59.726562 15.5 63.019531 C 15.652344 63.621094 15.609375 64.335938 15.40625 64.988281 C 18.230469 66.503906 22.339844 68.144531 26.21875 69.320312 C 27.132812 67.230469 28.878906 66.832031 30.242188 67.171875 C 30.925781 67.34375 31.613281 67.496094 32.304688 67.636719 L 32.808594 67.742188 C 33.453125 67.890625 34.023438 68.320312 34.363281 68.917969 C 34.605469 69.34375 34.828125 70.011719 34.675781 70.929688 C 35.152344 70.902344 35.382812 70.824219 35.4375 70.761719 C 35.945312 69.3125 36.191406 67.75 36.125 66.125 C 36.074219 64.777344 35.800781 63.445312 35.320312 62.1875 Z M 26.847656 71.859375 C 27.144531 72.5 27.664062 72.871094 28.050781 73 C 28.550781 73.175781 29.878906 73.453125 30.980469 73.574219 C 32.1875 73.707031 33.132812 73.035156 33.671875 71.679688 C 33.265625 71.660156 32.832031 71.609375 32.386719 71.546875 C 32.300781 71.820312 32.195312 72.09375 32.058594 72.335938 C 31.953125 72.515625 31.71875 72.582031 31.539062 72.476562 C 31.355469 72.371094 31.292969 72.140625 31.394531 71.957031 C 31.488281 71.796875 31.5625 71.617188 31.625 71.429688 C 31.390625 71.390625 31.152344 71.34375 30.914062 71.300781 C 30.835938 71.613281 30.742188 71.914062 30.644531 72.136719 C 30.5625 72.328125 30.335938 72.417969 30.144531 72.332031 C 30.050781 72.292969 29.976562 72.21875 29.941406 72.125 C 29.90625 72.03125 29.90625 71.925781 29.945312 71.832031 C 30.027344 71.652344 30.101562 71.410156 30.171875 71.144531 C 30.046875 71.117188 29.925781 71.089844 29.804688 71.0625 C 29.675781 71.035156 29.542969 71.003906 29.414062 70.972656 C 29.34375 71.203125 29.261719 71.429688 29.167969 71.652344 C 29.085938 71.847656 28.859375 71.9375 28.667969 71.855469 C 28.472656 71.773438 28.382812 71.550781 28.464844 71.359375 C 28.542969 71.175781 28.613281 70.984375 28.671875 70.792969 C 28.011719 70.625 27.355469 70.445312 26.703125 70.257812 C 26.542969 70.957031 26.683594 71.503906 26.847656 71.859375 Z M 33.902344 70.929688 C 34.058594 70.160156 33.890625 69.621094 33.703125 69.292969 C 33.464844 68.878906 33.074219 68.582031 32.636719 68.480469 L 32.152344 68.378906 C 31.449219 68.238281 30.75 68.082031 30.058594 67.910156 C 28.726562 67.578125 27.585938 68.183594 26.957031 69.539062 C 27.589844 69.722656 28.222656 69.898438 28.863281 70.058594 C 28.964844 69.578125 28.984375 69.242188 28.984375 69.234375 C 28.996094 69.027344 29.179688 68.867188 29.386719 68.878906 C 29.488281 68.882812 29.582031 68.929688 29.648438 69.003906 C 29.714844 69.082031 29.75 69.179688 29.746094 69.28125 C 29.742188 69.308594 29.71875 69.691406 29.605469 70.238281 C 29.726562 70.265625 29.851562 70.296875 29.972656 70.324219 C 30.097656 70.351562 30.21875 70.378906 30.339844 70.40625 C 30.449219 69.871094 30.515625 69.417969 30.519531 69.40625 C 30.554688 69.203125 30.746094 69.0625 30.953125 69.09375 C 31.160156 69.125 31.300781 69.316406 31.273438 69.523438 C 31.265625 69.558594 31.195312 70.011719 31.085938 70.558594 C 31.339844 70.605469 31.582031 70.652344 31.8125 70.691406 C 31.894531 70.230469 31.917969 69.863281 31.917969 69.855469 C 31.925781 69.648438 32.105469 69.484375 32.316406 69.496094 C 32.417969 69.5 32.511719 69.546875 32.578125 69.621094 C 32.648438 69.695312 32.683594 69.792969 32.675781 69.894531 C 32.675781 69.925781 32.65625 70.308594 32.566406 70.804688 C 33.09375 70.875 33.535156 70.914062 33.902344 70.929688 Z M 14.308594 62.398438 C 14.140625 62.367188 13.804688 62.371094 13.46875 62.730469 C 12.941406 63.304688 12.691406 64.082031 12.730469 65.039062 C 12.742188 65.28125 12.773438 65.417969 12.84375 65.613281 C 12.96875 65.960938 13.265625 66.191406 13.480469 66.230469 C 13.738281 66.277344 14.03125 66.128906 14.300781 65.808594 C 14.894531 65.105469 15.152344 63.816406 14.859375 62.996094 C 14.738281 62.652344 14.542969 62.441406 14.308594 62.398438 Z M 4.460938 77.554688 C 5.421875 78.1875 6.441406 78.753906 6.441406 78.753906 L 6.082031 79.675781 C 5.949219 79.117188 5.394531 78.816406 4.679688 78.375 L 2.339844 81.75 C 2.054688 82.160156 1.496094 83.050781 1.449219 83.398438 C 1.449219 83.398438 1.066406 83.152344 0.714844 82.894531 C 0.347656 82.621094 0 82.367188 0 82.367188 C 0.347656 82.285156 0.953125 81.398438 1.316406 80.90625 L 3.59375 77.664062 C 2.742188 77.003906 2.40625 76.875 1.804688 76.84375 L 2.617188 76.238281 C 2.617188 76.238281 3.394531 76.851562 4.460938 77.554688 M 41.574219 88.996094 L 41.644531 89.074219 C 41.578125 89.070312 41.523438 89.105469 41.453125 89.144531 L 41.660156 89.539062 C 41.699219 89.613281 41.757812 89.722656 41.792969 89.730469 C 41.792969 89.730469 41.75 89.757812 41.695312 89.78125 C 41.652344 89.804688 41.605469 89.824219 41.605469 89.824219 C 41.609375 89.773438 41.59375 89.734375 41.539062 89.625 L 41.324219 89.210938 C 41.25 89.246094 41.171875 89.28125 41.148438 89.339844 L 41.132812 89.226562 C 41.132812 89.226562 41.238281 89.175781 41.351562 89.117188 C 41.425781 89.078125 41.5 89.039062 41.574219 88.996094 M 5.976562 85.933594 C 4.351562 85.160156 4.136719 83.371094 4.9375 81.699219 C 5.742188 80.015625 7.273438 79.070312 8.894531 79.84375 C 10.511719 80.613281 10.742188 82.398438 9.933594 84.078125 C 9.132812 85.753906 7.605469 86.707031 5.976562 85.933594 M 8.660156 80.328125 C 7.621094 79.832031 6.804688 81.003906 6.1875 82.292969 C 5.570312 83.582031 5.164062 84.960938 6.207031 85.457031 C 7.246094 85.953125 8.070312 84.773438 8.6875 83.484375 C 9.300781 82.195312 9.703125 80.824219 8.660156 80.328125 Z M 13.257812 81.570312 C 13.917969 81.757812 14.585938 81.929688 15.253906 82.089844 L 15.160156 83.070312 C 14.863281 82.644531 14.726562 82.542969 13.789062 82.304688 L 12.652344 86.121094 C 12.558594 86.472656 12.105469 87.792969 12.25 88.042969 C 12.25 88.042969 11.933594 87.976562 11.425781 87.835938 C 10.851562 87.675781 10.582031 87.566406 10.582031 87.566406 C 10.875 87.375 11.246094 86.246094 11.367188 85.785156 L 12.511719 81.941406 C 11.539062 81.617188 11.3125 81.59375 10.847656 81.8125 L 11.410156 80.972656 C 11.410156 80.972656 12.046875 81.230469 13.257812 81.570312 M 17.796875 82.585938 C 18.496094 82.691406 19.199219 82.773438 19.902344 82.84375 L 19.945312 83.828125 C 19.539062 83.46875 19.386719 83.351562 18.316406 83.21875 L 17.695312 87.136719 C 17.652344 87.496094 17.421875 88.863281 17.601562 89.085938 C 17.601562 89.085938 17.222656 89.046875 16.707031 88.972656 C 16.1875 88.898438 15.867188 88.828125 15.867188 88.828125 C 16.121094 88.628906 16.332031 87.339844 16.375 86.980469 L 17.011719 83.007812 C 16.082031 82.824219 15.894531 82.894531 15.449219 83.152344 L 15.851562 82.21875 C 15.851562 82.21875 16.71875 82.421875 17.796875 82.585938 M 21.816406 86.3125 L 21.734375 88.949219 C 23.121094 88.96875 24.070312 88.878906 24.492188 88.28125 L 24.28125 89.476562 C 24.28125 89.476562 23.511719 89.492188 22.390625 89.476562 C 21.152344 89.460938 20.183594 89.378906 20.183594 89.378906 C 20.390625 89.175781 20.441406 87.894531 20.445312 87.53125 L 20.558594 84.945312 C 20.5625 84.257812 20.625 83.144531 20.394531 82.910156 C 21.398438 82.980469 21.269531 82.976562 22.191406 83.011719 C 23.398438 83.0625 24.082031 83.027344 24.082031 83.027344 L 24.234375 84.015625 C 23.761719 83.621094 23.054688 83.574219 21.902344 83.570312 L 21.839844 85.78125 L 23.609375 85.789062 C 23.769531 85.792969 23.777344 85.882812 23.777344 86.058594 C 23.777344 86.234375 23.773438 86.324219 23.605469 86.324219 L 21.816406 86.3125 M 29.554688 87.105469 C 29.65625 88.066406 29.757812 88.753906 29.976562 88.882812 C 29.921875 88.980469 29.746094 89.109375 29.515625 89.136719 C 29.238281 89.164062 29.027344 89.027344 28.835938 88.804688 L 25.695312 85.210938 L 25.8125 87.5 C 25.851562 87.859375 25.894531 89.21875 26.117188 89.402344 L 25.070312 89.449219 C 25.253906 89.222656 25.203125 87.925781 25.167969 87.566406 L 25.019531 84.988281 C 24.980469 84.628906 24.914062 83.199219 24.6875 83.019531 L 25.648438 82.984375 L 28.867188 86.796875 L 28.597656 84.605469 C 28.558594 84.242188 28.363281 82.9375 28.148438 82.753906 C 28.148438 82.753906 28.261719 82.742188 28.652344 82.691406 C 29.042969 82.636719 29.183594 82.609375 29.183594 82.609375 C 29.003906 82.835938 29.214844 84.175781 29.253906 84.535156 L 29.554688 87.105469 M 35.453125 85.746094 C 35.566406 86.195312 35.785156 87.339844 36.113281 87.5625 C 36.113281 87.5625 35.617188 87.707031 35.3125 87.800781 C 35.042969 87.882812 34.449219 88.039062 34.449219 88.039062 C 34.589844 87.789062 34.277344 86.414062 34.1875 86.070312 L 33.890625 84.875 L 31.894531 85.363281 L 32.121094 86.578125 C 32.1875 86.972656 32.394531 88.296875 32.664062 88.457031 C 32.664062 88.457031 32.386719 88.515625 31.804688 88.636719 C 31.316406 88.734375 30.976562 88.789062 30.976562 88.789062 C 31.128906 88.539062 30.925781 87.3125 30.863281 86.921875 L 30.382812 84.347656 C 30.292969 83.871094 30.070312 82.65625 29.804688 82.515625 C 29.804688 82.515625 30.0625 82.464844 30.632812 82.355469 C 31.203125 82.246094 31.480469 82.167969 31.480469 82.167969 C 31.339844 82.457031 31.589844 83.621094 31.65625 84.027344 L 31.808594 84.84375 L 33.773438 84.367188 L 33.5625 83.535156 C 33.445312 83.09375 33.203125 82.03125 32.929688 81.835938 C 32.929688 81.835938 33.199219 81.757812 33.746094 81.601562 C 34.292969 81.449219 34.527344 81.359375 34.527344 81.359375 C 34.417969 81.65625 34.722656 82.6875 34.847656 83.21875 L 35.453125 85.746094 M 39.097656 84.222656 L 37.152344 84.984375 L 37.21875 86.050781 C 37.261719 86.414062 37.265625 86.75 37.34375 86.9375 C 37.378906 87.019531 37.4375 87.085938 37.515625 87.125 C 37.515625 87.125 37.3125 87.199219 36.976562 87.308594 C 36.644531 87.417969 36.457031 87.46875 36.457031 87.46875 C 36.574219 87.269531 36.605469 86.992188 36.59375 86.648438 L 36.421875 81.589844 C 36.40625 81.40625 36.382812 81.234375 36.324219 81.089844 C 36.269531 80.960938 36.175781 80.890625 36.113281 80.835938 C 36.335938 80.691406 36.613281 80.535156 36.894531 80.417969 C 37.34375 80.226562 37.53125 80.234375 37.855469 80.617188 L 40.714844 84.148438 C 41.234375 84.824219 41.691406 85.277344 41.992188 85.367188 C 41.992188 85.367188 41.699219 85.503906 41.148438 85.746094 C 40.601562 85.988281 40.238281 86.128906 40.238281 86.128906 C 40.269531 86.011719 40.273438 85.890625 40.203125 85.710938 C 40.125 85.511719 39.84375 85.179688 39.664062 84.929688 L 39.097656 84.222656 M 38.746094 83.804688 L 37.015625 81.414062 L 37.136719 84.417969 Z M 47.257812 82.390625 C 46.867188 82.652344 46.574219 82.855469 46.574219 82.855469 C 46.542969 82.46875 45.800781 81.519531 45.582031 81.230469 L 43.902344 79.046875 L 45.253906 83.351562 C 45.199219 83.4375 45.105469 83.558594 45.015625 83.625 C 44.75 83.828125 44.488281 83.785156 44.253906 83.601562 L 41.058594 80.957031 L 42.175781 83.011719 C 42.449219 83.535156 42.976562 84.617188 43.332031 84.722656 C 43.332031 84.722656 43.113281 84.839844 42.832031 84.976562 C 42.683594 85.046875 42.535156 85.117188 42.386719 85.1875 C 42.449219 84.886719 41.929688 83.988281 41.625 83.414062 L 40.382812 81.078125 C 40.003906 80.375 39.585938 79.660156 39.230469 79.515625 C 39.507812 79.382812 39.589844 79.34375 39.984375 79.148438 C 40.316406 78.984375 40.605469 78.828125 40.605469 78.828125 L 44.203125 81.878906 L 42.789062 77.558594 C 42.789062 77.558594 42.980469 77.429688 43.339844 77.1875 C 43.695312 76.949219 44.019531 76.710938 44.019531 76.710938 C 44.046875 77.097656 44.796875 78.082031 45.070312 78.4375 L 46.621094 80.425781 C 46.949219 80.832031 47.5625 81.746094 48 81.847656 C 48 81.847656 47.648438 82.125 47.257812 82.390625 M 42.375 88.804688 L 42.550781 89.03125 C 42.601562 89.09375 42.65625 89.171875 42.710938 89.195312 C 42.710938 89.195312 42.664062 89.226562 42.621094 89.257812 C 42.574219 89.285156 42.542969 89.308594 42.542969 89.308594 C 42.53125 89.25 42.457031 89.15625 42.429688 89.121094 L 42.242188 88.875 L 42.398438 89.363281 C 42.390625 89.375 42.378906 89.382812 42.371094 89.394531 C 42.328125 89.425781 42.300781 89.40625 42.273438 89.386719 L 41.902344 89.089844 L 42.046875 89.324219 C 42.082031 89.382812 42.144531 89.496094 42.191406 89.519531 L 42.132812 89.554688 C 42.113281 89.566406 42.09375 89.574219 42.074219 89.585938 C 42.082031 89.527344 42.007812 89.410156 41.984375 89.371094 L 41.824219 89.105469 C 41.789062 89.042969 41.730469 88.957031 41.679688 88.941406 C 41.679688 88.941406 41.730469 88.914062 41.777344 88.886719 C 41.808594 88.871094 41.839844 88.851562 41.859375 88.84375 L 42.269531 89.183594 L 42.109375 88.699219 C 42.125 88.691406 42.148438 88.675781 42.1875 88.652344 C 42.234375 88.625 42.273438 88.597656 42.273438 88.597656 C 42.273438 88.65625 42.339844 88.757812 42.375 88.804688 M 10.4375 90.25 C 10.773438 90.371094 11.203125 90.519531 11.203125 90.519531 C 10.839844 90.78125 10.507812 91.824219 10.292969 92.390625 L 9.457031 94.703125 C 9.230469 95.328125 8.851562 96.238281 8.980469 96.5625 C 8.980469 96.5625 8.519531 96.40625 8.148438 96.273438 C 7.828125 96.160156 7.648438 96.101562 7.3125 95.957031 C 7.71875 95.847656 8.105469 94.488281 8.230469 94.148438 L 8.613281 93.066406 L 6.613281 92.234375 L 6.03125 93.46875 C 5.84375 93.898438 5.394531 94.871094 5.5 95.171875 C 5.5 95.171875 5.148438 95.03125 4.628906 94.792969 C 4.019531 94.511719 3.886719 94.4375 3.886719 94.4375 C 4.316406 94.226562 4.570312 93.535156 4.898438 92.835938 L 5.945312 90.523438 C 6.296875 89.730469 6.617188 89.046875 6.59375 88.59375 C 6.59375 88.59375 6.78125 88.703125 7.296875 88.933594 C 7.707031 89.121094 7.917969 89.210938 8.144531 89.304688 C 7.820312 89.433594 7.367188 90.601562 7.128906 91.125 L 6.820312 91.777344 L 8.777344 92.582031 L 9.078125 91.839844 C 9.21875 91.460938 9.703125 90.332031 9.597656 89.945312 C 9.597656 89.945312 10 90.089844 10.4375 90.25 M 12.699219 97.753906 C 10.957031 97.296875 10.402344 95.609375 10.863281 93.855469 C 11.328125 92.09375 12.648438 90.910156 14.386719 91.367188 C 16.121094 91.820312 16.6875 93.496094 16.222656 95.261719 C 15.757812 97.015625 14.445312 98.210938 12.699219 97.753906 M 14.25 91.875 C 13.136719 91.582031 12.5625 92.855469 12.203125 94.207031 C 11.847656 95.558594 11.71875 96.960938 12.832031 97.253906 C 13.945312 97.546875 14.527344 96.261719 14.882812 94.910156 C 15.238281 93.558594 15.367188 92.167969 14.25 91.875 Z M 17.425781 98.375 C 17.425781 98.375 17.535156 98.253906 17.609375 98.011719 C 17.71875 97.667969 17.785156 97.007812 17.867188 96.496094 L 18.355469 92.730469 C 17.316406 92.601562 17.050781 92.675781 16.59375 92.945312 L 17.023438 91.980469 C 17.347656 92.050781 18.066406 92.128906 18.9375 92.238281 C 19.523438 92.3125 21.261719 92.46875 21.261719 92.46875 L 21.324219 93.433594 C 20.9375 92.988281 20.539062 92.949219 19.671875 92.882812 L 19.1875 96.660156 C 19.144531 97.011719 18.949219 98.234375 19.140625 98.59375 C 18.933594 98.570312 18.585938 98.53125 18.296875 98.503906 C 17.996094 98.472656 17.597656 98.402344 17.425781 98.375 M 25.714844 97.066406 C 25.726562 98.199219 24.800781 99.019531 23.378906 99 C 22.273438 98.984375 21.695312 98.53125 21.472656 98.34375 L 21.703125 97.269531 C 22.046875 97.953125 22.617188 98.453125 23.257812 98.460938 C 23.925781 98.472656 24.453125 98.078125 24.464844 97.417969 C 24.472656 96.9375 24.207031 96.644531 23.089844 96.066406 C 22.019531 95.515625 21.621094 94.964844 21.621094 94.144531 C 21.621094 93.03125 22.59375 92.464844 23.738281 92.464844 C 24.578125 92.460938 25.164062 92.71875 25.535156 92.914062 L 25.296875 93.902344 C 24.785156 93.222656 24.324219 92.96875 23.769531 92.960938 C 23.21875 92.953125 22.832031 93.253906 22.832031 93.816406 C 22.835938 94.425781 23.515625 94.757812 24.425781 95.265625 C 25.472656 95.851562 25.707031 96.4375 25.714844 97.066406 M 30.890625 93.59375 C 30.933594 93.726562 30.957031 93.886719 30.96875 94.015625 C 30.980469 94.132812 30.984375 94.285156 30.972656 94.433594 C 30.941406 94.800781 30.765625 95.226562 30.476562 95.527344 C 30.035156 95.988281 29.460938 96.214844 28.699219 96.253906 C 28.402344 96.269531 28.332031 96.179688 28.3125 95.96875 L 28.3125 95.921875 C 28.3125 95.921875 28.304688 95.839844 28.371094 95.835938 L 28.445312 95.828125 C 28.667969 95.800781 29.003906 95.730469 29.273438 95.40625 C 29.53125 95.070312 29.617188 94.625 29.574219 94.144531 C 29.523438 93.648438 29.375 93.289062 29.039062 93.03125 C 28.75 92.808594 28.40625 92.738281 28.054688 92.765625 C 28.054688 92.765625 27.914062 92.777344 27.757812 92.800781 C 27.757812 92.800781 27.664062 92.808594 27.671875 92.898438 L 28.050781 96.804688 C 28.082031 97.148438 28.175781 98.359375 28.460938 98.609375 C 28.460938 98.609375 28.136719 98.644531 27.53125 98.691406 C 27.070312 98.730469 26.707031 98.738281 26.707031 98.738281 C 26.832031 98.441406 26.808594 97.996094 26.78125 97.480469 L 26.488281 94.402344 C 26.453125 94.046875 26.394531 92.839844 26.105469 92.542969 C 26.105469 92.542969 26.882812 92.425781 28.316406 92.292969 C 29.066406 92.222656 29.679688 92.316406 30.207031 92.675781 C 30.554688 92.90625 30.792969 93.246094 30.890625 93.59375 M 36.757812 94.851562 C 37.066406 96.207031 36.429688 97.359375 35.015625 97.710938 C 34.023438 97.957031 32.59375 97.59375 32.195312 95.859375 L 31.710938 93.808594 C 31.582031 93.234375 31.375 92.21875 31.039062 91.953125 C 31.039062 91.953125 31.414062 91.902344 31.996094 91.792969 C 32.582031 91.683594 32.851562 91.617188 32.851562 91.617188 C 32.699219 91.859375 32.859375 92.808594 33.011719 93.507812 L 33.632812 96.113281 C 33.742188 96.589844 33.898438 96.917969 34.167969 97.109375 C 34.367188 97.253906 34.632812 97.292969 34.910156 97.242188 C 35.164062 97.195312 35.425781 97.054688 35.5625 96.800781 C 35.707031 96.535156 35.707031 96.148438 35.59375 95.667969 L 34.898438 93.0625 C 34.707031 92.347656 34.488281 91.449219 34.253906 91.296875 C 34.253906 91.296875 34.535156 91.222656 35.074219 91.066406 C 35.480469 90.953125 35.722656 90.882812 35.898438 90.820312 C 35.738281 91.214844 36.121094 92.417969 36.203125 92.761719 L 36.757812 94.851562 M 43.101562 94.316406 C 43.238281 94.371094 43.382812 94.40625 43.507812 94.355469 C 43.496094 94.4375 43.414062 94.609375 43.28125 94.746094 C 42.710938 95.328125 42.171875 95.230469 41.992188 95.15625 C 41.007812 94.78125 39.359375 93.328125 39.292969 93.167969 C 39.292969 93.167969 39.277344 93.125 39.320312 93.109375 L 39.378906 93.082031 C 39.636719 92.976562 39.925781 92.6875 40.042969 92.410156 C 40.226562 92.007812 40.195312 91.648438 40.007812 91.207031 C 39.816406 90.746094 39.476562 90.457031 39.210938 90.378906 C 38.816406 90.261719 38.527344 90.355469 38.347656 90.425781 C 38.347656 90.425781 38.109375 90.515625 38.042969 90.585938 C 38.042969 90.585938 37.992188 90.628906 38.050781 90.789062 L 39.292969 94.332031 C 39.480469 94.851562 39.808594 95.871094 40.105469 96.039062 C 40.105469 96.039062 39.769531 96.171875 39.261719 96.355469 C 38.753906 96.539062 38.441406 96.625 38.441406 96.625 C 38.546875 96.230469 38.152344 95.152344 38.054688 94.851562 L 37.25 92.457031 C 37.050781 91.882812 36.683594 90.847656 36.382812 90.683594 C 36.382812 90.683594 36.96875 90.519531 38.289062 89.964844 C 38.992188 89.671875 39.671875 89.546875 40.285156 89.722656 C 40.660156 89.832031 40.910156 90.019531 41.117188 90.316406 C 41.195312 90.433594 41.253906 90.546875 41.300781 90.664062 C 41.347656 90.773438 41.378906 90.898438 41.402344 91.011719 C 41.464844 91.375 41.410156 91.757812 41.203125 92.121094 C 41.203125 92.121094 41.011719 92.488281 40.609375 92.773438 C 40.609375 92.773438 41.90625 93.867188 43.101562 94.316406 "/>
</g>
</svg>
