<svg width="1800" height="2500" viewBox="0 0 1800 2500" fill="none" xmlns="http://www.w3.org/2000/svg">
<g clip-path="url(#clip0_290_1319)">
<path d="M498.781 1687.13C488.381 1685.45 479.445 1681.11 472.561 1674.6C437.551 1710.9 422.902 1743.25 435.647 1772.35C489.553 1894.37 649.807 1984.43 841.701 1996.46C658.303 1959.08 522.512 1830.65 498.781 1687.13ZM461.135 1615.02C449.563 1609.5 439.748 1604.37 432.717 1599.83C420.119 1630.9 414.699 1663.16 416.75 1695.41C417.19 1702.02 417.776 1708.73 418.801 1715.24C425.979 1695.71 439.895 1675.29 459.963 1654.48C456.008 1642.25 456.74 1628.34 461.135 1615.02ZM470.217 1596.48C475.051 1589.08 481.057 1582.18 488.381 1576.45C494.094 1571.82 500.393 1568.17 506.984 1565.51C524.416 1510.86 560.891 1462.13 614.211 1425.34C534.524 1463.41 473.586 1517.57 441.506 1580.4C445.754 1584.35 457.033 1590.26 470.217 1596.48ZM1158.55 1876.91C1118.85 1873.95 1065.68 1866.95 1042.53 1861.52C1016.6 1855.51 993.606 1841.01 980.861 1822.66C974.416 1813.19 970.754 1803.03 970.168 1792.67C969.729 1785.37 970.754 1777.29 973.977 1768.61C828.371 1738.82 674.123 1697.29 566.604 1658.82C562.942 1663.36 558.694 1667.7 553.713 1671.64C545.656 1678.05 536.574 1682.69 527.199 1685.35C537.307 1745.43 568.361 1804.21 617.727 1855.41C683.352 1923.37 772.561 1970.03 868.947 1984.63C903.225 1989.86 947.902 1996.27 987.893 1990.35C1136.13 1968.25 1256.84 1899.4 1316.02 1808.85C1308.99 1809.64 1301.22 1810.13 1292.87 1810.33C1259.04 1876.81 1187.99 1879.18 1158.55 1876.91ZM1354.69 1669.77C1352.64 1634.75 1342.09 1601.31 1324.51 1570.34C1302.98 1532.26 1230.62 1505.33 1135.55 1490.83C959.475 1464.1 728.322 1508.2 581.252 1591.35C586.965 1606.54 585.354 1624.59 577.736 1641.06C683.645 1679.34 837.746 1720.76 983.205 1750.46C1017.48 1697.68 1082.96 1687.62 1134.08 1696.2C1159.72 1700.54 1185.5 1704.39 1211.43 1707.94L1230.32 1710.61C1254.49 1714.35 1275.88 1725.2 1288.63 1740.3C1297.71 1751.05 1306.06 1767.91 1300.34 1791.1C1318.22 1790.4 1326.86 1788.43 1328.91 1786.85C1347.95 1750.26 1357.18 1710.7 1354.69 1669.77ZM1271.34 1791.1C1277.2 1771.66 1270.9 1758.05 1263.87 1749.77C1254.93 1739.31 1240.29 1731.81 1223.88 1729.25L1205.71 1726.68C1179.35 1723.13 1153.13 1719.19 1127.2 1714.85C1077.25 1706.46 1034.47 1721.75 1010.89 1755.98C1034.62 1760.62 1058.35 1765.05 1082.38 1769.1C1086.18 1756.97 1086.92 1748.48 1086.92 1748.29C1087.36 1743.06 1094.24 1739.01 1102 1739.31C1105.81 1739.41 1109.33 1740.59 1111.82 1742.47C1114.31 1744.44 1115.63 1746.9 1115.48 1749.47C1115.33 1750.16 1114.46 1759.83 1110.21 1773.64C1114.75 1774.33 1119.44 1775.12 1123.98 1775.81C1128.66 1776.5 1133.21 1777.19 1137.75 1777.88C1141.85 1764.36 1144.34 1752.92 1144.48 1752.63C1145.8 1747.5 1152.98 1743.95 1160.74 1744.73C1168.51 1745.52 1173.78 1750.36 1172.76 1755.58C1172.46 1756.47 1169.83 1767.91 1165.72 1781.72C1175.25 1782.91 1184.33 1784.09 1192.97 1785.08C1196.05 1773.44 1196.93 1764.17 1196.93 1763.97C1197.22 1758.74 1203.96 1754.6 1211.87 1754.89C1215.68 1754.99 1219.19 1756.18 1221.68 1758.05C1224.32 1759.93 1225.64 1762.39 1225.34 1764.96C1225.34 1765.74 1224.61 1775.41 1221.24 1787.94C1241.02 1789.71 1257.57 1790.7 1271.34 1791.1ZM1006.79 1814.57C1017.92 1830.75 1037.4 1840.12 1051.91 1843.37C1070.66 1847.81 1120.46 1854.82 1161.77 1857.87C1207.03 1861.23 1242.48 1844.26 1262.7 1810.03C1247.46 1809.54 1231.2 1808.26 1214.5 1806.68C1211.28 1813.59 1207.33 1820.49 1202.2 1826.61C1198.24 1831.14 1189.46 1832.82 1182.72 1830.16C1175.83 1827.49 1173.49 1821.67 1177.3 1817.04C1180.81 1812.99 1183.6 1808.46 1185.94 1803.72C1177.15 1802.73 1168.22 1801.55 1159.28 1800.47C1156.35 1808.36 1152.83 1815.95 1149.17 1821.58C1146.1 1826.41 1137.6 1828.68 1130.42 1826.51C1126.91 1825.52 1124.12 1823.65 1122.8 1821.28C1121.49 1818.91 1121.49 1816.25 1122.95 1813.88C1126.03 1809.34 1128.81 1803.23 1131.45 1796.52C1126.76 1795.83 1122.22 1795.14 1117.68 1794.45C1112.84 1793.76 1107.86 1792.97 1103.03 1792.18C1100.39 1798 1097.32 1803.72 1093.8 1809.34C1090.72 1814.28 1082.23 1816.54 1075.05 1814.47C1067.73 1812.4 1064.36 1806.78 1067.43 1801.95C1070.36 1797.31 1073 1792.48 1075.2 1787.64C1050.44 1783.4 1025.83 1778.86 1001.37 1774.13C995.363 1791.79 1000.64 1805.6 1006.79 1814.57ZM536.574 1575.67C530.276 1574.88 517.678 1574.97 505.08 1584.05C485.305 1598.55 475.93 1618.18 477.395 1642.35C477.834 1648.46 479.006 1651.91 481.643 1656.85C486.33 1665.63 497.463 1671.44 505.52 1672.43C515.188 1673.61 526.174 1669.87 536.281 1661.78C558.547 1644.02 568.215 1611.47 557.229 1590.76C552.688 1582.08 545.363 1576.75 536.574 1575.67Z" fill="#002156"/>
<path d="M682.298 0C498.46 0 454.808 63.327 454.808 63.327C454.808 63.327 667.063 53.0684 667.063 193.828C667.063 257.155 615.647 300.063 561.448 345.536C498.313 398.309 426.829 458.085 426.829 558.402C426.829 724.512 585.618 802.438 725.804 871.19C847.972 931.064 963.255 987.684 963.255 1094.12C963.255 1201.24 893.382 1284.29 861.448 1305.7C807.835 1341.7 759.642 1348.21 720.823 1353.44C681.126 1358.87 643.479 1364.09 635.569 1402.47C488.353 1461.85 399.144 1567.59 399.144 1682.41C399.144 1686.85 399.29 1691.38 399.583 1695.82C404.856 1783.12 460.374 1863.71 556.028 1922.89C651.536 1981.98 775.608 2012.65 905.54 2009.1C1035.33 2005.55 1155.3 1968.17 1243.48 1904.05C1331.52 1839.84 1377.07 1756.49 1371.8 1669.29C1363.74 1536.12 1237.91 1420.71 1051.29 1375.34L1052.02 1375.44C1051.29 1375.24 1050.41 1375.04 1049.53 1374.75C1048.07 1374.45 1046.6 1374.06 1045.14 1373.76C1021.56 1368.24 994.749 1362.02 994.749 1321.28C994.749 1281.83 1021.41 1278.47 1074.58 1271.96C1106.22 1268.02 1144.9 1263.28 1182.69 1247.8C1250.22 1220.08 1262.82 1186.74 1250.51 1178.45C1233.81 1167.21 1215.5 1190.88 1147.53 1204.59C1123.07 1209.53 1098.46 1212.48 1081.76 1212.48C1067.99 1212.48 1057.59 1211.7 1049.97 1210.71C1085.72 1165.83 1125.71 1129.13 1126.15 1128.74L1134.79 1120.75L1124.39 1113.84C1110.62 1104.57 1102.71 1085.24 1102.71 1059.4C1102.71 1027.53 1114.72 985.711 1142.7 940.238C1175.95 886.479 1307.49 711.195 1609.25 711.195H1626.39V699.655C1626.39 627.154 1616.58 560.572 1597.09 501.585L1593.28 490.143C1593.28 490.143 1563.99 495.667 1539.67 499.415C1536.74 499.81 1513.89 503.558 1512.86 500.303C1511.99 497.442 1529.56 491.524 1535.57 489.452C1558.57 481.857 1587.13 473.769 1587.13 473.769L1583.18 464.496C1561.64 414.091 1539.96 389.924 1539.08 388.938L1532.05 381.244L1519.31 384.006C1268.09 437.173 1214.33 549.13 1182.25 616.106C1166.58 648.559 1156.91 667.005 1139.48 667.005C1087.47 667.005 1044.7 638.202 1030.49 628.732C873.899 523.483 885.911 447.629 904.075 332.713C910.521 292.172 917.698 246.304 917.698 193.828C917.698 61.5514 842.991 0 682.298 0Z" fill="white"/>
<path d="M980.42 1094.17C980.42 1200.9 912.744 1287.61 873.486 1313.94C752.197 1395.42 652.148 1336.04 651.123 1417.81C596.045 1451.25 556.494 1502.15 537.012 1560.25C538.33 1560.35 539.502 1560.44 540.674 1560.64C552.1 1562.02 561.768 1566.36 569.238 1573.27C723.34 1488.93 960.498 1444.64 1141.85 1472.16C1199.41 1480.94 1248.34 1495.24 1285.4 1517.04C1229.74 1456.58 1144.63 1409.92 1043.99 1385.75C1020.12 1379.93 977.637 1373.42 977.637 1321.34C977.637 1224.28 1135.84 1299.74 1240.14 1194C1245.12 1188.77 1237.79 1184.13 1231.64 1188.27C1200.15 1209.48 1122.8 1223.98 1081.79 1223.98C1040.77 1223.98 1025.39 1217.77 1025.39 1217.77C1064.06 1165.98 1112.26 1121.99 1112.26 1121.99C1015.58 1056.98 1178.32 699.71 1609.28 699.71C1609.28 616.852 1596.24 552.144 1580.42 504.107C1570.17 505.783 1489.01 518.607 1485.21 507.164C1481.98 497.005 1544.97 475.008 1566.8 467.708C1545.56 418.191 1524.46 395.011 1524.46 395.011C1155.18 473.134 1229.44 678.502 1139.5 678.502C1080.91 678.502 1034.91 647.924 1018.51 636.876C797.9 488.719 900.732 390.67 900.732 193.785C900.732 61.2124 823.975 11.5964 682.324 11.5964C540.82 11.5964 490.137 52.7293 490.137 52.7293C490.137 52.7293 684.229 56.9708 684.229 193.785C684.229 337.109 443.994 376.664 443.994 558.457C443.994 861.085 980.42 855.364 980.42 1094.17ZM724.658 193.883C724.658 176.227 721.875 160.444 716.748 146.043C716.748 146.043 758.936 144.563 758.936 110.138C758.936 81.6309 730.664 62.1988 723.193 62.1988C717.041 62.1988 715.43 66.6376 702.246 66.6376C670.02 66.6376 667.676 38.9197 667.676 38.9197C672.363 38.8211 677.344 38.7224 682.324 38.7224C774.756 38.7224 860.156 57.5627 860.156 193.883C860.156 244.288 853.125 289.071 846.826 328.626C840.527 367.786 834.814 404.086 836.426 439.596C836.426 439.596 675.732 426.871 675.732 345.592C675.732 292.819 724.658 279.996 724.658 193.883ZM498.779 1687.2C488.379 1685.52 479.443 1681.18 472.559 1674.67C437.549 1710.97 422.9 1743.32 435.645 1772.42C489.551 1894.44 649.805 1984.5 841.699 1996.53C658.301 1959.15 522.51 1830.72 498.779 1687.2ZM461.133 1615.09C449.561 1609.57 439.746 1604.44 432.715 1599.9C420.117 1630.97 414.697 1663.23 416.748 1695.48C417.188 1702.09 417.773 1708.8 418.799 1715.31C425.977 1695.78 439.893 1675.36 459.961 1654.55C456.006 1642.32 456.738 1628.41 461.133 1615.09ZM470.215 1596.55C475.049 1589.15 481.055 1582.24 488.379 1576.52C494.092 1571.89 500.391 1568.24 506.982 1565.57C524.414 1510.93 560.889 1462.2 614.209 1425.41C534.521 1463.48 473.584 1517.63 441.504 1580.47C445.752 1584.41 457.031 1590.33 470.215 1596.55ZM1158.54 1876.98C1118.85 1874.02 1065.67 1867.02 1042.53 1861.59C1016.6 1855.58 993.604 1841.08 980.859 1822.73C974.414 1813.26 970.752 1803.1 970.166 1792.74C969.727 1785.44 970.752 1777.35 973.975 1768.67C828.369 1738.88 674.121 1697.36 566.602 1658.89C562.939 1663.42 558.691 1667.76 553.711 1671.71C545.654 1678.12 536.572 1682.76 527.197 1685.42C537.305 1745.49 568.359 1804.28 617.725 1855.48C683.35 1923.44 772.559 1970.1 868.945 1984.7C903.223 1989.92 947.9 1996.33 987.891 1990.42C1136.13 1968.32 1256.84 1899.47 1316.02 1808.92C1308.98 1809.71 1301.22 1810.2 1292.87 1810.4C1259.03 1876.88 1187.99 1879.25 1158.54 1876.98ZM1324.51 1570.41C1302.98 1532.33 1230.62 1505.4 1135.55 1490.9C959.473 1464.17 728.32 1508.26 581.25 1591.42C586.963 1606.61 585.352 1624.66 577.734 1641.13C683.643 1679.4 837.744 1720.83 983.203 1750.52C1017.48 1697.75 1082.96 1687.69 1134.08 1696.27C1159.72 1700.61 1185.5 1704.46 1211.43 1708.01L1230.32 1710.67C1254.49 1714.42 1275.88 1725.27 1288.62 1740.36C1297.71 1751.12 1306.05 1767.98 1300.34 1791.16C1318.21 1790.47 1326.86 1788.5 1328.91 1786.92C1347.95 1750.33 1357.18 1710.87 1354.69 1669.84C1352.78 1635.8 1342.53 1602.17 1324.51 1570.41ZM1006.79 1814.64C1017.92 1830.82 1037.4 1840.19 1051.9 1843.44C1070.65 1847.88 1120.46 1854.88 1161.77 1857.94C1207.03 1861.3 1242.48 1844.33 1262.7 1810.1C1247.46 1809.61 1231.2 1808.33 1214.5 1806.75C1211.28 1813.65 1207.32 1820.56 1202.2 1826.67C1198.24 1831.21 1189.45 1832.89 1182.71 1830.22C1175.83 1827.56 1173.49 1821.74 1177.29 1817.11C1180.81 1813.06 1183.59 1808.52 1185.94 1803.79C1177.15 1802.8 1168.21 1801.62 1159.28 1800.53C1156.35 1808.43 1152.83 1816.02 1149.17 1821.64C1146.09 1826.48 1137.6 1828.75 1130.42 1826.58C1126.9 1825.59 1124.12 1823.71 1122.8 1821.35C1121.48 1818.98 1121.48 1816.32 1122.95 1813.95C1126.03 1809.41 1128.81 1803.3 1131.45 1796.59C1126.76 1795.9 1122.22 1795.21 1117.68 1794.52C1112.84 1793.83 1107.86 1793.04 1103.03 1792.25C1100.39 1798.07 1097.31 1803.79 1093.8 1809.41C1090.72 1814.34 1082.23 1816.61 1075.05 1814.54C1067.72 1812.47 1064.36 1806.85 1067.43 1802.01C1070.36 1797.38 1073 1792.54 1075.2 1787.71C1050.44 1783.47 1025.83 1778.93 1001.37 1774.2C995.361 1791.85 1000.63 1805.66 1006.79 1814.64ZM1271.34 1791.16C1277.2 1771.73 1270.9 1758.12 1263.87 1749.83C1254.93 1739.38 1240.28 1731.88 1223.88 1729.32L1205.71 1726.75C1179.35 1723.2 1153.12 1719.25 1127.2 1714.91C1077.25 1706.53 1034.47 1721.82 1010.89 1756.05C1034.62 1760.68 1058.35 1765.12 1082.37 1769.17C1086.18 1757.03 1086.91 1748.55 1086.91 1748.35C1087.35 1743.13 1094.24 1739.08 1102 1739.38C1105.81 1739.48 1109.33 1740.66 1111.82 1742.53C1114.31 1744.51 1115.62 1746.97 1115.48 1749.54C1115.33 1750.23 1114.45 1759.89 1110.21 1773.7C1114.75 1774.39 1119.43 1775.18 1123.97 1775.87C1128.66 1776.56 1133.2 1777.25 1137.74 1777.95C1141.85 1764.43 1144.34 1752.99 1144.48 1752.69C1145.8 1747.56 1152.98 1744.01 1160.74 1744.8C1168.51 1745.59 1173.78 1750.42 1172.75 1755.65C1172.46 1756.54 1169.82 1767.98 1165.72 1781.79C1175.24 1782.98 1184.33 1784.16 1192.97 1785.15C1196.04 1773.51 1196.92 1764.23 1196.92 1764.04C1197.22 1758.81 1203.96 1754.67 1211.87 1754.96C1215.67 1755.06 1219.19 1756.24 1221.68 1758.12C1224.32 1759.99 1225.63 1762.46 1225.34 1765.02C1225.34 1765.81 1224.61 1775.48 1221.24 1788.01C1241.02 1789.78 1257.57 1790.77 1271.34 1791.16ZM536.572 1575.73C530.273 1574.94 517.676 1575.04 505.078 1584.12C485.303 1598.62 475.928 1618.25 477.393 1642.41C477.832 1648.53 479.004 1651.98 481.641 1656.91C486.328 1665.69 497.461 1671.51 505.518 1672.5C515.186 1673.68 526.172 1669.93 536.279 1661.85C558.545 1644.09 568.213 1611.54 557.227 1590.83C552.686 1582.14 545.361 1576.82 536.572 1575.73ZM167.285 1958.46C203.32 1974.44 241.553 1988.74 241.553 1988.74L228.076 2012.02C223.096 1997.91 202.295 1990.32 175.488 1979.17L87.7441 2064.4C77.0508 2074.75 56.1035 2097.24 54.3457 2106.02C54.3457 2106.02 39.9902 2099.81 26.8066 2093.3C13.0371 2086.39 0 2079.98 0 2079.98C13.0371 2077.91 35.7422 2055.52 49.3652 2043.09L134.766 1961.22C102.832 1944.55 90.2344 1941.29 67.6758 1940.5L98.1445 1925.22C98.1445 1925.22 127.295 1940.7 167.285 1958.46ZM1559.03 2247.37L1561.67 2249.35C1559.18 2249.25 1557.13 2250.14 1554.49 2251.12L1562.26 2261.08C1563.72 2262.96 1565.92 2265.72 1567.24 2265.92C1567.24 2265.92 1565.63 2266.61 1563.57 2267.2C1561.96 2267.79 1560.21 2268.29 1560.21 2268.29C1560.35 2267 1559.77 2266.02 1557.71 2263.25L1549.66 2252.8C1546.87 2253.69 1543.95 2254.57 1543.07 2256.05L1542.48 2253.19C1542.48 2253.19 1546.44 2251.91 1550.68 2250.43C1553.47 2249.45 1556.25 2248.46 1559.03 2247.37ZM224.121 2170.04C163.184 2150.51 155.127 2105.33 185.156 2063.11C215.332 2020.6 272.754 1996.73 333.545 2016.26C394.189 2035.69 402.832 2080.77 372.51 2123.19C342.48 2165.5 285.205 2189.57 224.121 2170.04ZM324.756 2028.49C285.791 2015.96 255.176 2045.56 232.031 2078.11C208.887 2110.66 193.652 2145.48 232.764 2158.01C271.729 2170.53 302.637 2140.74 325.781 2108.19C348.779 2075.64 363.867 2041.02 324.756 2028.49ZM497.168 2059.86C521.924 2064.59 546.973 2068.93 572.021 2072.98L568.506 2097.74C557.373 2086.99 552.246 2084.42 517.09 2078.4L474.463 2174.77C470.947 2183.65 453.955 2216.99 459.375 2223.31C459.375 2223.31 447.51 2221.63 428.467 2218.08C406.934 2214.03 396.826 2211.27 396.826 2211.27C407.813 2206.44 421.729 2177.93 426.27 2166.29L469.189 2069.23C432.715 2061.04 424.219 2060.45 406.787 2065.97L427.881 2044.77C427.881 2044.77 451.758 2051.28 497.168 2059.86ZM667.383 2085.51C693.604 2088.17 719.971 2090.24 746.338 2092.02L747.949 2116.87C732.715 2107.8 727.002 2104.84 686.865 2101.49L663.574 2200.42C661.963 2209.5 653.32 2244.02 660.059 2249.64C660.059 2249.64 645.85 2248.66 626.514 2246.78C607.031 2244.91 595.02 2243.13 595.02 2243.13C604.541 2238.1 612.451 2205.55 614.062 2196.48L637.939 2096.16C603.076 2091.52 596.045 2093.3 579.346 2099.81L594.434 2076.23C594.434 2076.23 626.953 2081.36 667.383 2085.51ZM818.115 2179.61L815.039 2246.19C867.041 2246.68 902.637 2244.41 918.457 2229.32L910.547 2259.51C910.547 2259.51 881.689 2259.9 839.648 2259.51C793.213 2259.11 756.885 2257.04 756.885 2257.04C764.648 2251.91 766.553 2219.56 766.699 2210.38L770.947 2145.08C771.094 2127.72 773.438 2099.61 764.795 2093.69C802.441 2095.47 797.607 2095.37 832.178 2096.26C877.441 2097.54 903.076 2096.65 903.076 2096.65L908.789 2121.61C891.064 2111.65 864.551 2110.46 821.338 2110.36L818.994 2166.19L885.352 2166.39C891.357 2166.49 891.65 2168.76 891.65 2173.2C891.65 2177.64 891.504 2179.9 885.205 2179.9L818.115 2179.61ZM1108.3 2199.63C1112.11 2223.9 1115.92 2241.26 1124.12 2244.51C1122.07 2246.98 1115.48 2250.23 1106.84 2250.92C1096.44 2251.62 1088.53 2248.16 1081.35 2242.54L963.574 2151.79L967.969 2209.59C969.434 2218.67 971.045 2253 979.395 2257.63L940.137 2258.82C947.021 2253.09 945.117 2220.35 943.799 2211.27L938.232 2146.17C936.768 2137.09 934.277 2100.99 925.781 2096.45L961.816 2095.57L1082.52 2191.84L1072.41 2136.5C1070.95 2127.33 1063.62 2094.38 1055.57 2089.75C1055.57 2089.75 1059.81 2089.45 1074.46 2088.17C1089.11 2086.79 1094.38 2086.1 1094.38 2086.1C1087.65 2091.82 1095.56 2125.65 1097.02 2134.73L1108.3 2199.63ZM1329.49 2165.31C1333.74 2176.65 1341.94 2205.55 1354.25 2211.17C1354.25 2211.17 1335.64 2214.82 1324.22 2217.19C1314.11 2219.26 1291.85 2223.21 1291.85 2223.21C1297.12 2216.89 1285.4 2182.17 1282.03 2173.49L1270.9 2143.31L1196.04 2155.64L1204.54 2186.32C1207.03 2196.28 1214.79 2229.72 1224.9 2233.76C1224.9 2233.76 1214.5 2235.24 1192.68 2238.3C1174.37 2240.76 1161.62 2242.15 1161.62 2242.15C1167.33 2235.83 1159.72 2204.86 1157.37 2195L1139.36 2129.99C1135.99 2117.96 1127.64 2087.28 1117.68 2083.73C1117.68 2083.73 1127.34 2082.45 1148.73 2079.69C1170.12 2076.92 1180.52 2074.95 1180.52 2074.95C1175.24 2082.25 1184.62 2111.65 1187.11 2121.9L1192.82 2142.52L1266.5 2130.49L1258.59 2109.47C1254.2 2098.33 1245.12 2071.5 1234.86 2066.57C1234.86 2066.57 1244.97 2064.59 1265.48 2060.65C1285.99 2056.8 1294.78 2054.53 1294.78 2054.53C1290.67 2062.03 1302.1 2088.07 1306.79 2101.49L1329.49 2165.31ZM1466.16 2126.84L1393.21 2146.07L1395.7 2173C1397.31 2182.17 1397.46 2190.66 1400.39 2195.39C1401.71 2197.46 1403.91 2199.14 1406.84 2200.13C1406.84 2200.13 1399.22 2202 1386.62 2204.76C1374.17 2207.52 1367.14 2208.81 1367.14 2208.81C1371.53 2203.77 1372.71 2196.77 1372.27 2188.09L1365.82 2060.35C1365.23 2055.72 1364.36 2051.38 1362.16 2047.73C1360.11 2044.47 1356.59 2042.7 1354.25 2041.31C1362.6 2037.66 1373 2033.72 1383.54 2030.76C1400.39 2025.93 1407.42 2026.12 1419.58 2035.79L1526.81 2124.96C1546.29 2142.03 1563.43 2153.47 1574.71 2155.74C1574.71 2155.74 1563.72 2159.19 1543.07 2165.31C1522.56 2171.42 1508.94 2174.97 1508.94 2174.97C1510.11 2172.01 1510.25 2168.95 1507.62 2164.42C1504.69 2159.39 1494.14 2151 1487.4 2144.69L1466.16 2126.84ZM1452.98 2116.28L1388.09 2055.91L1392.63 2131.77L1452.98 2116.28ZM1772.17 2080.57C1757.52 2087.18 1746.53 2092.31 1746.53 2092.31C1745.36 2082.55 1717.53 2058.58 1709.33 2051.28L1646.34 1996.14L1697.02 2104.84C1694.97 2107.01 1691.46 2110.07 1688.09 2111.74C1678.12 2116.87 1668.31 2115.79 1659.52 2111.15L1539.7 2044.37L1581.59 2096.26C1591.85 2109.47 1611.62 2136.8 1624.95 2139.46C1624.95 2139.46 1616.75 2142.42 1606.2 2145.87C1600.63 2147.65 1595.07 2149.42 1589.5 2151.2C1591.85 2143.6 1572.36 2120.92 1560.94 2106.42L1514.36 2047.43C1500.15 2029.68 1484.47 2011.62 1471.14 2007.97C1481.54 2004.62 1484.62 2003.63 1499.41 1998.7C1511.87 1994.56 1522.71 1990.61 1522.71 1990.61L1657.62 2067.65L1604.59 1958.56C1604.59 1958.56 1611.77 1955.3 1625.24 1949.18C1638.57 1943.17 1650.73 1937.15 1650.73 1937.15C1651.76 1946.92 1679.88 1971.77 1690.14 1980.75L1748.29 2030.96C1760.6 2041.22 1783.59 2064.3 1800 2066.86C1800 2066.86 1786.82 2073.87 1772.17 2080.57ZM1589.06 2242.54L1595.65 2248.26C1597.56 2249.84 1599.61 2251.81 1601.66 2252.4C1601.66 2252.4 1599.9 2253.19 1598.29 2253.98C1596.53 2254.67 1595.36 2255.27 1595.36 2255.27C1594.92 2253.79 1592.14 2251.42 1591.11 2250.53L1584.08 2244.32L1589.94 2256.65C1589.65 2256.94 1589.21 2257.14 1588.92 2257.44C1587.3 2258.22 1586.28 2257.73 1585.25 2257.24L1571.34 2249.74L1576.76 2255.66C1578.08 2257.14 1580.42 2260 1582.18 2260.59L1579.98 2261.48C1579.25 2261.78 1578.52 2261.97 1577.78 2262.27C1578.08 2260.79 1575.29 2257.83 1574.41 2256.84L1568.41 2250.14C1567.09 2248.56 1564.89 2246.39 1562.99 2245.99C1562.99 2245.99 1564.89 2245.3 1566.65 2244.61C1567.82 2244.22 1568.99 2243.72 1569.73 2243.53L1585.11 2252.11L1579.1 2239.88C1579.69 2239.68 1580.57 2239.29 1582.03 2238.69C1583.79 2238 1585.25 2237.31 1585.25 2237.31C1585.25 2238.79 1587.74 2241.36 1589.06 2242.54ZM391.406 2279.04C404.004 2282.1 420.117 2285.84 420.117 2285.84C406.494 2292.45 394.043 2318.79 385.986 2333.09L354.639 2391.49C346.143 2407.27 331.934 2430.25 336.768 2438.44C336.768 2438.44 319.482 2434.49 305.566 2431.14C293.555 2428.28 286.816 2426.8 274.219 2423.15C289.453 2420.39 303.955 2386.06 308.643 2377.48L322.998 2350.16L247.998 2329.15L226.172 2360.32C219.141 2371.17 202.295 2395.73 206.25 2403.32C206.25 2403.32 193.066 2399.77 173.584 2393.76C150.732 2386.65 145.752 2384.78 145.752 2384.78C161.865 2379.45 171.387 2361.99 183.691 2344.34L222.949 2285.94C236.133 2265.92 248.145 2248.66 247.266 2237.21C247.266 2237.21 254.297 2239.98 273.633 2245.8C289.014 2250.53 296.924 2252.8 305.42 2255.17C293.262 2258.42 276.27 2287.91 267.334 2301.13L255.762 2317.61L329.15 2337.93L340.43 2319.18C345.703 2309.62 363.867 2281.11 359.912 2271.34C359.912 2271.34 375 2274.99 391.406 2279.04ZM476.221 2468.53C410.889 2456.98 390.088 2414.37 407.373 2370.08C424.805 2325.6 474.316 2295.71 539.502 2307.25C604.541 2318.69 625.781 2361.01 608.35 2405.59C590.918 2449.88 541.699 2480.07 476.221 2468.53ZM534.375 2320.07C492.627 2312.67 471.094 2344.83 457.617 2378.96C444.287 2413.09 439.453 2448.5 481.201 2455.9C522.949 2463.3 544.775 2430.84 558.105 2396.72C571.436 2362.59 576.27 2327.47 534.375 2320.07ZM653.467 2484.21C653.467 2484.21 657.568 2481.15 660.352 2475.04C664.453 2466.35 666.943 2449.68 670.02 2436.76L688.33 2341.67C649.365 2338.42 639.404 2340.29 622.266 2347.1L638.379 2322.73C650.537 2324.51 677.49 2326.48 710.156 2329.25C732.129 2331.12 797.314 2335.06 797.314 2335.06L799.658 2359.43C785.156 2348.18 770.215 2347.2 737.695 2345.52L719.531 2440.91C717.92 2449.78 710.596 2480.66 717.773 2489.73C710.01 2489.14 696.973 2488.15 686.133 2487.46C674.854 2486.67 659.912 2484.9 653.467 2484.21ZM964.307 2451.16C964.746 2479.77 930.029 2500.48 876.709 2499.99C835.254 2499.6 813.574 2488.15 805.225 2483.42L813.867 2456.29C826.758 2473.56 848.145 2486.18 872.168 2486.38C897.217 2486.67 916.992 2476.71 917.432 2460.04C917.725 2447.91 907.764 2440.51 865.869 2425.91C825.732 2412 810.791 2398.1 810.791 2377.38C810.791 2349.27 847.266 2334.97 890.186 2334.97C921.68 2334.87 943.652 2341.38 957.568 2346.31L948.633 2371.27C929.443 2354.1 912.158 2347.69 891.357 2347.49C870.703 2347.3 856.201 2354.89 856.201 2369.1C856.348 2384.48 881.836 2392.87 915.967 2405.69C955.225 2420.49 964.014 2435.28 964.307 2451.16ZM1158.4 2363.47C1160.01 2366.83 1160.89 2370.87 1161.33 2374.13C1161.77 2377.09 1161.91 2380.93 1161.47 2384.68C1160.3 2393.95 1153.71 2404.7 1142.87 2412.3C1126.32 2423.94 1104.79 2429.66 1076.22 2430.65C1065.09 2431.04 1062.45 2428.77 1061.72 2423.45V2422.26C1061.72 2422.26 1061.43 2420.19 1063.92 2420.09L1066.7 2419.9C1075.05 2419.2 1087.65 2417.43 1097.75 2409.24C1107.42 2400.76 1110.64 2389.51 1109.03 2377.38C1107.13 2364.85 1101.56 2355.78 1088.96 2349.27C1078.13 2343.65 1065.23 2341.87 1052.05 2342.56C1052.05 2342.56 1046.78 2342.86 1040.92 2343.45C1040.92 2343.45 1037.4 2343.65 1037.7 2345.92L1051.9 2444.56C1053.08 2453.24 1056.59 2483.81 1067.29 2490.13C1067.29 2490.13 1055.13 2491.02 1032.42 2492.2C1015.14 2493.19 1001.51 2493.38 1001.51 2493.38C1006.2 2485.89 1005.32 2474.64 1004.3 2461.62L993.311 2383.89C991.992 2374.92 989.795 2344.44 978.955 2336.94C978.955 2336.94 1008.11 2333.98 1061.87 2330.63C1089.99 2328.85 1112.99 2331.22 1132.76 2340.29C1145.8 2346.11 1154.74 2354.69 1158.4 2363.47ZM1378.42 2395.24C1389.99 2429.46 1366.11 2458.56 1313.09 2467.44C1275.88 2473.65 1222.27 2464.48 1207.32 2420.68L1189.16 2368.9C1184.33 2354.4 1176.56 2328.75 1163.96 2322.04C1163.96 2322.04 1178.03 2320.76 1199.85 2318C1221.83 2315.24 1231.93 2313.56 1231.93 2313.56C1226.22 2319.68 1232.23 2343.65 1237.94 2361.3L1261.23 2427.1C1265.33 2439.13 1271.19 2447.42 1281.3 2452.25C1288.77 2455.9 1298.73 2456.89 1309.13 2455.6C1318.65 2454.42 1328.47 2450.87 1333.59 2444.46C1339.01 2437.75 1339.01 2427.98 1334.77 2415.85L1308.69 2350.06C1301.51 2332.01 1293.31 2309.32 1284.52 2305.47C1284.52 2305.47 1295.07 2303.6 1315.28 2299.65C1330.52 2296.79 1339.6 2295.02 1346.19 2293.44C1340.19 2303.4 1354.54 2333.78 1357.62 2342.46L1378.42 2395.24ZM1616.31 2381.72C1621.44 2383.1 1626.86 2383.99 1631.54 2382.71C1631.1 2384.78 1628.03 2389.12 1623.05 2392.57C1601.66 2407.27 1581.45 2404.8 1574.71 2402.93C1537.79 2393.46 1475.98 2356.77 1473.49 2352.72C1473.49 2352.72 1472.9 2351.64 1474.51 2351.24L1476.71 2350.55C1486.38 2347.89 1497.22 2340.59 1501.61 2333.59C1508.5 2323.43 1507.32 2314.35 1500.29 2303.2C1493.12 2291.56 1480.37 2284.27 1470.41 2282.29C1455.62 2279.33 1444.78 2281.7 1438.04 2283.48C1438.04 2283.48 1429.1 2285.74 1426.61 2287.52C1426.61 2287.52 1424.71 2288.61 1426.9 2292.65L1473.49 2382.12C1480.52 2395.24 1492.82 2420.98 1503.96 2425.22C1503.96 2425.22 1491.36 2428.58 1472.31 2433.21C1453.27 2437.85 1441.55 2440.02 1441.55 2440.02C1445.51 2430.06 1430.71 2402.83 1427.05 2395.24L1396.88 2334.77C1389.4 2320.27 1375.63 2294.13 1364.36 2289.99C1364.36 2289.99 1386.33 2285.84 1435.84 2271.84C1462.21 2264.44 1487.7 2261.28 1510.69 2265.72C1524.76 2268.48 1534.13 2273.22 1541.89 2280.71C1544.82 2283.67 1547.02 2286.53 1548.78 2289.49C1550.54 2292.26 1551.71 2295.41 1552.59 2298.27C1554.93 2307.45 1552.88 2317.11 1545.12 2326.29C1545.12 2326.29 1537.94 2335.56 1522.85 2342.76C1522.85 2342.76 1571.48 2370.38 1616.31 2381.72Z" fill="#002156"/>
</g>
<defs>
<clipPath id="clip0_290_1319">
<rect width="1800" height="2500" fill="white"/>
</clipPath>
</defs>
</svg>
