<?xml version="1.0" encoding="UTF-8"?>
<svg id="_레이어_2" data-name="레이어 2" xmlns="http://www.w3.org/2000/svg" viewBox="0 0 201.83 221.21">
  <defs>
    <style>
      .cls-1, .cls-2, .cls-3, .cls-4, .cls-5, .cls-6, .cls-7 {
        stroke: #390003;
      }

      .cls-1, .cls-8, .cls-4 {
        fill: #390003;
      }

      .cls-1, .cls-4, .cls-6 {
        stroke-miterlimit: 10;
      }

      .cls-9, .cls-8, .cls-10, .cls-11, .cls-12 {
        stroke-width: 0px;
      }

      .cls-9, .cls-3, .cls-6 {
        fill: none;
      }

      .cls-2, .cls-3, .cls-4, .cls-5 {
        stroke-width: 3px;
      }

      .cls-2, .cls-3, .cls-5, .cls-7 {
        stroke-linecap: round;
        stroke-linejoin: round;
      }

      .cls-2, .cls-11, .cls-7 {
        fill: #fff;
      }

      .cls-10 {
        fill: #d53c3e;
      }

      .cls-5 {
        fill: #d1352f;
      }

      .cls-6 {
        stroke-linecap: square;
        stroke-width: 2px;
      }

      .cls-12 {
        fill: #cf3531;
      }

      .cls-7 {
        stroke-width: 2.8px;
      }
    </style>
  </defs>
  <g id="_레이어_1-2" data-name="레이어 1">
    <g>
      <path class="cls-2" d="M139.99,51.21C147.56,13.13,115.66,3.99,115.66,3.99c7.84,26.13-3.33,30.8-3.33,30.8l27.66,16.42Z"/>
      <path class="cls-5" d="M57.82,180.55c-5.68-.3-10.98-2.55-15.79-5.48-1.46-.89-2.88-1.85-4.25-2.88-1.4-1.04-3.37-3.31-5.11-1.45-.68.73-.89,1.79-.84,2.78.1,2.22.91,4.26,1.93,6.2,4.07,7.77,10.97,14.76,19.45,17.56,1,.33,2.05.58,3.1.71"/>
      <path class="cls-5" d="M125.36,162.54s2.87,6.39-2.12,9.76c-4.79,3.24-10.08,4.34-15.66,4.93-.13.01-.26.03-.36.11-.14.1-.18.28-.22.45-.67,3.19-1.27,7.7,2.15,9.48,2.64,1.38,6.18,1.68,9.11,1.48,3.16-.22,4.87.4,5.04,3.85.09,1.7.06,3.44-.4,5.08-1.38,4.91-6.64,6.34-11.14,6.89-6.19.76-12.43.56-18.65.71-4.62.11-9.96-.99-12.3,4.23-.99,2.21-.06,4.8-.43,7.2-.07.43-.18.87-.47,1.2-.37.41-.94.56-1.48.67-3.54.73-8.19,1.57-11.73.83-5.98-1.25-9.87-7.15-10.37-15.25-.79-12.79,1.58-25.43,7.07-37.2"/>
      <g>
        <path class="cls-12" d="M159.34,108.34c4.83,17.71-5.33,58.8-69.16,60.6C12.09,168.94,4.61,126.16,2.91,117.27c-1.69-8.9-4.27-32.63,8.72-54.94,12.99-22.31,36.32-27.79,42.9-29.69s41.59-9.65,71.58,8.43c24.79,14.93,28.74,28.51,30.97,56.71.75,6.08,1.42,7.46,2.26,10.56Z"/>
        <path class="cls-3" d="M11.63,62.33C-1.36,84.64,1.22,108.37,2.91,117.27c1.7,8.89,9.18,51.67,87.27,51.67,63.83-1.8,73.99-42.89,69.16-60.6-.84-3.1-1.51-4.48-2.26-10.56-2.23-28.2-6.18-41.78-30.97-56.71-29.99-18.08-65-10.33-71.58-8.43s-29.91,7.38-42.9,29.69Z"/>
      </g>
      <g>
        <path class="cls-9" d="M80.03,125.83c-.93.31-1.63.66-2.01,1.09-.07.08-.15.17-.21.25.22-.02.45-.03.68-.05.34-.48.87-.91,1.54-1.29Z"/>
        <path class="cls-8" d="M126.18,133.52c4.36,1.48,8.3,3.21,11.47,5.23l.39.18c6.75-13.75,2.57-31.48,2.57-31.48-2.25.93-4.75,1.7-7.45,2.33v.04s1.22,18.4-6.98,23.7Z"/>
        <path class="cls-8" d="M138,138.99c-.24.5-.5.99-.78,1.47.27-.49.53-.98.78-1.47Z"/>
        <path class="cls-8" d="M118.22,125.75c-3.52-.95-30.09-2.57-38.19.08-.67.38-1.2.81-1.54,1.29,10.84-.78,32.01,1.11,47.69,6.4,0,0-4.15-6.73-7.96-7.77Z"/>
        <path class="cls-10" d="M138.04,138.93l-.39-.18c-3.17-2.02-7.11-3.75-11.47-5.23-15.68-5.29-36.84-7.18-47.69-6.4-.23.02-.46.03-.68.05-3.47,4.01-3.79,7.23-3.79,7.23,0,0-5.47.84-8.36-7.67-.2-1.73-.3-3.55-.31-5.49-.02,2.52.08,4.88.31,7.09,2.41,23.81,19.1,30.55,49.97,25.95,11.25-1.67,17.84-7.15,21.6-13.81.28-.49.53-.98.78-1.47.01-.02.02-.04.03-.07h0Z"/>
        <path class="cls-11" d="M74.02,134.4s.32-3.22,3.79-7.23c.06-.08.14-.17.21-.25.38-.43,1.08-.78,2.01-1.09,8.1-2.65,34.66-1.03,38.19-.08,3.81,1.04,7.96,7.77,7.96,7.77,8.2-5.3,6.99-23.7,6.99-23.7v-.04c-25.25,5.96-67.01.13-67.01.13-.51,4.07-.78,7.85-.81,11.33.01,1.94.11,3.76.31,5.49,2.89,8.51,8.36,7.67,8.36,7.67Z"/>
      </g>
      <path class="cls-11" d="M66.16,109.9s41.76,5.33,67-.12c-25.24,5.96-67,.13-67,.13h0Z"/>
      <path class="cls-11" d="M65.35,121.24c-.02-3.45.25-7.22.81-11.33-.51,4.07-.78,7.85-.81,11.33Z"/>
      <path class="cls-3" d="M137.65,138.75c-3.17-2.02-7.11-3.75-11.47-5.23-16.01-5.4-36.75-7.34-47.37-6.43"/>
      <path class="cls-3" d="M138.04,138.93c-.25.52-.52,1.03-.81,1.54-3.76,6.66-10.35,12.14-21.6,13.81-30.87,4.6-47.56-2.14-49.97-25.95-.23-2.21-.33-4.57-.31-7.09.03-3.48.3-7.26.81-11.33,0,0,41.76,5.83,67-.13,2.7-.63,5.2-1.4,7.45-2.33,0,0,4.18,17.73-2.57,31.48Z"/>
      <path class="cls-8" d="M73.27,136.94c-1.54,0-6.6-.78-9.1-9.81-.1-.38-.2-.69-.01-1.03.19-.34.51-.59.88-.69.13-.04.26-.05.39-.05.66,0,1.24.44,1.41,1.07,1.5,5.41,3.95,6.96,5.27,7.4l.27.09.09-.27c.54-1.69,1.7-4.31,4.19-7.2,1.69-1.96,8.01-3,18.27-3,11.42,0,23.58,1.25,24.39,1.44,3.15.76,5.42,4.13,6.76,6.82l.19.37.28-.31c7.77-8.59,5.21-21.52,5.19-21.65-.16-.79.35-1.57,1.14-1.73.1-.02.2-.03.3-.03.69,0,1.3.49,1.44,1.17.14.66,3.22,16.19-7.58,25.77-.53-.1-2.71-.8-2.95-.99-.2-.53-2.47-5.85-5.44-6.56-2.46-.59-14.14-1.34-23.76-1.34s-14.86.66-15.98,1.96c-3.41,3.95-3.9,7.26-3.9,7.29-.09.66-.61,1.18-1.26,1.27-.04,0-.2.03-.47.03Z"/>
      <circle class="cls-4" cx="75.44" cy="92.38" r="10.34"/>
      <ellipse class="cls-4" cx="140.61" cy="89.62" rx="8.7" ry="10.34"/>
      <path class="cls-3" d="M109.74,101.06s7.3-9.74,12.1-2.4l1.41,2.4"/>
      <path class="cls-3" d="M78.56,174.22c1.77,2.36,4.32,3.84,6.53,5.26,2.87,1.84,5.39,3.06,5.18,7.2-.35,6.84-9.61,5.78-14,4.03-2.84-1.13-5.41-3.03-7.48-5.26"/>
      <ellipse class="cls-7" cx="178.91" cy="165.01" rx="22.09" ry="18.66" transform="translate(-53.35 92.28) rotate(-25.3)"/>
      <path class="cls-2" d="M32.59,64.35c3.01,1.17,6.48.95,9.58.37,3.16-.6,6.27-1.65,9.08-3.22,3.32-1.85,6.1-4.57,8.1-7.8,1.64-2.65,3.66-8.05,2.13-10.66-3.02-5.16-6.84-9.51-9.1-15.11-3.38-8.39-4.37-17.64-1.95-26.43-.39.26-1.04.66-1.22.78-1.1.74-2.18,1.52-3.22,2.34-3.48,2.71-6.69,5.78-9.53,9.15-3.7,4.4-6.77,9.37-8.77,14.78-2.35,6.39-3.36,13.31-2.35,20.04.44,2.96.85,5.93,1.81,8.82.88,2.64,1.84,5.12,4.41,6.46.34.18.68.33,1.04.47Z"/>
      <circle class="cls-11" cx="144.4" cy="85.02" r="2.51"/>
      <circle class="cls-11" cx="80.03" cy="88.62" r="2.81"/>
      <path class="cls-1" d="M180.31,169.2c.71-3.31.78-6.75.19-10.08-.05-.3-.12-.61-.31-.85-.14-.17-.34-.28-.53-.38-2.98-1.65-5.43-3.13-8.7-4.06-2.2,2.63-4.39,5.26-6.59,7.9-.14.16-.28.34-.3.55-.02.23.1.44.21.64,1.76,2.97,3.77,5.79,6,8.43,3.41-.75,6.58-1.64,10.04-2.15Z"/>
      <path class="cls-1" d="M198.39,160.73c-1.56.7-3.04,1.56-4.41,2.57-1.64-1.66-2.41-2.82-4.3-4.2-.18-.13-1.73-1.53-1.8-1.73-.05-.15.23-2.52.26-2.68.3-1.52.59-1.8.85-4.24,1.88-.04,3.97-.83,5.73-.16.55.21,1.04.55,1.51.89,1,.7,1.33,1.73,2.14,2.65s1.61,2.33,1.69,3.55c.1,1.53-.27,2.73-1.68,3.36Z"/>
      <path class="cls-1" d="M196.12,173.25c-.58-.8-1.25-1.52-2.01-2.15-.96-.8-1.24-.94-2.43-.53-2.21.75-4.42,1.5-6.63,2.25,0,2.43.53,6.3,1.25,8.45,1.66.08,3.95-2.34,5.58-1.98.26-.37.78-.15,1.03-.52.42-.61.85-1.22,1.3-1.81.85-1.11,1.82-2.32,1.91-3.71Z"/>
      <path class="cls-1" d="M172.57,183.13c.13-.7.26-1.4.39-2.09.06-.31.12-.62.05-.92-.05-.25-.19-.48-.32-.7-.65-1.1-1.31-2.19-1.96-3.29-2.92.24-6.59.57-9.51.35l4.35,5.72,7,.94Z"/>
      <path class="cls-6" d="M180.18,158.27c2.83-.45,5.3-.9,7.7-.9"/>
      <path class="cls-6" d="M184.96,172.9c-1.47-1.42-3.03-2.47-4.65-3.7"/>
      <path class="cls-6" d="M193.96,163.1c.45,2.43.2,4.98-.72,7.28"/>
      <path class="cls-6" d="M170.27,171.35c-.35,1.34-.29,4.77.18,5.75"/>
      <path class="cls-6" d="M172.93,180.14c1.5,1.22,5.52,2.99,7.38,3.53"/>
      <path class="cls-6" d="M164.06,162.28c-2.6,0-4.29.31-5.64,1.25"/>
      <path class="cls-6" d="M170.95,153.83c.05-2.54.66-4.74,1.94-6.16"/>
      <path class="cls-6" d="M188.99,150.45c-.62-.68-1.14-1.27-1.89-1.99-.24-.23-.9-.82-1.18-1.01-.9-.6-2.21-1.6-3.28-1.76"/>
    </g>
  </g>
</svg>