<svg width="2500" height="2500" viewBox="0 0 2500 2500" fill="none" xmlns="http://www.w3.org/2000/svg">
<g clip-path="url(#clip0_290_1731)">
<path d="M2500 1250C2500 1940.43 1940.43 2500 1250 2500C559.57 2500 0 1940.43 0 1250C0 559.57 559.57 0 1250 0C1940.43 0 2500 559.57 2500 1250Z" fill="#DBA111"/>
<path d="M779.042 2137.66C762.441 2129.36 748.525 2150.84 741.445 2164.52C737.538 2172.33 732.9 2184.05 732.9 2193.81C732.9 2200.89 735.341 2207 742.177 2210.66C746.572 2212.85 750.478 2213.34 754.628 2211.88C763.173 2209.19 772.451 2198.69 780.019 2184.05C787.343 2169.15 790.273 2155.48 787.343 2146.94C786.122 2142.79 783.437 2140.1 779.042 2137.66ZM1024.65 2228.48C1022.94 2235.8 1022.21 2239.71 1020.5 2247.03C1022.45 2247.52 1023.67 2247.77 1023.67 2247.77C1033.68 2249.96 1034.66 2244.84 1035.63 2241.18C1035.88 2239.95 1035.88 2238.73 1035.88 2237.76C1035.88 2236.05 1035.63 2234.58 1034.9 2233.61C1033.44 2231.41 1029.77 2229.7 1024.65 2228.48ZM603.993 2077.85C595.204 2090.3 582.753 2112.76 597.89 2123.5C613.759 2134.73 632.07 2112.76 639.15 2102.75C646.23 2092.74 661.122 2068.32 645.253 2056.85C630.117 2046.11 613.027 2065.39 603.993 2077.85ZM1020.01 2279.26C1020.01 2279.26 1016.59 2278.77 1014.15 2278.04C1012.2 2287.07 1010.98 2292.93 1009.27 2301.72C1011.71 2302.45 1014.15 2302.94 1014.15 2302.94C1019.03 2303.92 1022.69 2303.68 1024.65 2302.45C1026.85 2301.23 1028.07 2297.33 1028.55 2294.64C1028.8 2293.67 1029.04 2292.44 1029.04 2290.74C1029.04 2286.59 1027.58 2280.97 1020.01 2279.26Z" fill="#034694"/>
<path d="M1250 41.75C582.519 41.75 41.748 582.521 41.748 1250C41.748 1917.48 582.519 2458.25 1250 2458.25C1917.48 2458.25 2458.25 1917.24 2458.25 1250C2458.25 582.521 1917.24 41.75 1250 41.75ZM2029.05 352.053L1932.13 637.453L1872.56 585.451C1872.56 585.451 1886.47 544.924 1891.36 530.52C1881.35 521.73 1866.46 508.791 1856.2 500.002C1842.77 507.082 1805.42 527.102 1805.42 527.102L1761.96 489.26L1988.53 372.316L2029.05 352.053ZM1704.35 188.478L1845.7 259.768L1823.24 304.201C1823.24 304.201 1768.8 276.613 1749.02 266.603C1742.19 280.275 1736.33 291.506 1729.74 305.178C1748.78 314.943 1799.56 340.578 1799.56 340.578L1777.1 385.012C1777.1 385.012 1726.32 359.133 1707.28 349.611C1699.71 364.504 1691.89 379.641 1684.57 394.533C1704.59 404.543 1759.77 432.619 1759.77 432.619L1737.55 476.809L1594.97 405.031L1696.29 204.592L1704.35 188.478ZM1472.66 271.73C1450.44 255.861 1416.99 231.936 1429.44 181.887C1434.33 162.355 1446.78 145.51 1464.36 135.012C1483.64 123.537 1507.08 120.363 1530.27 126.223C1562.99 134.279 1589.11 160.402 1594.97 191.164L1598.14 206.789L1548.34 223.635L1544.43 203.615C1540.53 185.305 1532.23 180.91 1523.93 178.713C1509.77 175.295 1505.37 188.234 1504.39 192.385C1502.44 200.197 1508.06 205.812 1527.59 220.217C1551.03 237.307 1586.43 263.43 1573.49 315.432C1561.04 364.504 1511.23 383.547 1470.21 373.293C1433.59 364.016 1411.38 344.729 1402.1 313.967L1397.22 298.098L1447.02 277.834L1453.12 296.145C1458.25 311.77 1463.38 317.385 1475.34 320.314C1479.98 321.535 1485.6 320.559 1490.23 317.873C1494.14 315.432 1496.58 312.014 1497.8 307.863C1501.22 294.191 1495.36 287.844 1472.66 271.73ZM1208.25 114.504L1208.74 96.1933L1283.94 97.9023C1283.94 97.9023 1280.52 258.303 1279.79 287.844C1302 288.332 1362.55 289.797 1362.55 289.797L1361.57 342.287L1203.61 338.869L1208.25 114.504ZM1087.4 107.18L1105.22 103.518L1114.99 152.102C1114.99 152.102 1055.42 164.309 1033.45 168.703C1036.62 183.596 1039.06 196.047 1042.24 211.184C1063.23 206.789 1118.9 195.559 1118.9 195.559L1128.66 244.387C1128.66 244.387 1073 255.617 1052 259.768C1055.18 276.125 1058.59 292.727 1061.77 309.084C1083.74 304.689 1144.53 292.482 1144.53 292.482L1154.54 341.066L998.047 372.805L949.951 134.768L1087.4 107.18ZM736.572 218.019C736.572 218.019 765.381 279.055 775.146 300.051C790.039 293.215 804.199 286.379 818.848 279.543C809.082 258.547 780.273 197.268 780.273 197.268L831.787 173.098L848.389 165.285L951.66 384.768L883.789 416.994C883.789 416.994 851.807 349.123 841.309 327.15C826.66 333.986 812.256 340.822 797.607 347.658C807.861 369.631 840.088 437.502 840.088 437.502L771.973 469.728L668.457 250.246L736.572 218.019ZM497.803 368.898C525.635 344.484 564.697 335.451 602.295 344.728L619.629 349.123L608.398 397.463L591.064 394.045C567.871 389.406 550.537 388.918 537.109 400.637C524.902 411.623 518.311 423.098 517.578 436.281C516.357 454.348 525.879 475.588 545.166 497.561C561.523 516.359 582.52 528.322 600.83 529.543C613.037 530.275 624.023 526.613 633.545 518.068C650.635 503.176 656.982 480.227 649.902 458.254L644.043 440.187L694.58 426.516L699.463 443.85C711.914 489.504 698.975 530.52 662.354 562.746C611.084 607.424 532.715 601.809 487.549 550.295C438.965 494.631 443.359 416.75 497.803 368.898ZM528.076 2035.4C528.076 2035.4 507.568 2015.87 499.023 2007.57C488.769 2018.31 460.693 2047.85 460.693 2047.85L427.734 2016.36L514.893 1924.81L523.193 1916.02L588.135 1978.03L566.406 2000.98C566.406 2000.98 543.701 1979.25 534.424 1970.46C529.053 1976.08 526.123 1979.01 520.752 1984.87C529.297 1992.92 549.805 2012.45 549.805 2012.45L528.076 2035.4ZM629.883 2161.13C612.549 2164.06 594.482 2159.91 579.59 2149.42C564.697 2138.67 554.932 2123.29 552.002 2105.96C548.828 2086.92 553.711 2067.14 565.674 2050.54C577.393 2033.69 594.482 2022.71 613.281 2019.53C630.859 2016.6 648.682 2020.75 663.574 2031.25C678.467 2041.75 688.232 2057.38 691.162 2074.95C691.894 2078.62 692.139 2082.52 692.139 2086.43C692.139 2101.56 687.256 2116.95 677.734 2130.13C665.772 2146.97 648.926 2157.96 629.883 2161.13ZM822.266 2205.32C812.988 2223.63 797.852 2237.06 779.541 2243.17C762.695 2248.54 744.385 2247.07 728.027 2238.77C711.914 2230.71 699.707 2216.8 694.336 2199.95C688.232 2181.89 690.186 2161.62 699.463 2143.07C718.018 2106.45 758.545 2091.8 793.457 2109.62C828.369 2127.2 840.82 2168.46 822.266 2205.32ZM945.312 2208.74C945.312 2208.74 928.955 2203.13 923.828 2201.17C917.48 2219.24 888.428 2302.25 888.428 2302.25L845.215 2287.11C845.215 2287.11 874.268 2204.1 880.615 2186.04C875.732 2184.33 859.131 2178.71 859.131 2178.71L865.723 2160.16L869.629 2148.93L955.811 2178.96L945.312 2208.74ZM1080.57 2249.76C1078.61 2259.28 1073.73 2266.85 1067.14 2271.97C1071.78 2278.57 1074.46 2285.89 1074.46 2294.44C1074.46 2297.37 1074.22 2300.54 1073.49 2303.47C1071.04 2315.19 1064.7 2324.71 1055.66 2330.57C1048.58 2335.21 1036.13 2339.85 1017.09 2335.94L957.764 2323.49L983.887 2199.71L986.328 2187.99L1044.68 2200.2C1072.27 2206.06 1081.3 2226.08 1081.3 2241.95C1081.3 2244.63 1081.05 2247.56 1080.57 2249.76ZM1171.39 2356.2C1171.39 2356.2 1164.31 2334.23 1161.62 2325.69C1154.05 2324.95 1146.48 2324.46 1138.67 2323.73C1134.77 2332.03 1125 2352.79 1125 2352.79L1088.87 2350.1L1152.34 2220.46L1165.77 2193.61L1219.48 2360.11L1171.39 2356.2ZM1250.73 2358.89L1244.87 2220.46L1290.53 2218.51C1290.53 2218.51 1294.19 2304.93 1294.92 2323.73C1308.11 2323.24 1340.82 2322.02 1340.82 2322.02L1342.29 2355.23L1250.73 2358.89ZM1380.13 2350.59L1358.64 2213.62L1392.09 2208.5L1404.05 2206.54C1404.05 2206.54 1417.24 2291.75 1420.17 2310.55C1433.35 2308.6 1465.58 2303.47 1465.58 2303.47L1470.7 2336.43L1380.13 2350.59ZM1714.84 2220.22C1713.13 2247.32 1698.49 2266.85 1672.36 2277.35C1636.47 2291.75 1595.21 2273.93 1580.81 2237.55C1573 2218.26 1573 2198 1580.57 2180.42C1588.13 2162.84 1602.29 2149.42 1620.61 2142.09C1640.14 2134.04 1663.09 2136.72 1681.4 2148.68L1691.41 2155.28L1674.56 2181.89L1664.31 2175.78C1653.32 2169.44 1645.26 2166.26 1636.72 2169.68C1628.91 2172.85 1623.78 2177.49 1621.09 2183.35C1617.43 2192.14 1618.41 2204.59 1624.27 2219C1629.15 2231.45 1637.45 2240.97 1646.48 2244.88C1652.1 2247.32 1657.96 2247.32 1664.06 2244.88C1675.05 2240.48 1681.88 2230.47 1682.13 2218.51L1682.62 2205.81L1715.58 2208.25L1714.84 2220.22ZM1765.14 2231.94L1697.75 2111.09L1727.05 2094.48L1737.79 2088.62C1737.79 2088.62 1779.79 2164.06 1789.06 2180.67C1800.54 2174.07 1829.1 2158.21 1829.1 2158.21L1845.21 2187.26L1765.14 2231.94ZM1919.68 2139.16C1905.52 2149.66 1890.38 2154.3 1876.95 2152.1C1865.23 2150.39 1854.98 2143.8 1846.92 2132.57L1791.5 2057.38L1828.61 2030.28L1884.03 2105.96C1885.99 2108.64 1888.43 2110.11 1891.36 2110.6C1895.26 2111.33 1899.17 2109.62 1900.88 2108.4C1904.54 2105.71 1908.69 2101.56 1909.18 2097.66C1909.42 2096.19 1909.42 2094 1906.98 2090.33L1850.83 2013.92L1867.92 2001.22L1877.93 1994.14L1935.3 2072.76C1948 2090.09 1948.49 2118.17 1919.68 2139.16ZM2041.5 2031.25L1998.05 2073.49L1901.61 1973.88L1944.58 1932.62C1968.26 1909.43 1994.14 1918.7 2005.62 1930.67C2012.21 1937.5 2015.62 1945.56 2016.36 1954.1C2027.34 1953.62 2037.84 1957.52 2046.14 1966.31C2054.44 1974.86 2058.84 1985.6 2058.84 1996.34C2058.59 2004.64 2055.42 2017.82 2041.5 2031.25ZM1250 2111.09C774.414 2111.09 388.916 1725.59 388.916 1250C388.916 774.416 774.414 388.918 1250 388.918C1725.59 388.918 2111.08 774.416 2111.08 1250C2111.08 1725.59 1725.59 2111.09 1250 2111.09Z" fill="#034694"/>
<path d="M1996.09 1997.4C1996.09 1997.4 1993.65 1999.6 1991.94 2001.55C1998.29 2008.15 2002.44 2012.3 2008.79 2018.89C2010.74 2016.94 2012.45 2015.47 2012.45 2015.47C2016.11 2011.81 2018.07 2008.63 2018.07 2006.44C2018.07 2006.19 2018.07 2006.19 2018.07 2006.19C2018.07 2003.75 2015.62 2000.82 2013.67 1998.62C2011.47 1996.43 2003.91 1989.84 1996.09 1997.4ZM1956.54 1964.93C1961.91 1970.55 1964.6 1973.23 1969.97 1978.85C1971.19 1977.63 1972.17 1976.65 1972.17 1976.65C1975.34 1973.48 1976.56 1971.04 1976.56 1969.08C1976.56 1966.4 1974.85 1964.69 1973.39 1963.22C1970.21 1959.81 1966.31 1956.14 1956.54 1964.93Z" fill="#034694"/>
<path d="M2084.95 1250C2084.95 1711.18 1711.17 2084.96 1249.99 2084.96C788.811 2084.96 415.032 1711.18 415.032 1250C415.032 788.816 788.811 415.037 1249.99 415.037C1711.17 415.037 2084.95 788.816 2084.95 1250ZM534.172 1957.52C537.834 1961.18 566.155 1988.04 566.155 1988.04L575.432 1978.27L523.674 1928.71L521.477 1930.91L440.666 2015.87L460.442 2034.91C460.442 2034.91 495.11 1998.78 498.772 1994.87C502.434 1998.53 527.824 2022.7 527.824 2022.7L537.102 2012.94C537.102 2012.94 511.711 1988.77 508.049 1985.11C511.223 1981.44 530.754 1961.18 534.172 1957.52ZM658.196 2038.57C671.135 2047.85 679.68 2061.28 682.366 2076.41C682.854 2079.59 683.098 2083.01 683.098 2086.42C683.098 2099.61 678.703 2113.04 670.403 2125C659.905 2139.65 645.012 2149.41 628.411 2152.1C613.274 2154.78 597.893 2151.12 584.953 2141.84C572.014 2132.81 563.469 2119.38 561.028 2104.25C558.098 2087.89 562.493 2070.55 572.991 2055.66C583.489 2040.77 598.381 2031.25 614.983 2028.32C629.875 2025.88 645.256 2029.54 658.196 2038.57ZM646.477 2108.15C655.266 2095.95 673.088 2065.67 650.383 2049.56C628.166 2033.69 605.461 2060.3 596.672 2072.51C588.127 2084.96 570.305 2114.99 592.766 2130.86C615.227 2146.97 637.932 2120.12 646.477 2108.15ZM789.299 2117.67C819.817 2133.05 830.315 2168.94 814.201 2201.17C805.901 2217.28 792.717 2229.25 776.848 2234.37C762.199 2239.26 746.33 2237.79 732.17 2230.71C718.01 2223.63 707.512 2211.67 702.873 2197.26C697.502 2181.15 699.211 2163.57 707.512 2147.46C723.869 2115.23 759.026 2102.29 789.299 2117.67ZM738.274 2218.75C744.621 2221.92 751.213 2222.65 757.561 2220.46C772.209 2215.57 782.952 2198 788.078 2187.99C793.205 2177.98 801.018 2158.93 796.135 2144.29C793.938 2137.69 789.787 2133.05 783.196 2129.64C758.537 2117.19 740.227 2146.97 733.391 2160.4C726.799 2173.83 713.616 2206.3 738.274 2218.75ZM874.26 2163.08L870.842 2173.09C870.842 2173.09 887.932 2179.2 892.326 2180.66C890.373 2186.03 856.926 2281.49 856.926 2281.49L882.805 2290.53C882.805 2290.53 916.252 2195.07 918.205 2189.7C922.6 2191.16 939.69 2197.26 939.69 2197.26L944.328 2184.57L875.237 2160.4L874.26 2163.08ZM1042.72 2208.98C1066.15 2214.11 1072.26 2230.22 1072.26 2241.7C1072.26 2244.14 1072.01 2246.34 1071.53 2248.04C1069.33 2259.28 1061.76 2266.84 1051.51 2269.77C1060.54 2275.88 1065.42 2284.42 1065.42 2294.43C1065.42 2296.87 1065.18 2299.07 1064.69 2301.76C1062.74 2311.03 1057.85 2318.36 1050.77 2323C1042.47 2328.37 1031.73 2329.83 1019.04 2327.15L968.742 2316.65L992.912 2201.66L993.401 2198.73L1042.72 2208.98ZM1025.63 2219.24C1025.63 2219.24 1020.74 2218.26 1017.57 2217.53C1016.59 2222.17 1010.98 2249.51 1009.76 2254.15C1014.15 2255.12 1021.72 2256.59 1021.72 2256.59C1028.8 2258.3 1041.25 2258.3 1044.43 2243.16C1044.91 2241.21 1045.16 2239.5 1045.16 2237.79C1045.16 2234.13 1044.18 2231.2 1042.47 2228.76C1039.54 2224.12 1033.93 2220.95 1025.63 2219.24ZM1021.72 2270.51C1021.72 2270.51 1011.22 2268.31 1007.07 2267.33C1006.1 2272.21 999.26 2304.2 998.284 2309.08C1003.17 2310.06 1012.2 2312.01 1012.2 2312.01C1019.77 2313.47 1025.63 2312.99 1029.78 2310.3C1033.44 2307.86 1036.13 2303.22 1037.59 2296.63C1037.59 2296.38 1038.08 2294.19 1038.08 2291.26C1038.08 2284.42 1035.88 2273.44 1021.72 2270.51ZM1160.39 2224.36L1164.05 2217.53L1206.78 2349.85L1178.22 2347.65C1178.22 2347.65 1169.43 2320.55 1168.45 2317.14C1165.03 2316.89 1136.71 2314.7 1133.29 2314.21C1131.58 2317.62 1119.62 2343.02 1119.62 2343.02L1103.02 2341.79L1160.39 2224.36ZM1154.05 2271.73C1150.14 2280.03 1142.33 2296.14 1139.64 2301.27C1145.26 2301.76 1158.2 2302.73 1164.05 2303.22C1162.35 2297.61 1156.97 2280.52 1154.05 2271.73ZM1286.13 2333.25C1285.88 2327.63 1281.73 2228.03 1281.73 2228.03L1278.8 2228.27L1254.39 2229.25L1259.27 2349.61L1332.76 2346.43L1332.02 2331.54C1332.02 2331.3 1291.5 2333.01 1286.13 2333.25ZM1412.59 2321.04C1411.86 2315.43 1396.23 2217.04 1396.23 2217.04L1393.3 2217.53L1369.13 2221.19L1387.69 2340.09L1460.2 2328.86L1458 2313.96C1458 2313.96 1417.96 2320.07 1412.59 2321.04ZM1691.4 2218.75C1690.91 2234.37 1681.63 2247.56 1667.47 2253.42C1659.17 2256.59 1650.87 2256.59 1642.81 2253.17C1631.58 2248.53 1621.82 2237.3 1615.96 2222.41C1609.12 2205.56 1608.15 2190.92 1612.79 2179.93C1616.45 2171.38 1623.53 2165.28 1633.54 2161.13C1646.72 2156 1658.68 2162.11 1669.18 2167.97L1671.62 2169.68L1678.95 2157.96L1676.51 2156.25C1660.64 2145.75 1640.86 2143.55 1624.02 2150.39C1607.9 2156.98 1595.45 2168.7 1589.1 2183.84C1582.27 2199.22 1582.51 2217.28 1589.1 2233.88C1601.8 2265.87 1637.69 2281.49 1668.94 2268.8C1691.64 2259.76 1704.09 2243.16 1705.8 2219.72L1706.05 2216.55L1691.4 2215.57V2218.75ZM1785.39 2193.11C1782.71 2187.99 1734.12 2101.07 1734.12 2101.07L1731.44 2102.54L1709.95 2114.74L1768.55 2219.72L1832.76 2183.84L1825.43 2170.65C1825.43 2170.65 1790.03 2190.43 1785.39 2193.11ZM1875.97 2006.83L1873.28 2008.79L1863.52 2015.87L1914.3 2084.96C1917.72 2089.6 1918.94 2094.48 1918.21 2098.88C1917.23 2107.18 1909.66 2113.52 1906.49 2115.72C1902.82 2118.41 1896.23 2120.6 1889.88 2119.63C1884.51 2118.89 1880.12 2115.96 1876.7 2111.33L1826.65 2042.97L1804.44 2059.32L1854 2127.2C1860.83 2136.47 1868.89 2141.84 1878.41 2143.31C1893.06 2145.51 1907.22 2137.21 1914.05 2132.08C1938.22 2114.5 1938.47 2092.28 1927.97 2078.37L1875.97 2006.83ZM2039.54 1972.65C2046.13 1979.49 2049.8 1987.55 2049.55 1996.09C2049.31 2005.86 2044.67 2015.62 2035.15 2024.66L1998.28 2060.54L1914.54 1974.12L1950.68 1938.96C1971.18 1918.94 1991.2 1928.71 1999.02 1936.77C2004.88 1942.62 2007.56 1949.71 2007.56 1956.79C2007.56 1959.71 2007.07 1962.64 2006.1 1965.57C2018.3 1960.94 2030.27 1963.13 2039.54 1972.65ZM1985.59 1968.99C1985.59 1965.09 1983.88 1961.18 1979.73 1956.79C1970.7 1947.26 1960.69 1948 1949.46 1958.98C1949.46 1958.98 1945.79 1962.4 1943.6 1964.6C1947.01 1968.02 1966.3 1988.04 1969.72 1991.45C1972.89 1988.52 1978.51 1983.15 1978.51 1983.15C1981.68 1979.98 1985.59 1975.1 1985.59 1968.99ZM2008.54 2031.74C2011.47 2029.05 2018.79 2021.97 2018.79 2021.97C2024.16 2016.6 2027.09 2011.47 2027.09 2006.35C2027.09 2001.71 2024.89 1997.07 2020.26 1992.43C2019.52 1991.7 2004.63 1976.56 1989.74 1990.72C1989.74 1990.72 1982.17 1998.29 1979 2001.22C1982.66 2004.64 2005.12 2028.07 2008.54 2031.74ZM686.272 441.404L659.416 448.484L661.369 454.588C669.914 481.199 662.346 509.031 641.35 527.342C629.387 537.84 615.471 542.723 600.09 541.746C578.117 540.281 554.924 527.098 536.125 505.613C514.641 480.955 504.143 456.785 505.608 435.301C506.584 419.187 514.641 404.539 529.289 391.6C548.332 374.754 572.502 377.928 593.498 382.078L599.358 383.299L605.217 357.908L599.358 356.443C565.666 348.143 530.754 356.199 505.852 378.172C456.536 421.385 452.629 491.697 496.819 542.234C537.59 588.865 608.147 593.992 654.534 553.709C687.981 524.412 699.211 488.523 687.737 447.264L686.272 441.404ZM836.907 184.08L796.379 203.123C796.379 203.123 830.559 275.633 834.953 285.154C826.409 289.305 778.069 312.01 769.28 316.16C764.885 306.639 730.705 234.129 730.705 234.129L684.563 255.857L777.825 453.367L823.967 431.639C823.967 431.639 786.125 351.561 781.487 341.795C790.276 337.645 838.371 314.939 847.16 311.033C851.799 320.555 889.641 400.877 889.641 400.877L935.784 379.148L842.522 181.395L836.907 184.08ZM1052.48 323.484C1050.53 313.963 1039.54 259.764 1037.83 250.242C1047.84 248.289 1114.49 234.861 1114.49 234.861L1109.37 209.959C1109.37 209.959 1042.72 223.387 1032.71 225.34C1030.75 216.063 1021.23 168.455 1019.28 159.178C1029.53 157.225 1100.82 142.82 1100.82 142.82L1095.7 117.674L964.348 144.285L1007.56 358.397L1140.13 331.541L1135 306.639C1135.25 306.639 1062.74 321.287 1052.48 323.484ZM1271.48 109.617L1220.45 108.641V114.5L1215.81 326.902L1349.6 329.832L1350.33 301.268C1350.33 301.268 1277.82 299.803 1267.57 299.559C1267.81 288.328 1271.48 109.617 1271.48 109.617ZM1526.85 166.99C1542.96 171.141 1552.24 181.883 1556.14 201.17L1557.61 207.762L1584.22 198.729L1583.24 193.602C1577.87 167.234 1555.66 145.018 1527.34 137.938C1507.07 132.811 1487.05 135.496 1470.7 145.262C1455.8 154.295 1445.3 168.211 1441.15 184.812C1430.66 226.561 1458 246.092 1479.73 261.717C1501.7 277.342 1515.13 288.084 1509.51 310.545C1507.32 319.822 1501.21 325.193 1496.33 328.123C1489.25 332.518 1480.22 333.738 1472.4 331.785C1456.29 327.879 1447.99 319.09 1441.64 299.803L1439.69 293.699L1412.1 304.93L1413.57 310.301C1421.62 336.668 1441.15 353.27 1473.14 361.326C1508.54 370.115 1551.26 354.246 1561.76 312.254C1572.5 268.064 1543.69 246.824 1520.5 229.734C1500.72 215.086 1488.52 205.32 1492.67 189.207C1496.33 174.803 1508.29 162.352 1526.85 166.99ZM1743.64 250.486C1753.17 255.125 1817.86 287.84 1817.86 287.84L1829.58 265.135L1709.95 204.588L1707.02 209.959L1611.32 399.656L1732.17 460.691L1743.64 437.986C1743.64 437.986 1677.73 404.783 1668.21 399.9C1672.6 391.356 1697.5 342.039 1701.9 333.494C1710.93 338.133 1771.72 368.65 1771.72 368.65L1783.2 345.945C1783.2 345.945 1722.4 315.428 1713.37 310.789C1717.52 302.244 1739.49 258.787 1743.64 250.486ZM1994.13 383.055L2008.05 376.707L1926.51 616.453L1886.71 581.785C1886.71 581.785 1903.31 533.445 1905.51 526.609C1900.38 522.215 1863.27 489.988 1858.15 485.35C1851.8 488.768 1807.12 512.449 1807.12 512.449L1783.68 491.941L1994.13 383.055ZM1914.3 500.73C1917.96 490.232 1927.48 462.889 1933.34 446.531C1917.72 454.588 1892.33 467.772 1882.32 472.898C1890.37 479.979 1906.24 493.65 1914.3 500.73ZM375.237 1488.52L373.772 1484.13L373.039 1479.49C371.086 1463.87 367.18 1435.06 344.719 1429.69C338.86 1428.46 332.512 1428.95 325.92 1431.88C327.629 1425.05 327.385 1418.7 325.432 1412.84C317.131 1391.36 287.834 1391.6 272.209 1391.84H267.571L262.932 1391.11C247.551 1388.18 218.743 1382.81 206.78 1402.59C203.606 1407.96 202.385 1414.06 202.873 1421.14C197.014 1417.23 190.911 1415.53 184.807 1415.77C161.858 1416.99 153.069 1444.82 148.43 1459.96L146.965 1464.35L144.768 1468.5C137.2 1482.42 123.284 1508.05 138.42 1525.39C142.327 1530.03 147.698 1532.96 154.778 1534.67C149.162 1539.3 145.744 1544.43 144.28 1550.29C138.176 1572.51 162.102 1589.6 174.797 1598.63L178.459 1601.32L181.877 1604.73C192.619 1616.21 212.639 1637.45 233.879 1628.42C239.494 1625.97 244.133 1621.82 248.039 1615.72C250.481 1622.31 254.387 1627.2 259.514 1630.61C278.801 1643.06 302.483 1625.73 314.934 1616.45L318.84 1613.77L322.746 1611.57C337.151 1604.73 363.518 1592.28 361.565 1569.33C361.077 1563.23 358.391 1557.62 353.752 1552.24C360.832 1551.76 366.692 1549.56 371.575 1545.65C389.397 1531.25 380.119 1503.42 375.237 1488.52ZM2367.67 1468.26L2365.47 1464.35L2364.01 1459.96C2359.37 1444.82 2350.58 1416.99 2327.63 1415.77C2321.53 1415.53 2315.42 1417.23 2309.56 1420.9C2310.05 1413.82 2308.59 1407.71 2305.66 1402.59C2293.69 1382.81 2264.89 1388.18 2249.5 1391.11L2244.87 1391.84H2240.23C2224.6 1391.6 2195.3 1391.36 2187 1412.84C2184.81 1418.7 2184.56 1424.8 2186.52 1431.64C2179.92 1428.95 2173.82 1428.22 2167.72 1429.69C2145.26 1434.81 2141.35 1463.87 2139.4 1479.49L2138.66 1484.13L2137.44 1488.52C2132.32 1503.42 2123.04 1531 2140.86 1545.65C2145.74 1549.31 2151.6 1551.51 2158.68 1552C2154.05 1557.37 2151.36 1562.99 2150.87 1569.09C2148.92 1592.04 2175.29 1604.73 2189.45 1611.57L2193.6 1613.52L2197.5 1616.21C2210.2 1625.73 2233.64 1643.06 2252.92 1630.61C2258.05 1627.2 2261.96 1622.07 2264.4 1615.48C2268.3 1621.58 2272.94 1625.73 2278.56 1628.17C2299.8 1637.21 2319.82 1615.96 2330.56 1604.49L2333.98 1601.32L2337.64 1598.63C2350.33 1589.6 2374.26 1572.51 2368.16 1550.29C2366.69 1544.43 2363.27 1539.3 2357.66 1534.67C2364.49 1532.96 2370.11 1529.78 2374.02 1525.14C2389.15 1507.81 2375.24 1482.18 2367.67 1468.26ZM275.139 871.336C212.395 860.106 152.336 902.342 141.35 964.842C130.119 1027.59 172.356 1087.64 234.856 1098.63C297.6 1109.86 357.659 1067.87 368.645 1005.12C379.875 942.381 337.883 882.322 275.139 871.336ZM2131.1 1005.12C2142.33 1067.87 2202.14 1109.86 2264.89 1098.63C2327.63 1087.64 2369.62 1027.59 2358.64 964.842C2347.65 902.342 2287.59 860.106 2224.85 871.336C2162.1 882.322 2120.11 942.381 2131.1 1005.12Z" fill="white"/>
<path d="M1574.71 862.305C1586.18 881.104 1607.67 892.822 1631.1 890.869C1663.33 887.695 1687.26 858.887 1684.33 826.66C1684.08 825.439 1683.84 824.219 1683.84 823.242C1680.18 840.088 1660.4 854.248 1635.25 856.445C1616.21 858.398 1599.12 852.783 1588.87 843.262C1583.98 849.853 1579.1 856.445 1574.71 862.305Z" fill="#D1D3D4"/>
<path d="M1847.16 1217.2C1829.82 1171.3 1770.5 1151.53 1714.35 1172.77C1690.91 1181.56 1671.62 1196.21 1658.68 1213.78C1695.79 1107.83 1846.91 1085.37 1846.91 986.733C1846.91 821.694 1612.29 867.837 1646.47 986.733C1646.47 932.778 1732.41 923.013 1732.41 986.733C1732.41 1050.7 1582.75 1092.45 1582.75 1200.36C1582.75 1319.25 1701.65 1330.24 1689.44 1439.13C1687.49 1457.68 1667.47 1482.34 1638.17 1482.34C1456.04 1482.34 1520.99 1258.22 1457.51 1189.86L1460.68 1143.96C1497.55 1166.42 1595.2 1113.69 1530.75 1032.88C1530.75 1072.67 1448.48 1070.47 1448.48 995.522C1448.48 894.204 1542.96 947.183 1547.6 969.399C1543.2 932.534 1541.49 909.097 1547.6 887.856C1496.33 904.458 1491.69 874.917 1498.04 863.442C1505.61 850.259 1515.37 834.878 1535.39 834.878C1546.13 834.878 1552.48 836.343 1556.39 839.028C1562.73 843.179 1567.37 833.413 1566.4 842.69C1571.77 834.39 1569.57 844.644 1574.94 836.343C1580.31 828.042 1587.64 818.765 1600.33 806.069L1599.84 787.515L1614.74 792.886L1628.9 769.937C1613.52 737.954 1592.52 753.335 1577.14 713.784C1564.2 710.366 1363.52 732.095 1369.37 652.017C1353.02 652.017 1314.2 661.05 1338.37 693.765C1319.57 695.962 1306.14 674.722 1278.07 732.095C1313.22 725.503 1295.16 764.81 1295.16 775.796C1295.16 848.55 1198.48 847.329 1198.48 813.394C1175.28 835.854 1188.47 885.415 1223.62 897.622C1223.62 897.622 1210.19 950.601 1177.24 984.048C1128.16 982.095 1049.55 973.55 1004.14 930.581C984.609 912.27 969.228 902.261 956.045 896.89V872.964C975.332 863.442 996.572 846.841 1018.54 818.765C1035.63 797.769 1044.91 770.913 1042.47 742.349C1042.23 738.931 1041.74 735.513 1041.01 732.339C1040.76 731.118 1040.52 730.142 1040.27 729.165C1039.78 726.724 1039.3 724.526 1038.56 722.329C1038.32 721.108 1038.08 720.132 1037.59 719.155C1036.86 716.714 1036.12 714.517 1035.15 712.319C1034.9 711.587 1034.66 710.61 1034.17 709.634C1032.95 706.704 1031.48 704.019 1030.02 701.333C1029.53 700.112 1028.8 699.136 1028.07 698.159C1027.09 696.45 1026.11 694.741 1025.14 693.276C1024.16 691.811 1023.43 690.591 1022.45 689.37C1021.47 688.149 1020.5 686.685 1019.52 685.708C1018.54 684.243 1017.32 683.022 1016.35 681.558C1015.61 680.825 1014.64 679.849 1013.91 679.116C1010.98 675.942 1008.05 673.013 1004.63 670.083C1004.38 669.839 1004.14 669.595 1003.9 669.351C1001.94 667.886 1000.23 666.421 998.281 664.956C997.793 664.468 997.304 664.224 996.816 663.735C994.619 662.27 992.666 661.05 990.468 659.585C990.468 659.585 990.224 659.585 990.224 659.341C969.472 646.89 944.57 640.054 918.203 642.251C854.97 647.378 807.851 700.356 813.222 760.659C817.373 807.534 852.041 844.888 896.963 856.851C881.093 865.64 867.91 870.767 864.736 870.767C865.224 871.011 865.957 871.499 866.689 871.987C866.933 871.987 866.933 872.231 867.422 872.231C867.91 872.72 868.642 873.208 869.375 873.452C869.619 873.696 869.863 873.696 869.863 873.696C870.84 874.185 872.06 874.917 873.281 875.405C873.281 875.405 873.525 875.649 873.769 875.649C874.746 876.138 875.967 876.626 876.943 877.114C877.187 877.114 877.676 877.358 877.92 877.358C880.849 878.579 883.779 879.556 887.197 880.776C887.685 880.776 888.174 881.021 888.662 881.021C890.127 881.509 891.347 881.753 892.812 881.997C893.301 881.997 893.789 882.241 894.277 882.241C896.23 882.729 897.939 882.974 899.892 883.218C900.136 883.218 900.136 883.218 900.381 883.218V896.89C899.648 897.134 899.16 897.134 898.427 897.134C877.92 900.552 864.492 906.899 858.388 925.21C852.285 943.765 858.633 950.356 868.154 963.296C860.097 977.944 838.613 983.315 866.445 1015.54C864.492 1027.5 867.177 1047.04 884.756 1052.9C890.615 1054.85 895.254 1055.83 900.381 1056.8V1298.26C882.802 1307.53 874.013 1319.25 869.375 1330C869.375 1330 855.215 1298.5 855.947 1361C872.06 1348.31 865.713 1375.41 865.713 1375.41C843.984 1403.73 871.816 1402.26 871.816 1402.26C890.615 1383.46 886.709 1410.81 886.709 1410.81C886.709 1444.25 900.381 1457.19 900.381 1457.44V1641.27H884.511V1692.06H912.588C896.963 1698.4 886.465 1714.03 887.929 1731.12C889.883 1752.85 909.902 1768.96 932.607 1767.25C955.312 1765.3 972.402 1746.5 970.449 1724.77C969.228 1709.63 959.219 1697.43 945.791 1691.81H971.67L971.426 1641.03L956.045 1641.27V1477.94C959.218 1479.9 962.636 1480.87 966.543 1481.85C968.008 1482.09 969.472 1482.34 970.937 1482.34C971.67 1482.58 972.402 1482.58 972.89 1482.58C968.984 1461.1 981.679 1446.94 981.679 1446.94C988.271 1436.93 997.793 1429.12 1008.53 1423.75C1041.01 1407.63 1085.2 1411.78 1098.38 1438.15C1182.12 1415.93 1253.9 1331.95 1253.9 1331.95L1295.16 1402.02C1207.75 1431.31 1017.57 1596.6 1149.65 1653.97C1149.65 1670.57 1147.21 1794.35 1068.11 1784.34C953.847 1770.42 925.283 1817.54 947.256 1870.77C936.758 1915.44 971.426 1931.07 971.426 1931.07C966.299 1905.19 978.506 1883.71 1025.87 1883.95C1025.62 1931.31 1056.14 1939.86 1056.14 1939.86C1056.39 1899.33 1084.46 1884.44 1109.36 1884.44C1109.12 1917.89 1147.94 1930.58 1147.94 1930.58C1147.94 1930.58 1138.17 1892.01 1181.87 1884.44C1292.71 1865.15 1188.71 1751.14 1357.17 1719.89C1357.17 1719.89 1273.18 1707.19 1273.18 1661.29C1273.18 1619.55 1349.11 1590.98 1375.23 1590.98C1428.95 1693.52 1487.05 1694.25 1502.43 1694.99C1526.11 1721.6 1518.06 1810.95 1483.88 1809.24C1358.39 1802.41 1363.03 1878.82 1376.94 1894.45C1375.48 1923.99 1398.43 1941.08 1398.43 1941.08C1398.43 1909.34 1428.7 1900.55 1467.52 1902.5C1465.32 1941.32 1490.22 1947.18 1490.22 1947.18C1490.96 1908.12 1519.77 1901.53 1540.27 1902.5C1538.81 1929.85 1565.91 1937.91 1565.91 1937.91C1565.91 1937.91 1563.22 1903.24 1599.84 1903.24C1669.18 1903.24 1568.35 1754.56 1703.85 1607.58C1584.95 1662.51 1521.72 1525.06 1521.72 1498.7C1582.75 1570.23 1780.75 1584.39 1780.75 1462.32C1780.75 1345.62 1652.58 1302.16 1712.64 1257.49C1747.55 1231.36 1816.15 1283.85 1776.85 1338.05C1833 1317.3 1864.25 1262.86 1847.16 1217.2ZM1087.15 1220.86C1042.23 1247.23 1012.2 1280.43 971.426 1295.08C965.078 1297.28 960.195 1297.77 956.045 1297.52V1069.74C966.787 1070.72 994.863 1074.62 1027.58 1088.3C1060.29 1105.87 1060.29 1142.74 1019.28 1151.53C1045.16 1201.09 1135 1176.67 1154.53 1136.39C1164.3 1135.42 1172.6 1152.5 1180.65 1168.86C1167.96 1175.45 1142.32 1188.39 1087.15 1220.86ZM1480.21 717.69L1469.96 731.606C1469.96 731.606 1456.29 736.001 1459.71 716.47L1480.21 717.69ZM1411.12 716.47H1440.66C1440.66 716.47 1439.44 740.151 1460.93 742.349L1456.29 749.917C1456.29 749.917 1398.92 734.78 1411.12 716.47Z" fill="#D1D3D4"/>
<path d="M1811.04 1180.91C1793.7 1135.26 1734.13 1115.24 1677.98 1136.48C1654.54 1145.27 1635.25 1160.16 1622.31 1177.49C1659.42 1071.54 1810.55 1049.07 1810.55 950.686C1810.55 785.402 1575.93 831.789 1610.11 950.686C1610.11 948.977 1610.35 947.023 1610.35 945.559C1616.46 878.176 1736.57 864.504 1736.57 952.15C1736.57 1026.86 1582.76 1068.36 1582.76 1169.19C1582.76 1272.71 1696.29 1298.59 1696.29 1407.47C1696.29 1420.41 1689.45 1476.08 1614.01 1476.08C1541.02 1476.08 1506.1 1435.55 1486.08 1382.33C1448.97 1310.55 1462.65 1198.73 1420.9 1154.05L1424.32 1107.91C1461.18 1130.62 1558.59 1077.64 1494.63 997.072C1494.63 1036.87 1412.11 1034.43 1412.11 959.719C1412.11 858.4 1506.59 911.135 1511.23 933.596C1506.59 896.73 1504.88 873.293 1511.23 852.053C1459.96 868.41 1455.32 839.113 1461.67 827.639C1469.24 814.211 1479 798.83 1498.78 798.83C1527.59 798.83 1525.63 809.572 1524.17 824.221C1535.16 807.863 1538.33 795.168 1563.72 770.266L1563.23 751.467L1578.12 757.082L1592.53 733.889C1577.15 701.906 1556.15 717.531 1540.77 677.736C1527.83 674.318 1359.13 658.938 1364.99 578.859C1350.1 578.859 1309.57 630.373 1336.91 657.961C1336.91 657.961 1315.19 657.961 1302 657.961C1283.2 660.158 1239.5 646.975 1211.43 704.348C1280.52 635.256 1325.44 800.051 1198.24 800.051C1179.44 800.051 1163.33 792.238 1162.35 779.055C1149.66 834.475 1229.74 851.809 1229.74 851.809C1229.74 868.41 1189.45 957.766 1170.17 977.297C1183.11 990.48 1187.26 1069.83 1126.46 1069.83C1148.44 1010.5 1083.98 960.207 1021.24 927.004C1021.48 927.004 1021.48 927.004 1021.48 927.004C1010.01 922.854 999.268 917.482 989.258 911.135C950.928 893.557 919.678 883.791 919.678 883.791V837.16C938.965 827.639 959.961 811.037 982.178 782.961C999.268 761.965 1008.54 735.109 1006.1 706.545C1005.86 703.127 1005.37 699.709 1004.64 696.535C1004.39 695.314 1004.15 694.338 1003.91 693.361C1003.42 691.164 1002.93 688.723 1002.2 686.525C1001.95 685.549 1001.71 684.328 1001.22 683.352C1000.49 680.91 999.756 678.713 998.779 676.516C998.535 675.783 998.047 674.807 997.803 673.83C996.582 671.145 995.117 668.215 993.652 665.529C993.164 664.309 992.432 663.332 991.699 662.355C990.723 660.646 989.746 658.938 988.77 657.473C987.793 656.008 987.061 654.787 986.084 653.566C985.107 652.346 984.131 650.881 983.154 649.904C982.178 648.439 980.957 646.975 979.98 645.754C979.004 644.777 978.271 644.045 977.539 643.312C974.609 640.139 971.68 637.209 968.262 634.279C968.018 634.035 967.773 633.791 967.285 633.547C965.576 632.082 963.623 630.617 961.67 629.152C961.182 628.908 960.693 628.42 960.205 627.932C958.252 626.223 956.299 625.002 954.102 623.781C953.857 623.537 953.857 623.537 953.613 623.537C933.106 610.842 908.203 604.25 881.836 606.203C876.221 606.691 870.605 607.668 865.234 608.889C828.857 623.049 802.246 665.529 802.246 716.066C802.246 763.674 825.928 804.445 859.131 820.559C859.619 820.803 860.107 820.803 860.596 821.047C844.727 829.836 831.299 834.963 828.369 834.963C828.857 835.207 829.59 835.451 830.322 836.184C830.322 836.184 830.566 836.184 830.811 836.428C831.543 836.672 832.031 837.16 833.008 837.648C833.008 837.648 833.252 837.648 833.496 837.893C834.473 838.381 835.693 838.869 836.67 839.602C836.914 839.602 837.158 839.602 837.402 839.846C838.379 840.09 839.355 840.578 840.576 841.066C840.82 841.311 841.309 841.311 841.553 841.555C844.482 842.531 847.412 843.752 850.83 844.729C851.318 844.729 851.807 844.973 852.295 844.973C853.516 845.461 854.98 845.705 856.445 845.949C856.934 846.193 857.422 846.193 857.91 846.438C859.863 846.682 861.572 847.17 863.525 847.414C863.77 847.414 864.014 847.414 864.014 847.414C876.221 848.391 890.381 845.461 890.381 845.461V872.316C888.184 872.316 869.385 866.213 864.014 861.086C863.525 861.086 862.793 861.33 862.061 861.33C841.553 864.748 828.125 871.096 822.021 889.406C816.162 907.717 822.266 914.553 831.787 927.492C823.73 941.896 802.49 947.512 830.078 979.738C828.125 991.701 830.811 1011.23 848.389 1017.09C854.248 1019.04 859.131 1020.02 864.014 1021C874.512 1021 890.381 1029.79 890.381 1051.52V1258.79C900.146 1259.52 910.4 1260.74 919.922 1261.48V1033.69C930.664 1034.67 958.74 1038.58 991.455 1052C991.943 1052.25 992.188 1052.49 992.676 1052.74H992.432C995.606 1052.98 998.535 1053.71 1001.46 1054.45C1023.44 1061.28 1037.11 1080.32 1031.98 1096.93C1026.86 1113.77 1004.88 1121.83 983.154 1115.24C1009.03 1165.04 1099.12 1140.63 1118.65 1100.1C1128.17 1099.37 1136.72 1116.46 1144.53 1132.57C1144.53 1132.57 1167.24 1141.36 1222.9 1141.36C1222.9 1141.36 997.07 1285.65 931.641 1285.65C903.809 1285.65 841.797 1285.65 841.797 1306.64C824.951 1306.64 800.293 1335.45 800.293 1352.05C816.406 1339.6 829.59 1339.6 829.59 1339.6C843.262 1339.6 850.83 1343.75 850.83 1343.75C845.947 1348.63 823.486 1374.03 823.486 1393.8C842.285 1375 850.586 1375 850.586 1375C850.586 1375 870.361 1372.56 877.197 1379.4C872.559 1384.28 864.258 1401.37 864.258 1421.63C864.258 1421.63 875.977 1398.93 890.625 1398.93V1615.72C890.625 1622.56 860.596 1628.91 848.389 1628.91V1656.25H876.465C873.047 1657.47 869.873 1659.43 866.943 1661.62C869.873 1660.65 872.803 1659.91 875.977 1659.91C889.893 1659.91 901.367 1671.39 901.367 1685.55C901.367 1699.46 889.893 1710.94 875.977 1710.94C864.502 1710.94 854.981 1703.62 851.807 1693.12V1695.56C853.76 1717.04 873.779 1733.16 896.484 1731.45C919.189 1729.74 936.035 1710.45 934.326 1688.97C932.861 1674.07 923.096 1661.87 909.424 1656.25L935.303 1656.01V1605.23L919.922 1605.47V1442.14C904.785 1434.33 895.996 1417.48 899.414 1399.9C908.936 1399.9 917.725 1402.35 923.34 1406.5C914.551 1426.03 936.768 1446.78 936.768 1446.78C932.617 1425.29 945.312 1411.13 945.312 1411.13C951.904 1401.13 961.426 1393.56 972.168 1387.94C1004.64 1371.83 1048.83 1375.98 1062.01 1402.35C1145.75 1380.37 1217.77 1296.14 1217.77 1296.14L1258.79 1366.21C1355.47 1366.21 1321.78 1293.95 1315.67 1287.6C1337.89 1287.6 1369.14 1303.96 1369.14 1340.09C1369.14 1429.2 1110.35 1441.65 1110.35 1549.81C1110.35 1594.97 1155.27 1612.31 1155.27 1612.31C1155.27 1710.7 1087.65 1769.29 1041.5 1769.29C967.529 1769.29 910.889 1754.15 910.889 1834.96H936.768C912.354 1859.38 935.059 1895.27 935.059 1895.27C929.932 1869.39 942.383 1848.15 989.746 1848.39H1019.04C1000.49 1866.95 1011.23 1895.51 1020.02 1904.05C1020.02 1863.53 1048.1 1848.63 1073.24 1848.88C1082.28 1848.88 1094.48 1848.88 1094.48 1848.88C1088.87 1854.49 1098.14 1881.11 1111.82 1894.78C1111.82 1894.78 1101.81 1856.45 1145.75 1848.88C1256.35 1829.59 1152.34 1715.58 1320.8 1684.08C1320.8 1684.08 1237.06 1671.39 1237.06 1625.49C1237.06 1583.99 1312.99 1555.18 1339.11 1555.18C1359.62 1552.25 1379.15 1552.98 1396 1556.64C1402.83 1622.8 1478.76 1619.63 1495.36 1619.63C1559.81 1684.08 1479 1787.36 1479 1787.36C1380.13 1787.36 1340.82 1801.03 1340.82 1858.64H1359.62C1349.12 1869.14 1354.98 1898.2 1362.3 1905.52C1362.3 1873.54 1392.58 1864.75 1431.4 1866.7H1451.66C1441.65 1876.71 1443.6 1900.88 1454.1 1911.38C1454.59 1872.32 1483.4 1865.72 1504.15 1866.7H1521C1514.65 1873.29 1521 1893.56 1529.79 1902.35C1529.79 1902.35 1527.1 1867.68 1563.72 1867.43C1633.06 1867.43 1532.23 1718.75 1667.72 1571.78C1548.83 1626.96 1485.35 1489.26 1485.35 1462.89C1546.63 1534.43 1744.63 1548.59 1744.63 1426.52C1744.63 1327.88 1653.32 1281.74 1660.89 1242.68C1663.57 1212.89 1688.48 1189.7 1718.99 1189.7C1751.22 1189.7 1777.34 1215.82 1777.34 1248.05C1777.34 1272.46 1762.21 1293.46 1740.72 1302.25C1796.63 1281.25 1828.13 1226.56 1811.04 1180.91ZM857.178 1000C851.807 1000.25 849.121 992.922 849.121 990.48C848.877 987.795 850.83 980.227 856.445 980.227C869.629 979.738 896.24 986.086 896.24 988.527C896.484 991.213 870.605 999.514 857.178 1000ZM848.633 964.113C841.064 963.625 838.623 953.371 838.867 949.709C839.111 946.047 843.018 936.037 850.83 936.77C869.141 937.99 904.541 950.93 904.297 954.348C904.053 958.01 866.943 965.578 848.633 964.113ZM845.459 918.459C837.402 916.262 836.67 904.543 837.646 900.637C838.867 896.975 844.971 887.209 853.271 889.162C872.559 894.289 908.203 915.041 907.227 918.947C906.25 922.854 864.99 923.342 845.459 918.459ZM905.518 789.064C908.936 781.008 908.203 770.021 906.006 759.768C905.762 759.768 905.518 759.768 905.029 759.768C881.836 759.768 862.793 740.969 862.793 717.531C862.549 713.625 863.037 709.719 864.502 706.301C864.99 705.08 865.478 703.859 865.967 702.639C865.478 703.859 864.99 704.836 864.502 706.057C869.629 688.479 885.742 675.539 905.029 675.539C928.223 675.539 947.266 694.338 947.266 717.531C947.266 744.631 928.223 769.289 905.518 789.064ZM1480.22 717.775L1469.97 731.691C1469.97 731.691 1456.3 736.086 1459.72 716.555L1480.22 717.775ZM1411.13 716.555H1440.67C1440.67 716.555 1439.45 740.236 1460.94 742.434L1456.3 750.002C1456.3 750.002 1398.93 734.865 1411.13 716.555Z" fill="#034694"/>
<path d="M907.238 918.945C908.215 915.039 872.57 894.287 853.283 889.16C844.982 887.207 838.879 896.973 837.902 900.635C836.926 904.541 837.414 916.26 845.715 918.457C865.002 923.34 906.262 922.852 907.238 918.945ZM904.308 954.346C904.553 950.928 869.152 937.988 850.842 936.768C843.029 936.035 839.123 946.045 838.879 949.707C838.635 953.369 841.076 963.623 848.644 964.111C866.955 965.576 904.064 958.008 904.308 954.346ZM864.025 847.412V860.84C869.152 866.211 888.195 872.315 890.392 872.315V845.215C890.392 845.215 875.988 848.389 864.025 847.412ZM856.457 980.225C850.842 980.469 848.888 987.793 849.133 990.479C849.133 992.92 851.818 1000.24 857.189 1000C870.617 999.512 896.496 991.211 896.252 988.525C896.252 986.084 869.64 979.736 856.457 980.225ZM829.357 1339.36C807.385 1367.92 823.254 1393.8 823.254 1393.8C823.254 1374.02 845.715 1348.39 850.597 1343.51C850.597 1343.51 843.029 1339.36 829.357 1339.36ZM899.181 1399.66C895.763 1417.24 904.553 1434.08 919.689 1441.89C922.863 1443.6 926.281 1445.07 929.943 1445.8C931.408 1446.05 933.117 1446.29 934.582 1446.53C935.314 1446.53 935.803 1446.53 936.535 1446.53C936.535 1446.53 914.318 1425.78 923.351 1406.01C917.492 1402.1 908.703 1399.66 899.181 1399.66ZM859.142 820.557C825.939 804.199 802.258 763.672 802.258 716.065C802.258 665.527 828.869 622.803 865.246 608.887C810.558 621.094 771.984 669.678 776.623 724.609C780.773 770.996 814.709 808.106 859.142 820.557ZM1211.68 704.102C1246.84 697.266 1258.8 728.76 1258.8 739.99C1258.8 782.471 1225.6 799.561 1198.25 799.805C1325.45 799.561 1280.53 635.01 1211.68 704.102ZM1126.48 1069.58C1187.27 1069.58 1183.36 990.234 1170.18 977.051C1189.71 957.52 1229.75 867.92 1229.75 851.563C1229.75 851.563 1149.43 834.229 1162.37 778.565C1162.37 778.32 1162.37 778.32 1162.37 778.32L1161.14 778.076C1139.42 801.27 1152.6 849.365 1187.27 861.328C1187.27 861.328 1174.08 914.307 1140.88 947.754C1108.17 946.533 1062.02 942.139 1021.5 926.758C1084 959.961 1148.45 1010.25 1126.48 1069.58ZM889.172 688.232C904.797 687.012 918.713 698.242 919.933 713.135C921.154 728.027 909.68 741.455 893.81 742.676C878.185 743.897 864.269 732.666 863.049 717.773C863.049 740.967 881.847 759.766 905.041 759.766C905.529 759.766 905.773 759.766 906.262 759.766C908.215 770.264 908.947 781.006 905.529 789.307C928.478 769.287 947.277 744.629 947.277 717.773C947.277 694.336 928.478 675.537 905.041 675.537C885.754 675.537 869.396 688.721 864.513 706.299C868.176 696.533 877.453 689.209 889.172 688.232ZM1337.17 657.471C1309.58 629.883 1350.11 578.613 1365.25 578.613C1348.89 578.613 1278.09 625 1302.01 657.471C1315.44 657.471 1337.17 657.471 1337.17 657.471ZM982.922 1115.23C1004.65 1121.83 1026.62 1113.77 1031.75 1096.92C1036.88 1080.08 1023.2 1061.28 1001.23 1054.44C998.303 1053.71 995.373 1052.98 992.199 1052.49C1023.94 1070.56 1023.45 1106.69 982.922 1115.23ZM919.689 883.545C919.689 883.545 950.939 893.311 989.269 910.889C981.457 906.006 974.377 900.635 967.785 894.531C948.498 876.221 932.873 865.967 919.689 860.84V883.545ZM931.408 1285.4C996.838 1285.4 1222.67 1141.11 1222.67 1141.11C1167 1141.11 1144.3 1132.57 1144.3 1132.57C1131.85 1139.16 1105.97 1152.1 1050.79 1184.57C1006.12 1210.94 975.842 1244.38 935.07 1258.79C928.722 1261.23 923.84 1261.72 919.689 1261.47C910.168 1260.74 899.914 1259.28 890.392 1258.79V1051.27C890.392 1029.54 874.523 1021 864.025 1021V1262.21C846.203 1271.73 837.658 1283.2 832.775 1294.19C832.775 1294.19 799.084 1289.55 800.06 1352.05C800.06 1335.45 824.719 1306.64 841.564 1306.64C841.564 1285.4 903.576 1285.4 931.408 1285.4ZM1494.88 1619.38C1478.28 1619.38 1402.36 1622.56 1395.52 1556.4C1378.92 1552.73 1359.14 1552.25 1338.63 1555.18C1392.35 1657.47 1450.7 1658.2 1465.83 1659.18C1489.76 1685.55 1481.7 1774.9 1447.28 1773.19C1321.79 1766.6 1326.43 1842.77 1340.59 1858.4C1340.59 1800.78 1379.65 1787.35 1478.53 1787.35C1478.53 1787.11 1559.34 1683.84 1494.88 1619.38ZM1520.76 1866.46H1503.67C1502.21 1894.04 1529.55 1902.1 1529.55 1902.1C1520.76 1893.31 1514.42 1873.05 1520.76 1866.46ZM1361.83 1905.27C1354.75 1897.95 1348.64 1868.9 1359.14 1858.4H1340.59C1339.12 1888.18 1361.83 1905.27 1361.83 1905.27ZM1736.58 951.904C1736.58 864.258 1616.47 878.174 1610.36 945.557C1615.73 896.24 1696.06 888.916 1696.06 950.684C1696.06 1014.4 1546.4 1056.4 1546.4 1164.31C1546.4 1283.2 1665.29 1294.19 1653.09 1402.83C1651.13 1421.63 1631.12 1446.29 1601.82 1446.29C1539.32 1446.29 1505.87 1419.68 1486.34 1382.08C1506.12 1435.3 1541.27 1476.07 1614.03 1476.07C1689.46 1476.07 1696.54 1420.17 1696.54 1407.23C1696.54 1298.34 1582.78 1272.46 1582.78 1169.19C1582.78 1068.36 1736.58 1026.86 1736.58 951.904ZM850.353 1374.76C850.353 1408.45 864.025 1421.39 864.025 1421.39C864.025 1401.12 872.326 1384.03 876.965 1379.39C870.129 1372.31 850.353 1374.76 850.353 1374.76ZM1718.76 1189.45C1688.24 1189.45 1663.34 1212.65 1660.66 1242.43C1662.12 1235.35 1666.76 1228.27 1676.04 1221.44C1710.95 1195.56 1779.55 1247.8 1740.49 1301.76C1761.97 1293.21 1777.11 1272.22 1777.11 1247.8C1777.11 1215.58 1750.99 1189.45 1718.76 1189.45ZM1451.43 1866.46H1430.92C1428.97 1905.27 1453.87 1911.13 1453.87 1911.13C1443.13 1900.63 1441.42 1876.46 1451.43 1866.46ZM875.744 1659.91C872.57 1659.91 869.64 1660.4 866.711 1661.62C857.189 1668.95 851.086 1680.42 851.574 1692.87C854.748 1703.12 864.269 1710.69 875.744 1710.69C889.66 1710.69 901.135 1699.22 901.135 1685.3C901.135 1671.14 889.66 1659.91 875.744 1659.91ZM1018.81 1848.14H989.269C989.025 1895.26 1019.79 1903.81 1019.79 1903.81C1011 1895.26 1000.26 1866.7 1018.81 1848.14ZM1110.12 1549.56C1110.12 1441.41 1368.91 1428.71 1368.91 1339.84C1368.91 1303.71 1337.66 1287.35 1315.44 1287.35C1321.54 1293.7 1355.24 1365.97 1258.56 1365.97C1171.15 1395.26 980.969 1560.55 1113.05 1617.92C1113.05 1634.52 1110.85 1758.3 1031.51 1748.54C917.248 1734.38 888.683 1781.49 910.656 1834.72C910.656 1754.15 967.297 1769.04 1041.27 1769.04C1087.41 1769.04 1155.04 1710.45 1155.04 1612.06C1155.04 1612.06 1110.12 1594.73 1110.12 1549.56ZM890.392 1615.72V1398.93C875.744 1398.93 864.025 1421.39 864.025 1421.39V1606.45V1605.22L847.912 1605.47L848.156 1628.66C860.363 1628.66 890.392 1622.31 890.392 1615.72ZM934.826 1895.02C934.826 1895.02 911.877 1859.13 936.535 1834.72H910.656C900.402 1879.64 934.826 1895.02 934.826 1895.02ZM1094.25 1848.39C1094.25 1848.39 1082.04 1848.39 1072.77 1848.39C1072.77 1881.84 1111.34 1894.53 1111.34 1894.53C1097.91 1880.86 1088.39 1854.25 1094.25 1848.39Z" fill="#6A7AB5"/>
<path d="M2251.94 1555.91C2268.54 1662.11 2210.68 1608.16 2200.67 1602.05C2190.66 1595.95 2115.47 1570.31 2217.76 1534.91C2220.2 1539.06 2222.89 1542.97 2226.55 1546.14C2221.91 1560.55 2216.78 1576.91 2216.78 1576.91L2219.22 1578.37C2219.22 1578.37 2231.43 1565.92 2242.17 1554.93C2245.35 1555.91 2248.52 1555.67 2251.94 1555.91ZM2244.13 1469.24C2246.08 1455.08 2248.03 1440.92 2248.03 1440.92L2251.21 1440.68C2251.21 1440.68 2255.6 1454.35 2260 1467.78C2263.9 1468.26 2267.08 1470.22 2270.49 1471.44C2334.95 1380.37 2257.8 1404.3 2246.08 1405.28C2234.36 1406.25 2154.77 1396.24 2233.14 1474.12C2236.56 1471.93 2240.22 1470.22 2244.13 1469.24ZM2211.41 1516.36C2211.17 1514.89 2211.41 1513.92 2211.41 1512.7C2197.98 1506.11 2183.82 1499.27 2183.82 1499.27L2184.31 1496.1C2184.31 1496.1 2199.69 1496.1 2214.34 1496.1C2216.05 1491.7 2218.49 1487.31 2221.67 1483.64C2155.75 1395.51 2154.53 1475.83 2151.84 1487.31C2149.16 1498.78 2115.22 1571.05 2212.63 1521.24C2212.39 1519.53 2211.41 1518.07 2211.41 1516.36ZM2353.01 1469.73C2348.38 1458.74 2333.48 1379.64 2283.43 1478.52C2287.34 1481.94 2291.25 1484.87 2293.93 1489.26C2308.34 1486.57 2323.47 1484.13 2323.47 1484.13L2324.69 1486.82C2324.69 1486.82 2311.75 1496.1 2299.79 1504.88C2300.04 1506.11 2300.28 1507.33 2300.52 1508.55C2300.52 1510.26 2300.04 1511.96 2300.04 1513.92C2403.31 1545.41 2357.65 1480.23 2353.01 1469.73ZM2297.11 1528.32C2295.4 1532.47 2293.69 1536.87 2290.51 1540.53C2297.84 1553.96 2305.65 1569.09 2305.65 1569.09L2303.45 1571.05C2303.45 1571.05 2289.29 1560.79 2276.84 1551.76C2273.67 1553.47 2270.01 1553.96 2266.59 1554.93C2268.54 1662.11 2316.39 1598.88 2324.94 1591.31C2333.97 1583.5 2403.06 1545.17 2297.11 1528.32ZM2253.65 1486.09C2246.57 1486.57 2240.22 1489.99 2235.58 1495.36C2231.19 1500.73 2228.99 1507.57 2229.72 1514.65C2230.94 1529.05 2243.64 1540.04 2258.29 1538.58C2265.37 1538.09 2271.72 1534.67 2276.35 1529.3C2280.75 1523.93 2282.95 1517.09 2282.21 1510.01C2280.99 1495.36 2268.05 1484.62 2253.65 1486.09ZM212.633 1513.67C212.389 1511.96 211.9 1510.26 211.9 1508.55C212.145 1507.33 212.389 1506.11 212.633 1504.88C200.67 1496.1 187.975 1486.82 187.975 1486.82L188.951 1484.13C188.951 1484.13 204.332 1486.57 218.492 1489.26C221.178 1484.87 225.084 1481.69 228.99 1478.52C179.186 1379.64 164.049 1458.74 159.41 1469.73C154.771 1480.23 108.873 1545.41 212.633 1513.67ZM252.428 1467.78C256.822 1454.35 261.217 1440.43 261.217 1440.43L264.391 1440.68C264.391 1440.68 266.344 1455.08 268.297 1469.24C272.203 1470.22 275.865 1471.93 279.283 1474.12C357.652 1396.24 278.063 1406.25 266.344 1405.28C254.625 1404.3 177.232 1380.37 241.93 1471.44C245.348 1470.22 248.521 1468.26 252.428 1467.78ZM294.664 1534.91C292.223 1539.06 289.537 1542.97 285.875 1546.14C290.514 1560.55 295.885 1576.91 295.885 1576.91L293.199 1578.37C293.199 1578.37 280.992 1565.92 270.25 1554.93C267.32 1555.91 263.902 1555.67 260.484 1556.15C243.883 1662.36 301.744 1608.16 311.754 1602.3C321.764 1595.95 397.203 1570.31 294.664 1534.91ZM235.582 1551.76C223.131 1560.79 209.215 1571.05 209.215 1571.05L206.773 1569.09C206.773 1569.09 214.83 1553.96 221.91 1540.53C218.98 1536.87 217.027 1532.47 215.318 1528.32C109.117 1545.17 178.697 1583.5 187.486 1591.31C196.275 1598.88 243.883 1662.11 245.836 1554.93C242.418 1553.96 238.756 1553.47 235.582 1551.76ZM360.582 1487.06C357.896 1475.59 356.676 1395.51 290.758 1483.4C293.932 1487.31 296.373 1491.46 298.082 1496.1C312.73 1496.1 328.111 1496.1 328.111 1496.1L328.844 1499.03C328.844 1499.03 314.439 1506.11 301.012 1512.45C301.012 1513.67 301.256 1514.89 301.256 1516.12C301.012 1517.82 300.035 1519.29 299.791 1521C397.203 1571.05 363.268 1498.54 360.582 1487.06ZM276.842 1495.36C272.203 1489.99 265.855 1486.57 258.775 1486.09C244.371 1484.87 231.432 1495.61 230.211 1510.01C229.479 1517.09 231.676 1523.93 236.314 1529.3C240.709 1534.67 247.057 1538.09 254.137 1538.82C268.785 1540.04 281.725 1529.3 282.945 1514.65C283.434 1507.57 281.48 1500.73 276.842 1495.36ZM301.256 958.742C300.523 959.963 289.293 983.889 285.875 991.457C227.525 955.324 199.449 938.723 170.885 928.225C177.721 918.459 186.021 909.67 195.543 902.834C207.994 904.055 218.736 907.228 229.723 912.844C232.408 914.064 234.85 915.529 237.535 916.994C244.615 921.145 251.939 925.783 260.24 931.398C262.682 933.107 265.123 934.816 267.809 936.525C268.297 937.014 286.852 949.221 296.373 955.568C298.326 956.789 300.279 958.01 301.256 958.742ZM274.156 1020.51C216.783 1006.59 172.594 984.377 156.236 961.916C158.434 952.639 161.852 943.85 166.246 935.793C195.055 946.047 222.887 962.404 282.701 999.514C280.504 1004.64 275.377 1017.58 274.156 1020.51ZM267.809 926.027C259.264 920.412 251.695 915.285 244.127 910.891C264.635 894.533 290.27 895.266 308.824 898.928C319.078 905.275 327.867 913.576 335.191 923.098C315.66 916.506 290.27 912.844 267.809 926.027ZM178.453 1033.21C168.688 1026.37 160.875 1017.82 155.748 1007.08C153.307 996.096 152.818 984.621 154.283 973.146C177.477 998.293 226.305 1017.58 270.982 1028.81C267.32 1037.84 257.555 1061.53 257.311 1062.75C255.357 1062.26 229.479 1055.42 218.248 1051.76C215.074 1050.78 211.9 1049.81 208.971 1048.59C201.402 1045.9 194.322 1042.73 187.73 1039.06C184.313 1037.11 181.383 1035.16 178.453 1033.21ZM258.775 1072.02C258.775 1072.02 265.123 1079.35 272.203 1084.96C262.437 1086.67 251.939 1086.92 241.686 1085.45C233.873 1079.59 226.549 1071.78 221.91 1062.01C231.432 1064.94 240.709 1067.38 249.254 1069.58L258.775 1072.02ZM352.037 955.568C347.154 954.348 341.783 953.371 335.436 952.639C332.75 952.394 329.82 952.395 326.646 952.15C321.031 952.15 314.928 952.394 308.092 952.883L275.865 931.643C299.303 920.168 326.158 927.736 343.736 935.549C347.154 941.896 349.84 948.732 352.037 955.568ZM335.436 961.428C343.004 962.16 349.352 963.625 354.479 965.09C356.92 977.297 357.164 989.748 354.967 1002.69C348.375 1040.29 321.764 1069.09 288.072 1081.06C309.557 1055.42 334.703 1014.41 335.436 961.428ZM236.07 906.496C226.549 901.369 217.027 897.707 206.773 895.754C226.305 885.256 249.254 880.861 272.691 885.012C277.086 885.744 281.236 886.965 285.387 888.43C269.029 888.674 251.207 893.068 236.07 906.496ZM309.313 961.428C315.66 960.939 321.52 960.695 326.891 960.939C326.158 1014.16 299.791 1054.69 278.551 1078.86C273.912 1075.44 269.029 1071.29 265.123 1066.16L279.527 1030.76L282.701 1022.71C282.701 1022.71 288.316 1008.79 290.025 1004.15C291.246 1001.47 292.223 999.025 293.443 996.096C297.105 987.307 301.744 977.541 309.313 961.428ZM211.168 1058.35C214.098 1067.63 219.225 1075.44 224.84 1081.79C216.051 1079.1 207.75 1075.2 199.938 1070.56C196.52 1064.46 192.857 1057.62 190.416 1050.05C197.008 1053.22 204.088 1055.91 211.168 1058.35ZM179.918 1044.19C180.894 1048.83 182.359 1053.22 183.824 1057.62C176.988 1050.78 171.129 1042.97 166.49 1034.67C170.641 1038.09 175.035 1041.26 179.918 1044.19ZM2198.72 958.742C2199.69 958.01 2201.4 956.789 2203.6 955.324C2213.12 949.221 2231.68 936.77 2232.16 936.525C2234.85 934.816 2237.29 933.107 2239.73 931.398C2248.03 925.783 2255.36 920.9 2262.44 916.994C2265.12 915.529 2267.56 914.064 2270.25 912.844C2281.24 907.228 2291.98 903.811 2304.43 902.834C2313.95 909.67 2322.25 918.215 2329.09 928.225C2300.28 938.723 2272.45 955.324 2213.85 991.457C2210.44 983.889 2199.45 959.963 2198.72 958.742ZM2225.57 1020.51C2224.6 1017.58 2219.22 1004.64 2217.27 999.514C2277.09 962.404 2304.92 946.047 2333.73 935.793C2338.12 943.85 2341.54 952.639 2343.74 961.916C2327.13 984.377 2283.19 1006.59 2225.57 1020.51ZM2232.16 926.027C2209.7 912.844 2184.31 916.506 2164.54 923.098C2171.86 913.576 2180.89 905.275 2191.15 898.928C2209.7 895.266 2235.34 894.777 2255.85 910.891C2248.28 915.285 2240.71 920.412 2232.16 926.027ZM2321.52 1033.21C2318.59 1035.16 2315.42 1037.11 2312.24 1039.06C2305.65 1042.73 2298.57 1045.9 2291 1048.59C2288.07 1049.81 2284.65 1050.78 2281.48 1051.76C2270.25 1055.42 2244.62 1062.26 2242.66 1062.75C2242.17 1061.53 2232.65 1037.84 2228.99 1028.81C2273.67 1017.58 2322.25 998.293 2345.69 973.146C2347.15 984.621 2346.42 996.096 2343.98 1007.08C2339.1 1017.82 2331.29 1026.37 2321.52 1033.21ZM2241.2 1072.02L2250.47 1069.58C2259.02 1067.38 2268.54 1064.94 2278.06 1062.01C2273.18 1071.78 2266.1 1079.59 2258.29 1085.45C2247.79 1086.92 2237.54 1086.67 2227.77 1084.96C2234.85 1079.35 2241.2 1072.02 2241.2 1072.02ZM2147.94 955.568C2149.89 948.732 2152.82 941.896 2156.24 935.793C2173.81 927.98 2200.67 920.168 2224.11 931.643L2191.64 952.883C2185.05 952.394 2178.7 952.15 2173.08 952.395C2170.15 952.395 2167.22 952.394 2164.29 952.883C2158.19 953.371 2152.82 954.348 2147.94 955.568ZM2164.54 961.428C2165.27 1014.41 2190.42 1055.42 2211.9 1081.06C2178.21 1069.34 2151.6 1040.29 2145.01 1002.69C2142.81 989.748 2143.05 977.297 2145.49 965.09C2150.62 963.625 2156.97 962.16 2164.54 961.428ZM2263.9 906.496C2248.77 893.068 2230.94 888.674 2214.59 888.186C2218.74 886.965 2222.89 885.744 2227.28 885.012C2250.72 880.861 2273.67 885.256 2293.2 895.754C2282.95 897.707 2273.42 901.369 2263.9 906.496ZM2190.66 961.428C2198.23 977.541 2202.62 987.307 2206.53 996.096C2207.75 998.781 2208.73 1001.47 2209.95 1004.15C2211.66 1008.79 2217.27 1022.71 2217.27 1022.71L2220.45 1030.76L2234.61 1066.16C2230.7 1071.29 2226.06 1075.44 2221.18 1078.86C2200.18 1054.69 2173.81 1014.16 2173.08 960.939C2178.45 960.695 2184.31 960.939 2190.66 961.428ZM2288.56 1058.35C2295.88 1055.91 2302.72 1053.22 2309.56 1050.05C2307.12 1057.62 2303.45 1064.46 2299.79 1070.56C2292.22 1075.2 2283.92 1079.1 2274.89 1081.79C2280.75 1075.44 2285.63 1067.87 2288.56 1058.35ZM2320.05 1044.19C2324.69 1041.26 2329.33 1038.09 2333.48 1034.67C2328.84 1042.97 2322.98 1050.78 2315.9 1057.62C2317.61 1053.22 2319.08 1048.83 2320.05 1044.19ZM1538.56 825.93C1542.71 820.314 1547.59 813.723 1552.48 806.887C1562.73 816.652 1579.82 822.023 1599.11 820.314C1624.25 817.873 1644.03 803.713 1647.45 786.867C1647.69 788.088 1647.94 789.064 1647.94 790.285C1650.87 822.756 1627.18 851.32 1594.71 854.494C1571.28 856.691 1549.79 844.973 1538.56 825.93Z" fill="#ED1C24"/>
</g>
<defs>
<clipPath id="clip0_290_1731">
<rect width="2500" height="2500" fill="white"/>
</clipPath>
</defs>
</svg>
