<?xml version="1.0" encoding="UTF-8"?>
<svg xmlns="http://www.w3.org/2000/svg" xmlns:xlink="http://www.w3.org/1999/xlink" width="48px" height="48px" viewBox="0 0 48 48" version="1.1">
<g id="surface1">
<path style=" stroke:none;fill-rule:nonzero;fill:rgb(85.882353%,63.137255%,6.666667%);fill-opacity:1;" d="M 44 24 C 44 35.046875 35.046875 44 24 44 C 12.953125 44 4 35.046875 4 24 C 4 12.953125 12.953125 4 24 4 C 35.046875 4 44 12.953125 44 24 "/>
<path style=" stroke:none;fill-rule:nonzero;fill:rgb(1.176471%,27.45098%,58.039216%);fill-opacity:1;" d="M 16.464844 38.203125 C 16.199219 38.070312 15.976562 38.414062 15.863281 38.632812 C 15.800781 38.757812 15.726562 38.945312 15.726562 39.101562 C 15.726562 39.214844 15.765625 39.3125 15.875 39.371094 C 15.945312 39.40625 16.007812 39.414062 16.074219 39.390625 C 16.210938 39.347656 16.359375 39.179688 16.480469 38.945312 C 16.597656 38.707031 16.644531 38.488281 16.597656 38.351562 C 16.578125 38.285156 16.535156 38.242188 16.464844 38.203125 Z M 20.394531 39.65625 C 20.367188 39.773438 20.355469 39.835938 20.328125 39.953125 C 20.359375 39.960938 20.378906 39.964844 20.378906 39.964844 C 20.539062 40 20.554688 39.917969 20.570312 39.859375 C 20.574219 39.839844 20.574219 39.820312 20.574219 39.804688 C 20.574219 39.777344 20.570312 39.753906 20.558594 39.738281 C 20.535156 39.703125 20.476562 39.675781 20.394531 39.65625 Z M 13.664062 37.246094 C 13.523438 37.445312 13.324219 37.804688 13.566406 37.976562 C 13.820312 38.15625 14.113281 37.804688 14.226562 37.644531 C 14.339844 37.484375 14.578125 37.09375 14.324219 36.910156 C 14.082031 36.738281 13.808594 37.046875 13.664062 37.246094 Z M 20.320312 40.46875 C 20.320312 40.46875 20.265625 40.460938 20.226562 40.449219 C 20.195312 40.59375 20.175781 40.6875 20.148438 40.828125 C 20.1875 40.839844 20.226562 40.847656 20.226562 40.847656 C 20.304688 40.863281 20.363281 40.859375 20.394531 40.839844 C 20.429688 40.820312 20.449219 40.757812 20.457031 40.714844 C 20.460938 40.699219 20.464844 40.679688 20.464844 40.652344 C 20.464844 40.585938 20.441406 40.496094 20.320312 40.46875 Z M 20.320312 40.46875 "/>
<path style=" stroke:none;fill-rule:nonzero;fill:rgb(1.176471%,27.45098%,58.039216%);fill-opacity:1;" d="M 24 4.667969 C 13.320312 4.667969 4.667969 13.320312 4.667969 24 C 4.667969 34.679688 13.320312 43.332031 24 43.332031 C 34.679688 43.332031 43.332031 34.675781 43.332031 24 C 43.332031 13.320312 34.675781 4.667969 24 4.667969 Z M 36.464844 9.632812 L 34.914062 14.199219 L 33.960938 13.367188 C 33.960938 13.367188 34.183594 12.71875 34.261719 12.488281 C 34.101562 12.347656 33.863281 12.140625 33.699219 12 C 33.484375 12.113281 32.886719 12.433594 32.886719 12.433594 L 32.191406 11.828125 L 35.816406 9.957031 Z M 31.269531 7.015625 L 33.53125 8.15625 L 33.171875 8.867188 C 33.171875 8.867188 32.300781 8.425781 31.984375 8.265625 C 31.875 8.484375 31.78125 8.664062 31.675781 8.882812 C 31.980469 9.039062 32.792969 9.449219 32.792969 9.449219 L 32.433594 10.160156 C 32.433594 10.160156 31.621094 9.746094 31.316406 9.59375 C 31.195312 9.832031 31.070312 10.074219 30.953125 10.3125 C 31.273438 10.472656 32.15625 10.921875 32.15625 10.921875 L 31.800781 11.628906 L 29.519531 10.480469 L 31.140625 7.273438 Z M 27.5625 8.347656 C 27.207031 8.09375 26.671875 7.710938 26.871094 6.910156 C 26.949219 6.597656 27.148438 6.328125 27.429688 6.160156 C 27.738281 5.976562 28.113281 5.925781 28.484375 6.019531 C 29.007812 6.148438 29.425781 6.566406 29.519531 7.058594 L 29.570312 7.308594 L 28.773438 7.578125 L 28.710938 7.257812 C 28.648438 6.964844 28.515625 6.894531 28.382812 6.859375 C 28.15625 6.804688 28.085938 7.011719 28.070312 7.078125 C 28.039062 7.203125 28.128906 7.292969 28.441406 7.523438 C 28.816406 7.796875 29.382812 8.214844 29.175781 9.046875 C 28.976562 9.832031 28.179688 10.136719 27.523438 9.972656 C 26.9375 9.824219 26.582031 9.515625 26.433594 9.023438 L 26.355469 8.769531 L 27.152344 8.445312 L 27.25 8.738281 C 27.332031 8.988281 27.414062 9.078125 27.605469 9.125 C 27.679688 9.144531 27.769531 9.128906 27.84375 9.085938 C 27.90625 9.046875 27.945312 8.992188 27.964844 8.925781 C 28.019531 8.707031 27.925781 8.605469 27.5625 8.347656 Z M 23.332031 5.832031 L 23.339844 5.539062 L 24.542969 5.566406 C 24.542969 5.566406 24.488281 8.132812 24.476562 8.605469 C 24.832031 8.613281 25.800781 8.636719 25.800781 8.636719 L 25.785156 9.476562 L 23.257812 9.421875 Z M 21.398438 5.714844 L 21.683594 5.65625 L 21.839844 6.433594 C 21.839844 6.433594 20.886719 6.628906 20.535156 6.699219 C 20.585938 6.9375 20.625 7.136719 20.675781 7.378906 C 21.011719 7.308594 21.902344 7.128906 21.902344 7.128906 L 22.058594 7.910156 C 22.058594 7.910156 21.167969 8.089844 20.832031 8.15625 C 20.882812 8.417969 20.9375 8.683594 20.988281 8.945312 C 21.339844 8.875 22.3125 8.679688 22.3125 8.679688 L 22.472656 9.457031 L 19.96875 9.964844 L 19.199219 6.15625 Z M 15.785156 7.488281 C 15.785156 7.488281 16.246094 8.464844 16.402344 8.800781 C 16.640625 8.691406 16.867188 8.582031 17.101562 8.472656 C 16.945312 8.136719 16.484375 7.15625 16.484375 7.15625 L 17.308594 6.769531 L 17.574219 6.644531 L 19.226562 10.15625 L 18.140625 10.671875 C 18.140625 10.671875 17.628906 9.585938 17.460938 9.234375 C 17.226562 9.34375 16.996094 9.453125 16.761719 9.5625 C 16.925781 9.914062 17.441406 11 17.441406 11 L 16.351562 11.515625 L 14.695312 8.003906 Z M 11.964844 9.902344 C 12.410156 9.511719 13.035156 9.367188 13.636719 9.515625 L 13.914062 9.585938 L 13.734375 10.359375 L 13.457031 10.304688 C 13.085938 10.230469 12.808594 10.222656 12.59375 10.410156 C 12.398438 10.585938 12.292969 10.769531 12.28125 10.980469 C 12.261719 11.269531 12.414062 11.609375 12.722656 11.960938 C 12.984375 12.261719 13.320312 12.453125 13.613281 12.472656 C 13.808594 12.484375 13.984375 12.425781 14.136719 12.289062 C 14.410156 12.050781 14.511719 11.683594 14.398438 11.332031 L 14.304688 11.042969 L 15.113281 10.824219 L 15.191406 11.101562 C 15.390625 11.832031 15.183594 12.488281 14.597656 13.003906 C 13.777344 13.71875 12.523438 13.628906 11.800781 12.804688 C 11.023438 11.914062 11.09375 10.667969 11.964844 9.902344 Z M 12.449219 36.566406 C 12.449219 36.566406 12.121094 36.253906 11.984375 36.121094 C 11.820312 36.292969 11.371094 36.765625 11.371094 36.765625 L 10.84375 36.261719 L 12.238281 34.796875 L 12.371094 34.65625 L 13.410156 35.648438 L 13.0625 36.015625 C 13.0625 36.015625 12.699219 35.667969 12.550781 35.527344 C 12.464844 35.617188 12.417969 35.664062 12.332031 35.757812 C 12.46875 35.886719 12.796875 36.199219 12.796875 36.199219 Z M 14.078125 38.578125 C 13.800781 38.625 13.511719 38.558594 13.273438 38.390625 C 13.035156 38.21875 12.878906 37.972656 12.832031 37.695312 C 12.78125 37.390625 12.859375 37.074219 13.050781 36.808594 C 13.238281 36.539062 13.511719 36.363281 13.8125 36.3125 C 14.09375 36.265625 14.378906 36.332031 14.617188 36.5 C 14.855469 36.667969 15.011719 36.917969 15.058594 37.199219 C 15.070312 37.257812 15.074219 37.320312 15.074219 37.382812 C 15.074219 37.625 14.996094 37.871094 14.84375 38.082031 C 14.652344 38.351562 14.382812 38.527344 14.078125 38.578125 Z M 17.15625 39.285156 C 17.007812 39.578125 16.765625 39.792969 16.472656 39.890625 C 16.203125 39.976562 15.910156 39.953125 15.648438 39.820312 C 15.390625 39.691406 15.195312 39.46875 15.109375 39.199219 C 15.011719 38.910156 15.042969 38.585938 15.191406 38.289062 C 15.488281 37.703125 16.136719 37.46875 16.695312 37.753906 C 17.253906 38.035156 17.453125 38.695312 17.15625 39.285156 Z M 19.125 39.339844 C 19.125 39.339844 18.863281 39.25 18.78125 39.21875 C 18.679688 39.507812 18.214844 40.835938 18.214844 40.835938 L 17.523438 40.59375 C 17.523438 40.59375 17.988281 39.265625 18.089844 38.976562 C 18.011719 38.949219 17.746094 38.859375 17.746094 38.859375 L 17.851562 38.5625 L 17.914062 38.382812 L 19.292969 38.863281 Z M 21.289062 39.996094 C 21.257812 40.148438 21.179688 40.269531 21.074219 40.351562 C 21.148438 40.457031 21.191406 40.574219 21.191406 40.710938 C 21.191406 40.757812 21.1875 40.808594 21.175781 40.855469 C 21.136719 41.042969 21.035156 41.195312 20.890625 41.289062 C 20.777344 41.363281 20.578125 41.4375 20.273438 41.375 L 19.324219 41.175781 L 19.742188 39.195312 L 19.78125 39.007812 L 20.714844 39.203125 C 21.15625 39.296875 21.300781 39.617188 21.300781 39.871094 C 21.300781 39.914062 21.296875 39.960938 21.289062 39.996094 Z M 22.742188 41.699219 C 22.742188 41.699219 22.628906 41.347656 22.585938 41.210938 C 22.464844 41.199219 22.34375 41.191406 22.21875 41.179688 C 22.15625 41.3125 22 41.644531 22 41.644531 L 21.421875 41.601562 L 22.4375 39.527344 L 22.652344 39.097656 L 23.511719 41.761719 Z M 24.011719 41.742188 L 23.917969 39.527344 L 24.648438 39.496094 C 24.648438 39.496094 24.707031 40.878906 24.71875 41.179688 C 24.929688 41.171875 25.453125 41.152344 25.453125 41.152344 L 25.476562 41.683594 Z M 26.082031 41.609375 L 25.738281 39.417969 L 26.273438 39.335938 L 26.464844 39.304688 C 26.464844 39.304688 26.675781 40.667969 26.722656 40.96875 C 26.933594 40.9375 27.449219 40.855469 27.449219 40.855469 L 27.53125 41.382812 Z M 31.4375 39.523438 C 31.410156 39.957031 31.175781 40.269531 30.757812 40.4375 C 30.183594 40.667969 29.523438 40.382812 29.292969 39.800781 C 29.167969 39.492188 29.167969 39.167969 29.289062 38.886719 C 29.410156 38.605469 29.636719 38.390625 29.929688 38.273438 C 30.242188 38.144531 30.609375 38.1875 30.902344 38.378906 L 31.0625 38.484375 L 30.792969 38.910156 L 30.628906 38.8125 C 30.453125 38.710938 30.324219 38.660156 30.1875 38.714844 C 30.0625 38.765625 29.980469 38.839844 29.9375 38.933594 C 29.878906 39.074219 29.894531 39.273438 29.988281 39.503906 C 30.066406 39.703125 30.199219 39.855469 30.34375 39.917969 C 30.433594 39.957031 30.527344 39.957031 30.625 39.917969 C 30.800781 39.847656 30.910156 39.6875 30.914062 39.496094 L 30.921875 39.292969 L 31.449219 39.332031 Z M 32.242188 39.710938 L 31.164062 37.777344 L 31.632812 37.511719 L 31.804688 37.417969 C 31.804688 37.417969 32.476562 38.625 32.625 38.890625 C 32.808594 38.785156 33.265625 38.53125 33.265625 38.53125 L 33.523438 38.996094 Z M 34.714844 38.226562 C 34.488281 38.394531 34.246094 38.46875 34.03125 38.433594 C 33.84375 38.40625 33.679688 38.300781 33.550781 38.121094 L 32.664062 36.917969 L 33.257812 36.484375 L 34.144531 37.695312 C 34.175781 37.738281 34.214844 37.761719 34.261719 37.769531 C 34.324219 37.78125 34.386719 37.753906 34.414062 37.734375 C 34.472656 37.691406 34.539062 37.625 34.546875 37.5625 C 34.550781 37.539062 34.550781 37.503906 34.511719 37.445312 L 33.613281 36.222656 L 33.886719 36.019531 L 34.046875 35.90625 L 34.964844 37.164062 C 35.167969 37.441406 35.175781 37.890625 34.714844 38.226562 Z M 36.664062 36.5 L 35.96875 37.175781 L 34.425781 35.582031 L 35.113281 34.921875 C 35.492188 34.550781 35.90625 34.699219 36.089844 34.890625 C 36.195312 35 36.25 35.128906 36.261719 35.265625 C 36.4375 35.257812 36.605469 35.320312 36.738281 35.460938 C 36.871094 35.597656 36.941406 35.769531 36.941406 35.941406 C 36.9375 36.074219 36.886719 36.285156 36.664062 36.5 Z M 24 37.777344 C 16.390625 37.777344 10.222656 31.609375 10.222656 24 C 10.222656 16.390625 16.390625 10.222656 24 10.222656 C 31.609375 10.222656 37.777344 16.390625 37.777344 24 C 37.777344 31.609375 31.609375 37.777344 24 37.777344 Z M 24 37.777344 "/>
<path style=" stroke:none;fill-rule:nonzero;fill:rgb(1.176471%,27.45098%,58.039216%);fill-opacity:1;" d="M 35.9375 35.957031 C 35.9375 35.957031 35.898438 35.992188 35.871094 36.023438 C 35.972656 36.128906 36.039062 36.195312 36.140625 36.300781 C 36.171875 36.269531 36.199219 36.246094 36.199219 36.246094 C 36.257812 36.1875 36.289062 36.136719 36.289062 36.101562 C 36.289062 36.097656 36.289062 36.097656 36.289062 36.097656 C 36.289062 36.058594 36.25 36.011719 36.21875 35.976562 C 36.183594 35.941406 36.0625 35.835938 35.9375 35.957031 Z M 35.304688 35.4375 C 35.390625 35.527344 35.433594 35.570312 35.519531 35.660156 C 35.539062 35.640625 35.554688 35.625 35.554688 35.625 C 35.605469 35.574219 35.625 35.535156 35.625 35.503906 C 35.625 35.460938 35.597656 35.433594 35.574219 35.410156 C 35.523438 35.355469 35.460938 35.296875 35.304688 35.4375 Z M 35.304688 35.4375 "/>
<path style=" stroke:none;fill-rule:nonzero;fill:rgb(100%,100%,100%);fill-opacity:1;" d="M 37.359375 24 C 37.359375 31.378906 31.378906 37.359375 24 37.359375 C 16.621094 37.359375 10.640625 31.378906 10.640625 24 C 10.640625 16.621094 16.621094 10.640625 24 10.640625 C 31.378906 10.640625 37.359375 16.621094 37.359375 24 M 12.546875 35.320312 C 12.605469 35.378906 13.058594 35.808594 13.058594 35.808594 L 13.207031 35.652344 L 12.378906 34.859375 L 12.34375 34.894531 L 11.050781 36.253906 L 11.367188 36.558594 C 11.367188 36.558594 11.921875 35.980469 11.980469 35.917969 C 12.039062 35.976562 12.445312 36.363281 12.445312 36.363281 L 12.59375 36.207031 C 12.59375 36.207031 12.1875 35.820312 12.128906 35.761719 C 12.179688 35.703125 12.492188 35.378906 12.546875 35.320312 M 14.53125 36.617188 C 14.738281 36.765625 14.875 36.980469 14.917969 37.222656 C 14.925781 37.273438 14.929688 37.328125 14.929688 37.382812 C 14.929688 37.59375 14.859375 37.808594 14.726562 38 C 14.558594 38.234375 14.320312 38.390625 14.054688 38.433594 C 13.8125 38.476562 13.566406 38.417969 13.359375 38.269531 C 13.152344 38.125 13.015625 37.910156 12.976562 37.667969 C 12.929688 37.40625 13 37.128906 13.167969 36.890625 C 13.335938 36.652344 13.574219 36.5 13.839844 36.453125 C 14.078125 36.414062 14.324219 36.472656 14.53125 36.617188 M 14.34375 37.730469 C 14.484375 37.535156 14.769531 37.050781 14.40625 36.792969 C 14.050781 36.539062 13.6875 36.964844 13.546875 37.160156 C 13.410156 37.359375 13.125 37.839844 13.484375 38.09375 C 13.84375 38.351562 14.207031 37.921875 14.34375 37.730469 Z M 16.628906 37.882812 C 17.117188 38.128906 17.285156 38.703125 17.027344 39.21875 C 16.894531 39.476562 16.683594 39.667969 16.429688 39.75 C 16.195312 39.828125 15.941406 39.804688 15.714844 39.691406 C 15.488281 39.578125 15.320312 39.386719 15.246094 39.15625 C 15.160156 38.898438 15.1875 38.617188 15.320312 38.359375 C 15.582031 37.84375 16.144531 37.636719 16.628906 37.882812 M 15.8125 39.5 C 15.914062 39.550781 16.019531 39.5625 16.121094 39.527344 C 16.355469 39.449219 16.527344 39.167969 16.609375 39.007812 C 16.691406 38.847656 16.816406 38.542969 16.738281 38.308594 C 16.703125 38.203125 16.636719 38.128906 16.53125 38.074219 C 16.136719 37.875 15.84375 38.351562 15.734375 38.566406 C 15.628906 38.78125 15.417969 39.300781 15.8125 39.5 Z M 17.988281 38.609375 L 17.933594 38.769531 C 17.933594 38.769531 18.207031 38.867188 18.277344 38.890625 C 18.246094 38.976562 17.710938 40.503906 17.710938 40.503906 L 18.125 40.648438 C 18.125 40.648438 18.660156 39.121094 18.691406 39.035156 C 18.761719 39.058594 19.035156 39.15625 19.035156 39.15625 L 19.109375 38.953125 L 18.003906 38.566406 L 17.988281 38.609375 M 20.683594 39.34375 C 21.058594 39.425781 21.15625 39.683594 21.15625 39.867188 C 21.15625 39.90625 21.152344 39.941406 21.144531 39.96875 C 21.109375 40.148438 20.988281 40.269531 20.824219 40.316406 C 20.96875 40.414062 21.046875 40.550781 21.046875 40.710938 C 21.046875 40.75 21.042969 40.785156 21.035156 40.828125 C 21.003906 40.976562 20.925781 41.09375 20.8125 41.167969 C 20.679688 41.253906 20.507812 41.277344 20.304688 41.234375 L 19.5 41.066406 L 19.886719 39.226562 L 19.894531 39.179688 L 20.683594 39.34375 M 20.410156 39.507812 C 20.410156 39.507812 20.332031 39.492188 20.28125 39.480469 C 20.265625 39.554688 20.175781 39.992188 20.15625 40.066406 C 20.226562 40.082031 20.347656 40.105469 20.347656 40.105469 C 20.460938 40.132812 20.660156 40.132812 20.710938 39.890625 C 20.71875 39.859375 20.722656 39.832031 20.722656 39.804688 C 20.722656 39.746094 20.707031 39.699219 20.679688 39.660156 C 20.632812 39.585938 20.542969 39.535156 20.410156 39.507812 Z M 20.347656 40.328125 C 20.347656 40.328125 20.179688 40.292969 20.113281 40.277344 C 20.097656 40.355469 19.988281 40.867188 19.972656 40.945312 C 20.050781 40.960938 20.195312 40.992188 20.195312 40.992188 C 20.316406 41.015625 20.410156 41.007812 20.476562 40.964844 C 20.535156 40.925781 20.578125 40.851562 20.601562 40.746094 C 20.601562 40.742188 20.609375 40.707031 20.609375 40.660156 C 20.609375 40.550781 20.574219 40.375 20.347656 40.328125 Z M 22.566406 39.589844 L 22.625 39.480469 L 23.308594 41.597656 L 22.851562 41.5625 C 22.851562 41.5625 22.710938 41.128906 22.695312 41.074219 C 22.640625 41.070312 22.1875 41.035156 22.132812 41.027344 C 22.105469 41.082031 21.914062 41.488281 21.914062 41.488281 L 21.648438 41.46875 L 22.566406 39.589844 M 22.464844 40.347656 C 22.402344 40.480469 22.277344 40.738281 22.234375 40.820312 C 22.324219 40.828125 22.53125 40.84375 22.625 40.851562 C 22.597656 40.761719 22.511719 40.488281 22.464844 40.347656 Z M 24.578125 41.332031 C 24.574219 41.242188 24.507812 39.648438 24.507812 39.648438 L 24.460938 39.652344 L 24.070312 39.667969 L 24.148438 41.59375 L 25.324219 41.542969 L 25.3125 41.304688 C 25.3125 41.300781 24.664062 41.328125 24.578125 41.332031 M 26.601562 41.136719 C 26.589844 41.046875 26.339844 39.472656 26.339844 39.472656 L 26.292969 39.480469 L 25.90625 39.539062 L 26.203125 41.441406 L 27.363281 41.261719 L 27.328125 41.023438 C 27.328125 41.023438 26.6875 41.121094 26.601562 41.136719 M 31.0625 39.5 C 31.054688 39.75 30.90625 39.960938 30.679688 40.054688 C 30.546875 40.105469 30.414062 40.105469 30.285156 40.050781 C 30.105469 39.976562 29.949219 39.796875 29.855469 39.558594 C 29.746094 39.289062 29.730469 39.054688 29.804688 38.878906 C 29.863281 38.742188 29.976562 38.644531 30.136719 38.578125 C 30.347656 38.496094 30.539062 38.59375 30.707031 38.6875 L 30.746094 38.714844 L 30.863281 38.527344 L 30.824219 38.5 C 30.570312 38.332031 30.253906 38.296875 29.984375 38.40625 C 29.726562 38.511719 29.527344 38.699219 29.425781 38.941406 C 29.316406 39.1875 29.320312 39.476562 29.425781 39.742188 C 29.628906 40.253906 30.203125 40.503906 30.703125 40.300781 C 31.066406 40.15625 31.265625 39.890625 31.292969 39.515625 L 31.296875 39.464844 L 31.0625 39.449219 L 31.0625 39.5 M 32.566406 39.089844 C 32.523438 39.007812 31.746094 37.617188 31.746094 37.617188 L 31.703125 37.640625 L 31.359375 37.835938 L 32.296875 39.515625 L 33.324219 38.941406 L 33.207031 38.730469 C 33.207031 38.730469 32.640625 39.046875 32.566406 39.089844 M 34.015625 36.109375 L 33.972656 36.140625 L 33.816406 36.253906 L 34.628906 37.359375 C 34.683594 37.433594 34.703125 37.511719 34.691406 37.582031 C 34.675781 37.714844 34.554688 37.816406 34.503906 37.851562 C 34.445312 37.894531 34.339844 37.929688 34.238281 37.914062 C 34.152344 37.902344 34.082031 37.855469 34.027344 37.78125 L 33.226562 36.6875 L 32.871094 36.949219 L 33.664062 38.035156 C 33.773438 38.183594 33.902344 38.269531 34.054688 38.292969 C 34.289062 38.328125 34.515625 38.195312 34.625 38.113281 C 35.011719 37.832031 35.015625 37.476562 34.847656 37.253906 L 34.015625 36.109375 M 36.632812 35.5625 C 36.738281 35.671875 36.796875 35.800781 36.792969 35.9375 C 36.789062 36.09375 36.714844 36.25 36.5625 36.394531 L 35.972656 36.96875 L 34.632812 35.585938 L 35.210938 35.023438 C 35.539062 34.703125 35.859375 34.859375 35.984375 34.988281 C 36.078125 35.082031 36.121094 35.195312 36.121094 35.308594 C 36.121094 35.355469 36.113281 35.402344 36.097656 35.449219 C 36.292969 35.375 36.484375 35.410156 36.632812 35.5625 M 35.769531 35.503906 C 35.769531 35.441406 35.742188 35.378906 35.675781 35.308594 C 35.53125 35.15625 35.371094 35.167969 35.191406 35.34375 C 35.191406 35.34375 35.132812 35.398438 35.097656 35.433594 C 35.152344 35.488281 35.460938 35.808594 35.515625 35.863281 C 35.566406 35.816406 35.65625 35.730469 35.65625 35.730469 C 35.707031 35.679688 35.769531 35.601562 35.769531 35.503906 Z M 36.136719 36.507812 C 36.183594 36.464844 36.300781 36.351562 36.300781 36.351562 C 36.386719 36.265625 36.433594 36.183594 36.433594 36.101562 C 36.433594 36.027344 36.398438 35.953125 36.324219 35.878906 C 36.3125 35.867188 36.074219 35.625 35.835938 35.851562 C 35.835938 35.851562 35.714844 35.972656 35.664062 36.019531 C 35.722656 36.074219 36.082031 36.449219 36.136719 36.507812 Z M 14.980469 11.0625 L 14.550781 11.175781 L 14.582031 11.273438 C 14.71875 11.699219 14.597656 12.144531 14.261719 12.4375 C 14.070312 12.605469 13.847656 12.683594 13.601562 12.667969 C 13.25 12.644531 12.878906 12.433594 12.578125 12.089844 C 12.234375 11.695312 12.066406 11.308594 12.089844 10.964844 C 12.105469 10.707031 12.234375 10.472656 12.46875 10.265625 C 12.773438 9.996094 13.160156 10.046875 13.496094 10.113281 L 13.589844 10.132812 L 13.683594 9.726562 L 13.589844 9.703125 C 13.050781 9.570312 12.492188 9.699219 12.09375 10.050781 C 11.304688 10.742188 11.242188 11.867188 11.949219 12.675781 C 12.601562 13.421875 13.730469 13.503906 14.472656 12.859375 C 15.007812 12.390625 15.1875 11.816406 15.003906 11.15625 L 14.980469 11.0625 M 17.390625 6.945312 L 16.742188 7.25 C 16.742188 7.25 17.289062 8.410156 17.359375 8.5625 C 17.222656 8.628906 16.449219 8.992188 16.308594 9.058594 C 16.238281 8.90625 15.691406 7.746094 15.691406 7.746094 L 14.953125 8.09375 L 16.445312 11.253906 L 17.183594 10.90625 C 17.183594 10.90625 16.578125 9.625 16.503906 9.46875 C 16.644531 9.402344 17.414062 9.039062 17.554688 8.976562 C 17.628906 9.128906 18.234375 10.414062 18.234375 10.414062 L 18.972656 10.066406 L 17.480469 6.902344 L 17.390625 6.945312 M 20.839844 9.175781 C 20.808594 9.023438 20.632812 8.15625 20.605469 8.003906 C 20.765625 7.972656 21.832031 7.757812 21.832031 7.757812 L 21.75 7.359375 C 21.75 7.359375 20.683594 7.574219 20.523438 7.605469 C 20.492188 7.457031 20.339844 6.695312 20.308594 6.546875 C 20.472656 6.515625 21.613281 6.285156 21.613281 6.285156 L 21.53125 5.882812 L 19.429688 6.308594 L 20.121094 9.734375 L 22.242188 9.304688 L 22.160156 8.90625 C 22.164062 8.90625 21.003906 9.140625 20.839844 9.175781 M 24.34375 5.753906 L 23.527344 5.738281 L 23.527344 5.832031 L 23.453125 9.230469 L 25.59375 9.277344 L 25.605469 8.820312 C 25.605469 8.820312 24.445312 8.796875 24.28125 8.792969 C 24.285156 8.613281 24.34375 5.753906 24.34375 5.753906 M 28.429688 6.671875 C 28.6875 6.738281 28.835938 6.910156 28.898438 7.21875 L 28.921875 7.324219 L 29.347656 7.179688 L 29.332031 7.097656 C 29.246094 6.675781 28.890625 6.320312 28.4375 6.207031 C 28.113281 6.125 27.792969 6.167969 27.53125 6.324219 C 27.292969 6.46875 27.125 6.691406 27.058594 6.957031 C 26.890625 7.625 27.328125 7.9375 27.675781 8.1875 C 28.027344 8.4375 28.242188 8.609375 28.152344 8.96875 C 28.117188 9.117188 28.019531 9.203125 27.941406 9.25 C 27.828125 9.320312 27.683594 9.339844 27.558594 9.308594 C 27.300781 9.246094 27.167969 9.105469 27.066406 8.796875 L 27.035156 8.699219 L 26.59375 8.878906 L 26.617188 8.964844 C 26.746094 9.386719 27.058594 9.652344 27.570312 9.78125 C 28.136719 9.921875 28.820312 9.667969 28.988281 8.996094 C 29.160156 8.289062 28.699219 7.949219 28.328125 7.675781 C 28.011719 7.441406 27.816406 7.285156 27.882812 7.027344 C 27.941406 6.796875 28.132812 6.597656 28.429688 6.671875 M 31.898438 8.007812 C 32.050781 8.082031 33.085938 8.605469 33.085938 8.605469 L 33.273438 8.242188 L 31.359375 7.273438 L 31.3125 7.359375 L 29.78125 10.394531 L 31.714844 11.371094 L 31.898438 11.007812 C 31.898438 11.007812 30.84375 10.476562 30.691406 10.398438 C 30.761719 10.261719 31.160156 9.472656 31.230469 9.335938 C 31.375 9.410156 32.347656 9.898438 32.347656 9.898438 L 32.53125 9.535156 C 32.53125 9.535156 31.558594 9.046875 31.414062 8.972656 C 31.480469 8.835938 31.832031 8.140625 31.898438 8.007812 M 35.90625 10.128906 L 36.128906 10.027344 L 34.824219 13.863281 L 34.1875 13.308594 C 34.1875 13.308594 34.453125 12.535156 34.488281 12.425781 C 34.40625 12.355469 33.8125 11.839844 33.730469 11.765625 C 33.628906 11.820312 32.914062 12.199219 32.914062 12.199219 L 32.539062 11.871094 L 35.90625 10.128906 M 34.628906 12.011719 C 34.6875 11.84375 34.839844 11.40625 34.933594 11.144531 C 34.683594 11.273438 34.277344 11.484375 34.117188 11.566406 C 34.246094 11.679688 34.5 11.898438 34.628906 12.011719 Z M 10.003906 27.816406 L 9.980469 27.746094 L 9.96875 27.671875 C 9.9375 27.421875 9.875 26.960938 9.515625 26.875 C 9.421875 26.855469 9.320312 26.863281 9.214844 26.910156 C 9.242188 26.800781 9.238281 26.699219 9.207031 26.605469 C 9.074219 26.261719 8.605469 26.265625 8.355469 26.269531 L 8.28125 26.269531 L 8.207031 26.257812 C 7.960938 26.210938 7.5 26.125 7.308594 26.441406 C 7.257812 26.527344 7.238281 26.625 7.246094 26.738281 C 7.152344 26.675781 7.054688 26.648438 6.957031 26.652344 C 6.589844 26.671875 6.449219 27.117188 6.375 27.359375 L 6.351562 27.429688 L 6.316406 27.496094 C 6.195312 27.71875 5.972656 28.128906 6.214844 28.40625 C 6.277344 28.480469 6.363281 28.527344 6.476562 28.554688 C 6.386719 28.628906 6.332031 28.710938 6.308594 28.804688 C 6.210938 29.160156 6.59375 29.433594 6.796875 29.578125 L 6.855469 29.621094 L 6.910156 29.675781 C 7.082031 29.859375 7.402344 30.199219 7.742188 30.054688 C 7.832031 30.015625 7.90625 29.949219 7.96875 29.851562 C 8.007812 29.957031 8.070312 30.035156 8.152344 30.089844 C 8.460938 30.289062 8.839844 30.011719 9.039062 29.863281 L 9.101562 29.820312 L 9.164062 29.785156 C 9.394531 29.675781 9.816406 29.476562 9.785156 29.109375 C 9.777344 29.011719 9.734375 28.921875 9.660156 28.835938 C 9.773438 28.828125 9.867188 28.792969 9.945312 28.730469 C 10.230469 28.5 10.082031 28.054688 10.003906 27.816406 M 41.882812 27.492188 L 41.847656 27.429688 L 41.824219 27.359375 C 41.75 27.117188 41.609375 26.671875 41.242188 26.652344 C 41.144531 26.648438 41.046875 26.675781 40.953125 26.734375 C 40.960938 26.621094 40.9375 26.523438 40.890625 26.441406 C 40.699219 26.125 40.238281 26.210938 39.992188 26.257812 L 39.917969 26.269531 L 39.84375 26.269531 C 39.59375 26.265625 39.125 26.261719 38.992188 26.605469 C 38.957031 26.699219 38.953125 26.796875 38.984375 26.90625 C 38.878906 26.863281 38.78125 26.851562 38.683594 26.875 C 38.324219 26.957031 38.261719 27.421875 38.230469 27.671875 L 38.21875 27.746094 L 38.199219 27.816406 C 38.117188 28.054688 37.96875 28.496094 38.253906 28.730469 C 38.332031 28.789062 38.425781 28.824219 38.539062 28.832031 C 38.464844 28.917969 38.421875 29.007812 38.414062 29.105469 C 38.382812 29.472656 38.804688 29.675781 39.03125 29.785156 L 39.097656 29.816406 L 39.160156 29.859375 C 39.363281 30.011719 39.738281 30.289062 40.046875 30.089844 C 40.128906 30.035156 40.191406 29.953125 40.230469 29.847656 C 40.292969 29.945312 40.367188 30.011719 40.457031 30.050781 C 40.796875 30.195312 41.117188 29.855469 41.289062 29.671875 L 41.34375 29.621094 L 41.402344 29.578125 C 41.605469 29.433594 41.988281 29.160156 41.890625 28.804688 C 41.867188 28.710938 41.8125 28.628906 41.722656 28.554688 C 41.832031 28.527344 41.921875 28.476562 41.984375 28.402344 C 42.226562 28.125 42.003906 27.714844 41.882812 27.492188 M 8.402344 17.941406 C 7.398438 17.761719 6.4375 18.4375 6.261719 19.4375 C 6.082031 20.441406 6.757812 21.402344 7.757812 21.578125 C 8.761719 21.757812 9.722656 21.085938 9.898438 20.082031 C 10.078125 19.078125 9.40625 18.117188 8.402344 17.941406 M 38.097656 20.082031 C 38.277344 21.085938 39.234375 21.757812 40.238281 21.578125 C 41.242188 21.402344 41.914062 20.441406 41.738281 19.4375 C 41.5625 18.4375 40.601562 17.761719 39.597656 17.941406 C 38.59375 18.117188 37.921875 19.078125 38.097656 20.082031 "/>
<path style=" stroke:none;fill-rule:nonzero;fill:rgb(81.960784%,82.745098%,83.137255%);fill-opacity:1;" d="M 29.195312 17.796875 C 29.378906 18.097656 29.722656 18.285156 30.097656 18.253906 C 30.613281 18.203125 30.996094 17.742188 30.949219 17.226562 C 30.945312 17.207031 30.941406 17.1875 30.941406 17.171875 C 30.882812 17.441406 30.566406 17.667969 30.164062 17.703125 C 29.859375 17.734375 29.585938 17.644531 29.421875 17.492188 C 29.34375 17.597656 29.265625 17.703125 29.195312 17.796875 Z M 29.195312 17.796875 "/>
<path style=" stroke:none;fill-rule:nonzero;fill:rgb(81.960784%,82.745098%,83.137255%);fill-opacity:1;" d="M 33.554688 23.476562 C 33.277344 22.742188 32.328125 22.425781 31.429688 22.765625 C 31.054688 22.90625 30.746094 23.140625 30.539062 23.421875 C 31.132812 21.726562 33.550781 21.367188 33.550781 19.789062 C 33.550781 17.148438 29.796875 17.886719 30.34375 19.789062 C 30.34375 18.925781 31.71875 18.769531 31.71875 19.789062 C 31.71875 20.8125 29.324219 21.480469 29.324219 23.207031 C 29.324219 25.109375 31.226562 25.285156 31.03125 27.027344 C 31 27.324219 30.679688 27.71875 30.210938 27.71875 C 27.296875 27.71875 28.335938 24.132812 27.320312 23.039062 L 27.371094 22.304688 C 27.960938 22.664062 29.523438 21.820312 28.492188 20.527344 C 28.492188 21.164062 27.175781 21.128906 27.175781 19.929688 C 27.175781 18.308594 28.6875 19.15625 28.761719 19.511719 C 28.691406 18.921875 28.664062 18.546875 28.761719 18.207031 C 27.941406 18.472656 27.867188 18 27.96875 17.816406 C 28.089844 17.605469 28.246094 17.359375 28.566406 17.359375 C 28.738281 17.359375 28.839844 17.382812 28.902344 17.425781 C 29.003906 17.492188 29.078125 17.335938 29.0625 17.484375 C 29.148438 17.351562 29.113281 17.515625 29.199219 17.382812 C 29.285156 17.25 29.402344 17.101562 29.605469 16.898438 L 29.597656 16.601562 L 29.835938 16.6875 L 30.0625 16.320312 C 29.816406 15.808594 29.480469 16.054688 29.234375 15.421875 C 29.027344 15.367188 25.816406 15.714844 25.910156 14.433594 C 25.648438 14.433594 25.027344 14.578125 25.414062 15.101562 C 25.113281 15.136719 24.898438 14.796875 24.449219 15.714844 C 25.011719 15.609375 24.722656 16.238281 24.722656 16.414062 C 24.722656 17.578125 23.175781 17.558594 23.175781 17.015625 C 22.804688 17.375 23.015625 18.167969 23.578125 18.363281 C 23.578125 18.363281 23.363281 19.210938 22.835938 19.746094 C 22.050781 19.714844 20.792969 19.578125 20.066406 18.890625 C 19.753906 18.597656 19.507812 18.4375 19.296875 18.351562 L 19.296875 17.96875 C 19.605469 17.816406 19.945312 17.550781 20.296875 17.101562 C 20.570312 16.765625 20.71875 16.335938 20.679688 15.878906 C 20.675781 15.824219 20.667969 15.769531 20.65625 15.71875 C 20.652344 15.699219 20.648438 15.683594 20.644531 15.667969 C 20.636719 15.628906 20.628906 15.59375 20.617188 15.558594 C 20.613281 15.539062 20.609375 15.523438 20.601562 15.507812 C 20.589844 15.46875 20.578125 15.433594 20.5625 15.398438 C 20.558594 15.386719 20.554688 15.371094 20.546875 15.355469 C 20.527344 15.308594 20.503906 15.265625 20.480469 15.222656 C 20.472656 15.203125 20.460938 15.1875 20.449219 15.171875 C 20.433594 15.144531 20.417969 15.117188 20.402344 15.09375 C 20.386719 15.070312 20.375 15.050781 20.359375 15.03125 C 20.34375 15.011719 20.328125 14.988281 20.3125 14.972656 C 20.296875 14.949219 20.277344 14.929688 20.261719 14.90625 C 20.25 14.894531 20.234375 14.878906 20.222656 14.867188 C 20.175781 14.816406 20.128906 14.769531 20.074219 14.722656 C 20.070312 14.71875 20.066406 14.714844 20.0625 14.710938 C 20.03125 14.6875 20.003906 14.664062 19.972656 14.640625 C 19.964844 14.632812 19.957031 14.628906 19.949219 14.621094 C 19.914062 14.597656 19.882812 14.578125 19.847656 14.554688 C 19.847656 14.554688 19.84375 14.554688 19.84375 14.550781 C 19.511719 14.351562 19.113281 14.242188 18.691406 14.277344 C 17.679688 14.359375 16.925781 15.207031 17.011719 16.171875 C 17.078125 16.921875 17.632812 17.519531 18.351562 17.710938 C 18.097656 17.851562 17.886719 17.933594 17.835938 17.933594 C 17.84375 17.9375 17.855469 17.945312 17.867188 17.953125 C 17.871094 17.953125 17.871094 17.957031 17.878906 17.957031 C 17.886719 17.964844 17.898438 17.972656 17.910156 17.976562 C 17.914062 17.980469 17.917969 17.980469 17.917969 17.980469 C 17.933594 17.988281 17.953125 18 17.972656 18.007812 C 17.972656 18.007812 17.976562 18.011719 17.980469 18.011719 C 17.996094 18.019531 18.015625 18.027344 18.03125 18.035156 C 18.035156 18.035156 18.042969 18.039062 18.046875 18.039062 C 18.09375 18.058594 18.140625 18.074219 18.195312 18.09375 C 18.203125 18.09375 18.210938 18.097656 18.21875 18.097656 C 18.242188 18.105469 18.261719 18.109375 18.285156 18.113281 C 18.292969 18.113281 18.300781 18.117188 18.308594 18.117188 C 18.339844 18.125 18.367188 18.128906 18.398438 18.132812 C 18.402344 18.132812 18.402344 18.132812 18.40625 18.132812 L 18.40625 18.351562 C 18.394531 18.355469 18.386719 18.355469 18.375 18.355469 C 18.046875 18.410156 17.832031 18.511719 17.734375 18.804688 C 17.636719 19.101562 17.738281 19.207031 17.890625 19.414062 C 17.761719 19.648438 17.417969 19.734375 17.863281 20.25 C 17.832031 20.441406 17.875 20.753906 18.15625 20.847656 C 18.25 20.878906 18.324219 20.894531 18.40625 20.910156 L 18.40625 24.773438 C 18.125 24.921875 17.984375 25.109375 17.910156 25.28125 C 17.910156 25.28125 17.683594 24.777344 17.695312 25.777344 C 17.953125 25.574219 17.851562 26.007812 17.851562 26.007812 C 17.503906 26.460938 17.949219 26.4375 17.949219 26.4375 C 18.25 26.136719 18.1875 26.574219 18.1875 26.574219 C 18.1875 27.109375 18.40625 27.316406 18.40625 27.320312 L 18.40625 30.261719 L 18.152344 30.261719 L 18.152344 31.074219 L 18.601562 31.074219 C 18.351562 31.175781 18.183594 31.425781 18.207031 31.699219 C 18.238281 32.046875 18.558594 32.304688 18.921875 32.277344 C 19.285156 32.246094 19.558594 31.945312 19.527344 31.597656 C 19.507812 31.355469 19.347656 31.160156 19.132812 31.070312 L 19.546875 31.070312 L 19.542969 30.257812 L 19.296875 30.261719 L 19.296875 27.648438 C 19.347656 27.679688 19.402344 27.695312 19.464844 27.710938 C 19.488281 27.714844 19.511719 27.71875 19.535156 27.71875 C 19.546875 27.722656 19.558594 27.722656 19.566406 27.722656 C 19.503906 27.378906 19.707031 27.152344 19.707031 27.152344 C 19.8125 26.992188 19.964844 26.867188 20.136719 26.78125 C 20.65625 26.523438 21.363281 26.589844 21.574219 27.011719 C 22.914062 26.65625 24.0625 25.3125 24.0625 25.3125 L 24.722656 26.433594 C 23.324219 26.902344 20.28125 29.546875 22.394531 30.464844 C 22.394531 30.730469 22.355469 32.710938 21.089844 32.550781 C 19.261719 32.328125 18.804688 33.082031 19.15625 33.933594 C 18.988281 34.648438 19.542969 34.898438 19.542969 34.898438 C 19.460938 34.484375 19.65625 34.140625 20.414062 34.144531 C 20.410156 34.902344 20.898438 35.039062 20.898438 35.039062 C 20.902344 34.390625 21.351562 34.152344 21.75 34.152344 C 21.746094 34.6875 22.367188 34.890625 22.367188 34.890625 C 22.367188 34.890625 22.210938 34.273438 22.910156 34.152344 C 24.683594 33.84375 23.019531 32.019531 25.714844 31.519531 C 25.714844 31.519531 24.371094 31.316406 24.371094 30.582031 C 24.371094 29.914062 25.585938 29.457031 26.003906 29.457031 C 26.863281 31.097656 27.792969 31.109375 28.039062 31.121094 C 28.417969 31.546875 28.289062 32.976562 27.742188 32.949219 C 25.734375 32.839844 25.808594 34.0625 26.03125 34.3125 C 26.007812 34.785156 26.375 35.058594 26.375 35.058594 C 26.375 34.550781 26.859375 34.410156 27.480469 34.441406 C 27.445312 35.0625 27.84375 35.15625 27.84375 35.15625 C 27.855469 34.53125 28.316406 34.425781 28.644531 34.441406 C 28.621094 34.878906 29.054688 35.007812 29.054688 35.007812 C 29.054688 35.007812 29.011719 34.453125 29.597656 34.453125 C 30.707031 34.453125 29.09375 32.074219 31.261719 29.722656 C 29.359375 30.601562 28.347656 28.402344 28.347656 27.980469 C 29.324219 29.125 32.492188 29.351562 32.492188 27.398438 C 32.492188 25.53125 30.441406 24.835938 31.402344 24.121094 C 31.960938 23.703125 33.058594 24.542969 32.429688 25.410156 C 33.328125 25.078125 33.828125 24.207031 33.554688 23.476562 Z M 21.394531 23.535156 C 20.675781 23.957031 20.195312 24.488281 19.542969 24.722656 C 19.441406 24.757812 19.363281 24.765625 19.296875 24.761719 L 19.296875 21.117188 C 19.46875 21.132812 19.917969 21.195312 20.441406 21.414062 C 20.964844 21.695312 20.964844 22.285156 20.308594 22.425781 C 20.722656 23.21875 22.160156 22.828125 22.472656 22.183594 C 22.628906 22.167969 22.761719 22.441406 22.890625 22.703125 C 22.6875 22.808594 22.277344 23.015625 21.394531 23.535156 Z M 27.683594 15.484375 L 27.519531 15.707031 C 27.519531 15.707031 27.300781 15.777344 27.355469 15.464844 Z M 26.578125 15.464844 L 27.050781 15.464844 C 27.050781 15.464844 27.03125 15.84375 27.375 15.878906 L 27.300781 16 C 27.300781 16 26.382812 15.757812 26.578125 15.464844 Z M 26.578125 15.464844 "/>
<path style=" stroke:none;fill-rule:nonzero;fill:rgb(1.176471%,27.45098%,58.039216%);fill-opacity:1;" d="M 17.867188 30.585938 Z M 31.847656 24.828125 Z M 32.976562 22.894531 C 32.699219 22.164062 31.746094 21.84375 30.847656 22.183594 C 30.472656 22.324219 30.164062 22.5625 29.957031 22.839844 C 30.550781 21.144531 32.96875 20.785156 32.96875 19.210938 C 32.96875 16.566406 29.214844 17.308594 29.761719 19.210938 C 29.761719 19.183594 29.765625 19.152344 29.765625 19.128906 C 29.863281 18.050781 31.785156 17.832031 31.785156 19.234375 C 31.785156 20.429688 29.324219 21.09375 29.324219 22.707031 C 29.324219 24.363281 31.140625 24.777344 31.140625 26.519531 C 31.140625 26.726562 31.03125 27.617188 29.824219 27.617188 C 28.65625 27.617188 28.097656 26.96875 27.777344 26.117188 C 27.183594 24.96875 27.402344 23.179688 26.734375 22.464844 L 26.789062 21.726562 C 27.378906 22.089844 28.9375 21.242188 27.914062 19.953125 C 27.914062 20.589844 26.59375 20.550781 26.59375 19.355469 C 26.59375 17.734375 28.105469 18.578125 28.179688 18.9375 C 28.105469 18.347656 28.078125 17.972656 28.179688 17.632812 C 27.359375 17.894531 27.285156 17.425781 27.386719 17.242188 C 27.507812 17.027344 27.664062 16.78125 27.980469 16.78125 C 28.441406 16.78125 28.410156 16.953125 28.386719 17.1875 C 28.5625 16.925781 28.613281 16.722656 29.019531 16.324219 L 29.011719 16.023438 L 29.25 16.113281 L 29.480469 15.742188 C 29.234375 15.230469 28.898438 15.480469 28.652344 14.84375 C 28.445312 14.789062 25.746094 14.542969 25.839844 13.261719 C 25.601562 13.261719 24.953125 14.085938 25.390625 14.527344 C 25.390625 14.527344 25.042969 14.527344 24.832031 14.527344 C 24.53125 14.5625 23.832031 14.351562 23.382812 15.269531 C 24.488281 14.164062 25.207031 16.800781 23.171875 16.800781 C 22.871094 16.800781 22.613281 16.675781 22.597656 16.464844 C 22.394531 17.351562 23.675781 17.628906 23.675781 17.628906 C 23.675781 17.894531 23.03125 19.324219 22.722656 19.636719 C 22.929688 19.847656 22.996094 21.117188 22.023438 21.117188 C 22.375 20.167969 21.34375 19.363281 20.339844 18.832031 C 20.34375 18.832031 20.34375 18.832031 20.34375 18.832031 C 20.160156 18.765625 19.988281 18.679688 19.828125 18.578125 C 19.214844 18.296875 18.714844 18.140625 18.714844 18.140625 L 18.714844 17.394531 C 19.023438 17.242188 19.359375 16.976562 19.714844 16.527344 C 19.988281 16.191406 20.136719 15.761719 20.097656 15.304688 C 20.09375 15.25 20.085938 15.195312 20.074219 15.144531 C 20.070312 15.125 20.066406 15.109375 20.0625 15.09375 C 20.054688 15.058594 20.046875 15.019531 20.035156 14.984375 C 20.03125 14.96875 20.027344 14.949219 20.019531 14.933594 C 20.007812 14.894531 19.996094 14.859375 19.980469 14.824219 C 19.976562 14.8125 19.96875 14.796875 19.964844 14.78125 C 19.945312 14.738281 19.921875 14.691406 19.898438 14.648438 C 19.890625 14.628906 19.878906 14.613281 19.867188 14.597656 C 19.851562 14.570312 19.835938 14.542969 19.820312 14.519531 C 19.804688 14.496094 19.792969 14.476562 19.777344 14.457031 C 19.761719 14.4375 19.746094 14.414062 19.730469 14.398438 C 19.714844 14.375 19.695312 14.351562 19.679688 14.332031 C 19.664062 14.316406 19.652344 14.304688 19.640625 14.292969 C 19.59375 14.242188 19.546875 14.195312 19.492188 14.148438 C 19.488281 14.144531 19.484375 14.140625 19.476562 14.136719 C 19.449219 14.113281 19.417969 14.089844 19.386719 14.066406 C 19.378906 14.0625 19.371094 14.054688 19.363281 14.046875 C 19.332031 14.019531 19.300781 14 19.265625 13.980469 C 19.261719 13.976562 19.261719 13.976562 19.257812 13.976562 C 18.929688 13.773438 18.53125 13.667969 18.109375 13.699219 C 18.019531 13.707031 17.929688 13.722656 17.84375 13.742188 C 17.261719 13.96875 16.835938 14.648438 16.835938 15.457031 C 16.835938 16.21875 17.214844 16.871094 17.746094 17.128906 C 17.753906 17.132812 17.761719 17.132812 17.769531 17.136719 C 17.515625 17.277344 17.300781 17.359375 17.253906 17.359375 C 17.261719 17.363281 17.273438 17.367188 17.285156 17.378906 C 17.285156 17.378906 17.289062 17.378906 17.292969 17.382812 C 17.304688 17.386719 17.3125 17.394531 17.328125 17.402344 C 17.328125 17.402344 17.332031 17.402344 17.335938 17.40625 C 17.351562 17.414062 17.371094 17.421875 17.386719 17.433594 C 17.390625 17.433594 17.394531 17.433594 17.398438 17.4375 C 17.414062 17.441406 17.429688 17.449219 17.449219 17.457031 C 17.453125 17.460938 17.460938 17.460938 17.464844 17.464844 C 17.511719 17.480469 17.558594 17.5 17.613281 17.515625 C 17.621094 17.515625 17.628906 17.519531 17.636719 17.519531 C 17.65625 17.527344 17.679688 17.53125 17.703125 17.535156 C 17.710938 17.539062 17.71875 17.539062 17.726562 17.542969 C 17.757812 17.546875 17.785156 17.554688 17.816406 17.558594 C 17.820312 17.558594 17.824219 17.558594 17.824219 17.558594 C 18.019531 17.574219 18.246094 17.527344 18.246094 17.527344 L 18.246094 17.957031 C 18.210938 17.957031 17.910156 17.859375 17.824219 17.777344 C 17.816406 17.777344 17.804688 17.78125 17.792969 17.78125 C 17.464844 17.835938 17.25 17.9375 17.152344 18.230469 C 17.058594 18.523438 17.15625 18.632812 17.308594 18.839844 C 17.179688 19.070312 16.839844 19.160156 17.28125 19.675781 C 17.25 19.867188 17.292969 20.179688 17.574219 20.273438 C 17.667969 20.304688 17.746094 20.320312 17.824219 20.335938 C 17.992188 20.335938 18.246094 20.476562 18.246094 20.824219 L 18.246094 24.140625 C 18.402344 24.152344 18.566406 24.171875 18.71875 24.183594 L 18.71875 20.539062 C 18.890625 20.554688 19.339844 20.617188 19.863281 20.832031 C 19.871094 20.835938 19.875 20.839844 19.882812 20.84375 L 19.878906 20.84375 C 19.929688 20.847656 19.976562 20.859375 20.023438 20.871094 C 20.375 20.980469 20.59375 21.285156 20.511719 21.550781 C 20.429688 21.820312 20.078125 21.949219 19.730469 21.84375 C 20.144531 22.640625 21.585938 22.25 21.898438 21.601562 C 22.050781 21.589844 22.1875 21.863281 22.3125 22.121094 C 22.3125 22.121094 22.675781 22.261719 23.566406 22.261719 C 23.566406 22.261719 19.953125 24.570312 18.90625 24.570312 C 18.460938 24.570312 17.46875 24.570312 17.46875 24.90625 C 17.199219 24.90625 16.804688 25.367188 16.804688 25.632812 C 17.0625 25.433594 17.273438 25.433594 17.273438 25.433594 C 17.492188 25.433594 17.613281 25.5 17.613281 25.5 C 17.535156 25.578125 17.175781 25.984375 17.175781 26.300781 C 17.476562 26 17.609375 26 17.609375 26 C 17.609375 26 17.925781 25.960938 18.035156 26.070312 C 17.960938 26.148438 17.828125 26.421875 17.828125 26.746094 C 17.828125 26.746094 18.015625 26.382812 18.25 26.382812 L 18.25 29.851562 C 18.25 29.960938 17.769531 30.0625 17.574219 30.0625 L 17.574219 30.5 L 18.023438 30.5 C 17.96875 30.519531 17.917969 30.550781 17.871094 30.585938 C 17.917969 30.570312 17.964844 30.558594 18.015625 30.558594 C 18.238281 30.558594 18.421875 30.742188 18.421875 30.96875 C 18.421875 31.191406 18.238281 31.375 18.015625 31.375 C 17.832031 31.375 17.679688 31.257812 17.628906 31.089844 L 17.628906 31.128906 C 17.660156 31.472656 17.980469 31.730469 18.34375 31.703125 C 18.707031 31.675781 18.976562 31.367188 18.949219 31.023438 C 18.925781 30.785156 18.769531 30.589844 18.550781 30.5 L 18.964844 30.496094 L 18.964844 29.683594 L 18.71875 29.6875 L 18.71875 27.074219 C 18.476562 26.949219 18.335938 26.679688 18.390625 26.398438 C 18.542969 26.398438 18.683594 26.4375 18.773438 26.503906 C 18.632812 26.816406 18.988281 27.148438 18.988281 27.148438 C 18.921875 26.804688 19.125 26.578125 19.125 26.578125 C 19.230469 26.417969 19.382812 26.296875 19.554688 26.207031 C 20.074219 25.949219 20.78125 26.015625 20.992188 26.4375 C 22.332031 26.085938 23.484375 24.738281 23.484375 24.738281 L 24.140625 25.859375 C 25.6875 25.859375 25.148438 24.703125 25.050781 24.601562 C 25.40625 24.601562 25.90625 24.863281 25.90625 25.441406 C 25.90625 26.867188 21.765625 27.066406 21.765625 28.796875 C 21.765625 29.519531 22.484375 29.796875 22.484375 29.796875 C 22.484375 31.371094 21.402344 32.308594 20.664062 32.308594 C 19.480469 32.308594 18.574219 32.066406 18.574219 33.359375 L 18.988281 33.359375 C 18.597656 33.75 18.960938 34.324219 18.960938 34.324219 C 18.878906 33.910156 19.078125 33.570312 19.835938 33.574219 L 20.304688 33.574219 C 20.007812 33.871094 20.179688 34.328125 20.320312 34.464844 C 20.320312 33.816406 20.769531 33.578125 21.171875 33.582031 C 21.316406 33.582031 21.511719 33.582031 21.511719 33.582031 C 21.421875 33.671875 21.570312 34.097656 21.789062 34.316406 C 21.789062 34.316406 21.628906 33.703125 22.332031 33.582031 C 24.101562 33.273438 22.4375 31.449219 25.132812 30.945312 C 25.132812 30.945312 23.792969 30.742188 23.792969 30.007812 C 23.792969 29.34375 25.007812 28.882812 25.425781 28.882812 C 25.753906 28.835938 26.066406 28.847656 26.335938 28.90625 C 26.445312 29.964844 27.660156 29.914062 27.925781 29.914062 C 28.957031 30.945312 27.664062 32.597656 27.664062 32.597656 C 26.082031 32.597656 25.453125 32.816406 25.453125 33.738281 L 25.753906 33.738281 C 25.585938 33.90625 25.679688 34.371094 25.796875 34.488281 C 25.796875 33.976562 26.28125 33.835938 26.902344 33.867188 L 27.226562 33.867188 C 27.066406 34.027344 27.097656 34.414062 27.265625 34.582031 C 27.273438 33.957031 27.734375 33.851562 28.066406 33.867188 L 28.335938 33.867188 C 28.234375 33.972656 28.335938 34.296875 28.476562 34.4375 C 28.476562 34.4375 28.433594 33.882812 29.019531 33.878906 C 30.128906 33.878906 28.515625 31.5 30.683594 29.148438 C 28.78125 30.03125 27.765625 27.828125 27.765625 27.40625 C 28.746094 28.550781 31.914062 28.777344 31.914062 26.824219 C 31.914062 25.246094 30.453125 24.507812 30.574219 23.882812 C 30.617188 23.40625 31.015625 23.035156 31.503906 23.035156 C 32.019531 23.035156 32.4375 23.453125 32.4375 23.96875 C 32.4375 24.359375 32.195312 24.695312 31.851562 24.835938 C 32.746094 24.5 33.25 23.625 32.976562 22.894531 Z M 17.714844 20 C 17.628906 20.003906 17.585938 19.886719 17.585938 19.847656 C 17.582031 19.804688 17.613281 19.683594 17.703125 19.683594 C 17.914062 19.675781 18.339844 19.777344 18.339844 19.816406 C 18.34375 19.859375 17.929688 19.992188 17.714844 20 Z M 17.578125 19.425781 C 17.457031 19.417969 17.417969 19.253906 17.421875 19.195312 C 17.425781 19.136719 17.488281 18.976562 17.613281 18.988281 C 17.90625 19.007812 18.472656 19.214844 18.46875 19.269531 C 18.464844 19.328125 17.871094 19.449219 17.578125 19.425781 Z M 17.527344 18.695312 C 17.398438 18.660156 17.386719 18.472656 17.402344 18.410156 C 17.421875 18.351562 17.519531 18.195312 17.652344 18.226562 C 17.960938 18.308594 18.53125 18.640625 18.515625 18.703125 C 18.5 18.765625 17.839844 18.773438 17.527344 18.695312 Z M 18.488281 16.625 C 18.542969 16.496094 18.53125 16.320312 18.496094 16.15625 C 18.492188 16.15625 18.488281 16.15625 18.480469 16.15625 C 18.109375 16.15625 17.804688 15.855469 17.804688 15.480469 C 17.800781 15.417969 17.808594 15.355469 17.832031 15.300781 C 17.839844 15.28125 17.847656 15.261719 17.855469 15.242188 C 17.847656 15.261719 17.839844 15.277344 17.832031 15.296875 C 17.832031 15.296875 17.832031 15.300781 17.832031 15.300781 C 17.832031 15.300781 17.832031 15.296875 17.832031 15.296875 C 17.914062 15.015625 18.171875 14.808594 18.480469 14.808594 C 18.851562 14.808594 19.15625 15.109375 19.15625 15.480469 C 19.15625 15.914062 18.851562 16.308594 18.488281 16.625 Z M 27.683594 15.484375 L 27.519531 15.707031 C 27.519531 15.707031 27.300781 15.777344 27.355469 15.464844 Z M 26.578125 15.464844 L 27.050781 15.464844 C 27.050781 15.464844 27.03125 15.84375 27.375 15.878906 L 27.300781 16 C 27.300781 16 26.382812 15.757812 26.578125 15.464844 Z M 26.578125 15.464844 "/>
<path style=" stroke:none;fill-rule:nonzero;fill:rgb(41.568627%,47.843137%,70.980392%);fill-opacity:1;" d="M 18.515625 18.703125 C 18.53125 18.640625 17.960938 18.308594 17.652344 18.226562 C 17.519531 18.195312 17.421875 18.351562 17.40625 18.410156 C 17.390625 18.472656 17.398438 18.660156 17.53125 18.695312 C 17.839844 18.773438 18.5 18.765625 18.515625 18.703125 M 18.46875 19.269531 C 18.472656 19.214844 17.90625 19.007812 17.613281 18.988281 C 17.488281 18.976562 17.425781 19.136719 17.421875 19.195312 C 17.417969 19.253906 17.457031 19.417969 17.578125 19.425781 C 17.871094 19.449219 18.464844 19.328125 18.46875 19.269531 Z M 17.824219 17.558594 L 17.824219 17.773438 C 17.90625 17.859375 18.210938 17.957031 18.246094 17.957031 L 18.246094 17.523438 C 18.246094 17.523438 18.015625 17.574219 17.824219 17.558594 Z M 17.703125 19.683594 C 17.613281 19.6875 17.582031 19.804688 17.585938 19.847656 C 17.585938 19.886719 17.628906 20.003906 17.714844 20 C 17.929688 19.992188 18.34375 19.859375 18.339844 19.816406 C 18.339844 19.777344 17.914062 19.675781 17.703125 19.683594 Z M 17.269531 25.429688 C 16.917969 25.886719 17.171875 26.300781 17.171875 26.300781 C 17.171875 25.984375 17.53125 25.574219 17.609375 25.496094 C 17.609375 25.496094 17.488281 25.429688 17.269531 25.429688 Z M 18.386719 26.394531 C 18.332031 26.675781 18.472656 26.945312 18.714844 27.070312 C 18.765625 27.097656 18.820312 27.121094 18.878906 27.132812 C 18.902344 27.136719 18.929688 27.140625 18.953125 27.144531 C 18.964844 27.144531 18.972656 27.144531 18.984375 27.144531 C 18.984375 27.144531 18.628906 26.8125 18.773438 26.496094 C 18.679688 26.433594 18.539062 26.394531 18.386719 26.394531 Z M 17.746094 17.128906 C 17.214844 16.867188 16.835938 16.21875 16.835938 15.457031 C 16.835938 14.648438 17.261719 13.964844 17.84375 13.742188 C 16.96875 13.9375 16.351562 14.714844 16.425781 15.59375 C 16.492188 16.335938 17.035156 16.929688 17.746094 17.128906 Z M 23.386719 15.265625 C 23.949219 15.15625 24.140625 15.660156 24.140625 15.839844 C 24.140625 16.519531 23.609375 16.792969 23.171875 16.796875 C 25.207031 16.792969 24.488281 14.160156 23.386719 15.265625 Z M 22.023438 21.113281 C 22.996094 21.113281 22.933594 19.84375 22.722656 19.632812 C 23.035156 19.320312 23.675781 17.886719 23.675781 17.625 C 23.675781 17.625 22.390625 17.347656 22.597656 16.457031 C 22.597656 16.453125 22.597656 16.453125 22.597656 16.453125 L 22.578125 16.449219 C 22.230469 16.820312 22.441406 17.589844 22.996094 17.78125 C 22.996094 17.78125 22.785156 18.628906 22.253906 19.164062 C 21.730469 19.144531 20.992188 19.074219 20.34375 18.828125 C 21.34375 19.359375 22.375 20.164062 22.023438 21.113281 Z M 18.226562 15.011719 C 18.476562 14.992188 18.699219 15.171875 18.71875 15.410156 C 18.738281 15.648438 18.554688 15.863281 18.300781 15.882812 C 18.050781 15.902344 17.828125 15.722656 17.808594 15.484375 C 17.808594 15.855469 18.109375 16.15625 18.480469 16.15625 C 18.488281 16.15625 18.492188 16.15625 18.5 16.15625 C 18.53125 16.324219 18.542969 16.496094 18.488281 16.628906 C 18.855469 16.308594 19.15625 15.914062 19.15625 15.484375 C 19.15625 15.109375 18.855469 14.808594 18.480469 14.808594 C 18.171875 14.808594 17.910156 15.019531 17.832031 15.300781 C 17.890625 15.144531 18.039062 15.027344 18.226562 15.011719 Z M 25.394531 14.519531 C 24.953125 14.078125 25.601562 13.257812 25.84375 13.257812 C 25.582031 13.257812 24.449219 14 24.832031 14.519531 C 25.046875 14.519531 25.394531 14.519531 25.394531 14.519531 Z M 19.726562 21.84375 C 20.074219 21.949219 20.425781 21.820312 20.507812 21.550781 C 20.589844 21.28125 20.371094 20.980469 20.019531 20.871094 C 19.972656 20.859375 19.925781 20.847656 19.875 20.839844 C 20.382812 21.128906 20.375 21.707031 19.726562 21.84375 Z M 18.714844 18.136719 C 18.714844 18.136719 19.214844 18.292969 19.828125 18.574219 C 19.703125 18.496094 19.589844 18.410156 19.484375 18.3125 C 19.175781 18.019531 18.925781 17.855469 18.714844 17.773438 Z M 18.902344 24.566406 C 19.949219 24.566406 23.5625 22.257812 23.5625 22.257812 C 22.671875 22.257812 22.308594 22.121094 22.308594 22.121094 C 22.109375 22.226562 21.695312 22.433594 20.8125 22.953125 C 20.097656 23.375 19.613281 23.910156 18.960938 24.140625 C 18.859375 24.179688 18.78125 24.1875 18.714844 24.183594 C 18.5625 24.171875 18.398438 24.148438 18.246094 24.140625 L 18.246094 20.820312 C 18.246094 20.472656 17.992188 20.335938 17.824219 20.335938 L 17.824219 24.195312 C 17.539062 24.347656 17.402344 24.53125 17.324219 24.707031 C 17.324219 24.707031 16.785156 24.632812 16.800781 25.632812 C 16.800781 25.367188 17.195312 24.90625 17.464844 24.90625 C 17.464844 24.566406 18.457031 24.566406 18.902344 24.566406 Z M 27.917969 29.910156 C 27.652344 29.910156 26.4375 29.960938 26.328125 28.902344 C 26.0625 28.84375 25.746094 28.835938 25.417969 28.882812 C 26.277344 30.519531 27.210938 30.53125 27.453125 30.546875 C 27.835938 30.96875 27.707031 32.398438 27.15625 32.371094 C 25.148438 32.265625 25.222656 33.484375 25.449219 33.734375 C 25.449219 32.8125 26.074219 32.597656 27.65625 32.597656 C 27.65625 32.59375 28.949219 30.941406 27.917969 29.910156 Z M 28.332031 33.863281 L 28.058594 33.863281 C 28.035156 34.304688 28.472656 34.433594 28.472656 34.433594 C 28.332031 34.292969 28.230469 33.96875 28.332031 33.863281 Z M 25.789062 34.484375 C 25.675781 34.367188 25.578125 33.902344 25.746094 33.734375 L 25.449219 33.734375 C 25.425781 34.210938 25.789062 34.484375 25.789062 34.484375 Z M 31.785156 19.230469 C 31.785156 17.828125 29.863281 18.050781 29.765625 19.128906 C 29.851562 18.339844 31.136719 18.222656 31.136719 19.210938 C 31.136719 20.230469 28.742188 20.902344 28.742188 22.628906 C 28.742188 24.53125 30.644531 24.707031 30.449219 26.445312 C 30.417969 26.746094 30.097656 27.140625 29.628906 27.140625 C 28.628906 27.140625 28.09375 26.714844 27.78125 26.113281 C 28.097656 26.964844 28.660156 27.617188 29.824219 27.617188 C 31.03125 27.617188 31.144531 26.722656 31.144531 26.515625 C 31.144531 24.773438 29.324219 24.359375 29.324219 22.707031 C 29.324219 21.09375 31.785156 20.429688 31.785156 19.230469 Z M 17.605469 25.996094 C 17.605469 26.535156 17.824219 26.742188 17.824219 26.742188 C 17.824219 26.417969 17.957031 26.144531 18.03125 26.070312 C 17.921875 25.957031 17.605469 25.996094 17.605469 25.996094 Z M 31.5 23.03125 C 31.011719 23.03125 30.613281 23.402344 30.570312 23.878906 C 30.59375 23.765625 30.667969 23.652344 30.816406 23.542969 C 31.375 23.128906 32.472656 23.964844 31.847656 24.828125 C 32.191406 24.691406 32.433594 24.355469 32.433594 23.964844 C 32.433594 23.449219 32.015625 23.03125 31.5 23.03125 Z M 27.222656 33.863281 L 26.894531 33.863281 C 26.863281 34.484375 27.261719 34.578125 27.261719 34.578125 C 27.089844 34.410156 27.0625 34.023438 27.222656 33.863281 Z M 18.011719 30.558594 C 17.960938 30.558594 17.914062 30.566406 17.867188 30.585938 C 17.714844 30.703125 17.617188 30.886719 17.625 31.085938 C 17.675781 31.25 17.828125 31.371094 18.011719 31.371094 C 18.234375 31.371094 18.417969 31.1875 18.417969 30.964844 C 18.417969 30.738281 18.234375 30.558594 18.011719 30.558594 Z M 20.300781 33.570312 L 19.828125 33.570312 C 19.824219 34.324219 20.316406 34.460938 20.316406 34.460938 C 20.175781 34.324219 20.003906 33.867188 20.300781 33.570312 Z M 21.761719 28.792969 C 21.761719 27.0625 25.902344 26.859375 25.902344 25.4375 C 25.902344 24.859375 25.402344 24.597656 25.046875 24.597656 C 25.144531 24.699219 25.683594 25.855469 24.136719 25.855469 C 22.738281 26.324219 19.695312 28.96875 21.808594 29.886719 C 21.808594 30.152344 21.773438 32.132812 20.503906 31.976562 C 18.675781 31.75 18.21875 32.503906 18.570312 33.355469 C 18.570312 32.066406 19.476562 32.304688 20.660156 32.304688 C 21.398438 32.304688 22.480469 31.367188 22.480469 29.792969 C 22.480469 29.792969 21.761719 29.515625 21.761719 28.792969 Z M 18.246094 29.851562 L 18.246094 26.382812 C 18.011719 26.382812 17.824219 26.742188 17.824219 26.742188 L 17.824219 29.703125 L 17.824219 29.683594 L 17.566406 29.6875 L 17.570312 30.058594 C 17.765625 30.058594 18.246094 29.957031 18.246094 29.851562 Z M 18.957031 34.320312 C 18.957031 34.320312 18.589844 33.746094 18.984375 33.355469 L 18.570312 33.355469 C 18.40625 34.074219 18.957031 34.320312 18.957031 34.320312 Z M 21.507812 33.574219 C 21.507812 33.574219 21.3125 33.574219 21.164062 33.574219 C 21.164062 34.109375 21.78125 34.3125 21.78125 34.3125 C 21.566406 34.09375 21.414062 33.667969 21.507812 33.574219 Z M 21.507812 33.574219 "/>
<path style=" stroke:none;fill-rule:nonzero;fill:rgb(92.941176%,10.980392%,14.117647%);fill-opacity:1;" d="M 40.03125 28.894531 C 40.296875 30.59375 39.371094 29.730469 39.210938 29.632812 C 39.050781 29.535156 37.847656 29.125 39.484375 28.558594 C 39.523438 28.625 39.566406 28.6875 39.625 28.738281 C 39.550781 28.96875 39.46875 29.230469 39.46875 29.230469 L 39.507812 29.253906 C 39.507812 29.253906 39.703125 29.054688 39.875 28.878906 C 39.925781 28.894531 39.976562 28.890625 40.03125 28.894531 Z M 39.90625 27.507812 C 39.9375 27.28125 39.96875 27.054688 39.96875 27.054688 L 40.019531 27.050781 C 40.019531 27.050781 40.089844 27.269531 40.160156 27.484375 C 40.222656 27.492188 40.273438 27.523438 40.328125 27.542969 C 41.359375 26.085938 40.125 26.46875 39.9375 26.484375 C 39.75 26.5 38.476562 26.339844 39.730469 27.585938 C 39.785156 27.550781 39.84375 27.523438 39.90625 27.507812 Z M 39.382812 28.261719 C 39.378906 28.238281 39.382812 28.222656 39.382812 28.203125 C 39.167969 28.097656 38.941406 27.988281 38.941406 27.988281 L 38.949219 27.9375 C 38.949219 27.9375 39.195312 27.9375 39.429688 27.9375 C 39.457031 27.867188 39.496094 27.796875 39.546875 27.738281 C 38.492188 26.328125 38.472656 27.613281 38.429688 27.796875 C 38.386719 27.980469 37.84375 29.136719 39.402344 28.339844 C 39.398438 28.3125 39.382812 28.289062 39.382812 28.261719 Z M 41.648438 27.515625 C 41.574219 27.339844 41.335938 26.074219 40.535156 27.65625 C 40.597656 27.710938 40.660156 27.757812 40.703125 27.828125 C 40.933594 27.785156 41.175781 27.746094 41.175781 27.746094 L 41.195312 27.789062 C 41.195312 27.789062 40.988281 27.9375 40.796875 28.078125 C 40.800781 28.097656 40.804688 28.117188 40.808594 28.136719 C 40.808594 28.164062 40.800781 28.191406 40.800781 28.222656 C 42.453125 28.726562 41.722656 27.683594 41.648438 27.515625 Z M 40.753906 28.453125 C 40.726562 28.519531 40.699219 28.589844 40.648438 28.648438 C 40.765625 28.863281 40.890625 29.105469 40.890625 29.105469 L 40.855469 29.136719 C 40.855469 29.136719 40.628906 28.972656 40.429688 28.828125 C 40.378906 28.855469 40.320312 28.863281 40.265625 28.878906 C 40.296875 30.59375 41.0625 29.582031 41.199219 29.460938 C 41.34375 29.335938 42.449219 28.722656 40.753906 28.453125 Z M 40.058594 27.777344 C 39.945312 27.785156 39.84375 27.839844 39.769531 27.925781 C 39.699219 28.011719 39.664062 28.121094 39.675781 28.234375 C 39.695312 28.464844 39.898438 28.640625 40.132812 28.617188 C 40.246094 28.609375 40.347656 28.554688 40.421875 28.46875 C 40.492188 28.382812 40.527344 28.273438 40.515625 28.160156 C 40.496094 27.925781 40.289062 27.753906 40.058594 27.777344 M 7.402344 28.21875 C 7.398438 28.191406 7.390625 28.164062 7.390625 28.136719 C 7.394531 28.117188 7.398438 28.097656 7.402344 28.078125 C 7.210938 27.9375 7.007812 27.789062 7.007812 27.789062 L 7.023438 27.746094 C 7.023438 27.746094 7.269531 27.785156 7.496094 27.828125 C 7.539062 27.757812 7.601562 27.707031 7.664062 27.65625 C 6.867188 26.074219 6.625 27.339844 6.550781 27.515625 C 6.476562 27.683594 5.742188 28.726562 7.402344 28.21875 Z M 8.039062 27.484375 C 8.109375 27.269531 8.179688 27.046875 8.179688 27.046875 L 8.230469 27.050781 C 8.230469 27.050781 8.261719 27.28125 8.292969 27.507812 C 8.355469 27.523438 8.414062 27.550781 8.46875 27.585938 C 9.722656 26.339844 8.449219 26.5 8.261719 26.484375 C 8.074219 26.46875 6.835938 26.085938 7.871094 27.542969 C 7.925781 27.523438 7.976562 27.492188 8.039062 27.484375 Z M 8.714844 28.558594 C 8.675781 28.625 8.632812 28.6875 8.574219 28.738281 C 8.648438 28.96875 8.734375 29.230469 8.734375 29.230469 L 8.691406 29.253906 C 8.691406 29.253906 8.496094 29.054688 8.324219 28.878906 C 8.277344 28.894531 8.222656 28.890625 8.167969 28.898438 C 7.902344 30.597656 8.828125 29.730469 8.988281 29.636719 C 9.148438 29.535156 10.355469 29.125 8.714844 28.558594 Z M 7.769531 28.828125 C 7.570312 28.972656 7.347656 29.136719 7.347656 29.136719 L 7.308594 29.105469 C 7.308594 29.105469 7.4375 28.863281 7.550781 28.648438 C 7.503906 28.589844 7.472656 28.519531 7.445312 28.453125 C 5.746094 28.722656 6.859375 29.335938 7 29.460938 C 7.140625 29.582031 7.902344 30.59375 7.933594 28.878906 C 7.878906 28.863281 7.820312 28.855469 7.769531 28.828125 Z M 9.769531 27.792969 C 9.726562 27.609375 9.707031 26.328125 8.652344 27.734375 C 8.703125 27.796875 8.742188 27.863281 8.769531 27.9375 C 9.003906 27.9375 9.25 27.9375 9.25 27.9375 L 9.261719 27.984375 C 9.261719 27.984375 9.03125 28.097656 8.816406 28.199219 C 8.816406 28.21875 8.820312 28.238281 8.820312 28.257812 C 8.816406 28.285156 8.800781 28.308594 8.796875 28.335938 C 10.355469 29.136719 9.8125 27.976562 9.769531 27.792969 Z M 8.429688 27.925781 C 8.355469 27.839844 8.253906 27.785156 8.140625 27.777344 C 7.910156 27.757812 7.703125 27.929688 7.683594 28.160156 C 7.671875 28.273438 7.707031 28.382812 7.78125 28.46875 C 7.851562 28.554688 7.953125 28.609375 8.066406 28.621094 C 8.300781 28.640625 8.507812 28.46875 8.527344 28.234375 C 8.535156 28.121094 8.503906 28.011719 8.429688 27.925781 M 38.324219 20.035156 L 38.324219 20.035156 M 8.820312 19.339844 C 8.808594 19.359375 8.628906 19.742188 8.574219 19.863281 C 7.640625 19.285156 7.191406 19.019531 6.734375 18.851562 C 6.84375 18.695312 6.976562 18.554688 7.128906 18.445312 C 7.328125 18.464844 7.5 18.515625 7.675781 18.605469 C 7.71875 18.625 7.757812 18.648438 7.800781 18.671875 C 7.914062 18.738281 8.03125 18.8125 8.164062 18.902344 C 8.203125 18.929688 8.242188 18.957031 8.285156 18.984375 C 8.292969 18.992188 8.589844 19.1875 8.742188 19.289062 C 8.773438 19.308594 8.804688 19.328125 8.820312 19.339844 M 8.386719 20.328125 C 7.46875 20.105469 6.761719 19.75 6.5 19.390625 C 6.535156 19.242188 6.589844 19.101562 6.660156 18.972656 C 7.121094 19.136719 7.566406 19.398438 8.523438 19.992188 C 8.488281 20.074219 8.40625 20.28125 8.386719 20.328125 M 8.285156 18.816406 C 8.148438 18.726562 8.027344 18.644531 7.90625 18.574219 C 8.234375 18.3125 8.644531 18.324219 8.941406 18.382812 C 9.105469 18.484375 9.246094 18.617188 9.363281 18.769531 C 9.050781 18.664062 8.644531 18.605469 8.285156 18.816406 M 6.855469 20.53125 C 6.699219 20.421875 6.574219 20.285156 6.492188 20.113281 C 6.453125 19.9375 6.445312 19.753906 6.46875 19.570312 C 6.839844 19.972656 7.621094 20.28125 8.335938 20.460938 C 8.277344 20.605469 8.121094 20.984375 8.117188 21.003906 C 8.085938 20.996094 7.671875 20.886719 7.492188 20.828125 C 7.441406 20.8125 7.390625 20.796875 7.34375 20.777344 C 7.222656 20.734375 7.109375 20.683594 7.003906 20.625 C 6.949219 20.59375 6.902344 20.5625 6.855469 20.53125 M 8.140625 21.152344 C 8.140625 21.152344 8.242188 21.269531 8.355469 21.359375 C 8.199219 21.386719 8.03125 21.390625 7.867188 21.367188 C 7.742188 21.273438 7.625 21.148438 7.550781 20.992188 C 7.703125 21.039062 7.851562 21.078125 7.988281 21.113281 L 8.140625 21.152344 M 9.632812 19.289062 C 9.554688 19.269531 9.46875 19.253906 9.367188 19.242188 C 9.324219 19.238281 9.277344 19.238281 9.226562 19.234375 C 9.136719 19.234375 9.039062 19.238281 8.929688 19.246094 L 8.414062 18.90625 C 8.789062 18.722656 9.21875 18.84375 9.5 18.96875 C 9.554688 19.070312 9.597656 19.179688 9.632812 19.289062 M 9.367188 19.382812 C 9.488281 19.394531 9.589844 19.417969 9.671875 19.441406 C 9.710938 19.636719 9.714844 19.835938 9.679688 20.042969 C 9.574219 20.644531 9.148438 21.105469 8.609375 21.296875 C 8.953125 20.886719 9.355469 20.230469 9.367188 19.382812 M 7.777344 18.503906 C 7.625 18.421875 7.472656 18.363281 7.308594 18.332031 C 7.621094 18.164062 7.988281 18.09375 8.363281 18.160156 C 8.433594 18.171875 8.5 18.191406 8.566406 18.214844 C 8.304688 18.21875 8.019531 18.289062 7.777344 18.503906 M 8.949219 19.382812 C 9.050781 19.375 9.144531 19.371094 9.230469 19.375 C 9.21875 20.226562 8.796875 20.875 8.457031 21.261719 C 8.382812 21.207031 8.304688 21.140625 8.242188 21.058594 L 8.472656 20.492188 L 8.523438 20.363281 C 8.523438 20.363281 8.613281 20.140625 8.640625 20.066406 C 8.660156 20.023438 8.675781 19.984375 8.695312 19.9375 C 8.753906 19.796875 8.828125 19.640625 8.949219 19.382812 M 7.378906 20.933594 C 7.425781 21.082031 7.507812 21.207031 7.597656 21.308594 C 7.457031 21.265625 7.324219 21.203125 7.199219 21.128906 C 7.144531 21.03125 7.085938 20.921875 7.046875 20.800781 C 7.152344 20.851562 7.265625 20.894531 7.378906 20.933594 M 6.878906 20.707031 C 6.894531 20.78125 6.917969 20.851562 6.941406 20.921875 C 6.832031 20.8125 6.738281 20.6875 6.664062 20.554688 C 6.730469 20.609375 6.800781 20.660156 6.878906 20.707031 M 39.179688 19.339844 C 39.195312 19.328125 39.222656 19.308594 39.257812 19.285156 C 39.410156 19.1875 39.707031 18.988281 39.714844 18.984375 C 39.757812 18.957031 39.796875 18.929688 39.835938 18.902344 C 39.96875 18.8125 40.085938 18.734375 40.199219 18.671875 C 40.242188 18.648438 40.28125 18.625 40.324219 18.605469 C 40.5 18.515625 40.671875 18.460938 40.871094 18.445312 C 41.023438 18.554688 41.15625 18.691406 41.265625 18.851562 C 40.804688 19.019531 40.359375 19.285156 39.421875 19.863281 C 39.367188 19.742188 39.191406 19.359375 39.179688 19.339844 M 39.609375 20.328125 C 39.59375 20.28125 39.507812 20.074219 39.476562 19.992188 C 40.433594 19.398438 40.878906 19.136719 41.339844 18.972656 C 41.410156 19.101562 41.464844 19.242188 41.5 19.390625 C 41.234375 19.75 40.53125 20.105469 39.609375 20.328125 M 39.714844 18.816406 C 39.355469 18.605469 38.949219 18.664062 38.632812 18.769531 C 38.75 18.617188 38.894531 18.484375 39.058594 18.382812 C 39.355469 18.324219 39.765625 18.316406 40.09375 18.574219 C 39.972656 18.644531 39.851562 18.726562 39.714844 18.816406 M 41.144531 20.53125 C 41.097656 20.5625 41.046875 20.59375 40.996094 20.625 C 40.890625 20.683594 40.777344 20.734375 40.65625 20.777344 C 40.609375 20.796875 40.554688 20.8125 40.503906 20.828125 C 40.324219 20.886719 39.914062 20.996094 39.882812 21.003906 C 39.875 20.984375 39.722656 20.605469 39.664062 20.460938 C 40.378906 20.28125 41.15625 19.972656 41.53125 19.570312 C 41.554688 19.753906 41.542969 19.9375 41.503906 20.113281 C 41.425781 20.285156 41.300781 20.421875 41.144531 20.53125 M 39.859375 21.152344 L 40.007812 21.113281 C 40.144531 21.078125 40.296875 21.039062 40.449219 20.992188 C 40.371094 21.148438 40.257812 21.273438 40.132812 21.367188 C 39.964844 21.390625 39.800781 21.386719 39.644531 21.359375 C 39.757812 21.269531 39.859375 21.152344 39.859375 21.152344 M 38.367188 19.289062 C 38.398438 19.179688 38.445312 19.070312 38.5 18.972656 C 38.78125 18.847656 39.210938 18.722656 39.585938 18.90625 L 39.066406 19.246094 C 38.960938 19.238281 38.859375 19.234375 38.769531 19.238281 C 38.722656 19.238281 38.675781 19.238281 38.628906 19.246094 C 38.53125 19.253906 38.445312 19.269531 38.367188 19.289062 M 38.632812 19.382812 C 38.644531 20.230469 39.046875 20.886719 39.390625 21.296875 C 38.851562 21.109375 38.425781 20.644531 38.320312 20.042969 C 38.285156 19.835938 38.289062 19.636719 38.328125 19.441406 C 38.410156 19.417969 38.511719 19.394531 38.632812 19.382812 M 40.222656 18.503906 C 39.980469 18.289062 39.695312 18.21875 39.433594 18.210938 C 39.5 18.191406 39.566406 18.171875 39.636719 18.160156 C 40.011719 18.09375 40.378906 18.164062 40.691406 18.332031 C 40.527344 18.363281 40.375 18.421875 40.222656 18.503906 M 39.050781 19.382812 C 39.171875 19.640625 39.242188 19.796875 39.304688 19.9375 C 39.324219 19.980469 39.339844 20.023438 39.359375 20.066406 C 39.386719 20.140625 39.476562 20.363281 39.476562 20.363281 L 39.527344 20.492188 L 39.753906 21.058594 C 39.691406 21.140625 39.617188 21.207031 39.539062 21.261719 C 39.203125 20.875 38.78125 20.226562 38.769531 19.375 C 38.855469 19.371094 38.949219 19.375 39.050781 19.382812 M 40.617188 20.933594 C 40.734375 20.894531 40.84375 20.851562 40.953125 20.800781 C 40.914062 20.921875 40.855469 21.03125 40.796875 21.128906 C 40.675781 21.203125 40.542969 21.265625 40.398438 21.308594 C 40.492188 21.207031 40.570312 21.085938 40.617188 20.933594 M 41.121094 20.707031 C 41.195312 20.660156 41.269531 20.609375 41.335938 20.554688 C 41.261719 20.6875 41.167969 20.8125 41.054688 20.921875 C 41.082031 20.851562 41.105469 20.78125 41.121094 20.707031 M 28.617188 17.214844 C 28.683594 17.125 28.761719 17.019531 28.839844 16.910156 C 29.003906 17.066406 29.277344 17.152344 29.585938 17.125 C 29.988281 17.085938 30.304688 16.859375 30.359375 16.589844 C 30.363281 16.609375 30.367188 16.625 30.367188 16.644531 C 30.414062 17.164062 30.035156 17.621094 29.515625 17.671875 C 29.140625 17.707031 28.796875 17.519531 28.617188 17.214844 "/>
</g>
</svg>
