<svg width="2500" height="2500" viewBox="0 0 2500 2500" fill="none" xmlns="http://www.w3.org/2000/svg">
<path fill-rule="evenodd" clip-rule="evenodd" d="M457.939 259.999C457.939 259.999 1006.94 156.999 1311.94 165.499C1616.94 173.999 1946.94 259.999 1946.94 259.999C1946.94 259.999 2265.57 1517.71 1731.94 2016.5C1572.48 2165.55 1261.94 2319 1261.94 2319C262.939 2131.5 457.939 259.999 457.939 259.999Z" fill="white"/>
<path fill-rule="evenodd" clip-rule="evenodd" d="M1420.78 1856.11C1335.63 1917.41 1247.57 1936.56 1158.59 1913.59C1111.69 1902.08 1067.67 1878.13 1026.53 1841.75C981.551 1802.46 949.969 1757.44 932.758 1707.64C914.575 1656.88 912.655 1604.18 928.932 1548.63C944.249 1493.06 978.697 1436.53 1032.28 1380.98C1075.33 1336.94 1120.31 1303.4 1166.25 1280.42C1186.14 1270.38 1206.98 1262.35 1228.46 1256.45H1227.5L1143.28 1172.16L948.076 1360.85L848.559 1262.22L1224.63 875.228L1147.11 790.924L949.956 984.42L853.306 879.054L1310.71 412.57L1643.72 740.161L1558.56 829.237L1334.65 604.134L1237.04 704.714L1646.61 1120.43L1556.66 1203.76L1327.93 983.46L1229.38 1079.24L1404.48 1259.33C1447.54 1272.73 1486.79 1296.69 1523.13 1329.25C1564.3 1364.68 1593 1404.91 1610.22 1448.98C1646.6 1538.07 1635.1 1620.46 1575.77 1696.12L1467.66 1601.29C1486.79 1567.77 1493.49 1534.26 1487.75 1500.72C1481.03 1468.14 1465.74 1440.39 1439.9 1417.38C1399.72 1381.94 1351.88 1368.53 1299.23 1380.01C1245.65 1390.54 1194.93 1421.2 1146.12 1471.99C1103.06 1515.08 1077.23 1560.1 1065.74 1607.03C1051.39 1663.54 1064.78 1711.45 1108.8 1749.75C1171.95 1806.29 1240.86 1810.11 1313.59 1761.26L1420.78 1856.11Z" fill="#CF4037" stroke="black" stroke-width="26.614" stroke-miterlimit="2.613"/>
<path d="M448.545 268.889C716.474 207.581 1000.68 175.014 1266.72 175.974C1536.58 176.934 1788.24 211.407 2055.21 276.541V1481.56C1904.01 1866.62 1662.88 2176.96 1260.97 2335.04C846.626 2203.8 589.215 1876.21 438.986 1481.56L448.545 268.889Z" stroke="black" stroke-width="26.614" stroke-miterlimit="2.613"/>
<path fill-rule="evenodd" clip-rule="evenodd" d="M448.544 268.889L605.479 237.281L777.717 209.5L776.757 2042.89C643.752 1904.93 535.61 1709.53 438 1487.29L448.544 268.889ZM2051.39 274.621L1891.57 242.067L1714.56 215.246L1713.6 2039.04C1849.49 1900.15 1963.37 1715.28 2062.88 1493.04L2051.39 274.621Z" fill="black" stroke="black" stroke-width="0.0518791" stroke-miterlimit="2.613"/>
</svg>
