<?xml version="1.0" encoding="UTF-8"?>
<svg xmlns="http://www.w3.org/2000/svg" xmlns:xlink="http://www.w3.org/1999/xlink" width="48px" height="48px" viewBox="0 0 48 48" version="1.1">
<g id="surface1">
<path style=" stroke:none;fill-rule:nonzero;fill:rgb(100%,100%,100%);fill-opacity:1;" d="M 47.875 24.015625 C 47.875 37.1875 37.199219 47.867188 24.023438 47.867188 C 10.851562 47.867188 0.175781 37.1875 0.175781 24.015625 C 0.175781 10.84375 10.851562 0.167969 24.023438 0.167969 C 37.199219 0.167969 47.875 10.84375 47.875 24.015625 Z M 47.875 24.015625 "/>
<path style=" stroke:none;fill-rule:nonzero;fill:rgb(5.882353%,5.882353%,5.882353%);fill-opacity:1;" d="M 28.171875 19.621094 L 36.765625 16.136719 L 35.285156 18.519531 L 28.1875 20.167969 Z M 28.171875 20.554688 L 28.171875 20.9375 L 38.53125 20.9375 L 35.183594 19.105469 Z M 39.53125 16.972656 C 39.480469 16.90625 39.382812 16.855469 39.03125 16.757812 L 37.25 16.292969 C 37.25 16.273438 35.699219 18.824219 35.699219 18.824219 L 38.617188 20.371094 L 39.433594 17.503906 C 39.566406 17.136719 39.597656 17.054688 39.53125 16.972656 Z M 8.535156 17.503906 L 9.351562 20.371094 L 12.265625 18.824219 C 12.265625 18.824219 10.71875 16.269531 10.71875 16.289062 L 8.9375 16.753906 C 8.585938 16.855469 8.488281 16.90625 8.4375 16.972656 C 8.402344 17.054688 8.4375 17.136719 8.535156 17.503906 Z M 12.816406 19.085938 L 9.46875 20.902344 L 19.828125 20.902344 L 19.828125 20.535156 Z M 28.171875 21.320312 L 28.15625 21.6875 L 32.46875 22.386719 L 35.167969 21.300781 L 28.171875 21.300781 Z M 28.171875 22.035156 L 28.171875 22.417969 C 28.171875 22.4375 31.421875 24.183594 31.421875 24.183594 C 31.421875 24.183594 31.902344 24.449219 32.070312 24.5 C 32.28125 24.53125 32.492188 24.542969 32.703125 24.535156 L 33.984375 24.46875 C 33.984375 24.46875 32.21875 22.851562 32.253906 22.867188 C 32.285156 22.867188 28.171875 22.035156 28.171875 22.035156 Z M 36.417969 21.816406 L 35.851562 21.535156 L 32.921875 22.769531 L 34.484375 24.265625 L 36.417969 22.347656 C 36.550781 22.199219 36.652344 22.113281 36.636719 22.03125 C 36.617188 21.96875 36.566406 21.902344 36.417969 21.816406 Z M 11.402344 22.019531 C 11.402344 22.101562 11.484375 22.183594 11.617188 22.335938 L 13.550781 24.25 L 15.113281 22.753906 L 12.183594 21.523438 L 11.617188 21.804688 C 11.46875 21.902344 11.402344 21.96875 11.402344 22.019531 Z M 19.863281 19.621094 L 11.265625 16.136719 L 12.75 18.519531 L 19.84375 20.167969 Z M 12.867188 21.320312 L 15.5625 22.402344 L 19.878906 21.703125 L 19.859375 21.335938 L 12.867188 21.335938 Z M 15.796875 22.851562 C 15.847656 22.835938 14.0625 24.449219 14.0625 24.449219 L 15.347656 24.515625 C 15.347656 24.515625 15.730469 24.550781 15.980469 24.484375 C 16.128906 24.453125 16.628906 24.167969 16.628906 24.167969 C 16.628906 24.167969 19.875 22.417969 19.875 22.402344 L 19.875 22.019531 C 19.863281 22.035156 15.746094 22.867188 15.796875 22.851562 Z M 28.070312 19.019531 L 30.820312 16.054688 L 32.585938 13.90625 L 32.683594 13.324219 L 32.5 13.160156 L 32.285156 13.824219 L 27.671875 18.003906 C 27.6875 18.039062 28.070312 19.019531 28.070312 19.019531 M 31.605469 28.898438 C 31.554688 28.828125 30.054688 24.867188 30.054688 24.867188 C 29.808594 24.234375 29.589844 24.117188 29.140625 23.867188 L 28.109375 23.21875 L 28.058594 23.285156 L 29.242188 24.882812 L 29.242188 27.214844 L 33.074219 32.078125 C 33.589844 32.726562 33.625 32.945312 34.371094 32.945312 L 34.835938 32.726562 L 33.953125 32.578125 C 33.96875 32.59375 31.671875 28.960938 31.605469 28.898438 M 16.449219 28.898438 C 16.398438 28.964844 14.097656 32.597656 14.097656 32.597656 L 13.214844 32.742188 L 13.683594 32.960938 C 14.449219 32.960938 14.464844 32.742188 14.980469 32.09375 L 18.8125 27.230469 L 18.828125 24.902344 L 20.011719 23.300781 L 19.964844 23.234375 L 18.929688 23.882812 C 18.480469 24.132812 18.265625 24.25 18.015625 24.882812 C 18 24.867188 16.519531 28.828125 16.449219 28.894531 M 17.234375 16.039062 L 19.980469 19.003906 C 19.980469 19.003906 20.363281 18.019531 20.378906 17.988281 L 15.785156 13.824219 L 15.566406 13.15625 L 15.382812 13.324219 L 15.484375 13.90625 Z M 28.65625 25.097656 L 28.65625 29.945312 L 27.054688 32.660156 L 24.871094 34.328125 L 24.039062 35.390625 L 23.191406 34.328125 L 20.992188 32.660156 L 19.390625 29.945312 L 19.390625 25.097656 L 20.824219 23.082031 L 20.34375 22.765625 L 20.34375 19.585938 L 21.027344 17.589844 L 21.59375 17.257812 C 21.59375 17.257812 21.628906 16.320312 21.828125 16.070312 C 21.976562 15.871094 22.710938 15.636719 22.710938 15.636719 L 23.078125 15.140625 L 21.777344 13.273438 L 20.496094 12.574219 L 20.078125 12.09375 L 20.710938 12.292969 L 22.058594 13.058594 L 23.359375 14.910156 L 24.023438 14.742188 L 24.675781 14.910156 L 25.992188 13.058594 L 27.339844 12.292969 L 27.972656 12.09375 L 27.554688 12.574219 L 26.269531 13.273438 L 24.992188 15.15625 L 25.339844 15.640625 C 25.339844 15.640625 26.074219 15.886719 26.222656 16.074219 C 26.40625 16.320312 26.457031 17.257812 26.457031 17.257812 L 27.023438 17.589844 L 27.707031 19.589844 L 27.707031 22.769531 L 27.257812 23.066406 Z M 25.789062 20.984375 L 25.789062 22.535156 L 26.671875 20.550781 L 24.007812 19.386719 L 21.476562 20.269531 L 21.492188 20.351562 L 24.007812 20.070312 Z M 25.140625 16.707031 L 26.007812 17.054688 L 25.320312 15.808594 Z M 22.023438 17.074219 L 22.90625 16.738281 L 22.707031 15.824219 Z M 20.808594 19.519531 L 22.628906 18.554688 L 25.425781 18.554688 L 27.242188 19.519531 L 27.039062 18.949219 L 25.742188 17.867188 L 26.90625 18.265625 L 26.773438 17.867188 C 26.773438 17.867188 25.527344 17.25 25.507812 17.203125 L 22.558594 17.203125 C 22.542969 17.25 21.292969 17.867188 21.292969 17.867188 L 21.160156 18.265625 L 22.324219 17.867188 L 21.027344 18.949219 Z M 27.691406 30.644531 L 25.523438 31.410156 L 22.511719 31.410156 L 20.378906 30.644531 L 21.125 31.960938 L 22.90625 32.609375 L 21.660156 32.578125 L 23.359375 33.875 L 24.675781 33.875 L 26.375 32.578125 L 25.128906 32.609375 L 26.910156 31.960938 Z M 22.359375 29.648438 L 25.675781 29.648438 L 27.222656 28.464844 L 27.207031 28.414062 L 25.507812 29.03125 L 22.542969 29.03125 L 20.84375 28.414062 L 20.828125 28.464844 Z M 28.121094 25.234375 L 25.574219 25.535156 L 27.507812 24.46875 L 26.742188 23.398438 L 25.644531 24.132812 L 22.410156 24.132812 L 21.34375 23.417969 L 20.578125 24.464844 L 22.476562 25.53125 L 19.929688 25.214844 L 19.929688 26.582031 L 21.578125 27.199219 L 26.472656 27.199219 L 28.121094 26.582031 L 28.121094 25.230469 Z M 47.992188 24 C 47.992188 10.777344 37.234375 0 23.992188 0 C 10.75 0 0.0078125 10.777344 0.0078125 24 C 0.0078125 37.222656 10.769531 48 24.007812 48 C 37.25 48 47.992188 37.222656 47.992188 24 Z M 47.425781 24 C 47.425781 36.90625 36.917969 47.417969 24.007812 47.417969 C 11.101562 47.417969 0.574219 36.90625 0.574219 24 C 0.574219 11.09375 11.085938 0.582031 24.007812 0.582031 C 36.933594 0.582031 47.425781 11.09375 47.425781 24 Z M 12.132812 15.972656 C 14.804688 12.03125 19.261719 9.675781 24.023438 9.691406 C 28.785156 9.710938 33.226562 12.09375 35.867188 16.054688 L 36.417969 15.824219 C 33.75 11.808594 29.136719 9.109375 23.976562 9.109375 C 18.8125 9.109375 14.265625 11.742188 11.582031 15.753906 Z M 9.335938 21.320312 C 9.171875 22.203125 9.09375 23.101562 9.101562 24 C 9.101562 32.210938 15.78125 38.890625 23.992188 38.890625 C 32.203125 38.890625 38.882812 32.210938 38.882812 24 C 38.882812 23.09375 38.800781 22.191406 38.632812 21.300781 L 38.050781 21.300781 C 38.21875 22.191406 38.300781 23.09375 38.296875 24 C 38.296875 31.894531 31.871094 38.304688 23.992188 38.304688 C 16.113281 38.304688 9.65625 31.894531 9.65625 24 C 9.652344 23.101562 9.734375 22.203125 9.902344 21.320312 Z M 9.335938 21.320312 "/>
<path style=" stroke:none;fill-rule:nonzero;fill:rgb(100%,70.588235%,0%);fill-opacity:1;" d="M 21.007812 18.96875 L 22.308594 17.886719 L 21.140625 18.285156 L 21.273438 17.886719 C 21.273438 17.886719 22.523438 17.269531 22.539062 17.222656 L 25.488281 17.222656 C 25.503906 17.269531 26.753906 17.886719 26.753906 17.886719 L 26.886719 18.285156 L 25.722656 17.886719 L 27.023438 18.96875 L 27.222656 19.535156 L 25.40625 18.570312 L 22.609375 18.570312 L 20.792969 19.535156 Z M 27.691406 30.644531 L 25.523438 31.410156 L 22.511719 31.410156 L 20.378906 30.644531 L 21.125 31.960938 L 22.90625 32.609375 L 21.660156 32.578125 L 23.359375 33.875 L 24.675781 33.875 L 26.375 32.578125 L 25.128906 32.609375 L 26.910156 31.960938 Z M 28.121094 25.230469 L 25.574219 25.53125 L 27.507812 24.464844 L 26.742188 23.398438 L 25.644531 24.132812 L 22.410156 24.132812 L 21.34375 23.417969 L 20.578125 24.464844 L 22.476562 25.53125 L 19.929688 25.214844 L 19.929688 26.582031 L 21.578125 27.199219 L 26.472656 27.199219 L 28.121094 26.582031 Z M 28.121094 25.230469 "/>
<path style=" stroke:none;fill-rule:nonzero;fill:rgb(89.803922%,89.803922%,89.803922%);fill-opacity:1;" d="M 30.289062 15.15625 L 30.289062 11.457031 L 30.554688 11.609375 L 30.554688 14.90625 Z M 30.289062 29.164062 L 30.289062 36.394531 L 30.554688 36.246094 L 30.554688 29.597656 Z M 30.554688 18.21875 L 30.554688 16.886719 L 30.289062 17.207031 L 30.289062 18.335938 Z M 30.554688 25.03125 L 30.554688 24.117188 L 30.289062 23.949219 L 30.289062 24.5 Z M 26.339844 12.441406 L 26.339844 10.292969 L 26.074219 10.242188 L 26.074219 12.59375 Z M 26.074219 34.023438 L 26.074219 37.757812 L 26.339844 37.707031 L 26.339844 33.792969 Z M 26.074219 14.171875 L 26.074219 15.523438 L 26.339844 15.65625 L 26.339844 13.777344 Z M 34.800781 16.503906 L 34.800781 15.105469 L 34.535156 14.875 L 34.535156 16.621094 Z M 34.519531 24.734375 L 34.519531 32.230469 L 34.785156 32.277344 L 34.785156 24.714844 Z M 17.847656 15.15625 L 17.847656 11.457031 L 17.582031 11.609375 L 17.582031 14.90625 Z M 17.578125 29.597656 L 17.578125 36.242188 L 17.847656 36.390625 L 17.847656 29.160156 Z M 17.847656 18.335938 L 17.847656 17.207031 L 17.578125 16.886719 L 17.578125 18.21875 Z M 17.847656 24.5 L 17.847656 23.949219 L 17.578125 24.117188 L 17.578125 25.03125 Z M 22.058594 12.59375 L 22.058594 10.242188 L 21.792969 10.292969 L 21.792969 12.441406 Z M 21.808594 33.8125 L 21.808594 37.726562 L 22.078125 37.773438 L 22.078125 34.042969 Z M 21.808594 13.773438 L 21.808594 15.65625 L 22.078125 15.523438 L 22.078125 14.171875 Z M 13.597656 16.605469 L 13.597656 14.855469 L 13.332031 15.089844 L 13.332031 16.488281 Z M 13.367188 24.714844 L 13.367188 32.277344 L 13.632812 32.226562 L 13.632812 24.734375 Z M 13.367188 24.714844 "/>
<path style=" stroke:none;fill-rule:nonzero;fill:rgb(82.352941%,0%,0%);fill-opacity:1;" d="M 10.347656 11.859375 C 10.113281 11.660156 9.851562 11.757812 9.648438 11.992188 L 9.300781 12.40625 L 10.019531 13.003906 L 10.351562 12.605469 C 10.550781 12.359375 10.585938 12.058594 10.347656 11.859375 Z M 10.347656 11.859375 "/>
<path style=" stroke:none;fill-rule:nonzero;fill:rgb(82.352941%,0%,0%);fill-opacity:1;" d="M 21.894531 43.453125 L 22.507812 43.519531 L 22.292969 42.652344 Z M 21.894531 43.453125 "/>
<path style=" stroke:none;fill-rule:nonzero;fill:rgb(82.352941%,0%,0%);fill-opacity:1;" d="M 19.496094 41.9375 L 19.113281 41.839844 L 18.945312 42.421875 L 19.3125 42.519531 C 19.496094 42.570312 19.679688 42.488281 19.726562 42.304688 C 19.777344 42.085938 19.644531 41.96875 19.496094 41.9375 Z M 19.496094 41.9375 "/>
<path style=" stroke:none;fill-rule:nonzero;fill:rgb(82.352941%,0%,0%);fill-opacity:1;" d="M 8.550781 11.109375 L 8.21875 11.507812 L 8.835938 12.023438 L 9.152344 11.640625 C 9.320312 11.441406 9.320312 11.191406 9.121094 11.023438 C 8.917969 10.84375 8.6875 10.957031 8.550781 11.109375 Z M 8.550781 11.109375 "/>
<path style=" stroke:none;fill-rule:nonzero;fill:rgb(82.352941%,0%,0%);fill-opacity:1;" d="M 5.472656 23.648438 C 5.636719 23.648438 5.773438 23.515625 5.773438 23.351562 C 5.773438 23.183594 5.636719 23.050781 5.472656 23.050781 C 5.3125 23.0625 5.191406 23.191406 5.191406 23.351562 C 5.191406 23.507812 5.3125 23.640625 5.472656 23.648438 Z M 5.472656 23.648438 "/>
<path style=" stroke:none;fill-rule:nonzero;fill:rgb(82.352941%,0%,0%);fill-opacity:1;" d="M 13.765625 39.324219 C 13.382812 39.074219 12.867188 39.171875 12.582031 39.640625 C 12.28125 40.105469 12.414062 40.589844 12.796875 40.839844 C 13.179688 41.089844 13.695312 40.988281 13.980469 40.539062 C 14.28125 40.070312 14.164062 39.574219 13.765625 39.324219 Z M 13.765625 39.324219 "/>
<path style=" stroke:none;fill-rule:nonzero;fill:rgb(82.352941%,0%,0%);fill-opacity:1;" d="M 19.226562 42.949219 L 18.828125 42.835938 L 18.644531 43.503906 L 19.027344 43.601562 C 19.257812 43.671875 19.476562 43.585938 19.542969 43.371094 C 19.59375 43.171875 19.445312 43.019531 19.226562 42.949219 Z M 19.226562 42.949219 "/>
<path style=" stroke:none;fill-rule:nonzero;fill:rgb(82.352941%,0%,0%);fill-opacity:1;" d="M 5.472656 24 C 5.226562 24.007812 5.03125 24.214844 5.039062 24.460938 C 5.042969 24.707031 5.246094 24.902344 5.492188 24.898438 C 5.738281 24.898438 5.9375 24.695312 5.9375 24.449219 C 5.9375 24.328125 5.886719 24.210938 5.800781 24.125 C 5.710938 24.042969 5.59375 23.996094 5.472656 24 Z M 5.472656 24 "/>
<path style=" stroke:none;fill-rule:nonzero;fill:rgb(82.352941%,0%,0%);fill-opacity:1;" d="M 12.351562 8.144531 C 12.183594 7.945312 11.917969 7.910156 11.683594 8.09375 L 11.285156 8.425781 L 11.867188 9.144531 L 12.25 8.84375 C 12.484375 8.644531 12.515625 8.359375 12.351562 8.144531 Z M 12.351562 8.144531 "/>
<path style=" stroke:none;fill-rule:nonzero;fill:rgb(82.352941%,0%,0%);fill-opacity:1;" d="M 39.148438 12.425781 C 39.597656 11.992188 39.730469 11.339844 39.214844 10.84375 L 38.832031 10.460938 L 37.167969 12.09375 L 37.53125 12.460938 C 38.046875 12.972656 38.699219 12.859375 39.148438 12.425781 Z M 39.148438 12.425781 "/>
<path style=" stroke:none;fill-rule:nonzero;fill:rgb(82.352941%,0%,0%);fill-opacity:1;" d="M 41.996094 23.632812 C 42.160156 23.632812 42.296875 23.5 42.296875 23.332031 C 42.296875 23.167969 42.160156 23.035156 41.996094 23.035156 C 41.917969 23.035156 41.84375 23.066406 41.789062 23.125 C 41.738281 23.179688 41.707031 23.253906 41.714844 23.332031 C 41.714844 23.515625 41.828125 23.632812 41.996094 23.632812 Z M 41.996094 23.632812 "/>
<path style=" stroke:none;fill-rule:nonzero;fill:rgb(82.352941%,0%,0%);fill-opacity:1;" d="M 41.996094 24 C 41.75 24.007812 41.554688 24.214844 41.5625 24.460938 C 41.566406 24.707031 41.769531 24.902344 42.019531 24.898438 C 42.265625 24.898438 42.460938 24.695312 42.460938 24.449219 C 42.464844 24.328125 42.414062 24.207031 42.328125 24.125 C 42.238281 24.039062 42.117188 23.992188 41.996094 24 Z M 41.996094 24 "/>
<path style=" stroke:none;fill-rule:nonzero;fill:rgb(82.352941%,0%,0%);fill-opacity:1;" d="M 44.3125 23.050781 C 44.027344 23.050781 43.863281 23.265625 43.863281 23.515625 C 43.859375 23.640625 43.902344 23.757812 43.988281 23.84375 C 44.074219 23.933594 44.1875 23.984375 44.3125 23.984375 C 44.59375 23.984375 44.761719 23.765625 44.761719 23.515625 C 44.757812 23.25 44.578125 23.050781 44.3125 23.050781 Z M 44.3125 23.050781 "/>
<path style=" stroke:none;fill-rule:nonzero;fill:rgb(82.352941%,0%,0%);fill-opacity:1;" d="M 36.066406 8.5625 C 36.214844 8.359375 36.199219 8.09375 35.949219 7.910156 L 35.53125 7.59375 L 34.984375 8.34375 L 35.382812 8.640625 C 35.480469 8.726562 35.613281 8.769531 35.742188 8.753906 C 35.875 8.738281 35.992188 8.667969 36.066406 8.5625 Z M 36.066406 8.5625 "/>
<path style=" stroke:none;fill-rule:nonzero;fill:rgb(82.352941%,0%,0%);fill-opacity:1;" d="M 30.988281 7.746094 C 31.554688 7.976562 32.1875 7.746094 32.46875 7.078125 C 32.753906 6.410156 32.46875 5.78125 31.902344 5.546875 C 31.335938 5.3125 30.703125 5.546875 30.421875 6.230469 C 30.136719 6.878906 30.421875 7.511719 30.988281 7.746094 Z M 30.988281 7.746094 "/>
<path style=" stroke:none;fill-rule:nonzero;fill:rgb(82.352941%,0%,0%);fill-opacity:1;" d="M 24.023438 1.164062 C 11.433594 1.164062 1.210938 11.410156 1.210938 23.980469 C 1.210938 36.574219 11.453125 46.796875 24.023438 46.796875 C 36.617188 46.796875 46.839844 36.554688 46.839844 23.980469 C 46.839844 11.410156 36.601562 1.164062 24.023438 1.164062 Z M 39.648438 10.410156 C 40.464844 11.242188 40.296875 12.292969 39.664062 12.910156 C 39.046875 13.527344 37.949219 13.742188 37.050781 12.84375 L 36.21875 12.007812 L 38.75 9.507812 Z M 36.382812 7.480469 C 36.949219 7.914062 37 8.53125 36.664062 8.976562 C 36.414062 9.320312 35.972656 9.464844 35.566406 9.34375 L 35.351562 11.140625 L 34.664062 10.625 L 34.898438 9.042969 L 34.632812 8.84375 L 33.789062 9.960938 L 33.222656 9.527344 L 35.351562 6.695312 Z M 29.773438 5.945312 C 30.1875 4.964844 31.21875 4.53125 32.167969 4.929688 C 33.117188 5.328125 33.550781 6.363281 33.136719 7.34375 C 32.71875 8.324219 31.6875 8.742188 30.738281 8.34375 C 29.789062 7.960938 29.355469 6.929688 29.773438 5.945312 Z M 27.140625 3.496094 L 29.253906 3.898438 L 29.140625 4.496094 L 27.722656 4.230469 L 27.554688 5.078125 L 28.6875 5.296875 L 28.570312 5.898438 L 27.441406 5.683594 L 27.15625 7.117188 L 26.457031 6.984375 Z M 22.558594 3.28125 L 25.488281 3.296875 L 25.488281 3.914062 L 24.375 3.914062 L 24.359375 6.84375 L 23.640625 6.84375 L 23.660156 3.914062 L 22.542969 3.914062 Z M 18.730469 3.980469 L 20.859375 5.796875 L 20.363281 3.597656 L 21.058594 3.429688 L 21.859375 6.894531 L 21.210938 7.042969 L 19.09375 5.246094 L 19.59375 7.425781 L 18.894531 7.59375 L 18.09375 4.128906 Z M 16.082031 4.828125 L 16.351562 5.378906 L 15.050781 5.996094 L 15.417969 6.777344 L 16.449219 6.28125 L 16.714844 6.832031 L 15.683594 7.328125 L 16.050781 8.09375 L 17.382812 7.460938 L 17.648438 8.011719 L 15.667969 8.960938 L 14.132812 5.765625 Z M 11.371094 7.578125 C 11.917969 7.128906 12.535156 7.226562 12.886719 7.675781 C 13.15625 8.007812 13.191406 8.476562 12.96875 8.84375 L 14.652344 9.492188 L 13.984375 10.042969 L 12.503906 9.425781 L 12.253906 9.625 L 13.136719 10.726562 L 12.585938 11.175781 L 10.339844 8.394531 Z M 8.140625 10.675781 C 8.605469 10.125 9.136719 10.074219 9.503906 10.375 C 9.777344 10.605469 9.871094 10.980469 9.738281 11.308594 C 10.054688 11.0625 10.472656 11.027344 10.820312 11.308594 C 11.21875 11.644531 11.402344 12.328125 10.886719 12.925781 L 10.035156 13.941406 L 7.304688 11.65625 Z M 3.773438 25.246094 L 3.371094 25.246094 L 3.371094 22.933594 L 3.773438 22.683594 Z M 5.472656 25.28125 C 4.988281 25.28125 4.605469 24.929688 4.605469 24.464844 C 4.601562 24.1875 4.746094 23.933594 4.988281 23.800781 C 4.863281 23.683594 4.796875 23.519531 4.804688 23.351562 C 4.816406 22.992188 5.109375 22.703125 5.46875 22.703125 C 5.832031 22.703125 6.125 22.992188 6.136719 23.351562 C 6.140625 23.519531 6.074219 23.679688 5.953125 23.800781 C 6.191406 23.9375 6.339844 24.191406 6.335938 24.464844 C 6.335938 24.933594 5.972656 25.28125 5.472656 25.28125 Z M 9.117188 35.988281 L 8.753906 36.253906 L 8.238281 35.554688 L 7.355469 36.207031 L 7.039062 35.773438 L 9.1875 34.191406 L 10.15625 35.492188 L 9.789062 35.757812 L 9.136719 34.894531 L 8.621094 35.277344 Z M 9.539062 38.875 C 9.003906 38.324219 9.003906 37.472656 9.585938 36.90625 C 10.171875 36.339844 11.003906 36.359375 11.554688 36.925781 C 12.085938 37.472656 12.085938 38.324219 11.503906 38.890625 C 10.921875 39.457031 10.070312 39.4375 9.539062 38.875 Z M 14.453125 40.820312 C 14.019531 41.488281 13.203125 41.671875 12.535156 41.253906 C 11.886719 40.839844 11.703125 40.007812 12.121094 39.339844 C 12.550781 38.652344 13.386719 38.472656 14.035156 38.890625 C 14.683594 39.324219 14.882812 40.15625 14.449219 40.820312 Z M 17.53125 41.355469 L 16.765625 41.003906 L 15.851562 43.019531 L 15.367188 42.804688 L 16.285156 40.789062 L 15.515625 40.4375 L 15.699219 40.023438 L 17.714844 40.9375 Z M 20.28125 42.335938 C 20.207031 42.59375 19.980469 42.773438 19.714844 42.785156 C 19.980469 42.9375 20.148438 43.203125 20.046875 43.519531 C 19.949219 43.902344 19.53125 44.234375 18.964844 44.070312 L 18 43.804688 L 18.714844 41.238281 L 19.648438 41.503906 C 20.179688 41.65625 20.378906 42.003906 20.277344 42.335938 Z M 22.808594 44.652344 L 22.644531 44.035156 L 21.660156 43.9375 L 21.378906 44.519531 L 20.792969 44.453125 L 22.09375 41.902344 L 22.609375 41.953125 L 23.375 44.71875 Z M 23.992188 39.472656 C 15.46875 39.472656 8.519531 32.527344 8.519531 24 C 8.523438 23.082031 8.605469 22.167969 8.769531 21.269531 C 8.820312 21.019531 8.902344 20.734375 8.902344 20.734375 L 8.003906 17.671875 C 7.820312 17.019531 7.738281 16.839844 7.839844 16.671875 C 7.871094 16.605469 7.953125 16.488281 8.253906 16.425781 L 10.902344 15.757812 L 10.953125 15.65625 C 13.785156 11.230469 18.675781 8.542969 23.933594 8.53125 C 29.191406 8.515625 34.09375 11.175781 36.949219 15.589844 L 37.035156 15.742188 L 39.683594 16.40625 C 39.984375 16.492188 40.066406 16.589844 40.097656 16.65625 C 40.199219 16.824219 40.132812 17.007812 39.933594 17.652344 L 39.050781 20.71875 C 39.050781 20.71875 39.132812 21.019531 39.183594 21.285156 C 39.34375 22.179688 39.421875 23.089844 39.414062 24 C 39.464844 32.527344 32.519531 39.472656 23.992188 39.472656 Z M 24.625 44.683594 L 24.472656 42.019531 L 25.007812 41.988281 L 25.140625 44.203125 L 26.207031 44.136719 L 26.238281 44.585938 Z M 27.457031 44.382812 L 26.941406 41.769531 L 27.472656 41.667969 L 27.90625 43.835938 L 28.957031 43.617188 L 29.039062 44.066406 Z M 32.652344 42.753906 C 32.003906 43.035156 31.238281 42.820312 30.886719 42.019531 C 30.503906 41.167969 30.953125 40.4375 31.585938 40.152344 C 31.960938 39.980469 32.390625 39.996094 32.753906 40.1875 L 32.550781 40.671875 C 32.324219 40.523438 32.035156 40.503906 31.785156 40.621094 C 31.371094 40.804688 31.136719 41.21875 31.386719 41.769531 C 31.621094 42.285156 32.074219 42.457031 32.484375 42.269531 C 32.800781 42.136719 32.984375 41.835938 32.96875 41.4375 L 33.46875 41.46875 C 33.453125 42.085938 33.136719 42.554688 32.652344 42.753906 Z M 34.917969 41.519531 L 33.4375 39.304688 L 33.886719 39.003906 L 35.117188 40.835938 L 36 40.238281 L 36.25 40.621094 Z M 38.035156 39.269531 C 37.636719 39.621094 37.003906 39.722656 36.550781 39.222656 L 35.421875 37.921875 L 35.820312 37.574219 L 36.917969 38.820312 C 37.183594 39.121094 37.46875 39.085938 37.703125 38.886719 C 37.917969 38.6875 38 38.402344 37.734375 38.101562 L 36.636719 36.855469 L 37.035156 36.507812 L 38.167969 37.804688 C 38.632812 38.304688 38.449219 38.921875 38.03125 39.273438 Z M 40.484375 36.605469 L 39.796875 37.339844 L 37.847656 35.507812 L 38.515625 34.808594 C 38.882812 34.410156 39.296875 34.410156 39.546875 34.640625 C 39.746094 34.824219 39.800781 35.117188 39.679688 35.359375 C 39.929688 35.191406 40.246094 35.175781 40.496094 35.40625 C 40.78125 35.65625 40.878906 36.175781 40.480469 36.609375 Z M 42 25.28125 C 41.515625 25.28125 41.132812 24.929688 41.132812 24.464844 C 41.125 24.1875 41.273438 23.933594 41.515625 23.796875 C 41.394531 23.683594 41.328125 23.519531 41.332031 23.347656 C 41.34375 22.988281 41.636719 22.703125 42 22.703125 C 42.359375 22.703125 42.652344 22.988281 42.664062 23.347656 C 42.667969 23.519531 42.601562 23.679688 42.480469 23.796875 C 42.71875 23.933594 42.867188 24.191406 42.863281 24.464844 C 42.863281 24.914062 42.496094 25.28125 41.996094 25.28125 Z M 44.28125 25.246094 L 43.847656 25.246094 L 44.378906 24.332031 C 44.347656 24.332031 44.3125 24.347656 44.28125 24.347656 C 43.828125 24.324219 43.480469 23.9375 43.496094 23.484375 C 43.515625 23.03125 43.890625 22.675781 44.34375 22.683594 C 44.800781 22.691406 45.164062 23.0625 45.164062 23.515625 C 45.15625 23.6875 45.101562 23.855469 45.007812 24 Z M 44.28125 25.246094 "/>
<path style=" stroke:none;fill-rule:nonzero;fill:rgb(82.352941%,0%,0%);fill-opacity:1;" d="M 39.25 35.109375 C 39.097656 34.960938 38.914062 35.042969 38.816406 35.160156 L 38.546875 35.441406 L 39 35.859375 L 39.246094 35.574219 C 39.363281 35.425781 39.382812 35.242188 39.25 35.109375 Z M 39.25 35.109375 "/>
<path style=" stroke:none;fill-rule:nonzero;fill:rgb(82.352941%,0%,0%);fill-opacity:1;" d="M 9.953125 37.308594 C 9.570312 37.691406 9.570312 38.207031 9.886719 38.539062 C 10.203125 38.871094 10.71875 38.890625 11.117188 38.523438 C 11.515625 38.140625 11.5 37.625 11.183594 37.289062 C 10.867188 36.941406 10.347656 36.925781 9.953125 37.308594 Z M 9.953125 37.308594 "/>
<path style=" stroke:none;fill-rule:nonzero;fill:rgb(82.352941%,0%,0%);fill-opacity:1;" d="M 39.597656 35.859375 L 39.316406 36.15625 L 39.832031 36.640625 L 40.097656 36.355469 C 40.261719 36.191406 40.296875 35.941406 40.128906 35.789062 C 39.949219 35.625 39.746094 35.691406 39.597656 35.859375 Z M 39.597656 35.859375 "/>
</g>
</svg>
