<svg width="2500" height="2500" viewBox="0 0 2500 2500" fill="none" xmlns="http://www.w3.org/2000/svg">
<g clip-path="url(#clip0_290_1728)">
<path d="M2493.9 1250.82C2493.9 1936.85 1937.69 2493.08 1251.23 2493.08C564.97 2493.08 8.75903 1936.85 8.75903 1250.82C8.75903 564.78 564.97 8.75 1251.23 8.75C1937.69 8.75 2493.9 564.78 2493.9 1250.82Z" fill="white"/>
<path d="M1467.36 1021.93L1915.1 840.454L1837.97 964.559L1468.18 1050.42L1467.36 1021.93ZM1467.36 1070.56V1090.49H2007.09L1832.68 995.076L1467.36 1070.56ZM2059.19 883.992C2056.54 880.534 2051.46 877.889 2033.14 872.803L1940.34 848.592C1940.34 847.575 1859.54 980.428 1859.54 980.428L2011.57 1060.99L2054.1 911.662C2061.02 892.537 2062.65 888.265 2059.19 883.992ZM444.285 911.662L486.82 1060.99L638.643 980.428C638.643 980.428 558.051 847.371 558.051 848.389L465.247 872.599C446.931 877.889 441.843 880.534 439.197 883.992C437.365 888.265 439.197 892.537 444.285 911.662ZM667.339 994.059L492.925 1088.66H1032.65V1069.54L667.339 994.059ZM1467.36 1110.43L1466.55 1129.56L1691.23 1165.97L1831.86 1109.42H1467.36V1110.43ZM1467.36 1147.66V1167.6C1467.36 1168.62 1636.69 1259.56 1636.69 1259.56C1636.69 1259.56 1661.72 1273.4 1670.47 1276.04C1681.46 1277.67 1692.45 1278.28 1703.44 1277.87L1770.2 1274.41C1770.2 1274.41 1678.21 1190.19 1680.04 1191C1681.67 1191 1467.36 1147.66 1467.36 1147.66ZM1896.99 1136.27L1867.48 1121.62L1714.84 1185.91L1796.25 1263.83L1896.99 1163.94C1903.91 1156.21 1909.2 1151.73 1908.38 1147.46C1907.37 1144.21 1904.72 1140.75 1896.99 1136.27ZM593.666 1146.85C593.666 1151.12 597.94 1155.4 604.86 1163.33L705.6 1263.02L787.007 1185.1L634.37 1121.01L604.86 1135.66C597.126 1140.75 593.666 1144.21 593.666 1146.85ZM1034.48 1021.93L586.543 840.454L663.88 964.559L1033.47 1050.42L1034.48 1021.93ZM669.985 1110.43L810.412 1166.79L1035.3 1130.37L1034.28 1111.25H669.985V1110.43ZM822.623 1190.19C825.268 1189.37 732.261 1273.4 732.261 1273.4L799.218 1276.86C799.218 1276.86 819.163 1278.69 832.188 1275.23C839.921 1273.6 865.972 1258.75 865.972 1258.75C865.972 1258.75 1035.09 1167.6 1035.09 1166.79V1146.85C1034.48 1147.66 819.977 1191 822.623 1190.19ZM1462.07 990.601L1605.35 836.182L1697.34 724.284L1702.43 693.97L1692.86 685.425L1681.67 720.011L1441.31 937.703C1442.13 939.534 1462.07 990.601 1462.07 990.601ZM1646.25 1505.13C1643.61 1501.46 1565.46 1295.17 1565.46 1295.17C1552.64 1262.21 1541.24 1256.1 1517.84 1243.08L1464.11 1209.31L1461.46 1212.77L1523.13 1295.98V1417.44L1722.78 1670.74C1749.64 1704.51 1751.47 1715.9 1790.34 1715.9L1814.56 1704.51L1768.57 1696.78C1769.38 1697.59 1649.71 1508.38 1646.25 1505.13ZM856.61 1505.13C853.964 1508.59 734.093 1697.79 734.093 1697.79L688.098 1705.32L712.52 1716.72C752.409 1716.72 753.223 1705.32 780.088 1671.55L979.738 1418.25L980.552 1297L1042.22 1213.58L1039.77 1210.12L985.843 1243.9C962.439 1256.92 951.245 1263.02 938.22 1295.98C937.406 1295.17 860.273 1501.46 856.61 1504.92M897.517 835.368L1040.59 989.787C1040.59 989.787 1060.53 938.517 1061.35 936.89L822.012 720.011L810.615 685.221L801.05 693.97L806.341 724.284L897.517 835.368ZM1492.6 1307.17V1559.65L1409.16 1701.05L1295.39 1787.92L1252.04 1843.26L1207.88 1787.92L1093.3 1701.05L1009.86 1559.65V1307.17L1084.55 1202.19L1059.52 1185.71V1020.1L1095.13 916.138L1124.64 898.844C1124.64 898.844 1126.47 850.016 1136.85 836.995C1144.59 826.619 1182.85 814.412 1182.85 814.412L1201.98 788.574L1134.21 691.325L1067.45 654.907L1045.68 629.883L1078.65 640.259L1148.86 680.135L1216.63 776.571L1251.23 767.822L1285.22 776.571L1353.8 680.135L1424.01 640.259L1456.98 629.883L1435.21 654.907L1368.25 691.325L1301.7 789.388L1319.81 814.616C1319.81 814.616 1358.08 827.433 1365.81 837.199C1375.37 850.016 1378.02 898.844 1378.02 898.844L1407.53 916.138L1443.15 1020.3V1185.91L1419.74 1201.38L1492.6 1307.17ZM1343.22 1092.94V1173.71L1389.21 1070.35L1250.41 1009.72L1118.54 1055.7L1119.35 1059.98L1250.41 1045.33L1343.22 1092.94ZM1309.43 870.158L1354.62 888.265L1318.8 823.364L1309.43 870.158ZM1147.03 889.282L1193.02 871.785L1182.64 824.178L1147.03 889.282ZM1083.73 1016.64L1178.57 966.39H1324.29L1418.93 1016.64L1408.34 986.938L1340.78 930.583L1401.42 951.335L1394.5 930.583C1394.5 930.583 1329.58 898.437 1328.57 895.996H1174.91C1174.1 898.437 1108.97 930.583 1108.97 930.583L1102.05 951.335L1162.7 930.583L1095.13 986.938L1083.73 1016.64ZM1442.33 1596.07L1329.38 1635.95H1172.47L1061.35 1596.07L1100.22 1664.63L1193.02 1698.4L1128.1 1696.78L1216.63 1764.32H1285.22L1373.75 1696.78L1308.82 1698.4L1401.63 1664.63L1442.33 1596.07ZM1164.53 1544.19H1337.32L1417.91 1482.54L1417.1 1479.9L1328.57 1512.04H1174.1L1085.57 1479.9L1084.75 1482.54L1164.53 1544.19ZM1464.72 1314.29L1332.03 1329.96L1432.77 1274.41L1392.88 1218.67L1335.69 1256.92H1167.18L1111.62 1219.69L1071.73 1274.21L1170.64 1329.75L1037.94 1313.27V1384.48L1123.83 1416.63H1378.83L1464.72 1384.48V1314.09V1314.29ZM2500.01 1250C2500.01 561.32 1939.52 0 1249.6 0C559.679 0 0.0078125 561.32 0.0078125 1250C0.0078125 1938.68 560.697 2500 1250.41 2500C1940.34 2500 2500.01 1938.68 2500.01 1250ZM2470.5 1250C2470.5 1922.2 1923.04 2469.69 1250.41 2469.69C577.995 2469.69 29.5178 1922.2 29.5178 1250C29.5178 577.799 577.181 30.3141 1250.41 30.3141C1923.85 30.3141 2470.5 577.799 2470.5 1250ZM631.724 831.909C770.929 626.628 1003.14 503.947 1251.23 504.761C1499.32 505.778 1730.71 629.883 1868.29 836.182L1896.99 824.178C1757.99 615.031 1517.63 474.447 1248.79 474.447C979.738 474.447 742.844 611.572 603.028 820.516L631.724 831.909ZM486.006 1110.43C477.458 1156.41 473.388 1203.21 473.795 1250C473.795 1677.65 821.808 2025.55 1249.6 2025.55C1677.39 2025.55 2025.41 1677.65 2025.41 1250C2025.41 1202.8 2021.13 1155.8 2012.38 1109.42H1982.06C1990.81 1155.8 1995.08 1202.8 1994.88 1250C1994.88 1661.17 1660.09 1995.04 1249.6 1995.04C839.107 1995.04 502.694 1661.17 502.694 1250C502.491 1203.21 506.765 1156.41 515.516 1110.43H486.006Z" fill="#0F0F0F"/>
<path d="M1094.11 987.954L1161.89 931.598L1101.03 952.35L1107.95 931.598C1107.95 931.598 1173.08 899.453 1173.89 897.012H1327.55C1328.36 899.453 1393.49 931.598 1393.49 931.598L1400.41 952.35L1339.76 931.598L1407.53 987.954L1417.91 1017.45L1323.27 967.202H1177.56L1082.92 1017.45L1094.11 987.954ZM1442.33 1596.07L1329.38 1635.94H1172.47L1061.35 1596.07L1100.22 1664.63L1193.02 1698.4L1128.1 1696.78L1216.63 1764.32H1285.22L1373.75 1696.78L1308.82 1698.4L1401.63 1664.63L1442.33 1596.07ZM1464.72 1314.09L1332.03 1329.75L1432.77 1274.21L1392.88 1218.67L1335.69 1256.92H1167.18L1111.62 1219.68L1071.73 1274.21L1170.64 1329.75L1037.94 1313.27V1384.48L1123.83 1416.62H1378.83L1464.72 1384.48V1314.09Z" fill="#FFB400"/>
<path d="M1577.67 789.386V596.718L1591.51 604.653V776.365L1577.67 789.386ZM1577.67 1518.96V1895.55L1591.51 1887.82V1541.54L1577.67 1518.96ZM1591.51 948.891V879.515L1577.67 896.198V954.995L1591.51 948.891ZM1591.51 1303.71V1256.1L1577.67 1247.35V1276.04L1591.51 1303.71ZM1371.91 647.988V536.09L1358.08 533.445V655.922L1371.91 647.988ZM1358.08 1772.05V1966.55L1371.91 1963.91V1760.05L1358.08 1772.05ZM1358.08 738.116V808.51L1371.91 815.428V717.568L1358.08 738.116ZM1812.73 859.576V786.741L1798.89 774.738V865.68L1812.73 859.576ZM1798.08 1288.25V1678.67L1811.92 1681.11V1287.23L1798.08 1288.25ZM929.469 789.386V596.718L915.63 604.653V776.365L929.469 789.386ZM915.426 1541.54V1887.61L929.469 1895.34V1518.76L915.426 1541.54ZM929.469 954.995V896.198L915.426 879.515V948.891L929.469 954.995ZM929.469 1276.04V1247.35L915.426 1256.1V1303.71L929.469 1276.04ZM1148.86 655.922V533.445L1135.02 536.09V647.988L1148.86 655.922ZM1135.84 1761.07V1964.92L1149.88 1967.36V1773.07L1135.84 1761.07ZM1135.84 717.365V815.428L1149.88 808.51V738.116L1135.84 717.365ZM708.043 864.866V773.72L694.204 785.927V858.763L708.043 864.866ZM696.035 1287.23V1681.11L709.874 1678.46V1288.25L696.035 1287.23Z" fill="#E5E5E5"/>
<path d="M538.717 617.773C526.506 607.397 512.87 612.484 502.287 624.691L484.174 646.257L521.621 677.384L538.92 656.633C549.3 643.815 551.131 628.149 538.717 617.773Z" fill="#D20000"/>
<path d="M1140.31 2263.18L1172.26 2266.64L1161.07 2221.48L1140.31 2263.18Z" fill="#D20000"/>
<path d="M1015.35 2184.25L995.408 2179.16L986.657 2209.47L1005.79 2214.56C1015.35 2217.21 1024.92 2212.93 1027.36 2203.37C1030.01 2191.98 1023.09 2185.87 1015.35 2184.25Z" fill="#D20000"/>
<path d="M445.099 578.522L427.8 599.274L459.956 626.13L476.441 606.191C485.192 595.815 485.192 582.795 474.812 574.046C464.23 564.688 452.222 570.588 445.099 578.522Z" fill="#D20000"/>
<path d="M284.728 1231.69C293.276 1231.69 300.399 1224.77 300.399 1216.23C300.399 1207.48 293.276 1200.56 284.728 1200.56C276.384 1201.17 270.075 1207.89 270.075 1216.23C270.075 1224.37 276.384 1231.28 284.728 1231.69Z" fill="#D20000"/>
<path d="M716.799 2048.19C696.855 2035.16 669.991 2040.25 655.134 2064.66C639.463 2088.88 646.383 2114.1 666.327 2127.12C686.272 2140.15 713.136 2134.86 727.993 2111.46C743.664 2087.04 737.558 2061.21 716.799 2048.19Z" fill="#D20000"/>
<path d="M1001.31 2236.94L980.552 2231.04L970.986 2265.83L990.931 2270.92C1002.94 2274.58 1014.34 2270.1 1017.8 2258.91C1020.44 2248.54 1012.71 2240.6 1001.31 2236.94Z" fill="#D20000"/>
<path d="M284.74 1250.01C271.918 1250.42 261.742 1261.2 262.149 1274.02C262.353 1286.84 272.936 1297.01 285.757 1296.81C298.579 1296.81 308.958 1286.23 308.958 1273.41C308.958 1267.1 306.312 1261 301.835 1256.52C297.154 1252.25 291.049 1249.81 284.74 1250.01Z" fill="#D20000"/>
<path d="M643.121 424.135C634.37 413.759 620.531 411.928 608.32 421.49L587.561 438.784L617.885 476.218L637.829 460.553C650.04 450.177 651.669 435.325 643.121 424.135Z" fill="#D20000"/>
<path d="M2039.25 647.175C2062.65 624.592 2069.57 590.616 2042.71 564.778L2022.76 544.84L1936.06 629.882L1954.99 649.007C1981.85 675.658 2015.84 669.758 2039.25 647.175Z" fill="#D20000"/>
<path d="M2187.62 1230.87C2196.17 1230.87 2203.29 1223.96 2203.29 1215.21C2203.29 1206.66 2196.17 1199.75 2187.62 1199.75C2183.55 1199.75 2179.68 1201.37 2176.83 1204.43C2174.19 1207.27 2172.56 1211.14 2172.97 1215.21C2172.97 1224.77 2178.87 1230.87 2187.62 1230.87Z" fill="#D20000"/>
<path d="M2187.62 1250.04C2174.8 1250.45 2164.62 1261.23 2165.03 1274.05C2165.23 1286.87 2175.82 1297.04 2188.84 1296.84C2201.66 1296.84 2211.84 1286.26 2211.84 1273.44C2212.04 1267.13 2209.4 1260.83 2204.92 1256.55C2200.24 1252.08 2193.93 1249.64 2187.62 1250.04Z" fill="#D20000"/>
<path d="M2308.31 1200.56C2293.45 1200.56 2284.9 1211.75 2284.9 1224.77C2284.7 1231.28 2286.94 1237.39 2291.42 1241.86C2295.89 1246.54 2301.8 1249.19 2308.31 1249.19C2322.96 1249.19 2331.71 1237.79 2331.71 1224.77C2331.51 1210.94 2322.15 1200.56 2308.31 1200.56Z" fill="#D20000"/>
<path d="M1878.67 445.964C1886.4 435.384 1885.59 421.549 1872.57 411.987L1850.79 395.508L1822.3 434.57L1843.06 450.033C1848.14 454.508 1855.06 456.746 1861.78 455.933C1868.7 455.119 1874.8 451.457 1878.67 445.964Z" fill="#D20000"/>
<path d="M1614.11 403.355C1643.62 415.359 1676.59 403.355 1691.24 368.565C1706.1 333.775 1691.24 301.019 1661.73 288.812C1632.22 276.605 1599.25 288.812 1584.6 324.416C1569.74 358.189 1584.6 391.148 1614.11 403.355Z" fill="#D20000"/>
<path d="M1251.23 60.6289C595.294 60.6289 62.6909 594.28 62.6909 1248.98C62.6909 1904.91 596.312 2437.34 1251.23 2437.34C1907.37 2437.34 2439.97 1903.89 2439.97 1248.98C2439.97 594.28 1906.55 60.6289 1251.23 60.6289ZM2065.3 542.196C2107.83 585.531 2099.08 640.259 2066.11 672.405C2033.95 704.55 1976.77 715.74 1929.96 668.946L1886.61 625.408L2018.49 495.199L2065.3 542.196ZM1895.16 389.608C1924.67 412.191 1927.31 444.337 1909.81 467.53C1896.78 485.434 1873.79 492.961 1852.62 486.654L1841.43 580.242L1805.61 553.386L1817.82 470.989L1803.98 460.613L1760.02 518.8L1730.51 496.216L1841.43 348.715L1895.16 389.608ZM1550.81 309.652C1572.38 258.586 1626.11 236.003 1675.56 256.755C1725.02 277.507 1747.61 331.422 1726.03 382.488C1704.26 433.554 1650.53 455.323 1601.07 434.571C1551.62 414.633 1529.03 360.922 1550.81 309.652ZM1413.64 182.089L1523.74 203.044L1517.84 234.172L1443.96 220.338L1435.21 264.486L1494.23 275.88L1488.12 307.211L1429.31 296.021L1414.45 370.688L1378.02 363.77L1413.64 182.089ZM1174.91 170.899L1327.55 171.713V203.858H1269.55L1268.73 356.446H1231.28L1232.3 203.858H1174.1L1174.91 170.899ZM975.464 207.317L1086.38 301.921L1060.53 187.379L1096.76 178.63L1138.48 359.091L1104.7 366.822L994.391 273.235L1020.44 386.76L984.011 395.508L942.29 215.048L975.464 207.317ZM837.479 251.466L851.522 280.152L783.751 312.297L802.881 352.987L856.61 327.149L870.449 355.836L816.721 381.674L835.851 421.55L905.25 388.591L919.089 417.278L815.906 466.716L735.924 300.294L837.479 251.466ZM592.038 394.695C620.53 371.298 652.686 376.384 671.003 399.781C685.045 417.074 686.877 441.488 675.276 460.613L762.992 494.386L728.191 523.072L651.058 490.927L638.033 501.303L684.028 558.676L655.332 582.073L538.31 437.216L592.038 394.695ZM423.73 556.031C447.948 527.344 475.626 524.7 494.757 540.365C509.003 552.369 513.888 571.9 506.968 588.99C523.453 576.173 545.229 574.341 563.342 588.99C584.101 606.487 593.666 642.09 566.802 673.218L522.435 726.116L380.177 607.097L423.73 556.031ZM196.198 1314.9H175.236V1194.46L196.198 1181.44V1314.9ZM284.728 1316.73C259.492 1316.73 239.547 1298.42 239.547 1274.21C239.343 1259.77 246.874 1246.54 259.492 1239.62C252.979 1233.52 249.519 1224.98 249.926 1216.23C250.537 1197.51 265.801 1182.46 284.524 1182.46C303.451 1182.46 318.715 1197.51 319.326 1216.23C319.529 1224.98 316.069 1233.32 309.76 1239.62C322.175 1246.75 329.908 1259.97 329.705 1274.21C329.705 1298.63 310.778 1316.73 284.728 1316.73ZM474.609 1874.39L455.682 1888.22L428.818 1851.81L382.823 1885.78L366.338 1863.2L478.272 1780.8L528.744 1848.55L509.614 1862.39L475.626 1817.42L448.762 1837.36L474.609 1874.39ZM496.589 2024.74C468.707 1996.05 468.707 1951.7 499.031 1922.2C529.558 1892.7 572.907 1893.72 601.603 1923.22C629.282 1951.7 629.282 1996.05 598.958 2025.55C568.634 2055.05 524.267 2054.04 496.589 2024.74ZM752.613 2126.06C730.022 2160.85 687.487 2170.41 652.686 2148.64C618.902 2127.08 609.337 2083.74 631.113 2048.95C653.5 2013.14 697.053 2003.78 730.836 2025.55C764.62 2048.14 775 2091.47 752.409 2126.06H752.613ZM912.984 2153.93L873.095 2135.62L825.472 2240.6L800.236 2229.41L848.062 2124.43L807.969 2106.12L817.535 2084.55L922.549 2132.16L912.984 2153.93ZM1056.26 2205C1052.39 2218.43 1040.59 2227.78 1026.75 2228.39C1040.59 2236.33 1049.34 2250.16 1044.05 2266.64C1038.96 2286.58 1017.18 2303.87 987.675 2295.33L937.406 2281.49L974.65 2147.83L1023.29 2161.66C1050.97 2169.6 1061.35 2187.7 1056.06 2205H1056.26ZM1187.94 2325.64L1179.39 2293.5L1128.1 2288.41L1113.45 2318.73L1082.92 2315.27L1150.69 2182.41L1177.56 2185.06L1217.45 2329.1L1187.94 2325.64ZM1249.6 2055.87C805.527 2055.87 443.471 1694.13 443.471 1250C443.674 1202.19 447.948 1154.58 456.496 1107.79C459.142 1094.77 463.415 1079.92 463.415 1079.92L416.607 920.411C407.041 886.435 402.767 877.076 408.059 868.327C409.687 864.869 413.961 858.765 429.632 855.51L567.616 820.72L570.262 815.43C717.811 584.921 972.614 444.947 1246.55 444.337C1520.48 443.523 1775.9 582.073 1924.67 811.972L1929.14 819.906L2067.13 854.493C2082.8 858.969 2087.07 864.055 2088.7 867.514C2093.99 876.262 2090.53 885.824 2080.15 919.394L2034.16 1079.1C2034.16 1079.1 2038.43 1094.77 2041.08 1108.6C2049.42 1155.19 2053.49 1202.6 2053.08 1250C2055.73 1694.13 1693.88 2055.87 1249.6 2055.87ZM1282.57 2327.27L1274.63 2188.52L1302.52 2186.89L1309.43 2302.25L1364.99 2298.79L1366.62 2322.18L1282.57 2327.27ZM1430.12 2311.61L1403.26 2175.5L1430.93 2170.21L1453.52 2283.12L1508.27 2271.73L1512.54 2295.13L1430.12 2311.61ZM1700.8 2226.77C1667.01 2241.41 1627.12 2230.23 1608.81 2188.52C1588.86 2144.17 1612.27 2106.12 1645.24 2091.27C1664.77 2082.32 1687.16 2083.13 1706.09 2093.1L1695.51 2118.33C1683.7 2110.6 1668.64 2109.58 1655.62 2115.68C1634.04 2125.24 1621.83 2146.81 1634.86 2175.5C1647.07 2202.35 1670.68 2211.3 1692.05 2201.54C1708.53 2194.62 1718.1 2178.96 1717.28 2158.2L1743.33 2159.83C1742.52 2191.98 1726.03 2216.39 1700.8 2226.77ZM1818.84 2162.48L1741.7 2047.12L1765.11 2031.45L1829.22 2126.87L1875.21 2095.74L1888.24 2115.68L1818.84 2162.48ZM1981.24 2045.29C1960.48 2063.6 1927.52 2068.89 1903.91 2042.85L1845.09 1975.1L1865.85 1956.99L1923.04 2021.89C1936.88 2037.56 1951.73 2035.73 1963.94 2025.35C1975.14 2014.97 1979.41 2000.12 1965.57 1984.46L1908.38 1919.56L1929.14 1901.45L1988.16 1968.99C2012.38 1995.04 2002.82 2027.18 1981.04 2045.49L1981.24 2045.29ZM2108.85 1906.54L2073.03 1944.78L1971.47 1849.37L2006.28 1812.95C2025.41 1792.2 2046.98 1792.2 2060 1804.2C2070.38 1813.76 2073.23 1829.02 2066.92 1841.63C2079.95 1832.89 2096.43 1832.07 2109.46 1844.08C2124.32 1857.1 2129.4 1884.16 2108.64 1906.74L2108.85 1906.54ZM2187.81 1316.73C2162.58 1316.73 2142.63 1298.42 2142.63 1274.21C2142.23 1259.77 2149.96 1246.54 2162.58 1239.42C2156.27 1233.52 2152.81 1224.98 2153.01 1216.02C2153.62 1197.31 2168.89 1182.46 2187.81 1182.46C2206.54 1182.46 2221.8 1197.31 2222.41 1216.02C2222.61 1224.98 2219.15 1233.32 2212.85 1239.42C2225.26 1246.54 2232.99 1259.97 2232.79 1274.21C2232.79 1297.61 2213.66 1316.73 2187.61 1316.73H2187.81ZM2306.67 1314.9H2284.08L2311.75 1267.29C2310.13 1267.29 2308.29 1268.11 2306.67 1268.11C2283.06 1266.89 2264.95 1246.75 2265.76 1223.15C2266.78 1199.54 2286.32 1181.03 2309.92 1181.44C2333.73 1181.84 2352.66 1201.17 2352.66 1224.77C2352.25 1233.72 2349.41 1242.47 2344.52 1250L2306.67 1314.9Z" fill="#D20000"/>
<path d="M2044.54 1828.51C2036.6 1820.78 2027.03 1825.05 2021.95 1831.16L2007.9 1845.81L2031.51 1867.57L2044.33 1852.72C2050.44 1844.99 2051.46 1835.43 2044.54 1828.51Z" fill="#D20000"/>
<path d="M518.167 1943.08C498.222 1963.02 498.222 1989.87 514.707 2007.17C531.192 2024.46 558.056 2025.48 578.815 2006.35C599.574 1986.42 598.76 1959.56 582.275 1942.06C565.79 1923.96 538.722 1923.14 518.167 1943.08Z" fill="#D20000"/>
<path d="M2062.65 1867.72L2048 1883.18L2074.86 1908.41L2088.7 1893.56C2097.25 1885.01 2099.08 1871.99 2090.33 1864.05C2080.97 1855.51 2070.38 1858.97 2062.65 1867.72Z" fill="#D20000"/>
</g>
<defs>
<clipPath id="clip0_290_1728">
<rect width="2500" height="2500" fill="white"/>
</clipPath>
</defs>
</svg>
