<svg width="2500" height="2500" viewBox="0 0 2500 2500" fill="none" xmlns="http://www.w3.org/2000/svg">
<g clip-path="url(#clip0_290_1320)">
<path d="M2398.72 1512.88C2398.2 1512.11 2397.42 1511.09 2396.37 1510.58L2247.01 1454.29C2250.92 1440.53 2257.18 1427.54 2265.78 1415.57L2342.68 1448.68C2352.06 1452.5 2362.49 1449.19 2367.44 1440.53C2372.65 1432.89 2377.08 1424.23 2380.73 1415.57C2388.03 1399.26 2389.86 1380.92 2385.43 1363.6C2380.73 1347.81 2368.22 1335.32 2352.58 1329.21L2146.65 1237L2145.35 1236.49C2132.58 1231.14 2117.72 1230.12 2104.42 1234.96C2104.42 1228.84 2104.42 1222.48 2104.42 1216.36C2104.42 1200.31 2103.9 1184.01 2103.12 1167.71C2102.08 1151.4 2100.51 1133.57 2098.69 1116.51C2091.13 1046.71 2076.01 978.693 2052.81 912.461L2049.42 903.291C2009.28 793.245 1977.22 705.87 1978.26 602.192C1978.78 523.988 2079.4 413.433 2117.72 378.024L2154.21 344.399L1772.85 5.09002L1742.88 24.1953C1673.28 68.7741 1582.82 93.7383 1488.98 93.7383C1390.19 93.7383 1296.87 66.991 1226.23 18.3363L1199.64 0.25L1173.57 18.3363C1102.93 66.991 1009.35 93.7383 910.818 93.7383C816.456 93.7383 726.525 69.2836 656.666 24.1953L626.689 5.09002L282.344 311.283L245.59 343.89L281.823 377.515C320.663 413.433 421.02 523.479 421.281 601.683C422.324 705.87 390.522 792.735 350.118 902.781L346.73 911.952C323.53 978.183 308.411 1046.2 301.112 1116C299.027 1133.32 297.724 1150.39 296.681 1167.2C295.638 1184.01 295.117 1200.06 295.117 1215.85C295.117 1221.97 295.117 1228.33 295.117 1234.45C281.823 1230.12 267.747 1230.63 254.453 1235.98L252.889 1236.49L46.699 1329.21C30.7982 1334.81 18.5468 1347.81 13.594 1363.6C9.1626 1380.92 11.2479 1399.26 18.5467 1415.57C21.9354 1424.23 26.3668 1432.89 31.8408 1440.53C36.7936 1448.68 47.481 1451.99 56.8651 1448.17L132.981 1415.06C141.322 1427.03 147.839 1440.02 151.749 1454.03L2.38521 1510.07C1.34253 1510.58 0.299853 1511.6 -0.221453 1512.37C-0.482172 1513.38 -0.482172 1514.91 -0.221453 1516.44L8.64128 1538.35C191.892 1988.21 624.342 2294.66 1119.09 2324.72L1196.25 2399.1C1198.08 2400.63 1200.94 2400.63 1202.51 2399.1L1279.67 2324.72C1774.42 2294.66 2206.61 1988.21 2390.38 1538.35L2399.24 1516.44C2399.76 1515.42 2399.76 1513.89 2398.72 1512.88ZM635.03 1872.05C504.956 1783.66 398.863 1666.23 324.573 1529.69L361.588 1516.7C362.37 1519.24 363.934 1521.03 364.976 1523.06C373.318 1537.33 382.181 1551.85 391.825 1565.86L395.735 1571.46L396.257 1572.48C562.042 1814.99 805.508 1966.56 1082.6 1998.91L1126.91 2041.96C950.44 2029.99 780.483 1970.89 635.03 1872.05ZM1763.47 1872.05C1618.28 1970.89 1448.06 2029.99 1271.32 2041.96L1315.64 1998.91C1592.73 1966.56 1836.19 1814.99 2001.72 1572.48L2002.24 1571.46L2006.15 1565.86C2016.06 1551.85 2024.92 1537.84 2033.26 1523.57C2034.82 1521.03 2035.87 1519.24 2036.65 1517.21L2073.66 1530.2C1999.9 1666.48 1893.28 1783.66 1763.47 1872.05Z" fill="#003399"/>
<path d="M2103.9 1245.15C2109.9 1242.6 2116.41 1241.33 2122.67 1241.33C2129.19 1241.33 2135.44 1242.6 2141.44 1245.15L2142.74 1245.66L2348.67 1338.13C2361.96 1342.97 2371.87 1353.67 2376.3 1366.66C2379.69 1381.94 2378.13 1397.74 2371.35 1412.26C2367.96 1420.41 2363.79 1428.05 2359.36 1435.18C2357.01 1439.51 2351.54 1441.55 2346.59 1439.51L2262.13 1403.09L2259.78 1405.89C2249.88 1419.39 2242.58 1434.16 2237.63 1449.96L2223.81 1444.86C2228.24 1429.32 2235.8 1414.55 2244.92 1401.56L2248.57 1396.72L2150.82 1354.43C2145.87 1352.65 2143.78 1347.3 2145.35 1342.46L2146.65 1338.64C2154.73 1322.33 2157.6 1304.25 2154.99 1285.91C2153.69 1273.93 2147.17 1263.24 2136.49 1257.12L2134.92 1256.61C2131.01 1255.08 2127.1 1254.32 2122.67 1254.32C2115.89 1254.32 2108.85 1256.1 2103.12 1259.92C2103.9 1256.1 2103.9 1250.24 2103.9 1245.15Z" fill="white"/>
<path d="M309.975 1168.73C310.757 1151.91 312.321 1135.1 314.406 1117.78C321.705 1049.76 336.824 982.003 359.502 917.046L362.891 908.13C403.816 796.555 436.139 708.416 435.096 601.682C434.575 518.128 331.089 404.006 290.685 367.07L266.183 343.889L291.207 321.472L626.688 22.6658L647.281 35.6574C719.487 81.7646 812.546 107.238 909.775 107.238C1011.44 107.238 1107.62 79.472 1180.87 29.5437L1198.6 17.0615L1216.84 29.5437C1290.35 79.9815 1386.8 107.238 1488.46 107.238C1585.17 107.238 1678.49 81.7646 1750.69 35.6574L1771.55 22.6658L2132.05 343.889L2107.55 367.07C2067.67 404.006 1963.92 518.128 1963.14 601.682C1962.1 708.416 1994.42 796.301 2035.35 908.13L2038.73 917.046C2061.41 982.003 2077.05 1049.25 2084.35 1117.78C2086.44 1134.59 2087.74 1151.91 2088.78 1168.73C2089.83 1185.54 2090.35 1200.82 2090.35 1216.62C2090.87 1333.03 2067.67 1434.16 2021.01 1516.7C2013.19 1531.22 2004.33 1544.72 1994.94 1557.96L1991.03 1564.33L1990.51 1565.35C1827.07 1804.8 1586.21 1954.08 1311.99 1985.92H1309.64L1199.12 2092.4L1089.64 1985.41H1087.03C813.067 1954.08 572.209 1804.8 408.508 1564.84L408.247 1563.82L404.337 1557.96C394.953 1544.72 386.091 1531.22 378.27 1516.7C331.871 1434.16 308.411 1333.03 308.932 1216.62C308.411 1200.82 308.932 1184.52 309.975 1168.73Z" fill="white"/>
<path d="M138.985 1406.9L136.899 1404.1L52.4424 1440.53C47.4897 1442.31 42.2763 1440.53 40.1909 1436.2C35.2382 1429.06 31.3282 1420.66 27.9394 1412.51C21.4227 1398.24 19.598 1382.45 22.9868 1366.91C27.4181 1354.17 37.3236 1343.47 50.6177 1338.63L256.286 1246.42L257.85 1245.91C263.845 1243.62 270.101 1242.09 276.618 1242.09C282.874 1242.09 289.391 1243.62 294.604 1245.91C294.604 1251.26 294.604 1257.12 295.126 1262.47C289.391 1258.39 282.353 1256.61 275.575 1256.61C271.144 1256.61 267.234 1257.63 263.324 1258.9L261.76 1259.41C251.333 1265.78 244.556 1276.22 242.992 1288.2C240.646 1306.03 242.992 1324.88 251.333 1341.18L252.897 1345C254.983 1349.84 252.376 1354.94 247.423 1356.97L149.672 1399.26L153.061 1404.1C162.445 1417.35 169.483 1431.87 174.436 1447.15L160.62 1452.5C156.189 1434.67 148.89 1419.89 138.985 1406.9Z" fill="white"/>
<path d="M2380.99 1535.17C2198.79 1982.23 1768.94 2286.13 1277.32 2315.68C1276.28 2315.68 1274.71 2316.19 1274.19 2317.21L1199.12 2389.81L1124.31 2317.21C1123.52 2316.19 1122.48 2315.68 1121.44 2315.68C630.077 2286.13 200.233 1982.23 17.504 1535.17L10.2053 1517.33L293.553 1410.85C301.112 1408.05 308.932 1410.35 313.364 1416.71V1416.97C316.231 1421.81 320.141 1426.14 324.051 1429.96C326.658 1437.35 329.004 1444.48 331.611 1451.61C319.099 1446.26 308.932 1437.35 302.155 1426.14L301.112 1424.87C300.591 1423.85 299.027 1423.34 297.724 1423.85L277.391 1431.49L268.529 1435.31L270.093 1439.64L272.178 1443.97C280.519 1464.09 289.382 1483.71 299.027 1503.07L303.458 1511.73L312.843 1508.16L350.118 1495.43C352.204 1499.76 354.55 1504.09 356.635 1508.16L319.62 1521.16L310.497 1524.72C311.8 1527.52 313.364 1530.33 314.928 1532.87C389.479 1671.45 497.657 1790.16 629.295 1879.82C779.18 1982.23 954.871 2041.58 1137.08 2052.28L1152.46 2067.06C961.909 2058.9 777.095 1998.02 620.432 1891.29C456.732 1780.48 330.568 1624.83 256.277 1444.48L254.974 1440.15L28.9735 1524.72L30.2769 1529.05C211.703 1973.57 639.983 2274.41 1128.74 2300.9L1195.21 2364.84L1198.6 2367.65L1268.46 2299.89C1756.69 2273.65 2185.49 1972.55 2366.92 1528.54L2368.22 1524.21L2142.22 1439.13L2140.92 1443.46C2066.63 1624.07 1940.46 1779.46 1776.76 1890.52C1620.1 1997 1435.29 2057.89 1244.21 2066.04L1260.12 2050.75C1442.32 2040.31 1618.28 1980.7 1767.9 1878.55C1899.54 1789.14 2007.19 1670.18 2082.53 1531.35L2086.96 1523.19L2077.57 1519.88L2040.56 1506.89C2042.64 1502.56 2044.99 1498.23 2047.08 1493.9L2084.35 1506.89L2093.74 1510.2L2098.17 1501.54C2108.07 1482.44 2116.68 1462.31 2125.28 1442.44L2127.1 1438.11L2128.67 1433.78L2119.8 1430.47L2099.73 1422.83C2098.69 1422.32 2097.12 1422.83 2096.08 1423.85L2095.3 1425.12C2088.26 1436.33 2078.1 1445.5 2065.58 1450.59C2068.19 1443.46 2070.54 1436.84 2073.14 1429.2C2077.57 1425.12 2080.96 1420.53 2084.35 1415.69V1415.19C2088.78 1408.82 2096.6 1406.01 2103.9 1409.33L2387.51 1516.06L2380.99 1535.17Z" fill="white"/>
<path d="M1205.11 2227.41C1206.94 2227.41 1209.02 2228.68 1209.02 2231.23V2231.74V2240.4C1209.02 2242.19 1207.46 2244.22 1205.37 2244.22L1161.32 2243.71C1159.24 2243.71 1157.41 2242.19 1156.89 2239.89V2231.23C1156.89 2229.19 1158.19 2227.41 1160.28 2226.9C1160.8 2226.9 1160.8 2226.9 1161.32 2226.9H1169.14L1170.71 2145.64H1161.84C1159.76 2145.64 1157.93 2144.37 1157.93 2141.82V2141.31V2132.65C1157.93 2130.87 1159.24 2128.83 1161.32 2128.83C1161.32 2128.83 1161.32 2128.83 1161.84 2128.83L1207.46 2129.34C1209.28 2129.34 1211.37 2130.87 1211.89 2133.16V2142.33C1211.89 2144.37 1210.33 2146.15 1208.5 2146.66C1207.98 2146.66 1207.98 2146.66 1207.46 2146.66H1198.08L1196.51 2227.92H1205.11V2227.41Z" fill="white"/>
<path d="M1119.61 2132.56L1106.32 2236.74C1105.8 2241.07 1103.71 2241.58 1100.85 2241.07L1086.51 2239.29C1083.64 2238.78 1081.3 2237.25 1079.73 2234.96L1037.5 2163.38H1036.98L1028.64 2227.32C1028.12 2231.14 1026.29 2232.16 1022.64 2231.65L1007 2229.61C1003.09 2229.1 1001.53 2228.08 1002.05 2224.26L1015.35 2119.82C1015.87 2115.49 1017.69 2114.98 1021.86 2115.49L1035.94 2117.27C1039.07 2117.27 1041.41 2119.31 1042.46 2121.6L1084.68 2193.69H1085.21L1093.55 2128.74C1094.07 2125.42 1095.89 2124.4 1099.28 2124.4L1115.96 2126.44C1119.87 2127.46 1119.87 2129.75 1119.61 2132.56Z" fill="white"/>
<path d="M878.221 2124.3L894.382 2138.05C905.852 2147.73 911.326 2158.69 906.894 2173.21C899.856 2196.13 876.917 2203.77 854.239 2197.15C842.509 2193.84 831.561 2188.49 821.395 2181.36C818.788 2179.83 818.267 2178.3 818.788 2177.03C819.31 2176.01 819.831 2174.99 820.352 2174.48L828.694 2163.02C829.736 2161.74 831.04 2160.72 833.125 2161.23C834.168 2161.74 834.95 2162 835.471 2162.51C843.03 2167.86 850.851 2172.19 859.713 2174.99C866.491 2177.03 876.396 2176.01 878.742 2168.37C880.827 2162 876.917 2157.67 872.486 2153.85L853.196 2137.54C842.509 2129.39 838.078 2115.89 841.988 2103.15C848.244 2082.78 873.007 2077.68 892.036 2082.78C903.245 2085.83 913.672 2091.44 922.535 2098.82C924.881 2100.61 925.402 2102.14 924.881 2103.41C924.359 2104.43 924.099 2104.94 923.577 2105.96L914.714 2116.91C913.151 2118.95 912.108 2119.46 910.804 2118.95C909.762 2118.44 908.719 2117.93 908.198 2117.42C902.463 2112.07 894.904 2108.25 887.605 2105.96C881.349 2103.92 873.007 2104.43 870.401 2111.82C869.358 2115.89 874.832 2121.24 878.221 2124.3Z" fill="white"/>
<path d="M782.049 2152.9C783.874 2153.67 784.916 2155.71 784.395 2157.49V2158L781.006 2166.15C780.485 2168.19 778.139 2169.21 776.053 2168.7L735.389 2152.9C733.304 2152.39 732 2149.85 732.782 2148.06L736.432 2139.91C736.692 2137.87 738.778 2136.6 741.124 2136.85C741.645 2136.85 741.645 2136.85 742.166 2137.36L749.465 2140.42L781.006 2065.02L772.665 2061.71C770.579 2060.69 769.797 2058.65 770.319 2056.87V2056.36L773.707 2048.21C774.229 2046.17 776.575 2045.15 778.66 2045.66L821.41 2062.47C823.235 2062.98 824.799 2065.53 823.756 2067.31L820.367 2075.46C819.846 2077.5 817.761 2078.77 815.415 2078.27C814.893 2078.27 814.893 2078.27 814.372 2078.01L806.03 2074.44L774.75 2149.85L782.049 2152.9Z" fill="white"/>
<path d="M654.853 2010.27C651.725 2008.74 651.464 2006.45 652.768 2003.91L658.763 1992.95C659.806 1990.91 661.63 1990.15 663.716 1990.66C664.237 1990.66 664.237 1990.91 664.498 1990.91L738.267 2028.36L746.087 2032.44C749.215 2033.71 749.215 2035.24 748.173 2037.02V2037.53L740.874 2048.74C738.788 2051.54 736.442 2051.03 733.314 2049.5L706.726 2036.26L664.237 2115.48C662.152 2118.79 661.63 2118.79 658.763 2117.26L641.559 2108.6C638.17 2107.33 638.17 2106.31 639.995 2103.25L682.744 2023.77L654.853 2010.27Z" fill="white"/>
<path d="M623.818 1965.87L608.96 1956.7C607.136 1955.17 603.747 1955.17 601.662 1957.21L507.821 2024.71C507.299 2025.22 506.778 2025.73 506.517 2026.24C505.475 2027.26 505.996 2028.53 506.778 2029.55C506.778 2029.55 506.778 2029.55 507.299 2029.55L523.721 2039.74C525.546 2041.02 528.413 2040.76 529.977 2039.23L547.182 2026.24L552.134 2029.55L577.159 2045.35L582.633 2048.91L577.68 2068.53C576.637 2071.33 577.68 2074.64 580.547 2075.66L596.709 2085.85C598.273 2086.87 600.358 2086.87 601.14 2085.34C601.14 2085.34 601.14 2084.83 601.662 2084.83C602.183 2083.81 602.704 2083.3 602.704 2082.54L627.207 1971.98C627.207 1969.69 626.164 1967.14 623.818 1965.87ZM596.709 1995.16L587.585 2028.28L563.864 2013.25L591.495 1991.6C594.363 1989.31 597.23 1987.27 599.315 1985.48C598.794 1988.29 597.752 1991.09 596.709 1995.16Z" fill="white"/>
<path d="M483.323 1954.99L472.114 1932.82C465.076 1921.36 466.64 1907.1 474.981 1896.91C488.797 1880.6 513.3 1884.42 528.94 1896.91C537.803 1903.53 545.623 1912.7 551.097 1922.38C552.661 1924.67 552.661 1926.71 551.618 1927.73C551.097 1928.24 550.054 1928.49 549.533 1929L537.281 1935.88C535.457 1936.64 533.893 1936.64 532.85 1935.88C532.068 1935.37 531.547 1934.35 531.025 1933.33C527.637 1926.71 522.163 1920.34 516.167 1915.25C510.954 1910.92 502.873 1908.37 498.181 1914.23C494.532 1918.56 498.181 1925.18 500.006 1929L509.911 1947.34C516.167 1960.34 517.21 1972.31 507.826 1984.28C492.186 2003.13 468.204 2001.6 449.957 1987.59C440.573 1980.46 432.232 1971.29 425.715 1961.35C424.412 1958.81 424.412 1957.53 425.454 1956.51C425.715 1956 426.758 1954.99 427.8 1954.48L440.052 1946.83C441.616 1945.82 443.44 1945.82 445.004 1946.83C446.047 1947.34 446.568 1948.36 447.09 1949.13C451.26 1957.02 457.256 1963.65 464.555 1969.51C470.029 1973.84 479.934 1976.64 484.887 1970.27C487.233 1965.94 487.233 1959.83 483.323 1954.99Z" fill="white"/>
<path d="M366.281 1882.89C367.845 1884.42 368.366 1887.22 366.281 1888.75L366.02 1889.26L356.636 1897.92C355.072 1899.7 352.205 1899.7 350.12 1898.43C349.598 1897.92 349.598 1897.92 349.077 1897.41L305.024 1850.79C302.417 1848.5 302.156 1846.46 305.024 1843.15L385.049 1772.08C386.613 1770.3 389.48 1770.3 391.045 1771.57L391.566 1772.08L403.296 1784.56C405.642 1787.36 405.642 1788.89 403.296 1791.69L336.825 1851.81L366.281 1882.89Z" fill="white"/>
<path d="M281.309 1797.59C282.873 1799.38 282.351 1801.92 280.787 1802.94C280.787 1802.94 280.527 1802.94 280.527 1803.45L272.967 1808.55C271.664 1810.07 269.057 1809.57 267.754 1808.04L240.644 1774.41C239.08 1773.14 239.08 1770.34 241.166 1769.32L248.464 1763.97C250.028 1762.44 252.374 1762.44 253.938 1763.97C253.938 1763.97 254.46 1764.48 254.46 1764.99L259.412 1771.1L325.622 1721.68L319.627 1714.55C318.324 1712.51 318.845 1710.22 320.148 1709.2C320.148 1709.2 320.67 1709.2 320.67 1708.69L327.968 1703.59C329.532 1702.07 331.879 1702.58 333.443 1703.85L361.595 1739.51C362.898 1741.04 362.898 1743.84 361.073 1744.86L353.514 1749.96C352.211 1751.49 349.604 1751.49 348.301 1749.96C348.301 1749.96 347.779 1749.45 347.779 1749.19L342.305 1741.81L276.095 1791.22L281.309 1797.59Z" fill="white"/>
<path d="M231.239 1634.41L174.673 1668.04C172.849 1669.56 169.981 1669.56 168.417 1667.53C167.896 1667.02 167.896 1666.51 167.375 1666.25L159.033 1653.26C157.208 1649.69 156.687 1647.91 160.597 1645.87L252.874 1590.85C256.784 1588.3 258.348 1589.83 260.173 1592.63L267.732 1604.1C269.036 1606.64 269.557 1609.45 267.993 1611.99L236.713 1688.67L294.06 1655.04C297.709 1653.26 299.534 1654.02 301.098 1657.08L309.961 1670.84C312.307 1674.66 310.482 1676.19 307.875 1677.21L215.598 1732.48C211.688 1734.78 210.124 1733.25 208.3 1730.96L200.74 1718.98C199.437 1716.44 198.915 1713.63 200.219 1710.83L231.239 1634.41Z" fill="white"/>
<path d="M1274.73 2157.42C1275.25 2162.51 1282.02 2165.57 1286.46 2166.84L1306.79 2174.23C1320.34 2178.81 1330.25 2186.97 1331.29 2202.51C1333.12 2226.45 1314.61 2241.73 1291.41 2243.26C1279.16 2244.28 1266.91 2242.75 1255.18 2239.95C1252.05 2239.44 1251.26 2237.91 1251.26 2236.64C1251.26 2235.62 1251.27 2234.6 1251.79 2233.58L1255.18 2219.83C1255.7 2218.3 1256.22 2216.26 1258.56 2216.26C1259.61 2216.26 1260.65 2216.26 1261.43 2216.77C1270.29 2219.32 1279.68 2220.59 1288.54 2219.83C1295.84 2219.32 1304.18 2214.99 1303.66 2206.84C1303.14 2200.47 1297.92 2197.67 1292.45 2195.63L1268.99 2186.97C1256.22 2183.15 1246.83 2172.19 1245.27 2158.69C1243.44 2137.55 1264.56 2124.3 1284.63 2122.26C1296.36 2121.24 1307.57 2122.77 1319.04 2126.08C1321.91 2127.1 1322.95 2128.12 1322.95 2129.4C1322.95 2130.41 1322.95 2131.43 1322.43 2131.94L1318 2145.19C1317.47 2147.74 1316.43 2148.76 1315.13 2148.76C1314.09 2148.76 1313.04 2148.76 1312 2148.25C1304.7 2145.7 1296.36 2144.43 1288.54 2144.93C1281.76 2146.21 1274.2 2149.52 1274.73 2157.42Z" fill="white"/>
<path d="M1413.39 2208.15L1421.73 2206.88C1423.56 2206.37 1426.17 2207.64 1426.69 2209.68V2210.19L1427.99 2218.85C1428.51 2220.63 1426.95 2222.67 1425.12 2223.18L1381.85 2230.31C1379.77 2230.82 1377.42 2229.29 1376.9 2227.51L1375.6 2218.85C1375.07 2216.81 1375.86 2214.52 1377.94 2214.01C1378.46 2214.01 1378.46 2214.01 1378.98 2214.01L1386.8 2212.48L1372.47 2132.49L1363.6 2133.77C1361.78 2134.28 1359.17 2132.75 1358.65 2130.46V2129.95L1356.83 2121.28C1356.31 2119.5 1357.87 2117.46 1359.69 2116.95C1359.69 2116.95 1359.69 2116.95 1360.22 2116.95L1405.31 2109.31C1407.4 2108.8 1409.74 2110.33 1410.26 2112.11L1411.83 2120.78C1412.35 2122.81 1411.31 2125.11 1409.48 2125.62C1408.96 2125.62 1408.96 2125.62 1408.44 2125.62L1399.06 2127.14L1413.39 2208.15Z" fill="white"/>
<path d="M1611.23 2112.11C1600.02 2080.02 1575 2061.42 1541.11 2072.37C1508.53 2082.82 1497.32 2112.62 1509.05 2146.76C1520.78 2180.38 1546.85 2197.2 1579.43 2186.75C1609.67 2176.05 1623.48 2147.27 1611.23 2112.11ZM1572.91 2164.59C1557.8 2169.94 1545.02 2161.79 1536.68 2136.82C1528.86 2113.64 1533.55 2098.36 1547.89 2093.52C1563.01 2088.68 1575.52 2095.81 1584.12 2121.28C1592.99 2146.76 1586.73 2159.75 1572.91 2164.59Z" fill="white"/>
<path d="M1817.7 2070.87C1819.53 2074.44 1819.53 2074.69 1816.66 2076.73L1799.98 2086.41C1797.11 2088.19 1796.59 2087.69 1794.5 2084.88L1746.8 2007.95L1719.95 2023.49C1716.82 2025.27 1715 2024.51 1713.43 2021.45L1707.18 2011.01C1705.61 2009.48 1706.13 2007.19 1707.96 2005.66C1708.48 2005.66 1708.48 2005.15 1709 2005.15L1780.69 1963.88L1788.25 1959.55C1790.59 1958.02 1792.68 1958.53 1793.46 1960.57L1793.98 1961.08L1799.98 1973.05C1801.54 1975.86 1799.98 1977.89 1797.11 1979.17L1771.04 1994.2L1817.7 2070.87Z" fill="white"/>
<path d="M1904.49 1997.96L1911.01 1993.12C1912.83 1991.59 1915.44 1992.1 1916.74 1993.63C1916.74 1993.63 1916.74 1994.14 1917.26 1994.14L1922.74 2001.27C1924.3 2002.8 1923.78 2005.1 1922.21 2006.62C1922.21 2006.62 1922.21 2006.62 1921.69 2006.62L1886.5 2032.1C1884.94 2033.37 1882.33 2032.86 1881.03 2031.59L1875.56 2024.46C1873.99 2022.93 1873.99 2020.38 1875.56 2019.11C1875.56 2019.11 1876.08 2018.6 1876.6 2018.6L1882.85 2014.27L1832.81 1948.54L1825.51 1953.64C1823.42 1955.17 1821.08 1954.66 1819.51 1953.38C1819.51 1953.38 1819.51 1952.87 1818.99 1952.87L1813.78 1945.49C1812.21 1944.21 1812.73 1941.67 1814.3 1940.39C1814.3 1940.39 1814.3 1940.39 1814.56 1940.39L1851.57 1913.9C1852.88 1912.37 1856 1912.37 1857.31 1914.41L1862.78 1921.54C1864.35 1923.07 1864.35 1925.36 1862.78 1926.89C1862.78 1926.89 1862.26 1927.4 1861.74 1927.4L1854.44 1932.75L1904.49 1997.96Z" fill="white"/>
<path d="M1955.58 1832.76C1954.28 1829.7 1955.06 1826.39 1957.67 1824.86L1966.53 1817.22C1968.88 1814.93 1970.96 1814.93 1972.79 1817.22L2050.99 1891.09L2051.51 1891.6C2053.33 1893.13 2053.33 1895.43 2052.55 1897.46C2052.55 1897.97 2052.03 1897.97 2051.51 1898.48L2038.73 1909.95C2035.35 1912.75 2033.26 1911.73 2029.87 1908.42L1988.69 1868.17L2011.63 1929.05C2012.67 1931.6 2012.15 1933.89 2010.06 1935.42L2005.89 1939.75C2003.81 1942.04 2000.94 1942.55 1997.81 1941.53L1933.95 1917.59L1974.35 1961.4C1977.74 1964.71 1976.17 1966.5 1973.83 1969.04L1963.4 1978.21C1960.53 1980.51 1958.19 1981.02 1955.58 1978.21L1955.06 1977.71L1884.94 1898.48C1882.33 1895.43 1882.33 1893.13 1884.94 1891.09L1893.8 1882.94C1895.63 1880.65 1899.28 1880.14 1902.14 1881.67L1982.69 1911.73L1955.58 1832.76Z" fill="white"/>
<path d="M2088.79 1773.75L2043.17 1737.06C2040.57 1735.28 2041.09 1732.99 2043.17 1730.95L2053.86 1717.96C2055.94 1715.67 2057.77 1714.65 2060.38 1716.94L2107.04 1754.89C2136.49 1778.84 2137.53 1803.8 2116.42 1828.51C2093.74 1854.75 2068.72 1854.75 2041.09 1832.33L1993.91 1794.38C1991.56 1792.34 1992.08 1790.05 1993.91 1788.01L2004.85 1775.02C2006.68 1772.73 2008.76 1771.71 2011.11 1774.25L2056.47 1810.68C2077.06 1827.49 2089.31 1824.95 2099.22 1813.48C2109.9 1801 2109.38 1790.05 2088.79 1773.75Z" fill="white"/>
<path d="M2132.59 1611.03C2130.51 1608.48 2130.51 1605.17 2132.59 1602.88L2138.85 1592.69C2140.93 1589.89 2142.24 1589.38 2145.36 1590.91L2241.03 1642.11H2241.55C2243.64 1643.13 2244.94 1645.16 2244.16 1647.46C2244.16 1647.97 2243.64 1648.48 2243.11 1648.99L2233.73 1662.74C2231.38 1666.56 2228.78 1666.31 2224.87 1663.76L2174.3 1634.97L2213.14 1688.21C2214.7 1690.25 2214.7 1692.55 2213.14 1694.58L2209.75 1699.68C2208.71 1703.24 2205.84 1705.03 2202.19 1704.52L2133.89 1697.39L2184.72 1729.48C2188.63 1732.03 2188.11 1733.81 2186.03 1737.12L2178.73 1748.84C2176.64 1752.15 2174.3 1753.17 2171.43 1751.13H2170.91L2082.02 1692.04C2078.37 1689.74 2078.37 1687.71 2079.94 1684.9L2086.45 1674.71C2087.76 1671.91 2090.88 1670.64 2094.27 1671.4L2179.77 1680.06L2132.59 1611.03Z" fill="white"/>
<path d="M1706.12 2048.23C1702.21 2040.08 1695.17 2033.2 1686.83 2029.38C1675.1 2024.54 1661.02 2027.09 1643.3 2035.24L1619.06 2046.19C1615.67 2047.72 1614.62 2049.25 1616.71 2053.07L1662.33 2148.09C1663.89 2151.4 1666.24 2151.91 1668.84 2150.38L1684.48 2143.25C1687.87 2141.72 1688.39 2139.93 1686.83 2136.88L1672.23 2105.8C1674.06 2105.29 1678.49 2103.25 1681.09 2102.49C1705.08 2092.3 1717.85 2072.17 1706.12 2048.23ZM1672.23 2084.66C1670.67 2085.17 1665.72 2087.46 1663.89 2088.48L1648.25 2055.87L1655.55 2052.56C1667.28 2047.21 1676.14 2049.25 1681.62 2060.71C1687.35 2071.66 1683.96 2079.31 1672.23 2084.66Z" fill="white"/>
<path d="M236.207 1340.67C228.908 1322.84 226.823 1303.74 229.69 1284.89C229.69 1283.36 230.211 1282.59 230.211 1281.07L232.297 1271.89L55.8236 1351.12C46.7002 1354.43 39.6622 1361.31 36.7948 1370.48C31.3208 1388.56 42.5295 1412.25 48.0036 1421.68L50.089 1425.5L237.771 1345L236.207 1340.67Z" fill="#003399"/>
<path d="M2162.55 1340.67C2169.85 1322.84 2171.94 1303.74 2168.81 1284.89C2168.81 1283.36 2168.29 1282.59 2168.29 1281.07L2166.46 1271.89L2342.68 1350.61C2352.06 1354.17 2359.1 1360.8 2361.96 1369.97C2367.44 1388.05 2355.97 1411.74 2350.76 1421.17L2348.67 1424.99L2161.51 1344.49L2162.55 1340.67Z" fill="#014593"/>
<path d="M2085.92 344.909L1768.42 62.1515C1693.87 110.042 1596.12 138.827 1488.98 138.827C1376.9 138.827 1275.23 107.24 1199.64 55.5283C1124.05 107.24 1022.12 138.827 910.297 138.827C803.162 138.827 705.411 110.042 630.598 62.1515L313.364 344.909C313.364 344.909 466.637 487.052 467.68 601.683C468.462 717.079 433.272 810.058 390.001 927.746C368.365 990.666 353.507 1055.37 346.208 1121.09C344.383 1137.14 342.819 1153.44 341.777 1170.26C340.734 1185.54 340.473 1200.82 340.473 1216.36C339.952 1311.89 356.635 1413.53 405.641 1501.41C412.939 1514.91 421.281 1527.4 430.144 1539.88C455.689 1575.8 663.703 1911.54 1104.76 1955.61L1199.64 2048.33L1294.52 1955.61C1735.58 1911.79 1942.81 1575.8 1968.88 1539.88C1977.74 1527.4 1985.56 1514.4 1993.38 1501.41C2042.64 1413.53 2058.81 1311.89 2058.81 1216.36C2058.81 1200.82 2058.29 1185.54 2057.24 1170.26C2056.46 1153.44 2054.9 1137.14 2052.81 1121.09C2045.51 1055.37 2031.44 990.157 2009.28 927.746C1966.53 810.058 1931.08 717.079 1932.12 601.683C1933.16 486.543 2085.92 344.909 2085.92 344.909Z" fill="#003399"/>
<path d="M986.924 621.043L1176.95 225.947C1170.17 210.917 1181.9 192.321 1196.5 192.321C1211.36 192.321 1225.18 210.917 1218.14 225.947L1410.25 619.514C1442.83 634.799 1456.91 654.668 1455.61 667.405C1453.52 680.397 1444.14 691.095 1431.89 694.916C1432.41 766.497 1429.54 1019.45 1430.58 1163.38C1446.74 1166.69 1446.74 1183.5 1445.18 1238.27C1444.14 1290.75 1448.57 1308.07 1413.38 1308.07C1408.43 1308.07 1399.04 1307.56 1399.04 1307.56V1289.73C1398.52 1281.07 1398.52 1278.26 1393.57 1276.23C1378.97 1270.62 1363.07 1265.27 1345.87 1258.9C1334.14 1254.57 970.241 1127.97 970.241 1127.97C960.857 1125.17 954.34 1116.76 953.558 1107.33C953.558 1105.81 953.558 1091.8 953.558 1087.72C953.558 1068.36 953.558 1056.9 953.558 1037.28C953.558 1024.29 962.421 1019.45 970.241 1020.47C970.763 1020.47 970.763 1018.94 970.241 1018.43C970.241 971.306 969.72 726.504 969.72 701.03C960.336 698.738 952.516 692.879 948.084 684.218C940.786 665.622 949.127 640.658 986.924 621.043Z" fill="white"/>
<path d="M1128.48 1070.4C1046.89 1042.89 1010.39 1028.11 1009.35 1004.93C1009.09 990.666 1007.01 931.567 1008.57 916.283L1007.01 695.426C1007.01 689.058 1017.69 684.727 1028.12 682.435C1038.55 679.887 1097.46 667.15 1197.55 667.15C1297.91 667.15 1368.03 678.614 1385.76 685.746C1389.67 687.275 1393.58 689.058 1397.49 691.605V710.71C1380.28 708.418 1315.9 699.757 1288.01 697.719C1275.23 696.7 1258.55 696.445 1242.39 695.936C1242.39 692.115 1239.26 689.058 1235.35 689.058C1207.46 687.784 1179.57 687.784 1151.94 689.058C1149.85 689.058 1148.03 690.077 1146.98 691.605C1145.42 692.879 1145.16 694.917 1145.16 696.7L1149.85 781.272H1145.94C1128.48 782.801 1057.57 792.226 1053.14 793.754C1046.89 795.283 1045.32 797.066 1045.84 799.613C1046.89 803.435 1051.84 801.906 1057.05 801.397C1091.98 797.576 1124.05 795.792 1150.89 794.264L1151.42 807.765C1151.42 811.586 1154.8 814.388 1158.71 814.388C1182.44 812.86 1205.37 812.86 1229.1 814.388C1233.01 814.388 1236.39 811.586 1236.92 807.765L1237.44 794.264C1248.65 794.773 1254.64 795.283 1254.64 795.283C1305.21 799.613 1370.64 808.784 1399.05 825.342V845.211C1382.37 841.9 1340.14 833.239 1324.5 831.71C1313.55 830.691 1303.13 830.691 1292.44 831.71C1289.05 832.22 1286.44 834.003 1286.96 836.55C1287.49 838.843 1290.35 840.371 1294.52 840.881C1298.43 841.39 1361.25 843.683 1399.57 869.157V889.281C1377.42 884.95 1304.17 871.194 1253.6 868.647C1201.46 867.119 1149.59 869.157 1097.98 874.506C1091.46 875.525 1088.07 877.308 1088.59 880.62C1089.12 883.931 1090.16 885.46 1099.28 884.95C1105.8 884.441 1226.49 880.11 1290.09 889.281C1341.44 896.413 1376.9 905.074 1400.09 915.773V941.247C1379.5 936.916 1334.67 928.255 1311.73 926.727C1264.03 922.906 1234.05 923.415 1229.1 923.415C1224.14 923.415 1222.58 925.453 1222.58 928.255C1222.58 931.057 1226.23 931.567 1229.1 931.567C1256.21 932.586 1282.53 934.369 1309.12 938.7C1334.67 942.521 1374.03 948.38 1400.09 961.881V987.354C1386.28 985.826 1359.69 983.024 1348.48 982.514C1337.53 982.005 1326.33 982.005 1315.64 983.533C1312.51 983.788 1310.69 986.335 1311.21 988.118C1311.73 990.666 1314.07 991.939 1316.42 991.685C1331.28 991.939 1345.61 993.468 1359.69 996.015C1374.03 998.308 1387.84 1002.13 1400.62 1007.99C1400.62 1007.99 1400.62 1032.95 1400.62 1041.61C1400.62 1042.38 1371.16 1032.44 1342.49 1030.91C1319.03 1029.39 1295.31 1029.39 1271.85 1030.91C1269.76 1030.91 1264.55 1031.93 1264.55 1036.77C1264.55 1041.61 1270.28 1041.1 1273.41 1041.1C1288.01 1041.61 1300.26 1041.1 1326.85 1043.4C1352.39 1045.94 1376.9 1051.04 1401.14 1059.7C1401.14 1069.89 1401.14 1079.06 1401.14 1091.8C1401.14 1092.31 1384.72 1087.72 1359.17 1084.15C1347.44 1082.37 1335.71 1081.35 1323.46 1081.35C1319.03 1081.86 1314.6 1082.88 1314.07 1086.7C1314.07 1092.31 1324.5 1092.82 1328.41 1092.82C1332.32 1092.82 1343.53 1094.34 1363.08 1097.15C1375.85 1099.18 1388.63 1102.5 1401.14 1106.32C1401.14 1132.81 1401.14 1153.95 1401.14 1153.95C1320.33 1133.57 1213.46 1101.48 1128.48 1070.4Z" fill="#003399"/>
<path d="M1199.64 268.487L1220.75 312.811C1211.37 313.321 1201.99 314.085 1192.6 316.123C1187.91 317.142 1186.87 318.925 1186.87 320.454C1186.87 321.727 1188.69 324.275 1193.64 324.275C1204.07 324.275 1219.19 325.294 1226.49 325.803C1229.1 330.388 1230.92 335.228 1233.01 340.068C1227.53 341.597 1219.71 343.889 1217.37 344.908C1213.72 346.437 1210.33 347.201 1210.85 350.258C1211.37 353.06 1214.76 352.55 1217.89 353.06C1225.19 354.079 1232.48 354.588 1239.78 354.588L1250.21 376.496C1252.56 381.845 1245.26 382.864 1239 382.864C1231.44 383.374 1212.93 383.373 1204.07 384.138C1200.68 384.647 1199.12 386.685 1199.12 388.468C1199.12 390.506 1201.46 392.034 1205.11 392.544C1217.37 392.799 1229.62 394.327 1241.87 395.856C1248.65 396.62 1255.16 398.658 1261.42 400.696C1264.03 405.79 1266.37 410.63 1268.98 415.47C1270.28 418.272 1266.37 419.801 1263.5 419.801C1258.55 420.31 1237.44 418.782 1226.23 419.801C1221.28 420.31 1220.23 421.329 1220.23 424.131C1220.23 426.933 1221.28 426.933 1226.23 427.952C1235.09 429.481 1253.6 430.245 1259.59 430.754C1266.37 431.773 1273.41 433.811 1280.19 436.613L1290.35 458.266C1291.92 461.578 1290.09 462.597 1287.49 463.106C1284.1 463.106 1245.26 463.361 1242.39 463.87C1239 463.87 1234.05 465.399 1233.53 468.201C1233.01 471.258 1236.39 474.06 1245.26 474.569C1254.12 475.079 1288.01 476.862 1305.73 489.344L1319.55 518.129C1306.25 516.855 1260.64 513.289 1239.26 513.799C1221.28 514.308 1213.72 513.799 1213.46 517.365C1212.93 520.676 1216.32 522.46 1227.53 523.479C1239 524.497 1298.43 527.809 1329.71 539.782L1346.4 573.916C1320.33 569.076 1294.52 565.765 1267.94 564.236C1259.07 564.236 1255.68 565.765 1255.68 569.586C1255.68 573.407 1264.03 573.916 1269.24 574.426C1298.96 577.737 1327.89 584.106 1356.3 593.022L1360.21 601.683C1306.78 592.257 1252.03 586.908 1197.55 585.889C1144.64 586.398 1091.46 592.257 1039.85 602.702C1054.71 571.879 1149.07 375.222 1199.64 268.487Z" fill="#003399"/>
<path d="M1330.24 1154.04L1289.05 1141.82C1288.01 1141.56 1286.44 1141.82 1286.18 1142.84C1286.18 1143.34 1286.18 1143.34 1286.18 1143.85C1286.18 1171.62 1286.18 1186.14 1286.18 1212.89C1286.18 1214.93 1287.49 1216.45 1289.05 1216.71L1330.24 1230.72C1331.28 1231.23 1332.84 1230.72 1333.1 1229.7C1333.1 1229.45 1333.1 1229.45 1333.1 1228.94C1333.1 1201.93 1333.1 1187.16 1333.1 1157.86C1333.1 1155.83 1331.8 1154.3 1330.24 1154.04Z" fill="#014593"/>
<path d="M1261.42 1133.27C1244.74 1128.43 1236.92 1125.37 1220.23 1120.28C1219.19 1119.77 1217.89 1120.28 1217.37 1121.04C1217.37 1121.55 1217.37 1121.55 1217.37 1122.06C1217.37 1149.06 1217.37 1162.56 1217.37 1188.8C1217.37 1190.84 1218.67 1192.11 1220.23 1192.62L1261.42 1206.63C1262.98 1207.14 1264.55 1206.63 1264.55 1204.59C1264.55 1177.85 1264.55 1163.84 1264.55 1136.07C1264.55 1135.05 1262.98 1134.03 1261.42 1133.27Z" fill="#014593"/>
<path d="M1124.05 1088.94C1107.1 1083.33 1099.28 1080.27 1082.6 1074.67C1081.3 1074.16 1079.73 1074.67 1079.73 1075.94C1079.73 1101.42 1079.73 1115.43 1079.73 1141.67C1079.73 1143.7 1081.3 1145.23 1082.6 1145.74L1124.05 1160.01C1125.35 1160.52 1126.91 1160.01 1126.91 1158.22C1126.91 1131.73 1126.91 1118.23 1126.91 1092.25C1126.39 1090.97 1125.35 1089.44 1124.05 1088.94Z" fill="#014593"/>
<path d="M1054.71 1064.47C1038.03 1058.61 1030.2 1055.3 1013.52 1049.7C1011.96 1049.19 1010.39 1049.7 1010.39 1051.48V1118.22C1010.39 1120.26 1011.96 1121.53 1013.52 1122.04C1030.2 1127.39 1038.03 1130.2 1054.71 1136.05C1056.01 1136.56 1057.58 1136.05 1057.58 1134.02C1057.58 1107.78 1057.58 1094.28 1057.58 1068.29C1057.58 1066.77 1056.53 1065.49 1054.71 1064.47Z" fill="#014593"/>
<path d="M1192.6 1112.11C1175.92 1106.76 1168.1 1103.95 1151.42 1098.61C1149.85 1098.1 1148.55 1098.61 1148.55 1100.39C1148.55 1125.86 1148.55 1139.87 1148.55 1166.37C1148.55 1168.15 1149.85 1169.68 1151.42 1170.19L1192.6 1184.45C1194.17 1184.96 1195.73 1184.45 1195.73 1182.67C1195.73 1156.18 1195.73 1142.17 1195.73 1116.44C1195.21 1113.89 1194.17 1112.62 1192.6 1112.11Z" fill="#014593"/>
<path d="M1304.69 741.024C1319.03 740.514 1333.1 741.533 1346.92 743.317C1363.08 745.354 1386.8 750.449 1397.49 752.997V734.656C1375.59 725.485 1324.5 717.079 1296.87 713.003C1279.67 710.71 1260.64 709.182 1241.87 707.908L1237.96 779.489L1254.12 779.744C1266.37 780.253 1279.14 781.272 1291.92 782.291C1327.89 785.603 1363.08 791.971 1398.53 800.123L1398.01 774.649C1370.12 751.978 1307.3 750.449 1303.65 750.449C1300.26 750.449 1296.35 749.685 1296.35 746.373C1296.35 742.298 1301.3 741.533 1304.69 741.024Z" fill="#014593"/>
<path d="M1008.06 666.678C1016.4 664.64 1080.27 642.224 1197.05 642.224C1314.61 642.224 1383.95 666.678 1392.29 670.499C1400.63 674.32 1409.75 676.613 1413.92 670.499C1416.79 663.112 1413.92 654.96 1406.36 651.139C1380.82 635.346 1290.89 615.221 1197.05 616.24C1102.94 617.259 1008.58 637.384 995.809 642.478C982.515 647.828 977.041 655.47 981.472 663.112C987.989 675.594 999.719 668.971 1008.06 666.678Z" fill="#003399"/>
<path d="M1398.53 1173.51L1357.87 1161.54C1356.82 1161.03 1355.26 1161.54 1354.74 1162.81C1354.74 1163.32 1354.74 1163.32 1354.74 1163.83C1354.74 1193.63 1354.74 1208.41 1354.74 1235.92C1354.74 1237.7 1356.3 1239.23 1357.87 1239.74L1399.05 1253.75C1400.09 1254.26 1401.4 1253.75 1401.92 1252.73C1401.92 1252.22 1401.92 1252.22 1401.92 1251.71V1177.84C1401.92 1175.8 1400.62 1174.53 1398.53 1173.51Z" fill="#014593"/>
<path d="M1173.57 800.436C1195.21 800.182 1221.8 800.436 1221.8 800.436L1226.49 708.477C1204.07 706.948 1167.58 708.986 1167.58 708.986L1173.57 800.436Z" fill="#014593"/>
<path d="M894.396 488.367C882.666 487.093 870.414 489.895 861.03 496.773C850.343 502.887 842.002 512.567 838.092 524.03C849.822 525.558 861.552 522.502 871.457 515.878C882.145 509.51 889.965 500.085 894.396 488.367Z" fill="white"/>
<path d="M845.377 320.964C845.899 308.482 842.51 296 834.95 285.301C829.216 274.857 819.31 266.706 808.101 262.375C807.58 274.857 810.969 287.339 818.268 297.783C824.263 308.482 833.647 316.634 845.377 320.964Z" fill="white"/>
<path d="M845.908 364.525C844.866 375.989 847.472 387.706 853.207 397.132C858.16 406.812 866.501 414.963 876.928 419.294C877.71 407.831 875.364 396.622 869.369 386.687C864.416 377.007 856.074 368.856 845.908 364.525Z" fill="white"/>
<path d="M864.171 336.247C870.948 325.293 873.815 312.811 872.512 299.82C872.512 287.338 868.081 274.855 860.261 264.666C853.223 275.874 850.355 288.356 851.398 301.093C851.659 314.085 856.09 326.057 864.171 336.247Z" fill="white"/>
<path d="M881.608 406.299C893.078 400.695 901.419 391.524 906.372 380.316C912.106 369.362 914.713 356.37 912.628 343.379C901.419 349.238 893.078 358.408 888.125 369.362C882.13 380.825 879.784 393.817 881.608 406.299Z" fill="white"/>
<path d="M836.006 348.731C843.826 356.373 854.253 360.704 864.94 361.213C862.594 350.26 856.599 340.58 847.736 333.447C839.916 325.805 829.75 321.474 818.802 320.965C821.669 331.919 827.665 341.599 836.006 348.731Z" fill="white"/>
<path d="M875.359 378.534C884.222 369.364 889.696 357.9 890.999 345.418C893.606 332.936 892.042 319.945 886.568 308.481C877.705 317.652 872.491 329.115 870.927 341.597C868.06 354.079 869.363 367.071 875.359 378.534Z" fill="white"/>
<path d="M918.117 445.679C906.387 444.151 894.135 446.953 884.23 453.831C873.282 459.945 864.94 469.625 861.03 481.088C873.021 482.616 885.273 479.814 894.396 472.936C905.344 466.823 913.686 457.143 918.117 445.679Z" fill="white"/>
<path d="M899.87 433.812C907.69 423.623 912.643 411.65 913.164 399.168C901.434 401.97 891.007 409.103 884.23 419.292C876.41 429.482 871.457 441.454 870.936 453.936C883.187 450.625 893.614 443.237 899.87 433.812Z" fill="white"/>
<path d="M846.441 488.836C855.304 479.92 860.517 468.202 862.081 455.21C864.427 442.728 863.124 429.991 857.129 418.273C848.266 427.444 843.052 438.907 841.488 451.389C838.882 464.381 840.446 477.372 846.441 488.836Z" fill="white"/>
<path d="M844.347 531.147C832.617 533.185 821.409 539.298 813.849 548.469C824.276 554.328 836.527 556.111 848.257 553.309C860.248 551.271 871.457 545.157 878.756 535.987C868.59 530.128 856.078 528.345 844.347 531.147Z" fill="white"/>
<path d="M596.19 481.088C591.759 469.625 583.939 459.945 573.251 453.831C563.346 446.953 551.616 444.151 539.885 445.679C544.317 457.143 552.658 466.823 563.346 472.936C572.73 479.814 584.46 482.616 596.19 481.088Z" fill="white"/>
<path d="M619.911 524.03C615.48 512.567 607.66 502.887 596.711 496.773C587.067 489.895 575.076 487.093 562.824 488.367C567.256 500.085 575.076 509.51 586.024 515.878C595.929 523.011 608.181 525.813 619.911 524.03Z" fill="white"/>
<path d="M643.371 548.469C635.551 539.298 624.864 533.185 613.133 531.147C601.143 528.345 588.891 530.128 578.725 535.987C586.545 545.157 597.233 551.271 608.963 553.309C620.954 556.111 633.205 554.837 643.371 548.469Z" fill="white"/>
<path d="M832.104 515.837C838.1 504.374 839.924 491.382 838.1 478.9C827.152 484.505 818.289 494.185 813.858 505.648C808.123 517.366 806.038 530.102 808.123 542.585C819.332 536.471 827.673 526.791 832.104 515.837Z" fill="white"/>
<path d="M613.394 573.326C623.3 579.95 635.551 582.497 647.281 580.459C659.793 579.695 670.481 573.836 678.822 565.175C668.917 558.552 656.665 556.005 644.935 558.042C633.205 559.316 621.736 564.665 613.394 573.326Z" fill="white"/>
<path d="M679.865 559.408C689.249 566.796 700.979 570.617 712.709 570.107C709.321 558.135 701.501 547.945 691.074 540.812C681.69 533.68 669.96 529.859 658.229 530.114C661.618 542.341 668.917 552.785 679.865 559.408Z" fill="white"/>
<path d="M619.394 478.9C617.308 491.382 619.394 504.374 625.389 515.837C629.821 527.3 638.683 536.471 649.371 542.33C651.456 529.848 649.371 516.856 643.375 505.138C638.944 494.185 630.603 484.505 619.394 478.9Z" fill="white"/>
<path d="M639.448 297.783C647.008 287.339 650.396 274.857 649.875 262.375C638.145 266.706 628.761 274.857 622.765 285.301C615.467 296 612.078 308.482 612.599 320.964C623.808 316.634 633.714 308.482 639.448 297.783Z" fill="white"/>
<path d="M621.475 348.731C630.077 341.599 636.073 331.409 638.679 320.965C627.731 321.474 617.304 325.805 610.006 333.447C601.143 340.58 595.408 350.26 592.802 361.213C603.75 360.704 613.394 356.373 621.475 348.731Z" fill="white"/>
<path d="M809.939 580.459C821.669 582.497 834.181 579.95 843.826 573.326C835.485 564.665 824.276 559.316 812.546 558.042C800.555 556.005 788.304 558.552 778.659 565.175C787 573.836 798.209 579.695 809.939 580.459Z" fill="white"/>
<path d="M687.164 575.341C675.434 577.634 664.486 584.257 657.187 593.937C668.135 599.287 680.386 600.306 691.595 596.739C703.325 594.447 713.752 588.078 720.529 579.163C722.093 580.436 723.918 581.965 725.482 583.493C710.363 592.154 697.069 603.617 686.121 617.373L697.591 634.695C705.411 617.118 715.577 601.07 729.392 586.805C742.165 600.56 752.07 617.118 759.369 634.186L770.578 617.118C760.412 603.617 748.16 592.154 733.302 582.984C734.866 581.455 736.691 579.927 738.255 578.653C745.554 587.824 755.98 593.937 767.189 596.485C778.659 599.796 790.91 598.777 801.598 593.428C787.522 576.106 763.801 568.973 742.165 575.596C737.734 577.125 733.824 579.163 729.914 581.455C726.525 579.672 723.136 578.144 719.226 576.106H717.662C707.757 573.304 697.069 572.794 687.164 575.341Z" fill="white"/>
<path d="M576.104 406.299C578.189 393.817 575.583 380.825 569.848 369.872C564.895 358.918 556.032 349.238 545.084 343.889C543.26 356.371 545.606 369.362 551.601 380.826C556.554 391.524 564.895 400.695 576.104 406.299Z" fill="white"/>
<path d="M778.137 559.446C788.304 552.314 796.124 542.379 799.773 530.661C787.782 530.152 776.052 533.718 766.668 541.36C756.502 548.493 748.682 558.682 745.032 570.655C757.023 570.655 768.753 567.343 778.137 559.446Z" fill="white"/>
<path d="M611.584 488.837C617.058 477.374 618.883 464.382 616.537 451.9C614.973 439.418 609.499 427.955 600.636 418.784C595.423 430.247 593.337 443.239 595.944 455.721C597.247 468.203 602.721 479.921 611.584 488.837Z" fill="white"/>
<path d="M544.838 398.657C545.099 411.139 549.53 423.621 557.872 433.301C564.91 443.236 575.076 450.623 587.067 453.426C586.545 440.943 582.114 428.461 573.772 418.781C566.734 409.101 556.568 401.969 544.838 398.657Z" fill="white"/>
<path d="M604.281 397.638C610.016 388.212 613.144 376.494 611.58 365.031C601.153 369.362 592.812 377.004 587.859 387.193C582.124 396.619 578.996 408.336 580.56 419.8C590.987 414.96 599.328 407.318 604.281 397.638Z" fill="white"/>
<path d="M605.579 301.093C606.622 288.611 604.276 275.874 597.238 264.666C589.418 274.855 584.986 287.338 584.986 299.82C583.422 312.302 586.55 325.293 593.328 336.247C601.148 326.057 605.579 314.085 605.579 301.093Z" fill="white"/>
<path d="M582.623 378.534C587.836 367.071 589.4 354.079 587.054 341.597C585.49 329.115 580.016 317.652 571.154 308.481C565.94 319.945 564.376 332.936 566.722 345.418C568.286 357.391 573.76 369.364 582.623 378.534Z" fill="white"/>
<path d="M870.936 515.878C861.03 522.502 849.3 525.558 837.57 524.03C842.001 512.567 849.822 502.887 860.509 496.773C870.414 489.895 882.145 487.093 894.135 488.367C889.965 500.085 881.623 509.51 870.936 515.878Z" fill="white"/>
<path d="M878.756 535.987C870.936 545.157 860.248 551.271 848.257 553.309C836.527 556.111 824.276 554.328 813.849 548.469C821.669 539.298 832.617 533.185 844.347 531.147C856.078 528.345 868.59 530.128 878.756 535.987Z" fill="white"/>
<path d="M876.941 419.29C866.515 414.96 858.695 407.318 853.22 397.638C847.486 388.212 844.358 376.494 845.922 365.031C856.088 369.362 864.429 377.004 869.382 387.193C875.377 396.619 877.723 407.827 876.941 419.29Z" fill="white"/>
<path d="M884.23 419.292C891.007 409.103 901.434 401.97 913.164 399.168C912.643 411.65 908.212 424.132 899.87 433.812C893.093 443.747 882.666 450.879 870.936 453.936C871.457 440.945 876.41 428.972 884.23 419.292Z" fill="white"/>
<path d="M857.129 418.273C862.603 429.991 864.427 442.728 862.081 455.21C860.517 467.692 855.304 479.41 846.441 488.836C840.967 477.372 838.882 464.381 841.488 451.899C843.052 439.417 848.266 427.953 857.129 418.273Z" fill="white"/>
<path d="M861.03 481.088C865.462 469.625 873.282 459.945 884.23 453.831C894.135 446.953 905.865 444.151 917.596 445.679C913.164 457.143 905.344 466.823 894.396 472.936C885.273 479.814 873.021 482.616 861.03 481.088Z" fill="white"/>
<path d="M912.628 343.379C914.713 355.861 912.106 368.853 906.372 380.316C901.419 391.524 892.556 400.949 881.608 406.299C879.784 393.817 882.13 380.825 888.125 369.872C893.078 358.408 901.419 349.238 912.628 343.379Z" fill="white"/>
<path d="M886.061 308.481C891.535 319.945 893.099 332.936 890.493 345.418C889.189 357.9 883.715 369.364 874.852 378.025C869.378 366.561 868.075 353.57 870.421 341.088C871.985 329.115 877.72 317.652 886.061 308.481Z" fill="white"/>
<path d="M860.261 264.666C868.081 274.855 872.512 287.338 872.512 299.82C873.815 312.302 870.948 325.293 864.171 336.247C856.09 326.057 851.658 314.085 851.658 301.603C850.355 288.611 853.222 275.874 860.261 264.666Z" fill="white"/>
<path d="M864.94 361.213C854.253 360.704 843.826 356.373 836.006 348.731C827.143 341.599 821.409 331.409 818.802 320.965C829.75 321.474 839.916 325.805 847.736 333.447C856.599 340.58 862.594 350.26 864.94 361.213Z" fill="white"/>
<path d="M808.101 262.375C819.832 266.706 829.216 274.857 834.95 285.301C842.51 296 845.899 308.482 845.377 320.964C833.647 316.634 824.263 308.482 818.268 297.783C810.969 287.339 807.58 274.857 808.101 262.375Z" fill="white"/>
<path d="M813.851 505.138C818.804 493.675 827.145 484.505 838.614 478.9C840.439 491.382 838.614 504.374 832.619 515.837C828.188 527.3 819.325 536.471 808.637 542.33C806.031 529.848 808.116 516.856 813.851 505.138Z" fill="white"/>
<path d="M812.024 558.242C824.276 559.261 834.963 564.865 843.305 573.526C833.66 580.149 821.408 582.697 809.418 580.659C797.166 579.895 786.479 574.036 778.137 565.375C788.303 559.261 800.294 556.204 812.024 558.242Z" fill="white"/>
<path d="M766.668 540.812C776.052 533.68 787.782 529.859 799.773 530.114C796.124 542.341 788.304 552.276 778.137 559.153C768.753 566.286 757.023 570.107 745.032 569.598C748.682 558.135 755.981 547.945 766.668 540.812Z" fill="white"/>
<path d="M717.662 576.623H718.184C722.094 578.151 725.482 579.935 728.871 581.973C732.781 579.935 736.691 578.151 741.123 576.114C762.758 569.49 787 576.623 800.555 593.945C789.868 599.295 777.616 600.314 766.407 596.747C754.938 594.455 744.772 588.086 737.212 579.17C735.909 580.444 733.824 581.972 732.26 583.501C747.118 592.162 759.891 603.625 769.796 617.381L758.327 634.703C751.028 617.381 741.122 601.078 728.35 587.322C715.316 601.078 704.368 617.381 696.548 635.212L685.339 617.89C696.027 604.135 709.321 592.417 724.44 584.01C723.136 582.482 721.051 580.954 719.487 579.68C712.188 588.596 702.022 594.964 690.553 597.257C679.344 600.568 667.092 599.804 656.144 594.455C663.704 584.775 673.87 578.151 686.121 575.604C697.069 572.293 707.757 572.802 717.662 576.623Z" fill="white"/>
<path d="M691.074 540.899C701.501 548.032 709.321 558.221 712.709 570.194C700.979 571.213 689.249 567.392 679.865 559.495C669.438 552.362 661.618 542.427 658.229 530.71C669.96 529.945 681.69 533.766 691.074 540.899Z" fill="white"/>
<path d="M678.822 565.375C670.481 574.036 659.793 579.895 647.281 580.659C635.551 582.697 623.3 580.149 613.394 573.526C621.736 564.865 633.205 559.516 644.935 558.242C657.187 556.204 668.917 559.261 678.822 565.375Z" fill="white"/>
<path d="M649.371 542.33C638.683 536.471 629.821 526.791 625.389 515.837C619.394 504.374 617.308 491.382 619.394 478.9C630.081 484.505 638.944 494.185 643.375 505.648C649.371 516.856 651.456 529.848 649.371 542.33Z" fill="white"/>
<path d="M622.271 285.301C628.266 274.857 638.172 266.706 649.38 262.375C649.902 274.857 646.513 287.339 638.954 297.783C633.219 308.482 623.313 316.634 612.105 320.964C611.583 308.482 615.493 296 622.271 285.301Z" fill="white"/>
<path d="M609.484 333.447C617.304 325.805 627.21 321.474 638.158 320.965C635.551 331.919 629.817 341.599 620.954 348.731C613.134 356.373 602.707 360.704 591.759 361.213C594.887 350.769 600.622 340.58 609.484 333.447Z" fill="white"/>
<path d="M580.547 419.294C579.504 407.831 582.111 396.622 587.846 386.687C592.798 377.007 601.14 368.856 611.566 364.525C612.609 375.989 610.002 387.706 604.268 397.132C599.315 407.321 590.974 414.963 580.547 419.294Z" fill="white"/>
<path d="M586.545 453.936C574.815 450.879 564.388 443.747 557.611 433.812C549.53 423.623 544.838 411.65 544.317 399.168C556.047 401.97 566.213 409.103 573.251 419.292C581.593 428.972 586.024 440.945 586.545 453.936Z" fill="white"/>
<path d="M600.605 418.273C609.468 427.444 614.942 438.907 616.506 451.389C618.852 463.871 617.288 476.863 611.553 488.326C602.691 479.41 597.217 467.692 595.913 455.21C593.307 442.728 594.871 429.991 600.605 418.273Z" fill="white"/>
<path d="M585.508 299.82C585.508 287.338 589.939 274.855 597.759 264.666C604.537 275.874 607.665 288.611 606.101 301.093C606.101 313.575 601.669 326.057 593.849 336.247C587.072 325.293 583.944 312.811 585.508 299.82Z" fill="white"/>
<path d="M571.154 308.481C580.016 317.652 585.49 329.115 587.054 341.597C589.4 354.079 587.836 367.071 582.623 378.025C573.76 368.854 568.286 357.391 566.722 344.909C564.376 332.427 565.94 319.945 571.154 308.481Z" fill="white"/>
<path d="M545.083 343.379C556.553 349.238 564.894 358.408 569.847 369.872C575.582 380.825 578.188 393.817 576.103 406.299C564.894 400.695 556.553 391.524 551.6 380.316C545.083 368.853 543.259 355.861 545.083 343.379Z" fill="white"/>
<path d="M539.364 445.679C551.094 444.151 563.346 446.953 572.73 453.831C583.417 459.945 591.759 469.625 595.929 481.088C583.939 482.616 572.208 479.814 562.303 472.936C552.137 466.823 543.795 457.143 539.364 445.679Z" fill="white"/>
<path d="M562.824 488.367C574.815 487.093 587.067 489.895 596.19 496.773C607.138 502.887 615.48 512.567 619.39 524.03C607.659 525.558 595.408 522.502 586.024 515.878C575.597 509.51 567.256 500.085 562.824 488.367Z" fill="white"/>
<path d="M578.986 535.987C589.413 530.128 601.664 528.345 613.394 531.147C625.385 533.185 636.594 539.298 643.893 548.469C633.726 554.328 621.475 556.111 609.484 553.309C597.233 551.271 586.545 545.157 578.986 535.987Z" fill="white"/>
<path d="M1503.58 472.936C1513.49 479.814 1525.22 482.616 1537.21 481.088C1532.78 469.625 1524.69 459.945 1514.01 453.831C1504.1 446.953 1492.37 444.151 1480.64 445.679C1484.55 457.143 1492.89 466.823 1503.58 472.936Z" fill="white"/>
<path d="M1560.67 478.9C1558.59 491.382 1560.67 504.374 1566.67 515.837C1571.1 527.3 1579.96 536.471 1590.65 542.33C1592.73 529.848 1590.65 516.856 1584.65 505.138C1579.96 494.185 1571.36 484.505 1560.67 478.9Z" fill="white"/>
<path d="M1516.87 406.299C1518.96 393.817 1516.35 380.825 1510.62 369.872C1505.66 358.918 1496.8 349.238 1486.11 343.889C1484.03 356.371 1486.37 369.362 1492.37 380.826C1497.32 391.524 1506.18 400.695 1516.87 406.299Z" fill="white"/>
<path d="M1580.2 297.783C1587.76 287.339 1591.15 274.857 1590.63 262.375C1578.9 266.706 1569.52 274.857 1563.52 285.301C1556.22 296 1552.83 308.482 1553.36 320.964C1564.56 316.634 1574.47 308.482 1580.2 297.783Z" fill="white"/>
<path d="M1562.23 348.731C1571.09 341.599 1576.83 331.919 1579.44 320.965C1568.49 321.474 1558.32 325.805 1550.76 333.447C1541.9 340.58 1536.16 350.26 1533.56 361.213C1544.51 360.704 1554.67 356.373 1562.23 348.731Z" fill="white"/>
<path d="M1523.38 378.534C1528.85 367.071 1530.16 354.079 1527.81 341.597C1526.25 329.115 1520.77 317.652 1511.91 308.481C1506.7 319.945 1505.13 332.936 1507.48 345.418C1509.04 357.391 1514.52 369.364 1523.38 378.534Z" fill="white"/>
<path d="M1546.34 301.093C1547.39 288.611 1545.04 275.874 1538 264.666C1530.18 274.855 1525.75 287.338 1525.75 299.82C1524.45 312.302 1527.31 325.293 1534.09 336.247C1541.91 326.057 1546.34 314.085 1546.34 301.093Z" fill="white"/>
<path d="M1777.28 348.731C1785.1 356.373 1795.53 360.704 1806.22 361.213C1803.87 350.26 1797.88 340.58 1789.53 333.447C1781.71 325.805 1771.55 321.474 1760.6 320.965C1762.69 331.919 1768.42 341.599 1777.28 348.731Z" fill="white"/>
<path d="M1751.22 580.459C1763.21 582.497 1775.46 579.95 1785.1 573.326C1776.76 564.665 1765.55 559.316 1753.82 558.042C1741.83 556.005 1729.58 558.552 1719.94 565.175C1727.76 573.836 1738.96 579.695 1751.22 580.459Z" fill="white"/>
<path d="M1786.13 320.964C1786.65 308.482 1783.27 296 1775.97 285.301C1769.97 274.857 1760.07 266.706 1748.86 262.375C1748.34 274.857 1751.72 287.339 1759.02 297.783C1765.02 308.482 1774.92 316.634 1786.13 320.964Z" fill="white"/>
<path d="M1773.38 515.837C1779.38 504.374 1781.2 491.382 1779.38 478.9C1768.43 484.505 1759.57 494.185 1755.13 505.648C1749.4 517.366 1747.31 530.102 1749.4 542.585C1760.09 536.471 1768.43 527.3 1773.38 515.837Z" fill="white"/>
<path d="M1804.91 336.247C1811.68 325.293 1814.55 312.811 1813.25 299.82C1813.25 287.338 1808.82 274.855 1801 264.666C1793.96 275.874 1791.09 288.611 1792.65 301.093C1792.92 313.575 1797.09 326.057 1804.91 336.247Z" fill="white"/>
<path d="M1816.13 378.534C1824.99 369.364 1830.47 357.9 1831.77 345.418C1834.38 332.936 1832.81 319.945 1827.34 308.481C1818.48 317.652 1813.26 329.115 1811.7 341.597C1809.35 353.57 1810.66 366.561 1816.13 378.534Z" fill="white"/>
<path d="M1818.21 419.294C1818.99 407.831 1816.64 396.622 1810.65 386.687C1805.69 377.007 1797.35 368.856 1787.19 364.525C1786.14 375.989 1788.75 387.706 1794.48 397.132C1799.44 407.321 1807.78 414.963 1818.21 419.294Z" fill="white"/>
<path d="M1822.64 406.299C1833.85 400.695 1842.19 391.524 1847.14 380.316C1852.87 369.362 1855.48 356.37 1853.4 343.379C1842.19 349.238 1833.85 358.408 1828.89 369.362C1822.9 380.825 1820.55 393.817 1822.64 406.299Z" fill="white"/>
<path d="M1782.77 451.899C1780.16 464.381 1781.72 477.372 1787.72 488.836C1796.58 479.92 1801.79 467.692 1803.36 455.21C1805.7 442.728 1804.4 429.991 1798.41 418.273C1789.54 427.444 1783.81 439.417 1782.77 451.899Z" fill="white"/>
<path d="M1485.59 398.657C1486.12 411.139 1490.55 423.621 1498.89 433.301C1505.67 443.236 1516.09 450.623 1527.82 453.426C1527.3 440.943 1522.87 428.461 1514.53 418.781C1507.49 409.101 1497.32 401.969 1485.59 398.657Z" fill="white"/>
<path d="M1550.24 553.309C1562.23 556.111 1574.48 554.328 1584.65 548.469C1576.83 539.298 1566.14 533.185 1554.41 531.147C1542.42 528.345 1530.17 530.128 1520 535.987C1527.82 545.157 1538.51 551.271 1550.24 553.309Z" fill="white"/>
<path d="M1718.89 559.446C1729.06 552.314 1737.14 542.379 1740.53 530.661C1728.8 530.152 1716.81 533.718 1707.68 541.36C1697.26 548.493 1689.44 558.682 1686.05 570.655C1698.3 570.655 1710.03 567.343 1718.89 559.446Z" fill="white"/>
<path d="M1504.1 488.367C1508.53 500.085 1516.35 509.51 1527.3 515.878C1537.21 522.502 1548.94 525.558 1560.67 524.03C1556.24 512.567 1548.42 502.887 1537.47 496.773C1527.82 489.895 1516.09 487.093 1504.1 488.367Z" fill="white"/>
<path d="M1545.01 397.638C1550.75 388.212 1553.87 376.494 1552.31 365.031C1541.88 369.362 1533.54 377.004 1528.85 387.193C1522.85 396.619 1519.99 408.336 1521.29 419.8C1531.72 414.96 1540.06 407.318 1545.01 397.638Z" fill="white"/>
<path d="M1552.33 488.837C1557.81 477.374 1559.63 464.382 1557.29 451.9C1555.72 439.418 1550.25 427.955 1541.65 418.784C1536.17 430.247 1534.09 443.239 1536.69 455.721C1538 468.203 1543.47 479.921 1552.33 488.837Z" fill="white"/>
<path d="M1554.67 573.326C1564.58 579.95 1576.83 582.497 1588.56 580.459C1601.07 579.695 1611.76 573.836 1620.1 565.175C1610.19 558.552 1597.94 556.005 1586.21 558.042C1573.96 559.316 1563.01 564.665 1554.67 573.326Z" fill="white"/>
<path d="M1627.4 575.437C1615.67 577.73 1604.98 584.353 1597.42 594.033C1608.37 599.383 1620.62 600.402 1631.83 596.835C1643.3 594.543 1653.47 588.174 1661.02 579.259C1662.33 580.532 1664.41 582.061 1665.72 583.589C1651.12 592.25 1638.35 603.713 1628.44 617.469L1639.65 634.791C1647.21 617.469 1656.85 601.166 1669.63 587.41C1682.92 601.166 1693.87 617.469 1701.69 635.301L1712.9 617.978C1702.21 604.223 1688.92 592.505 1673.8 584.099C1675.1 582.57 1677.19 581.042 1678.49 579.768C1686.05 588.684 1696.22 595.052 1707.68 597.345C1718.89 600.656 1731.14 599.892 1741.83 594.543C1727.76 576.711 1703.51 570.088 1681.62 577.221H1680.57C1676.66 578.749 1673.28 580.532 1669.63 582.57C1665.72 580.532 1661.81 578.749 1657.38 576.711C1647.73 572.89 1637.3 572.89 1627.4 575.437Z" fill="white"/>
<path d="M1620.62 559.408C1630.01 566.796 1641.74 570.617 1653.47 570.107C1650.08 558.135 1642.26 547.945 1631.83 540.812C1622.45 533.68 1610.72 529.859 1598.99 530.114C1602.37 542.341 1610.19 552.785 1620.62 559.408Z" fill="white"/>
<path d="M1841.15 433.812C1848.97 423.623 1853.92 411.65 1854.44 399.168C1842.71 401.97 1832.28 409.103 1825.51 419.292C1817.69 429.482 1812.73 441.454 1812.21 453.936C1823.94 450.625 1834.37 443.237 1841.15 433.812Z" fill="white"/>
<path d="M1801.79 496.773C1791.1 502.887 1782.76 512.567 1778.85 524.03C1790.58 525.558 1802.83 522.502 1812.21 515.878C1822.9 509.51 1831.24 500.085 1835.41 488.367C1823.42 487.093 1811.69 489.895 1801.79 496.773Z" fill="white"/>
<path d="M1825.51 454.045C1814.56 460.158 1806.22 469.838 1802.31 481.302C1814.3 482.83 1826.55 480.028 1835.67 473.15C1846.62 467.036 1854.96 457.356 1858.87 445.893C1847.14 443.855 1835.41 446.912 1825.51 454.045Z" fill="white"/>
<path d="M1785.62 531.147C1773.89 533.185 1762.69 539.298 1755.13 548.469C1765.55 554.328 1777.8 556.111 1789.53 553.309C1801.53 551.271 1812.73 545.157 1820.03 535.987C1809.35 530.128 1797.09 528.345 1785.62 531.147Z" fill="white"/>
<path d="M1853.4 343.379C1855.48 355.861 1852.87 368.853 1847.14 380.316C1842.19 391.524 1833.32 400.949 1822.64 406.299C1820.55 393.817 1822.9 380.825 1828.89 369.872C1833.85 358.408 1842.71 349.238 1853.4 343.379Z" fill="white"/>
<path d="M1794.5 397.638C1788.76 388.212 1785.64 376.494 1787.2 365.031C1797.37 369.362 1805.71 377.004 1810.66 387.193C1816.65 396.619 1819.52 408.336 1818.22 419.8C1807.79 414.96 1799.45 407.318 1794.5 397.638Z" fill="white"/>
<path d="M1802.82 455.717C1801.52 468.199 1796.04 479.917 1787.18 489.343C1781.71 477.879 1779.88 464.888 1782.23 452.406C1783.79 439.924 1789.01 428.461 1797.87 419.29C1803.34 430.244 1805.43 443.235 1802.82 455.717Z" fill="white"/>
<path d="M1824.99 419.292C1831.76 409.103 1842.19 401.97 1853.92 399.168C1853.4 411.65 1848.97 424.132 1840.63 433.812C1833.85 443.747 1823.42 450.879 1811.69 453.936C1812.73 441.454 1817.17 428.972 1824.99 419.292Z" fill="white"/>
<path d="M1827.34 308.481C1832.81 319.945 1834.38 332.936 1831.77 345.418C1830.47 357.9 1824.99 369.364 1816.13 378.025C1810.66 366.561 1809.35 353.57 1811.7 341.088C1813.26 329.115 1818.48 317.143 1827.34 308.481Z" fill="white"/>
<path d="M1801.54 264.666C1809.36 274.855 1813.79 287.338 1813.79 299.82C1814.57 312.302 1812.23 325.293 1805.45 336.247C1797.37 326.057 1792.94 314.085 1792.94 301.603C1791.63 288.611 1794.5 275.874 1801.54 264.666Z" fill="white"/>
<path d="M1805.7 361.213C1795.01 360.704 1784.58 356.373 1776.76 348.731C1767.9 341.599 1762.16 331.409 1759.56 320.965C1770.51 321.474 1780.67 325.805 1788.75 333.447C1797.88 340.58 1803.87 350.26 1805.7 361.213Z" fill="white"/>
<path d="M1748.86 262.375C1760.07 266.706 1769.97 274.857 1775.97 285.301C1783.27 296 1786.65 308.482 1786.13 320.964C1774.4 316.634 1765.02 308.482 1759.02 297.783C1751.72 287.339 1748.34 274.857 1748.86 262.375Z" fill="white"/>
<path d="M1754.61 505.137C1759.04 493.674 1767.9 484.503 1778.85 478.39C1780.68 490.872 1778.85 503.863 1772.86 515.327C1768.42 526.79 1759.56 535.96 1748.87 541.819C1746.79 529.846 1749.39 516.855 1754.61 505.137Z" fill="white"/>
<path d="M1753.3 558.242C1765.55 559.261 1776.24 564.865 1784.58 573.526C1774.94 580.149 1762.69 582.697 1750.7 580.659C1738.44 579.895 1727.76 574.036 1719.41 565.375C1729.58 559.261 1741.57 556.204 1753.3 558.242Z" fill="white"/>
<path d="M1707.68 540.812C1716.81 533.68 1728.8 529.859 1740.53 530.114C1737.14 542.341 1729.06 552.276 1718.89 559.153C1709.51 566.286 1697.78 570.107 1686.05 569.598C1689.44 558.135 1697.26 547.945 1707.68 540.812Z" fill="white"/>
<path d="M1669.37 582.037C1672.76 579.999 1676.14 578.726 1680.05 576.688H1680.58C1702.73 569.555 1726.71 576.688 1741.05 594.519C1730.1 599.869 1717.85 600.633 1706.64 597.321C1694.91 595.029 1684.49 588.151 1677.71 579.235C1676.14 580.509 1674.06 582.037 1672.76 583.566C1687.87 592.227 1701.17 603.69 1712.12 617.446L1700.65 634.768C1692.83 617.191 1682.4 601.142 1668.85 586.877C1656.07 600.633 1646.17 617.191 1638.87 634.258L1627.4 617.191C1637.83 603.69 1650.08 592.227 1664.94 583.056C1663.37 581.528 1661.29 579.999 1659.98 578.726C1652.42 587.896 1642.26 594.01 1631.05 596.557C1619.58 599.869 1607.33 598.85 1596.64 593.5C1610.72 575.669 1634.44 569.046 1656.59 575.669C1661.29 578.216 1665.2 579.999 1669.37 582.037Z" fill="white"/>
<path d="M1631.83 540.899C1642.26 548.032 1650.08 558.221 1653.47 570.194C1641.74 571.213 1630.01 567.392 1620.62 559.495C1610.19 552.362 1602.37 542.427 1598.99 530.71C1610.72 529.945 1622.45 533.766 1631.83 540.899Z" fill="white"/>
<path d="M1620.1 565.375C1611.76 574.036 1601.07 579.895 1588.56 580.659C1576.83 582.697 1564.58 580.149 1554.67 573.526C1563.01 564.865 1574.48 559.516 1586.21 558.242C1597.94 556.204 1610.19 559.261 1620.1 565.375Z" fill="white"/>
<path d="M1521.82 419.294C1520.78 407.831 1523.39 396.622 1529.12 386.687C1534.08 377.007 1542.42 368.856 1552.84 364.525C1553.89 375.989 1551.28 387.706 1545.55 397.132C1540.07 407.321 1531.73 414.963 1521.82 419.294Z" fill="white"/>
<path d="M1527.3 453.936C1515.57 450.879 1505.14 443.237 1498.37 433.812C1490.55 423.623 1485.59 411.65 1485.07 399.168C1496.8 401.97 1507.23 409.103 1514.01 419.292C1522.35 428.972 1527.3 440.945 1527.3 453.936Z" fill="white"/>
<path d="M1541.65 418.273C1550.25 427.444 1555.72 438.907 1557.29 451.389C1559.63 463.871 1558.33 476.863 1552.33 488.326C1543.47 479.41 1538 467.438 1536.69 454.955C1534.09 442.728 1536.17 429.991 1541.65 418.273Z" fill="white"/>
<path d="M1561.19 524.03C1549.46 525.558 1537.21 522.502 1527.82 515.878C1516.87 509.51 1508.53 500.085 1504.62 488.367C1516.35 487.093 1528.87 489.895 1537.99 496.773C1548.42 502.887 1556.76 512.567 1561.19 524.03Z" fill="white"/>
<path d="M1554.41 531.147C1566.14 533.185 1577.35 539.298 1584.65 548.469C1574.48 554.328 1562.23 556.111 1550.24 553.309C1538.51 551.271 1527.3 545.157 1520 535.987C1530.17 530.128 1542.42 528.345 1554.41 531.147Z" fill="white"/>
<path d="M1590.65 542.329C1579.96 536.47 1571.1 526.79 1566.67 515.327C1560.67 503.863 1558.59 490.872 1560.67 478.39C1571.36 484.249 1580.22 493.674 1584.65 505.137C1590.65 516.855 1592.73 529.846 1590.65 542.329Z" fill="white"/>
<path d="M1563.55 285.301C1569.54 274.857 1579.45 266.706 1590.66 262.375C1591.18 274.857 1587.79 287.339 1580.23 297.783C1574.5 308.482 1564.59 316.634 1552.86 320.964C1552.34 308.482 1556.25 296 1563.55 285.301Z" fill="white"/>
<path d="M1550.76 333.447C1558.58 325.805 1568.49 321.474 1579.44 320.965C1576.83 331.919 1571.09 341.599 1562.23 348.731C1554.41 356.373 1543.98 360.704 1533.04 360.704C1536.16 350.26 1541.9 340.58 1550.76 333.447Z" fill="white"/>
<path d="M1526.27 299.82C1526.27 287.338 1530.7 274.855 1538.52 264.666C1545.03 275.874 1547.9 288.611 1546.34 301.093C1546.34 313.575 1541.91 326.057 1534.09 336.247C1527.83 325.293 1524.7 312.811 1526.27 299.82Z" fill="white"/>
<path d="M1511.91 308.481C1520.77 317.652 1526.25 329.115 1527.81 341.597C1530.16 354.079 1528.85 367.071 1523.38 378.534C1514.52 369.364 1509.04 357.9 1507.48 345.418C1505.13 332.936 1506.7 319.945 1511.91 308.481Z" fill="white"/>
<path d="M1486.11 343.379C1497.32 349.238 1505.66 358.408 1510.62 369.362C1516.35 380.316 1518.96 393.307 1516.87 405.789C1505.66 400.185 1497.32 391.015 1492.37 380.061C1486.37 368.853 1484.03 355.861 1486.11 343.379Z" fill="white"/>
<path d="M1514.01 454.045C1524.69 460.158 1533.04 469.838 1537.21 481.302C1525.22 482.83 1512.96 480.028 1503.58 473.15C1492.89 467.036 1484.55 457.356 1480.64 445.893C1491.85 443.855 1504.1 446.912 1514.01 454.045Z" fill="white"/>
<path d="M1789.01 553.309C1777.28 556.111 1765.03 554.328 1754.61 548.469C1762.69 539.298 1773.37 533.185 1785.1 531.147C1797.09 528.345 1809.35 530.128 1819.51 535.987C1812.21 545.157 1801.53 551.271 1789.01 553.309Z" fill="white"/>
<path d="M1812.21 515.878C1802.31 522.502 1790.58 525.558 1778.85 524.03C1783.28 512.567 1791.1 502.887 1801.79 496.773C1811.69 489.895 1823.42 487.093 1835.41 488.367C1831.24 500.085 1822.9 509.51 1812.21 515.878Z" fill="white"/>
<path d="M1835.67 472.936C1826.03 479.814 1814.3 482.616 1802.31 481.088C1806.74 469.625 1814.56 459.945 1825.51 453.831C1835.41 446.953 1847.14 444.151 1858.87 445.679C1854.96 457.143 1846.62 466.823 1835.67 472.936Z" fill="white"/>
<path d="M1065.4 1832.82C1063.05 1832.82 1059.14 1832.31 1054.19 1832.31C1050.8 1832.31 1046.89 1832.31 1041.93 1832.82H1040.37V1831.29C1042.46 1819.83 1042.98 1808.11 1042.98 1796.14V1731.95C1042.98 1714.12 1041.41 1712.08 1035.42 1712.08C1033.07 1712.08 1030.47 1712.59 1028.12 1713.1L1017.69 1715.64C1015.35 1716.15 1013 1716.92 1010.39 1717.94H1009.87L1007.01 1715.64L1007.53 1714.62C1009.35 1710.8 1010.92 1706.98 1011.96 1703.16V1702.14H1013C1017.69 1701.63 1023.17 1701.12 1028.12 1699.6L1050.28 1695.01C1054.19 1693.99 1058.62 1692.97 1062.53 1691.95H1063.05L1065.4 1694.5V1695.01C1064.09 1705.96 1063.05 1717.43 1063.05 1728.64V1799.2C1062.53 1810.15 1064.09 1821.1 1066.96 1831.8L1067.48 1833.08L1065.4 1832.82Z" fill="white"/>
<path d="M1220.75 1834.1V1835.12H1219.71C1219.71 1835.12 1203.03 1835.12 1193.64 1836.13H1192.6L1190.78 1832.82L1262.46 1713.61H1217.89C1209.28 1713.1 1200.94 1715.64 1194.17 1719.97L1193.64 1720.48L1190.26 1718.96L1190.78 1717.94C1193.12 1710.8 1194.69 1703.93 1195.73 1696.28V1695.52H1196.51C1201.99 1695.77 1207.46 1695.77 1213.46 1695.77H1264.81C1270.28 1695.77 1275.23 1695.77 1280.71 1695.52H1281.75V1696.28C1282.01 1700.61 1283.05 1704.94 1284.1 1709.28V1709.78L1283.58 1710.29C1269.76 1727.62 1258.03 1745.7 1247.86 1765.57C1229.62 1797.67 1222.58 1816.01 1220.75 1834.1Z" fill="white"/>
<path d="M1147.51 1755.89C1160.8 1748.76 1173.57 1739.59 1173.57 1721.76C1173.57 1702.65 1157.41 1688.64 1134.73 1688.64C1112.05 1688.64 1093.55 1704.95 1093.55 1725.58C1093.55 1742.9 1105.28 1752.58 1117.53 1759.71C1098.5 1770.67 1086.51 1781.37 1086.51 1799.45C1086.51 1821.11 1104.23 1836.64 1129.78 1836.64C1157.93 1836.64 1178.53 1819.32 1178.53 1795.38C1178 1775.51 1163.15 1764.55 1147.51 1755.89ZM1111.27 1721.76C1111.27 1709.28 1120.92 1699.34 1133.17 1699.34C1133.69 1699.34 1134.21 1699.34 1134.21 1699.34C1146.98 1698.83 1157.41 1708.26 1157.93 1720.74C1157.93 1721.25 1157.93 1721.76 1157.93 1722.27C1157.93 1737.04 1146.98 1744.94 1135.78 1751.05C1123.52 1743.92 1111.27 1736.28 1111.27 1721.76ZM1130.82 1826.46C1115.96 1826.96 1103.19 1816.01 1102.93 1800.98C1102.93 1800.47 1102.93 1799.96 1102.93 1799.2C1102.93 1782.39 1115.96 1772.2 1129.78 1765.57C1148.55 1775.51 1160.28 1783.66 1160.28 1799.2C1159.76 1814.48 1146.98 1826.45 1131.87 1825.95C1131.34 1826.45 1131.34 1826.46 1130.82 1826.46Z" fill="white"/>
<path d="M1344.57 1758.7C1357.87 1751.57 1370.12 1742.39 1370.12 1724.56C1370.12 1705.46 1353.96 1691.45 1331.28 1691.45C1308.6 1691.45 1290.09 1708.01 1290.09 1728.64C1290.09 1745.71 1301.82 1755.39 1314.07 1762.52C1294.78 1773.73 1283.05 1784.17 1283.05 1802.51C1283.05 1824.16 1300.78 1839.45 1326.33 1839.45C1354.22 1839.45 1375.07 1822.13 1375.07 1798.18C1375.59 1778.57 1360.73 1767.36 1344.57 1758.7ZM1310.16 1724.56C1310.16 1712.08 1320.07 1702.15 1332.84 1702.15C1333.1 1702.15 1333.1 1702.15 1333.62 1702.15C1346.4 1701.64 1356.82 1711.83 1357.34 1723.8C1357.34 1724.31 1357.34 1724.56 1357.34 1725.07C1357.34 1740.1 1345.88 1747.74 1335.19 1753.86C1322.42 1746.73 1310.16 1739.08 1310.16 1724.56ZM1329.71 1829.26C1314.6 1829.77 1302.34 1818.31 1301.82 1803.79C1301.82 1803.53 1301.82 1803.02 1301.82 1802.51C1301.82 1785.7 1315.12 1775.51 1328.67 1768.89C1347.44 1778.82 1359.17 1786.97 1359.17 1802.51C1358.65 1817.8 1345.88 1829.77 1330.76 1829.26C1330.24 1829.26 1330.24 1829.26 1329.71 1829.26Z" fill="white"/>
<path d="M768.232 1544.72L757.023 1584.97C713.752 1583.44 685.6 1583.44 660.575 1583.44C629.295 1583.44 608.181 1583.44 591.498 1583.95C594.887 1560.51 596.711 1537.08 596.711 1513.39V1395.7C596.711 1376.59 596.19 1340.67 589.413 1324.37C602.707 1325.14 611.048 1325.14 620.954 1325.14H692.638C718.183 1325.14 728.349 1324.37 755.98 1324.37L743.729 1367.93C741.644 1375.06 737.733 1369.97 737.212 1368.95C725.482 1352.14 702.543 1350.1 680.908 1350.1C674.391 1350.1 666.049 1350.61 656.144 1351.12C655.623 1357.49 654.841 1375.06 654.841 1391.62V1429.32H686.121C704.889 1429.32 723.657 1428.56 741.644 1426.52C745.554 1426.01 744.772 1429.07 744.772 1429.07L735.387 1461.16C717.141 1459.13 698.894 1458.11 680.908 1458.11H653.798V1511.09C653.798 1545.23 657.708 1556.69 698.894 1556.69C722.615 1556.69 735.387 1556.69 760.933 1537.84C765.364 1533.51 770.578 1535.55 768.232 1544.72Z" fill="white"/>
<path d="M882.666 1544.72C877.713 1557.2 873.803 1570.19 871.457 1582.93C867.547 1582.67 858.684 1582.67 849.822 1582.67C842.523 1582.67 832.617 1582.93 825.319 1583.44C822.712 1568.66 818.802 1554.14 813.849 1540.39L788.825 1464.99C781.526 1442.31 772.142 1417.86 755.459 1399.26C778.659 1399.77 801.598 1399.26 824.797 1396.72C826.622 1415.06 830.271 1432.89 836.006 1449.96L850.343 1497.59C853.732 1508.55 861.03 1533.51 861.03 1533.51C863.637 1525.36 867.026 1517.72 869.372 1510.58L891.529 1454.8C897.003 1441.81 900.391 1428.56 901.955 1415.06C901.955 1409.71 902.477 1404.87 901.955 1398.75C907.169 1399.26 917.074 1399.26 924.894 1399.26C933.757 1399.26 942.099 1398.75 950.961 1397.74C956.435 1397.23 955.393 1400.03 953.829 1402.58C940.274 1421.17 928.804 1441.81 920.463 1463.46L882.666 1544.72Z" fill="white"/>
<path d="M1189.21 1582.93C1182.96 1582.67 1170.71 1582.16 1158.71 1582.16C1146.98 1582.16 1134.73 1582.67 1127.43 1582.93C1130.82 1561.02 1132.39 1538.35 1131.87 1515.93V1470.59C1131.87 1452.5 1130.3 1420.4 1123.52 1400.03C1138.12 1400.03 1160.8 1399.26 1176.44 1398.75L1175.92 1441.55L1189.73 1423.72C1206.94 1401.55 1219.19 1394.42 1237.44 1394.42C1243.43 1394.42 1248.65 1395.44 1254.12 1397.73C1248.65 1416.84 1242.91 1437.22 1239.78 1448.68C1239.26 1450.97 1236.92 1454.28 1233.53 1450.46C1226.23 1442.31 1224.66 1439.51 1215.8 1439.51C1204.59 1440.02 1194.69 1446.13 1189.73 1455.81C1184.26 1464.47 1181.91 1471.61 1181.91 1489.95V1520.52C1181.39 1553.38 1183.74 1566.62 1189.21 1582.93Z" fill="white"/>
<path d="M1402.44 1402.19L1395.14 1429.44C1383.93 1428.17 1372.46 1427.66 1360.73 1427.66H1343.53C1342.49 1440.65 1342.49 1455.43 1342.49 1466.13V1508.67C1342.49 1537.45 1345.62 1558.6 1371.16 1558.6C1379.76 1558.6 1388.37 1556.3 1396.19 1551.97C1397.49 1550.95 1401.4 1551.46 1400.62 1556.3C1398.01 1564.46 1396.19 1572.1 1393.06 1581.78C1378.46 1586.62 1363.08 1588.91 1347.96 1589.42C1315.12 1589.42 1293.48 1575.41 1293.48 1529.05V1471.22C1293.48 1452.63 1293.48 1439.12 1292.44 1427.15C1283.58 1427.15 1274.71 1428.17 1266.37 1429.19C1265.33 1429.19 1262.46 1429.19 1264.03 1424.86L1270.28 1400.66C1275.23 1401.17 1284.62 1401.17 1294 1401.17C1294 1386.39 1292.96 1378.75 1292.44 1367.03C1309.64 1361.94 1326.33 1354.55 1341.44 1345.64C1345.62 1343.09 1347.44 1346.4 1346.92 1350.73C1344.57 1367.54 1343.53 1384.36 1343.53 1401.17H1370.64C1380.28 1401.68 1390.19 1400.66 1400.1 1398.88C1401.14 1398.37 1403.48 1398.88 1402.44 1402.19Z" fill="white"/>
<path d="M1778.33 1582.67C1766.07 1582.67 1753.3 1582.93 1746.79 1583.44C1750.43 1559.49 1751.74 1535.55 1751.22 1511.6V1478.49C1751.22 1456.32 1749.91 1430.85 1717.85 1430.85C1706.12 1430.85 1694.91 1435.69 1686.57 1443.84C1676.67 1453.52 1674.06 1461.67 1674.06 1485.11V1512.11C1674.06 1546.5 1676.67 1567.64 1682.14 1583.95C1676.14 1583.44 1663.37 1582.93 1651.12 1582.93C1638.87 1582.93 1626.1 1583.44 1619.58 1583.95C1622.97 1560 1624.53 1536.06 1624.01 1512.11V1465.49C1624.53 1442.82 1621.66 1420.66 1615.67 1399.26C1632.87 1399.26 1656.59 1399.26 1673.28 1397.73L1672.23 1430.34L1687.87 1417.35C1707.16 1401.56 1722.8 1395.44 1741.83 1395.44C1786.67 1395.44 1801.53 1419.9 1801.53 1462.44V1511.6C1801.53 1545.99 1803.87 1567.13 1809.35 1583.44C1803.35 1582.93 1790.58 1582.67 1778.33 1582.67Z" fill="white"/>
<path d="M1101.89 1487.15C1108.14 1487.15 1108.14 1471.1 1108.14 1467.28C1108.14 1422.7 1078.69 1395.44 1032.03 1395.44C977.549 1395.44 939.752 1435.69 939.752 1493.26C939.752 1551.34 977.028 1589.3 1035.42 1589.3C1055.75 1588.28 1075.82 1584.97 1094.85 1578.34C1097.98 1567.13 1098.76 1563.82 1102.93 1550.83C1104.23 1544.72 1100.85 1542.68 1097.98 1545.23C1086.51 1553.89 1072.95 1557.96 1058.62 1557.2C1017.69 1557.2 993.19 1531.73 992.668 1487.4C1005.44 1486.64 1033.07 1486.64 1053.14 1486.64L1101.89 1487.15ZM992.668 1464.98C994.754 1434.16 1004.92 1416.58 1029.16 1416.58C1045.32 1416.08 1059.14 1429.07 1059.14 1444.86C1059.14 1445.37 1059.14 1445.62 1059.14 1446.13C1059.14 1458.11 1052.62 1462.95 1035.94 1463.46L992.668 1464.98Z" fill="white"/>
<path d="M1510.62 1394.93C1442.32 1394.93 1406.35 1437.47 1406.35 1496.06C1406.35 1554.65 1441.8 1589.81 1501.76 1589.81C1564.58 1589.81 1605.5 1549.81 1605.5 1487.15C1604.98 1428.56 1571.09 1394.93 1510.62 1394.93ZM1505.67 1568.15C1476.73 1568.15 1460.57 1540.39 1460.57 1488.42C1460.57 1444.35 1472.82 1416.07 1504.1 1416.07C1534.08 1416.07 1550.24 1443.84 1550.24 1495.55C1550.76 1543.7 1535.12 1568.15 1505.67 1568.15Z" fill="white"/>
</g>
<defs>
<clipPath id="clip0_290_1320">
<rect width="2500" height="2500" fill="white"/>
</clipPath>
</defs>
</svg>
