<svg width="2500" height="2500" viewBox="0 0 2500 2500" fill="none" xmlns="http://www.w3.org/2000/svg">
<g clip-path="url(#clip0_290_2203)">
<path d="M2432.14 1250C2432.14 1563.39 2307.14 1864.28 2085.72 2085.71C1864.29 2307.14 1563.39 2432.14 1250 2432.14C936.608 2432.14 635.715 2307.14 414.287 2085.71C192.858 1864.28 67.858 1563.39 67.858 1250C67.858 936.604 192.858 635.711 414.287 414.282C635.715 192.853 936.608 67.8535 1250 67.8535C1563.39 67.8535 1864.29 192.853 2085.72 414.282C2307.14 635.711 2432.14 936.604 2432.14 1250Z" fill="white"/>
<mask id="mask0_290_2203" style="mask-type:luminance" maskUnits="userSpaceOnUse" x="0" y="0" width="2500" height="2500">
<path d="M2500 0H0V2500H2500V0Z" fill="white"/>
</mask>
<g mask="url(#mask0_290_2203)">
<path d="M2432.14 1250C2432.14 1563.39 2307.14 1864.28 2085.71 2085.71C1864.29 2307.14 1563.39 2432.14 1250 2432.14C936.607 2432.14 635.714 2307.14 414.285 2085.71C192.857 1864.28 67.8569 1563.39 67.8569 1250C67.8569 936.604 192.857 635.711 414.285 414.282C635.714 192.853 936.607 67.8535 1250 67.8535C1563.39 67.8535 1864.29 192.853 2085.71 414.282C2307.14 635.711 2432.14 936.604 2432.14 1250Z" stroke="#FF0000" stroke-width="4.4598"/>
</g>
<path d="M1250 48.2188C931.249 48.2188 624.999 175.004 399.999 400.004C174.106 625.897 48.2134 931.255 48.2134 1250C48.2134 1568.75 174.999 1875 399.999 2100C625.892 2325 931.249 2451.79 1250 2451.79C1568.75 2451.79 1875 2325 2100 2100C2325.89 1874.11 2451.79 1568.75 2451.79 1250C2451.79 931.255 2325 625.004 2100 400.004C1875 175.004 1568.75 48.2188 1250 48.2188ZM1250 87.5044C1558.03 87.5044 1853.57 209.826 2072.32 427.683C2290.18 645.54 2412.5 941.076 2412.5 1250C2412.5 1558.04 2290.18 1853.58 2072.32 2072.33C1854.46 2290.18 1558.93 2412.5 1250 2412.5C941.964 2412.5 646.428 2290.18 427.678 2072.33C209.821 1854.47 87.4992 1558.93 87.4992 1250C87.4992 941.969 209.821 646.433 427.678 427.683C646.428 209.826 941.964 87.5044 1250 87.5044Z" fill="#002E60"/>
<mask id="mask1_290_2203" style="mask-type:luminance" maskUnits="userSpaceOnUse" x="0" y="0" width="2500" height="2500">
<path d="M2500 0H0V2500H2500V0Z" fill="white"/>
</mask>
<g mask="url(#mask1_290_2203)">
<path d="M1250 48.2188C931.25 48.2188 625 175.004 400 400.004C174.107 625.897 48.2145 931.255 48.2145 1250C48.2145 1568.75 175 1875 400 2100C625.893 2325 931.25 2451.79 1250 2451.79C1568.75 2451.79 1875 2325 2100 2100C2325.89 1874.11 2451.79 1568.75 2451.79 1250C2451.79 931.255 2325 625.004 2100 400.004C1875 175.004 1568.75 48.2188 1250 48.2188ZM1250 87.5044C1558.04 87.5044 1853.57 209.826 2072.32 427.683C2290.18 645.54 2412.5 941.076 2412.5 1250C2412.5 1558.04 2290.18 1853.58 2072.32 2072.33C1854.46 2290.18 1558.93 2412.5 1250 2412.5C941.965 2412.5 646.429 2290.18 427.679 2072.33C209.822 1854.47 87.5003 1558.93 87.5003 1250C87.5003 941.969 209.822 646.433 427.679 427.683C646.429 209.826 941.965 87.5044 1250 87.5044Z" stroke="#002E60" stroke-width="10.7063"/>
</g>
<path d="M1250 48.2188C931.249 48.2188 624.999 175.004 399.999 400.004C174.106 625.897 48.2134 931.255 48.2134 1250C48.2134 1568.75 174.999 1875 399.999 2100C625.892 2325 931.249 2451.79 1250 2451.79C1568.75 2451.79 1875 2325 2100 2100C2325.89 1874.11 2451.79 1568.75 2451.79 1250C2451.79 931.255 2325 625.004 2100 400.004C1875 175.004 1568.75 48.2188 1250 48.2188ZM1250 87.5044C1558.03 87.5044 1853.57 209.826 2072.32 427.683C2290.18 645.54 2412.5 941.076 2412.5 1250C2412.5 1558.04 2290.18 1853.58 2072.32 2072.33C1854.46 2290.18 1558.93 2412.5 1250 2412.5C941.964 2412.5 646.428 2290.18 427.678 2072.33C209.821 1854.47 87.4992 1558.93 87.4992 1250C87.4992 941.969 209.821 646.433 427.678 427.683C646.428 209.826 941.964 87.5044 1250 87.5044Z" fill="#7BB1DD"/>
<path d="M1997.32 1254.46C1997.32 1451.78 1918.75 1641.06 1779.46 1780.35C1640.18 1919.64 1450.89 1998.21 1253.57 1998.21C1056.25 1998.21 866.965 1919.64 727.679 1780.35C588.394 1641.06 509.822 1451.78 509.822 1254.46C509.822 1057.14 588.394 867.85 727.679 728.564C866.965 589.278 1056.25 510.707 1253.57 510.707C1450.89 510.707 1640.18 589.278 1779.46 728.564C1918.75 867.85 1997.32 1057.14 1997.32 1254.46Z" stroke="#002E60" stroke-width="4.9554"/>
<path d="M1945.53 1253.57C1945.53 1437.5 1872.32 1614.28 1741.96 1744.64C1611.61 1875 1434.82 1948.21 1250.89 1948.21C1066.96 1948.21 890.177 1875 759.82 1744.64C629.463 1614.28 556.248 1437.5 556.248 1253.57C556.248 1069.64 629.463 892.854 759.82 762.497C890.177 632.14 1066.96 558.926 1250.89 558.926C1434.82 558.926 1611.61 632.14 1741.96 762.497C1872.32 892.854 1945.53 1069.64 1945.53 1253.57Z" fill="#7BB1DD"/>
<path fill-rule="evenodd" clip-rule="evenodd" d="M676.784 679.468C626.784 891.075 626.784 1081.25 628.57 1211.61C624.998 1803.57 1063.39 1987.5 1249.11 2043.75C1434.82 1987.5 1873.21 1803.57 1869.64 1211.61C1871.43 1081.25 1871.43 891.075 1821.43 679.468C1533.93 629.468 1358.93 633.932 1249.11 633.039C1139.28 633.932 965.177 629.468 676.784 679.468Z" fill="#002E60"/>
<path fill-rule="evenodd" clip-rule="evenodd" d="M736.609 721.432C705.359 861.61 689.288 987.503 683.038 1092.86C680.359 1207.15 679.466 1323.22 697.324 1425.9C707.145 1479.47 722.324 1535.72 750.895 1593.75C810.716 1706.25 896.431 1805.36 974.109 1858.04C1076.79 1936.61 1183.04 1979.47 1250 2000.9C1316.97 1979.47 1422.32 1936.61 1525.89 1858.04C1603.57 1805.36 1689.29 1705.36 1749.11 1593.75C1777.68 1535.72 1793.75 1479.47 1802.68 1425.9C1820.54 1323.22 1819.64 1207.15 1816.97 1092.86C1810.72 987.503 1794.64 861.61 1763.39 721.432C1505.36 674.11 1349.11 678.574 1250 677.682C1150.89 678.574 994.645 674.11 736.609 721.432Z" fill="#FFBB59"/>
<path d="M1077.68 2140.19C1075 2138.4 1069.64 2132.15 1065.18 2129.47C1023.21 2102.69 974.108 2128.58 971.429 2179.47C969.643 2210.72 992.858 2236.62 1017.86 2241.97C1043.75 2246.44 1062.5 2234.83 1080.36 2219.65L1107.14 2247.33C1093.75 2261.62 1076.79 2275.01 1047.32 2281.26C1041.96 2282.15 1033.93 2283.04 1025 2283.04C969.643 2277.69 938.393 2248.22 929.465 2201.79C924.108 2176.79 928.572 2150.9 941.965 2128.58C958.036 2102.69 981.25 2087.51 1011.61 2081.26C1047.32 2074.12 1083.93 2085.72 1106.25 2109.83L1077.68 2140.19Z" fill="#002E60"/>
<path d="M1192.86 2081.25H1148.22V2277.67H1192.86V2081.25Z" fill="#002E60"/>
<path d="M1395.53 2122.32H1335.71V2277.67H1291.07V2122.32H1231.25V2081.25H1395.53V2122.32Z" fill="#002E60"/>
<path d="M1608.03 2081.25L1531.25 2199.1V2277.67H1488.39V2199.1L1413.39 2081.25H1464.28L1510.71 2161.6L1558.03 2081.25H1608.03Z" fill="#002E60"/>
<path fill-rule="evenodd" clip-rule="evenodd" d="M492.857 908.935L473.214 945.542L303.571 857.149L325 816.971L421.429 810.721L372.321 725.899L392.857 685.721L563.393 775.899L543.75 812.507L431.25 753.578L480.357 841.971L381.25 851.792L492.857 908.935Z" fill="#002E60"/>
<path d="M723.216 598.222L691.966 630.365L648.216 613.401L591.966 673.222L611.609 716.079L582.145 746.437L497.323 553.579L524.109 525.008L723.216 598.222ZM611.609 599.115L547.323 574.115L575.895 636.615L611.609 599.115Z" fill="#002E60"/>
<path fill-rule="evenodd" clip-rule="evenodd" d="M750.892 577.683L650.892 414.29L683.928 392.861L823.214 448.218L761.606 346.432L797.321 325.004L896.428 489.29L866.071 508.04L722.321 451.79L786.606 556.254L750.892 577.683Z" fill="#002E60"/>
<path d="M1041.07 300.885C1038.39 299.992 1031.25 295.527 1025.89 293.742C979.463 280.349 939.284 317.849 950.891 366.063C958.034 395.527 986.606 414.278 1011.61 411.599C1037.5 408.92 1051.78 392.849 1064.28 374.099L1096.43 392.849C1087.5 409.813 1075.89 427.67 1049.11 441.063C1043.75 443.742 1037.5 446.42 1027.68 448.206C974.106 458.028 936.606 439.278 915.177 397.313C903.57 374.992 899.999 349.099 907.142 324.992C915.177 296.42 933.034 275.885 959.82 261.599C991.963 245.527 1029.46 246.42 1057.14 262.492L1041.07 300.885Z" fill="#002E60"/>
<path d="M1913.39 512.497L1866.96 476.783L1774.11 599.104L1739.28 573.211L1833.03 451.783L1786.61 416.068L1810.71 384.818L1937.5 482.14L1913.39 512.497Z" fill="#002E60"/>
<path fill-rule="evenodd" clip-rule="evenodd" d="M1141.07 225.9L1145.53 417.864L1186.61 416.971L1184.82 339.293L1264.28 337.507L1266.07 415.186L1307.14 414.293L1303.57 221.436L1260.71 222.328L1262.5 299.114L1183.93 300.9L1182.14 225.007L1141.07 225.9Z" fill="#002E60"/>
<path fill-rule="evenodd" clip-rule="evenodd" d="M1407.14 233.922L1549.11 265.172L1540.18 301.779L1440.18 279.457L1431.25 318.743L1514.29 335.708L1494.64 369.636L1423.21 354.458L1414.29 394.636L1516.96 416.958L1508.93 452.672L1366.07 422.315L1407.14 233.922Z" fill="#002E60"/>
<path fill-rule="evenodd" clip-rule="evenodd" d="M1665.18 394.636C1640.18 375.886 1640.18 365.172 1646.43 356.243C1652.68 349.101 1660.71 349.101 1668.75 351.779C1682.14 356.243 1692.86 365.172 1700.89 375.886C1705.36 381.243 1708.93 387.493 1712.5 392.851L1745.53 372.315C1740.18 362.494 1726.78 335.708 1687.5 318.744C1668.75 310.708 1624.11 302.672 1604.46 349.101C1596.43 368.743 1600 381.244 1604.46 390.172C1615.18 408.029 1633.03 420.529 1648.21 433.922C1654.46 439.279 1661.61 445.529 1664.28 453.565C1666.07 459.815 1664.28 465.172 1659.82 469.636C1636.61 489.279 1595.53 447.315 1587.5 424.101L1551.78 441.065C1570.53 477.672 1602.68 510.708 1652.68 512.493C1670.53 511.6 1691.96 501.779 1701.78 479.458C1708.03 461.601 1709.82 445.529 1700.89 431.243C1691.96 416.958 1676.78 402.672 1665.18 394.636Z" fill="#002E60"/>
<path fill-rule="evenodd" clip-rule="evenodd" d="M1996.43 538.4L2088.39 650.008L2059.82 674.115L1993.75 594.651L1962.5 619.65L2019.64 687.508L1981.25 700.008L1934.82 643.758L1902.68 669.651L1970.54 750.008L1941.96 774.115L1848.21 661.615L1996.43 538.4Z" fill="#002E60"/>
<path d="M2141.97 818.742L2122.32 779.456L2073.22 804.456L2091.96 841.956C2101.79 862.492 2117.86 865.171 2130.36 860.706C2144.64 856.242 2152.68 838.385 2141.97 818.742ZM2040.18 959.814L2017.86 916.064L2054.47 851.778L2038.39 821.421L1983.93 849.099L1965.18 811.599L2136.61 724.992L2173.22 798.206C2178.57 808.028 2180.36 814.278 2183.04 822.314C2188.39 837.492 2188.39 851.778 2183.93 863.385C2167.86 901.778 2116.97 921.421 2080.36 887.492L2040.18 959.814Z" fill="#002E60"/>
<path d="M2142.86 1269.65C2126.78 1283.94 2101.78 1280.36 2088.39 1266.08C2082.14 1259.83 2078.57 1250.9 2078.57 1241.08C2079.46 1233.94 2081.25 1227.69 2083.93 1221.44C2087.5 1214.29 2092.86 1208.94 2099.11 1206.26C2113.39 1198.22 2133.03 1198.22 2146.43 1206.26C2156.25 1212.51 2162.5 1222.33 2165.18 1233.94C2166.96 1241.08 2167.86 1249.11 2167.86 1258.04C2167.86 1281.26 2160.71 1302.69 2143.75 1313.4C2139.28 1316.08 2133.03 1317.86 2125.89 1318.76C2107.14 1320.54 2092.86 1315.19 2081.25 1306.26L2093.75 1286.61C2126.78 1312.51 2142.86 1287.51 2142.86 1269.65ZM2144.64 1240.19C2144.64 1230.36 2136.61 1224.11 2128.57 1222.33C2125 1221.44 2120.53 1221.44 2116.96 1222.33C2113.39 1223.22 2109.82 1225.9 2108.03 1228.58C2099.11 1239.29 2105.36 1253.58 2113.39 1256.26C2116.07 1257.15 2120.53 1258.04 2125 1258.94C2141.07 1258.04 2144.64 1244.65 2144.64 1240.19Z" fill="#7BB1DD"/>
<path d="M2289.28 1291.97H2274.11V1317.86H2250.89V1291.97H2193.75L2190.18 1274.11L2252.68 1200H2274.11V1271.43H2289.28V1291.97ZM2251.78 1272.33V1235.72L2218.75 1272.33H2251.78Z" fill="#7BB1DD"/>
<path d="M239.287 1231.25L233.93 1211.6L265.18 1201.78H283.93V1317.85H259.823V1225L239.287 1231.25Z" fill="#7BB1DD"/>
<path d="M381.25 1257.14C394.643 1262.5 401.786 1273.21 401.786 1286.61C401.786 1302.68 390.179 1313.39 375.893 1316.96C370.536 1318.75 364.286 1318.75 357.143 1318.75C338.393 1317.86 313.393 1309.82 312.5 1286.61C313.393 1270.54 316.964 1264.29 330.357 1257.14C316.071 1248.21 310.714 1233.04 319.643 1216.96C321.429 1213.39 325 1209.82 328.571 1208.04C332.143 1205.36 336.607 1203.57 341.071 1202.68C345.536 1201.79 350.893 1200.89 356.25 1200.89C376.786 1200.89 394.643 1210.71 396.429 1231.25C397.321 1236.61 396.429 1242.86 392.857 1247.32C391.964 1250.89 387.5 1254.46 381.25 1257.14ZM369.643 1245.54C372.321 1242.86 374.107 1239.29 374.107 1235.71C374.107 1231.25 372.321 1228.57 369.643 1225.89C366.964 1223.21 362.5 1222.32 358.036 1222.32C352.679 1222.32 349.107 1223.21 346.429 1225.89C343.75 1228.57 341.964 1231.25 341.964 1235.71C341.964 1239.29 343.75 1242.86 346.429 1245.54C351.786 1250 361.607 1250.89 369.643 1245.54ZM376.786 1283.04C376.786 1271.43 363.393 1267.86 354.464 1268.75C345.536 1269.64 336.607 1275 336.607 1283.04C336.607 1293.75 348.214 1299.11 357.143 1299.11C367.857 1299.11 376.786 1291.96 376.786 1283.04Z" fill="#7BB1DD"/>
<path fill-rule="evenodd" clip-rule="evenodd" d="M1250 2000.01C1316.96 1978.58 1422.32 1935.72 1525.89 1857.15C1603.57 1804.47 1689.29 1704.47 1749.11 1592.86C1777.68 1534.83 1793.75 1478.58 1802.68 1425.01C1820.54 1322.33 1819.64 1206.26 1816.96 1091.97C1810.71 986.614 1794.64 860.722 1763.39 720.543C1505.36 673.222 1349.11 677.686 1250 676.793" fill="#E9AB00"/>
<path fill-rule="evenodd" clip-rule="evenodd" d="M1774.11 1319.65C1750 1615.19 1611.61 1819.65 1250 1948.22C888.391 1818.76 749.998 1615.19 725.891 1319.65H1774.11Z" fill="#7BB1DD"/>
<path fill-rule="evenodd" clip-rule="evenodd" d="M722.32 1275.89C719.641 1218.75 721.427 1158.93 724.998 1094.64C730.355 995.536 736.606 880.357 766.07 749.107C995.534 708.036 1150.89 708.929 1249.11 705.357C1347.32 708.036 1502.68 707.143 1732.14 749.107C1761.61 881.25 1767.86 996.429 1773.21 1094.64C1777.68 1158.93 1778.57 1218.75 1775.89 1276.79L722.32 1275.89Z" fill="white"/>
<path fill-rule="evenodd" clip-rule="evenodd" d="M1599.11 1741.08C1571.43 1769.65 1539.29 1796.44 1503.57 1822.33L1087.5 1320.54H1250L1599.11 1741.08ZM1747.32 1478.58C1733.93 1528.58 1715.18 1575.9 1690.18 1619.65L1441.97 1319.65H1616.07L1747.32 1478.58ZM1372.32 1898.22C1334.82 1916.08 1293.75 1933.04 1249.11 1949.11L725.002 1320.54H895.537L1372.32 1898.22Z" fill="#A8C9E8"/>
<path fill-rule="evenodd" clip-rule="evenodd" d="M1378.57 1196.44C1451.79 1192.86 1526.79 1181.26 1561.61 1172.33C1554.46 1229.47 1496.43 1223.22 1529.46 1276.79H1455.36C1427.68 1266.97 1398.21 1255.36 1373.21 1253.58C1366.07 1252.69 1359.82 1252.69 1353.57 1255.36C1275.89 1284.83 1213.39 1250.9 1155.36 1250.01C1153.57 1257.15 1141.07 1265.19 1116.07 1267.86C1074.11 1273.22 1044.64 1255.36 1011.61 1254.47C1000 1254.47 988.393 1258.04 978.572 1276.79C961.607 1253.58 951.786 1235.72 928.571 1207.15C893.75 1190.19 861.607 1176.79 830.357 1165.19L832.143 1158.94C932.143 1189.29 1007.14 1200.9 1075 1207.15C1158.04 1210.72 1248.21 1216.08 1329.46 1209.83C1352.68 1200.9 1361.61 1197.33 1378.57 1196.44Z" fill="#FBC24E"/>
<path fill-rule="evenodd" clip-rule="evenodd" d="M1550.89 1180.35C1541.96 1216.96 1487.5 1231.24 1524.11 1276.78H1480.36C1452.68 1266.96 1404.46 1245.53 1350.89 1245.53C1331.25 1260.71 1295.53 1267.85 1241.07 1255.35C1216.07 1249.99 1181.25 1241.06 1145.53 1241.96C1137.5 1275.89 1025 1262.49 984.82 1209.81L933.927 1197.31L922.32 1188.39C1003.57 1205.35 1085.71 1215.17 1128.57 1216.96C1205.36 1219.64 1277.68 1219.64 1329.46 1217.85C1346.43 1212.49 1350 1210.71 1358.93 1207.14C1371.43 1200.89 1385.71 1201.78 1398.21 1201.78C1468.75 1196.42 1514.28 1186.6 1550.89 1180.35Z" fill="#EAAA00"/>
<path fill-rule="evenodd" clip-rule="evenodd" d="M1206.25 1195.54C1216.07 1181.26 1232.14 1173.22 1250.89 1169.65L1250 1211.61C1254.46 1211.61 1259.82 1211.61 1264.28 1211.61L1263.39 1166.97C1316.07 1159.83 1372.32 1168.76 1417.85 1179.47V1194.65C1423.21 1194.65 1427.68 1193.76 1432.14 1193.76V1175.9L1580.35 1124.11C1538.39 1068.76 1541.96 1003.58 1552.68 937.506C1544.64 970.542 1525 1032.15 1475 1088.4C1434.82 1133.04 1439.28 1142.86 1432.14 1155.36L1429.46 855.363L1395.53 866.971C1388.39 868.756 1392.85 872.328 1386.6 875.006L1352.68 888.399L1391.96 886.613C1397.32 886.613 1393.75 878.578 1399.1 877.685L1420.53 875.899L1417.85 1172.33C1394.64 1135.72 1353.57 1091.97 1370.53 1000.01C1329.46 1156.26 1196.43 1139.29 1206.25 1195.54ZM1148.21 1029.47C1112.5 1151.79 1006.25 1136.61 1012.5 1185.72C1028.57 1171.43 1044.64 1170.54 1059.82 1166.08V1203.58C1064.28 1204.47 1068.75 1204.47 1073.21 1204.47L1074.1 1164.29C1112.5 1159.83 1146.43 1164.29 1181.25 1167.86C1153.57 1122.33 1135.71 1076.79 1148.21 1029.47Z" fill="#EAAA00"/>
<path fill-rule="evenodd" clip-rule="evenodd" d="M1553.57 936.611C1545.54 969.647 1525.89 1031.25 1475.89 1087.5C1435.71 1132.15 1440.18 1141.97 1433.04 1154.47L1431.25 979.469L1553.57 936.611ZM1184.82 1061.61L1371.43 997.326C1329.46 1156.25 1196.43 1138.4 1207.14 1194.65C1175 1166.08 1144.64 1109.83 1184.82 1061.61ZM993.75 1083.04L1148.21 1029.47C1112.5 1151.79 1006.25 1136.61 1012.5 1185.72C976.786 1150 975.893 1107.15 993.75 1083.04Z" fill="#FFBB59"/>
<path fill-rule="evenodd" clip-rule="evenodd" d="M1264.29 817.853V764.281L1230.36 775.888C1223.21 777.674 1227.68 781.245 1221.43 783.924L1187.5 797.317L1226.79 795.531C1232.14 795.531 1228.57 787.496 1233.93 786.603L1255.36 784.817V822.317L1264.29 817.853Z" fill="#EAAA00"/>
<path fill-rule="evenodd" clip-rule="evenodd" d="M1072.32 949.997V884.818L1038.39 896.425C1031.25 898.211 1035.71 901.782 1029.46 904.461L996.429 916.961L1034.82 916.068C1040.18 916.068 1036.61 908.033 1041.97 907.14L1063.39 905.354V953.568L1072.32 949.997Z" fill="#EAAA00"/>
<path fill-rule="evenodd" clip-rule="evenodd" d="M1225.89 794.651C1231.25 794.651 1227.68 786.615 1233.04 785.722L1229.47 775.008C1222.32 776.794 1226.79 780.365 1220.54 783.044L1225.89 794.651Z" fill="#FFBB59"/>
<path fill-rule="evenodd" clip-rule="evenodd" d="M1323.21 797.328C1268.75 902.685 1194.64 884.828 1185.71 935.721C1157.14 912.507 1169.64 865.185 1187.5 844.65L1323.21 797.328Z" fill="#FFBB59"/>
<path fill-rule="evenodd" clip-rule="evenodd" d="M1339.28 888.4C1320.53 866.078 1308.03 839.292 1323.21 797.328C1268.75 902.685 1194.64 884.828 1185.71 935.721C1216.96 893.757 1310.71 890.185 1339.28 888.4Z" fill="#EAAA00"/>
<path fill-rule="evenodd" clip-rule="evenodd" d="M1186.61 1052.67C1154.46 1005.35 1157.14 957.138 1185.71 943.746C1236.61 925.888 1301.78 905.353 1338.39 889.281C1313.39 987.496 1198.21 996.424 1186.61 1052.67Z" fill="#FFBB59"/>
<path fill-rule="evenodd" clip-rule="evenodd" d="M1339.29 888.393C1313.39 987.5 1199.11 996.428 1187.5 1052.68C1211.61 1020.54 1266.96 999.107 1371.43 995.535C1348.21 966.071 1332.14 933.035 1339.29 888.393Z" fill="#EAAA00"/>
<path fill-rule="evenodd" clip-rule="evenodd" d="M1122.32 932.146C1077.68 949.111 1038.39 962.504 1003.57 974.111C987.499 990.182 967.856 1034.83 997.321 1072.33C991.963 1028.58 1084.82 1012.5 1122.32 932.146Z" fill="#FFBB59"/>
<path fill-rule="evenodd" clip-rule="evenodd" d="M997.321 1072.33C991.964 1028.58 1085.71 1012.5 1122.32 932.146C1120.54 951.789 1113.39 993.754 1148.21 1028.58C1093.75 1031.25 1023.21 1039.29 997.321 1072.33Z" fill="#EAAA00"/>
<path fill-rule="evenodd" clip-rule="evenodd" d="M1033.93 916.075C1039.29 916.075 1035.72 908.039 1041.07 907.146L1037.5 896.432C1030.36 898.217 1034.82 901.789 1028.57 904.467L1033.93 916.075Z" fill="#FFBB59"/>
<path fill-rule="evenodd" clip-rule="evenodd" d="M982.141 979.457C943.748 1007.14 874.105 1058.92 837.498 1146.42C861.605 1143.74 885.713 1143.74 920.534 1150.89C892.856 1132.14 887.498 1110.71 982.141 979.457Z" fill="#FFBB59"/>
<path fill-rule="evenodd" clip-rule="evenodd" d="M948.214 1157.15L919.642 1151.79C891.964 1133.04 886.606 1111.61 981.249 980.363C962.499 1014.29 932.142 1076.79 948.214 1157.15Z" fill="#EAAA00"/>
<path fill-rule="evenodd" clip-rule="evenodd" d="M1391.96 884.825C1397.32 884.825 1393.75 876.789 1399.11 875.896L1395.53 865.182C1388.39 866.967 1392.86 870.539 1386.61 873.217L1391.96 884.825Z" fill="#FFBB59"/>
<path fill-rule="evenodd" clip-rule="evenodd" d="M1259.82 1391.97L1282.14 1419.65C1284.82 1423.22 1283.93 1426.79 1283.93 1429.47C1299.11 1428.58 1316.96 1433.93 1326.79 1448.22C1337.5 1464.29 1345.54 1472.33 1354.47 1478.58C1366.07 1487.51 1377.68 1491.08 1388.39 1494.65C1403.57 1499.11 1415.18 1508.93 1422.32 1529.47C1425 1529.47 1426.79 1527.68 1434.82 1530.36L1464.29 1540.18C1466.07 1541.08 1468.75 1541.97 1470.54 1543.76C1472.32 1546.43 1473.21 1548.22 1473.21 1550.9C1473.21 1553.58 1473.21 1556.26 1472.32 1558.93L1450 1590.18C1448.21 1592.86 1443.75 1593.76 1442.86 1593.76C1449.11 1608.04 1450 1626.79 1437.5 1642.86C1422.32 1662.51 1419.64 1668.76 1416.07 1679.47C1413.39 1687.51 1412.5 1702.68 1412.5 1719.65C1412.5 1733.04 1405.36 1745.54 1391.07 1754.47C1391.07 1755.36 1391.96 1757.15 1391.96 1759.83V1791.97C1391.96 1796.43 1391.97 1800.01 1390.18 1803.58C1387.5 1808.04 1383.93 1809.83 1378.57 1809.83C1374.11 1810.72 1370.54 1809.83 1369.64 1808.93L1337.5 1798.22C1333.93 1796.43 1333.93 1794.65 1333.93 1794.65C1301.79 1820.54 1275 1797.33 1249.11 1796.43C1223.21 1797.33 1196.43 1820.54 1164.29 1794.65C1164.29 1794.65 1163.39 1796.43 1160.71 1798.22L1128.57 1808.93C1127.68 1808.93 1124.11 1809.83 1119.64 1809.83C1115.18 1808.93 1111.61 1807.15 1108.04 1803.58C1106.25 1800.9 1105.36 1796.43 1106.25 1791.97V1759.83C1106.25 1757.15 1107.14 1755.36 1107.14 1754.47C1091.96 1745.54 1085.71 1733.04 1085.71 1719.65C1085.71 1702.68 1084.82 1687.51 1082.14 1679.47C1078.57 1667.86 1075.89 1662.51 1060.71 1642.86C1048.21 1626.79 1050 1608.04 1055.36 1593.76C1054.47 1593.76 1050.89 1592.86 1048.21 1590.18L1025.89 1558.93C1024.11 1556.26 1024.11 1552.68 1025 1550.9C1025 1548.22 1025.89 1545.54 1027.68 1543.76C1029.46 1541.97 1032.14 1541.08 1033.93 1540.18L1063.39 1530.36C1071.43 1527.68 1073.21 1529.47 1075.89 1529.47C1083.04 1508.04 1094.64 1498.22 1109.82 1494.65C1120.54 1491.97 1132.14 1487.51 1143.75 1478.58C1152.68 1472.33 1159.82 1463.4 1171.43 1448.22C1182.14 1433.93 1199.11 1428.58 1214.29 1429.47C1214.29 1426.79 1212.5 1423.22 1216.07 1419.65L1238.39 1391.97C1241.97 1387.51 1246.43 1387.51 1248.21 1386.61C1252.68 1387.51 1256.25 1387.51 1259.82 1391.97Z" fill="#002E60"/>
<path fill-rule="evenodd" clip-rule="evenodd" d="M1241.07 1500C1233.93 1492.86 1221.43 1487.5 1208.04 1498.22C1206.25 1499.11 1204.47 1500.9 1202.68 1502.68C1191.07 1513.4 1189.29 1523.22 1176.79 1529.47C1159.82 1537.5 1129.47 1537.5 1139.29 1570.54C1142.86 1580.36 1142.86 1578.58 1133.93 1576.79C1117.86 1573.22 1104.47 1564.29 1102.68 1547.33C1101.79 1531.25 1109.82 1518.75 1123.22 1514.29C1132.14 1511.61 1141.97 1510.72 1159.82 1498.22C1181.25 1483.93 1183.93 1465.18 1200 1457.15C1209.82 1453.58 1218.75 1453.58 1228.57 1457.15C1243.75 1464.29 1247.32 1480.36 1245.54 1499.11C1245.54 1504.47 1242.86 1501.79 1241.07 1500Z" fill="#E41819"/>
<path fill-rule="evenodd" clip-rule="evenodd" d="M1244.64 1587.5V1532.14C1245.54 1519.64 1240.18 1510.71 1229.46 1508.03C1225 1507.14 1219.64 1507.14 1215.18 1509.82C1208.93 1513.39 1205.36 1519.64 1200 1525.89C1194.64 1532.14 1188.39 1538.39 1181.25 1541.07C1175 1543.75 1167.86 1544.64 1161.61 1548.21C1154.46 1551.78 1149.11 1557.14 1150 1566.96C1150 1572.32 1152.68 1577.67 1157.14 1581.25C1161.61 1584.82 1166.96 1586.6 1173.21 1588.39L1220.54 1603.57C1224.11 1604.46 1225.89 1603.57 1227.68 1600.89C1233.04 1592.85 1237.5 1591.96 1241.96 1591.07C1244.64 1591.96 1244.64 1589.28 1244.64 1587.5Z" fill="#E41819"/>
<path fill-rule="evenodd" clip-rule="evenodd" d="M1261.61 1500C1268.75 1492.86 1281.25 1487.5 1294.64 1498.22C1296.43 1499.11 1298.22 1500.9 1300 1502.68C1311.61 1513.4 1313.39 1523.22 1325.89 1529.47C1342.86 1537.5 1373.22 1537.5 1363.39 1570.54C1359.82 1580.36 1359.82 1578.58 1368.75 1576.79C1384.82 1573.22 1398.22 1564.29 1400 1547.33C1400.89 1531.25 1392.86 1518.75 1379.47 1514.29C1370.54 1511.61 1360.72 1510.72 1342.86 1498.22C1321.43 1483.93 1318.75 1465.18 1302.68 1457.15C1292.86 1453.58 1283.93 1453.58 1274.11 1457.15C1258.93 1464.29 1255.36 1480.36 1257.14 1499.11C1257.14 1504.47 1259.82 1501.79 1261.61 1500Z" fill="#E41819"/>
<path fill-rule="evenodd" clip-rule="evenodd" d="M1258.04 1587.5V1532.14C1257.14 1519.64 1262.5 1510.71 1273.21 1508.03C1277.68 1507.14 1283.04 1507.14 1287.5 1509.82C1293.75 1513.39 1297.32 1519.64 1302.68 1525.89C1308.04 1532.14 1314.29 1538.39 1321.43 1541.07C1327.68 1543.75 1334.82 1544.64 1341.07 1548.21C1348.22 1551.78 1353.57 1557.14 1352.68 1566.96C1352.68 1572.32 1350 1577.67 1345.54 1581.25C1341.07 1584.82 1335.71 1586.6 1329.46 1588.39L1282.14 1603.57C1281.25 1604.46 1279.47 1604.46 1278.57 1604.46C1277.68 1604.46 1277.68 1604.46 1276.79 1603.57C1269.64 1592.85 1266.07 1592.85 1259.82 1591.07C1258.04 1591.07 1257.14 1589.28 1258.04 1587.5Z" fill="#E41819"/>
<path fill-rule="evenodd" clip-rule="evenodd" d="M1330.36 1712.5C1340.18 1714.28 1353.57 1710.71 1358.04 1694.64C1358.93 1692.86 1358.93 1690.18 1359.82 1687.5C1362.5 1672.32 1358.04 1662.5 1365.18 1650C1374.11 1633.03 1399.11 1615.18 1371.43 1594.64C1363.39 1589.29 1363.39 1590.18 1372.32 1586.61C1387.5 1580.36 1403.57 1579.46 1415.18 1591.96C1425 1604.46 1426.79 1618.75 1417.86 1631.25C1412.5 1639.29 1405.36 1645.54 1398.22 1666.07C1390.18 1690.18 1398.22 1707.14 1389.29 1723.21C1383.93 1732.14 1375.89 1737.5 1366.07 1739.28C1349.11 1742.86 1337.5 1731.25 1327.68 1715.18C1325 1710.71 1328.57 1711.61 1330.36 1712.5Z" fill="#E41819"/>
<path fill-rule="evenodd" clip-rule="evenodd" d="M1275.89 1644.65L1308.93 1689.29C1315.18 1700 1325 1704.47 1335.72 1700C1340.18 1698.22 1343.75 1695.54 1345.54 1690.18C1348.22 1683.93 1348.22 1675.9 1348.22 1667.86C1349.11 1659.82 1350 1650.9 1354.47 1644.65C1358.04 1639.29 1362.5 1633.04 1366.07 1627.68C1369.64 1620.54 1370.54 1613.4 1364.29 1605.36C1360.72 1600.9 1356.25 1598.22 1350 1597.32C1343.75 1597.32 1339.29 1599.11 1333.04 1600.9L1285.72 1616.97C1283.04 1617.86 1281.25 1619.65 1282.14 1622.32C1283.04 1633.04 1278.57 1637.5 1275 1640.18C1274.11 1641.07 1275 1642.86 1275.89 1644.65Z" fill="#E41819"/>
<path fill-rule="evenodd" clip-rule="evenodd" d="M1171.43 1712.5C1161.61 1714.28 1148.21 1710.71 1143.75 1694.64C1142.86 1692.86 1142.86 1690.18 1141.96 1687.5C1139.29 1672.32 1143.75 1662.5 1136.61 1650C1127.68 1633.03 1102.68 1615.18 1130.36 1594.64C1138.39 1589.29 1138.39 1590.18 1129.46 1586.61C1114.29 1580.36 1098.21 1579.46 1086.61 1591.96C1076.79 1604.46 1075 1618.75 1083.93 1631.25C1089.29 1639.29 1096.43 1645.54 1103.57 1666.07C1111.61 1690.18 1103.57 1707.14 1112.5 1723.21C1117.86 1732.14 1125.89 1737.5 1135.71 1739.28C1152.68 1742.86 1164.29 1731.25 1174.11 1715.18C1177.68 1710.71 1174.11 1711.61 1171.43 1712.5Z" fill="#E41819"/>
<path fill-rule="evenodd" clip-rule="evenodd" d="M1225.89 1644.65L1192.86 1689.29C1186.61 1700 1176.79 1704.47 1166.07 1700C1161.61 1698.22 1158.04 1695.54 1156.25 1690.18C1153.57 1683.93 1153.57 1675.9 1153.57 1667.86C1152.68 1659.82 1151.79 1650.9 1147.32 1644.65C1143.75 1639.29 1138.39 1633.04 1135.71 1627.68C1132.14 1620.54 1131.25 1613.4 1137.5 1605.36C1141.07 1600.9 1145.54 1598.22 1151.79 1597.32C1158.04 1597.32 1162.5 1599.11 1168.75 1600.9L1216.07 1616.97C1218.75 1617.86 1219.64 1618.75 1220.54 1620.54C1218.75 1628.57 1222.32 1633.93 1226.79 1639.29C1227.68 1641.07 1227.68 1642.86 1225.89 1644.65Z" fill="#E41819"/>
<path fill-rule="evenodd" clip-rule="evenodd" d="M1314.29 1723.21C1312.5 1733.03 1306.25 1744.64 1288.39 1744.64C1285.71 1744.64 1283.93 1744.64 1281.25 1743.75C1266.07 1741.96 1258.04 1734.82 1244.64 1737.5C1225.89 1741.07 1200.89 1758.92 1190.18 1726.78C1187.5 1716.96 1188.39 1717.85 1182.14 1725C1171.43 1737.5 1165.18 1752.67 1175 1766.96C1183.93 1780.35 1197.32 1785.71 1211.61 1781.25C1220.54 1778.57 1228.57 1773.21 1250.89 1772.32C1276.79 1771.42 1290.18 1784.82 1307.14 1781.25C1316.96 1778.57 1325 1773.21 1329.46 1764.28C1337.5 1749.1 1330.36 1734.82 1317.86 1720.53C1314.29 1716.96 1314.29 1720.53 1314.29 1723.21Z" fill="#E41819"/>
<path fill-rule="evenodd" clip-rule="evenodd" d="M1266.07 1649.99L1299.11 1694.64C1307.14 1703.57 1308.93 1714.28 1300.89 1723.21C1297.32 1726.78 1293.75 1729.46 1288.39 1730.35C1281.25 1731.24 1274.11 1728.57 1266.07 1725.89C1258.04 1724.1 1250 1722.32 1241.97 1724.1C1235.72 1725.89 1228.57 1728.57 1222.32 1729.46C1214.29 1730.35 1207.14 1729.46 1201.79 1721.42C1198.22 1716.96 1197.32 1711.6 1199.11 1705.35C1200.89 1699.1 1204.47 1695.53 1208.04 1690.17L1237.5 1649.99C1239.29 1648.21 1240.18 1646.42 1242.86 1647.32C1251.79 1651.78 1258.93 1649.1 1262.5 1647.32C1263.39 1647.32 1265.18 1649.1 1266.07 1649.99Z" fill="#E41819"/>
<path d="M1270.54 1620.54C1270.54 1630.36 1262.5 1639.29 1251.79 1639.29C1241.97 1639.29 1233.04 1631.25 1233.04 1620.54C1233.04 1610.72 1241.07 1601.79 1251.79 1601.79C1261.61 1601.79 1270.54 1610.72 1270.54 1620.54Z" fill="#FEBE53"/>
<path fill-rule="evenodd" clip-rule="evenodd" d="M1233.93 1439.28C1232.14 1437.49 1232.14 1436.6 1234.82 1434.81C1240.18 1428.56 1244.64 1421.42 1250 1412.49C1255.36 1420.53 1260.71 1427.67 1265.18 1434.81C1266.96 1437.49 1267.86 1437.49 1266.07 1439.28C1259.82 1444.64 1253.57 1450.88 1250 1462.49C1247.32 1450.88 1240.18 1444.64 1233.93 1439.28Z" fill="#E41819"/>
<path fill-rule="evenodd" clip-rule="evenodd" d="M1417.86 1550C1418.75 1547.33 1419.64 1548.22 1422.32 1549.11C1430.36 1551.79 1438.39 1554.47 1448.21 1557.15C1441.96 1564.29 1436.61 1571.43 1431.25 1578.58C1429.46 1581.25 1429.46 1582.15 1426.78 1580.36C1419.64 1575.9 1411.61 1571.43 1400 1572.33C1410.71 1565.18 1414.28 1557.15 1417.86 1550Z" fill="#E41819"/>
<path fill-rule="evenodd" clip-rule="evenodd" d="M1074.11 1579.47C1071.43 1581.26 1071.43 1580.36 1069.64 1577.69C1065.18 1570.54 1059.82 1564.29 1053.57 1556.26C1063.39 1553.58 1071.43 1550.9 1079.46 1548.22C1082.14 1547.33 1083.04 1546.44 1083.93 1549.11C1086.61 1556.26 1091.07 1565.19 1100.89 1571.44C1089.29 1570.54 1080.36 1575.9 1074.11 1579.47Z" fill="#E41819"/>
<path fill-rule="evenodd" clip-rule="evenodd" d="M1369.64 1755.35C1372.32 1755.35 1372.32 1756.24 1372.32 1759.81C1372.32 1767.85 1372.32 1776.78 1373.21 1786.6C1364.28 1783.03 1355.36 1780.35 1347.32 1778.56C1344.64 1777.67 1343.75 1777.67 1343.75 1774.99C1345.54 1766.96 1347.32 1758.03 1342.86 1747.31C1352.68 1753.56 1361.61 1754.46 1369.64 1755.35Z" fill="#E41819"/>
<path fill-rule="evenodd" clip-rule="evenodd" d="M1158.04 1773.22C1158.93 1775.9 1158.04 1775.9 1154.46 1776.79C1146.43 1779.47 1138.39 1782.15 1129.46 1785.72C1130.36 1775.9 1130.36 1766.97 1129.46 1758.93C1129.46 1756.25 1129.46 1755.36 1132.14 1754.47C1140.18 1753.58 1149.11 1752.68 1158.04 1744.65C1154.46 1756.25 1156.25 1766.08 1158.04 1773.22Z" fill="#E41819"/>
</g>
<defs>
<clipPath id="clip0_290_2203">
<rect width="2500" height="2500" fill="white"/>
</clipPath>
</defs>
</svg>
